<?xml version="1.0" encoding="iso-8859-1"?>
<!-- Generator: Adobe Illustrator 19.0.0, SVG Export Plug-In . SVG Version: 6.00 Build 0)  -->
<svg version="1.1" id="Layer_1" xmlns="http://www.w3.org/2000/svg" xmlns:xlink="http://www.w3.org/1999/xlink" x="0px" y="0px"
	 viewBox="0 0 512 512" style="enable-background:new 0 0 512 512;" xml:space="preserve">
<path style="fill:#9B5A50;" d="M35.31,52.966h423.724c19.501,0,35.31,15.809,35.31,35.31v70.621H0V88.276
	C0,68.775,15.809,52.966,35.31,52.966z"/>
<path style="fill:#AA6455;" d="M459.034,123.586H35.31C15.809,123.586,0,107.777,0,88.276v335.448
	c0,19.501,15.809,35.31,35.31,35.31h423.724c19.501,0,35.31-15.809,35.31-35.31V158.897
	C494.345,139.394,478.536,123.586,459.034,123.586z"/>
<path style="fill:#915046;" d="M35.31,158.897c-19.501,0-35.31-15.809-35.31-35.31v264.828c0,19.501,15.809,35.31,35.31,35.31
	h397.241c14.626,0,26.483-11.857,26.483-26.483V185.379c0-14.626-11.857-26.483-26.483-26.483H35.31z"/>
<path style="fill:#9B5A50;" d="M35.31,176.552c-19.501,0-35.31-15.809-35.31-35.31v229.517c0,19.501,15.809,35.31,35.31,35.31
	h397.241c4.875,0,8.828-3.953,8.828-8.828V185.379c0-4.875-3.953-8.828-8.828-8.828H35.31z"/>
<path style="fill:#915046;" d="M494.345,335.448h-79.448c-24.376,0-44.138-19.762-44.138-44.138l0,0
	c0-24.376,19.762-44.138,44.138-44.138h79.448c9.751,0,17.655,7.904,17.655,17.655v52.966
	C512,327.543,504.095,335.448,494.345,335.448z"/>
<circle style="fill:#FFD782;" cx="414.897" cy="291.31" r="17.655"/>
<path style="fill:#915046;" d="M494.345,93.047c-9.383-8.425-21.738-13.599-35.31-13.599H35.31c-4.879,0-8.828,3.948-8.828,8.828
	c0,4.879,3.948,8.828,8.828,8.828h423.724c19.474,0,35.31,15.837,35.31,35.31V93.047z"/>
<g>
</g>
<g>
</g>
<g>
</g>
<g>
</g>
<g>
</g>
<g>
</g>
<g>
</g>
<g>
</g>
<g>
</g>
<g>
</g>
<g>
</g>
<g>
</g>
<g>
</g>
<g>
</g>
<g>
</g>
</svg>
