<?xml version="1.0" encoding="iso-8859-1"?>
<!-- Generator: Adobe Illustrator 19.0.0, SVG Export Plug-In . SVG Version: 6.00 Build 0)  -->
<svg version="1.1" id="Layer_1" xmlns="http://www.w3.org/2000/svg" xmlns:xlink="http://www.w3.org/1999/xlink" x="0px" y="0px"
	 viewBox="0 0 512.001 512.001" style="enable-background:new 0 0 512.001 512.001;" xml:space="preserve">
<path style="fill:#5B5D6E;" d="M285.651,116.6L264.828,12.484h-17.655L226.35,116.6c-3.768,18.841-6.195,37.927-7.261,57.112
	l-15.836,285.038c-0.139,2.508,0.796,4.956,2.572,6.732l43.933,43.933c3.447,3.447,9.037,3.447,12.484,0l43.933-43.933
	c1.775-1.775,2.711-4.224,2.572-6.732l-15.836-285.038C291.846,154.527,289.42,135.442,285.651,116.6z"/>
<g>
	<polygon style="fill:#707487;" points="209.177,352.134 207.708,378.568 299.209,287.068 297.895,263.415 	"/>
	<polygon style="fill:#707487;" points="206.062,408.215 204.593,434.649 301.997,337.245 300.684,313.593 	"/>
	<polygon style="fill:#707487;" points="212.293,296.053 210.824,322.487 296.421,236.889 295.108,213.238 	"/>
	<polygon style="fill:#707487;" points="306.258,413.95 230.276,489.931 242.758,502.414 307.572,437.601 	"/>
	<path style="fill:#707487;" d="M204.227,463.015c0.426,0.884,0.89,1.758,1.599,2.466l10.45,10.45l88.509-88.509l-1.313-23.652
		L204.227,463.015z"/>
	<path style="fill:#707487;" d="M218.524,183.891l-1.469,26.434l72.233-72.233c-1.034-7.145-2.197-14.271-3.612-21.354
		L218.524,183.891z"/>
	<polygon style="fill:#707487;" points="237.966,58.517 231.725,89.724 272.184,49.265 268.023,28.46 	"/>
	<path style="fill:#707487;" d="M292.143,163.236l-76.735,76.735l-1.469,26.434l79.694-79.694l-0.722-13
		C292.717,170.215,292.428,166.726,292.143,163.236z"/>
	<path style="fill:#707487;" d="M224.908,124.542c-1.731,9.653-3.114,19.358-4.142,29.108l60.247-60.247l-4.161-20.804
		L224.908,124.542z"/>
</g>
<polygon style="fill:#515262;" points="274.69,61.793 264.828,12.483 247.173,12.483 237.31,61.793 "/>
<g>
	<polygon style="fill:#5B5D6E;" points="272.184,49.265 268.023,28.46 237.966,58.517 237.31,61.793 259.655,61.793 	"/>
	<path style="fill:#5B5D6E;" d="M271.716,0h-31.43c-5.57,0-9.749,5.097-8.657,10.559l5.297,26.483
		c0.825,4.126,4.448,7.096,8.657,7.096h20.836c4.207,0,7.831-2.97,8.657-7.096l5.297-26.483C281.464,5.097,277.286,0,271.716,0z"/>
</g>
<path style="fill:#707487;" d="M250.828,0h-10.542c-3.978,0-7.157,2.645-8.301,6.121l37.473,37.473
	c2.819-1.035,5.002-3.469,5.618-6.552l2.133-10.663L250.828,0z"/>
<g>
</g>
<g>
</g>
<g>
</g>
<g>
</g>
<g>
</g>
<g>
</g>
<g>
</g>
<g>
</g>
<g>
</g>
<g>
</g>
<g>
</g>
<g>
</g>
<g>
</g>
<g>
</g>
<g>
</g>
</svg>
