<?xml version="1.0" encoding="iso-8859-1"?>
<!-- Generator: Adobe Illustrator 19.0.0, SVG Export Plug-In . SVG Version: 6.00 Build 0)  -->
<svg version="1.1" id="Layer_1" xmlns="http://www.w3.org/2000/svg" xmlns:xlink="http://www.w3.org/1999/xlink" x="0px" y="0px"
	 viewBox="0 0 512.001 512.001" style="enable-background:new 0 0 512.001 512.001;" xml:space="preserve">
<path style="fill:#C3E678;" d="M423.725,494.345H88.276c-9.751,0-17.655-7.904-17.655-17.655V17.655C70.621,7.904,78.525,0,88.276,0
	h335.448c9.751,0,17.655,7.904,17.655,17.655V476.69C441.38,486.44,433.475,494.345,423.725,494.345z"/>
<path style="fill:#EFF2FA;" d="M406.069,423.724V70.621c-19.502,0-35.31-15.809-35.31-35.31H141.242
	c0,19.501-15.809,35.31-35.31,35.31v353.103c19.501,0,35.31,15.809,35.31,35.31h229.517
	C370.759,439.533,386.567,423.724,406.069,423.724z"/>
<path style="fill:#FFD782;" d="M370.759,467.862H141.242c-4.875,0-8.828-3.953-8.828-8.828c0-14.603-11.88-26.483-26.483-26.483
	c-4.875,0-8.828-3.953-8.828-8.828V70.621c0-4.875,3.953-8.828,8.828-8.828c14.603,0,26.483-11.88,26.483-26.483
	c0-4.875,3.953-8.828,8.828-8.828h229.517c4.875,0,8.828,3.953,8.828,8.828c0,14.603,11.88,26.483,26.483,26.483
	c4.875,0,8.828,3.953,8.828,8.828v353.103c0,4.875-3.953,8.828-8.828,8.828c-14.603,0-26.483,11.88-26.483,26.483
	C379.587,463.91,375.634,467.862,370.759,467.862z M149.181,450.207h213.638c3.518-17.267,17.155-30.905,34.422-34.422V78.56
	c-17.267-3.517-30.904-17.155-34.421-34.422H149.181c-3.517,17.267-17.155,30.905-34.422,34.422v337.224
	C132.026,419.302,145.664,432.939,149.181,450.207z"/>
<g>
	<path style="fill:#FF6464;" d="M381.329,497.766l-20.557-5.091l-12.607,17.018c-2.71,3.658-8.403,2.819-9.943-1.464l-29.256-81.354
		l49.841-17.923l29.256,81.354C389.603,494.589,385.747,498.86,381.329,497.766z"/>
	<path style="fill:#FF6464;" d="M254.258,497.766l20.558-5.091l12.607,17.018c2.71,3.658,8.403,2.819,9.943-1.464l29.255-81.354
		l-49.841-17.923l-29.256,81.354C245.984,494.589,249.84,498.86,254.258,497.766z"/>
</g>
<circle style="fill:#FFD782;" cx="317.794" cy="379.586" r="61.793"/>
<circle style="fill:#FFC36E;" cx="317.794" cy="379.586" r="44.138"/>
<path style="fill:#FFD782;" d="M335.449,141.241H176.552c-4.875,0-8.828-3.953-8.828-8.828l0,0c0-4.875,3.953-8.828,8.828-8.828
	h158.897c4.875,0,8.828,3.953,8.828,8.828l0,0C344.276,137.289,340.324,141.241,335.449,141.241z"/>
<g style="opacity:0.97;">
	<path style="fill:#AFB9D2;" d="M185.38,211.861h-17.655c-4.875,0-8.828-3.953-8.828-8.828l0,0c0-4.875,3.953-8.828,8.828-8.828
		h17.655c4.875,0,8.828,3.953,8.828,8.828l0,0C194.207,207.91,190.255,211.861,185.38,211.861z"/>
</g>
<g style="opacity:0.97;">
	<path style="fill:#C7CFE2;" d="M344.275,211.861H220.69c-4.875,0-8.828-3.953-8.828-8.828l0,0c0-4.875,3.953-8.828,8.828-8.828
		h123.586c4.875,0,8.828,3.953,8.828,8.828l0,0C353.103,207.91,349.151,211.861,344.275,211.861z"/>
</g>
<g style="opacity:0.97;">
	<path style="fill:#AFB9D2;" d="M185.38,247.172h-17.655c-4.875,0-8.828-3.953-8.828-8.828l0,0c0-4.875,3.953-8.828,8.828-8.828
		h17.655c4.875,0,8.828,3.953,8.828,8.828l0,0C194.207,243.22,190.255,247.172,185.38,247.172z"/>
</g>
<g style="opacity:0.97;">
	<path style="fill:#C7CFE2;" d="M344.275,247.172H220.69c-4.875,0-8.828-3.953-8.828-8.828l0,0c0-4.875,3.953-8.828,8.828-8.828
		h123.586c4.875,0,8.828,3.953,8.828,8.828l0,0C353.103,243.22,349.151,247.172,344.275,247.172z"/>
</g>
<g style="opacity:0.97;">
	<path style="fill:#AFB9D2;" d="M185.38,282.483h-17.655c-4.875,0-8.828-3.953-8.828-8.828l0,0c0-4.875,3.953-8.828,8.828-8.828
		h17.655c4.875,0,8.828,3.953,8.828,8.828l0,0C194.207,278.53,190.255,282.483,185.38,282.483z"/>
</g>
<g style="opacity:0.97;">
	<path style="fill:#C7CFE2;" d="M344.275,282.483H220.69c-4.875,0-8.828-3.953-8.828-8.828l0,0c0-4.875,3.953-8.828,8.828-8.828
		h123.586c4.875,0,8.828,3.953,8.828,8.828l0,0C353.103,278.53,349.151,282.483,344.275,282.483z"/>
</g>
<g>
	<path style="fill:#D7DEED;" d="M229.518,361.931h-61.793c-4.875,0-8.828-3.953-8.828-8.828l0,0c0-4.875,3.953-8.828,8.828-8.828
		h61.793c4.875,0,8.828,3.953,8.828,8.828l0,0C238.345,357.978,234.393,361.931,229.518,361.931z"/>
	<path style="fill:#D7DEED;" d="M203.035,397.241h-35.31c-4.875,0-8.828-3.953-8.828-8.828l0,0c0-4.875,3.953-8.828,8.828-8.828
		h35.31c4.875,0,8.828,3.953,8.828,8.828l0,0C211.862,393.289,207.91,397.241,203.035,397.241z"/>
</g>
<path style="fill:#FFD782;" d="M308.966,105.931H203.035c-4.875,0-8.828-3.953-8.828-8.828l0,0c0-4.875,3.953-8.828,8.828-8.828
	h105.931c4.875,0,8.828,3.953,8.828,8.828l0,0C317.794,101.978,313.841,105.931,308.966,105.931z"/>
<g>
</g>
<g>
</g>
<g>
</g>
<g>
</g>
<g>
</g>
<g>
</g>
<g>
</g>
<g>
</g>
<g>
</g>
<g>
</g>
<g>
</g>
<g>
</g>
<g>
</g>
<g>
</g>
<g>
</g>
</svg>
