<?xml version="1.0" encoding="iso-8859-1"?>
<!-- Generator: Adobe Illustrator 19.0.0, SVG Export Plug-In . SVG Version: 6.00 Build 0)  -->
<svg version="1.1" id="Layer_1" xmlns="http://www.w3.org/2000/svg" xmlns:xlink="http://www.w3.org/1999/xlink" x="0px" y="0px"
	 viewBox="0 0 512 512" style="enable-background:new 0 0 512 512;" xml:space="preserve">
<rect x="52.966" y="201.776" style="fill:#707487;" width="406.069" height="247.172"/>
<g>
	<path style="fill:#AFB9D2;" d="M494.345,466.607H17.655c-4.875,0-8.828-3.953-8.828-8.828v-8.828c0-4.875,3.953-8.828,8.828-8.828
		h476.69c4.875,0,8.828,3.953,8.828,8.828v8.828C503.172,462.655,499.22,466.607,494.345,466.607z"/>
	<path style="fill:#AFB9D2;" d="M494.345,210.607H17.655c-4.875,0-8.828-3.953-8.828-8.828v-8.828c0-4.875,3.953-8.828,8.828-8.828
		h476.69c4.875,0,8.828,3.953,8.828,8.828v8.828C503.172,206.655,499.22,210.607,494.345,210.607z"/>
</g>
<g>
	<path style="fill:#C7CFE2;" d="M503.172,484.262H8.828c-4.875,0-8.828-3.953-8.828-8.828v-8.828c0-4.875,3.953-8.828,8.828-8.828
		h494.345c4.875,0,8.828,3.953,8.828,8.828v8.828C512,480.31,508.047,484.262,503.172,484.262z"/>
	<path style="fill:#C7CFE2;" d="M503.172,192.952H8.828c-4.875,0-8.828-3.953-8.828-8.828v-12.444c0-3.215,1.748-6.176,4.563-7.73
		L247.471,29.934c5.309-2.929,11.748-2.929,17.057,0l242.908,134.018c2.815,1.554,4.563,4.514,4.563,7.73v12.444
		C512,188.999,508.047,192.952,503.172,192.952z"/>
</g>
<path style="fill:#8F96AC;" d="M61.793,228.262h-35.31c-4.875,0-8.828-3.953-8.828-8.828v-8.828h52.966v8.828
	C70.621,224.31,66.668,228.262,61.793,228.262z"/>
<rect x="26.483" y="228.259" style="fill:#AFB9D2;" width="35.31" height="211.862"/>
<g>
	<path style="fill:#8F96AC;" d="M26.483,422.469h35.31c4.875,0,8.828,3.953,8.828,8.828v8.828H17.655v-8.828
		C17.655,426.422,21.608,422.469,26.483,422.469z"/>
	<path style="fill:#8F96AC;" d="M273.655,228.262h-35.31c-4.875,0-8.828-3.953-8.828-8.828v-8.828h52.966v8.828
		C282.483,224.31,278.53,228.262,273.655,228.262z"/>
</g>
<rect x="238.345" y="228.259" style="fill:#AFB9D2;" width="35.31" height="211.862"/>
<g>
	<path style="fill:#8F96AC;" d="M238.345,422.469h35.31c4.875,0,8.828,3.953,8.828,8.828v8.828h-52.966v-8.828
		C229.517,426.422,233.47,422.469,238.345,422.469z"/>
	<path style="fill:#8F96AC;" d="M203.034,228.262h-35.31c-4.875,0-8.828-3.953-8.828-8.828v-8.828h52.966v8.828
		C211.862,224.31,207.91,228.262,203.034,228.262z"/>
</g>
<rect x="167.724" y="228.259" style="fill:#AFB9D2;" width="35.31" height="211.862"/>
<g>
	<path style="fill:#8F96AC;" d="M167.724,422.469h35.31c4.875,0,8.828,3.953,8.828,8.828v8.828h-52.966v-8.828
		C158.897,426.422,162.849,422.469,167.724,422.469z"/>
	<path style="fill:#8F96AC;" d="M132.414,228.262h-35.31c-4.875,0-8.828-3.953-8.828-8.828v-8.828h52.966v8.828
		C141.241,224.31,137.289,228.262,132.414,228.262z"/>
</g>
<rect x="97.103" y="228.259" style="fill:#AFB9D2;" width="35.31" height="211.862"/>
<g>
	<path style="fill:#8F96AC;" d="M97.103,422.469h35.31c4.875,0,8.828,3.953,8.828,8.828v8.828H88.276v-8.828
		C88.276,426.422,92.228,422.469,97.103,422.469z"/>
	<path style="fill:#8F96AC;" d="M344.276,228.262h-35.31c-4.875,0-8.828-3.953-8.828-8.828v-8.828h52.966v8.828
		C353.103,224.31,349.151,228.262,344.276,228.262z"/>
</g>
<rect x="308.966" y="228.259" style="fill:#AFB9D2;" width="35.31" height="211.862"/>
<g>
	<path style="fill:#8F96AC;" d="M308.966,422.469h35.31c4.875,0,8.828,3.953,8.828,8.828v8.828h-52.966v-8.828
		C300.138,426.422,304.09,422.469,308.966,422.469z"/>
	<path style="fill:#8F96AC;" d="M485.517,228.262h-35.31c-4.875,0-8.828-3.953-8.828-8.828v-8.828h52.966v8.828
		C494.345,224.31,490.392,228.262,485.517,228.262z"/>
</g>
<rect x="450.207" y="228.259" style="fill:#AFB9D2;" width="35.31" height="211.862"/>
<g>
	<path style="fill:#8F96AC;" d="M450.207,422.469h35.31c4.875,0,8.828,3.953,8.828,8.828v8.828h-52.966v-8.828
		C441.379,426.422,445.332,422.469,450.207,422.469z"/>
	<path style="fill:#8F96AC;" d="M414.897,228.262h-35.31c-4.875,0-8.828-3.953-8.828-8.828v-8.828h52.966v8.828
		C423.724,224.31,419.772,228.262,414.897,228.262z"/>
</g>
<rect x="379.586" y="228.259" style="fill:#AFB9D2;" width="35.31" height="211.862"/>
<path style="fill:#8F96AC;" d="M379.586,422.469h35.31c4.875,0,8.828,3.953,8.828,8.828v8.828h-52.966v-8.828
	C370.759,426.422,374.711,422.469,379.586,422.469z"/>
<path style="fill:#AFB9D2;" d="M256,55.474l201.178,110.995H54.822L256,55.474"/>
<g>
	<path style="fill:#8F96AC;" d="M326.621,148.814H185.379c-4.875,0-8.828-3.953-8.828-8.828l0,0c0-4.875,3.953-8.828,8.828-8.828
		h141.241c4.875,0,8.828,3.953,8.828,8.828l0,0C335.448,144.862,331.496,148.814,326.621,148.814z"/>
	<path style="fill:#8F96AC;" d="M282.483,122.331h-52.966c-4.875,0-8.828-3.953-8.828-8.828l0,0c0-4.875,3.953-8.828,8.828-8.828
		h52.966c4.875,0,8.828,3.953,8.828,8.828l0,0C291.31,118.379,287.358,122.331,282.483,122.331z"/>
</g>
<g>
</g>
<g>
</g>
<g>
</g>
<g>
</g>
<g>
</g>
<g>
</g>
<g>
</g>
<g>
</g>
<g>
</g>
<g>
</g>
<g>
</g>
<g>
</g>
<g>
</g>
<g>
</g>
<g>
</g>
</svg>
