<?xml version="1.0" encoding="iso-8859-1"?>
<!-- Generator: Adobe Illustrator 19.0.0, SVG Export Plug-In . SVG Version: 6.00 Build 0)  -->
<svg version="1.1" id="Layer_1" xmlns="http://www.w3.org/2000/svg" xmlns:xlink="http://www.w3.org/1999/xlink" x="0px" y="0px"
	 viewBox="0 0 512 512" style="enable-background:new 0 0 512 512;" xml:space="preserve">
<path style="fill:#EFF2FA;" d="M397.242,0H123.586c-9.75,0-17.655,7.904-17.655,17.655v476.69c0,9.75,7.905,17.655,17.655,17.655
	h335.448c9.75,0,17.655-7.905,17.655-17.655V79.448L397.242,0z"/>
<g>
	<path style="fill:#D7DEED;" d="M476.69,79.448h-69.517c-5.485,0-9.931-4.446-9.931-9.931V0L476.69,79.448z"/>
	
		<rect x="176.035" y="329.235" transform="matrix(0.7071 0.7071 -0.7071 0.7071 309.1729 -27.6053)" style="fill:#D7DEED;" width="23.748" height="60.335"/>
</g>
<path style="fill:#C7CFE2;" d="M185.831,344.686c5.108,6.068,10.724,11.686,16.792,16.793l15.019-15.019l-16.792-16.792
	L185.831,344.686z"/>
<path style="fill:#707487;" d="M53.08,508.156l-13.924-13.921c-5.128-5.127-5.128-13.439-0.001-18.566L149.94,364.884
	c5.127-5.127,13.437-5.127,18.563-0.001l13.924,13.922c5.128,5.127,5.128,13.439,0.001,18.566L71.645,508.155
	C66.518,513.281,58.207,513.281,53.08,508.156z"/>
<path style="fill:#5B5D6E;" d="M52.282,488.794l110.786-110.785c5.127-5.127,13.437-5.127,18.563-0.001l0.812,0.812
	c0,0-0.009-0.011-0.013-0.017l-13.924-13.922c-5.127-5.125-13.438-5.125-18.564,0.001L39.156,475.669
	c-5.127,5.127-5.127,13.439,0.001,18.566l13.117,13.115C47.157,502.221,47.159,493.918,52.282,488.794z"/>
<path style="fill:#C7CFE2;" d="M174.342,405.458l8.088-8.088c5.127-5.127,5.127-13.439-0.001-18.566l-13.924-13.922
	c-5.127-5.125-13.438-5.125-18.564,0.001l-8.087,8.087L174.342,405.458z"/>
<g style="opacity:0.97;">
	<path style="fill:#AFB9D2;" d="M154.981,386.097l8.087-8.087c5.127-5.127,13.437-5.127,18.563-0.001l0.811,0.81
		c0,0-0.008-0.01-0.012-0.015l-13.924-13.922c-5.127-5.126-13.438-5.126-18.564,0.001l-8.087,8.087L154.981,386.097z"/>
</g>
<circle style="fill:#FFFFFF;" cx="291.311" cy="256" r="88.276"/>
<g>
	<path style="fill:#D7DEED;" d="M291.311,379.586c-68.147,0-123.586-55.439-123.586-123.586s55.439-123.586,123.586-123.586
		S414.897,187.853,414.897,256S359.457,379.586,291.311,379.586z M291.311,150.069c-58.41,0-105.931,47.521-105.931,105.931
		s47.521,105.931,105.931,105.931S397.242,314.41,397.242,256S349.72,150.069,291.311,150.069z"/>
	<path style="fill:#D7DEED;" d="M344.276,264.828H238.345c-4.875,0-8.828-3.953-8.828-8.828l0,0c0-4.875,3.953-8.828,8.828-8.828
		h105.931c4.875,0,8.828,3.953,8.828,8.828l0,0C353.104,260.875,349.151,264.828,344.276,264.828z"/>
	<path style="fill:#D7DEED;" d="M326.621,229.517h-26.483c-4.875,0-8.828-3.953-8.828-8.828l0,0c0-4.875,3.953-8.828,8.828-8.828
		h26.483c4.875,0,8.828,3.953,8.828,8.828l0,0C335.448,225.565,331.496,229.517,326.621,229.517z"/>
	<path style="fill:#D7DEED;" d="M256,300.138h-8.828c-4.875,0-8.828-3.953-8.828-8.828l0,0c0-4.875,3.953-8.828,8.828-8.828H256
		c4.875,0,8.828,3.953,8.828,8.828l0,0C264.828,296.185,260.875,300.138,256,300.138z"/>
</g>
<g>
	<path style="fill:#C7CFE2;" d="M264.828,229.517h-17.655c-4.875,0-8.828-3.953-8.828-8.828l0,0c0-4.875,3.953-8.828,8.828-8.828
		h17.655c4.875,0,8.828,3.953,8.828,8.828l0,0C273.655,225.565,269.703,229.517,264.828,229.517z"/>
	<path style="fill:#C7CFE2;" d="M326.621,300.138h-35.31c-4.875,0-8.828-3.953-8.828-8.828l0,0c0-4.875,3.953-8.828,8.828-8.828
		h35.31c4.875,0,8.828,3.953,8.828,8.828l0,0C335.448,296.185,331.496,300.138,326.621,300.138z"/>
</g>
<g>
</g>
<g>
</g>
<g>
</g>
<g>
</g>
<g>
</g>
<g>
</g>
<g>
</g>
<g>
</g>
<g>
</g>
<g>
</g>
<g>
</g>
<g>
</g>
<g>
</g>
<g>
</g>
<g>
</g>
</svg>
