<?xml version="1.0" encoding="iso-8859-1"?>
<!-- Generator: Adobe Illustrator 19.0.0, SVG Export Plug-In . SVG Version: 6.00 Build 0)  -->
<svg version="1.1" id="Layer_1" xmlns="http://www.w3.org/2000/svg" xmlns:xlink="http://www.w3.org/1999/xlink" x="0px" y="0px"
	 viewBox="0 0 512 512" style="enable-background:new 0 0 512 512;" xml:space="preserve">
<path style="fill:#EFF2FA;" d="M494.233,441.337H17.651C7.902,441.337,0,433.435,0,423.686V229.523
	c0-9.749,7.902-17.651,17.651-17.651h476.582c9.749,0,17.651,7.902,17.651,17.651v194.163
	C511.884,433.435,503.981,441.337,494.233,441.337z"/>
<path style="fill:#D7DEED;" d="M366.914,211.872l-89.489,89.489l0,0l-12.599,27.718l-8.667,19.067
	c-1.362,2.997,1.721,6.081,4.718,4.718l19.067-8.667l27.718-12.599l119.727-119.728h-60.475V211.872z"/>
<g>
	<path style="fill:#C3E678;" d="M388.326,300.128H211.814c-4.874,0-8.826-3.952-8.826-8.826l0,0c0-4.874,3.952-8.826,8.826-8.826
		h176.512c4.874,0,8.826,3.952,8.826,8.826l0,0C397.152,296.177,393.2,300.128,388.326,300.128z"/>
	<path style="fill:#C3E678;" d="M149.779,354.258c0-19.603-11.563-31.617-34.689-36.676l-8.139-1.597v-33.693
		c6.213,1.302,11.118,4.984,13.565,9.893c2.071,4.154,6.295,6.789,10.936,6.789c9.457,0,15.59-10.424,10.557-18.429
		c-6.573-10.449-18.89-17.456-35.056-19.251v-5.819c0-4.583-3.716-8.298-8.298-8.298s-8.298,3.716-8.298,8.298v5.817
		c-25.656,2.793-40.665,16.835-40.665,38.314c0,18.79,11.653,31.346,33.424,36.404l7.241,1.708v35.408
		c-7.332-1.364-12.911-5.121-15.664-10.401c-2.139-4.103-6.294-6.752-10.921-6.752h-1.22c-9.462,0-15.525,10.392-10.553,18.443
		c6.774,10.967,20.14,17.877,38.358,19.406v3.913c0,4.583,3.716,8.298,8.298,8.298s8.298-3.716,8.298-8.298v-3.998
		C134.344,390.918,149.779,376.779,149.779,354.258z M75.795,297.347c0-7.885,5.955-13.85,14.558-15.189v30.336
		C80.846,309.902,75.795,304.713,75.795,297.347z M106.951,373.449v-32.59c11.762,2.647,17.264,7.886,17.264,16.289
		C124.215,366.301,117.847,372.305,106.951,373.449z"/>
	<path style="fill:#C3E678;" d="M476.582,264.826H211.814c-4.874,0-8.826-3.952-8.826-8.826l0,0c0-4.874,3.952-8.826,8.826-8.826
		h264.768c4.874,0,8.826,3.952,8.826,8.826l0,0C485.407,260.875,481.456,264.826,476.582,264.826z"/>
</g>
<g>
	<polygon style="fill:#A5D76E;" points="313.96,264.826 374.436,264.826 392.087,247.174 331.612,247.174 	"/>
	<polygon style="fill:#A5D76E;" points="339.133,300.128 356.784,282.477 296.309,282.477 278.658,300.128 	"/>
</g>
<path style="fill:#C7CFE2;" d="M220.64,335.43h-8.826c-4.874,0-8.826-3.952-8.826-8.826l0,0c0-4.874,3.952-8.826,8.826-8.826h8.826
	c4.874,0,8.826,3.952,8.826,8.826l0,0C229.465,331.48,225.514,335.43,220.64,335.43z"/>
<path style="fill:#D7DEED;" d="M432.454,335.43H255.942c-4.874,0-8.826-3.952-8.826-8.826l0,0c0-4.874,3.952-8.826,8.826-8.826
	h176.512c4.874,0,8.826,3.952,8.826,8.826l0,0C441.279,331.479,437.328,335.43,432.454,335.43z"/>
<path style="fill:#C7CFE2;" d="M220.64,370.733h-8.826c-4.874,0-8.826-3.952-8.826-8.826l0,0c0-4.874,3.952-8.826,8.826-8.826h8.826
	c4.874,0,8.826,3.952,8.826,8.826l0,0C229.465,366.782,225.514,370.733,220.64,370.733z"/>
<path style="fill:#D7DEED;" d="M414.803,370.733H255.942c-4.874,0-8.826-3.952-8.826-8.826l0,0c0-4.874,3.952-8.826,8.826-8.826
	h158.861c4.874,0,8.826,3.952,8.826,8.826l0,0C423.628,366.781,419.677,370.733,414.803,370.733z"/>
<path style="fill:#C7CFE2;" d="M220.64,406.036h-8.826c-4.874,0-8.826-3.952-8.826-8.826l0,0c0-4.874,3.952-8.826,8.826-8.826h8.826
	c4.874,0,8.826,3.952,8.826,8.826l0,0C229.465,402.084,225.514,406.036,220.64,406.036z"/>
<path style="fill:#D7DEED;" d="M432.454,406.035H255.942c-4.874,0-8.826-3.952-8.826-8.826l0,0c0-4.874,3.952-8.826,8.826-8.826
	h176.512c4.874,0,8.826,3.952,8.826,8.826l0,0C441.279,402.084,437.328,406.035,432.454,406.035z"/>
<rect x="366.374" y="47.934" transform="matrix(-0.7071 -0.7071 0.7071 -0.7071 509.0024 591.7888)" style="fill:#FFC36E;" width="21.381" height="285.086"/>
<rect x="381.488" y="63.057" transform="matrix(-0.7071 -0.7071 0.7071 -0.7071 524.1094 628.2932)" style="fill:#FFD782;" width="21.381" height="285.086"/>
<path style="fill:#EFF2FA;" d="M500.537,112.365l-30.238-30.238l8.879-8.879c3.446-3.446,9.035-3.446,12.482,0l17.756,17.756
	c3.446,3.446,3.446,9.035,0,12.482L500.537,112.365z"/>
<g>
	<path style="fill:#D7DEED;" d="M485.417,97.245l-15.119-15.119l8.879-8.879c3.446-3.446,9.035-3.446,12.482,0l8.879,8.879
		L485.417,97.245z"/>
	<polygon style="fill:#D7DEED;" points="259.691,322.972 283.833,298.829 268.714,283.711 253.625,316.906 	"/>
</g>
<polygon style="fill:#FFFFFF;" points="265.757,329.037 298.951,313.949 283.833,298.829 259.691,322.972 "/>
<path style="fill:#707487;" d="M252.167,335.215l19.067-8.667l-15.119-15.119l-8.667,19.067
	C246.086,333.494,249.17,336.578,252.167,335.215z"/>
<g>
</g>
<g>
</g>
<g>
</g>
<g>
</g>
<g>
</g>
<g>
</g>
<g>
</g>
<g>
</g>
<g>
</g>
<g>
</g>
<g>
</g>
<g>
</g>
<g>
</g>
<g>
</g>
<g>
</g>
</svg>
