<?xml version="1.0" encoding="iso-8859-1"?>
<!-- Generator: Adobe Illustrator 19.0.0, SVG Export Plug-In . SVG Version: 6.00 Build 0)  -->
<svg version="1.1" id="Layer_1" xmlns="http://www.w3.org/2000/svg" xmlns:xlink="http://www.w3.org/1999/xlink" x="0px" y="0px"
	 viewBox="0 0 512 512" style="enable-background:new 0 0 512 512;" xml:space="preserve">
<path style="fill:#AFB9D2;" d="M256,0L256,0c-4.875,0-8.828,3.953-8.828,8.828V35.31h17.655V8.828C264.828,3.953,260.875,0,256,0z"
	/>
<rect x="167.724" y="379.586" style="fill:#959CB3;" width="176.552" height="17.655"/>
<g>
	<path style="fill:#AFB9D2;" d="M123.698,505.833l34.012-161.557h26.483l-33.886,160.959c-0.83,3.943-4.309,6.765-8.338,6.765
		h-13.267C125.453,512,123.029,509.011,123.698,505.833z"/>
	<path style="fill:#AFB9D2;" d="M388.302,505.833L354.29,344.276h-26.483l33.886,160.959c0.83,3.943,4.309,6.765,8.338,6.765h13.267
		C386.546,512,388.971,509.011,388.302,505.833z"/>
</g>
<path style="fill:#D7DEED;" d="M503.172,52.966H8.828C3.953,52.966,0,49.013,0,44.138V35.31c0-4.875,3.953-8.828,8.828-8.828
	h494.345c4.875,0,8.828,3.953,8.828,8.828v8.828C512,49.013,508.047,52.966,503.172,52.966z"/>
<path style="fill:#EFF2FA;" d="M503.172,52.966H8.828v282.483c0,9.751,7.904,17.655,17.655,17.655h459.034
	c9.751,0,17.655-7.904,17.655-17.655V52.966z"/>
<path style="fill:#FFD782;" d="M273.655,308.966h-35.31c-4.875,0-8.828-3.953-8.828-8.828V158.897c0-4.875,3.953-8.828,8.828-8.828
	h35.31c4.875,0,8.828,3.953,8.828,8.828v141.241C282.483,305.013,278.53,308.966,273.655,308.966z"/>
<path style="fill:#FFC36E;" d="M273.655,308.966h-35.31c-4.875,0-8.828-3.953-8.828-8.828v-97.103c0-4.875,3.953-8.828,8.828-8.828
	h35.31c4.875,0,8.828,3.953,8.828,8.828v97.103C282.483,305.013,278.53,308.966,273.655,308.966z"/>
<path style="fill:#FF6464;" d="M194.207,308.966h-35.31c-4.875,0-8.828-3.953-8.828-8.828v-97.103c0-4.875,3.953-8.828,8.828-8.828
	h35.31c4.875,0,8.828,3.953,8.828,8.828v97.103C203.035,305.013,199.082,308.966,194.207,308.966z"/>
<path style="fill:#D2555A;" d="M194.207,308.966h-35.31c-4.875,0-8.828-3.953-8.828-8.828v-52.966c0-4.875,3.953-8.828,8.828-8.828
	h35.31c4.875,0,8.828,3.953,8.828,8.828v52.966C203.035,305.013,199.082,308.966,194.207,308.966z"/>
<path style="fill:#00D2FF;" d="M114.759,308.966h-35.31c-4.875,0-8.828-3.953-8.828-8.828v-52.966c0-4.875,3.953-8.828,8.828-8.828
	h35.31c4.875,0,8.828,3.953,8.828,8.828v52.966C123.586,305.013,119.634,308.966,114.759,308.966z"/>
<path style="fill:#18BDF6;" d="M114.759,308.966h-35.31c-4.875,0-8.828-3.953-8.828-8.828v-17.655c0-4.875,3.953-8.828,8.828-8.828
	h35.31c4.875,0,8.828,3.953,8.828,8.828v17.655C123.586,305.013,119.634,308.966,114.759,308.966z"/>
<path style="fill:#C3E678;" d="M353.103,308.966h-35.31c-4.875,0-8.828-3.953-8.828-8.828v-97.103c0-4.875,3.953-8.828,8.828-8.828
	h35.31c4.875,0,8.828,3.953,8.828,8.828v97.103C361.931,305.013,357.978,308.966,353.103,308.966z"/>
<path style="fill:#A5D76E;" d="M353.103,308.966h-35.31c-4.875,0-8.828-3.953-8.828-8.828v-52.966c0-4.875,3.953-8.828,8.828-8.828
	h35.31c4.875,0,8.828,3.953,8.828,8.828v52.966C361.931,305.013,357.978,308.966,353.103,308.966z"/>
<path style="fill:#9BE6D2;" d="M432.552,308.966h-35.31c-4.875,0-8.828-3.953-8.828-8.828V105.931c0-4.875,3.953-8.828,8.828-8.828
	h35.31c4.875,0,8.828,3.953,8.828,8.828v194.207C441.379,305.013,437.427,308.966,432.552,308.966z"/>
<path style="fill:#78D2BE;" d="M432.552,308.966h-35.31c-4.875,0-8.828-3.953-8.828-8.828V150.069c0-4.875,3.953-8.828,8.828-8.828
	h35.31c4.875,0,8.828,3.953,8.828,8.828v150.069C441.379,305.013,437.427,308.966,432.552,308.966z"/>
<path style="fill:#AFB9D2;" d="M459.034,317.792H52.966c-4.875,0-8.828-3.953-8.828-8.828l0,0c0-4.875,3.953-8.828,8.828-8.828
	h406.069c4.875,0,8.828,3.953,8.828,8.828l0,0C467.862,313.841,463.91,317.792,459.034,317.792z"/>
<g>
</g>
<g>
</g>
<g>
</g>
<g>
</g>
<g>
</g>
<g>
</g>
<g>
</g>
<g>
</g>
<g>
</g>
<g>
</g>
<g>
</g>
<g>
</g>
<g>
</g>
<g>
</g>
<g>
</g>
</svg>
