<?xml version="1.0" encoding="iso-8859-1"?>
<!-- Generator: Adobe Illustrator 19.0.0, SVG Export Plug-In . SVG Version: 6.00 Build 0)  -->
<svg version="1.1" id="Layer_1" xmlns="http://www.w3.org/2000/svg" xmlns:xlink="http://www.w3.org/1999/xlink" x="0px" y="0px"
	 viewBox="0 0 512.001 512.001" style="enable-background:new 0 0 512.001 512.001;" xml:space="preserve">
<path style="fill:#E4EAF6;" d="M397.242,370.759H264.975v-70.336c0-4.875-3.948-8.828-8.828-8.828c-4.879,0-8.828,3.953-8.828,8.828
	v70.336H114.759c-24.337,0-44.138,19.801-44.138,44.138v52.966c0,4.875,3.948,8.828,8.828,8.828s8.828-3.953,8.828-8.828v-52.966
	c0-14.603,11.88-26.483,26.483-26.483h132.561v79.448c0,4.875,3.948,8.828,8.828,8.828c4.879,0,8.828-3.953,8.828-8.828v-79.448
	h132.267c14.603,0,26.483,11.88,26.483,26.483v52.966c0,4.875,3.948,8.828,8.828,8.828c4.879,0,8.828-3.953,8.828-8.828v-52.966
	C441.38,390.561,421.578,370.759,397.242,370.759z"/>
<polygon style="fill:#E6AF78;" points="302.933,213.822 302.933,177.319 209.067,177.319 209.067,213.822 256,255.54 "/>
<path style="fill:#707487;" d="M375.503,230.897l-64.529-15.183c-0.974-0.23-1.87-0.618-2.71-1.09L256,245.111l-50.227-31.962
	c-1.3,1.224-2.914,2.134-4.747,2.566l-64.529,15.183c-9.422,2.217-16.082,10.625-16.082,20.305v40.842
	c0,5.76,4.67,10.43,10.43,10.43h250.31c5.76,0,10.43-4.67,10.43-10.43v-40.842C391.584,241.522,384.925,233.114,375.503,230.897z"/>
<path style="fill:#D29B6E;" d="M209.067,177.319v38.514c59.123,21.301,93.866-32.011,93.866-32.011v-6.504h-93.866V177.319z"/>
<path style="fill:#F0C087;" d="M188.208,57.379l4.544,99.975c0.425,9.34,5.004,18.001,12.483,23.61l21.561,16.171
	c5.416,4.062,12.003,6.258,18.773,6.258h20.86c6.77,0,13.357-2.196,18.773-6.258l21.561-16.171
	c7.479-5.61,12.058-14.27,12.483-23.61l4.544-99.975H188.208z"/>
<path style="fill:#E6AF78;" d="M240.356,78.238c20.86,0,52.148-5.215,59.569-20.86H188.208l4.544,99.975
	c0.425,9.34,5.004,18.001,12.483,23.61l21.561,16.171c5.416,4.062,12.003,6.258,18.773,6.258H256
	c-10.43,0-31.288-20.86-31.288-46.933c0-12.753,0-46.933,0-62.578C224.712,88.668,229.927,78.238,240.356,78.238z"/>
<g>
	<path style="fill:#5B5D6E;" d="M353.301,268.629l33.791-30.355c2.831,3.585,4.492,8.097,4.492,12.927v40.842
		c0,5.76-4.67,10.43-10.43,10.43h-36.503v-14.446C344.651,280.626,347.796,273.575,353.301,268.629z"/>
	<path style="fill:#5B5D6E;" d="M158.699,268.629l-33.791-30.355c-2.831,3.585-4.492,8.097-4.492,12.927v40.842
		c0,5.76,4.67,10.43,10.43,10.43h36.503v-14.446C167.349,280.626,164.204,273.575,158.699,268.629z"/>
	<polygon style="fill:#5B5D6E;" points="269.038,302.473 242.963,302.473 246.223,255.54 265.778,255.54 	"/>
</g>
<path style="fill:#515262;" d="M269.038,245.111h-26.073v5.774c0,5.451,4.418,9.869,9.869,9.869h6.335
	c5.451,0,9.869-4.418,9.869-9.869V245.111z"/>
<g>
	<path style="fill:#5B5D6E;" d="M208.335,202.212L256,245.111c0,0-13.348,6.739-29.822,20.321
		c-3.399,2.802-8.538,1.666-10.361-2.343l-22.394-49.267l7.084-10.626C202.271,200.55,205.971,200.084,208.335,202.212z"/>
	<path style="fill:#5B5D6E;" d="M303.666,202.212L256,245.111c0,0,13.348,6.739,29.822,20.321c3.399,2.802,8.538,1.666,10.361-2.343
		l22.395-49.267l-7.084-10.626C309.729,200.55,306.028,200.084,303.666,202.212z"/>
</g>
<path style="fill:#785550;" d="M287.615,22.831l4.889,34.548c22.316,4.463,25.533,39.485,25.996,49.489
	c0.084,1.815,0.664,3.569,1.649,5.096l8.514,13.208c0,0-2.914-21.837,10.43-36.503C339.092,88.668,343.674,1.972,287.615,22.831z"/>
<path style="fill:#F0C087;" d="M333.894,122.939l-5.889,23.556c-0.697,2.791-3.206,4.749-6.082,4.749l0,0
	c-3.161,0-5.828-2.355-6.221-5.492l-3.011-24.093c-0.806-6.443,4.218-12.134,10.711-12.134h0.021
	C330.444,109.527,335.598,116.126,333.894,122.939z"/>
<path style="fill:#694B4B;" d="M193.205,13.488l7.713,5.269c-34.873,25.748-28.355,69.91-28.355,69.91
	c10.43,10.43,10.43,36.503,10.43,36.503l10.43-10.43c0,0-4.025-30.127,15.645-41.718c18.252-10.755,34.222-5.215,50.518-5.215
	c43.673,0,55.896-16.459,53.778-36.503C312.266,20.933,296.41-0.67,256,0.016C239.692,0.294,209.067,5.231,193.205,13.488z"/>
<path style="fill:#5A4146;" d="M190.164,63.246c0,0-5.54-21.837,10.755-44.489c-34.873,25.748-28.355,69.91-28.355,69.91
	c10.43,10.43,10.43,36.503,10.43,36.503l10.43-10.43c0,0-4.025-30.127,15.645-41.718c18.252-10.755,34.222-5.215,50.518-5.215
	c7.103,0,13.292-0.476,18.805-1.291C244.756,67.645,224.929,42.169,190.164,63.246z"/>
<path style="fill:#E6AF78;" d="M178.107,122.939l5.889,23.556c0.697,2.791,3.206,4.749,6.082,4.749l0,0
	c3.161,0,5.828-2.355,6.221-5.492l3.011-24.093c0.806-6.443-4.218-12.134-10.711-12.134h-0.021
	C181.556,109.527,176.403,116.126,178.107,122.939z"/>
<path style="fill:#5B5D6E;" d="M320.859,292.044h-30.636c-4.5,0-8.149,3.648-8.149,8.149v2.281h46.933v-2.281
	C329.007,295.692,325.359,292.044,320.859,292.044z"/>
<path style="fill:#FFD782;" d="M291.311,512.001H220.69c-4.875,0-8.828-3.953-8.828-8.828v-35.31c0-4.875,3.953-8.828,8.828-8.828
	h70.621c4.875,0,8.828,3.953,8.828,8.828v35.31C300.138,508.048,296.186,512.001,291.311,512.001z"/>
<path style="fill:#FFC36E;" d="M273.655,494.345h-35.31c-4.875,0-8.828-3.953-8.828-8.828l0,0c0-4.875,3.953-8.828,8.828-8.828
	h35.31c4.875,0,8.828,3.953,8.828,8.828l0,0C282.483,490.393,278.53,494.345,273.655,494.345z"/>
<path style="fill:#C3E678;" d="M467.862,512.001h-70.621c-4.875,0-8.828-3.953-8.828-8.828v-35.31c0-4.875,3.953-8.828,8.828-8.828
	h70.621c4.875,0,8.828,3.953,8.828,8.828v35.31C476.69,508.048,472.737,512.001,467.862,512.001z"/>
<path style="fill:#A5D76E;" d="M450.207,494.345h-35.31c-4.875,0-8.828-3.953-8.828-8.828l0,0c0-4.875,3.953-8.828,8.828-8.828
	h35.31c4.875,0,8.828,3.953,8.828,8.828l0,0C459.035,490.393,455.082,494.345,450.207,494.345z"/>
<path style="fill:#FF6464;" d="M114.759,512.001H44.138c-4.875,0-8.828-3.953-8.828-8.828v-35.31c0-4.875,3.953-8.828,8.828-8.828
	h70.621c4.875,0,8.828,3.953,8.828,8.828v35.31C123.586,508.048,119.634,512.001,114.759,512.001z"/>
<path style="fill:#D2555A;" d="M97.104,494.345h-35.31c-4.875,0-8.828-3.953-8.828-8.828l0,0c0-4.875,3.953-8.828,8.828-8.828h35.31
	c4.875,0,8.828,3.953,8.828,8.828l0,0C105.931,490.393,101.979,494.345,97.104,494.345z"/>
<g>
</g>
<g>
</g>
<g>
</g>
<g>
</g>
<g>
</g>
<g>
</g>
<g>
</g>
<g>
</g>
<g>
</g>
<g>
</g>
<g>
</g>
<g>
</g>
<g>
</g>
<g>
</g>
<g>
</g>
</svg>
