<?xml version="1.0" encoding="iso-8859-1"?>
<!-- Generator: Adobe Illustrator 19.0.0, SVG Export Plug-In . SVG Version: 6.00 Build 0)  -->
<svg version="1.1" id="Layer_1" xmlns="http://www.w3.org/2000/svg" xmlns:xlink="http://www.w3.org/1999/xlink" x="0px" y="0px"
	 viewBox="0 0 512 512" style="enable-background:new 0 0 512 512;" xml:space="preserve">
<g>
	<path style="fill:#C7CFE2;" d="M30.137,17.655h31.656c4.879,0,8.828-3.953,8.828-8.828S66.673,0,61.793,0H8.828
		C3.948,0,0,3.953,0,8.828v52.966c0,4.875,3.948,8.828,8.828,8.828s8.828-3.953,8.828-8.828V30.137l95.276,95.276l12.483-12.483
		L30.137,17.655z"/>
	<path style="fill:#C7CFE2;" d="M503.172,0h-52.966c-4.879,0-8.828,3.953-8.828,8.828s3.948,8.828,8.828,8.828h31.656
		l-95.276,95.276l12.483,12.483l95.275-95.277v31.656c0,4.875,3.948,8.828,8.828,8.828c4.879,0,8.828-3.953,8.828-8.828V8.828
		C512,3.953,508.052,0,503.172,0z"/>
	<path style="fill:#C7CFE2;" d="M503.172,441.379c-4.879,0-8.828,3.953-8.828,8.828v31.656l-95.276-95.276l-12.483,12.483
		l95.276,95.275h-31.655c-4.879,0-8.828,3.953-8.828,8.828c0,4.875,3.948,8.828,8.828,8.828h52.966c4.879,0,8.828-3.953,8.828-8.828
		v-52.966C512,445.332,508.052,441.379,503.172,441.379z"/>
	<path style="fill:#C7CFE2;" d="M61.793,494.345H30.137l95.276-95.276l-12.483-12.483l-95.275,95.276v-31.655
		c0-4.875-3.948-8.828-8.828-8.828S0,445.332,0,450.207v52.966C0,508.047,3.948,512,8.828,512h52.966
		c4.879,0,8.828-3.953,8.828-8.828C70.621,498.297,66.673,494.345,61.793,494.345z"/>
</g>
<path style="fill:#E4EAF6;" d="M256,476.69c-121.686,0-220.69-99.004-220.69-220.69S134.314,35.31,256,35.31
	S476.69,134.314,476.69,256S377.686,476.69,256,476.69z"/>
<path style="fill:#C3E678;" d="M256,450.207c-107.084,0-194.207-87.123-194.207-194.207S148.916,61.793,256,61.793
	S450.207,148.916,450.207,256S363.084,450.207,256,450.207z"/>
<path style="fill:#A5D76E;" d="M335.448,397.241c-107.084,0-194.207-87.123-194.207-194.207c0-49.873,18.912-95.402,49.922-129.831
	C115.919,99.981,61.793,171.683,61.793,256c0,107.084,87.123,194.207,194.207,194.207c56.897,0,107.985-24.74,143.516-63.874
	C379.442,393.369,357.894,397.241,335.448,397.241z"/>
<polygon style="fill:#E6AF78;" points="292.986,300.895 292.986,272.127 219.014,272.127 219.014,300.895 256,333.772 "/>
<path style="fill:#EFF2FA;" d="M350.177,314.351l-50.854-11.966c-0.768-0.181-1.474-0.488-2.135-0.86L256,325.553l-39.582-25.188
	c-1.025,0.964-2.296,1.682-3.742,2.022l-50.854,11.966c-7.425,1.747-12.673,8.373-12.673,16.001v32.186c0,4.54,3.68,8.22,8.22,8.22
	h197.262c4.54,0,8.22-3.68,8.22-8.22v-32.186C362.85,322.724,357.602,316.098,350.177,314.351z"/>
<path style="fill:#E4EAF6;" d="M174.365,311.4l-12.542,2.951c-7.425,1.747-12.673,8.373-12.673,16.001v32.186
	c0,4.54,3.68,8.22,8.22,8.22h80.361C212.423,355.957,190.721,335.635,174.365,311.4z"/>
<path style="fill:#D29B6E;" d="M219.014,272.127v30.353c46.593,16.787,73.974-25.227,73.974-25.227v-5.126H219.014z"/>
<path style="fill:#F0C087;" d="M202.574,177.606l3.581,78.787c0.334,7.36,3.944,14.186,9.837,18.606l16.992,12.744
	c4.268,3.201,9.46,4.931,14.795,4.931h16.438c5.335,0,10.527-1.73,14.795-4.931l16.992-12.744c5.895-4.42,9.503-11.246,9.837-18.606
	l3.582-78.787H202.574z"/>
<path style="fill:#E6AF78;" d="M243.671,194.044c16.438,0,41.097-4.109,46.945-16.438h-88.041l3.581,78.787
	c0.334,7.36,3.944,14.186,9.838,18.606l16.992,12.745c4.268,3.201,9.46,4.931,14.795,4.931H256c-8.22,0-24.658-16.438-24.658-36.986
	c0-10.049,0-36.986,0-49.315C231.342,202.263,235.452,194.044,243.671,194.044z"/>
<path style="fill:#E4EAF6;" d="M332.681,344.087l26.631-23.922c2.231,2.826,3.54,6.381,3.54,10.187v32.186
	c0,4.54-3.68,8.22-8.22,8.22h-28.768v-11.385C325.864,353.542,328.342,347.985,332.681,344.087z"/>
<polygon style="fill:#5B5D6E;" points="266.274,370.759 245.726,370.759 248.295,333.772 263.705,333.772 "/>
<path style="fill:#515262;" d="M266.274,325.553h-20.548v2.46c0,5.451,4.418,9.869,9.869,9.869h0.809
	c5.451,0,9.869-4.418,9.869-9.869v-2.46H266.274z"/>
<g>
	<path style="fill:#E4EAF6;" d="M218.436,291.745L256,325.553c0,0-10.52,5.311-23.502,16.014c-2.678,2.208-6.729,1.313-8.166-1.846
		l-17.649-38.826l5.583-8.375C213.657,290.435,216.574,290.069,218.436,291.745z"/>
	<path style="fill:#E4EAF6;" d="M293.564,291.745L256,325.553c0,0,10.52,5.311,23.502,16.014c2.678,2.208,6.729,1.313,8.166-1.846
		l17.649-38.826l-5.583-8.375C298.343,290.435,295.426,290.069,293.564,291.745z"/>
</g>
<path style="fill:#785550;" d="M280.915,150.379l3.853,27.226c17.587,3.518,20.121,31.117,20.487,39
	c0.066,1.43,0.523,2.812,1.299,4.015l6.71,10.409c0,0-2.297-17.209,8.22-28.768C321.483,202.263,325.094,133.94,280.915,150.379z"/>
<path style="fill:#F0C087;" d="M317.386,229.272l-4.641,18.564c-0.549,2.199-2.526,3.743-4.793,3.743l0,0
	c-2.492,0-4.594-1.855-4.903-4.328l-2.374-18.987c-0.635-5.077,3.325-9.562,8.441-9.562h0.017
	C314.668,218.701,318.729,223.903,317.386,229.272z"/>
<path style="fill:#694B4B;" d="M206.513,143.016l6.079,4.152c-27.484,20.291-22.346,55.095-22.346,55.095
	c8.22,8.22,8.22,28.768,8.22,28.768l8.22-8.22c0,0-3.172-23.743,12.329-32.877c14.383-8.476,26.969-4.109,39.812-4.109
	c34.419,0,44.051-12.971,42.38-28.768c-0.864-8.173-13.361-25.199-45.206-24.658C243.148,132.618,219.014,136.509,206.513,143.016z"
	/>
<path style="fill:#5A4146;" d="M204.116,182.229c0,0-4.366-17.209,8.476-35.06c-27.484,20.291-22.346,55.095-22.346,55.095
	c8.22,8.22,8.22,28.768,8.22,28.768l8.22-8.22c0,0-3.172-23.743,12.329-32.877c14.383-8.476,26.969-4.109,39.812-4.109
	c5.598,0,10.475-0.375,14.819-1.017C247.138,185.696,231.513,165.619,204.116,182.229z"/>
<path style="fill:#E6AF78;" d="M194.613,229.272l4.641,18.564c0.55,2.199,2.526,3.743,4.793,3.743l0,0
	c2.492,0,4.594-1.855,4.903-4.328l2.374-18.987c0.634-5.077-3.325-9.562-8.441-9.562h-0.017
	C197.332,218.701,193.271,223.903,194.613,229.272z"/>
<path style="fill:#E4EAF6;" d="M305.315,362.539h-20.548c-4.54,0-8.22,3.68-8.22,8.22l0,0h36.987l0,0
	C313.535,366.219,309.855,362.539,305.315,362.539z"/>
<g>
</g>
<g>
</g>
<g>
</g>
<g>
</g>
<g>
</g>
<g>
</g>
<g>
</g>
<g>
</g>
<g>
</g>
<g>
</g>
<g>
</g>
<g>
</g>
<g>
</g>
<g>
</g>
<g>
</g>
</svg>
