<?xml version="1.0" encoding="iso-8859-1"?>
<!-- Generator: Adobe Illustrator 19.0.0, SVG Export Plug-In . SVG Version: 6.00 Build 0)  -->
<svg version="1.1" id="Layer_1" xmlns="http://www.w3.org/2000/svg" xmlns:xlink="http://www.w3.org/1999/xlink" x="0px" y="0px"
	 viewBox="0 0 512 512" style="enable-background:new 0 0 512 512;" xml:space="preserve">
<g>
	<path style="fill:#C7CFE2;" d="M450.207,264.828c-4.875,0-8.828-3.953-8.828-8.828c0-102.22-83.159-185.379-185.379-185.379
		c-65.979,0-127.509,35.517-160.582,92.694c-2.444,4.224-7.858,5.668-12.061,3.224c-4.224-2.444-5.664-7.84-3.224-12.061
		c36.22-62.616,103.608-101.513,175.866-101.513c111.953,0,203.034,91.082,203.034,203.034
		C459.035,260.875,455.082,264.828,450.207,264.828z"/>
	<path style="fill:#C7CFE2;" d="M256.001,459.034c-111.953,0-203.034-91.082-203.034-203.034c0-4.875,3.953-8.828,8.828-8.828
		c4.875,0,8.828,3.953,8.828,8.828c0,102.22,83.159,185.379,185.379,185.379c51.224,0,100.655-21.5,135.608-58.983
		c3.336-3.564,8.914-3.754,12.479-0.436c3.564,3.328,3.758,8.914,0.436,12.479C366.237,435.491,312.104,459.034,256.001,459.034z"/>
</g>
<polygon style="fill:#E6AF78;" points="448.509,448.509 448.509,422.366 381.284,422.366 381.284,448.509 414.897,478.387 "/>
<path style="fill:#EFF2FA;" d="M500.483,460.738l-46.215-10.875c-0.697-0.164-1.34-0.442-1.941-0.781l-37.43,21.835l-35.971-22.891
	c-0.931,0.877-2.087,1.528-3.4,1.837l-46.215,10.875c-6.749,1.588-11.518,7.609-11.518,14.541v29.25
	c0,4.126,3.345,7.469,7.469,7.469H504.53c4.126,0,7.469-3.345,7.469-7.469v-29.25C512.001,468.348,507.231,462.326,500.483,460.738z
	"/>
<path style="fill:#D29B6E;" d="M381.284,422.366v27.583c42.343,15.255,67.225-22.925,67.225-22.925v-4.658H381.284z"/>
<path style="fill:#F0C087;" d="M366.345,336.467l3.254,71.601c0.305,6.689,3.584,12.892,8.94,16.909l15.443,11.582
	c3.879,2.909,8.597,4.482,13.445,4.482h14.938c4.849,0,9.566-1.572,13.446-4.482l15.443-11.582c5.357-4.018,8.637-10.22,8.94-16.909
	l3.254-71.601H366.345z"/>
<path style="fill:#E6AF78;" d="M403.693,351.405c14.938,0,37.347-3.735,42.663-14.938h-80.01l3.254,71.601
	c0.305,6.689,3.584,12.892,8.94,16.909l15.443,11.582c3.879,2.909,8.597,4.482,13.445,4.482h7.469
	c-7.469,0-22.409-14.938-22.409-33.613c0-9.133,0-33.613,0-44.817C392.488,358.876,396.223,351.405,403.693,351.405z"/>
<g>
	<path style="fill:#E4EAF6;" d="M484.582,487.762l24.201-21.74c2.028,2.568,3.217,5.799,3.217,9.258v29.25
		c0,4.126-3.345,7.469-7.469,7.469h-26.143v-10.347C478.387,496.353,480.639,491.303,484.582,487.762z"/>
	<path style="fill:#E4EAF6;" d="M345.212,487.762l-24.201-21.74c-2.028,2.568-3.217,5.799-3.217,9.258v29.25
		c0,4.126,3.345,7.469,7.469,7.469h26.143v-10.347C351.406,496.353,349.155,491.303,345.212,487.762z"/>
</g>
<polygon style="fill:#5B5D6E;" points="424.233,512 405.56,512 407.895,478.387 421.9,478.387 "/>
<path style="fill:#515262;" d="M424.233,470.918H405.56v2.717c0,4.687,3.8,8.488,8.488,8.488h1.697c4.687,0,8.488-3.8,8.488-8.488
	v-2.717H424.233z"/>
<g>
	<path style="fill:#E4EAF6;" d="M380.76,440.194l34.137,30.723c0,0-9.56,4.826-21.358,14.553c-2.434,2.007-6.115,1.194-7.421-1.678
		l-16.039-35.284l5.074-7.611C376.417,439.004,379.067,438.67,380.76,440.194z"/>
	<path style="fill:#E4EAF6;" d="M449.034,440.194l-34.137,30.723c0,0,9.56,4.826,21.358,14.553c2.434,2.007,6.115,1.194,7.421-1.678
		l16.039-35.284l-5.074-7.611C453.377,439.004,450.727,438.67,449.034,440.194z"/>
</g>
<path style="fill:#785550;" d="M437.539,311.724l3.501,24.743c15.982,3.197,18.286,28.279,18.617,35.443
	c0.061,1.3,0.476,2.556,1.181,3.649l6.098,9.46c0,0-2.088-15.639,7.469-26.143C474.406,358.876,477.688,296.785,437.539,311.724z"/>
<path style="fill:#F0C087;" d="M470.683,383.421l-4.217,16.871c-0.5,1.998-2.295,3.401-4.356,3.401l0,0
	c-2.264,0-4.174-1.686-4.456-3.933l-2.157-17.255c-0.577-4.615,3.021-8.69,7.671-8.69h0.014
	C468.214,373.814,471.903,378.541,470.683,383.421z"/>
<path style="fill:#694B4B;" d="M369.924,305.033l5.524,3.774c-24.977,18.441-20.308,50.069-20.308,50.069
	c7.469,7.469,7.469,26.143,7.469,26.143l7.469-7.469c0,0-2.882-21.577,11.204-29.878c13.071-7.703,24.51-3.735,36.18-3.735
	c31.278,0,40.032-11.788,38.515-26.143c-0.785-7.428-12.142-22.901-41.082-22.409C403.217,295.583,381.284,299.119,369.924,305.033z
	"/>
<path style="fill:#5A4146;" d="M367.746,340.669c0,0-3.968-15.639,7.703-31.862c-24.977,18.441-20.308,50.069-20.308,50.069
	c7.469,7.469,7.469,26.143,7.469,26.143l7.469-7.469c0,0-2.882-21.577,11.204-29.878c13.071-7.703,24.51-3.735,36.18-3.735
	c5.087,0,9.519-0.341,13.468-0.925C406.844,343.819,392.644,325.574,367.746,340.669z"/>
<path style="fill:#E6AF78;" d="M359.11,383.421l4.217,16.871c0.5,1.998,2.295,3.401,4.356,3.401l0,0
	c2.264,0,4.174-1.686,4.456-3.933l2.157-17.255c0.577-4.615-3.021-8.69-7.671-8.69h-0.014
	C361.581,373.814,357.891,378.541,359.11,383.421z"/>
<path style="fill:#E4EAF6;" d="M460.393,504.531h-20.032c-3.751,0-6.791,3.04-6.791,6.791V512h33.613v-0.679
	C467.183,507.571,464.143,504.531,460.393,504.531z"/>
<path style="fill:#694B4B;" d="M79.449,0C5.476,0,13.679,89.955,14.017,155.144c0.013,2.462,1.302,4.682,3.411,5.953
	c8.198,4.941,30.708,16.494,62.022,16.494s53.825-11.552,62.022-16.494c2.109-1.271,3.399-3.491,3.411-5.953
	C145.219,89.955,153.422,0,79.449,0z"/>
<path style="fill:#5A4146;" d="M74.683,0.185C5.885,4.042,13.686,91.405,14.017,155.144c0.013,2.462,1.302,4.682,3.411,5.953
	c8.198,4.941,30.709,16.494,62.022,16.494L98.142,46.734"/>
<path style="fill:#694B4B;" d="M79.449,0C37.388,0,34.467,50.824,34.467,50.824c24.244-4.089,39.14,6.134,63.676-4.089
	L79.449,177.59c31.314,0,53.825-11.553,62.022-16.494c2.109-1.271,3.399-3.491,3.411-5.953C145.219,89.955,153.422,0,79.449,0z"/>
<path style="fill:#785550;" d="M144.881,155.144c0.29-56.015,6.337-130.264-38.888-150.066c-0.788,4.098-2.217,15.538,1.495,22.963
	c9.347,18.694,18.694,18.694,28.041,32.714c9.347,51.407-17.859,105.972-26.895,113.399l0,0c16.01-3.808,27.486-9.833,32.835-13.057
	C143.579,159.825,144.869,157.606,144.881,155.144z"/>
<path style="fill:#E6AF78;" d="M150.269,169.322l-41.702-17.376c-3.484-1.451-5.752-4.854-5.752-8.628v-11.294H56.082v11.294
	c0,3.774-2.269,7.177-5.752,8.628L8.628,169.322c-5.225,2.177-8.628,7.282-8.628,12.941v18.694c0,5.162,4.184,9.347,9.347,9.347
	h140.203c5.162,0,9.347-4.184,9.347-9.347v-18.694C158.897,176.604,155.494,171.499,150.269,169.322z"/>
<path style="fill:#B4E1FA;" d="M150.269,169.322l-40.32-16.8l-30.5,13.163l-30.5-13.163l-40.32,16.8
	c-5.225,2.177-8.628,7.282-8.628,12.941v18.694c0,5.162,4.184,9.347,9.347,9.347h140.203c5.162,0,9.347-4.184,9.347-9.347v-18.694
	C158.897,176.604,155.494,171.499,150.269,169.322z"/>
<path style="fill:#D29B6E;" d="M102.815,132.024H56.082v11.294c0,3.774-2.269,7.177-5.752,8.628l-6.514,2.713
	C93.658,167.369,102.815,132.024,102.815,132.024z"/>
<g>
	<path style="fill:#A0D2F0;" d="M22.779,187.401L4.02,172.48c-2.514,2.57-4.02,6.046-4.02,9.783v18.694
		c0,5.162,4.184,9.347,9.347,9.347h18.694v-11.956C28.041,194.09,26.105,190.061,22.779,187.401z"/>
	<path style="fill:#A0D2F0;" d="M158.897,200.958v-18.694c0-3.709-1.482-7.161-3.959-9.726l-18.819,14.862
		c-3.326,2.66-5.262,6.689-5.262,10.948v11.956h18.694C154.712,210.304,158.897,206.12,158.897,200.958z"/>
	<path style="fill:#A0D2F0;" d="M79.708,200.958h-0.52c-2.438,0-4.414-1.976-4.414-4.414v-30.848h9.347v30.848
		C84.122,198.982,82.146,200.958,79.708,200.958z"/>
	<path style="fill:#A0D2F0;" d="M79.449,165.685L52.7,145.624c-1.717-1.288-4.163-0.868-5.354,0.917l-5.286,7.928l16.398,22.958
		c1.247,1.746,3.703,2.087,5.378,0.746L79.449,165.685z"/>
	<path style="fill:#A0D2F0;" d="M79.449,165.685l26.749-20.061c1.717-1.288,4.163-0.868,5.354,0.917l5.286,7.928l-16.398,22.958
		c-1.247,1.746-3.703,2.087-5.378,0.746L79.449,165.685z"/>
</g>
<path style="fill:#F0C087;" d="M102.815,42.061c-23.367,23.367-69.225,4.673-69.225,42.06l2.902,27.54
	c0.559,6.161,4.131,11.645,9.538,14.649l26.609,14.783c4.234,2.353,9.383,2.353,13.618,0l26.609-14.783
	c5.407-3.005,8.979-8.489,9.538-14.649l3.35-32.708c0.238-2.325,0.289-4.664,0.211-6.997
	C124.217,60.061,107.49,51.407,102.815,42.061z"/>
<path style="fill:#E6AF78;" d="M33.591,84.121l2.902,27.54c0.559,6.161,4.131,11.645,9.538,14.649l26.609,14.783
	c2.938,1.632,6.308,2.056,9.515,1.422l0,0c0,0-13.417-4.065-21.4-25.679c-2.445-6.622-5.842-41.672-2.921-45.955
	c5.773-8.468,37.972-9.347,47.486-25.055c-0.47-0.583-0.904-1.167-1.301-1.752c-0.032-0.047-0.071-0.095-0.103-0.141
	c-0.413-0.621-0.788-1.244-1.101-1.87C79.449,65.428,33.591,46.734,33.591,84.121z"/>
<path style="fill:#A0D2F0;" d="M112.682,200.958h-10.386c-4.875,0-8.828,3.953-8.828,8.828v0.52h28.041v-0.52
	C121.51,204.909,117.558,200.958,112.682,200.958z"/>
<g>
	<path style="fill:#C7CFE2;" d="M97.104,282.483c-2.259,0-4.518-0.862-6.241-2.586l-29.069-29.069l-29.069,29.069
		c-3.448,3.448-9.034,3.448-12.482,0c-3.448-3.448-3.448-9.035,0-12.483l35.31-35.31c3.448-3.448,9.034-3.448,12.482,0l35.31,35.31
		c3.448,3.448,3.448,9.035,0,12.483C101.622,281.621,99.363,282.483,97.104,282.483z"/>
	<path style="fill:#C7CFE2;" d="M450.207,282.483c-2.259,0-4.518-0.862-6.241-2.586l-35.31-35.31c-3.448-3.448-3.448-9.035,0-12.483
		c3.448-3.448,9.035-3.448,12.483,0l29.068,29.069l29.069-29.069c3.448-3.448,9.035-3.448,12.483,0
		c3.448,3.448,3.448,9.035,0,12.483l-35.31,35.31C454.725,281.621,452.466,282.483,450.207,282.483z"/>
</g>
<g>
</g>
<g>
</g>
<g>
</g>
<g>
</g>
<g>
</g>
<g>
</g>
<g>
</g>
<g>
</g>
<g>
</g>
<g>
</g>
<g>
</g>
<g>
</g>
<g>
</g>
<g>
</g>
<g>
</g>
</svg>
