<?xml version="1.0" encoding="iso-8859-1"?>
<!-- Generator: Adobe Illustrator 19.0.0, SVG Export Plug-In . SVG Version: 6.00 Build 0)  -->
<svg version="1.1" id="Layer_1" xmlns="http://www.w3.org/2000/svg" xmlns:xlink="http://www.w3.org/1999/xlink" x="0px" y="0px"
	 viewBox="0 0 512 512" style="enable-background:new 0 0 512 512;" xml:space="preserve">
<path style="fill:#D5DCEC;" d="M256,370.759c-35.015,0-65.178-10.219-79.448-24.995v86.788h158.897v-86.788
	C321.178,360.54,291.015,370.759,256,370.759z"/>
<path style="fill:#EFF2FA;" d="M458.294,390.836l-109.235-25.703c-1.65-0.388-3.167-1.047-4.587-1.846L256,414.896l-85.023-54.105
	c-2.201,2.072-4.934,3.613-8.036,4.343L53.706,390.837c-15.95,3.752-27.223,17.984-27.223,34.37v69.138
	c0,9.751,7.904,17.655,17.655,17.655h423.724c9.751,0,17.655-7.904,17.655-17.655v-69.138
	C485.517,408.821,474.244,394.589,458.294,390.836z"/>
<g>
	<path style="fill:#E4EAF6;" d="M91.289,454.709l-57.203-51.384c-4.793,6.069-7.604,13.707-7.604,21.884v69.137
		c0,9.751,7.904,17.655,17.655,17.655h61.793v-24.456C105.931,475.017,100.608,463.08,91.289,454.709z"/>
	<path style="fill:#E4EAF6;" d="M420.711,454.709l57.202-51.384c4.793,6.069,7.604,13.707,7.604,21.884v69.137
		c0,9.751-7.904,17.655-17.655,17.655h-61.793v-24.456C406.069,475.017,411.392,463.08,420.711,454.709z"/>
</g>
<polygon style="fill:#5B5D6E;" points="278.069,512 233.931,512 239.448,432.552 272.552,432.552 "/>
<path style="fill:#515262;" d="M278.069,414.896h-44.138v16.614c0,5.451,4.418,9.869,9.869,9.869h24.398
	c5.451,0,9.869-4.418,9.869-9.869v-16.614H278.069z"/>
<g>
	<path style="fill:#E4EAF6;" d="M175.311,342.277L256,414.896c0,0-22.598,11.407-50.483,34.4
		c-5.752,4.743-14.454,2.822-17.539-3.966l-37.909-83.4l11.992-17.988C165.047,339.464,171.311,338.677,175.311,342.277z"/>
	<path style="fill:#E4EAF6;" d="M336.687,342.277L256,414.896c0,0,22.598,11.407,50.483,34.4c5.752,4.743,14.454,2.822,17.539-3.966
		l37.909-83.4l-11.992-17.988C346.953,339.464,340.689,338.677,336.687,342.277z"/>
</g>
<path style="fill:#FFF5C8;" d="M379.586,123.586c0-72.914-63.143-131.079-137.729-122.799
	c-55.475,6.158-100.876,50.397-108.295,105.717c-7.085,52.833,19.279,100.17,60.853,124.106
	c10.846,6.244,17.448,17.871,17.448,30.387v3.831h88.276v-3.83c0-12.505,6.583-24.136,17.422-30.372
	C354.609,209.304,379.586,169.404,379.586,123.586z"/>
<path style="fill:#707487;" d="M273.655,335.448h-35.31c-3.343,0-6.4-1.889-7.895-4.879l-6.388-12.776h63.878l-6.388,12.776
	C280.055,333.559,276.999,335.448,273.655,335.448z"/>
<circle style="fill:#FFFAE1;" cx="256" cy="123.586" r="97.103"/>
<path style="fill:#FFFFFF;" d="M291.31,150.069H220.69c-4.879,0-8.828-3.953-8.828-8.828c0-4.875,3.948-8.828,8.828-8.828h70.621
	c4.879,0,8.828,3.953,8.828,8.828C300.138,146.116,296.19,150.069,291.31,150.069z"/>
<path style="fill:#C7CFE2;" d="M299.871,143.383c1.19-4.733-1.689-9.526-6.422-10.707c-4.742-1.219-9.517,1.694-10.698,6.422
	l-17.655,70.621c-0.182,0.703-0.268,1.422-0.268,2.143v70.621h-17.655v-70.621c0-0.719-0.086-1.44-0.267-2.142L229.25,139.1
	c-1.181-4.724-6.001-7.638-10.698-6.422c-4.733,1.181-7.612,5.974-6.422,10.707l17.387,69.564v69.535h-4.414
	c-4.875,0-8.828,3.953-8.828,8.828s3.953,8.828,8.828,8.828c-4.875,0-8.828,3.953-8.828,8.828s3.953,8.828,8.828,8.828h61.793
	c4.875,0,8.828-3.953,8.828-8.828s-3.953-8.828-8.828-8.828c4.875,0,8.828-3.953,8.828-8.828s-3.953-8.828-8.828-8.828h-4.414
	v-69.535L299.871,143.383z"/>
<path style="fill:#FAEBAA;" d="M264.828,264.828h-17.655v-52.966c0-4.875,3.953-8.828,8.828-8.828l0,0
	c4.875,0,8.828,3.953,8.828,8.828V264.828z"/>
<path style="fill:#AFB9D2;" d="M285.855,282.483h-59.709c-3.343,0-6.4-1.889-7.895-4.879l-6.389-12.776h88.276l-6.388,12.776
	C292.255,280.594,289.198,282.483,285.855,282.483z"/>
<path style="fill:#E4EAF6;" d="M370.759,494.345h-61.793c-4.875,0-8.828,3.953-8.828,8.828V512h79.448v-8.828
	C379.586,498.296,375.634,494.345,370.759,494.345z"/>
<g>
</g>
<g>
</g>
<g>
</g>
<g>
</g>
<g>
</g>
<g>
</g>
<g>
</g>
<g>
</g>
<g>
</g>
<g>
</g>
<g>
</g>
<g>
</g>
<g>
</g>
<g>
</g>
<g>
</g>
</svg>
