<?xml version="1.0" encoding="iso-8859-1"?>
<!-- Generator: Adobe Illustrator 19.0.0, SVG Export Plug-In . SVG Version: 6.00 Build 0)  -->
<svg version="1.1" id="Layer_1" xmlns="http://www.w3.org/2000/svg" xmlns:xlink="http://www.w3.org/1999/xlink" x="0px" y="0px"
	 viewBox="0 0 512 512" style="enable-background:new 0 0 512 512;" xml:space="preserve">
<path style="fill:#EFF2FA;" d="M105.931,392.828h388.414c9.751,0,17.655-7.904,17.655-17.655V92.69
	c0-9.751-7.904-17.655-17.655-17.655H105.931c-9.751,0-17.655,7.904-17.655,17.655v282.483
	C88.276,384.922,96.18,392.828,105.931,392.828z"/>
<path style="fill:#FFD782;" d="M317.793,348.69h-35.31c-4.875,0-8.828-3.953-8.828-8.828V128c0-4.875,3.953-8.828,8.828-8.828h35.31
	c4.875,0,8.828,3.953,8.828,8.828v211.862C326.621,344.737,322.668,348.69,317.793,348.69z"/>
<path style="fill:#FFC36E;" d="M317.793,348.69h-35.31c-4.875,0-8.828-3.953-8.828-8.828v-88.276c0-4.875,3.953-8.828,8.828-8.828
	h35.31c4.875,0,8.828,3.953,8.828,8.828v88.276C326.621,344.737,322.668,348.69,317.793,348.69z"/>
<path style="fill:#C3E678;" d="M388.414,348.69h-35.31c-4.875,0-8.828-3.953-8.828-8.828v-88.276c0-4.875,3.953-8.828,8.828-8.828
	h35.31c4.875,0,8.828,3.953,8.828,8.828v88.276C397.241,344.737,393.289,348.69,388.414,348.69z"/>
<path style="fill:#A5D76E;" d="M388.414,348.69h-35.31c-4.875,0-8.828-3.953-8.828-8.828v-17.655c0-4.875,3.953-8.828,8.828-8.828
	h35.31c4.875,0,8.828,3.953,8.828,8.828v17.655C397.241,344.737,393.289,348.69,388.414,348.69z"/>
<path style="fill:#B4E1FA;" d="M176.552,348.69h-35.31c-4.875,0-8.828-3.953-8.828-8.828v-88.276c0-4.875,3.953-8.828,8.828-8.828
	h35.31c4.875,0,8.828,3.953,8.828,8.828v88.276C185.379,344.737,181.427,348.69,176.552,348.69z"/>
<path style="fill:#9BE6D2;" d="M459.034,348.69h-35.31c-4.875,0-8.828-3.953-8.828-8.828V180.966c0-4.875,3.953-8.828,8.828-8.828
	h35.31c4.875,0,8.828,3.953,8.828,8.828v158.897C467.862,344.737,463.91,348.69,459.034,348.69z"/>
<path style="fill:#78D2BE;" d="M459.034,348.69h-35.31c-4.875,0-8.828-3.953-8.828-8.828v-52.966c0-4.875,3.953-8.828,8.828-8.828
	h35.31c4.875,0,8.828,3.953,8.828,8.828v52.966C467.862,344.737,463.91,348.69,459.034,348.69z"/>
<path style="fill:#FF6464;" d="M247.172,348.69h-35.31c-4.875,0-8.828-3.953-8.828-8.828V216.276c0-4.875,3.953-8.828,8.828-8.828
	h35.31c4.875,0,8.828,3.953,8.828,8.828v123.586C256,344.737,252.047,348.69,247.172,348.69z"/>
<path style="fill:#D2555A;" d="M247.172,348.69h-35.31c-4.875,0-8.828-3.953-8.828-8.828v-35.31c0-4.875,3.953-8.828,8.828-8.828
	h35.31c4.875,0,8.828,3.953,8.828,8.828v35.31C256,344.737,252.047,348.69,247.172,348.69z"/>
<path style="fill:#A0D2F0;" d="M176.552,348.69h-35.31c-4.875,0-8.828-3.953-8.828-8.828v-17.655c0-4.875,3.953-8.828,8.828-8.828
	h35.31c4.875,0,8.828,3.953,8.828,8.828v17.655C185.379,344.737,181.427,348.69,176.552,348.69z"/>
<path style="fill:#D7DEED;" d="M485.517,357.517H114.759c-4.875,0-8.828-3.953-8.828-8.828l0,0c0-4.875,3.953-8.828,8.828-8.828
	h370.759c4.875,0,8.828,3.953,8.828,8.828l0,0C494.345,353.565,490.392,357.517,485.517,357.517z"/>
<polygon style="fill:#E6AF78;" points="142.6,367.703 142.6,339.183 69.262,339.183 69.262,367.703 105.931,400.297 "/>
<path style="fill:#B4E1FA;" d="M199.297,381.044l-50.415-11.862c-0.761-0.179-1.462-0.483-2.116-0.852l-40.834,23.819
	l-39.242-24.972c-1.016,0.957-2.276,1.667-3.709,2.004l-50.415,11.862C5.203,382.775,0,389.345,0,396.907v31.91
	c0,4.501,3.648,8.149,8.149,8.149h195.565c4.5,0,8.149-3.648,8.149-8.149v-31.91C211.862,389.345,206.659,382.775,199.297,381.044z"
	/>
<path style="fill:#D29B6E;" d="M69.262,339.183v30.091c46.193,16.642,73.337-25.01,73.337-25.01v-5.081L69.262,339.183
	L69.262,339.183z"/>
<path style="fill:#F0C087;" d="M52.966,245.474l3.551,78.11c0.332,7.297,3.91,14.063,9.753,18.446l16.846,12.634
	c4.232,3.174,9.378,4.889,14.667,4.889h16.297c5.289,0,10.436-1.716,14.667-4.889l16.846-12.634
	c5.844-4.383,9.421-11.149,9.753-18.446l3.55-78.11H52.966z"/>
<path style="fill:#E6AF78;" d="M93.708,261.772c16.297,0,40.743-4.074,46.541-16.297H52.966l3.55,78.11
	c0.332,7.297,3.91,14.063,9.753,18.446l16.846,12.634c4.232,3.174,9.378,4.889,14.667,4.889h8.149
	c-8.149,0-24.446-16.297-24.446-36.669c0-9.963,0-36.669,0-48.892C81.485,269.92,85.559,261.772,93.708,261.772z"/>
<g>
	<path style="fill:#A0D2F0;" d="M181.952,410.524l26.401-23.716c2.212,2.802,3.51,6.326,3.51,10.1v31.91
		c0,4.5-3.648,8.149-8.149,8.149h-28.52v-11.287C175.193,419.896,177.651,414.387,181.952,410.524z"/>
	<path style="fill:#A0D2F0;" d="M29.91,410.524l-26.4-23.716c-2.214,2.802-3.51,6.326-3.51,10.1v31.91
		c0,4.501,3.648,8.149,8.149,8.149h28.52v-11.287C36.669,419.896,34.211,414.387,29.91,410.524z"/>
</g>
<polygon style="fill:#5B5D6E;" points="116.117,436.966 95.745,436.966 98.292,400.297 113.57,400.297 "/>
<path style="fill:#515262;" d="M116.117,392.149H95.745v2.354c0,5.451,4.418,9.869,9.869,9.869h0.632
	c5.451,0,9.869-4.418,9.869-9.869v-2.354H116.117z"/>
<g>
	<path style="fill:#A0D2F0;" d="M68.691,358.632l37.24,33.517c0,0-10.43,5.265-23.3,15.876c-2.655,2.189-6.671,1.302-8.095-1.831
		l-17.496-38.492l5.535-8.302C63.953,357.333,66.844,356.97,68.691,358.632z"/>
	<path style="fill:#A0D2F0;" d="M143.171,358.632l-37.24,33.517c0,0,10.43,5.265,23.3,15.876c2.655,2.189,6.671,1.302,8.095-1.831
		l17.496-38.492l-5.535-8.302C147.91,357.333,145.018,356.97,143.171,358.632z"/>
</g>
<path style="fill:#785550;" d="M130.632,218.483l3.82,26.993c17.436,3.487,19.948,30.849,20.31,38.665
	c0.066,1.418,0.519,2.788,1.288,3.981l6.653,10.319c0,0-2.278-17.062,8.149-28.52C170.85,269.92,174.43,202.186,130.632,218.483z"/>
<path style="fill:#F0C087;" d="M166.79,296.696l-4.601,18.404c-0.545,2.18-2.505,3.71-4.753,3.71l0,0
	c-2.471,0-4.554-1.839-4.861-4.29l-2.353-18.824c-0.629-5.034,3.296-9.48,8.369-9.48h0.017
	C164.094,286.218,168.12,291.373,166.79,296.696z"/>
<path style="fill:#694B4B;" d="M56.87,211.183l6.027,4.116C35.65,235.416,40.743,269.92,40.743,269.92
	c8.149,8.149,8.149,28.52,8.149,28.52l8.149-8.149c0,0-3.145-23.539,12.223-32.594c14.26-8.403,26.738-4.074,39.469-4.074
	c34.122,0,43.671-12.86,42.016-28.52c-0.856-8.104-13.246-24.982-44.817-24.446C93.19,200.874,69.262,204.732,56.87,211.183z"/>
<path style="fill:#5A4146;" d="M54.494,250.058c0,0-4.329-17.062,8.403-34.759C35.65,235.416,40.743,269.92,40.743,269.92
	c8.149,8.149,8.149,28.52,8.149,28.52l8.149-8.149c0,0-3.145-23.539,12.223-32.594c14.26-8.403,26.738-4.074,39.469-4.074
	c5.549,0,10.386-0.372,14.692-1.009C97.145,253.496,81.655,233.591,54.494,250.058z"/>
<path style="fill:#E6AF78;" d="M45.073,296.696l4.601,18.404c0.545,2.18,2.505,3.71,4.753,3.71l0,0c2.471,0,4.554-1.839,4.861-4.29
	l2.353-18.824c0.629-5.034-3.296-9.48-8.369-9.48h-0.017C47.768,286.218,43.742,291.373,45.073,296.696z"/>
<path style="fill:#A0D2F0;" d="M154.823,428.817h-20.372c-4.5,0-8.149,3.648-8.149,8.149l0,0h36.669l0,0
	C162.97,432.465,159.322,428.817,154.823,428.817z"/>
<g>
</g>
<g>
</g>
<g>
</g>
<g>
</g>
<g>
</g>
<g>
</g>
<g>
</g>
<g>
</g>
<g>
</g>
<g>
</g>
<g>
</g>
<g>
</g>
<g>
</g>
<g>
</g>
<g>
</g>
</svg>
