<?xml version="1.0" encoding="iso-8859-1"?>
<!-- Generator: Adobe Illustrator 19.0.0, SVG Export Plug-In . SVG Version: 6.00 Build 0)  -->
<svg version="1.1" id="Layer_1" xmlns="http://www.w3.org/2000/svg" xmlns:xlink="http://www.w3.org/1999/xlink" x="0px" y="0px"
	 viewBox="0 0 512 512" style="enable-background:new 0 0 512 512;" xml:space="preserve">
<path style="fill:#FFD782;" d="M35.31,0h176.552c19.501,0,35.31,15.809,35.31,35.31v176.552c0,19.501-15.809,35.31-35.31,35.31
	H35.31c-19.501,0-35.31-15.809-35.31-35.31V35.31C0,15.809,15.809,0,35.31,0z"/>
<path style="fill:#FFFFFF;" d="M176.552,105.931h-35.31v-35.31c0-9.751-7.905-17.655-17.655-17.655s-17.655,7.904-17.655,17.655
	v35.31h-35.31c-9.75,0-17.655,7.904-17.655,17.655c0,9.75,7.905,17.655,17.655,17.655h35.31v35.31
	c0,9.75,7.905,17.655,17.655,17.655s17.655-7.905,17.655-17.655v-35.31h35.31c9.75,0,17.655-7.905,17.655-17.655
	C194.207,113.835,186.302,105.931,176.552,105.931z"/>
<path style="fill:#FFD782;" d="M35.31,264.828h176.552c19.501,0,35.31,15.809,35.31,35.31V476.69c0,19.501-15.809,35.31-35.31,35.31
	H35.31C15.809,512,0,496.191,0,476.69V300.138C0,280.637,15.809,264.828,35.31,264.828z"/>
<path style="fill:#FFFFFF;" d="M148.554,388.414l24.968-24.968c6.895-6.895,6.895-18.073,0-24.968
	c-6.895-6.894-18.073-6.895-24.968,0l-24.968,24.967l-24.968-24.968c-6.895-6.895-18.073-6.895-24.968,0
	c-6.895,6.895-6.895,18.073,0,24.968l24.968,24.969l-24.968,24.968c-6.895,6.894-6.895,18.073,0,24.968
	c6.895,6.894,18.073,6.894,24.968,0l24.968-24.968l24.968,24.968c6.895,6.894,18.073,6.894,24.968,0
	c6.895-6.895,6.895-18.073,0-24.968L148.554,388.414z"/>
<path style="fill:#FFD782;" d="M300.138,0H476.69C496.191,0,512,15.809,512,35.31v176.552c0,19.501-15.809,35.31-35.31,35.31
	H300.138c-19.501,0-35.31-15.809-35.31-35.31V35.31C264.828,15.809,280.637,0,300.138,0z"/>
<path style="fill:#FFFFFF;" d="M335.448,105.931h105.931c9.751,0,17.655,7.904,17.655,17.655l0,0
	c0,9.751-7.904,17.655-17.655,17.655H335.448c-9.751,0-17.655-7.904-17.655-17.655l0,0
	C317.793,113.835,325.697,105.931,335.448,105.931z"/>
<path style="fill:#D7DEED;" d="M300.138,264.828H476.69c19.501,0,35.31,15.809,35.31,35.31V476.69
	c0,19.501-15.809,35.31-35.31,35.31H300.138c-19.501,0-35.31-15.809-35.31-35.31V300.138
	C264.828,280.637,280.637,264.828,300.138,264.828z"/>
<g>
	<path style="fill:#FFFFFF;" d="M335.448,335.448h105.931c9.751,0,17.655,7.904,17.655,17.655l0,0
		c0,9.751-7.904,17.655-17.655,17.655H335.448c-9.751,0-17.655-7.904-17.655-17.655l0,0
		C317.793,343.352,325.697,335.448,335.448,335.448z"/>
	<path style="fill:#FFFFFF;" d="M335.448,406.069h105.931c9.751,0,17.655,7.904,17.655,17.655l0,0
		c0,9.751-7.904,17.655-17.655,17.655H335.448c-9.751,0-17.655-7.904-17.655-17.655l0,0
		C317.793,413.973,325.697,406.069,335.448,406.069z"/>
</g>
<g>
</g>
<g>
</g>
<g>
</g>
<g>
</g>
<g>
</g>
<g>
</g>
<g>
</g>
<g>
</g>
<g>
</g>
<g>
</g>
<g>
</g>
<g>
</g>
<g>
</g>
<g>
</g>
<g>
</g>
</svg>
