<?xml version="1.0" encoding="iso-8859-1"?>
<!-- Generator: Adobe Illustrator 19.0.0, SVG Export Plug-In . SVG Version: 6.00 Build 0)  -->
<svg version="1.1" id="Layer_1" xmlns="http://www.w3.org/2000/svg" xmlns:xlink="http://www.w3.org/1999/xlink" x="0px" y="0px"
	 viewBox="0 0 512 512" style="enable-background:new 0 0 512 512;" xml:space="preserve">
<path style="fill:#EFF2FA;" d="M361.931,0H88.276c-9.75,0-17.655,7.904-17.655,17.655v476.69c0,9.75,7.905,17.655,17.655,17.655
	h335.448c9.75,0,17.655-7.905,17.655-17.655V79.448L361.931,0z"/>
<g>
	<path style="fill:#D7DEED;" d="M441.379,79.448h-69.517c-5.485,0-9.931-4.446-9.931-9.931V0L441.379,79.448z"/>
	<path style="fill:#D7DEED;" d="M194.207,185.379h-70.621c-4.875,0-8.828-3.953-8.828-8.828v-70.621
		c0-4.875,3.953-8.828,8.828-8.828h70.621c4.875,0,8.828,3.953,8.828,8.828v70.621C203.034,181.427,199.082,185.379,194.207,185.379
		z"/>
</g>
<path style="fill:#82889D;" d="M150.069,176.552c-2.259,0-4.518-0.862-6.241-2.586l-35.31-35.31c-3.448-3.448-3.448-9.035,0-12.483
	c3.448-3.448,9.035-3.448,12.482,0l29.069,29.069l46.724-46.724c3.448-3.448,9.035-3.448,12.483,0c3.448,3.448,3.448,9.034,0,12.482
	l-52.966,52.966C154.586,175.69,152.328,176.552,150.069,176.552z"/>
<g style="opacity:0.97;">
	<path style="fill:#AFB9D2;" d="M344.276,114.758H238.345c-4.875,0-8.828-3.953-8.828-8.828l0,0c0-4.875,3.953-8.828,8.828-8.828
		h105.931c4.875,0,8.828,3.953,8.828,8.828l0,0C353.103,110.805,349.151,114.758,344.276,114.758z"/>
</g>
<g style="opacity:0.97;">
	<path style="fill:#C7CFE2;" d="M256,150.069h-17.655c-4.875,0-8.828-3.953-8.828-8.828l0,0c0-4.875,3.953-8.828,8.828-8.828H256
		c4.875,0,8.828,3.953,8.828,8.828l0,0C264.828,146.116,260.875,150.069,256,150.069z"/>
</g>
<g>
	<path style="fill:#D7DEED;" d="M388.414,150.068H291.31c-4.875,0-8.828-3.953-8.828-8.828l0,0c0-4.875,3.953-8.828,8.828-8.828
		h97.103c4.875,0,8.828,3.953,8.828,8.828l0,0C397.241,146.116,393.289,150.068,388.414,150.068z"/>
	<path style="fill:#D7DEED;" d="M317.793,185.379h-79.448c-4.875,0-8.828-3.953-8.828-8.828l0,0c0-4.875,3.953-8.828,8.828-8.828
		h79.448c4.875,0,8.828,3.953,8.828,8.828l0,0C326.621,181.427,322.668,185.379,317.793,185.379z"/>
	<path style="fill:#D7DEED;" d="M370.759,185.378h-17.655c-4.875,0-8.828-3.953-8.828-8.828l0,0c0-4.875,3.953-8.828,8.828-8.828
		h17.655c4.875,0,8.828,3.953,8.828,8.828l0,0C379.586,181.427,375.634,185.378,370.759,185.378z"/>
	<path style="fill:#D7DEED;" d="M194.207,317.793h-70.621c-4.875,0-8.828-3.953-8.828-8.828v-70.621
		c0-4.875,3.953-8.828,8.828-8.828h70.621c4.875,0,8.828,3.953,8.828,8.828v70.621C203.034,313.841,199.082,317.793,194.207,317.793
		z"/>
</g>
<path style="fill:#82889D;" d="M150.069,308.966c-2.259,0-4.518-0.862-6.241-2.586l-35.31-35.31c-3.448-3.448-3.448-9.035,0-12.483
	c3.448-3.448,9.035-3.448,12.482,0l29.069,29.069l46.724-46.724c3.448-3.448,9.035-3.448,12.483,0s3.448,9.035,0,12.483
	l-52.966,52.965C154.586,308.104,152.328,308.966,150.069,308.966z"/>
<g style="opacity:0.97;">
	<path style="fill:#AFB9D2;" d="M344.276,247.171H238.345c-4.875,0-8.828-3.953-8.828-8.828l0,0c0-4.875,3.953-8.828,8.828-8.828
		h105.931c4.875,0,8.828,3.953,8.828,8.828l0,0C353.103,243.219,349.151,247.171,344.276,247.171z"/>
</g>
<g style="opacity:0.97;">
	<path style="fill:#C7CFE2;" d="M256,282.483h-17.655c-4.875,0-8.828-3.953-8.828-8.828l0,0c0-4.875,3.953-8.828,8.828-8.828H256
		c4.875,0,8.828,3.953,8.828,8.828l0,0C264.828,278.53,260.875,282.483,256,282.483z"/>
</g>
<g>
	<path style="fill:#D7DEED;" d="M388.414,282.482H291.31c-4.875,0-8.828-3.953-8.828-8.828l0,0c0-4.875,3.953-8.828,8.828-8.828
		h97.103c4.875,0,8.828,3.953,8.828,8.828l0,0C397.241,278.529,393.289,282.482,388.414,282.482z"/>
	<path style="fill:#D7DEED;" d="M317.793,317.793h-79.448c-4.875,0-8.828-3.953-8.828-8.828l0,0c0-4.875,3.953-8.828,8.828-8.828
		h79.448c4.875,0,8.828,3.953,8.828,8.828l0,0C326.621,313.841,322.668,317.793,317.793,317.793z"/>
	<path style="fill:#D7DEED;" d="M370.759,317.792h-17.655c-4.875,0-8.828-3.953-8.828-8.828l0,0c0-4.875,3.953-8.828,8.828-8.828
		h17.655c4.875,0,8.828,3.953,8.828,8.828l0,0C379.586,313.841,375.634,317.792,370.759,317.792z"/>
	<path style="fill:#D7DEED;" d="M194.207,450.208h-70.621c-4.875,0-8.828-3.953-8.828-8.828V370.76c0-4.875,3.953-8.828,8.828-8.828
		h70.621c4.875,0,8.828,3.953,8.828,8.828v70.621C203.034,446.255,199.082,450.208,194.207,450.208z"/>
</g>
<path style="fill:#82889D;" d="M150.069,441.379c-2.259,0-4.518-0.862-6.241-2.586l-35.31-35.31c-3.448-3.448-3.448-9.035,0-12.483
	c3.448-3.448,9.035-3.448,12.482,0l29.069,29.069l46.724-46.724c3.448-3.448,9.035-3.448,12.483,0s3.448,9.035,0,12.483
	l-52.966,52.966C154.586,440.518,152.328,441.379,150.069,441.379z"/>
<g style="opacity:0.97;">
	<path style="fill:#AFB9D2;" d="M344.276,379.586H238.345c-4.875,0-8.828-3.953-8.828-8.828l0,0c0-4.875,3.953-8.828,8.828-8.828
		h105.931c4.875,0,8.828,3.953,8.828,8.828l0,0C353.103,375.634,349.151,379.586,344.276,379.586z"/>
</g>
<g style="opacity:0.97;">
	<path style="fill:#C7CFE2;" d="M256,414.898h-17.655c-4.875,0-8.828-3.953-8.828-8.828l0,0c0-4.875,3.953-8.828,8.828-8.828H256
		c4.875,0,8.828,3.953,8.828,8.828l0,0C264.828,410.945,260.875,414.898,256,414.898z"/>
</g>
<g>
	<path style="fill:#D7DEED;" d="M388.414,414.897H291.31c-4.875,0-8.828-3.953-8.828-8.828l0,0c0-4.875,3.953-8.828,8.828-8.828
		h97.103c4.875,0,8.828,3.953,8.828,8.828l0,0C397.241,410.945,393.289,414.897,388.414,414.897z"/>
	<path style="fill:#D7DEED;" d="M317.793,450.208h-79.448c-4.875,0-8.828-3.953-8.828-8.828l0,0c0-4.875,3.953-8.828,8.828-8.828
		h79.448c4.875,0,8.828,3.953,8.828,8.828l0,0C326.621,446.255,322.668,450.208,317.793,450.208z"/>
	<path style="fill:#D7DEED;" d="M370.759,450.208h-17.655c-4.875,0-8.828-3.953-8.828-8.828l0,0c0-4.875,3.953-8.828,8.828-8.828
		h17.655c4.875,0,8.828,3.953,8.828,8.828l0,0C379.586,446.255,375.634,450.208,370.759,450.208z"/>
</g>
<g>
</g>
<g>
</g>
<g>
</g>
<g>
</g>
<g>
</g>
<g>
</g>
<g>
</g>
<g>
</g>
<g>
</g>
<g>
</g>
<g>
</g>
<g>
</g>
<g>
</g>
<g>
</g>
<g>
</g>
</svg>
