<?xml version="1.0" encoding="iso-8859-1"?>
<!-- Generator: Adobe Illustrator 19.0.0, SVG Export Plug-In . SVG Version: 6.00 Build 0)  -->
<svg version="1.1" id="Layer_1" xmlns="http://www.w3.org/2000/svg" xmlns:xlink="http://www.w3.org/1999/xlink" x="0px" y="0px"
	 viewBox="0 0 512 512" style="enable-background:new 0 0 512 512;" xml:space="preserve">
<path style="fill:#707487;" d="M256,441.379c-102.218,0-185.379-83.161-185.379-185.379S153.782,70.621,256,70.621
	S441.379,153.782,441.379,256S358.218,441.379,256,441.379z M256,88.276c-92.486,0-167.724,75.239-167.724,167.724
	S163.514,423.724,256,423.724S423.724,348.486,423.724,256S348.486,88.276,256,88.276z"/>
<path style="fill:#5B5D6E;" d="M256,335.448c-43.806,0-79.448-35.642-79.448-79.448s35.642-79.448,79.448-79.448
	s79.448,35.642,79.448,79.448S299.806,335.448,256,335.448z M256,194.207c-34.073,0-61.793,27.72-61.793,61.793
	s27.72,61.793,61.793,61.793s61.793-27.72,61.793-61.793S290.073,194.207,256,194.207z"/>
<path style="fill:#959CB3;" d="M256,335.448c-43.806,0-79.448-35.642-79.448-79.448s35.642-79.448,79.448-79.448
	s79.448,35.642,79.448,79.448S299.806,335.448,256,335.448z M256,194.207c-34.073,0-61.793,27.72-61.793,61.793
	s27.72,61.793,61.793,61.793s61.793-27.72,61.793-61.793S290.073,194.207,256,194.207z"/>
<path style="fill:#5B5D6E;" d="M256,476.69c-121.689,0-220.69-99-220.69-220.69s99-220.69,220.69-220.69s220.69,99,220.69,220.69
	S377.689,476.69,256,476.69z M256,52.966C144.047,52.966,52.966,144.047,52.966,256S144.047,459.034,256,459.034
	S459.034,367.953,459.034,256S367.953,52.966,256,52.966z"/>
<g>
	<path style="fill:#464655;" d="M256,114.759c-4.875,0-8.828-3.953-8.828-8.828V8.828C247.172,3.953,251.125,0,256,0
		s8.828,3.953,8.828,8.828v97.103C264.828,110.806,260.875,114.759,256,114.759z"/>
	<path style="fill:#464655;" d="M256,512c-4.875,0-8.828-3.953-8.828-8.828v-97.103c0-4.875,3.953-8.828,8.828-8.828
		s8.828,3.953,8.828,8.828v97.103C264.828,508.047,260.875,512,256,512z"/>
	<path style="fill:#464655;" d="M397.241,256c0-4.875,3.953-8.828,8.828-8.828h97.103c4.875,0,8.828,3.953,8.828,8.828
		s-3.953,8.828-8.828,8.828h-97.103C401.194,264.828,397.241,260.875,397.241,256z"/>
	<path style="fill:#464655;" d="M150.069,256c0-4.875,3.953-8.828,8.828-8.828h194.207c4.875,0,8.828,3.953,8.828,8.828
		s-3.953,8.828-8.828,8.828H158.897C154.022,264.828,150.069,260.875,150.069,256z"/>
	<path style="fill:#464655;" d="M0,256c0-4.875,3.953-8.828,8.828-8.828h97.103c4.875,0,8.828,3.953,8.828,8.828
		s-3.953,8.828-8.828,8.828H8.828C3.953,264.828,0,260.875,0,256z"/>
	<path style="fill:#464655;" d="M256,150.069c4.875,0,8.828,3.953,8.828,8.828v194.207c0,4.875-3.953,8.828-8.828,8.828
		s-8.828-3.953-8.828-8.828V158.897C247.172,154.022,251.125,150.069,256,150.069z"/>
</g>
<g>
</g>
<g>
</g>
<g>
</g>
<g>
</g>
<g>
</g>
<g>
</g>
<g>
</g>
<g>
</g>
<g>
</g>
<g>
</g>
<g>
</g>
<g>
</g>
<g>
</g>
<g>
</g>
<g>
</g>
</svg>
