<?xml version="1.0" encoding="iso-8859-1"?>
<!-- Generator: Adobe Illustrator 19.0.0, SVG Export Plug-In . SVG Version: 6.00 Build 0)  -->
<svg version="1.1" id="Layer_1" xmlns="http://www.w3.org/2000/svg" xmlns:xlink="http://www.w3.org/1999/xlink" x="0px" y="0px"
	 viewBox="0 0 512 512" style="enable-background:new 0 0 512 512;" xml:space="preserve">
<path style="fill:#AFB9D2;" d="M406.069,512H105.931c-4.875,0-8.828-3.953-8.828-8.828v-8.828c0-4.875,3.953-8.828,8.828-8.828
	h300.138c4.875,0,8.828,3.953,8.828,8.828v8.828C414.897,508.047,410.944,512,406.069,512z"/>
<rect x="105.931" y="17.655" style="fill:#EFF2FA;" width="300.138" height="467.862"/>
<path style="fill:#AFB9D2;" d="M406.069,17.655H105.931c-4.875,0-8.828-3.953-8.828-8.828l0,0c0-4.875,3.953-8.828,8.828-8.828
	h300.138c4.875,0,8.828,3.953,8.828,8.828l0,0C414.897,13.703,410.944,17.655,406.069,17.655z"/>
<path style="fill:#9BE6D2;" d="M237.376,124.074c-52.576,5.267-92.791,52.472-86.696,107.67
	c4.905,44.418,41.016,80.531,85.434,85.437c55.198,6.097,102.406-34.118,107.672-86.695c0.523-5.226-3.583-9.796-8.834-9.796H256
	c-4.875,0-8.828-3.953-8.828-8.828v-78.954C247.172,127.657,242.602,123.551,237.376,124.074z"/>
<path style="fill:#78D2BE;" d="M264.828,115.249v78.958c0,4.875,3.953,8.828,8.828,8.828h78.957c5.228,0,9.354-4.533,8.836-9.735
	c-4.565-45.857-41.031-82.323-86.887-86.887C269.361,105.895,264.828,110.022,264.828,115.249z"/>
<path style="fill:#C7CFE2;" d="M238.345,70.618h-26.483c-4.875,0-8.828-3.953-8.828-8.828l0,0c0-4.875,3.953-8.828,8.828-8.828
	h26.483c4.875,0,8.828,3.953,8.828,8.828l0,0C247.172,66.667,243.22,70.618,238.345,70.618z"/>
<path style="fill:#D7DEED;" d="M361.931,70.618h-88.276c-4.875,0-8.828-3.953-8.828-8.828l0,0c0-4.875,3.953-8.828,8.828-8.828
	h88.276c4.875,0,8.828,3.953,8.828,8.828l0,0C370.759,66.667,366.806,70.618,361.931,70.618z"/>
<path style="fill:#C7CFE2;" d="M167.724,370.76h-17.655c-4.875,0-8.828-3.953-8.828-8.828l0,0c0-4.875,3.953-8.828,8.828-8.828
	h17.655c4.875,0,8.828,3.953,8.828,8.828l0,0C176.552,366.807,172.599,370.76,167.724,370.76z"/>
<path style="fill:#D7DEED;" d="M361.93,370.759H203.033c-4.875,0-8.828-3.953-8.828-8.828l0,0c0-4.875,3.953-8.828,8.828-8.828
	H361.93c4.875,0,8.828,3.953,8.828,8.828l0,0C370.758,366.806,366.805,370.759,361.93,370.759z"/>
<path style="fill:#C7CFE2;" d="M167.724,406.071h-17.655c-4.875,0-8.828-3.953-8.828-8.828l0,0c0-4.875,3.953-8.828,8.828-8.828
	h17.655c4.875,0,8.828,3.953,8.828,8.828l0,0C176.552,402.12,172.599,406.071,167.724,406.071z"/>
<path style="fill:#D7DEED;" d="M361.93,406.07H203.033c-4.875,0-8.828-3.953-8.828-8.828l0,0c0-4.875,3.953-8.828,8.828-8.828
	H361.93c4.875,0,8.828,3.953,8.828,8.828l0,0C370.758,402.118,366.805,406.07,361.93,406.07z"/>
<path style="fill:#C7CFE2;" d="M167.724,441.382h-17.655c-4.875,0-8.828-3.953-8.828-8.828l0,0c0-4.875,3.953-8.828,8.828-8.828
	h17.655c4.875,0,8.828,3.953,8.828,8.828l0,0C176.552,437.43,172.599,441.382,167.724,441.382z"/>
<path style="fill:#D7DEED;" d="M361.93,441.38H203.033c-4.875,0-8.828-3.953-8.828-8.828l0,0c0-4.875,3.953-8.828,8.828-8.828
	H361.93c4.875,0,8.828,3.953,8.828,8.828l0,0C370.758,437.428,366.805,441.38,361.93,441.38z"/>
<circle style="fill:#C7CFE2;" cx="163.31" cy="61.793" r="22.069"/>
<rect x="105.931" y="467.862" style="fill:#D7DEED;" width="300.138" height="17.655"/>
<g>
</g>
<g>
</g>
<g>
</g>
<g>
</g>
<g>
</g>
<g>
</g>
<g>
</g>
<g>
</g>
<g>
</g>
<g>
</g>
<g>
</g>
<g>
</g>
<g>
</g>
<g>
</g>
<g>
</g>
</svg>
