<?xml version="1.0" encoding="iso-8859-1"?>
<!-- Generator: Adobe Illustrator 19.0.0, SVG Export Plug-In . SVG Version: 6.00 Build 0)  -->
<svg version="1.1" id="Layer_1" xmlns="http://www.w3.org/2000/svg" xmlns:xlink="http://www.w3.org/1999/xlink" x="0px" y="0px"
	 viewBox="0 0 512 512" style="enable-background:new 0 0 512 512;" xml:space="preserve">
<path style="fill:#D5DCEC;" d="M256,52.122c-39.055,0-72.698-11.399-88.616-27.88v96.802h177.23V24.243
	C328.698,40.723,295.055,52.122,256,52.122z"/>
<path style="fill:#EFF2FA;" d="M485.676,79.147l-141.4-37.212L256,101.352l-88.276-59.416l-141.4,37.212
	C10.812,83.229,0,97.254,0,113.295v202.296c0,29.252,23.713,52.966,52.966,52.966h26.483v17.657
	c0,14.626,11.857,26.482,26.483,26.482h300.138c14.626,0,26.484-11.858,26.483-26.484v-17.655h26.483
	c29.252,0,52.966-23.713,52.966-52.966V113.295C512,97.254,501.188,83.229,485.676,79.147z"/>
<path style="fill:#5B5D6E;" d="M384,174.35h-61.793c-2.438,0-4.414,1.976-4.414,4.414v22.069h70.621v-22.069
	C388.414,176.326,386.438,174.35,384,174.35z"/>
<path style="fill:#E4EAF6;" d="M123.586,192.005h70.621c4.875,0,8.828,3.953,8.828,8.828v61.793c0,9.751-7.904,17.655-17.655,17.655
	h-52.966c-9.751,0-17.655-7.904-17.655-17.655v-61.793C114.759,195.957,118.711,192.005,123.586,192.005z"/>
<path style="fill:#5B5D6E;" d="M278.749,190.806l-15.977-79.882h-13.546l-15.977,79.882c-2.891,14.456-4.753,29.099-5.57,43.819
	l-12.15,218.692c-0.107,1.924,0.611,3.802,1.973,5.165l33.707,33.707c2.645,2.645,6.933,2.645,9.578,0l33.707-33.707
	c1.363-1.363,2.08-3.241,1.973-5.165l-12.15-218.692C283.501,219.905,281.641,205.263,278.749,190.806z"/>
<g>
	<polygon style="fill:#707487;" points="220.075,371.517 218.948,391.798 289.151,321.596 288.143,303.449 	"/>
	<polygon style="fill:#707487;" points="217.685,414.545 216.558,434.826 291.29,360.094 290.282,341.947 	"/>
	<polygon style="fill:#707487;" points="222.465,328.489 221.338,348.771 287.012,283.097 286.005,264.95 	"/>
	<polygon style="fill:#707487;" points="294.559,418.944 236.263,477.241 245.841,486.817 295.567,437.091 	"/>
	<path style="fill:#707487;" d="M216.277,456.59c0.327,0.678,0.683,1.348,1.227,1.892l8.018,8.018l67.907-67.907l-1.007-18.146
		L216.277,456.59z"/>
	<path style="fill:#707487;" d="M227.246,242.435l-1.127,20.281l55.42-55.42c-0.793-5.482-1.686-10.948-2.771-16.384
		L227.246,242.435z"/>
	<polygon style="fill:#707487;" points="242.163,146.244 237.375,170.186 268.417,139.144 265.224,123.183 	"/>
	<path style="fill:#707487;" d="M283.73,226.588l-58.873,58.873l-1.127,20.281l61.144-61.144l-0.554-9.974
		C284.17,231.942,283.948,229.265,283.73,226.588z"/>
	<path style="fill:#707487;" d="M232.145,196.9c-1.329,7.405-2.389,14.852-3.178,22.333l46.223-46.223l-3.192-15.961L232.145,196.9z
		"/>
</g>
<polygon style="fill:#515262;" points="270.339,148.756 262.773,110.924 249.227,110.924 241.661,148.756 "/>
<g>
	<polygon style="fill:#5B5D6E;" points="268.417,139.144 265.224,123.183 242.163,146.244 241.661,148.756 258.804,148.756 	"/>
	<path style="fill:#5B5D6E;" d="M268.057,101.347h-24.114c-4.274,0-7.479,3.911-6.642,8.102l4.064,20.319
		c0.633,3.166,3.413,5.444,6.642,5.444h15.987c3.229,0,6.008-2.279,6.642-5.444l4.064-20.319
		C275.537,105.257,272.331,101.347,268.057,101.347z"/>
</g>
<path style="fill:#707487;" d="M252.032,101.347h-8.088c-3.052,0-5.491,2.029-6.369,4.696l28.75,28.75
	c2.163-0.793,3.838-2.662,4.31-5.027l1.636-8.181L252.032,101.347z"/>
<g>
	<path style="fill:#E4EAF6;" d="M166.002,20.355L256,101.353c0,0-25.204,12.723-56.308,38.369
		c-6.417,5.29-16.121,3.147-19.563-4.424l-42.283-93.022l13.376-20.065C154.552,17.216,161.539,16.338,166.002,20.355z"/>
	<path style="fill:#E4EAF6;" d="M345.998,20.355L256,101.353c0,0,25.204,12.723,56.308,38.369c6.417,5.29,16.121,3.147,19.563-4.424
		l42.283-93.022l-13.377-20.065C357.448,17.216,350.461,16.338,345.998,20.355z"/>
</g>
<path style="fill:#D5DCEC;" d="M114.759,227.315l35.054,21.033c5.591,3.354,12.576,3.354,18.167,0l35.054-21.033v35.31
	c0,9.751-7.904,17.655-17.655,17.655h-52.966c-9.751,0-17.655-7.904-17.655-17.655V227.315z"/>
<circle style="fill:#AFB9D2;" cx="158.897" cy="236.137" r="6.621"/>
<path style="fill:#707487;" d="M379.586,156.694h-4.414c-2.438,0-4.414,1.976-4.414,4.414v39.724H384v-39.724
	C384,158.671,382.024,156.694,379.586,156.694z"/>
<path style="fill:#E4EAF6;" d="M317.793,192.005h70.621c4.875,0,8.828,3.953,8.828,8.828v61.793c0,9.751-7.904,17.655-17.655,17.655
	h-52.966c-9.751,0-17.655-7.904-17.655-17.655v-61.793C308.966,195.957,312.918,192.005,317.793,192.005z"/>
<rect x="308.966" y="209.654" style="fill:#D5DCEC;" width="88.276" height="17.655"/>
<path style="fill:#AFB9D2;" d="M384,165.522L384,165.522c-2.438,0-4.414,1.976-4.414,4.414v44.138c0,2.438,1.976,4.414,4.414,4.414
	l0,0c2.438,0,4.414-1.976,4.414-4.414v-44.138C388.414,167.498,386.438,165.522,384,165.522z"/>
<g>
	<path style="fill:#E4EAF6;" d="M69.106,155.18L6.682,92.756C2.485,98.604,0,105.702,0,113.295v202.296
		c0,29.252,23.713,52.966,52.966,52.966h26.483V180.148C79.448,170.783,75.727,161.802,69.106,155.18z"/>
	<path style="fill:#E4EAF6;" d="M442.893,155.18l62.424-62.424c4.196,5.848,6.682,12.946,6.682,20.538v202.296
		c0,29.252-23.713,52.966-52.966,52.966h-26.483V180.148C432.552,170.783,436.271,161.802,442.893,155.18z"/>
</g>
<g>
</g>
<g>
</g>
<g>
</g>
<g>
</g>
<g>
</g>
<g>
</g>
<g>
</g>
<g>
</g>
<g>
</g>
<g>
</g>
<g>
</g>
<g>
</g>
<g>
</g>
<g>
</g>
<g>
</g>
</svg>
