<?xml version="1.0" encoding="iso-8859-1"?>
<!-- Generator: Adobe Illustrator 19.0.0, SVG Export Plug-In . SVG Version: 6.00 Build 0)  -->
<svg version="1.1" id="Layer_1" xmlns="http://www.w3.org/2000/svg" xmlns:xlink="http://www.w3.org/1999/xlink" x="0px" y="0px"
	 viewBox="0 0 512 512" style="enable-background:new 0 0 512 512;" xml:space="preserve">
<rect x="242.759" y="247.172" style="fill:#464655;" width="26.483" height="35.31"/>
<path style="fill:#5B5D6E;" d="M273.655,229.517h-35.31v17.655c0,4.875,3.953,8.828,8.828,8.828h17.655
	c4.875,0,8.828-3.953,8.828-8.828V229.517z"/>
<path style="fill:#F0DCBE;" d="M277.433,0h-42.867c-27.734,0-50.772,21.395-52.821,49.053l-11.213,151.373
	c-1.516,20.473,14.686,37.919,35.214,37.919h100.506c20.529,0,36.73-17.446,35.214-37.919L330.254,49.053
	C328.205,21.395,305.167,0,277.433,0z"/>
<path style="fill:#5B5D6E;" d="M176.552,308.966h-8.828c-14.603,0-26.483-11.88-26.483-26.483v-70.621
	c0-4.875,3.953-8.828,8.828-8.828c4.875,0,8.828,3.953,8.828,8.828v70.621c0,4.868,3.961,8.828,8.828,8.828h8.828
	c4.875,0,8.828,3.953,8.828,8.828S181.427,308.966,176.552,308.966z"/>
<path style="fill:#707487;" d="M158.897,220.69h-26.483c-4.879,0-8.828-3.948-8.828-8.828c0-4.879,3.948-8.828,8.828-8.828h26.483
	c4.879,0,8.828,3.948,8.828,8.828C167.724,216.742,163.776,220.69,158.897,220.69z"/>
<path style="fill:#5B5D6E;" d="M344.276,308.966h-8.828c-4.875,0-8.828-3.953-8.828-8.828s3.953-8.828,8.828-8.828h8.828
	c4.866,0,8.828-3.959,8.828-8.828v-70.621c0-4.875,3.953-8.828,8.828-8.828s8.828,3.953,8.828,8.828v70.621
	C370.759,297.086,358.879,308.966,344.276,308.966z"/>
<path style="fill:#707487;" d="M353.103,220.69h26.483c4.879,0,8.828-3.948,8.828-8.828c0-4.879-3.948-8.828-8.828-8.828h-26.483
	c-4.879,0-8.828,3.948-8.828,8.828C344.276,216.742,348.224,220.69,353.103,220.69z"/>
<rect x="344.276" y="467.862" style="fill:#5B5D6E;" width="17.655" height="26.483"/>
<path style="fill:#707487;" d="M353.103,512h8.828c4.875,0,8.828-3.953,8.828-8.828v-8.828c0-4.875-3.953-8.828-8.828-8.828h-8.828
	c-4.875,0-8.828,3.953-8.828,8.828v8.828C344.276,508.047,348.228,512,353.103,512z"/>
<rect x="150.069" y="467.862" style="fill:#5B5D6E;" width="17.655" height="26.483"/>
<rect x="247.172" y="317.793" style="fill:#464655;" width="17.655" height="70.621"/>
<path style="fill:#5B5D6E;" d="M300.138,300.138h-88.276l12.414,18.621c3.274,4.911,8.787,7.862,14.69,7.862h34.068
	c5.903,0,11.415-2.951,14.69-7.862L300.138,300.138z"/>
<path style="fill:#F0DCBE;" d="M335.448,308.966H176.552c-4.875,0-8.828-3.953-8.828-8.828v-17.655c0-4.875,3.953-8.828,8.828-8.828
	h158.897c4.875,0,8.828,3.953,8.828,8.828v17.655C344.276,305.013,340.323,308.966,335.448,308.966z"/>
<g>
	<path style="fill:#707487;" d="M344.276,291.31H167.724v8.828c0,4.875,3.953,8.828,8.828,8.828h158.897
		c4.875,0,8.828-3.953,8.828-8.828V291.31z"/>
	<path style="fill:#707487;" d="M354.681,459.181l-97.103-17.655c-1.035-0.19-2.121-0.19-3.155,0l-97.103,17.655
		c-4.802,0.871-7.982,5.465-7.104,10.259c0.813,4.532,4.993,7.553,9.472,7.096l0.011,0.119L256,467.896l96.301,8.759
		c0.276,0.025,0.543,0.034,0.81,0.034c4.19,0,7.905-2.983,8.672-7.25C362.664,464.647,359.482,460.052,354.681,459.181z"/>
</g>
<path style="fill:#5B5D6E;" d="M264.828,450.207h-17.655c-4.875,0-8.828-3.953-8.828-8.828v-52.966c0-4.875,3.953-8.828,8.828-8.828
	h17.655c4.875,0,8.828,3.953,8.828,8.828v52.966C273.655,446.254,269.703,450.207,264.828,450.207z"/>
<path style="fill:#707487;" d="M158.897,512h-8.828c-4.875,0-8.828-3.953-8.828-8.828v-8.828c0-4.875,3.953-8.828,8.828-8.828h8.828
	c4.875,0,8.828,3.953,8.828,8.828v8.828C167.724,508.047,163.772,512,158.897,512z"/>
<g>
</g>
<g>
</g>
<g>
</g>
<g>
</g>
<g>
</g>
<g>
</g>
<g>
</g>
<g>
</g>
<g>
</g>
<g>
</g>
<g>
</g>
<g>
</g>
<g>
</g>
<g>
</g>
<g>
</g>
</svg>
