<?xml version="1.0" encoding="iso-8859-1"?>
<!-- Generator: Adobe Illustrator 19.0.0, SVG Export Plug-In . SVG Version: 6.00 Build 0)  -->
<svg version="1.1" id="Layer_1" xmlns="http://www.w3.org/2000/svg" xmlns:xlink="http://www.w3.org/1999/xlink" x="0px" y="0px"
	 viewBox="0 0 512 512" style="enable-background:new 0 0 512 512;" xml:space="preserve">
<rect x="8.828" y="105.931" style="fill:#EFF2FA;" width="141.241" height="344.276"/>
<path style="fill:#D7DEED;" d="M485.517,52.966H26.483C11.857,52.966,0,64.822,0,79.448v353.103
	c0,14.626,11.857,26.483,26.483,26.483h459.034c14.626,0,26.483-11.857,26.483-26.483V79.448
	C512,64.822,500.143,52.966,485.517,52.966z M494.345,432.552c0,4.875-3.953,8.828-8.828,8.828H26.483
	c-4.875,0-8.828-3.953-8.828-8.828V114.759c0-4.875,3.953-8.828,8.828-8.828h459.034c4.875,0,8.828,3.953,8.828,8.828V432.552z"/>
<circle style="fill:#FF6464;" cx="26.483" cy="79.448" r="8.828"/>
<circle style="fill:#FFE182;" cx="52.966" cy="79.448" r="8.828"/>
<circle style="fill:#A5D76E;" cx="79.448" cy="79.448" r="8.828"/>
<g>
	<path style="fill:#EFF2FA;" d="M123.586,88.276h-8.828c-4.875,0-8.828-3.953-8.828-8.828l0,0c0-4.875,3.953-8.828,8.828-8.828
		h8.828c4.875,0,8.828,3.953,8.828,8.828l0,0C132.414,84.323,128.461,88.276,123.586,88.276z"/>
	<path style="fill:#EFF2FA;" d="M158.897,88.276h-8.828c-4.875,0-8.828-3.953-8.828-8.828l0,0c0-4.875,3.953-8.828,8.828-8.828
		h8.828c4.875,0,8.828,3.953,8.828,8.828l0,0C167.724,84.323,163.772,88.276,158.897,88.276z"/>
	<path style="fill:#EFF2FA;" d="M450.207,88.276h-8.828c-4.875,0-8.828-3.953-8.828-8.828l0,0c0-4.875,3.953-8.828,8.828-8.828
		h8.828c4.875,0,8.828,3.953,8.828,8.828l0,0C459.034,84.323,455.082,88.276,450.207,88.276z"/>
	<path style="fill:#EFF2FA;" d="M485.517,88.276h-8.828c-4.875,0-8.828-3.953-8.828-8.828l0,0c0-4.875,3.953-8.828,8.828-8.828
		h8.828c4.875,0,8.828,3.953,8.828,8.828l0,0C494.345,84.323,490.392,88.276,485.517,88.276z"/>
	<path style="fill:#EFF2FA;" d="M406.069,88.276H194.207c-4.875,0-8.828-3.953-8.828-8.828l0,0c0-4.875,3.953-8.828,8.828-8.828
		h211.862c4.875,0,8.828,3.953,8.828,8.828l0,0C414.897,84.323,410.944,88.276,406.069,88.276z"/>
</g>
<path style="fill:#00D2FF;" d="M123.586,150.069H44.138c-4.875,0-8.828-3.953-8.828-8.828l0,0c0-4.875,3.953-8.828,8.828-8.828
	h79.448c4.875,0,8.828,3.953,8.828,8.828l0,0C132.414,146.116,128.461,150.069,123.586,150.069z"/>
<path style="fill:#C7CFE2;" d="M52.966,220.69h-8.828c-4.875,0-8.828-3.953-8.828-8.828l0,0c0-4.875,3.953-8.828,8.828-8.828h8.828
	c4.875,0,8.828,3.953,8.828,8.828l0,0C61.793,216.737,57.841,220.69,52.966,220.69z"/>
<path style="fill:#D7DEED;" d="M123.586,220.69h-35.31c-4.875,0-8.828-3.953-8.828-8.828l0,0c0-4.875,3.953-8.828,8.828-8.828h35.31
	c4.875,0,8.828,3.953,8.828,8.828l0,0C132.414,216.737,128.462,220.69,123.586,220.69z"/>
<path style="fill:#C7CFE2;" d="M52.966,256h-8.828c-4.875,0-8.828-3.953-8.828-8.828l0,0c0-4.875,3.953-8.828,8.828-8.828h8.828
	c4.875,0,8.828,3.953,8.828,8.828l0,0C61.793,252.047,57.841,256,52.966,256z"/>
<path style="fill:#D7DEED;" d="M123.586,256h-35.31c-4.875,0-8.828-3.953-8.828-8.828l0,0c0-4.875,3.953-8.828,8.828-8.828h35.31
	c4.875,0,8.828,3.953,8.828,8.828l0,0C132.414,252.047,128.462,256,123.586,256z"/>
<path style="fill:#C7CFE2;" d="M52.966,291.31h-8.828c-4.875,0-8.828-3.953-8.828-8.828l0,0c0-4.875,3.953-8.828,8.828-8.828h8.828
	c4.875,0,8.828,3.953,8.828,8.828l0,0C61.793,287.358,57.841,291.31,52.966,291.31z"/>
<g>
	<path style="fill:#D7DEED;" d="M123.586,291.31h-35.31c-4.875,0-8.828-3.953-8.828-8.828l0,0c0-4.875,3.953-8.828,8.828-8.828
		h35.31c4.875,0,8.828,3.953,8.828,8.828l0,0C132.414,287.358,128.462,291.31,123.586,291.31z"/>
	<path style="fill:#D7DEED;" d="M97.103,326.621H44.138c-4.875,0-8.828-3.953-8.828-8.828l0,0c0-4.875,3.953-8.828,8.828-8.828
		h52.966c4.875,0,8.828,3.953,8.828,8.828l0,0C105.931,322.668,101.978,326.621,97.103,326.621z"/>
	<path style="fill:#D7DEED;" d="M97.103,361.931H44.138c-4.875,0-8.828-3.953-8.828-8.828l0,0c0-4.875,3.953-8.828,8.828-8.828
		h52.966c4.875,0,8.828,3.953,8.828,8.828l0,0C105.931,357.978,101.978,361.931,97.103,361.931z"/>
</g>
<g>
	<path style="fill:#00D2FF;" d="M97.103,185.379H44.138c-4.875,0-8.828-3.953-8.828-8.828l0,0c0-4.875,3.953-8.828,8.828-8.828
		h52.966c4.875,0,8.828,3.953,8.828,8.828l0,0C105.931,181.427,101.978,185.379,97.103,185.379z"/>
	<path style="fill:#00D2FF;" d="M184.851,275.436c0-29.245,16.594-47.362,42.666-47.362c16.98,0,30.724,8.444,36.631,21.854
		c2.303,5.227-1.525,11.14-7.236,11.14h-0.227c-3.124,0-5.987-1.847-7.156-4.745c-3.544-8.794-11.849-14.327-22.013-14.327
		c-15.775,0-25.879,12.969-25.879,33.439c0,20.605,10.047,33.506,25.938,33.506c10.386,0,18.255-4.785,21.912-13.082
		c1.224-2.777,4.024-4.524,7.059-4.524l0,0c5.774,0,9.647,6.063,7.169,11.278c-6.093,12.819-19.06,20.25-36.198,20.25
		C201.319,322.866,184.851,304.873,184.851,275.436z"/>
	<path style="fill:#00D2FF;" d="M330.348,284.335c10.934-3.934,17.288-14.048,17.288-26.188c0-17.548-11.889-28.551-31.722-28.551
		h-27.666c-5.089,0-9.215,4.126-9.215,9.215v73.859c0,4.444,3.327,8.426,7.764,8.658c4.732,0.248,8.647-3.516,8.647-8.194v-26.313
		h18.175l15.692,30.105c1.414,2.712,4.218,4.414,7.278,4.414l0,0c6.223,0,10.187-6.65,7.224-12.125L330.348,284.335z
		 M314.39,274.231h-18.946v-31.347h18.561c10.423,0,16.787,5.978,16.787,15.639C330.792,268.446,324.813,274.231,314.39,274.231z"/>
	<path style="fill:#00D2FF;" d="M451.658,321.342L451.658,321.342c-4.074,0-7.377-3.303-7.377-7.377v-57.727h-0.444l-24.384,59.171
		c-1.29,3.128-4.339,5.171-7.723,5.171l0,0c-3.384,0-6.434-2.041-7.723-5.171l-24.385-59.171h-0.444v57.693
		c0,4.093-3.318,7.41-7.41,7.41l0,0c-4.093,0-7.41-3.318-7.41-7.41V240.96c0-6.275,5.087-11.362,11.362-11.362l0,0
		c4.626,0,8.789,2.804,10.529,7.09l25.219,62.15h0.511l25.239-62.176c1.734-4.27,5.882-7.064,10.492-7.064l0,0
		c6.253,0,11.322,5.069,11.322,11.322v73.045C459.034,318.039,455.732,321.342,451.658,321.342z"/>
</g>
<g>
</g>
<g>
</g>
<g>
</g>
<g>
</g>
<g>
</g>
<g>
</g>
<g>
</g>
<g>
</g>
<g>
</g>
<g>
</g>
<g>
</g>
<g>
</g>
<g>
</g>
<g>
</g>
<g>
</g>
</svg>
