<?xml version="1.0" encoding="iso-8859-1"?>
<!-- Generator: Adobe Illustrator 19.0.0, SVG Export Plug-In . SVG Version: 6.00 Build 0)  -->
<svg version="1.1" id="Layer_1" xmlns="http://www.w3.org/2000/svg" xmlns:xlink="http://www.w3.org/1999/xlink" x="0px" y="0px"
	 viewBox="0 0 512 512" style="enable-background:new 0 0 512 512;" xml:space="preserve">
<path style="fill:#EFF2FA;" d="M423.724,512H88.276c-9.751,0-17.655-7.904-17.655-17.655V17.655C70.621,7.904,78.525,0,88.276,0
	h335.448c9.751,0,17.655,7.904,17.655,17.655v476.69C441.379,504.095,433.474,512,423.724,512z"/>
<path style="fill:#C3E678;" d="M220.69,194.207H114.759c-4.875,0-8.828-3.953-8.828-8.828V44.138c0-4.875,3.953-8.828,8.828-8.828
	H220.69c4.875,0,8.828,3.953,8.828,8.828v141.241C229.517,190.254,225.565,194.207,220.69,194.207z"/>
<polygon style="fill:#D29B6E;" points="189.325,159.681 189.325,140.649 146.123,140.649 146.123,159.681 167.724,181.433 "/>
<path style="fill:#B4E1FA;" d="M222.188,163.112l-29.409-6.596c-0.444-0.099-0.852-0.269-1.235-0.473l-23.82,13.245l-22.891-13.885
	c-0.593,0.532-1.329,0.927-2.164,1.114l-29.409,6.596c-4.295,0.962-7.329,4.615-7.329,8.82v13.447c0,4.875,3.953,8.828,8.828,8.828
	H220.69c4.875,0,8.828-3.953,8.828-8.828v-13.447C229.517,167.727,226.482,164.075,222.188,163.112z"/>
<g>
	<path style="fill:#A0D2F0;" d="M227.469,166.317l-15.401,13.187c-2.509,2.148-3.943,5.212-3.943,8.426v6.276h12.564
		c4.875,0,8.828-3.953,8.828-8.828v-13.447C229.517,169.835,228.76,167.875,227.469,166.317z"/>
	<path style="fill:#A0D2F0;" d="M123.379,179.505l-15.401-13.187c-1.291,1.558-2.047,3.518-2.047,5.615v13.447
		c0,4.875,3.953,8.828,8.828,8.828h12.563v-6.276C127.321,184.716,125.888,181.653,123.379,179.505z"/>
</g>
<polygon style="fill:#5B5D6E;" points="173.666,194.207 161.782,194.207 163.268,169.21 172.18,169.21 "/>
<g>
	<path style="fill:#A0D2F0;" d="M146.001,150.65l21.724,18.636c0,0-6.083,2.927-13.591,8.828c-1.549,1.217-3.892,0.724-4.722-1.017
		l-10.206-21.402l3.229-4.617C143.236,149.929,144.924,149.727,146.001,150.65z"/>
	<path style="fill:#A0D2F0;" d="M189.448,150.65l-21.724,18.636c0,0,6.083,2.927,13.591,8.828c1.549,1.217,3.892,0.724,4.722-1.017
		l10.206-21.402l-3.229-4.617C192.212,149.929,190.525,149.727,189.448,150.65z"/>
</g>
<path style="fill:#694B4B;" d="M176.552,61.793h-17.655c-14.626,0-26.483,11.857-26.483,26.483v19.17
	c0,4.682,1.86,9.173,5.171,12.484l3.657,3.656h52.966l3.657-3.657c3.311-3.311,5.171-7.801,5.171-12.484V88.276
	C203.034,73.65,191.178,61.793,176.552,61.793z"/>
<path style="fill:#F0C087;" d="M140.301,107.27l1.131,25.446c0.177,3.969,2.08,7.65,5.19,10.034l8.963,6.872
	c2.251,1.726,4.99,2.659,7.804,2.659h8.671c2.814,0,5.553-0.934,7.804-2.659l8.963-6.872c3.11-2.385,5.013-6.065,5.19-10.034
	l1.131-25.446c0.413-9.284-6.838-17.043-15.928-17.043h-22.987C147.14,90.227,139.889,97.985,140.301,107.27z"/>
<path style="fill:#FFD782;" d="M397.241,52.966H273.655c-4.875,0-8.828-3.953-8.828-8.828l0,0c0-4.875,3.953-8.828,8.828-8.828
	h123.586c4.875,0,8.828,3.953,8.828,8.828l0,0C406.069,49.013,402.116,52.966,397.241,52.966z"/>
<g>
	<path style="fill:#D7DEED;" d="M397.241,123.586H273.655c-4.875,0-8.828-3.953-8.828-8.828l0,0c0-4.875,3.953-8.828,8.828-8.828
		h123.586c4.875,0,8.828,3.953,8.828,8.828l0,0C406.069,119.634,402.116,123.586,397.241,123.586z"/>
	<path style="fill:#D7DEED;" d="M397.241,194.207H273.655c-4.875,0-8.828-3.953-8.828-8.828l0,0c0-4.875,3.953-8.828,8.828-8.828
		h123.586c4.875,0,8.828,3.953,8.828,8.828l0,0C406.069,190.254,402.116,194.207,397.241,194.207z"/>
	<path style="fill:#D7DEED;" d="M256,247.172h-70.621c-4.875,0-8.828-3.953-8.828-8.828l0,0c0-4.875,3.953-8.828,8.828-8.828H256
		c4.875,0,8.828,3.953,8.828,8.828l0,0C264.828,243.22,260.875,247.172,256,247.172z"/>
	<path style="fill:#D7DEED;" d="M220.69,282.483H114.759c-4.875,0-8.828-3.953-8.828-8.828l0,0c0-4.875,3.953-8.828,8.828-8.828
		H220.69c4.875,0,8.828,3.953,8.828,8.828l0,0C229.517,278.53,225.565,282.483,220.69,282.483z"/>
	<path style="fill:#D7DEED;" d="M397.241,282.483H256c-4.875,0-8.828-3.953-8.828-8.828l0,0c0-4.875,3.953-8.828,8.828-8.828
		h141.241c4.875,0,8.828,3.953,8.828,8.828l0,0C406.069,278.53,402.116,282.483,397.241,282.483z"/>
	<path style="fill:#D7DEED;" d="M308.966,247.172H291.31c-4.875,0-8.828-3.953-8.828-8.828l0,0c0-4.875,3.953-8.828,8.828-8.828
		h17.655c4.875,0,8.828,3.953,8.828,8.828l0,0C317.793,243.22,313.841,247.172,308.966,247.172z"/>
</g>
<path style="fill:#C7CFE2;" d="M150.069,247.172h-35.31c-4.875,0-8.828-3.953-8.828-8.828l0,0c0-4.875,3.953-8.828,8.828-8.828
	h35.31c4.875,0,8.828,3.953,8.828,8.828l0,0C158.897,243.22,154.944,247.172,150.069,247.172z"/>
<g>
	<path style="fill:#D7DEED;" d="M256,335.448h-70.621c-4.875,0-8.828-3.953-8.828-8.828l0,0c0-4.875,3.953-8.828,8.828-8.828H256
		c4.875,0,8.828,3.953,8.828,8.828l0,0C264.828,331.496,260.875,335.448,256,335.448z"/>
	<path style="fill:#D7DEED;" d="M220.69,370.759H114.759c-4.875,0-8.828-3.953-8.828-8.828l0,0c0-4.875,3.953-8.828,8.828-8.828
		H220.69c4.875,0,8.828,3.953,8.828,8.828l0,0C229.517,366.806,225.565,370.759,220.69,370.759z"/>
	<path style="fill:#D7DEED;" d="M397.241,370.759H256c-4.875,0-8.828-3.953-8.828-8.828l0,0c0-4.875,3.953-8.828,8.828-8.828
		h141.241c4.875,0,8.828,3.953,8.828,8.828l0,0C406.069,366.806,402.116,370.759,397.241,370.759z"/>
	<path style="fill:#D7DEED;" d="M308.966,335.448H291.31c-4.875,0-8.828-3.953-8.828-8.828l0,0c0-4.875,3.953-8.828,8.828-8.828
		h17.655c4.875,0,8.828,3.953,8.828,8.828l0,0C317.793,331.496,313.841,335.448,308.966,335.448z"/>
</g>
<path style="fill:#C7CFE2;" d="M150.069,335.448h-35.31c-4.875,0-8.828-3.953-8.828-8.828l0,0c0-4.875,3.953-8.828,8.828-8.828
	h35.31c4.875,0,8.828,3.953,8.828,8.828l0,0C158.897,331.496,154.944,335.448,150.069,335.448z"/>
<g>
	<path style="fill:#D7DEED;" d="M256,423.724h-70.621c-4.875,0-8.828-3.953-8.828-8.828l0,0c0-4.875,3.953-8.828,8.828-8.828H256
		c4.875,0,8.828,3.953,8.828,8.828l0,0C264.828,419.772,260.875,423.724,256,423.724z"/>
	<path style="fill:#D7DEED;" d="M220.69,459.034H114.759c-4.875,0-8.828-3.953-8.828-8.828l0,0c0-4.875,3.953-8.828,8.828-8.828
		H220.69c4.875,0,8.828,3.953,8.828,8.828l0,0C229.517,455.082,225.565,459.034,220.69,459.034z"/>
	<path style="fill:#D7DEED;" d="M397.241,459.034H256c-4.875,0-8.828-3.953-8.828-8.828l0,0c0-4.875,3.953-8.828,8.828-8.828
		h141.241c4.875,0,8.828,3.953,8.828,8.828l0,0C406.069,455.082,402.116,459.034,397.241,459.034z"/>
	<path style="fill:#D7DEED;" d="M308.966,423.724H291.31c-4.875,0-8.828-3.953-8.828-8.828l0,0c0-4.875,3.953-8.828,8.828-8.828
		h17.655c4.875,0,8.828,3.953,8.828,8.828l0,0C317.793,419.772,313.841,423.724,308.966,423.724z"/>
</g>
<path style="fill:#C7CFE2;" d="M150.069,423.724h-35.31c-4.875,0-8.828-3.953-8.828-8.828l0,0c0-4.875,3.953-8.828,8.828-8.828
	h35.31c4.875,0,8.828,3.953,8.828,8.828l0,0C158.897,419.772,154.944,423.724,150.069,423.724z"/>
<path style="fill:#D7DEED;" d="M397.241,158.897H273.655c-4.875,0-8.828-3.953-8.828-8.828l0,0c0-4.875,3.953-8.828,8.828-8.828
	h123.586c4.875,0,8.828,3.953,8.828,8.828l0,0C406.069,154.944,402.116,158.897,397.241,158.897z"/>
<path style="fill:#FFD782;" d="M397.241,88.276H273.655c-4.875,0-8.828-3.953-8.828-8.828l0,0c0-4.875,3.953-8.828,8.828-8.828
	h123.586c4.875,0,8.828,3.953,8.828,8.828l0,0C406.069,84.323,402.116,88.276,397.241,88.276z"/>
<g>
</g>
<g>
</g>
<g>
</g>
<g>
</g>
<g>
</g>
<g>
</g>
<g>
</g>
<g>
</g>
<g>
</g>
<g>
</g>
<g>
</g>
<g>
</g>
<g>
</g>
<g>
</g>
<g>
</g>
</svg>
