<?xml version="1.0" encoding="iso-8859-1"?>
<!-- Generator: Adobe Illustrator 19.0.0, SVG Export Plug-In . SVG Version: 6.00 Build 0)  -->
<svg version="1.1" id="Layer_1" xmlns="http://www.w3.org/2000/svg" xmlns:xlink="http://www.w3.org/1999/xlink" x="0px" y="0px"
	 viewBox="0 0 512 512" style="enable-background:new 0 0 512 512;" xml:space="preserve">
<path style="fill:#00D2FF;" d="M256,512C114.844,512,0,397.156,0,256S114.844,0,256,0s256,114.844,256,256S397.156,512,256,512z"/>
<path style="fill:#18BDF6;" d="M375.467,426.667c-141.156,0-256-114.844-256-256c0-59.087,20.318-113.41,54.071-156.783
	C72.768,48.311,0,143.72,0,256c0,141.156,114.844,256,256,256c82.069,0,155.049-38.974,201.929-99.217
	C432.012,421.638,404.342,426.667,375.467,426.667z"/>
<g>
	<path style="fill:#FFFFFF;" d="M291.31,397.241h-0.009c-4.875,0-8.828-3.953-8.828-8.828V203.034c0-4.875,3.953-8.828,8.828-8.828
		h0.009c4.879,0,8.828-3.953,8.828-8.828c0-4.875-3.948-8.828-8.828-8.828H220.69c-4.879,0-8.828,3.953-8.828,8.828
		c0,4.875,3.948,8.828,8.828,8.828h-0.009c4.875,0,8.828,3.953,8.828,8.828v185.379c0,4.875-3.953,8.828-8.828,8.828h0.009
		c-4.879,0-8.828,3.953-8.828,8.828s3.948,8.828,8.828,8.828h70.621c4.879,0,8.828-3.953,8.828-8.828S296.19,397.241,291.31,397.241
		z"/>
	<circle style="fill:#FFFFFF;" cx="256" cy="123.586" r="26.483"/>
</g>
<g>
</g>
<g>
</g>
<g>
</g>
<g>
</g>
<g>
</g>
<g>
</g>
<g>
</g>
<g>
</g>
<g>
</g>
<g>
</g>
<g>
</g>
<g>
</g>
<g>
</g>
<g>
</g>
<g>
</g>
</svg>
