<?xml version="1.0" encoding="iso-8859-1"?>
<!-- Generator: Adobe Illustrator 19.0.0, SVG Export Plug-In . SVG Version: 6.00 Build 0)  -->
<svg version="1.1" id="Layer_1" xmlns="http://www.w3.org/2000/svg" xmlns:xlink="http://www.w3.org/1999/xlink" x="0px" y="0px"
	 viewBox="0 0 512.002 512.002" style="enable-background:new 0 0 512.002 512.002;" xml:space="preserve">
<path style="fill:#F0C087;" d="M484.019,167.73H353.103v-8.836c0-14.626-11.857-26.483-26.483-26.483h-57.222
	c-19.63,0-38.701,6.543-54.197,18.595l-34.626,26.932c-6.198,4.821-13.826,7.438-21.678,7.438h-52.967v185.388h31.737
	c13.124,0,26.228,1.084,39.174,3.241l14.065,2.343c12.957,2.158,26.07,3.243,39.206,3.243h84.684
	c14.34,0,27.194-10.739,27.945-25.059c0.8-15.273-11.348-27.906-26.445-27.906h16.156c14.34,0,27.194-10.739,27.945-25.059
	c0.8-15.273-11.348-27.906-26.445-27.906h17.655c14.34,0,27.194-10.739,27.945-25.059c0.8-15.273-11.348-27.906-26.445-27.906
	h132.414c15.096,0,27.243-12.631,26.445-27.903C511.214,178.47,498.36,167.73,484.019,167.73z"/>
<rect x="105.931" y="185.381" style="fill:#E6AF78;" width="17.655" height="185.379"/>
<path style="fill:#A0D2F0;" d="M97.103,379.583H8.828c-4.875,0-8.828-3.953-8.828-8.828V185.376c0-4.875,3.953-8.828,8.828-8.828
	h88.276c4.875,0,8.828,3.953,8.828,8.828v185.379C105.931,375.631,101.978,379.583,97.103,379.583z"/>
<circle style="fill:#EFF2FA;" cx="52.966" cy="335.45" r="17.655"/>
<g>
</g>
<g>
</g>
<g>
</g>
<g>
</g>
<g>
</g>
<g>
</g>
<g>
</g>
<g>
</g>
<g>
</g>
<g>
</g>
<g>
</g>
<g>
</g>
<g>
</g>
<g>
</g>
<g>
</g>
</svg>
