<?xml version="1.0" encoding="iso-8859-1"?>
<!-- Generator: Adobe Illustrator 19.0.0, SVG Export Plug-In . SVG Version: 6.00 Build 0)  -->
<svg version="1.1" id="Layer_1" xmlns="http://www.w3.org/2000/svg" xmlns:xlink="http://www.w3.org/1999/xlink" x="0px" y="0px"
	 viewBox="0 0 512 512" style="enable-background:new 0 0 512 512;" xml:space="preserve">
<path style="fill:#FFD782;" d="M509.323,219.339c-0.626-4.314-4.413-7.477-8.772-7.477h-19.318
	c-5.959-30.578-17.953-58.996-34.746-83.928l13.632-13.632c3.085-3.085,3.521-8.014,0.907-11.508
	c-14.708-19.652-32.168-37.112-51.821-51.821c-3.492-2.614-8.422-2.177-11.507,0.908l-13.633,13.633
	c-24.93-16.794-53.348-28.788-83.926-34.746V11.449c0-4.36-3.162-8.147-7.477-8.772C280.686,0.94,268.456,0,256,0
	s-24.686,0.94-36.661,2.677c-4.314,0.626-7.477,4.413-7.477,8.772v19.318c-30.578,5.959-58.996,17.952-83.927,34.746l-13.632-13.633
	c-3.085-3.085-8.014-3.522-11.508-0.908c-19.652,14.709-37.112,32.169-51.821,51.821c-2.614,3.494-2.177,8.423,0.908,11.508
	l13.633,13.633c-16.796,24.931-28.789,53.35-34.748,83.927H11.449c-4.36,0-8.147,3.162-8.772,7.477C0.941,231.314,0,243.544,0,256
	s0.941,24.686,2.677,36.66c0.626,4.314,4.413,7.478,8.772,7.478h19.318c5.959,30.578,17.952,58.996,34.746,83.927l-13.633,13.633
	c-3.085,3.085-3.522,8.014-0.908,11.508c14.709,19.652,32.168,37.112,51.821,51.82c3.494,2.614,8.422,2.177,11.508-0.908
	l13.632-13.632c24.931,16.794,53.35,28.788,83.927,34.746v19.318c0,4.36,3.162,8.147,7.477,8.772
	C231.314,511.059,243.544,512,256,512s24.686-0.941,36.661-2.677c4.315-0.626,7.477-4.413,7.477-8.772v-19.318
	c30.578-5.959,58.996-17.952,83.927-34.746l13.633,13.632c3.085,3.085,8.014,3.522,11.507,0.908
	c19.654-14.709,37.113-32.168,51.821-51.82c2.615-3.493,2.179-8.423-0.907-11.508l-13.632-13.632
	c16.794-24.931,28.788-53.349,34.746-83.927h19.318c4.36,0,8.147-3.164,8.772-7.478C511.059,280.686,512,268.456,512,256
	S511.059,231.314,509.323,219.339z M256,432.552c-97.507,0-176.552-79.046-176.552-176.552c0-97.507,79.044-176.552,176.552-176.552
	S432.552,158.493,432.552,256C432.552,353.506,353.507,432.552,256,432.552z"/>
<g>
	<path style="fill:#FFC36E;" d="M256,52.966C143.866,52.966,52.966,143.866,52.966,256c0,112.132,90.901,203.034,203.034,203.034
		S459.034,368.132,459.034,256C459.034,143.866,368.134,52.966,256,52.966z M256,432.552c-97.507,0-176.552-79.046-176.552-176.552
		c0-97.507,79.044-176.552,176.552-176.552S432.552,158.493,432.552,256C432.552,353.506,353.507,432.552,256,432.552z"/>
	<path style="fill:#FFC36E;" d="M333.866,299.025c0-30.499-17.991-49.193-53.972-57.064l-12.665-2.486v-52.424
		c9.668,2.025,17.299,7.755,21.106,15.393c3.221,6.463,9.793,10.562,17.015,10.562c14.713,0,24.258-16.218,16.424-28.673
		c-10.226-16.258-29.391-27.159-54.545-29.953v-9.055c0-7.132-5.781-12.911-12.911-12.911s-12.911,5.781-12.911,12.911v9.05
		c-39.919,4.346-63.271,26.194-63.271,59.614c0,29.235,18.131,48.771,52.004,56.642l11.266,2.657v55.092
		c-11.409-2.121-20.088-7.969-24.372-16.182c-3.328-6.383-9.793-10.505-16.992-10.505h-1.899c-14.723,0-24.157,16.169-16.42,28.696
		c10.539,17.064,31.337,27.816,59.682,30.195v6.089c0,7.13,5.781,12.911,12.911,12.911c7.13,0,12.911-5.781,12.911-12.911v-6.22
		C309.849,356.064,333.866,334.067,333.866,299.025z M218.753,210.477c0-12.267,9.266-21.548,22.652-23.633v47.199
		C226.612,230.012,218.753,221.938,218.753,210.477z M267.229,328.885v-50.706c18.302,4.118,26.861,12.269,26.861,25.344
		C294.09,317.763,284.182,327.104,267.229,328.885z"/>
</g>
<g>
</g>
<g>
</g>
<g>
</g>
<g>
</g>
<g>
</g>
<g>
</g>
<g>
</g>
<g>
</g>
<g>
</g>
<g>
</g>
<g>
</g>
<g>
</g>
<g>
</g>
<g>
</g>
<g>
</g>
</svg>
