<?xml version="1.0" encoding="iso-8859-1"?>
<!-- Generator: Adobe Illustrator 19.0.0, SVG Export Plug-In . SVG Version: 6.00 Build 0)  -->
<svg version="1.1" id="Layer_1" xmlns="http://www.w3.org/2000/svg" xmlns:xlink="http://www.w3.org/1999/xlink" x="0px" y="0px"
	 viewBox="0 0 512 512" style="enable-background:new 0 0 512 512;" xml:space="preserve">
<rect x="189.263" y="266.19" transform="matrix(0.7071 0.7071 -0.7071 0.7071 277.0252 -55.2723)" style="fill:#FFD782;" width="31.939" height="81.147"/>
<path style="fill:#FFC36E;" d="M202.44,286.975c6.869,8.161,14.423,15.716,22.584,22.585l20.2-20.2l-22.584-22.585L202.44,286.975z"
	/>
<path style="fill:#FFD782;" d="M344.276,0c-92.631,0-167.724,75.093-167.724,167.724s75.093,167.724,167.724,167.724
	S512,260.355,512,167.724S436.907,0,344.276,0z M344.276,308.966c-78.005,0-141.241-63.236-141.241-141.241
	c0-78.006,63.236-141.241,141.241-141.241c78.006,0,141.241,63.235,141.241,141.241
	C485.518,245.729,422.282,308.966,344.276,308.966z"/>
<path style="fill:#707487;" d="M23.9,506.83L5.172,488.106c-6.895-6.894-6.897-18.074-0.001-24.97L154.17,314.137
	c6.894-6.894,18.072-6.894,24.967-0.001l18.728,18.724c6.895,6.894,6.897,18.074,0.001,24.97L48.867,506.829
	C41.973,513.724,30.795,513.724,23.9,506.83z"/>
<path style="fill:#5B5D6E;" d="M22.826,480.791l148.999-148.999c6.894-6.894,18.071-6.895,24.967-0.001l1.092,1.091
	c0,0-0.011-0.015-0.019-0.022l-18.728-18.724c-6.895-6.893-18.072-6.893-24.967,0.001l-148.999,149
	c-6.895,6.895-6.895,18.074,0.001,24.969l17.641,17.638C15.933,498.848,15.935,487.681,22.826,480.791z"/>
<path style="fill:#FFD782;" d="M186.987,368.708l10.878-10.878c6.895-6.895,6.894-18.074-0.001-24.969l-18.728-18.724
	c-6.895-6.893-18.072-6.893-24.967,0.001l-10.876,10.877L186.987,368.708z"/>
<g>
	<path style="fill:#FFC36E;" d="M160.947,342.669l10.877-10.877c6.894-6.894,18.071-6.895,24.967-0.001l1.09,1.09
		c-0.007-0.007-0.01-0.014-0.017-0.021l-18.728-18.724c-6.895-6.893-18.072-6.893-24.967,0.001l-10.876,10.877L160.947,342.669z"/>
	<path style="fill:#FFC36E;" d="M405.457,201.529c0-23.964-14.135-38.652-42.407-44.836l-9.951-1.953v-41.19
		c7.596,1.591,13.591,6.093,16.583,12.095c2.531,5.078,7.694,8.299,13.368,8.299c11.561,0,19.06-12.743,12.905-22.529
		c-8.034-12.775-23.093-21.34-42.857-23.534v-7.115c0-5.603-4.542-10.145-10.145-10.145s-10.145,4.542-10.145,10.145v7.112
		c-31.364,3.415-49.713,20.58-49.713,46.839c0,22.97,14.246,38.321,40.861,44.505l8.852,2.088v43.287
		c-8.964-1.666-15.784-6.261-19.149-12.715c-2.615-5.015-7.694-8.254-13.351-8.254h-1.492c-11.567,0-18.98,12.704-12.902,22.547
		c8.28,13.407,24.621,21.856,46.893,23.724v4.783c0,5.603,4.542,10.145,10.145,10.145c5.603,0,10.145-4.542,10.145-10.145v-4.887
		C386.587,246.346,405.457,229.063,405.457,201.529z M315.012,131.956c0-9.639,7.281-16.931,17.798-18.569v37.085
		C321.185,147.305,315.012,140.961,315.012,131.956z M353.098,224.991v-39.84c14.38,3.236,21.105,9.64,21.105,19.913
		C374.204,216.253,366.419,223.592,353.098,224.991z"/>
</g>
<g>
</g>
<g>
</g>
<g>
</g>
<g>
</g>
<g>
</g>
<g>
</g>
<g>
</g>
<g>
</g>
<g>
</g>
<g>
</g>
<g>
</g>
<g>
</g>
<g>
</g>
<g>
</g>
<g>
</g>
</svg>
