<?xml version="1.0" encoding="iso-8859-1"?>
<!-- Generator: Adobe Illustrator 19.0.0, SVG Export Plug-In . SVG Version: 6.00 Build 0)  -->
<svg version="1.1" id="Layer_1" xmlns="http://www.w3.org/2000/svg" xmlns:xlink="http://www.w3.org/1999/xlink" x="0px" y="0px"
	 viewBox="0 0 512 512" style="enable-background:new 0 0 512 512;" xml:space="preserve">
<path style="fill:#F0C087;" d="M506.101,254.285l-7.255-2.553c-11.235-3.954-19.864-13.266-22.503-24.879
	c-7.721-33.985-46.484-65.836-85.151-69.263c-4.438-0.393-8.451-2.518-11.049-6.138c-34.77-48.468-101.03-81.238-177.109-81.238
	C90.901,70.212,0,141.353,0,229.109s90.901,158.897,203.034,158.897c43.977,0,84.666-10.961,117.906-29.559
	c6.773-3.789,14.396-5.801,22.147-6.163c32.018-1.495,91.845-7.613,145.848-31.495c4.726-2.09,8.236-6.258,9.688-11.218
	l13.018-44.48C512.96,260.589,510.526,255.842,506.101,254.285z"/>
<path style="fill:#D59E6C;" d="M247.172,259.224c0-20.056-11.831-32.35-35.492-37.525l-8.329-1.634v-34.474
	c6.358,1.332,11.375,5.099,13.879,10.122c2.119,4.249,6.44,6.946,11.189,6.946c9.676,0,15.951-10.665,10.801-18.856
	c-6.724-10.691-19.328-17.86-35.869-19.698v-5.954c0-4.69-3.801-8.491-8.491-8.491c-4.69,0-8.491,3.801-8.491,8.491v5.952
	c-26.251,2.858-41.607,17.225-41.607,39.202c0,19.225,11.923,32.073,34.198,37.248l7.409,1.748v36.228
	c-7.502-1.395-13.21-5.24-16.026-10.642c-2.189-4.198-6.44-6.909-11.174-6.909h-1.249c-9.682,0-15.885,10.633-10.798,18.87
	c6.93,11.221,20.607,18.292,39.247,19.857v4.003c0,4.69,3.801,8.491,8.491,8.491c4.69,0,8.491-3.801,8.491-8.491v-4.09
	C231.38,296.734,247.172,282.267,247.172,259.224z M171.475,200.995c0-8.067,6.093-14.17,14.895-15.541v31.038
	C176.642,213.841,171.475,208.532,171.475,200.995z M203.351,278.86v-33.344c12.035,2.708,17.664,8.068,17.664,16.666
	C221.015,271.547,214.5,277.689,203.351,278.86z"/>
<g>
	<path style="fill:#E6AF78;" d="M266.22,333.659l25.705,93.012c2.455,8.884,11.279,15.116,21.402,15.116l0,0
		c10.516,0,19.57-6.714,21.632-16.043l20.785-94.013c5.679-25.689-16.041-49.657-45.002-49.657l0,0
		C280.886,282.074,258.979,307.457,266.22,333.659z"/>
	<path style="fill:#E6AF78;" d="M26.483,294.579L26.483,294.579c0,2.348,0.313,4.687,0.935,6.973l34.649,127.516
		c1.959,7.209,9.388,12.305,17.941,12.305l0,0c8.553,0,15.982-5.095,17.941-12.305l21.19-77.983
		c8.619-31.721-6.876-64.693-38.625-82.188l0,0C57.109,256,26.483,270.558,26.483,294.579z"/>
	<path style="fill:#E6AF78;" d="M400.033,185.424l28.352-85.057c1.809-5.425-3.421-10.61-8.792-8.653
		c-22.885,8.335-66.568,32.09-50.208,88.84c0.796,2.76,2.995,4.958,5.719,5.866l13.762,4.587
		C393.492,192.549,398.492,190.049,400.033,185.424z"/>
</g>
<path style="fill:#D29B6E;" d="M423.724,255.592L423.724,255.592c-4.875,0-8.828-3.953-8.828-8.828v-8.828
	c0-4.875,3.953-8.828,8.828-8.828l0,0c4.875,0,8.828,3.953,8.828,8.828v8.828C432.552,251.639,428.599,255.592,423.724,255.592z"/>
<path style="fill:#E6AF78;" d="M488.937,320.789c1.849-0.818,3.442-2.027,4.868-3.404h-45.29c-4.281,0-8.3,1.796-11.2,4.945
	c-5.468,5.937-16.675,16.031-34.957,23.531C429.454,341.243,460.013,333.58,488.937,320.789z"/>
<path style="fill:#AF7850;" d="M150.06,111.626c-4,0-7.62-2.733-8.586-6.802c-1.121-4.742,1.818-9.5,6.569-10.621
	c29.543-6.966,61.224-8.224,91.647-3.526c4.819,0.742,8.12,5.25,7.38,10.069s-5.224,8.12-10.069,7.38
	c-28.224-4.353-57.586-3.19-84.905,3.267C151.414,111.549,150.733,111.626,150.06,111.626z"/>
<g>
</g>
<g>
</g>
<g>
</g>
<g>
</g>
<g>
</g>
<g>
</g>
<g>
</g>
<g>
</g>
<g>
</g>
<g>
</g>
<g>
</g>
<g>
</g>
<g>
</g>
<g>
</g>
<g>
</g>
</svg>
