<?xml version="1.0" encoding="iso-8859-1"?>
<!-- Generator: Adobe Illustrator 19.0.0, SVG Export Plug-In . SVG Version: 6.00 Build 0)  -->
<svg version="1.1" id="Layer_1" xmlns="http://www.w3.org/2000/svg" xmlns:xlink="http://www.w3.org/1999/xlink" x="0px" y="0px"
	 viewBox="0 0 512 512" style="enable-background:new 0 0 512 512;" xml:space="preserve">
<path style="fill:#00D2FF;" d="M432.274,135.587L256,282.483L90.528,123.63c-39.615,41.234-64.045,97.154-64.045,158.852
	C26.483,409.241,129.241,512,256,512s229.517-102.759,229.517-229.517C485.517,226.584,465.489,175.394,432.274,135.587z"/>
<path style="fill:#9BE6D2;" d="M90.475,123.58L256,282.483V52.966C190.936,52.966,132.242,80.084,90.475,123.58z"/>
<path style="fill:#C3E678;" d="M456.815,82.622l0.012-0.046C414.726,32.12,351.392,0,280.541,0v229.517L456.815,82.622z"/>
<path style="fill:#18BDF6;" d="M308.966,476.69c-126.759,0-229.517-102.759-229.517-229.517c0-39.125,9.815-75.948,27.079-108.184
	L90.528,123.63c-39.615,41.234-64.045,97.154-64.045,158.852C26.483,409.241,129.241,512,256,512
	c58.449,0,111.763-21.884,152.285-57.86C378.229,468.59,344.544,476.69,308.966,476.69z"/>
<path style="fill:#78D2BE;" d="M156.452,75.713c-24.787,11.972-47.119,28.228-65.976,47.866l16.051,15.41
	C119.356,115.032,136.318,93.635,156.452,75.713z"/>
<g>
</g>
<g>
</g>
<g>
</g>
<g>
</g>
<g>
</g>
<g>
</g>
<g>
</g>
<g>
</g>
<g>
</g>
<g>
</g>
<g>
</g>
<g>
</g>
<g>
</g>
<g>
</g>
<g>
</g>
</svg>
