<?xml version="1.0" encoding="iso-8859-1"?>
<!-- Generator: Adobe Illustrator 19.0.0, SVG Export Plug-In . SVG Version: 6.00 Build 0)  -->
<svg version="1.1" id="Layer_1" xmlns="http://www.w3.org/2000/svg" xmlns:xlink="http://www.w3.org/1999/xlink" x="0px" y="0px"
	 viewBox="0 0 512 512" style="enable-background:new 0 0 512 512;" xml:space="preserve">
<path style="fill:#8F96AC;" d="M370.759,238.345c-2.526,0-4.952-1.086-6.643-3.012l-54.987-62.845l-37.522,45.026
	c-3.121,3.746-8.685,4.25-12.431,1.129c-3.746-3.122-4.25-8.685-1.129-12.431l44.138-52.966c1.651-1.983,4.09-3.147,6.673-3.177
	c2.81-0.116,5.052,1.069,6.75,3.012l52.836,60.384l47.263-102.406c2.047-4.431,7.288-6.354,11.715-4.319
	c4.427,2.044,6.358,7.288,4.319,11.715l-52.966,114.759c-1.255,2.716-3.797,4.612-6.759,5.038
	C371.6,238.315,371.177,238.345,370.759,238.345z"/>
<rect x="189.263" y="266.19" transform="matrix(0.7071 0.7071 -0.7071 0.7071 277.0252 -55.2723)" style="fill:#D7DEED;" width="31.939" height="81.147"/>
<path style="fill:#C7CFE2;" d="M202.44,286.975c6.869,8.161,14.423,15.716,22.584,22.585l20.2-20.2l-22.584-22.585L202.44,286.975z"
	/>
<path style="fill:#D7DEED;" d="M344.276,0c-92.631,0-167.724,75.093-167.724,167.724s75.093,167.724,167.724,167.724
	S512,260.355,512,167.724S436.907,0,344.276,0z M344.276,308.966c-78.005,0-141.241-63.236-141.241-141.241
	c0-78.006,63.236-141.241,141.241-141.241c78.006,0,141.241,63.235,141.241,141.241
	C485.518,245.729,422.282,308.966,344.276,308.966z"/>
<path style="fill:#707487;" d="M23.9,506.83L5.172,488.106c-6.895-6.894-6.897-18.074-0.001-24.97L154.17,314.137
	c6.894-6.894,18.072-6.894,24.967-0.001l18.728,18.724c6.895,6.894,6.897,18.074,0.001,24.97L48.867,506.829
	C41.973,513.724,30.795,513.724,23.9,506.83z"/>
<path style="fill:#5B5D6E;" d="M22.826,480.791l148.999-148.999c6.894-6.894,18.071-6.895,24.967-0.001l1.092,1.091
	c0,0-0.011-0.015-0.019-0.022l-18.728-18.724c-6.895-6.893-18.072-6.893-24.967,0.001l-148.999,149
	c-6.895,6.895-6.895,18.074,0.001,24.969l17.641,17.638C15.933,498.848,15.935,487.681,22.826,480.791z"/>
<path style="fill:#C7CFE2;" d="M186.987,368.708l10.878-10.878c6.895-6.895,6.894-18.074-0.001-24.969l-18.728-18.724
	c-6.895-6.893-18.072-6.893-24.967,0.001l-10.876,10.877L186.987,368.708z"/>
<g style="opacity:0.97;">
	<path style="fill:#AFB9D2;" d="M160.947,342.669l10.877-10.877c6.894-6.894,18.071-6.895,24.967-0.001l1.09,1.09
		c-0.007-0.007-0.01-0.014-0.017-0.021l-18.728-18.724c-6.895-6.893-18.072-6.893-24.967,0.001l-10.876,10.877L160.947,342.669z"/>
</g>
<circle style="fill:#FF6464;" cx="264.828" cy="211.862" r="17.655"/>
<circle style="fill:#FFD782;" cx="308.966" cy="158.897" r="17.655"/>
<circle style="fill:#C3E678;" cx="370.759" cy="229.517" r="17.655"/>
<circle style="fill:#00D2FF;" cx="423.724" cy="114.759" r="17.655"/>
<g>
</g>
<g>
</g>
<g>
</g>
<g>
</g>
<g>
</g>
<g>
</g>
<g>
</g>
<g>
</g>
<g>
</g>
<g>
</g>
<g>
</g>
<g>
</g>
<g>
</g>
<g>
</g>
<g>
</g>
</svg>
