<?xml version="1.0" encoding="iso-8859-1"?>
<!-- Generator: Adobe Illustrator 19.0.0, SVG Export Plug-In . SVG Version: 6.00 Build 0)  -->
<svg version="1.1" id="Layer_1" xmlns="http://www.w3.org/2000/svg" xmlns:xlink="http://www.w3.org/1999/xlink" x="0px" y="0px"
	 viewBox="0 0 512.001 512.001" style="enable-background:new 0 0 512.001 512.001;" xml:space="preserve">
<path style="fill:#D7DEED;" d="M8.835,229.518c-3.328,0-6.517-1.892-8.013-5.112c-2.051-4.418-0.129-9.668,4.293-11.724
	l247.17-114.757c4.423-2.044,9.664-0.129,11.724,4.293c2.051,4.418,0.129,9.668-4.293,11.724L12.546,228.699
	C11.344,229.254,10.081,229.518,8.835,229.518z"/>
<path style="fill:#707487;" d="M256.001,132.416c-14.603,0-26.482-11.88-26.482-26.482c0-4.875,3.953-8.827,8.827-8.827
	c4.875,0,8.827,3.953,8.827,8.827c0,4.866,3.961,8.827,8.827,8.827c4.866,0,8.828-3.961,8.828-8.827
	c0-3.801-2.422-7.168-6.021-8.375c-6.962-2.332-11.634-9.095-11.634-16.827V61.796c0-4.875,3.953-8.827,8.827-8.827
	c4.875,0,8.828,3.953,8.828,8.827v18.935c10.392,3.706,17.655,13.802,17.655,25.202
	C282.484,120.536,270.604,132.416,256.001,132.416z"/>
<path style="fill:#AFB9D2;" d="M266.177,70.623h-20.353c-4.316,0-7.998-3.119-8.707-7.376l-5.885-35.31
	c-0.897-5.38,3.253-10.279,8.707-10.279h32.124c5.455,0,9.604,4.898,8.707,10.279l-5.885,35.31
	C274.176,67.503,270.493,70.623,266.177,70.623z"/>
<path style="fill:#D7DEED;" d="M503.166,229.518c-1.246,0-2.508-0.263-3.711-0.819l-247.17-114.757
	c-4.423-2.056-6.345-7.306-4.293-11.724c2.051-4.431,7.301-6.34,11.724-4.293l247.17,114.757c4.423,2.056,6.345,7.306,4.293,11.724
	C509.683,227.626,506.493,229.518,503.166,229.518z"/>
<path style="fill:#00D2FF;" d="M503.17,211.863c-4.875,0-8.828,3.953-8.828,8.827v8.827H17.658v-8.827
	c0-4.875-3.953-8.827-8.827-8.827s-8.827,3.953-8.827,8.827v264.825c0,4.875,3.953,8.828,8.827,8.828h494.34
	c4.875,0,8.827-3.953,8.827-8.828V220.691C511.997,215.816,508.046,211.863,503.17,211.863z"/>
<path style="fill:#18BDF6;" d="M503.17,494.342H8.83c-4.875,0-8.827-3.953-8.827-8.827v-8.827h511.994v8.827
	C511.997,490.39,508.046,494.342,503.17,494.342z"/>
<g>
	<path style="fill:#5B5D6E;" d="M194.209,494.342h-26.482c-4.875,0-8.827-3.953-8.827-8.827l0,0c0-4.875,3.952-8.827,8.827-8.827
		h26.482c4.875,0,8.827,3.953,8.827,8.827l0,0C203.036,490.39,199.084,494.342,194.209,494.342z"/>
	<path style="fill:#5B5D6E;" d="M344.276,494.342h-26.482c-4.875,0-8.827-3.953-8.827-8.827l0,0c0-4.875,3.953-8.827,8.827-8.827
		h26.482c4.875,0,8.827,3.953,8.827,8.827l0,0C353.104,490.39,349.151,494.342,344.276,494.342z"/>
</g>
<g>
	<path style="fill:#18BDF6;" d="M238.346,459.032L238.346,459.032c-4.875,0-8.827-3.952-8.827-8.827V256
		c0-4.875,3.953-8.827,8.827-8.827l0,0c4.875,0,8.827,3.953,8.827,8.827v194.205C247.174,455.08,243.221,459.032,238.346,459.032z"
		/>
	<path style="fill:#18BDF6;" d="M273.656,459.032L273.656,459.032c-4.875,0-8.827-3.952-8.827-8.827V256
		c0-4.875,3.952-8.827,8.827-8.827l0,0c4.875,0,8.827,3.953,8.827,8.827v194.205C282.484,455.08,278.531,459.032,273.656,459.032z"
		/>
	<path style="fill:#18BDF6;" d="M167.726,459.032L167.726,459.032c-4.875,0-8.827-3.952-8.827-8.827V256
		c0-4.875,3.952-8.827,8.827-8.827l0,0c4.875,0,8.827,3.953,8.827,8.827v194.205C176.554,455.08,172.601,459.032,167.726,459.032z"
		/>
	<path style="fill:#18BDF6;" d="M203.036,459.032L203.036,459.032c-4.875,0-8.827-3.952-8.827-8.827V256
		c0-4.875,3.952-8.827,8.827-8.827l0,0c4.875,0,8.827,3.953,8.827,8.827v194.205C211.864,455.08,207.911,459.032,203.036,459.032z"
		/>
	<path style="fill:#18BDF6;" d="M97.106,459.032L97.106,459.032c-4.875,0-8.827-3.952-8.827-8.827V256
		c0-4.875,3.953-8.827,8.827-8.827l0,0c4.875,0,8.827,3.953,8.827,8.827v194.205C105.934,455.08,101.981,459.032,97.106,459.032z"/>
	<path style="fill:#18BDF6;" d="M132.416,459.032L132.416,459.032c-4.875,0-8.827-3.952-8.827-8.827V256
		c0-4.875,3.953-8.827,8.827-8.827l0,0c4.875,0,8.827,3.953,8.827,8.827v194.205C141.244,455.08,137.291,459.032,132.416,459.032z"
		/>
	<path style="fill:#18BDF6;" d="M26.486,459.032L26.486,459.032c-4.875,0-8.827-3.952-8.827-8.827V256
		c0-4.875,3.953-8.827,8.827-8.827l0,0c4.875,0,8.827,3.953,8.827,8.827v194.205C35.314,455.08,31.361,459.032,26.486,459.032z"/>
	<path style="fill:#18BDF6;" d="M61.796,459.032L61.796,459.032c-4.875,0-8.827-3.952-8.827-8.827V256
		c0-4.875,3.953-8.827,8.827-8.827l0,0c4.875,0,8.827,3.953,8.827,8.827v194.205C70.624,455.08,66.671,459.032,61.796,459.032z"/>
	<path style="fill:#18BDF6;" d="M379.586,459.032L379.586,459.032c-4.875,0-8.827-3.952-8.827-8.827V256
		c0-4.875,3.952-8.827,8.827-8.827l0,0c4.875,0,8.827,3.953,8.827,8.827v194.205C388.412,455.08,384.461,459.032,379.586,459.032z"
		/>
	<path style="fill:#18BDF6;" d="M414.895,459.032L414.895,459.032c-4.875,0-8.827-3.952-8.827-8.827V256
		c0-4.875,3.953-8.827,8.827-8.827l0,0c4.875,0,8.828,3.953,8.828,8.827v194.205C423.722,455.08,419.771,459.032,414.895,459.032z"
		/>
	<path style="fill:#18BDF6;" d="M308.966,459.032L308.966,459.032c-4.875,0-8.827-3.952-8.827-8.827V256
		c0-4.875,3.953-8.827,8.827-8.827l0,0c4.875,0,8.827,3.953,8.827,8.827v194.205C317.794,455.08,313.841,459.032,308.966,459.032z"
		/>
	<path style="fill:#18BDF6;" d="M344.276,459.032L344.276,459.032c-4.875,0-8.827-3.952-8.827-8.827V256
		c0-4.875,3.953-8.827,8.827-8.827l0,0c4.875,0,8.827,3.953,8.827,8.827v194.205C353.104,455.08,349.151,459.032,344.276,459.032z"
		/>
	<path style="fill:#18BDF6;" d="M450.205,459.032L450.205,459.032c-4.875,0-8.827-3.952-8.827-8.827V256
		c0-4.875,3.953-8.827,8.827-8.827l0,0c4.875,0,8.827,3.953,8.827,8.827v194.205C459.032,455.08,455.081,459.032,450.205,459.032z"
		/>
	<path style="fill:#18BDF6;" d="M485.515,459.032L485.515,459.032c-4.875,0-8.827-3.952-8.827-8.827V256
		c0-4.875,3.953-8.827,8.827-8.827l0,0c4.875,0,8.827,3.953,8.827,8.827v194.205C494.342,455.08,490.391,459.032,485.515,459.032z"
		/>
</g>
<g>
</g>
<g>
</g>
<g>
</g>
<g>
</g>
<g>
</g>
<g>
</g>
<g>
</g>
<g>
</g>
<g>
</g>
<g>
</g>
<g>
</g>
<g>
</g>
<g>
</g>
<g>
</g>
<g>
</g>
</svg>
