<?xml version="1.0" encoding="iso-8859-1"?>
<!-- Generator: Adobe Illustrator 19.0.0, SVG Export Plug-In . SVG Version: 6.00 Build 0)  -->
<svg version="1.1" id="Layer_1" xmlns="http://www.w3.org/2000/svg" xmlns:xlink="http://www.w3.org/1999/xlink" x="0px" y="0px"
	 viewBox="0 0 512 512" style="enable-background:new 0 0 512 512;" xml:space="preserve">
<path style="fill:#E3E8F3;" d="M432.225,361.931c-43.81,0-79.448-35.638-79.448-79.448V158.897c0-43.81,35.638-79.448,79.448-79.448
	s79.448,35.638,79.448,79.448v123.586C511.673,326.293,476.035,361.931,432.225,361.931z M432.225,114.759
	c-24.337,0-44.138,19.801-44.138,44.138v123.586c0,24.337,19.801,44.138,44.138,44.138s44.138-19.801,44.138-44.138V158.897
	C476.363,134.56,456.56,114.759,432.225,114.759z"/>
<path style="fill:#EFF2FA;" d="M0.339,26.483l16.371,442.02c0.345,9.495,8.142,17.014,17.644,17.014h336.708
	c9.501,0,17.299-7.519,17.643-17.014l16.372-442.02c0.363-9.996-7.641-18.296-17.643-18.296H17.982
	C7.98,8.186-0.025,16.487,0.339,26.483z"/>
<g>
	<path style="fill:#E3E8F3;" d="M34.984,485.517l4.803,14.411C42.19,507.137,48.937,512,56.536,512h292.343
		c7.599,0,14.346-4.863,16.749-12.072l4.803-14.411H34.984z"/>
	<path style="fill:#E3E8F3;" d="M166.125,468.504l-16.371-442.02c-0.364-9.996,7.641-18.297,17.643-18.297H17.982
		c-10.002,0-18.007,8.301-17.643,18.297l16.371,442.02c0.345,9.493,8.142,17.013,17.644,17.013h149.415
		C174.267,485.517,166.471,477.997,166.125,468.504z"/>
</g>
<g>
	<path style="fill:#D7DEED;" d="M207.511,499.927l-4.803-14.41H34.984l4.803,14.411C42.19,507.137,48.937,512,56.536,512H224.26
		C216.661,512,209.914,507.137,207.511,499.927z"/>
	<path style="fill:#D7DEED;" d="M308.639,229.517L308.639,229.517c-4.875,0-8.828-3.953-8.828-8.828V8.828
		c0-4.875,3.953-8.828,8.828-8.828l0,0c4.875,0,8.828,3.953,8.828,8.828V220.69C317.466,225.565,313.514,229.517,308.639,229.517z"
		/>
</g>
<path style="fill:#FFD782;" d="M302.397,196.792l-26.483,26.483c-1.655,1.655-2.585,3.901-2.585,6.242v49.309
	c0,4.875,3.953,8.828,8.828,8.828h52.965c4.875,0,8.828-3.953,8.828-8.828v-49.309c0-2.342-0.93-4.587-2.585-6.242l-26.483-26.483
	C311.434,193.345,305.844,193.345,302.397,196.792z"/>
<path style="fill:#FFC36E;" d="M308.639,269.998L308.639,269.998c-4.875,0-8.828-3.953-8.828-8.828v-35.31
	c0-4.875,3.953-8.828,8.828-8.828l0,0c4.875,0,8.828,3.953,8.828,8.828v35.31C317.466,266.047,313.514,269.998,308.639,269.998z"/>
<g>
</g>
<g>
</g>
<g>
</g>
<g>
</g>
<g>
</g>
<g>
</g>
<g>
</g>
<g>
</g>
<g>
</g>
<g>
</g>
<g>
</g>
<g>
</g>
<g>
</g>
<g>
</g>
<g>
</g>
</svg>
