<?xml version="1.0" encoding="iso-8859-1"?>
<!-- Generator: Adobe Illustrator 19.0.0, SVG Export Plug-In . SVG Version: 6.00 Build 0)  -->
<svg version="1.1" id="Layer_1" xmlns="http://www.w3.org/2000/svg" xmlns:xlink="http://www.w3.org/1999/xlink" x="0px" y="0px"
	 viewBox="0 0 512 512" style="enable-background:new 0 0 512 512;" xml:space="preserve">
<path style="fill:#C3E678;" d="M264.828,0h-17.655c-4.875,0-8.828,3.953-8.828,8.828v105.931h35.31V8.828
	C273.655,3.953,269.703,0,264.828,0z"/>
<rect x="238.345" y="88.276" style="fill:#A5D76E;" width="35.31" height="26.483"/>
<path style="fill:#EFF2FA;" d="M476.69,512H35.31c-9.751,0-17.655-7.904-17.655-17.655V211.862c0-9.751,7.904-17.655,17.655-17.655
	H476.69c9.751,0,17.655,7.904,17.655,17.655v282.483C494.345,504.095,486.44,512,476.69,512z"/>
<path style="fill:#C3E678;" d="M211.862,485.517H52.966c-4.875,0-8.828-3.953-8.828-8.828V247.172c0-4.875,3.953-8.828,8.828-8.828
	h158.897c4.875,0,8.828,3.953,8.828,8.828V476.69C220.69,481.565,216.737,485.517,211.862,485.517z"/>
<path style="fill:#694B4B;" d="M132.414,260.673c-82.191,0-73.078,99.95-72.703,172.382c0.014,2.735,1.447,5.202,3.79,6.614
	c9.108,5.491,34.121,18.327,68.913,18.327s59.805-12.836,68.913-18.327c2.343-1.412,3.776-3.879,3.79-6.614
	C205.492,360.625,214.605,260.673,132.414,260.673z"/>
<path style="fill:#5A4146;" d="M127.118,260.879c-76.441,4.286-67.774,101.356-67.407,172.175c0.014,2.735,1.447,5.202,3.79,6.614
	c9.108,5.491,34.121,18.327,68.913,18.327L153.185,312.6"/>
<path style="fill:#694B4B;" d="M132.414,260.673c-46.734,0-49.98,56.47-49.98,56.47c26.937-4.544,43.489,6.815,70.751-4.544
	l-20.771,145.397c34.793,0,59.805-12.836,68.913-18.327c2.343-1.412,3.776-3.879,3.79-6.614
	C205.492,360.625,214.605,260.673,132.414,260.673z"/>
<path style="fill:#785550;" d="M205.117,433.055c0.322-62.239,7.041-144.738-43.209-166.74c-0.876,4.553-2.464,17.263,1.662,25.514
	c10.386,20.771,20.771,20.771,31.156,36.349c10.386,57.12-19.843,117.746-29.884,125.999l0,0
	c17.789-4.231,30.54-10.925,36.484-14.508C203.669,438.257,205.102,435.79,205.117,433.055z"/>
<path style="fill:#E6AF78;" d="M211.103,448.809l-46.335-19.306c-3.87-1.612-6.391-5.394-6.391-9.587v-12.548h-51.926v12.548
	c0,4.193-2.521,7.974-6.391,9.587l-46.335,19.306c-5.805,2.419-9.587,8.09-9.587,14.38v13.501c0,4.875,3.953,8.828,8.828,8.828
	h158.897c4.875,0,8.828-3.953,8.828-8.828v-13.501C220.69,456.899,216.908,451.228,211.103,448.809z"/>
<path style="fill:#707487;" d="M211.103,448.809l-44.8-18.667l-33.889,14.626l-33.889-14.626l-44.8,18.667
	c-5.805,2.419-9.587,8.09-9.587,14.38v13.501c0,4.875,3.953,8.828,8.828,8.828h158.897c4.875,0,8.828-3.953,8.828-8.828v-13.501
	C220.69,456.899,216.908,451.228,211.103,448.809z"/>
<path style="fill:#D29B6E;" d="M158.377,407.367h-51.926v12.548c0,4.193-2.521,7.975-6.391,9.587l-7.236,3.016
	C148.202,446.638,158.377,407.367,158.377,407.367z"/>
<g>
	<path style="fill:#5B5D6E;" d="M69.448,468.897l-20.843-16.579c-2.793,2.856-4.467,6.718-4.467,10.871v13.501
		c0,4.875,3.953,8.828,8.828,8.828h22.328v-4.5C75.294,476.298,73.142,471.834,69.448,468.897z"/>
	<path style="fill:#5B5D6E;" d="M220.69,476.69v-13.501c0-4.121-1.646-7.957-4.399-10.806l-20.91,16.514
		c-3.695,2.956-5.846,7.432-5.846,12.164v4.456h22.328C216.737,485.517,220.69,481.565,220.69,476.69z"/>
	<path style="fill:#5B5D6E;" d="M133.193,476.69h-1.558c-2.438,0-4.414-1.976-4.414-4.414V444.78h10.386v27.496
		C137.607,474.713,135.63,476.69,133.193,476.69z"/>
	<path style="fill:#5B5D6E;" d="M132.414,444.768l-29.72-22.29c-1.908-1.431-4.626-0.966-5.949,1.018l-5.873,8.809l18.221,25.51
		c1.385,1.939,4.115,2.318,5.975,0.83L132.414,444.768z"/>
	<path style="fill:#5B5D6E;" d="M132.414,444.768l29.72-22.29c1.908-1.431,4.626-0.966,5.949,1.018l5.873,8.809l-18.221,25.51
		c-1.385,1.939-4.115,2.318-5.975,0.83L132.414,444.768z"/>
</g>
<path style="fill:#F0C087;" d="M158.377,307.407C132.414,333.37,81.46,312.6,81.46,354.142l3.224,30.6
	c0.622,6.845,4.59,12.939,10.598,16.277l29.566,16.425c4.705,2.614,10.425,2.614,15.13,0l29.566-16.425
	c6.008-3.338,9.976-9.432,10.598-16.277l3.722-36.342c0.265-2.583,0.321-5.182,0.234-7.774
	C182.156,327.407,163.57,317.793,158.377,307.407z"/>
<path style="fill:#E6AF78;" d="M81.461,354.142l3.224,30.6c0.622,6.845,4.59,12.939,10.598,16.277l29.566,16.425
	c3.265,1.814,7.009,2.283,10.573,1.58l0,0c0,0-14.906-4.518-23.778-28.533c-2.718-7.357-6.49-46.302-3.245-51.062
	c6.414-9.408,42.19-10.386,52.761-27.839c-0.522-0.648-1.005-1.297-1.444-1.947c-0.035-0.052-0.078-0.105-0.114-0.158
	c-0.459-0.691-0.875-1.383-1.224-2.078C132.414,333.372,81.461,312.6,81.461,354.142z"/>
<g>
	<path style="fill:#C3E678;" d="M406.069,273.655H264.828c-4.875,0-8.828-3.953-8.828-8.828l0,0c0-4.875,3.953-8.828,8.828-8.828
		h141.241c4.875,0,8.828,3.953,8.828,8.828l0,0C414.897,269.703,410.944,273.655,406.069,273.655z"/>
	<path style="fill:#C3E678;" d="M450.207,308.966H264.828c-4.875,0-8.828-3.953-8.828-8.828l0,0c0-4.875,3.953-8.828,8.828-8.828
		h185.379c4.875,0,8.828,3.953,8.828,8.828l0,0C459.034,305.013,455.082,308.966,450.207,308.966z"/>
</g>
<path style="fill:#959CB3;" d="M282.483,388.414h-17.655c-4.875,0-8.828-3.953-8.828-8.828l0,0c0-4.875,3.953-8.828,8.828-8.828
	h17.655c4.875,0,8.828,3.953,8.828,8.828l0,0C291.31,384.461,287.358,388.414,282.483,388.414z"/>
<path style="fill:#C7CFE2;" d="M423.724,388.414H317.793c-4.875,0-8.828-3.953-8.828-8.828l0,0c0-4.875,3.953-8.828,8.828-8.828
	h105.931c4.875,0,8.828,3.953,8.828,8.828l0,0C432.552,384.461,428.599,388.414,423.724,388.414z"/>
<path style="fill:#959CB3;" d="M282.483,423.724h-17.655c-4.875,0-8.828-3.953-8.828-8.828l0,0c0-4.875,3.953-8.828,8.828-8.828
	h17.655c4.875,0,8.828,3.953,8.828,8.828l0,0C291.31,419.772,287.358,423.724,282.483,423.724z"/>
<path style="fill:#C7CFE2;" d="M450.207,423.724H317.793c-4.875,0-8.828-3.953-8.828-8.828l0,0c0-4.875,3.953-8.828,8.828-8.828
	h132.414c4.875,0,8.828,3.953,8.828,8.828l0,0C459.034,419.772,455.082,423.724,450.207,423.724z"/>
<path style="fill:#959CB3;" d="M282.483,459.034h-17.655c-4.875,0-8.828-3.953-8.828-8.828l0,0c0-4.875,3.953-8.828,8.828-8.828
	h17.655c4.875,0,8.828,3.953,8.828,8.828l0,0C291.31,455.082,287.358,459.034,282.483,459.034z"/>
<g>
	<path style="fill:#C7CFE2;" d="M388.414,459.034h-70.621c-4.875,0-8.828-3.953-8.828-8.828l0,0c0-4.875,3.953-8.828,8.828-8.828
		h70.621c4.875,0,8.828,3.953,8.828,8.828l0,0C397.241,455.082,393.289,459.034,388.414,459.034z"/>
	<path style="fill:#C7CFE2;" d="M282.483,220.69h-52.966c-4.875,0-8.828-3.953-8.828-8.828v-97.103c0-4.875,3.953-8.828,8.828-8.828
		h52.966c4.875,0,8.828,3.953,8.828,8.828v97.103C291.31,216.737,287.358,220.69,282.483,220.69z"/>
</g>
<path style="fill:#959CB3;" d="M273.655,203.034h-35.31c-4.875,0-8.828-3.953-8.828-8.828l0,0c0-4.875,3.953-8.828,8.828-8.828
	h35.31c4.875,0,8.828,3.953,8.828,8.828l0,0C282.483,199.082,278.53,203.034,273.655,203.034z"/>
<g>
</g>
<g>
</g>
<g>
</g>
<g>
</g>
<g>
</g>
<g>
</g>
<g>
</g>
<g>
</g>
<g>
</g>
<g>
</g>
<g>
</g>
<g>
</g>
<g>
</g>
<g>
</g>
<g>
</g>
</svg>
