<?xml version="1.0" encoding="iso-8859-1"?>
<!-- Generator: Adobe Illustrator 19.0.0, SVG Export Plug-In . SVG Version: 6.00 Build 0)  -->
<svg version="1.1" id="Layer_1" xmlns="http://www.w3.org/2000/svg" xmlns:xlink="http://www.w3.org/1999/xlink" x="0px" y="0px"
	 viewBox="0 0 512.001 512.001" style="enable-background:new 0 0 512.001 512.001;" xml:space="preserve">
<path style="fill:#FFF5C8;" d="M432.552,176.552c0-100.681-84.275-181.679-186.131-176.298
	C152.64,5.208,77.922,85.617,79.473,179.516c1.042,63.081,35.214,118.026,85.845,148.383c18.211,10.919,28.889,31.05,28.889,52.284
	v43.542h123.586v-43.549c0-21.843,11.725-41.744,30.349-53.155C398.756,296.007,432.552,240.267,432.552,176.552z"/>
<circle style="fill:#FFFAE1;" cx="256.001" cy="176.553" r="150.069"/>
<polygon style="fill:#AFB9D2;" points="300.138,450.207 211.861,450.207 194.206,423.725 317.793,423.725 "/>
<polygon style="fill:#959CB3;" points="194.206,423.725 211.861,450.207 256,450.207 247.172,423.725 "/>
<path style="fill:#C7CFE2;" d="M300.138,459.035h-88.276c-4.875,0-8.828-3.953-8.828-8.828l0,0c0-4.875,3.953-8.828,8.828-8.828
	h88.276c4.875,0,8.828,3.953,8.828,8.828l0,0C308.965,455.084,305.013,459.035,300.138,459.035z"/>
<path style="fill:#AFB9D2;" d="M300.138,476.69h-88.276c-4.875,0-8.828-3.953-8.828-8.828l0,0c0-4.875,3.953-8.828,8.828-8.828
	h88.276c4.875,0,8.828,3.953,8.828,8.828l0,0C308.965,472.739,305.013,476.69,300.138,476.69z"/>
<path style="fill:#C7CFE2;" d="M300.138,494.346h-88.276c-4.875,0-8.828-3.953-8.828-8.828l0,0c0-4.875,3.953-8.828,8.828-8.828
	h88.276c4.875,0,8.828,3.953,8.828,8.828l0,0C308.965,490.394,305.013,494.346,300.138,494.346z"/>
<path style="fill:#707487;" d="M211.861,494.346l12.484,12.484c3.311,3.311,7.801,5.171,12.484,5.171h38.339
	c4.682,0,9.173-1.86,12.484-5.171l12.484-12.484H211.861z"/>
<g>
	<path style="fill:#AFB9D2;" d="M247.172,450.207c0-4.875,3.953-8.828,8.828-8.828h-44.138c-4.875,0-8.828,3.953-8.828,8.828
		c0,4.875,3.953,8.828,8.828,8.828H256C251.124,459.035,247.172,455.083,247.172,450.207z"/>
	<path style="fill:#AFB9D2;" d="M247.172,485.518c0-4.875,3.953-8.828,8.828-8.828h-44.138c-4.875,0-8.828,3.953-8.828,8.828
		c0,4.875,3.953,8.828,8.828,8.828H256C251.124,494.346,247.172,490.393,247.172,485.518z"/>
</g>
<path style="fill:#959CB3;" d="M247.172,467.863c0-4.875,3.953-8.828,8.828-8.828h-44.138c-4.875,0-8.828,3.953-8.828,8.828
	c0,4.875,3.953,8.828,8.828,8.828H256C251.124,476.69,247.172,472.738,247.172,467.863z"/>
<path style="fill:#FAEBAA;" d="M280.075,423.725l-5.69-62.593c-0.414-4.547-4.226-8.028-8.791-8.028h-19.188
	c-4.566,0-8.377,3.481-8.791,8.028l-5.69,62.593H280.075z"/>
<path style="fill:#FFFFFF;" d="M254.558,52.966c-13.359,0-24.618,9.167-27.815,21.542c-34.385,8.573-55.141,32.916-55.141,66.036
	c0,25.603,12.632,45.717,35.403,57.521h-0.598c-12.345,0-23.761,6.718-29.792,17.532c-6.033,10.816-5.772,23.524,0.696,33.997
	c10.067,16.301,27.699,27.452,50.444,32.157c4.159,10.747,14.605,18.389,26.802,18.389c12.33,0,22.869-7.808,26.934-18.74
	c37.168-8.239,58.907-32.919,58.907-67.968c0-19.171-6.561-42.696-34.052-57.04c9.173-2.233,17.162-8.226,21.858-16.727
	c5.993-10.848,5.663-23.537-0.881-33.94c-9.564-15.204-25.222-25.961-44.923-31.105C279.243,62.188,267.957,52.966,254.558,52.966
	L254.558,52.966z"/>
<path style="fill:#FFD782;" d="M322.743,213.431c0-26.143-15.421-42.166-46.262-48.913l-10.856-2.131v-44.935
	c8.287,1.736,14.827,6.647,18.091,13.194c2.761,5.539,8.394,9.054,14.584,9.054c12.611,0,20.792-13.901,14.078-24.577
	c-8.765-13.935-25.193-23.28-46.752-25.674v-7.761c0-6.112-4.956-11.068-11.068-11.068s-11.068,4.956-11.068,11.068v7.758
	c-34.217,3.725-54.232,22.452-54.232,51.097c0,25.058,15.541,41.804,44.575,48.551l9.657,2.278v47.222
	c-9.779-1.818-17.218-6.83-20.891-13.87c-2.852-5.471-8.394-9.004-14.564-9.004h-1.628c-12.619,0-20.705,13.859-14.075,24.596
	c9.033,14.626,26.86,23.842,51.157,25.881v5.218c0,6.112,4.956,11.068,11.068,11.068c6.112,0,11.068-4.956,11.068-11.068v-5.332
	C302.158,262.322,322.743,243.467,322.743,213.431z M224.076,137.533c0-10.515,7.943-18.471,19.415-20.257v40.457
	C230.811,154.276,224.076,147.357,224.076,137.533z M265.625,239.026v-43.463c15.687,3.53,23.024,10.517,23.024,21.724
	C288.65,229.493,280.157,237.5,265.625,239.026z"/>
<g>
</g>
<g>
</g>
<g>
</g>
<g>
</g>
<g>
</g>
<g>
</g>
<g>
</g>
<g>
</g>
<g>
</g>
<g>
</g>
<g>
</g>
<g>
</g>
<g>
</g>
<g>
</g>
<g>
</g>
</svg>
