<?xml version="1.0" encoding="iso-8859-1"?>
<!-- Generator: Adobe Illustrator 19.0.0, SVG Export Plug-In . SVG Version: 6.00 Build 0)  -->
<svg version="1.1" id="Layer_1" xmlns="http://www.w3.org/2000/svg" xmlns:xlink="http://www.w3.org/1999/xlink" x="0px" y="0px"
	 viewBox="0 0 512 512" style="enable-background:new 0 0 512 512;" xml:space="preserve">
<path style="fill:#B9785F;" d="M353.103,238.345H22.069C9.88,238.345,0,228.465,0,216.276l0,0c0-12.189,9.88-22.069,22.069-22.069
	h331.034V238.345z"/>
<path style="fill:#AA6955;" d="M388.414,251.586h-26.483c-4.875,0-8.828-3.953-8.828-8.828v-52.966c0-4.875,3.953-8.828,8.828-8.828
	h26.483V251.586z"/>
<rect x="379.586" y="136.828" style="fill:#9B5A50;" width="88.276" height="158.897"/>
<rect x="414.897" y="136.828" style="fill:#AA6455;" width="52.966" height="158.897"/>
<path style="fill:#B9785F;" d="M476.69,136.828H370.759c-4.875,0-8.828-3.953-8.828-8.828v-8.828c0-4.875,3.953-8.828,8.828-8.828
	H476.69c4.875,0,8.828,3.953,8.828,8.828V128C485.517,132.875,481.565,136.828,476.69,136.828z"/>
<path style="fill:#AA6455;" d="M406.069,128v-8.828c0-4.875,3.953-8.828,8.828-8.828h-44.138c-4.875,0-8.828,3.953-8.828,8.828V128
	c0,4.875,3.953,8.828,8.828,8.828h44.138C410.02,136.828,406.069,132.875,406.069,128z"/>
<path style="fill:#B9785F;" d="M476.69,322.207H370.759c-4.875,0-8.828-3.953-8.828-8.828v-8.828c0-4.875,3.953-8.828,8.828-8.828
	H476.69c4.875,0,8.828,3.953,8.828,8.828v8.828C485.517,318.254,481.565,322.207,476.69,322.207z"/>
<g>
	<path style="fill:#AA6455;" d="M406.069,313.379v-8.828c0-4.875,3.953-8.828,8.828-8.828h-44.138c-4.875,0-8.828,3.953-8.828,8.828
		v8.828c0,4.875,3.953,8.828,8.828,8.828h44.138C410.02,322.207,406.069,318.254,406.069,313.379z"/>
	<path style="fill:#AA6455;" d="M503.172,375.172H344.276v-17.655c0-4.875,3.953-8.828,8.828-8.828h141.241
		c4.875,0,8.828,3.953,8.828,8.828V375.172z"/>
</g>
<path style="fill:#B9785F;" d="M503.172,375.172H344.276c-4.875,0-8.828,3.953-8.828,8.828v8.828c0,4.875,3.953,8.828,8.828,8.828
	h158.897c4.875,0,8.828-3.953,8.828-8.828V384C512,379.125,508.047,375.172,503.172,375.172z"/>
<path style="fill:#AA6455;" d="M397.241,392.828V384c0-4.875,3.953-8.828,8.828-8.828h-61.793c-4.875,0-8.828,3.953-8.828,8.828
	v8.828c0,4.875,3.953,8.828,8.828,8.828h61.793C401.193,401.655,397.241,397.703,397.241,392.828z"/>
<path style="fill:#9B5A50;" d="M414.897,348.69h-61.793c-4.875,0-8.828,3.953-8.828,8.828v17.655h61.793v-17.655
	C406.069,352.642,410.02,348.69,414.897,348.69z"/>
<g>
</g>
<g>
</g>
<g>
</g>
<g>
</g>
<g>
</g>
<g>
</g>
<g>
</g>
<g>
</g>
<g>
</g>
<g>
</g>
<g>
</g>
<g>
</g>
<g>
</g>
<g>
</g>
<g>
</g>
</svg>
