<?xml version="1.0" encoding="iso-8859-1"?>
<!-- Generator: Adobe Illustrator 19.0.0, SVG Export Plug-In . SVG Version: 6.00 Build 0)  -->
<svg version="1.1" id="Layer_1" xmlns="http://www.w3.org/2000/svg" xmlns:xlink="http://www.w3.org/1999/xlink" x="0px" y="0px"
	 viewBox="0 0 512 512" style="enable-background:new 0 0 512 512;" xml:space="preserve">
<g>
	<rect x="88.276" y="326.621" style="fill:#D7DEED;" width="17.655" height="44.138"/>
	<rect x="167.724" y="291.31" style="fill:#D7DEED;" width="17.655" height="79.448"/>
	<rect x="326.621" y="256" style="fill:#D7DEED;" width="17.655" height="114.759"/>
	<rect x="406.069" y="167.724" style="fill:#D7DEED;" width="17.655" height="203.034"/>
	<rect x="247.172" y="211.862" style="fill:#D7DEED;" width="17.655" height="158.897"/>
</g>
<path style="fill:#8F96AC;" d="M97.108,335.451c-3.382,0-6.61-1.954-8.072-5.245c-1.98-4.455,0.026-9.672,4.482-11.652l77.73-34.547
	l78.19-86.878c2.932-3.26,7.81-3.873,11.458-1.44l72.788,48.525l74.379-90.908c3.087-3.775,8.648-4.331,12.423-1.242
	c3.773,3.087,4.329,8.649,1.242,12.422l-79.448,97.103c-2.876,3.516-7.949,4.277-11.729,1.756l-73.097-48.73l-74.342,82.601
	c-0.829,0.921-1.843,1.658-2.976,2.162l-79.448,35.31C99.523,335.206,98.306,335.451,97.108,335.451z"/>
<path style="fill:#959CB3;" d="M494.345,432.552H17.655C7.904,432.552,0,424.648,0,414.897v-8.828c0-4.875,3.953-8.828,8.828-8.828
	h494.345c4.875,0,8.828,3.953,8.828,8.828v8.828C512,424.648,504.096,432.552,494.345,432.552z"/>
<path style="fill:#707487;" d="M285.855,414.897h-59.709c-3.343,0-6.4-1.889-7.895-4.879l-6.389-12.776h88.276l-6.388,12.776
	C292.255,413.007,289.198,414.897,285.855,414.897z"/>
<path style="fill:#AFB9D2;" d="M467.862,79.448H44.138c-14.626,0-26.483,11.857-26.483,26.483v291.31h476.69v-291.31
	C494.345,91.305,482.488,79.448,467.862,79.448z M467.862,361.931c0,4.875-3.953,8.828-8.828,8.828H52.966
	c-4.875,0-8.828-3.953-8.828-8.828V114.759c0-4.875,3.953-8.828,8.828-8.828h406.069c4.875,0,8.828,3.953,8.828,8.828V361.931z"/>
<circle style="fill:#FFD782;" cx="256" cy="203.034" r="17.655"/>
<circle style="fill:#FF6464;" cx="176.552" cy="291.31" r="17.655"/>
<circle style="fill:#9BE6D2;" cx="414.897" cy="158.897" r="17.655"/>
<circle style="fill:#C3E678;" cx="335.448" cy="256" r="17.655"/>
<circle style="fill:#00D2FF;" cx="97.103" cy="326.621" r="17.655"/>
<g>
</g>
<g>
</g>
<g>
</g>
<g>
</g>
<g>
</g>
<g>
</g>
<g>
</g>
<g>
</g>
<g>
</g>
<g>
</g>
<g>
</g>
<g>
</g>
<g>
</g>
<g>
</g>
<g>
</g>
</svg>
