<?xml version="1.0" encoding="iso-8859-1"?>
<!-- Generator: Adobe Illustrator 19.0.0, SVG Export Plug-In . SVG Version: 6.00 Build 0)  -->
<svg version="1.1" id="Layer_1" xmlns="http://www.w3.org/2000/svg" xmlns:xlink="http://www.w3.org/1999/xlink" x="0px" y="0px"
	 viewBox="0 0 512 512" style="enable-background:new 0 0 512 512;" xml:space="preserve">
<g>
	<path style="fill:#8F96AC;" d="M17.66,397.246c-3.457,0-6.741-2.047-8.151-5.436c-1.875-4.5,0.25-9.668,4.75-11.543l102.508-42.716
		l51.586-128.97c1.103-2.754,3.518-4.771,6.422-5.366c2.926-0.582,5.918,0.31,8.018,2.406l72.931,72.927l66.595-72.651
		c3.293-3.586,8.879-3.837,12.474-0.543c3.595,3.297,3.837,8.879,0.543,12.474l-72.828,79.448c-1.63,1.775-3.91,2.806-6.319,2.862
		c-2.229,0.039-4.733-0.884-6.431-2.586l-69.983-69.983l-47.991,119.987c-0.884,2.202-2.612,3.957-4.802,4.866L21.052,396.561
		C19.939,397.026,18.788,397.246,17.66,397.246z"/>
	<path style="fill:#8F96AC;" d="M388.418,178.763c-3.401,0-6.643-1.978-8.09-5.293c-1.956-4.466,0.082-9.673,4.547-11.625
		L490.806,115.5c4.466-1.956,9.673,0.082,11.625,4.547c1.956,4.466-0.082,9.673-4.547,11.625l-105.931,46.345
		C390.802,178.521,389.599,178.763,388.418,178.763z"/>
</g>
<circle style="fill:#9BE6D2;" cx="494.345" cy="123.586" r="17.655"/>
<circle style="fill:#FFD782;" cx="256" cy="291.31" r="17.655"/>
<circle style="fill:#FFA05A;" cx="176.552" cy="211.862" r="17.655"/>
<circle style="fill:#FF6464;" cx="123.586" cy="344.276" r="17.655"/>
<circle style="fill:#00D2FF;" cx="17.655" cy="388.414" r="17.655"/>
<g>
	<circle style="fill:#D7DEED;" cx="353.103" cy="8.828" r="8.828"/>
	<circle style="fill:#D7DEED;" cx="353.103" cy="44.138" r="8.828"/>
	<circle style="fill:#D7DEED;" cx="353.103" cy="79.448" r="8.828"/>
	<circle style="fill:#D7DEED;" cx="353.103" cy="114.759" r="8.828"/>
</g>
<circle style="fill:#C3E678;" cx="353.103" cy="185.379" r="17.655"/>
<g>
	<circle style="fill:#D7DEED;" cx="353.103" cy="256" r="8.828"/>
	<circle style="fill:#D7DEED;" cx="353.103" cy="291.31" r="8.828"/>
	<circle style="fill:#D7DEED;" cx="353.103" cy="326.621" r="8.828"/>
	<circle style="fill:#D7DEED;" cx="353.103" cy="361.931" r="8.828"/>
	<circle style="fill:#D7DEED;" cx="353.103" cy="397.241" r="8.828"/>
	<circle style="fill:#D7DEED;" cx="353.103" cy="432.552" r="8.828"/>
	<circle style="fill:#D7DEED;" cx="353.103" cy="467.862" r="8.828"/>
	<circle style="fill:#D7DEED;" cx="353.103" cy="503.172" r="8.828"/>
	<path style="fill:#D7DEED;" d="M353.103,229.517c-24.337,0-44.138-19.801-44.138-44.138s19.801-44.138,44.138-44.138
		s44.138,19.801,44.138,44.138S377.44,229.517,353.103,229.517z M353.103,158.897c-14.603,0-26.483,11.88-26.483,26.483
		s11.88,26.483,26.483,26.483c14.603,0,26.483-11.88,26.483-26.483S367.706,158.897,353.103,158.897z"/>
</g>
<g>
</g>
<g>
</g>
<g>
</g>
<g>
</g>
<g>
</g>
<g>
</g>
<g>
</g>
<g>
</g>
<g>
</g>
<g>
</g>
<g>
</g>
<g>
</g>
<g>
</g>
<g>
</g>
<g>
</g>
</svg>
