<?xml version="1.0" encoding="iso-8859-1"?>
<!-- Generator: Adobe Illustrator 19.0.0, SVG Export Plug-In . SVG Version: 6.00 Build 0)  -->
<svg version="1.1" id="Layer_1" xmlns="http://www.w3.org/2000/svg" xmlns:xlink="http://www.w3.org/1999/xlink" x="0px" y="0px"
	 viewBox="0 0 512 512" style="enable-background:new 0 0 512 512;" xml:space="preserve">
<path style="fill:#707487;" d="M485.517,512H344.276c-9.751,0-17.655-7.904-17.655-17.655v-35.31h176.552v35.31
	C503.172,504.095,495.267,512,485.517,512z"/>
<polygon style="fill:#959CB3;" points="503.172,459.034 326.621,459.034 344.276,211.862 485.517,211.862 "/>
<polygon style="fill:#82889D;" points="487.409,238.345 485.517,211.862 344.276,211.862 326.621,459.034 397.241,459.034 
	405.415,238.345 "/>
<path style="fill:#5B5D6E;" d="M397.241,494.345v-35.31h-70.621v35.31c0,9.75,7.905,17.655,17.655,17.655h70.621
	C405.145,512,397.241,504.095,397.241,494.345z"/>
<path style="fill:#707487;" d="M167.724,512H26.483c-9.751,0-17.655-7.904-17.655-17.655v-35.31h176.552v35.31
	C185.379,504.095,177.475,512,167.724,512z"/>
<polygon style="fill:#959CB3;" points="185.379,459.034 8.828,459.034 26.483,211.862 167.724,211.862 "/>
<polygon style="fill:#82889D;" points="169.615,238.345 167.724,211.862 26.483,211.862 8.828,459.034 79.448,459.034 
	87.622,238.345 "/>
<path style="fill:#5B5D6E;" d="M79.448,494.345v-35.31H8.828v35.31c0,9.75,7.905,17.655,17.655,17.655h70.621
	C87.353,512,79.448,504.095,79.448,494.345z"/>
<rect x="335.448" y="17.655" style="fill:#959CB3;" width="79.448" height="52.966"/>
<rect x="335.448" y="17.655" style="fill:#82889D;" width="26.483" height="52.966"/>
<path style="fill:#707487;" d="M414.897,26.483h-79.448c-4.875,0-8.828-3.953-8.828-8.828V8.828c0-4.875,3.953-8.828,8.828-8.828
	h79.448c4.875,0,8.828,3.953,8.828,8.828v8.828C423.724,22.53,419.772,26.483,414.897,26.483z"/>
<path style="fill:#5B5D6E;" d="M353.103,17.655V8.828c0-4.875,3.953-8.828,8.828-8.828h-26.483c-4.875,0-8.828,3.953-8.828,8.828
	v8.828c0,4.875,3.953,8.828,8.828,8.828h26.483C357.055,26.483,353.103,22.53,353.103,17.655z"/>
<rect x="97.103" y="17.655" style="fill:#959CB3;" width="79.448" height="52.966"/>
<rect x="97.103" y="17.655" style="fill:#82889D;" width="26.483" height="52.966"/>
<path style="fill:#A2AAC2;" d="M484.509,220.69H27.491c-10.135,0-18.19-8.514-17.628-18.635l6.402-115.249
	c0.779-14.033,12.386-25.013,26.442-25.013h161.843c4.682,0,9.172,1.859,12.483,5.17l7.317,7.316c3.31,3.31,7.801,5.17,12.483,5.17
	h38.335c4.682,0,9.173-1.859,12.483-5.171l7.315-7.315c3.311-3.31,7.801-5.171,12.483-5.171h161.842
	c14.056,0,25.663,10.98,26.442,25.014l6.402,115.249C502.699,212.175,494.645,220.69,484.509,220.69z"/>
<path style="fill:#959CB3;" d="M300.138,185.379h-88.276c-4.875,0-8.828-3.953-8.828-8.828v-70.621c0-4.875,3.953-8.828,8.828-8.828
	h88.276c4.875,0,8.828,3.953,8.828,8.828v70.621C308.966,181.427,305.013,185.379,300.138,185.379z"/>
<path style="fill:#464655;" d="M264.828,229.517h-17.655c-4.875,0-8.828-3.953-8.828-8.828V61.793c0-4.875,3.953-8.828,8.828-8.828
	h17.655c4.875,0,8.828,3.953,8.828,8.828V220.69C273.655,225.565,269.703,229.517,264.828,229.517z"/>
<g>
	<path style="fill:#707487;" d="M273.655,185.379h-35.31c-4.875,0-8.828-3.953-8.828-8.828v-70.621c0-4.875,3.953-8.828,8.828-8.828
		h35.31c4.875,0,8.828,3.953,8.828,8.828v70.621C282.483,181.427,278.53,185.379,273.655,185.379z"/>
	<path style="fill:#707487;" d="M176.552,26.483H97.103c-4.875,0-8.828-3.953-8.828-8.828V8.828C88.276,3.953,92.228,0,97.103,0
		h79.448c4.875,0,8.828,3.953,8.828,8.828v8.828C185.379,22.53,181.427,26.483,176.552,26.483z"/>
</g>
<path style="fill:#5B5D6E;" d="M114.759,17.655V8.828c0-4.875,3.953-8.828,8.828-8.828H97.103c-4.875,0-8.828,3.953-8.828,8.828
	v8.828c0,4.875,3.953,8.828,8.828,8.828h26.483C118.711,26.483,114.759,22.53,114.759,17.655z"/>
<path style="fill:#707487;" d="M273.655,61.793h-35.31c-4.875,0-8.828-3.953-8.828-8.828l0,0c0-4.875,3.953-8.828,8.828-8.828h35.31
	c4.875,0,8.828,3.953,8.828,8.828l0,0C282.483,57.841,278.53,61.793,273.655,61.793z"/>
<g>
	<path style="fill:#5B5D6E;" d="M247.172,176.552v-70.621c0-4.875,3.953-8.828,8.828-8.828h-17.655
		c-4.875,0-8.828,3.953-8.828,8.828v70.621c0,4.875,3.953,8.828,8.828,8.828H256C251.124,185.379,247.172,181.427,247.172,176.552z"
		/>
	<path style="fill:#5B5D6E;" d="M247.172,52.966c0-4.875,3.953-8.828,8.828-8.828h-17.655c-4.875,0-8.828,3.953-8.828,8.828
		s3.953,8.828,8.828,8.828H256C251.124,61.793,247.172,57.841,247.172,52.966z"/>
</g>
<path style="fill:#707487;" d="M273.655,229.517h-35.31c-4.875,0-8.828-3.953-8.828-8.828l0,0c0-4.875,3.953-8.828,8.828-8.828
	h35.31c4.875,0,8.828,3.953,8.828,8.828l0,0C282.483,225.565,278.53,229.517,273.655,229.517z"/>
<path style="fill:#5B5D6E;" d="M247.172,220.69c0-4.875,3.953-8.828,8.828-8.828h-17.655c-4.875,0-8.828,3.953-8.828,8.828
	s3.953,8.828,8.828,8.828H256C251.124,229.517,247.172,225.565,247.172,220.69z"/>
<path style="fill:#959CB3;" d="M81.491,202.055l6.403-115.249c0.779-14.033,12.386-25.013,26.442-25.013H42.708
	c-14.055,0-25.662,10.98-26.442,25.013L9.863,202.055c-0.562,10.12,7.492,18.635,17.629,18.635h71.628
	C88.983,220.69,80.929,212.174,81.491,202.055z"/>
<g>
</g>
<g>
</g>
<g>
</g>
<g>
</g>
<g>
</g>
<g>
</g>
<g>
</g>
<g>
</g>
<g>
</g>
<g>
</g>
<g>
</g>
<g>
</g>
<g>
</g>
<g>
</g>
<g>
</g>
</svg>
