<?xml version="1.0" encoding="iso-8859-1"?>
<!-- Generator: Adobe Illustrator 19.0.0, SVG Export Plug-In . SVG Version: 6.00 Build 0)  -->
<svg version="1.1" id="Layer_1" xmlns="http://www.w3.org/2000/svg" xmlns:xlink="http://www.w3.org/1999/xlink" x="0px" y="0px"
	 viewBox="0 0 512 512" style="enable-background:new 0 0 512 512;" xml:space="preserve">
<path style="fill:#9B5A50;" d="M335.453,61.835c-0.759,0-1.53-0.099-2.302-0.306c-20.392-5.495-47.793-8.524-77.151-8.524
	s-56.758,3.028-77.151,8.524c-4.707,1.271-9.551-1.519-10.819-6.227c-1.271-4.707,1.517-9.551,6.225-10.822
	c21.849-5.888,50.879-9.131,81.746-9.131s59.896,3.243,81.746,9.131c4.707,1.269,7.496,6.114,6.225,10.822
	C342.91,59.241,339.345,61.835,335.453,61.835z"/>
<g>
	<path style="fill:#FFC36E;" d="M176.552,44.178L176.552,44.178c-4.875,0-8.828,3.953-8.828,8.828v44.138h17.655V53.005
		C185.379,48.13,181.427,44.178,176.552,44.178z"/>
	<path style="fill:#FFC36E;" d="M335.448,44.178L335.448,44.178c-4.875,0-8.828,3.953-8.828,8.828v44.138h17.655V53.005
		C344.276,48.13,340.323,44.178,335.448,44.178z"/>
</g>
<path style="fill:#915046;" d="M459.034,476.65H52.966c-19.501,0-35.31-15.809-35.31-35.31V273.695h476.69V441.34
	C494.345,460.841,478.536,476.65,459.034,476.65z"/>
<g>
	<path style="fill:#9B5A50;" d="M247.172,256.04H35.31v185.3c0,9.751,7.904,17.655,17.655,17.655h185.379
		c4.875,0,8.828-3.953,8.828-8.828V256.04z"/>
	<path style="fill:#9B5A50;" d="M264.828,256.04v194.127c0,4.875,3.953,8.828,8.828,8.828h185.379
		c9.751,0,17.655-7.904,17.655-17.655v-185.3H264.828z"/>
</g>
<path style="fill:#AA6455;" d="M459.034,300.178H52.966C23.713,300.178,0,276.465,0,247.212V105.891
	c0-9.751,7.904-17.655,17.655-17.655h476.69c9.751,0,17.655,7.904,17.655,17.655v141.321
	C512,276.465,488.287,300.178,459.034,300.178z"/>
<path style="fill:#874641;" d="M459.034,317.833c12.87,0,24.908-3.517,35.31-9.556v-21.666c-9.376,8.408-21.726,13.566-35.31,13.566
	H52.966c-13.586,0-25.935-5.159-35.31-13.567v21.666c10.402,6.039,22.441,9.556,35.31,9.556h406.069V317.833z"/>
<path style="fill:#9B5A50;" d="M273.655,229.557h-35.31c-4.875,0-8.828,3.953-8.828,8.828v61.793c0,4.875,3.953,8.828,8.828,8.828
	h35.31c4.875,0,8.828-3.953,8.828-8.828v-61.793C282.483,233.51,278.53,229.557,273.655,229.557z"/>
<path style="fill:#FFC36E;" d="M282.483,335.488h-52.966c-4.875,0-8.828-3.953-8.828-8.828v-44.138c0-4.875,3.953-8.828,8.828-8.828
	h52.966c4.875,0,8.828,3.953,8.828,8.828v44.138C291.31,331.535,287.358,335.488,282.483,335.488z"/>
<path style="fill:#FFD782;" d="M273.655,335.488h-35.31v-35.31c0-4.875,3.953-8.828,8.828-8.828h17.655
	c4.875,0,8.828,3.953,8.828,8.828V335.488z"/>
<circle style="fill:#9B5A50;" cx="256" cy="185.423" r="17.655"/>
<g>
</g>
<g>
</g>
<g>
</g>
<g>
</g>
<g>
</g>
<g>
</g>
<g>
</g>
<g>
</g>
<g>
</g>
<g>
</g>
<g>
</g>
<g>
</g>
<g>
</g>
<g>
</g>
<g>
</g>
</svg>
