<?xml version="1.0" encoding="iso-8859-1"?>
<!-- Generator: Adobe Illustrator 19.0.0, SVG Export Plug-In . SVG Version: 6.00 Build 0)  -->
<svg version="1.1" id="Layer_1" xmlns="http://www.w3.org/2000/svg" xmlns:xlink="http://www.w3.org/1999/xlink" x="0px" y="0px"
	 viewBox="0 0 512 512" style="enable-background:new 0 0 512 512;" xml:space="preserve">
<path style="fill:#D2555A;" d="M381.861,123.586l47.692-111.282C432.049,6.479,427.777,0,421.439,0H302.413h-52.966
	c-9.75,0-17.655,7.904-17.655,17.655c0,9.75,7.905,17.655,17.655,17.655v211.862h171.991c6.338,0,10.611-6.481,8.115-12.305
	L381.861,123.586z"/>
<path style="fill:#FF6464;" d="M267.103,317.793H99.379V70.621h167.724V52.966h17.655v247.172
	C284.758,309.888,276.853,317.793,267.103,317.793z"/>
<path style="fill:#BE4B50;" d="M231.792,17.655L231.792,17.655c0,9.751,7.904,17.655,17.655,17.655h17.655
	c9.751,0,17.655,7.904,17.655,17.655l0,0c0,9.751-7.904,17.655-17.655,17.655h-35.31L231.792,17.655L231.792,17.655z"/>
<rect x="99.376" y="70.621" style="fill:#D2555A;" width="26.483" height="247.172"/>
<path style="fill:#F0DCBE;" d="M99.379,35.31h-8.828c-4.875,0-8.828,3.953-8.828,8.828v459.034c0,4.875,3.953,8.828,8.828,8.828
	h8.828c4.875,0,8.828-3.953,8.828-8.828V44.138C108.206,39.263,104.254,35.31,99.379,35.31z"/>
<path style="fill:#E1C3A0;" d="M99.379,35.31h-8.828c-4.875,0-8.828,3.953-8.828,8.828v8.828h26.483v-8.828
	C108.206,39.263,104.254,35.31,99.379,35.31z"/>
<g>
</g>
<g>
</g>
<g>
</g>
<g>
</g>
<g>
</g>
<g>
</g>
<g>
</g>
<g>
</g>
<g>
</g>
<g>
</g>
<g>
</g>
<g>
</g>
<g>
</g>
<g>
</g>
<g>
</g>
</svg>
