<?xml version="1.0" encoding="iso-8859-1"?>
<!-- Generator: Adobe Illustrator 19.0.0, SVG Export Plug-In . SVG Version: 6.00 Build 0)  -->
<svg version="1.1" id="Layer_1" xmlns="http://www.w3.org/2000/svg" xmlns:xlink="http://www.w3.org/1999/xlink" x="0px" y="0px"
	 viewBox="0 0 512 512" style="enable-background:new 0 0 512 512;" xml:space="preserve">
<path style="fill:#C3E678;" d="M256,512C114.844,512,0,397.156,0,256S114.844,0,256,0s256,114.844,256,256S397.156,512,256,512z"/>
<path style="fill:#A5D76E;" d="M375.467,426.667c-141.156,0-256-114.844-256-256c0-59.087,20.318-113.41,54.071-156.783
	C72.768,48.311,0,143.72,0,256c0,141.156,114.844,256,256,256c82.069,0,155.049-38.974,201.929-99.217
	C432.012,421.638,404.342,426.667,375.467,426.667z"/>
<path style="fill:#FFFFFF;" d="M203.034,388.414c-4.518,0-9.038-1.725-12.483-5.173L84.62,277.31
	c-6.897-6.892-6.897-18.073,0-24.966c6.888-6.897,18.078-6.897,24.966,0l93.449,93.444l181.724-181.72
	c6.888-6.897,18.078-6.897,24.966,0c6.897,6.892,6.897,18.073,0,24.966L215.517,383.241
	C212.073,386.689,207.552,388.414,203.034,388.414z"/>
<g>
</g>
<g>
</g>
<g>
</g>
<g>
</g>
<g>
</g>
<g>
</g>
<g>
</g>
<g>
</g>
<g>
</g>
<g>
</g>
<g>
</g>
<g>
</g>
<g>
</g>
<g>
</g>
<g>
</g>
</svg>
