<?xml version="1.0" encoding="iso-8859-1"?>
<!-- Generator: Adobe Illustrator 19.0.0, SVG Export Plug-In . SVG Version: 6.00 Build 0)  -->
<svg version="1.1" id="Layer_1" xmlns="http://www.w3.org/2000/svg" xmlns:xlink="http://www.w3.org/1999/xlink" x="0px" y="0px"
	 viewBox="0 0 512.001 512.001" style="enable-background:new 0 0 512.001 512.001;" xml:space="preserve">
<path style="fill:#00D2FF;" d="M273.656,476.69c-131.422,0-238.345-106.924-238.345-238.345S142.234,0,273.656,0
	s238.345,106.923,238.345,238.345S405.077,476.69,273.656,476.69z"/>
<path style="fill:#18BDF6;" d="M384.884,397.242c-131.422,0-238.345-106.923-238.345-238.345
	c0-55.012,18.916-105.589,50.342-145.971C103.061,44.98,35.311,133.809,35.311,238.345c0,131.422,106.923,238.345,238.345,238.345
	c76.408,0,144.356-36.286,188.003-92.374C437.529,392.56,411.768,397.242,384.884,397.242z"/>
<path style="fill:#EFF2FA;" d="M402.046,105.931h69.677c-4.086-6.092-8.459-11.977-13.076-17.655h-63.521
	C381.087,55.3,362.538,28.292,341.063,9.77C319.674,3.45,297.066,0,273.656,0s-46.019,3.45-67.409,9.77
	c-21.473,18.521-40.022,45.53-54.061,78.506H88.665c-4.616,5.678-8.989,11.563-13.076,17.655h69.677
	c-12.911,36.296-20.646,78.487-21.547,123.586H35.535c-0.108,2.935-0.224,5.866-0.224,8.828s0.116,5.892,0.224,8.828h88.183
	c0.902,45.099,8.636,87.29,21.547,123.586H75.589c4.087,6.092,8.459,11.977,13.076,17.655h63.522
	c14.039,32.978,32.589,59.985,54.062,78.506c21.388,6.321,43.997,9.77,67.406,9.77s46.018-3.449,67.407-9.77
	c21.474-18.521,40.023-45.529,54.062-78.506h63.521c4.617-5.678,8.989-11.563,13.076-17.655h-69.677
	c12.911-36.296,20.646-78.487,21.547-123.586h88.183c0.108-2.935,0.224-5.866,0.224-8.828s-0.116-5.892-0.224-8.828h-88.183
	C422.691,184.419,414.958,142.227,402.046,105.931z M264.828,476.102c-37.847-4.511-71.391-37.73-93.948-87.688h93.948V476.102z
	 M264.828,370.759H163.617c-13.268-35.608-21.322-77.984-22.251-123.586h123.463V370.759z M264.828,229.518H141.367
	c0.928-45.602,8.983-87.978,22.251-123.586h101.21V229.518z M264.828,88.276h-93.948c22.557-49.956,56.1-83.177,93.948-87.688
	V88.276z M282.484,0.589c37.847,4.511,71.391,37.731,93.949,87.688h-93.949V0.589z M282.484,476.102v-87.688h93.949
	C353.874,438.371,320.331,471.591,282.484,476.102z M383.695,370.759H282.484V247.173h123.462
	C405.017,292.775,396.962,335.151,383.695,370.759z M282.484,229.518V105.931h101.212c13.267,35.608,21.322,77.984,22.25,123.586
	H282.484z"/>
<g>
	<path style="fill:#E4EAF6;" d="M294.23,475.702c3.945-0.343,7.869-0.759,11.756-1.293c1.517-0.207,3.026-0.438,4.532-0.674
		c4-0.63,7.967-1.358,11.898-2.185c1.224-0.256,2.456-0.493,3.673-0.769c4.662-1.056,9.274-2.243,13.832-3.565
		c0.385-0.113,0.78-0.202,1.164-0.316c19.564-16.882,36.657-40.865,50.164-69.932c-2.132,0.06-4.222,0.275-6.368,0.275
		c-4.19,0-8.352-0.115-12.49-0.33c-22.429,45.198-54.254,74.94-89.909,79.19v-87.689h38.3c-19.809-5.54-38.577-13.569-55.955-23.747
		v6.092H163.616c-13.268-35.608-21.322-77.984-22.251-123.586h22.19c-2.317-5.786-4.47-11.656-6.335-17.655h-15.855
		c0.417-20.487,2.344-40.269,5.463-59.133c-0.182-3.809-0.291-7.635-0.291-11.488c0-42.474,11.371-82.241,30.974-116.776
		c-9.501,13.554-18.032,29.028-25.324,46.155H88.951c-1.567,1.92-3.101,3.868-4.609,5.836c-1.886,2.465-3.751,4.945-5.542,7.484
		c-1.004,1.421-1.944,2.891-2.918,4.335h69.383c-12.911,36.296-20.646,78.487-21.547,123.586H35.668
		c-0.108,2.946-0.356,5.856-0.356,8.828c0,2.962,0.116,5.892,0.224,8.828h88.183c0.902,45.099,8.636,87.29,21.547,123.586H75.589
		l0.001,0.002c4.086,6.092,8.459,11.975,13.075,17.653l0,0h63.522c14.039,32.978,32.589,59.985,54.062,78.506
		c5.247,1.55,10.572,2.919,15.959,4.115c0.159,0.034,0.314,0.075,0.473,0.11c5.385,1.184,10.836,2.187,16.349,3
		c0.23,0.034,0.462,0.056,0.693,0.088c4.81,0.696,9.678,1.203,14.575,1.603c1.207,0.097,2.413,0.196,3.625,0.276
		c5.204,0.346,10.441,0.577,15.732,0.577c5.426,0,10.798-0.228,16.134-0.591C291.278,475.998,292.749,475.832,294.23,475.702z
		 M264.828,476.102c-37.847-4.511-71.391-37.73-93.948-87.688h93.948V476.102z"/>
	<path style="fill:#E4EAF6;" d="M461.659,384.315c-4.497,1.537-9.107,2.817-13.715,4.099h10.34
		C459.402,387.042,460.571,385.714,461.659,384.315z"/>
</g>
<circle style="fill:#8CE6FF;" cx="207.758" cy="304.243" r="85.23"/>
<rect x="114.206" y="363.656" transform="matrix(0.7071 0.7071 -0.7071 0.7071 310.7305 26.1138)" style="fill:#D7DEED;" width="19.274" height="48.971"/>
<path style="fill:#C7CFE2;" d="M122.162,376.209c4.146,4.925,8.704,9.484,13.629,13.629l12.19-12.19l-13.629-13.629L122.162,376.209
	z"/>
<path style="fill:#D7DEED;" d="M207.754,203.035c-55.898,0-101.213,45.314-101.213,101.213S151.855,405.46,207.754,405.46
	s101.213-45.314,101.213-101.213S263.652,203.035,207.754,203.035z M207.754,389.479c-47.072,0-85.231-38.159-85.231-85.231
	s38.159-85.231,85.231-85.231s85.231,38.159,85.231,85.231S254.826,389.479,207.754,389.479z"/>
<path style="fill:#707487;" d="M14.423,508.881L3.121,497.582c-4.161-4.16-4.162-10.906-0.001-15.068l89.912-89.912
	c4.16-4.16,10.905-4.161,15.066-0.001l11.302,11.299c4.161,4.16,4.162,10.906,0.001,15.068L29.489,508.88
	C25.329,513.04,18.584,513.041,14.423,508.881z"/>
<path style="fill:#5B5D6E;" d="M13.775,493.167l89.912-89.912c4.16-4.16,10.905-4.161,15.066-0.001l0.659,0.659
	c0,0-0.007-0.009-0.011-0.013L108.1,392.6c-4.161-4.16-10.906-4.159-15.066,0.001L3.121,482.514
	c-4.161,4.161-4.161,10.908,0.001,15.068l10.645,10.643C9.615,504.063,9.617,497.325,13.775,493.167z"/>
<path style="fill:#C7CFE2;" d="M112.838,425.531l6.564-6.564c4.161-4.161,4.16-10.908-0.001-15.068L108.1,392.6
	c-4.161-4.16-10.906-4.159-15.066,0.001l-6.563,6.563L112.838,425.531z"/>
<g style="opacity:0.97;">
	<path style="fill:#AFB9D2;" d="M97.124,409.818l6.563-6.563c4.16-4.16,10.905-4.161,15.066-0.001l0.658,0.658
		c-0.004-0.004-0.007-0.009-0.01-0.012L108.1,392.6c-4.161-4.16-10.906-4.159-15.066,0.001l-6.563,6.563L97.124,409.818z"/>
</g>
<circle style="fill:#C8F0FF;" cx="207.758" cy="304.243" r="67.575"/>
<path style="fill:#A0E6FF;" d="M207.754,219.015c-47.072,0-85.231,38.159-85.231,85.233c0,47.071,38.159,85.23,85.231,85.23
	s85.231-38.159,85.231-85.23C292.985,257.174,254.826,219.015,207.754,219.015z M207.754,371.824
	c-37.322,0-67.576-30.254-67.576-67.575c0-37.322,30.254-67.577,67.576-67.577s67.576,30.255,67.576,67.577
	C275.33,341.57,245.076,371.824,207.754,371.824z"/>
<g>
	<circle style="fill:#FFFFFF;" cx="230.886" cy="281.115" r="19.025"/>
	<circle style="fill:#FFFFFF;" cx="245.805" cy="319.162" r="10.197"/>
</g>
<g>
</g>
<g>
</g>
<g>
</g>
<g>
</g>
<g>
</g>
<g>
</g>
<g>
</g>
<g>
</g>
<g>
</g>
<g>
</g>
<g>
</g>
<g>
</g>
<g>
</g>
<g>
</g>
<g>
</g>
</svg>
