<?xml version="1.0" encoding="iso-8859-1"?>
<!-- Generator: Adobe Illustrator 19.0.0, SVG Export Plug-In . SVG Version: 6.00 Build 0)  -->
<svg version="1.1" id="Layer_1" xmlns="http://www.w3.org/2000/svg" xmlns:xlink="http://www.w3.org/1999/xlink" x="0px" y="0px"
	 viewBox="0 0 511.998 511.998" style="enable-background:new 0 0 511.998 511.998;" xml:space="preserve">
<rect x="238.34" y="450.2" style="fill:#959CB3;" width="35.31" height="52.965"/>
<path style="fill:#C7CFE2;" d="M255.997,0.003L255.997,0.003c-4.929,0-8.976,3.897-9.162,8.823l-16.973,449.871
	c-0.189,5.002,3.816,9.161,8.821,9.161h34.628c5.006,0,9.01-4.158,8.821-9.161L265.159,8.826
	C264.974,3.9,260.926,0.003,255.997,0.003z"/>
<path style="fill:#AFB9D2;" d="M246.835,8.826l-16.973,449.871c-0.189,5.002,3.816,9.161,8.821,9.161h17.313V0.003
	C251.067,0.005,247.021,3.901,246.835,8.826z"/>
<path style="fill:#707487;" d="M88.265,97.105c-4.086,0-7.754-2.849-8.629-7.009c-1.004-4.771,2.047-9.452,6.819-10.457
	l335.443-70.62c4.771-1.009,9.452,2.047,10.457,6.819c1.005,4.772-2.047,9.452-6.819,10.457L90.093,96.915
	C89.481,97.045,88.868,97.105,88.265,97.105z"/>
<path style="fill:#C7CFE2;" d="M353.097,511.995H158.901c-4.875,0-8.827-3.952-8.827-8.827v-8.827c0-4.875,3.952-8.827,8.827-8.827
	h194.196c4.875,0,8.827,3.953,8.827,8.827v8.827C361.925,508.044,357.972,511.995,353.097,511.995z"/>
<path style="fill:#AFB9D2;" d="M220.685,503.168v-8.827c0-4.875,3.952-8.827,8.827-8.827h-70.62c-4.875,0-8.827,3.953-8.827,8.827
	v8.827c0,4.875,3.952,8.827,8.827,8.827h70.62C224.637,511.995,220.685,508.043,220.685,503.168z"/>
<circle style="fill:#959CB3;" cx="255.995" cy="52.964" r="26.482"/>
<circle style="fill:#AFB9D2;" cx="255.995" cy="52.964" r="8.827"/>
<path style="fill:#959CB3;" d="M167.72,379.588c-3.858,0-7.396-2.548-8.495-6.444L88.277,120.881L17.331,373.144
	c-1.327,4.69-6.198,7.418-10.888,6.112c-4.694-1.323-7.431-6.198-6.112-10.888L79.778,85.89c1.074-3.81,4.543-6.44,8.5-6.44
	c3.957,0,7.426,2.629,8.5,6.44l79.447,282.479c1.319,4.69-1.418,9.565-6.112,10.888C169.315,379.481,168.509,379.588,167.72,379.588
	z"/>
<path style="fill:#AFB9D2;" d="M167.724,379.583H8.83c-4.875,0-8.827-3.952-8.827-8.827l0,0c0-4.875,3.952-8.827,8.827-8.827
	h158.894c4.875,0,8.827,3.953,8.827,8.827l0,0C176.551,375.632,172.6,379.583,167.724,379.583z"/>
<path style="fill:#959CB3;" d="M61.795,370.756c0-4.875,3.952-8.827,8.827-8.827H8.83c-4.875,0-8.827,3.953-8.827,8.827
	c0,4.875,3.952,8.827,8.827,8.827h61.792C65.747,379.583,61.795,375.631,61.795,370.756z"/>
<path style="fill:#C7CFE2;" d="M139.158,414.893H37.397c-6.687,0-12.801-3.778-15.791-9.76L8.83,379.583h158.894l-12.776,25.55
	C151.958,411.115,145.845,414.893,139.158,414.893z"/>
<path style="fill:#AFB9D2;" d="M83.398,405.135l-12.776-25.55H8.83l12.776,25.55c2.99,5.981,9.103,9.76,15.791,9.76h61.792
	C92.501,414.893,86.388,411.115,83.398,405.135z"/>
<path style="fill:#959CB3;" d="M503.163,308.968c-3.858,0-7.396-2.548-8.495-6.444L423.72,50.261l-70.947,252.263
	c-1.327,4.69-6.198,7.418-10.888,6.112c-4.694-1.323-7.431-6.198-6.112-10.888L415.22,15.27c1.074-3.81,4.543-6.44,8.5-6.44
	s7.426,2.629,8.5,6.44l79.447,282.479c1.319,4.69-1.418,9.565-6.112,10.888C504.758,308.861,503.952,308.968,503.163,308.968z"/>
<path style="fill:#AFB9D2;" d="M503.167,308.964H344.273c-4.875,0-8.827-3.952-8.827-8.827l0,0c0-4.875,3.952-8.827,8.827-8.827
	h158.894c4.875,0,8.827,3.953,8.827,8.827l0,0C511.995,305.012,508.043,308.964,503.167,308.964z"/>
<path style="fill:#959CB3;" d="M397.238,300.136c0-4.875,3.952-8.827,8.827-8.827h-61.792c-4.875,0-8.827,3.953-8.827,8.827
	c0,4.875,3.952,8.827,8.827,8.827h61.792C401.19,308.964,397.238,305.011,397.238,300.136z"/>
<path style="fill:#C7CFE2;" d="M474.602,344.274H372.84c-6.687,0-12.801-3.778-15.791-9.76l-12.776-25.55h158.894l-12.776,25.55
	C487.401,340.496,481.288,344.274,474.602,344.274z"/>
<path style="fill:#AFB9D2;" d="M418.841,334.515l-12.776-25.55h-61.792l12.776,25.55c2.99,5.981,9.103,9.76,15.791,9.76h61.792
	C427.944,344.274,421.831,340.496,418.841,334.515z"/>
<g>
</g>
<g>
</g>
<g>
</g>
<g>
</g>
<g>
</g>
<g>
</g>
<g>
</g>
<g>
</g>
<g>
</g>
<g>
</g>
<g>
</g>
<g>
</g>
<g>
</g>
<g>
</g>
<g>
</g>
</svg>
