<?xml version="1.0" encoding="iso-8859-1"?>
<!-- Generator: Adobe Illustrator 19.0.0, SVG Export Plug-In . SVG Version: 6.00 Build 0)  -->
<svg version="1.1" id="Layer_1" xmlns="http://www.w3.org/2000/svg" xmlns:xlink="http://www.w3.org/1999/xlink" x="0px" y="0px"
	 viewBox="0 0 512 512" style="enable-background:new 0 0 512 512;" xml:space="preserve">
<path style="fill:#694B4B;" d="M256,123.586c-105.571,0-93.865,128.381-93.383,221.415c0.018,3.513,1.858,6.681,4.867,8.495
	c11.699,7.052,43.826,23.54,88.515,23.54s76.817-16.488,88.515-23.54c3.009-1.814,4.85-4.982,4.867-8.495
	C349.865,251.967,361.571,123.586,256,123.586z"/>
<path style="fill:#5A4146;" d="M249.198,123.85c-98.185,5.504-87.052,130.186-86.581,221.15c0.019,3.513,1.858,6.681,4.868,8.495
	c11.699,7.052,43.826,23.54,88.515,23.54l26.679-186.752"/>
<path style="fill:#694B4B;" d="M256,123.586c-60.028,0-64.196,72.533-64.196,72.533c34.6-5.836,55.859,8.754,90.876-5.836
	L256,377.036c44.689,0,76.817-16.488,88.515-23.54c3.009-1.814,4.85-4.982,4.868-8.495C349.865,251.968,361.571,123.586,256,123.586
	z"/>
<path style="fill:#785550;" d="M349.383,345.001c0.414-79.943,9.044-185.908-55.499-214.168c-1.125,5.848-3.165,22.175,2.134,32.771
	c13.34,26.679,26.679,26.679,40.019,46.688c13.34,73.367-25.489,151.239-38.383,161.838l0,0
	c22.848-5.434,39.227-14.033,46.861-18.635C347.524,351.682,349.364,348.514,349.383,345.001z"/>
<path style="fill:#E6AF78;" d="M357.073,365.236l-59.514-24.798c-4.971-2.071-8.209-6.929-8.209-12.313v-16.118h-66.697v16.118
	c0,5.385-3.238,10.242-8.209,12.313l-59.514,24.798c-7.456,3.106-12.313,10.392-12.313,18.47v40.019
	c0,7.367,5.972,13.34,13.34,13.34h200.092c7.367,0,13.34-5.972,13.34-13.34v-40.019
	C369.385,375.628,364.529,368.342,357.073,365.236z"/>
<path style="fill:#B4E1FA;" d="M357.073,365.236L299.53,341.26L256,360.045l-43.529-18.786l-57.543,23.976
	c-7.456,3.106-12.313,10.392-12.313,18.47v40.02c0,7.367,5.972,13.34,13.34,13.34h200.092c7.367,0,13.34-5.972,13.34-13.34v-40.019
	C369.385,375.628,364.529,368.342,357.073,365.236z"/>
<path style="fill:#D29B6E;" d="M289.348,312.006h-66.697v16.118c0,5.385-3.238,10.242-8.209,12.313l-9.295,3.873
	C276.279,362.449,289.348,312.006,289.348,312.006z"/>
<g>
	<path style="fill:#A0D2F0;" d="M175.124,391.038l-26.772-21.294c-3.587,3.668-5.737,8.628-5.737,13.963v40.018
		c0,7.367,5.972,13.34,13.34,13.34h26.679v-30.402C182.633,400.584,179.87,394.835,175.124,391.038z"/>
	<path style="fill:#A0D2F0;" d="M369.385,423.724v-40.019c0-5.293-2.114-10.22-5.651-13.88l-26.858,21.212
		c-4.747,3.797-7.51,9.546-7.51,15.625v30.402h26.679C363.413,437.064,369.385,431.091,369.385,423.724z"/>
	<path style="fill:#A0D2F0;" d="M256,410.385L256,410.385c-3.683,0-6.669-2.986-6.669-6.669v-43.654h13.34v43.654
		C262.669,407.399,259.683,410.385,256,410.385z"/>
	<path style="fill:#A0D2F0;" d="M256,360.046l-38.174-28.63c-2.451-1.838-5.942-1.24-7.641,1.309l-7.543,11.315l23.404,32.766
		c1.779,2.49,5.284,2.977,7.676,1.065L256,360.046z"/>
	<path style="fill:#A0D2F0;" d="M256,360.046l38.174-28.63c2.451-1.838,5.942-1.24,7.641,1.309l7.543,11.315l-23.404,32.766
		c-1.779,2.49-5.284,2.977-7.676,1.065L256,360.046z"/>
</g>
<path style="fill:#F0C087;" d="M289.348,183.614c-33.348,33.348-98.795,6.669-98.795,60.028l4.141,39.305
	c0.799,8.792,5.896,16.619,13.612,20.906l37.975,21.097c6.044,3.358,13.391,3.358,19.434,0l37.975-21.097
	c7.716-4.287,12.813-12.115,13.612-20.906l4.781-46.68c0.34-3.318,0.413-6.656,0.3-9.985
	C319.891,209.302,296.019,196.953,289.348,183.614z"/>
<path style="fill:#E6AF78;" d="M190.553,243.641l4.141,39.305c0.799,8.792,5.896,16.619,13.612,20.906l37.975,21.097
	c4.193,2.329,9.002,2.933,13.58,2.029l0,0c0,0-19.147-5.802-30.541-36.649c-3.49-9.45-8.338-59.471-4.169-65.586
	c8.239-12.085,54.191-13.34,67.769-35.758c-0.671-0.832-1.29-1.665-1.856-2.5c-0.046-0.067-0.102-0.135-0.146-0.202
	c-0.589-0.887-1.124-1.775-1.571-2.669C256,216.962,190.553,190.283,190.553,243.641z"/>
<path style="fill:#A0D2F0;" d="M307.2,410.385h-22.364c-4.875,0-8.828,3.953-8.828,8.828v17.852h40.019v-17.852
	C316.028,414.337,312.075,410.385,307.2,410.385z"/>
<path style="fill:#C7CFE2;" d="M509.323,219.339c-0.626-4.314-4.413-7.477-8.772-7.477h-19.318
	c-5.959-30.578-17.953-58.996-34.746-83.928l13.632-13.632c3.085-3.085,3.521-8.014,0.907-11.508
	c-14.708-19.652-32.168-37.112-51.821-51.821c-3.492-2.614-8.422-2.177-11.507,0.908l-13.633,13.633
	c-24.93-16.794-53.348-28.788-83.926-34.746V11.449c0-4.36-3.162-8.147-7.477-8.772C280.686,0.94,268.456,0,256,0
	s-24.686,0.94-36.661,2.677c-4.314,0.626-7.477,4.413-7.477,8.772v19.318c-30.578,5.959-58.996,17.952-83.927,34.746l-13.632-13.633
	c-3.085-3.085-8.014-3.522-11.508-0.908c-19.652,14.709-37.112,32.169-51.821,51.821c-2.614,3.494-2.177,8.423,0.908,11.508
	l13.633,13.633c-16.796,24.931-28.789,53.35-34.748,83.927H11.449c-4.36,0-8.147,3.162-8.772,7.477C0.941,231.314,0,243.544,0,256
	s0.941,24.686,2.677,36.66c0.626,4.314,4.413,7.478,8.772,7.478h19.318c5.959,30.578,17.952,58.996,34.746,83.927l-13.633,13.633
	c-3.085,3.085-3.522,8.014-0.908,11.508c14.709,19.652,32.168,37.112,51.821,51.82c3.494,2.614,8.422,2.177,11.508-0.908
	l13.632-13.632c24.931,16.794,53.35,28.788,83.927,34.746v19.318c0,4.36,3.162,8.147,7.477,8.772
	C231.314,511.059,243.544,512,256,512s24.686-0.941,36.661-2.677c4.315-0.626,7.477-4.413,7.477-8.772v-19.318
	c30.578-5.959,58.996-17.952,83.927-34.746l13.633,13.632c3.085,3.085,8.014,3.522,11.507,0.908
	c19.654-14.709,37.113-32.168,51.821-51.82c2.615-3.493,2.179-8.423-0.907-11.508l-13.632-13.632
	c16.794-24.931,28.788-53.349,34.746-83.927h19.318c4.36,0,8.147-3.164,8.772-7.478C511.059,280.686,512,268.456,512,256
	S511.059,231.314,509.323,219.339z M256,432.552c-97.507,0-176.552-79.046-176.552-176.552c0-97.507,79.044-176.552,176.552-176.552
	S432.552,158.493,432.552,256C432.552,353.506,353.507,432.552,256,432.552z"/>
<path style="fill:#AFB9D2;" d="M256,52.966C143.866,52.966,52.966,143.866,52.966,256c0,112.132,90.901,203.034,203.034,203.034
	S459.034,368.132,459.034,256C459.034,143.866,368.134,52.966,256,52.966z M256,432.552c-97.507,0-176.552-79.046-176.552-176.552
	c0-97.507,79.044-176.552,176.552-176.552S432.552,158.493,432.552,256C432.552,353.506,353.507,432.552,256,432.552z"/>
<g>
</g>
<g>
</g>
<g>
</g>
<g>
</g>
<g>
</g>
<g>
</g>
<g>
</g>
<g>
</g>
<g>
</g>
<g>
</g>
<g>
</g>
<g>
</g>
<g>
</g>
<g>
</g>
<g>
</g>
</svg>
