<?xml version="1.0" encoding="iso-8859-1"?>
<!-- Generator: Adobe Illustrator 19.0.0, SVG Export Plug-In . SVG Version: 6.00 Build 0)  -->
<svg version="1.1" id="Layer_1" xmlns="http://www.w3.org/2000/svg" xmlns:xlink="http://www.w3.org/1999/xlink" x="0px" y="0px"
	 viewBox="0 0 512 512" style="enable-background:new 0 0 512 512;" xml:space="preserve">
<path style="fill:#D7DEED;" d="M503.172,150.069H8.828c-4.875,0-8.828-3.953-8.828-8.828v-17.655c0-4.875,3.953-8.828,8.828-8.828
	h494.345c4.875,0,8.828,3.953,8.828,8.828v17.655C512,146.116,508.047,150.069,503.172,150.069z"/>
<path style="fill:#C7CFE2;" d="M79.448,132.414c0,6.2,1.121,12.125,3.079,17.655h99.774c1.958-5.53,3.079-11.455,3.079-17.655
	c0-6.2-1.121-12.125-3.079-17.655H82.527C80.569,120.289,79.448,126.214,79.448,132.414z"/>
<path style="fill:#C3E678;" d="M105.931,150.069H8.828c-4.875,0-8.828-3.953-8.828-8.828v-17.655c0-4.875,3.953-8.828,8.828-8.828
	h97.103V150.069z"/>
<path style="fill:#A5D76E;" d="M82.527,114.759c-1.958,5.53-3.079,11.455-3.079,17.655c0,6.2,1.121,12.125,3.079,17.655h32.232
	v-35.31H82.527z"/>
<circle style="fill:#EFF2FA;" cx="132.414" cy="132.414" r="35.31"/>
<circle style="fill:#C7CFE2;" cx="132.414" cy="132.414" r="17.655"/>
<path style="fill:#D7DEED;" d="M503.172,273.655H8.828c-4.875,0-8.828-3.953-8.828-8.828v-17.655c0-4.875,3.953-8.828,8.828-8.828
	h494.345c4.875,0,8.828,3.953,8.828,8.828v17.655C512,269.703,508.047,273.655,503.172,273.655z"/>
<path style="fill:#C7CFE2;" d="M361.931,256c0,6.2,1.121,12.125,3.079,17.655h99.774c1.957-5.53,3.079-11.455,3.079-17.655
	s-1.121-12.125-3.079-17.655H365.01C363.052,243.875,361.931,249.8,361.931,256z"/>
<path style="fill:#FFD782;" d="M388.414,273.655H8.828c-4.875,0-8.828-3.953-8.828-8.828v-17.655c0-4.875,3.953-8.828,8.828-8.828
	h379.586V273.655z"/>
<path style="fill:#FFC36E;" d="M365.01,238.345c-1.958,5.53-3.079,11.455-3.079,17.655s1.121,12.125,3.079,17.655h32.232v-35.31
	H365.01z"/>
<circle style="fill:#EFF2FA;" cx="414.897" cy="256" r="35.31"/>
<circle style="fill:#C7CFE2;" cx="414.897" cy="256" r="17.655"/>
<path style="fill:#D7DEED;" d="M503.172,397.241H8.828c-4.875,0-8.828-3.953-8.828-8.828v-17.655c0-4.875,3.953-8.828,8.828-8.828
	h494.345c4.875,0,8.828,3.953,8.828,8.828v17.655C512,393.289,508.047,397.241,503.172,397.241z"/>
<path style="fill:#C7CFE2;" d="M203.034,379.586c0,6.2,1.121,12.125,3.079,17.655h99.774c1.958-5.53,3.079-11.455,3.079-17.655
	s-1.121-12.125-3.079-17.655h-99.774C204.156,367.462,203.034,373.386,203.034,379.586z"/>
<path style="fill:#FF6464;" d="M229.517,397.241H8.828c-4.875,0-8.828-3.953-8.828-8.828v-17.655c0-4.875,3.953-8.828,8.828-8.828
	h220.69V397.241z"/>
<path style="fill:#D2555A;" d="M206.113,361.931c-1.958,5.53-3.079,11.455-3.079,17.655s1.121,12.125,3.079,17.655h32.232v-35.31
	H206.113z"/>
<circle style="fill:#EFF2FA;" cx="256" cy="379.586" r="35.31"/>
<circle style="fill:#C7CFE2;" cx="256" cy="379.586" r="17.655"/>
<g>
</g>
<g>
</g>
<g>
</g>
<g>
</g>
<g>
</g>
<g>
</g>
<g>
</g>
<g>
</g>
<g>
</g>
<g>
</g>
<g>
</g>
<g>
</g>
<g>
</g>
<g>
</g>
<g>
</g>
</svg>
