<?xml version="1.0" encoding="iso-8859-1"?>
<!-- Generator: Adobe Illustrator 19.0.0, SVG Export Plug-In . SVG Version: 6.00 Build 0)  -->
<svg version="1.1" id="Layer_1" xmlns="http://www.w3.org/2000/svg" xmlns:xlink="http://www.w3.org/1999/xlink" x="0px" y="0px"
	 viewBox="0 0 512.001 512.001" style="enable-background:new 0 0 512.001 512.001;" xml:space="preserve">
<path style="fill:#E4EAF6;" d="M256,503.173c-111.953,0-203.034-91.082-203.034-203.034S144.047,97.104,256,97.104
	s203.034,91.082,203.034,203.034S367.953,503.173,256,503.173z M256,114.759c-102.22,0-185.379,83.161-185.379,185.379
	S153.78,485.518,256,485.518s185.379-83.161,185.379-185.379S358.22,114.759,256,114.759z"/>
<polygon style="fill:#D29B6E;" points="277.601,97.889 277.601,78.856 234.399,78.856 234.399,97.889 256,119.641 "/>
<path style="fill:#707487;" d="M310.464,101.319l-29.409-6.596c-0.444-0.099-0.853-0.268-1.235-0.473L256,107.494l-22.891-13.885
	c-0.593,0.532-1.329,0.927-2.164,1.114l-29.409,6.596c-4.295,0.962-7.329,4.616-7.329,8.82v17.742c0,2.503,2.129,4.531,4.754,4.531
	h114.08c2.625,0,4.754-2.028,4.754-4.531V110.14C317.793,105.936,314.759,102.283,310.464,101.319z"/>
<g>
	<path style="fill:#5B5D6E;" d="M300.345,117.712l15.401-13.187c1.291,1.558,2.047,3.518,2.047,5.615v17.742
		c0,2.503-2.129,4.531-4.754,4.531h-16.637v-6.276C296.403,122.924,297.836,119.86,300.345,117.712z"/>
	<path style="fill:#5B5D6E;" d="M211.655,117.712l-15.401-13.187c-1.291,1.558-2.047,3.518-2.047,5.615v17.742
		c0,2.503,2.129,4.531,4.754,4.531h16.637v-6.276C215.597,122.924,214.164,119.86,211.655,117.712z"/>
	<polygon style="fill:#5B5D6E;" points="261.942,132.414 250.058,132.414 251.543,107.418 260.456,107.418 	"/>
	<path style="fill:#5B5D6E;" d="M234.276,88.858L256,107.494c0,0-6.083,2.927-13.591,8.828c-1.549,1.217-3.892,0.724-4.722-1.017
		l-10.206-21.402l3.229-4.617C231.512,88.136,233.199,87.934,234.276,88.858z"/>
	<path style="fill:#5B5D6E;" d="M277.724,88.858L256,107.494c0,0,6.083,2.927,13.591,8.828c1.549,1.217,3.892,0.724,4.722-1.017
		l10.206-21.402l-3.229-4.617C280.488,88.136,278.801,87.934,277.724,88.858z"/>
</g>
<path style="fill:#694B4B;" d="M264.828,0.001h-17.655c-14.626,0-26.483,11.857-26.483,26.483v19.17
	c0,4.682,1.86,9.173,5.171,12.484l3.657,3.656h52.966l3.657-3.657c3.311-3.311,5.171-7.801,5.171-12.484V26.483
	C291.31,11.857,279.454,0.001,264.828,0.001z"/>
<path style="fill:#F0C087;" d="M228.577,45.477l1.131,25.446c0.177,3.969,2.08,7.65,5.19,10.034l8.963,6.872
	c2.251,1.726,4.99,2.659,7.804,2.659h8.671c2.814,0,5.553-0.934,7.804-2.659l8.963-6.872c3.109-2.385,5.013-6.065,5.19-10.034
	l1.131-25.446c0.413-9.284-6.838-17.043-15.928-17.043h-22.987C235.416,28.434,228.164,36.193,228.577,45.477z"/>
<polygon style="fill:#D29B6E;" points="83.394,300.923 83.394,281.891 40.192,281.891 40.192,300.923 61.793,322.675 "/>
<path style="fill:#EFF2FA;" d="M116.257,304.354l-29.409-6.596c-0.444-0.099-0.853-0.268-1.235-0.473l-23.82,13.245l-22.891-13.885
	c-0.593,0.532-1.329,0.927-2.164,1.115l-29.409,6.595C3.034,305.317,0,308.969,0,313.175v17.742c0,2.504,2.129,4.532,4.754,4.532
	h114.08c2.625,0,4.754-2.028,4.754-4.531v-17.742C123.586,308.969,120.552,305.317,116.257,304.354z"/>
<g>
	<path style="fill:#E4EAF6;" d="M106.138,320.746l15.401-13.187c1.291,1.558,2.047,3.518,2.047,5.615v17.742
		c0,2.503-2.129,4.531-4.754,4.531h-16.637v-6.276C102.196,325.958,103.629,322.895,106.138,320.746z"/>
	<path style="fill:#E4EAF6;" d="M17.448,320.746L2.047,307.559C0.757,309.117,0,311.077,0,313.175v17.742
		c0,2.504,2.129,4.532,4.754,4.532H21.39v-6.276C21.39,325.958,19.957,322.895,17.448,320.746z"/>
</g>
<polygon style="fill:#5B5D6E;" points="67.735,335.449 55.851,335.449 57.337,310.452 66.249,310.452 "/>
<g>
	<path style="fill:#E4EAF6;" d="M40.07,291.892l21.724,18.636c0,0-6.083,2.927-13.591,8.828c-1.549,1.217-3.892,0.724-4.722-1.017
		l-10.206-21.402l3.229-4.617C37.305,291.171,38.993,290.969,40.07,291.892z"/>
	<path style="fill:#E4EAF6;" d="M83.517,291.892l-21.724,18.636c0,0,6.083,2.927,13.591,8.828c1.549,1.217,3.892,0.724,4.722-1.017
		l10.206-21.402l-3.229-4.617C86.281,291.171,84.594,290.969,83.517,291.892z"/>
</g>
<path style="fill:#694B4B;" d="M70.621,203.035H52.966c-14.626,0-26.483,11.857-26.483,26.483v19.17
	c0,4.682,1.86,9.173,5.171,12.484l3.657,3.656h52.966l3.657-3.657c3.311-3.311,5.171-7.801,5.171-12.484v-19.169
	C97.103,214.892,85.247,203.035,70.621,203.035z"/>
<path style="fill:#F0C087;" d="M34.37,248.511l1.131,25.446c0.177,3.969,2.08,7.65,5.19,10.034l8.963,6.872
	c2.251,1.726,4.99,2.659,7.804,2.659h8.671c2.814,0,5.553-0.934,7.804-2.659l8.963-6.872c3.11-2.385,5.013-6.065,5.19-10.034
	l1.131-25.446c0.413-9.284-6.838-17.043-15.928-17.043H50.3C41.209,231.469,33.958,239.227,34.37,248.511z"/>
<polygon style="fill:#D29B6E;" points="471.808,300.923 471.808,281.891 428.606,281.891 428.606,300.923 450.207,322.675 "/>
<path style="fill:#EFF2FA;" d="M504.671,304.354l-29.409-6.596c-0.444-0.099-0.853-0.268-1.235-0.473l-23.82,13.245l-22.891-13.885
	c-0.593,0.532-1.329,0.927-2.164,1.115l-29.409,6.596c-4.295,0.963-7.329,4.616-7.329,8.821v17.742c0,2.503,2.129,4.531,4.754,4.531
	h114.08c2.625,0,4.754-2.028,4.754-4.531v-17.742C512,308.969,508.964,305.317,504.671,304.354z"/>
<g>
	<path style="fill:#E4EAF6;" d="M494.552,320.746l15.401-13.187c1.291,1.558,2.047,3.518,2.047,5.615v17.742
		c0,2.503-2.129,4.531-4.754,4.531H490.61v-6.276C490.61,325.958,492.043,322.895,494.552,320.746z"/>
	<path style="fill:#E4EAF6;" d="M405.862,320.746l-15.401-13.187c-1.291,1.558-2.047,3.518-2.047,5.615v17.742
		c0,2.503,2.129,4.531,4.754,4.531h16.637v-6.276C409.804,325.958,408.371,322.895,405.862,320.746z"/>
</g>
<polygon style="fill:#5B5D6E;" points="456.149,335.449 444.265,335.449 445.75,310.452 454.663,310.452 "/>
<g>
	<path style="fill:#E4EAF6;" d="M428.483,291.892l21.724,18.636c0,0-6.083,2.927-13.591,8.828c-1.549,1.217-3.892,0.724-4.722-1.017
		l-10.206-21.402l3.229-4.617C425.719,291.171,427.406,290.969,428.483,291.892z"/>
	<path style="fill:#E4EAF6;" d="M471.93,291.892l-21.724,18.636c0,0,6.083,2.927,13.591,8.828c1.549,1.217,3.892,0.724,4.722-1.017
		l10.206-21.402l-3.229-4.617C474.694,291.171,473.007,290.969,471.93,291.892z"/>
</g>
<path style="fill:#694B4B;" d="M459.034,203.035h-17.655c-14.626,0-26.483,11.857-26.483,26.483v19.17
	c0,4.682,1.86,9.173,5.171,12.484l3.657,3.656h52.966l3.657-3.657c3.311-3.311,5.171-7.801,5.171-12.484v-19.169
	C485.517,214.892,473.661,203.035,459.034,203.035z"/>
<path style="fill:#F0C087;" d="M422.784,248.511l1.131,25.446c0.177,3.969,2.08,7.65,5.19,10.034l8.963,6.872
	c2.251,1.726,4.99,2.659,7.804,2.659h8.671c2.814,0,5.553-0.934,7.804-2.659l8.963-6.872c3.109-2.385,5.013-6.065,5.19-10.034
	l1.131-25.446c0.413-9.284-6.838-17.043-15.928-17.043h-22.987C429.623,231.469,422.371,239.227,422.784,248.511z"/>
<polygon style="fill:#D29B6E;" points="277.601,477.475 277.601,458.443 234.399,458.443 234.399,477.475 256,499.227 "/>
<path style="fill:#B4E1FA;" d="M310.464,480.905l-29.409-6.596c-0.444-0.099-0.853-0.268-1.235-0.473L256,487.08l-22.891-13.885
	c-0.593,0.532-1.329,0.927-2.164,1.114l-29.409,6.596c-4.295,0.963-7.329,4.616-7.329,8.821v17.742c0,2.503,2.129,4.531,4.754,4.531
	h114.08c2.625,0,4.754-2.028,4.754-4.531v-17.742C317.793,485.521,314.759,481.869,310.464,480.905z"/>
<g>
	<path style="fill:#A0D2F0;" d="M300.345,497.298l15.401-13.187c1.291,1.558,2.047,3.518,2.047,5.615v17.742
		c0,2.503-2.129,4.531-4.754,4.531h-16.637v-6.276C296.403,502.51,297.836,499.447,300.345,497.298z"/>
	<path style="fill:#A0D2F0;" d="M211.655,497.298l-15.401-13.187c-1.291,1.558-2.047,3.518-2.047,5.615v17.742
		c0,2.503,2.129,4.531,4.754,4.531h16.637v-6.276C215.597,502.51,214.164,499.447,211.655,497.298z"/>
</g>
<polygon style="fill:#5B5D6E;" points="261.942,512.001 250.058,512.001 251.543,487.004 260.456,487.004 "/>
<g>
	<path style="fill:#A0D2F0;" d="M234.276,468.444L256,487.08c0,0-6.083,2.927-13.591,8.828c-1.549,1.217-3.892,0.724-4.722-1.017
		l-10.206-21.402l3.229-4.617C231.512,467.722,233.199,467.521,234.276,468.444z"/>
	<path style="fill:#A0D2F0;" d="M277.724,468.444L256,487.08c0,0,6.083,2.927,13.591,8.828c1.549,1.217,3.892,0.724,4.722-1.017
		l10.206-21.402l-3.229-4.617C280.488,467.722,278.801,467.521,277.724,468.444z"/>
</g>
<path style="fill:#694B4B;" d="M264.828,379.587h-17.655c-14.626,0-26.483,11.857-26.483,26.483v19.17
	c0,4.682,1.86,9.173,5.171,12.484l3.657,3.656h52.966l3.657-3.657c3.311-3.311,5.171-7.801,5.171-12.484V406.07
	C291.31,391.443,279.454,379.587,264.828,379.587z"/>
<path style="fill:#F0C087;" d="M228.577,425.063l1.131,25.446c0.177,3.969,2.08,7.65,5.19,10.035l8.963,6.872
	c2.251,1.726,4.99,2.659,7.804,2.659h8.671c2.814,0,5.553-0.934,7.804-2.659l8.963-6.872c3.109-2.385,5.013-6.065,5.19-10.035
	l1.131-25.446c0.413-9.284-6.838-17.043-15.928-17.043h-22.987C235.416,408.02,228.164,415.779,228.577,425.063z"/>
<g>
</g>
<g>
</g>
<g>
</g>
<g>
</g>
<g>
</g>
<g>
</g>
<g>
</g>
<g>
</g>
<g>
</g>
<g>
</g>
<g>
</g>
<g>
</g>
<g>
</g>
<g>
</g>
<g>
</g>
</svg>
