<?xml version="1.0" encoding="iso-8859-1"?>
<!-- Generator: Adobe Illustrator 19.0.0, SVG Export Plug-In . SVG Version: 6.00 Build 0)  -->
<svg version="1.1" id="Layer_1" xmlns="http://www.w3.org/2000/svg" xmlns:xlink="http://www.w3.org/1999/xlink" x="0px" y="0px"
	 viewBox="0 0 512 512" style="enable-background:new 0 0 512 512;" xml:space="preserve">
<path style="fill:#E4EAF6;" d="M406.069,268.957H264.974v-70.336c0-4.875-3.948-8.828-8.828-8.828c-4.879,0-8.828,3.953-8.828,8.828
	v70.336H105.931c-24.337,0-44.138,19.801-44.138,44.138v52.966c0,4.875,3.948,8.828,8.828,8.828s8.828-3.953,8.828-8.828v-52.966
	c0-14.603,11.88-26.483,26.483-26.483h141.388v79.448c0,4.875,3.948,8.828,8.828,8.828c4.879,0,8.828-3.953,8.828-8.828v-79.448
	h141.095c14.603,0,26.483,11.88,26.483,26.483v52.966c0,4.875,3.948,8.828,8.828,8.828c4.879,0,8.828-3.953,8.828-8.828v-52.966
	C450.207,288.758,430.406,268.957,406.069,268.957z"/>
<path style="fill:#C7CFE2;" d="M361.931,198.621H150.069V30.897c0-4.875,3.953-8.828,8.828-8.828h194.207
	c4.875,0,8.828,3.953,8.828,8.828V198.621z"/>
<rect x="150.069" y="145.655" style="fill:#AFB9D2;" width="211.862" height="44.138"/>
<g>
	<path style="fill:#707487;" d="M185.379,163.31L185.379,163.31c-4.875,0-8.828,3.953-8.828,8.828v17.655
		c0,4.875,3.953,8.828,8.828,8.828l0,0c4.875,0,8.828-3.953,8.828-8.828v-17.655C194.207,167.263,190.254,163.31,185.379,163.31z"/>
	<path style="fill:#707487;" d="M256,163.31L256,163.31c-4.875,0-8.828,3.953-8.828,8.828v17.655c0,4.875,3.953,8.828,8.828,8.828
		l0,0c4.875,0,8.828-3.953,8.828-8.828v-17.655C264.828,167.263,260.875,163.31,256,163.31z"/>
	<path style="fill:#707487;" d="M291.31,163.31L291.31,163.31c-4.875,0-8.828,3.953-8.828,8.828v17.655
		c0,4.875,3.953,8.828,8.828,8.828l0,0c4.875,0,8.828-3.953,8.828-8.828v-17.655C300.138,167.263,296.185,163.31,291.31,163.31z"/>
	<path style="fill:#707487;" d="M326.621,163.31L326.621,163.31c-4.875,0-8.828,3.953-8.828,8.828v17.655
		c0,4.875,3.953,8.828,8.828,8.828l0,0c4.875,0,8.828-3.953,8.828-8.828v-17.655C335.448,167.263,331.496,163.31,326.621,163.31z"/>
	<path style="fill:#707487;" d="M220.69,163.31L220.69,163.31c-4.875,0-8.828,3.953-8.828,8.828v17.655
		c0,4.875,3.953,8.828,8.828,8.828l0,0c4.875,0,8.828-3.953,8.828-8.828v-17.655C229.517,167.263,225.565,163.31,220.69,163.31z"/>
</g>
<g>
	<path style="fill:#8F96AC;" d="M370.759,207.448H141.241c-4.875,0-8.828-3.953-8.828-8.828l0,0c0-4.875,3.953-8.828,8.828-8.828
		h229.517c4.875,0,8.828,3.953,8.828,8.828l0,0C379.586,203.496,375.634,207.448,370.759,207.448z"/>
	<path style="fill:#8F96AC;" d="M185.379,39.724L185.379,39.724c-4.875,0-8.828,3.953-8.828,8.828v70.621
		c0,4.875,3.953,8.828,8.828,8.828l0,0c4.875,0,8.828-3.953,8.828-8.828V48.552C194.207,43.677,190.254,39.724,185.379,39.724z"/>
	<path style="fill:#8F96AC;" d="M220.69,39.724L220.69,39.724c-4.875,0-8.828,3.953-8.828,8.828v70.621
		c0,4.875,3.953,8.828,8.828,8.828l0,0c4.875,0,8.828-3.953,8.828-8.828V48.552C229.517,43.677,225.565,39.724,220.69,39.724z"/>
	<path style="fill:#8F96AC;" d="M256,39.724L256,39.724c-4.875,0-8.828,3.953-8.828,8.828v70.621c0,4.875,3.953,8.828,8.828,8.828
		l0,0c4.875,0,8.828-3.953,8.828-8.828V48.552C264.828,43.677,260.875,39.724,256,39.724z"/>
	<path style="fill:#8F96AC;" d="M291.31,39.724L291.31,39.724c-4.875,0-8.828,3.953-8.828,8.828v70.621
		c0,4.875,3.953,8.828,8.828,8.828l0,0c4.875,0,8.828-3.953,8.828-8.828V48.552C300.138,43.677,296.185,39.724,291.31,39.724z"/>
	<path style="fill:#8F96AC;" d="M326.621,39.724L326.621,39.724c-4.875,0-8.828,3.953-8.828,8.828v70.621
		c0,4.875,3.953,8.828,8.828,8.828l0,0c4.875,0,8.828-3.953,8.828-8.828V48.552C335.448,43.677,331.496,39.724,326.621,39.724z"/>
</g>
<g>
	<rect x="282.483" y="92.69" style="fill:#707487;" width="17.655" height="17.655"/>
	<rect x="317.793" y="92.69" style="fill:#707487;" width="17.655" height="17.655"/>
	<rect x="211.862" y="92.69" style="fill:#707487;" width="17.655" height="17.655"/>
	<rect x="176.552" y="92.69" style="fill:#707487;" width="17.655" height="17.655"/>
	<rect x="247.172" y="92.69" style="fill:#707487;" width="17.655" height="17.655"/>
	<rect x="282.483" y="57.379" style="fill:#707487;" width="17.655" height="17.655"/>
	<rect x="317.793" y="57.379" style="fill:#707487;" width="17.655" height="17.655"/>
	<rect x="211.862" y="57.379" style="fill:#707487;" width="17.655" height="17.655"/>
	<rect x="176.552" y="57.379" style="fill:#707487;" width="17.655" height="17.655"/>
	<rect x="247.172" y="57.379" style="fill:#707487;" width="17.655" height="17.655"/>
</g>
<path style="fill:#AFB9D2;" d="M132.414,481.103H8.828V357.517c0-4.875,3.953-8.828,8.828-8.828h105.931
	c4.875,0,8.828,3.953,8.828,8.828V481.103z"/>
<g>
	<path style="fill:#8F96AC;" d="M132.414,489.931H8.828c-4.875,0-8.828-3.953-8.828-8.828l0,0c0-4.875,3.953-8.828,8.828-8.828
		h123.586c4.875,0,8.828,3.953,8.828,8.828l0,0C141.241,485.978,137.289,489.931,132.414,489.931z"/>
	<rect x="8.828" y="436.966" style="fill:#8F96AC;" width="123.586" height="17.655"/>
	<rect x="8.828" y="401.655" style="fill:#8F96AC;" width="123.586" height="17.655"/>
	<rect x="8.828" y="366.345" style="fill:#8F96AC;" width="123.586" height="17.655"/>
</g>
<g>
	<rect x="61.793" y="366.345" style="fill:#707487;" width="17.655" height="17.655"/>
	<rect x="61.793" y="401.655" style="fill:#707487;" width="17.655" height="17.655"/>
	<rect x="61.793" y="436.966" style="fill:#707487;" width="17.655" height="17.655"/>
	<rect x="8.828" y="366.345" style="fill:#707487;" width="17.655" height="17.655"/>
	<rect x="8.828" y="401.655" style="fill:#707487;" width="17.655" height="17.655"/>
	<rect x="8.828" y="436.966" style="fill:#707487;" width="17.655" height="17.655"/>
	<rect x="114.759" y="366.345" style="fill:#707487;" width="17.655" height="17.655"/>
	<rect x="114.759" y="401.655" style="fill:#707487;" width="17.655" height="17.655"/>
	<rect x="114.759" y="436.966" style="fill:#707487;" width="17.655" height="17.655"/>
</g>
<path style="fill:#AFB9D2;" d="M317.793,481.103H194.207V357.517c0-4.875,3.953-8.828,8.828-8.828h105.931
	c4.875,0,8.828,3.953,8.828,8.828V481.103z"/>
<g>
	<path style="fill:#8F96AC;" d="M317.793,489.931H194.207c-4.875,0-8.828-3.953-8.828-8.828l0,0c0-4.875,3.953-8.828,8.828-8.828
		h123.586c4.875,0,8.828,3.953,8.828,8.828l0,0C326.621,485.978,322.668,489.931,317.793,489.931z"/>
	<rect x="194.207" y="436.966" style="fill:#8F96AC;" width="123.586" height="17.655"/>
	<rect x="194.207" y="401.655" style="fill:#8F96AC;" width="123.586" height="17.655"/>
	<rect x="194.207" y="366.345" style="fill:#8F96AC;" width="123.586" height="17.655"/>
</g>
<g>
	<rect x="247.172" y="366.345" style="fill:#707487;" width="17.655" height="17.655"/>
	<rect x="247.172" y="401.655" style="fill:#707487;" width="17.655" height="17.655"/>
	<rect x="247.172" y="436.966" style="fill:#707487;" width="17.655" height="17.655"/>
	<rect x="194.207" y="366.345" style="fill:#707487;" width="17.655" height="17.655"/>
	<rect x="194.207" y="401.655" style="fill:#707487;" width="17.655" height="17.655"/>
	<rect x="194.207" y="436.966" style="fill:#707487;" width="17.655" height="17.655"/>
	<rect x="300.138" y="366.345" style="fill:#707487;" width="17.655" height="17.655"/>
	<rect x="300.138" y="401.655" style="fill:#707487;" width="17.655" height="17.655"/>
	<rect x="300.138" y="436.966" style="fill:#707487;" width="17.655" height="17.655"/>
</g>
<path style="fill:#AFB9D2;" d="M503.172,481.103H379.586V357.517c0-4.875,3.953-8.828,8.828-8.828h105.931
	c4.875,0,8.828,3.953,8.828,8.828V481.103z"/>
<g>
	<path style="fill:#8F96AC;" d="M503.172,489.931H379.586c-4.875,0-8.828-3.953-8.828-8.828l0,0c0-4.875,3.953-8.828,8.828-8.828
		h123.586c4.875,0,8.828,3.953,8.828,8.828l0,0C512,485.978,508.047,489.931,503.172,489.931z"/>
	<rect x="379.586" y="436.966" style="fill:#8F96AC;" width="123.586" height="17.655"/>
	<rect x="379.586" y="401.655" style="fill:#8F96AC;" width="123.586" height="17.655"/>
	<rect x="379.586" y="366.345" style="fill:#8F96AC;" width="123.586" height="17.655"/>
</g>
<g>
	<rect x="432.552" y="366.345" style="fill:#707487;" width="17.655" height="17.655"/>
	<rect x="432.552" y="401.655" style="fill:#707487;" width="17.655" height="17.655"/>
	<rect x="432.552" y="436.966" style="fill:#707487;" width="17.655" height="17.655"/>
	<rect x="379.586" y="366.345" style="fill:#707487;" width="17.655" height="17.655"/>
	<rect x="379.586" y="401.655" style="fill:#707487;" width="17.655" height="17.655"/>
	<rect x="379.586" y="436.966" style="fill:#707487;" width="17.655" height="17.655"/>
	<rect x="485.517" y="366.345" style="fill:#707487;" width="17.655" height="17.655"/>
	<rect x="485.517" y="401.655" style="fill:#707487;" width="17.655" height="17.655"/>
	<rect x="485.517" y="436.966" style="fill:#707487;" width="17.655" height="17.655"/>
</g>
<g>
</g>
<g>
</g>
<g>
</g>
<g>
</g>
<g>
</g>
<g>
</g>
<g>
</g>
<g>
</g>
<g>
</g>
<g>
</g>
<g>
</g>
<g>
</g>
<g>
</g>
<g>
</g>
<g>
</g>
</svg>
