<?xml version="1.0" encoding="iso-8859-1"?>
<!-- Generator: Adobe Illustrator 19.0.0, SVG Export Plug-In . SVG Version: 6.00 Build 0)  -->
<svg version="1.1" id="Layer_1" xmlns="http://www.w3.org/2000/svg" xmlns:xlink="http://www.w3.org/1999/xlink" x="0px" y="0px"
	 viewBox="0 0 512 512" style="enable-background:new 0 0 512 512;" xml:space="preserve">
<path style="fill:#EFF2FA;" d="M361.931,0H88.276c-9.75,0-17.655,7.904-17.655,17.655v476.69c0,9.75,7.905,17.655,17.655,17.655
	h335.448c9.75,0,17.655-7.905,17.655-17.655V79.448L361.931,0z"/>
<path style="fill:#D7DEED;" d="M441.379,79.448h-69.517c-5.485,0-9.931-4.446-9.931-9.931V0L441.379,79.448z"/>
<path style="fill:#C3E678;" d="M172.138,229.517H128c-2.438,0-4.414-1.976-4.414-4.414v-26.483c0-2.438,1.976-4.414,4.414-4.414
	h44.138c2.438,0,4.414,1.976,4.414,4.414v26.483C176.552,227.541,174.575,229.517,172.138,229.517z"/>
<g>
	<path style="fill:#D7DEED;" d="M242.759,229.517h-44.138c-2.438,0-4.414-1.976-4.414-4.414v-26.483
		c0-2.438,1.976-4.414,4.414-4.414h44.138c2.438,0,4.414,1.976,4.414,4.414v26.483C247.172,227.541,245.196,229.517,242.759,229.517
		z"/>
	<path style="fill:#D7DEED;" d="M313.379,229.517h-44.138c-2.438,0-4.414-1.976-4.414-4.414v-26.483
		c0-2.438,1.976-4.414,4.414-4.414h44.138c2.438,0,4.414,1.976,4.414,4.414v26.483C317.793,227.541,315.817,229.517,313.379,229.517
		z"/>
	<path style="fill:#D7DEED;" d="M384,229.517h-44.138c-2.438,0-4.414-1.976-4.414-4.414v-26.483c0-2.438,1.976-4.414,4.414-4.414
		H384c2.438,0,4.414,1.976,4.414,4.414v26.483C388.414,227.541,386.438,229.517,384,229.517z"/>
	<path style="fill:#D7DEED;" d="M172.138,176.552H128c-2.438,0-4.414-1.976-4.414-4.414v-26.483c0-2.438,1.976-4.414,4.414-4.414
		h44.138c2.438,0,4.414,1.976,4.414,4.414v26.483C176.552,174.575,174.575,176.552,172.138,176.552z"/>
</g>
<g>
	<path style="fill:#8F96AC;" d="M242.759,176.552h-44.138c-2.438,0-4.414-1.976-4.414-4.414v-26.483
		c0-2.438,1.976-4.414,4.414-4.414h44.138c2.438,0,4.414,1.976,4.414,4.414v26.483C247.172,174.575,245.196,176.552,242.759,176.552
		z"/>
	<path style="fill:#8F96AC;" d="M313.379,176.552h-44.138c-2.438,0-4.414-1.976-4.414-4.414v-26.483
		c0-2.438,1.976-4.414,4.414-4.414h44.138c2.438,0,4.414,1.976,4.414,4.414v26.483C317.793,174.575,315.817,176.552,313.379,176.552
		z"/>
	<path style="fill:#8F96AC;" d="M384,176.552h-44.138c-2.438,0-4.414-1.976-4.414-4.414v-26.483c0-2.438,1.976-4.414,4.414-4.414
		H384c2.438,0,4.414,1.976,4.414,4.414v26.483C388.414,174.575,386.438,176.552,384,176.552z"/>
</g>
<path style="fill:#C3E678;" d="M172.138,282.483H128c-2.438,0-4.414-1.976-4.414-4.414v-26.483c0-2.438,1.976-4.414,4.414-4.414
	h44.138c2.438,0,4.414,1.976,4.414,4.414v26.483C176.552,280.506,174.575,282.483,172.138,282.483z"/>
<g>
	<path style="fill:#D7DEED;" d="M242.759,282.483h-44.138c-2.438,0-4.414-1.976-4.414-4.414v-26.483
		c0-2.438,1.976-4.414,4.414-4.414h44.138c2.438,0,4.414,1.976,4.414,4.414v26.483C247.172,280.506,245.196,282.483,242.759,282.483
		z"/>
	<path style="fill:#D7DEED;" d="M313.379,282.483h-44.138c-2.438,0-4.414-1.976-4.414-4.414v-26.483
		c0-2.438,1.976-4.414,4.414-4.414h44.138c2.438,0,4.414,1.976,4.414,4.414v26.483C317.793,280.506,315.817,282.483,313.379,282.483
		z"/>
	<path style="fill:#D7DEED;" d="M384,282.483h-44.138c-2.438,0-4.414-1.976-4.414-4.414v-26.483c0-2.438,1.976-4.414,4.414-4.414
		H384c2.438,0,4.414,1.976,4.414,4.414v26.483C388.414,280.506,386.438,282.483,384,282.483z"/>
</g>
<path style="fill:#C3E678;" d="M172.138,335.448H128c-2.438,0-4.414-1.976-4.414-4.414v-26.483c0-2.438,1.976-4.414,4.414-4.414
	h44.138c2.438,0,4.414,1.976,4.414,4.414v26.483C176.552,333.472,174.575,335.448,172.138,335.448z"/>
<g>
	<path style="fill:#D7DEED;" d="M242.759,335.448h-44.138c-2.438,0-4.414-1.976-4.414-4.414v-26.483
		c0-2.438,1.976-4.414,4.414-4.414h44.138c2.438,0,4.414,1.976,4.414,4.414v26.483C247.172,333.472,245.196,335.448,242.759,335.448
		z"/>
	<path style="fill:#D7DEED;" d="M313.379,335.448h-44.138c-2.438,0-4.414-1.976-4.414-4.414v-26.483
		c0-2.438,1.976-4.414,4.414-4.414h44.138c2.438,0,4.414,1.976,4.414,4.414v26.483C317.793,333.472,315.817,335.448,313.379,335.448
		z"/>
	<path style="fill:#D7DEED;" d="M384,335.448h-44.138c-2.438,0-4.414-1.976-4.414-4.414v-26.483c0-2.438,1.976-4.414,4.414-4.414
		H384c2.438,0,4.414,1.976,4.414,4.414v26.483C388.414,333.472,386.438,335.448,384,335.448z"/>
</g>
<path style="fill:#C3E678;" d="M172.138,388.414H128c-2.438,0-4.414-1.976-4.414-4.414v-26.483c0-2.438,1.976-4.414,4.414-4.414
	h44.138c2.438,0,4.414,1.976,4.414,4.414V384C176.552,386.438,174.575,388.414,172.138,388.414z"/>
<g>
	<path style="fill:#D7DEED;" d="M242.759,388.414h-44.138c-2.438,0-4.414-1.976-4.414-4.414v-26.483
		c0-2.438,1.976-4.414,4.414-4.414h44.138c2.438,0,4.414,1.976,4.414,4.414V384C247.172,386.438,245.196,388.414,242.759,388.414z"
		/>
	<path style="fill:#D7DEED;" d="M313.379,388.414h-44.138c-2.438,0-4.414-1.976-4.414-4.414v-26.483
		c0-2.438,1.976-4.414,4.414-4.414h44.138c2.438,0,4.414,1.976,4.414,4.414V384C317.793,386.438,315.817,388.414,313.379,388.414z"
		/>
	<path style="fill:#D7DEED;" d="M384,388.414h-44.138c-2.438,0-4.414-1.976-4.414-4.414v-26.483c0-2.438,1.976-4.414,4.414-4.414
		H384c2.438,0,4.414,1.976,4.414,4.414V384C388.414,386.438,386.438,388.414,384,388.414z"/>
</g>
<path style="fill:#C3E678;" d="M172.138,441.379H128c-2.438,0-4.414-1.976-4.414-4.414v-26.483c0-2.438,1.976-4.414,4.414-4.414
	h44.138c2.438,0,4.414,1.976,4.414,4.414v26.483C176.552,439.403,174.575,441.379,172.138,441.379z"/>
<g>
	<path style="fill:#D7DEED;" d="M242.759,441.379h-44.138c-2.438,0-4.414-1.976-4.414-4.414v-26.483
		c0-2.438,1.976-4.414,4.414-4.414h44.138c2.438,0,4.414,1.976,4.414,4.414v26.483C247.172,439.403,245.196,441.379,242.759,441.379
		z"/>
	<path style="fill:#D7DEED;" d="M313.379,441.379h-44.138c-2.438,0-4.414-1.976-4.414-4.414v-26.483
		c0-2.438,1.976-4.414,4.414-4.414h44.138c2.438,0,4.414,1.976,4.414,4.414v26.483C317.793,439.403,315.817,441.379,313.379,441.379
		z"/>
	<path style="fill:#D7DEED;" d="M384,441.379h-44.138c-2.438,0-4.414-1.976-4.414-4.414v-26.483c0-2.438,1.976-4.414,4.414-4.414
		H384c2.438,0,4.414,1.976,4.414,4.414v26.483C388.414,439.403,386.438,441.379,384,441.379z"/>
</g>
<g>
</g>
<g>
</g>
<g>
</g>
<g>
</g>
<g>
</g>
<g>
</g>
<g>
</g>
<g>
</g>
<g>
</g>
<g>
</g>
<g>
</g>
<g>
</g>
<g>
</g>
<g>
</g>
<g>
</g>
</svg>
