<?xml version="1.0" encoding="iso-8859-1"?>
<!-- Generator: Adobe Illustrator 19.0.0, SVG Export Plug-In . SVG Version: 6.00 Build 0)  -->
<svg version="1.1" id="Layer_1" xmlns="http://www.w3.org/2000/svg" xmlns:xlink="http://www.w3.org/1999/xlink" x="0px" y="0px"
	 viewBox="0 0 512 512" style="enable-background:new 0 0 512 512;" xml:space="preserve">
<path style="fill:#B9785F;" d="M494.345,463.448H17.655V48.552c0-4.875,3.953-8.828,8.828-8.828h459.034
	c4.875,0,8.828,3.953,8.828,8.828V463.448z"/>
<path style="fill:#AA6455;" d="M494.345,180.205c-1.809,0.45-3.67,0.76-5.618,0.76c-12.853,0-23.273-10.42-23.273-23.273
	c0,12.852-10.42,23.273-23.273,23.273c-12.853,0-23.273-10.42-23.273-23.273c0,12.852-10.419,23.273-23.273,23.273
	c-12.853,0-23.273-10.42-23.273-23.273c0,12.852-10.42,23.273-23.273,23.273s-23.273-10.42-23.273-23.273
	c0,12.852-10.42,23.273-23.273,23.273c-12.853,0-23.273-10.42-23.273-23.273c0,12.852-10.419,23.273-23.273,23.273
	s-23.273-10.42-23.273-23.273c0,12.852-10.42,23.273-23.273,23.273c-12.853,0-23.273-10.42-23.273-23.273
	c0,12.852-10.419,23.273-23.273,23.273c-12.853,0-23.273-10.42-23.273-23.273c0,12.852-10.42,23.273-23.273,23.273
	c-12.853,0-23.273-10.42-23.273-23.273c0,12.852-10.42,23.273-23.273,23.273s-23.273-10.42-23.273-23.273
	c0,12.852-10.419,23.273-23.273,23.273c-1.948,0-3.809-0.31-5.618-0.76v17.848c1.854,0.257,3.694,0.568,5.618,0.568
	c8.639,0,16.661-2.69,23.273-7.277c6.614,4.586,14.635,7.276,23.275,7.276c8.639,0,16.661-2.69,23.273-7.277
	c6.612,4.587,14.634,7.277,23.273,7.277s16.661-2.69,23.273-7.277c6.612,4.587,14.634,7.277,23.273,7.277
	c8.639,0,16.661-2.69,23.273-7.277c6.612,4.587,14.634,7.277,23.273,7.277c8.639,0,16.661-2.69,23.273-7.277
	c6.611,4.587,14.633,7.277,23.272,7.277s16.661-2.69,23.273-7.277c6.612,4.587,14.634,7.277,23.273,7.277
	c8.639,0,16.661-2.69,23.273-7.277c6.612,4.587,14.634,7.277,23.273,7.277c8.639,0,16.661-2.69,23.273-7.277
	c6.612,4.587,14.634,7.277,23.273,7.277s16.661-2.69,23.273-7.277c6.612,4.587,14.634,7.277,23.273,7.277
	c8.64,0,16.661-2.69,23.273-7.277c6.612,4.587,14.634,7.277,23.273,7.277c1.923,0,3.764-0.31,5.618-0.568v-17.847H494.345z"/>
<rect x="61.793" y="216.276" style="fill:#B4E1FA;" width="247.172" height="158.897"/>
<polygon style="fill:#DAF0FD;" points="264.828,366.345 247.172,366.345 141.241,225.103 158.897,225.103 "/>
<g>
	<path style="fill:#D2555A;" d="M209.454,180.966L209.454,180.966c-12.853,0-23.273-10.42-23.273-23.273v-20.865h46.546v20.865
		C232.727,170.546,222.307,180.966,209.454,180.966z"/>
	<path style="fill:#D2555A;" d="M302.546,180.966L302.546,180.966c-12.853,0-23.273-10.42-23.273-23.273v-20.865h46.546v20.865
		C325.818,170.546,315.399,180.966,302.546,180.966z"/>
	<path style="fill:#D2555A;" d="M116.364,180.966L116.364,180.966c-12.853,0-23.273-10.42-23.273-23.273v-20.865h46.546v20.865
		C139.636,170.546,129.217,180.966,116.364,180.966z"/>
	<path style="fill:#D2555A;" d="M23.273,180.966L23.273,180.966C10.42,180.966,0,170.546,0,157.693v-20.865h46.546v20.865
		C46.546,170.546,36.126,180.966,23.273,180.966z"/>
	<path style="fill:#D2555A;" d="M395.636,180.966L395.636,180.966c-12.853,0-23.273-10.42-23.273-23.273v-20.865h46.546v20.865
		C418.909,170.546,408.49,180.966,395.636,180.966z"/>
</g>
<g>
	<path style="fill:#C7CFE2;" d="M162.909,180.966L162.909,180.966c-12.853,0-23.273-10.42-23.273-23.273v-20.865h46.546v20.865
		C186.182,170.546,175.763,180.966,162.909,180.966z"/>
	<path style="fill:#C7CFE2;" d="M349.091,180.966L349.091,180.966c-12.853,0-23.273-10.42-23.273-23.273v-20.865h46.546v20.865
		C372.363,170.546,361.944,180.966,349.091,180.966z"/>
</g>
<path style="fill:#D2555A;" d="M488.727,180.966L488.727,180.966c-12.853,0-23.273-10.42-23.273-23.273v-20.865H512v20.865
	C512,170.546,501.58,180.966,488.727,180.966z"/>
<g>
	<path style="fill:#C7CFE2;" d="M442.182,180.966L442.182,180.966c-12.853,0-23.273-10.42-23.273-23.273v-20.865h46.546v20.865
		C465.454,170.546,455.034,180.966,442.182,180.966z"/>
	<path style="fill:#C7CFE2;" d="M69.818,180.966L69.818,180.966c-12.853,0-23.273-10.42-23.273-23.273v-20.865h46.546v20.865
		C93.091,170.546,82.671,180.966,69.818,180.966z"/>
	<path style="fill:#C7CFE2;" d="M256,180.966L256,180.966c-12.853,0-23.273-10.42-23.273-23.273v-20.865h46.546v20.865
		C279.273,170.546,268.853,180.966,256,180.966z"/>
</g>
<g>
	<polygon style="fill:#FF6464;" points="232.727,136.828 186.182,136.828 190.997,66.207 234.333,66.207 	"/>
	<polygon style="fill:#FF6464;" points="325.818,136.828 279.273,136.828 277.667,66.207 321.003,66.207 	"/>
	<polygon style="fill:#FF6464;" points="139.636,136.828 93.091,136.828 104.326,66.207 147.661,66.207 	"/>
	<polygon style="fill:#FF6464;" points="46.546,136.828 0,136.828 17.655,66.207 60.991,66.207 	"/>
	<polygon style="fill:#FF6464;" points="418.909,136.828 372.363,136.828 364.339,66.207 407.673,66.207 	"/>
</g>
<g>
	<polygon style="fill:#EFF2FA;" points="186.182,136.828 139.636,136.828 147.661,66.207 190.997,66.207 	"/>
	<polygon style="fill:#EFF2FA;" points="372.363,136.828 325.818,136.828 321.003,66.207 364.339,66.207 	"/>
</g>
<polygon style="fill:#FF6464;" points="512,136.828 465.454,136.828 451.009,66.207 494.345,66.207 "/>
<g>
	<polygon style="fill:#EFF2FA;" points="465.454,136.828 418.909,136.828 407.673,66.207 451.009,66.207 	"/>
	<polygon style="fill:#EFF2FA;" points="93.091,136.828 46.546,136.828 60.991,66.207 104.326,66.207 	"/>
	<polygon style="fill:#EFF2FA;" points="279.273,136.828 232.727,136.828 234.333,66.207 277.667,66.207 	"/>
</g>
<path style="fill:#C7CFE2;" d="M503.172,472.276H8.828c-4.875,0-8.828-3.953-8.828-8.828l0,0c0-4.875,3.953-8.828,8.828-8.828
	h494.345c4.875,0,8.828,3.953,8.828,8.828l0,0C512,468.323,508.047,472.276,503.172,472.276z"/>
<g style="opacity:0.97;">
	<rect x="17.655" y="436.966" style="fill:#AFB9D2;" width="476.69" height="17.655"/>
</g>
<rect x="17.655" y="401.655" style="fill:#AA6455;" width="476.69" height="35.31"/>
<g>
	<path style="fill:#5B5D6E;" d="M300.138,225.103v141.241H70.621V225.103H300.138 M308.966,207.448H61.793
		c-4.875,0-8.828,3.953-8.828,8.828v158.897c0,4.875,3.953,8.828,8.828,8.828h247.172c4.875,0,8.828-3.953,8.828-8.828V216.276
		C317.793,211.401,313.841,207.448,308.966,207.448L308.966,207.448z"/>
	<path style="fill:#5B5D6E;" d="M450.207,207.448h-88.276c-4.875,0-8.828,3.953-8.828,8.828v220.69h105.931v-220.69
		C459.034,211.401,455.082,207.448,450.207,207.448z"/>
</g>
<rect x="370.759" y="225.103" style="fill:#B4E1FA;" width="70.621" height="141.241"/>
<rect x="70.621" y="225.103" style="fill:#A0D2F0;" width="229.517" height="17.655"/>
<rect id="SVGCleanerId_0" x="370.759" y="225.103" style="fill:#A0D2F0;" width="70.621" height="17.655"/>
<polygon style="fill:#A0D2F0;" points="229.517,366.345 194.207,366.345 88.276,225.103 123.586,225.103 "/>
<polygon style="fill:#B4E1FA;" points="172.138,242.759 158.897,225.103 141.241,225.103 154.483,242.759 "/>
<polygon style="fill:#DAF0FD;" points="441.379,295.724 388.414,225.103 370.759,225.103 441.379,319.265 "/>
<polygon style="fill:#B4E1FA;" points="401.655,242.759 388.414,225.103 370.759,225.103 384,242.759 "/>
<g>
	<rect id="SVGCleanerId_0_1_" x="370.759" y="225.103" style="fill:#A0D2F0;" width="70.621" height="17.655"/>
</g>
<polygon style="fill:#DAF0FD;" points="441.379,295.724 388.414,225.103 370.759,225.103 441.379,319.265 "/>
<polygon style="fill:#A0D2F0;" points="370.759,248.644 370.759,295.724 423.724,366.345 441.379,366.345 441.379,342.804 "/>
<g>
</g>
<g>
</g>
<g>
</g>
<g>
</g>
<g>
</g>
<g>
</g>
<g>
</g>
<g>
</g>
<g>
</g>
<g>
</g>
<g>
</g>
<g>
</g>
<g>
</g>
<g>
</g>
<g>
</g>
</svg>
