<?xml version="1.0" encoding="iso-8859-1"?>
<!-- Generator: Adobe Illustrator 19.0.0, SVG Export Plug-In . SVG Version: 6.00 Build 0)  -->
<svg version="1.1" id="Layer_1" xmlns="http://www.w3.org/2000/svg" xmlns:xlink="http://www.w3.org/1999/xlink" x="0px" y="0px"
	 viewBox="0 0 512 512" style="enable-background:new 0 0 512 512;" xml:space="preserve">
<path style="fill:#A2AAC2;" d="M494.347,114.764c-4.879,0-8.828,3.948-8.828,8.828v70.621h-35.31v-76.138
	c0-4.879-3.948-8.828-8.828-8.828s-8.828,3.948-8.828,8.828v76.138h-37.336v-82.388c0-4.879-3.948-8.828-8.828-8.828
	s-8.828,3.948-8.828,8.828v82.388h-37.698v-89.749c0-4.879-3.948-8.828-8.828-8.828s-8.828,3.948-8.828,8.828v89.75h-35.715
	l-4.018-97.034c-0.199-4.879-4.552-8.629-9.181-8.457c-4.871,0.199-8.664,4.31-8.457,9.181l3.988,96.31h-37.243L218.045,87.635
	c-0.621-4.836-5.009-8.233-9.87-7.647c-4.836,0.612-8.258,5.035-7.647,9.87l13.256,104.353h-41.315L147.95,80.531
	c-1.035-4.767-5.732-7.81-10.492-6.767c-4.767,1.026-7.794,5.725-6.767,10.492l23.715,109.957h-41.388L64.483,34.048
	c-2.836-9.354-10.552-16.362-20.156-18.293l-33.767-6.75c-4.828-1.009-9.44,2.146-10.388,6.922
	c-0.957,4.785,2.146,9.431,6.922,10.388l33.759,6.75c3.207,0.647,5.784,2.983,6.733,6.103l84.141,277.676l-46.029,85.498
	c-4.466,8.285-4.25,18.06,0.569,26.139c4.828,8.077,13.327,12.905,22.741,12.905h367.682c4.879,0,8.828-3.948,8.828-8.828
	s-3.948-8.828-8.828-8.828H109.01c-4.526,0-6.81-3.009-7.577-4.301c-0.776-1.293-2.336-4.733-0.19-8.715l45.483-84.475
	l331.94-24.897c13.741-1.026,24.509-12.629,24.509-26.406V123.591C503.175,118.713,499.226,114.764,494.347,114.764z
	 M147.639,308.463l-29.271-96.595h39.846l20.333,94.277L147.639,308.463z M196.322,304.812l-20.046-92.944h39.75l11.509,90.603
	L196.322,304.812z M245.167,301.15l-11.341-89.281h35.73l3.609,87.183L245.167,301.15z M322.209,295.372l-31.43,2.357l-3.555-85.862
	h34.985V295.372z M377.562,291.222l-37.698,2.828v-82.182h37.698V291.222z M432.554,287.097l-37.336,2.801v-78.031h37.336V287.097z
	 M485.519,274.937c0,4.595-3.586,8.457-8.172,8.802l-27.138,2.035v-73.906h35.31V274.937z"/>
<g>
	<circle style="fill:#5B5D6E;" cx="132.414" cy="476.7" r="26.483"/>
	<circle style="fill:#5B5D6E;" cx="450.208" cy="476.7" r="26.483"/>
</g>
<g>
	<path style="fill:#C7CFE2;" d="M132.415,485.523L132.415,485.523c-5.133,0-9.553-3.623-10.559-8.657l-7.096-35.481h35.31
		l-7.096,35.481C141.967,481.9,137.547,485.523,132.415,485.523z"/>
	<path style="fill:#C7CFE2;" d="M450.209,485.523L450.209,485.523c-5.133,0-9.553-3.623-10.559-8.657l-7.096-35.481h35.31
		l-7.096,35.481C459.76,481.9,455.341,485.523,450.209,485.523z"/>
</g>
<path style="fill:#959CB3;" d="M504.243,114.833L72.96,62.023l5.596,18.464l423.55,51.863c0.362,0.052,0.724,0.07,1.078,0.07
	c4.396,0,8.207-3.276,8.75-7.758C512.527,119.824,509.088,115.419,504.243,114.833z"/>
<g>
</g>
<g>
</g>
<g>
</g>
<g>
</g>
<g>
</g>
<g>
</g>
<g>
</g>
<g>
</g>
<g>
</g>
<g>
</g>
<g>
</g>
<g>
</g>
<g>
</g>
<g>
</g>
<g>
</g>
</svg>
