<?xml version="1.0" encoding="iso-8859-1"?>
<!-- Generator: Adobe Illustrator 19.0.0, SVG Export Plug-In . SVG Version: 6.00 Build 0)  -->
<svg version="1.1" id="Layer_1" xmlns="http://www.w3.org/2000/svg" xmlns:xlink="http://www.w3.org/1999/xlink" x="0px" y="0px"
	 viewBox="0 0 512 512" style="enable-background:new 0 0 512 512;" xml:space="preserve">
<path style="fill:#5B5D6E;" d="M269.241,247.172h-26.483c-4.875,0-8.828-3.953-8.828-8.828V8.828c0-4.875,3.953-8.828,8.828-8.828
	h26.483c4.875,0,8.828,3.953,8.828,8.828v229.517C278.069,243.22,274.116,247.172,269.241,247.172z"/>
<path style="fill:#D2555A;" d="M8.828,238.345l18.972,257.298C28.479,504.864,36.16,512,45.406,512h421.187
	c9.247,0,16.927-7.136,17.608-16.358l18.972-257.298H8.828z M88.276,476.69c0,4.875-3.953,8.828-8.828,8.828
	c-4.875,0-8.828-3.953-8.828-8.828V291.31c0-4.875,3.953-8.828,8.828-8.828c4.875,0,8.828,3.953,8.828,8.828V476.69z
	 M132.414,476.69c0,4.875-3.953,8.828-8.828,8.828c-4.875,0-8.828-3.953-8.828-8.828V291.31c0-4.875,3.953-8.828,8.828-8.828
	c4.875,0,8.828,3.953,8.828,8.828V476.69z M176.552,476.69c0,4.875-3.953,8.828-8.828,8.828s-8.828-3.953-8.828-8.828V291.31
	c0-4.875,3.953-8.828,8.828-8.828s8.828,3.953,8.828,8.828V476.69z M220.69,476.69c0,4.875-3.953,8.828-8.828,8.828
	c-4.875,0-8.828-3.953-8.828-8.828V291.31c0-4.875,3.953-8.828,8.828-8.828c4.875,0,8.828,3.953,8.828,8.828V476.69z
	 M264.828,476.69c0,4.875-3.953,8.828-8.828,8.828s-8.828-3.953-8.828-8.828V291.31c0-4.875,3.953-8.828,8.828-8.828
	s8.828,3.953,8.828,8.828V476.69z M308.966,476.69c0,4.875-3.953,8.828-8.828,8.828s-8.828-3.953-8.828-8.828V291.31
	c0-4.875,3.953-8.828,8.828-8.828s8.828,3.953,8.828,8.828V476.69z M353.103,476.69c0,4.875-3.953,8.828-8.828,8.828
	c-4.875,0-8.828-3.953-8.828-8.828V291.31c0-4.875,3.953-8.828,8.828-8.828c4.875,0,8.828,3.953,8.828,8.828V476.69z
	 M397.241,476.69c0,4.875-3.953,8.828-8.828,8.828s-8.828-3.953-8.828-8.828V291.31c0-4.875,3.953-8.828,8.828-8.828
	s8.828,3.953,8.828,8.828V476.69z M441.379,476.69c0,4.875-3.953,8.828-8.828,8.828s-8.828-3.953-8.828-8.828V291.31
	c0-4.875,3.953-8.828,8.828-8.828s8.828,3.953,8.828,8.828V476.69z"/>
<polygon style="fill:#BE4B50;" points="501.219,264.828 503.172,238.345 8.828,238.345 10.781,264.828 "/>
<path style="fill:#FF6464;" d="M503.172,247.172H8.828c-4.875,0-8.828-3.953-8.828-8.828v-35.31c0-4.875,3.953-8.828,8.828-8.828
	h494.345c4.875,0,8.828,3.953,8.828,8.828v35.31C512,243.22,508.047,247.172,503.172,247.172z"/>
<circle style="fill:#5B5D6E;" cx="256" cy="220.69" r="13.241"/>
<g>
</g>
<g>
</g>
<g>
</g>
<g>
</g>
<g>
</g>
<g>
</g>
<g>
</g>
<g>
</g>
<g>
</g>
<g>
</g>
<g>
</g>
<g>
</g>
<g>
</g>
<g>
</g>
<g>
</g>
</svg>
