<?xml version="1.0" encoding="iso-8859-1"?>
<!-- Generator: Adobe Illustrator 19.0.0, SVG Export Plug-In . SVG Version: 6.00 Build 0)  -->
<svg version="1.1" id="Layer_1" xmlns="http://www.w3.org/2000/svg" xmlns:xlink="http://www.w3.org/1999/xlink" x="0px" y="0px"
	 viewBox="0 0 512 512" style="enable-background:new 0 0 512 512;" xml:space="preserve">
<path style="fill:#EBD2AF;" d="M485.517,441.379H26.483c-9.751,0-17.655-7.904-17.655-17.655V150.069h494.345v273.655
	C503.172,433.474,495.267,441.379,485.517,441.379z"/>
<rect x="8.828" y="150.069" style="fill:#E1C3A0;" width="494.345" height="26.483"/>
<path style="fill:#F0DCBE;" d="M503.172,158.897H8.828c-4.875,0-8.828-3.953-8.828-8.828V88.276c0-9.751,7.904-17.655,17.655-17.655
	h476.69c9.751,0,17.655,7.904,17.655,17.655v61.793C512,154.944,508.047,158.897,503.172,158.897z"/>
<path style="fill:#B99678;" d="M317.793,194.207H194.207c-9.751,0-17.655,7.904-17.655,17.655l0,0
	c0,9.751,7.904,17.655,17.655,17.655h123.586c9.751,0,17.655-7.904,17.655-17.655l0,0
	C335.448,202.111,327.543,194.207,317.793,194.207z"/>
<g>
</g>
<g>
</g>
<g>
</g>
<g>
</g>
<g>
</g>
<g>
</g>
<g>
</g>
<g>
</g>
<g>
</g>
<g>
</g>
<g>
</g>
<g>
</g>
<g>
</g>
<g>
</g>
<g>
</g>
</svg>
