<?xml version="1.0" encoding="iso-8859-1"?>
<!-- Generator: Adobe Illustrator 19.0.0, SVG Export Plug-In . SVG Version: 6.00 Build 0)  -->
<svg version="1.1" id="Layer_1" xmlns="http://www.w3.org/2000/svg" xmlns:xlink="http://www.w3.org/1999/xlink" x="0px" y="0px"
	 viewBox="0 0 512 512" style="enable-background:new 0 0 512 512;" xml:space="preserve">
<path style="fill:#EBD2AF;" d="M282.483,225.103H88.276c-4.875,0-8.828,3.953-8.828,8.828v194.207c0,4.875,3.953,8.828,8.828,8.828
	h194.207c4.875,0,8.828-3.953,8.828-8.828V233.931C291.31,229.056,287.358,225.103,282.483,225.103z"/>
<rect x="105.931" y="251.586" style="fill:#DEC3A1;" width="158.897" height="158.897"/>
<g>
	<rect x="105.931" y="278.069" style="fill:#D2B493;" width="158.897" height="17.655"/>
	<rect x="105.931" y="366.345" style="fill:#D2B493;" width="158.897" height="17.655"/>
	<rect x="105.931" y="322.207" style="fill:#D2B493;" width="158.897" height="17.655"/>
</g>
<path style="fill:#F0DCBE;" d="M291.31,216.276V22.069c0-4.875-3.953-8.828-8.828-8.828H88.276c-4.875,0-8.828,3.953-8.828,8.828
	v194.207c0,4.875,3.953,8.828,8.828,8.828h194.207C287.358,225.103,291.31,221.151,291.31,216.276z"/>
<rect x="105.931" y="39.724" style="fill:#EBD2AF;" width="158.897" height="158.897"/>
<g>
	<rect x="220.69" y="39.724" style="fill:#D2B493;" width="17.655" height="158.897"/>
	<rect x="132.414" y="39.724" style="fill:#D2B493;" width="17.655" height="158.897"/>
	<rect x="176.552" y="39.724" style="fill:#D2B493;" width="17.655" height="158.897"/>
</g>
<circle style="fill:#5B5D6E;" cx="472.276" cy="476.69" r="22.069"/>
<path style="fill:#C7CFE2;" d="M472.276,483.862L472.276,483.862c-4.427,0-8.238-3.125-9.107-7.466l-6.121-30.603h30.455
	l-6.121,30.603C480.514,480.737,476.703,483.862,472.276,483.862z"/>
<path style="fill:#A2AAC2;" d="M503.172,454.621H52.966c-4.879,0-8.828-3.948-8.828-8.828V133.802
	c0-7.078-2.759-13.732-7.758-18.733L2.586,81.276c-3.448-3.448-3.448-9.034,0-12.482c3.448-3.448,9.034-3.448,12.482,0
	l33.793,33.793c8.337,8.335,12.931,19.422,12.931,31.215v303.164h441.379c4.879,0,8.828,3.948,8.828,8.828
	C512,450.673,508.052,454.621,503.172,454.621z"/>
<circle style="fill:#5B5D6E;" cx="44.138" cy="454.621" r="44.138"/>
<g>
	<circle style="fill:#FF6464;" cx="44.138" cy="454.621" r="26.483"/>
	<path style="fill:#FF6464;" d="M35.31,110.345c-2.259,0-4.518-0.862-6.241-2.586L2.586,81.276c-3.448-3.448-3.448-9.034,0-12.482
		c3.448-3.448,9.034-3.448,12.482,0l26.483,26.483c3.448,3.448,3.448,9.035,0,12.483C39.828,109.483,37.569,110.345,35.31,110.345z"
		/>
</g>
<path style="fill:#F0DCBE;" d="M432.552,428.138V145.655c0-4.875-3.953-8.828-8.828-8.828H300.138c-4.875,0-8.828,3.953-8.828,8.828
	v282.483c0,4.875,3.953,8.828,8.828,8.828h123.586C428.599,436.966,432.552,433.013,432.552,428.138z"/>
<rect x="317.793" y="163.31" style="fill:#EBD2AF;" width="88.276" height="247.172"/>
<g>
	<rect x="317.793" y="189.793" style="fill:#D2B493;" width="88.276" height="17.655"/>
	<rect x="317.793" y="233.931" style="fill:#D2B493;" width="88.276" height="17.655"/>
	<rect x="317.793" y="278.069" style="fill:#D2B493;" width="88.276" height="17.655"/>
	<rect x="317.793" y="322.207" style="fill:#D2B493;" width="88.276" height="17.655"/>
	<rect x="317.793" y="366.345" style="fill:#D2B493;" width="88.276" height="17.655"/>
</g>
<circle style="fill:#D2555A;" cx="44.138" cy="454.621" r="8.828"/>
<g>
</g>
<g>
</g>
<g>
</g>
<g>
</g>
<g>
</g>
<g>
</g>
<g>
</g>
<g>
</g>
<g>
</g>
<g>
</g>
<g>
</g>
<g>
</g>
<g>
</g>
<g>
</g>
<g>
</g>
</svg>
