<?xml version="1.0" encoding="iso-8859-1"?>
<!-- Generator: Adobe Illustrator 19.0.0, SVG Export Plug-In . SVG Version: 6.00 Build 0)  -->
<svg version="1.1" id="Layer_1" xmlns="http://www.w3.org/2000/svg" xmlns:xlink="http://www.w3.org/1999/xlink" x="0px" y="0px"
	 viewBox="0 0 512 512" style="enable-background:new 0 0 512 512;" xml:space="preserve">
<path style="fill:#B4E1FA;" d="M474.477,287.784l-37.512,30.009V220.69h35.31c4.875,0,8.828,3.953,8.828,8.828v44.48
	C481.103,279.36,478.665,284.433,474.477,287.784z"/>
<path style="fill:#A5D76E;" d="M474.477,243.646l-37.512,30.009v-97.103h35.31c4.875,0,8.828,3.953,8.828,8.828v44.48
	C481.103,235.222,478.665,240.295,474.477,243.646z"/>
<path style="fill:#FFE164;" d="M474.477,199.508l-37.512,30.009v-97.103h35.31c4.875,0,8.828,3.953,8.828,8.828v44.48
	C481.103,191.085,478.665,196.158,474.477,199.508z"/>
<path style="fill:#FFA05A;" d="M474.477,155.37l-37.512,30.009V88.276h35.31c4.875,0,8.828,3.953,8.828,8.828v44.48
	C481.103,146.947,478.665,152.02,474.477,155.37z"/>
<path style="fill:#FF6464;" d="M474.477,111.232l-37.512,30.009V44.138h35.31c4.875,0,8.828,3.953,8.828,8.828v44.48
	C481.103,102.809,478.665,107.882,474.477,111.232z"/>
<path style="fill:#C3E678;" d="M472.276,0H66.207c-4.875,0-8.828,3.953-8.828,8.828v494.345c0,4.875,3.953,8.828,8.828,8.828
	h379.586c4.875,0,8.828-3.953,8.828-8.828V91.465c0-5.364,2.438-10.436,6.626-13.786l13.23-10.584
	c4.188-3.351,6.626-8.424,6.626-13.786V8.828C481.103,3.953,477.151,0,472.276,0z"/>
<path style="fill:#8F96AC;" d="M136.828,512H66.207c-4.875,0-8.828-3.953-8.828-8.828V8.828C57.379,3.953,61.332,0,66.207,0h70.621
	V512z"/>
<g>
	<path style="fill:#C7CFE2;" d="M75.034,88.276h-35.31c-4.875,0-8.828-3.953-8.828-8.828c0-4.875,3.953-8.828,8.828-8.828h35.31
		c4.875,0,8.828,3.953,8.828,8.828C83.862,84.323,79.91,88.276,75.034,88.276z"/>
	<path style="fill:#C7CFE2;" d="M75.034,44.138h-35.31c-4.875,0-8.828-3.953-8.828-8.828s3.953-8.828,8.828-8.828h35.31
		c4.875,0,8.828,3.953,8.828,8.828S79.91,44.138,75.034,44.138z"/>
	<path style="fill:#C7CFE2;" d="M75.034,485.517h-35.31c-4.875,0-8.828-3.953-8.828-8.828c0-4.875,3.953-8.828,8.828-8.828h35.31
		c4.875,0,8.828,3.953,8.828,8.828C83.862,481.565,79.91,485.517,75.034,485.517z"/>
	<path style="fill:#C7CFE2;" d="M75.034,132.414h-35.31c-4.875,0-8.828-3.953-8.828-8.828c0-4.875,3.953-8.828,8.828-8.828h35.31
		c4.875,0,8.828,3.953,8.828,8.828C83.862,128.461,79.91,132.414,75.034,132.414z"/>
	<path style="fill:#C7CFE2;" d="M75.034,176.552h-35.31c-4.875,0-8.828-3.953-8.828-8.828s3.953-8.828,8.828-8.828h35.31
		c4.875,0,8.828,3.953,8.828,8.828S79.91,176.552,75.034,176.552z"/>
	<path style="fill:#C7CFE2;" d="M75.034,220.69h-35.31c-4.875,0-8.828-3.953-8.828-8.828c0-4.875,3.953-8.828,8.828-8.828h35.31
		c4.875,0,8.828,3.953,8.828,8.828C83.862,216.737,79.91,220.69,75.034,220.69z"/>
	<path style="fill:#C7CFE2;" d="M75.034,264.828h-35.31c-4.875,0-8.828-3.953-8.828-8.828s3.953-8.828,8.828-8.828h35.31
		c4.875,0,8.828,3.953,8.828,8.828S79.91,264.828,75.034,264.828z"/>
	<path style="fill:#C7CFE2;" d="M75.034,308.966h-35.31c-4.875,0-8.828-3.953-8.828-8.828s3.953-8.828,8.828-8.828h35.31
		c4.875,0,8.828,3.953,8.828,8.828S79.91,308.966,75.034,308.966z"/>
	<path style="fill:#C7CFE2;" d="M75.034,353.103h-35.31c-4.875,0-8.828-3.953-8.828-8.828c0-4.875,3.953-8.828,8.828-8.828h35.31
		c4.875,0,8.828,3.953,8.828,8.828C83.862,349.151,79.91,353.103,75.034,353.103z"/>
	<path style="fill:#C7CFE2;" d="M75.034,397.241h-35.31c-4.875,0-8.828-3.953-8.828-8.828s3.953-8.828,8.828-8.828h35.31
		c4.875,0,8.828,3.953,8.828,8.828S79.91,397.241,75.034,397.241z"/>
	<path style="fill:#C7CFE2;" d="M75.034,441.379h-35.31c-4.875,0-8.828-3.953-8.828-8.828s3.953-8.828,8.828-8.828h35.31
		c4.875,0,8.828,3.953,8.828,8.828S79.91,441.379,75.034,441.379z"/>
</g>
<path style="fill:#707487;" d="M110.345,494.345L110.345,494.345c-4.875,0-8.828-3.953-8.828-8.828V26.483
	c0-4.875,3.953-8.828,8.828-8.828l0,0c4.875,0,8.828,3.953,8.828,8.828v459.034C119.172,490.392,115.22,494.345,110.345,494.345z"/>
<path style="fill:#EBF5AA;" d="M395.063,326.961l-53.087-30.566c-5.151-2.966-11.651-2.107-15.853,2.097l-10.456,10.456
	c-4.03,4.03-10.447,4.396-14.888,0.823c-8.199-6.596-16.393-13.938-24.403-21.948c-8.011-8.011-15.351-16.205-21.948-24.403
	c-3.573-4.44-3.207-10.858,0.823-14.888l10.456-10.456c4.203-4.203,5.063-10.702,2.097-15.853l-30.566-53.087
	c-4.316-7.496-14.57-8.852-20.686-2.735l-15.756,15.756c-20.533,20.533,3.394,77.752,53.444,127.802s107.269,73.978,127.803,53.444
	l15.756-15.756C403.915,341.53,402.559,331.276,395.063,326.961z"/>
<path style="fill:#A5D76E;" d="M225.827,162.548c4.49,0,8.931,2.28,11.411,6.588l30.566,53.087
	c2.966,5.151,2.105,11.651-2.097,15.853l-10.456,10.456c-4.03,4.03-4.396,10.447-0.823,14.888
	c6.596,8.199,13.937,16.393,21.948,24.403c8.011,8.011,16.205,15.351,24.404,21.949c2.047,1.647,4.513,2.457,6.973,2.457
	c2.876,0,5.742-1.108,7.915-3.281l10.456-10.456c2.531-2.531,5.897-3.851,9.299-3.851c2.246,0,4.507,0.575,6.554,1.753
	l53.087,30.566c7.496,4.317,8.852,14.571,2.735,20.686l-15.756,15.756c-4.991,4.992-12.151,7.356-20.849,7.356
	c-27.081,0-69.071-22.919-106.954-60.801c-50.05-50.05-73.978-107.27-53.446-127.802l15.756-15.756
	C219.153,163.797,222.503,162.548,225.827,162.548 M225.828,144.893L225.828,144.893c-8.214,0-15.943,3.203-21.761,9.023
	l-15.756,15.756c-24.68,24.679-14.247,85.08,53.446,152.77c40.693,40.693,86.458,65.972,119.437,65.972
	c17.196,0,27.618-6.812,33.333-12.527l15.756-15.756c6.83-6.83,10.022-16.239,8.756-25.816c-1.266-9.577-6.794-17.834-15.165-22.654
	l-53.088-30.566c-4.669-2.688-9.981-4.108-15.363-4.108c-8.23,0-15.967,3.204-21.784,9.022l-6.298,6.3
	c-6.3-5.297-12.498-10.987-18.481-16.969c-5.983-5.983-11.673-12.181-16.968-18.479l6.3-6.301
	c9.827-9.826,11.848-25.102,4.914-37.146l-30.567-53.087C247.057,150.807,236.822,144.894,225.828,144.893L225.828,144.893
	L225.828,144.893z"/>
<g>
</g>
<g>
</g>
<g>
</g>
<g>
</g>
<g>
</g>
<g>
</g>
<g>
</g>
<g>
</g>
<g>
</g>
<g>
</g>
<g>
</g>
<g>
</g>
<g>
</g>
<g>
</g>
<g>
</g>
</svg>
