<?xml version="1.0" encoding="iso-8859-1"?>
<!-- Generator: Adobe Illustrator 19.0.0, SVG Export Plug-In . SVG Version: 6.00 Build 0)  -->
<svg version="1.1" id="Layer_1" xmlns="http://www.w3.org/2000/svg" xmlns:xlink="http://www.w3.org/1999/xlink" x="0px" y="0px"
	 viewBox="0 0 512 512" style="enable-background:new 0 0 512 512;" xml:space="preserve">
<path style="fill:#707487;" d="M167.724,163.31c-2.44,0-4.414-1.974-4.414-4.414v-45.651c0-5.897,2.293-11.439,6.465-15.608
	l8.07-8.07c1.725-1.725,4.518-1.725,6.241,0s1.725,4.518,0,6.241l-8.07,8.07c-2.5,2.505-3.88,5.827-3.88,9.366v45.652
	C172.138,161.336,170.164,163.31,167.724,163.31z"/>
<path style="fill:#5B5D6E;" d="M180.966,101.517c-2.259,0-4.518-0.862-6.241-2.586c-3.448-3.448-3.448-9.035,0-12.483l4.414-4.414
	c3.448-3.448,9.035-3.448,12.483,0c3.448,3.448,3.448,9.035,0,12.483l-4.414,4.414C185.483,100.655,183.224,101.517,180.966,101.517
	z"/>
<path style="fill:#E1C3A0;" d="M338.158,229.517H173.842c-3.68,0-6.974-2.283-8.266-5.728l-24.334-64.893h229.517l-24.334,64.893
	C345.132,227.234,341.838,229.517,338.158,229.517z"/>
<path style="fill:#EBD2AF;" d="M326.621,476.69H185.379V194.207c0-4.875,3.953-8.828,8.828-8.828h123.586
	c4.875,0,8.828,3.953,8.828,8.828V476.69z"/>
<path style="fill:#F0DCBE;" d="M344.276,512H167.724c-4.875,0-8.828-3.953-8.828-8.828V476.69c0-4.875,3.953-8.828,8.828-8.828
	h176.552c4.875,0,8.828,3.953,8.828,8.828v26.483C353.103,508.047,349.151,512,344.276,512z"/>
<path style="fill:#FFF5C8;" d="M282.483,247.172h-52.966c-4.875,0-8.828-3.953-8.828-8.828V220.69c0-4.875,3.953-8.828,8.828-8.828
	h52.966c4.875,0,8.828,3.953,8.828,8.828v17.655C291.31,243.22,287.358,247.172,282.483,247.172z"/>
<polygon style="fill:#D29B6E;" points="277.601,97.888 277.601,78.856 234.399,78.856 234.399,97.888 256,119.64 "/>
<path style="fill:#707487;" d="M310.464,101.319l-29.409-6.596c-0.444-0.099-0.853-0.268-1.235-0.473L256,107.494l-22.891-13.885
	c-0.593,0.532-1.329,0.927-2.164,1.114l-29.409,6.596c-4.295,0.962-7.329,4.616-7.329,8.82v39.929c0,2.503,2.129,4.531,4.754,4.531
	h114.08c2.625,0,4.754-2.028,4.754-4.531V110.14C317.793,105.935,314.759,102.282,310.464,101.319z"/>
<g>
	<path style="fill:#5B5D6E;" d="M300.345,117.711l15.401-13.187c1.291,1.558,2.047,3.518,2.047,5.615v39.929
		c0,2.503-2.129,4.531-4.754,4.531h-16.637v-28.462C296.403,122.923,297.836,119.86,300.345,117.711z"/>
	<path style="fill:#5B5D6E;" d="M211.655,117.711l-15.401-13.187c-1.291,1.558-2.047,3.518-2.047,5.615v39.929
		c0,2.503,2.129,4.531,4.754,4.531h16.637v-28.462C215.597,122.923,214.164,119.86,211.655,117.711z"/>
	<polygon style="fill:#5B5D6E;" points="261.942,154.6 250.058,154.6 251.543,107.417 260.456,107.417 	"/>
	<path style="fill:#5B5D6E;" d="M234.276,88.857L256,107.494c0,0-6.083,2.927-13.591,8.828c-1.549,1.217-3.892,0.724-4.722-1.017
		l-10.206-21.402l3.229-4.617C231.512,88.136,233.199,87.934,234.276,88.857z"/>
	<path style="fill:#5B5D6E;" d="M277.724,88.857L256,107.494c0,0,6.083,2.927,13.591,8.828c1.549,1.217,3.892,0.724,4.722-1.017
		l10.206-21.402l-3.229-4.617C280.488,88.136,278.801,87.934,277.724,88.857z"/>
</g>
<path style="fill:#694B4B;" d="M264.828,0h-17.655c-14.626,0-26.483,11.857-26.483,26.483v19.17c0,4.682,1.86,9.173,5.171,12.484
	l3.657,3.656h52.966l3.657-3.657c3.311-3.311,5.171-7.801,5.171-12.484V26.483C291.31,11.857,279.454,0,264.828,0z"/>
<path style="fill:#F0C087;" d="M228.577,45.476l1.131,25.446c0.177,3.969,2.08,7.65,5.19,10.034l8.963,6.872
	c2.251,1.726,4.99,2.659,7.804,2.659h8.671c2.814,0,5.553-0.934,7.804-2.659l8.963-6.872c3.109-2.385,5.013-6.065,5.19-10.034
	l1.131-25.446c0.413-9.284-6.838-17.043-15.928-17.043h-22.987C235.416,28.434,228.164,36.192,228.577,45.476z"/>
<path style="fill:#F0DCBE;" d="M361.931,150.069H150.069c-4.875,0-8.828,3.953-8.828,8.828l0,0c0,4.875,3.953,8.828,8.828,8.828
	h211.862c4.875,0,8.828-3.953,8.828-8.828l0,0C370.759,154.022,366.806,150.069,361.931,150.069z"/>
<g>
</g>
<g>
</g>
<g>
</g>
<g>
</g>
<g>
</g>
<g>
</g>
<g>
</g>
<g>
</g>
<g>
</g>
<g>
</g>
<g>
</g>
<g>
</g>
<g>
</g>
<g>
</g>
<g>
</g>
</svg>
