<?xml version="1.0" encoding="iso-8859-1"?>
<!-- Generator: Adobe Illustrator 19.0.0, SVG Export Plug-In . SVG Version: 6.00 Build 0)  -->
<svg version="1.1" id="Layer_1" xmlns="http://www.w3.org/2000/svg" xmlns:xlink="http://www.w3.org/1999/xlink" x="0px" y="0px"
	 viewBox="0 0 512 512" style="enable-background:new 0 0 512 512;" xml:space="preserve">
<polygon style="fill:#C7CFE2;" points="367.396,150.354 352.5,140.879 378.677,99.737 393.574,109.212 "/>
<path style="fill:#D7DEED;" d="M402.025,119.829l4.744-7.452c2.618-4.113,1.407-9.569-2.706-12.188l-21.641-13.778
	c-4.113-2.618-9.569-1.407-12.188,2.706l-4.744,7.452c-2.618,4.113-1.407,9.569,2.706,12.188l21.641,13.778
	C393.95,125.153,399.406,123.942,402.025,119.829z"/>
<polygon style="fill:#C7CFE2;" points="144.604,150.354 118.426,109.212 133.323,99.737 159.5,140.879 "/>
<path style="fill:#D7DEED;" d="M256,105.931c-29.207,0-52.966-23.758-52.966-52.966S226.793,0,256,0s52.966,23.758,52.966,52.966
	S285.207,105.931,256,105.931z M256,17.655c-19.474,0-35.31,15.837-35.31,35.31s15.837,35.31,35.31,35.31s35.31-15.837,35.31-35.31
	S275.474,17.655,256,17.655z"/>
<rect x="247.172" y="61.793" style="fill:#C7CFE2;" width="17.655" height="52.966"/>
<g>
	<circle style="fill:#D7DEED;" cx="256" cy="308.966" r="203.034"/>
	<path style="fill:#D7DEED;" d="M269.241,70.621h-26.483c-4.875,0-8.828-3.953-8.828-8.828v-8.828c0-4.875,3.953-8.828,8.828-8.828
		h26.483c4.875,0,8.828,3.953,8.828,8.828v8.828C278.069,66.668,274.116,70.621,269.241,70.621z"/>
</g>
<circle style="fill:#C7CFE2;" cx="256" cy="308.966" r="185.379"/>
<circle style="fill:#FFFFFF;" cx="256" cy="308.966" r="167.724"/>
<path style="fill:#FFCDCD;" d="M349.63,402.595c23.962-23.961,38.784-57.065,38.784-93.63c0-73.13-59.284-132.414-132.414-132.414
	v132.414L349.63,402.595z"/>
<path style="fill:#D7DEED;" d="M109.975,119.829l-4.744-7.452c-2.618-4.113-1.407-9.569,2.706-12.188l21.641-13.778
	c4.113-2.618,9.569-1.407,12.188,2.706l4.744,7.452c2.618,4.113,1.407,9.569-2.706,12.188l-21.641,13.778
	C118.049,125.153,112.593,123.942,109.975,119.829z"/>
<g>
	<path style="fill:#5B5D6E;" d="M256,158.897L256,158.897c-4.875,0-8.828,3.953-8.828,8.828v17.655c0,4.875,3.953,8.828,8.828,8.828
		l0,0c4.875,0,8.828-3.953,8.828-8.828v-17.655C264.828,162.849,260.875,158.897,256,158.897z"/>
	<path style="fill:#5B5D6E;" d="M256,423.724L256,423.724c-4.875,0-8.828,3.953-8.828,8.828v17.655c0,4.875,3.953,8.828,8.828,8.828
		l0,0c4.875,0,8.828-3.953,8.828-8.828v-17.655C264.828,427.677,260.875,423.724,256,423.724z"/>
	<path style="fill:#5B5D6E;" d="M406.069,308.966L406.069,308.966c0-4.875-3.953-8.828-8.828-8.828h-17.655
		c-4.875,0-8.828,3.953-8.828,8.828l0,0c0,4.875,3.953,8.828,8.828,8.828h17.655C402.116,317.793,406.069,313.841,406.069,308.966z"
		/>
	<path style="fill:#5B5D6E;" d="M141.241,308.966L141.241,308.966c0-4.875-3.953-8.828-8.828-8.828h-17.655
		c-4.875,0-8.828,3.953-8.828,8.828l0,0c0,4.875,3.953,8.828,8.828,8.828h17.655C137.289,317.793,141.241,313.841,141.241,308.966z"
		/>
</g>
<g>
	<path style="fill:#8F96AC;" d="M180.966,438.929L180.966,438.929c4.222,2.438,9.621,0.991,12.058-3.231l8.828-15.289
		c2.438-4.222,0.991-9.621-3.231-12.059l0,0c-4.222-2.438-9.621-0.991-12.058,3.231l-8.828,15.289
		C175.297,431.092,176.744,436.491,180.966,438.929z"/>
	<path style="fill:#8F96AC;" d="M313.379,209.581L313.379,209.581c4.222,2.438,9.621,0.991,12.059-3.231l8.828-15.289
		c2.438-4.222,0.991-9.621-3.231-12.058l0,0c-4.222-2.438-9.621-0.991-12.059,3.231l-8.828,15.289
		C307.711,201.745,309.158,207.144,313.379,209.581z"/>
	<path style="fill:#8F96AC;" d="M126.037,233.931L126.037,233.931c-2.438,4.222-0.991,9.621,3.231,12.058l15.289,8.828
		c4.222,2.438,9.621,0.991,12.058-3.231l0,0c2.438-4.222,0.991-9.621-3.231-12.058l-15.289-8.828
		C133.873,228.263,128.474,229.709,126.037,233.931z"/>
	<path style="fill:#8F96AC;" d="M355.384,366.345L355.384,366.345c-2.438,4.222-0.991,9.621,3.231,12.059l15.289,8.828
		c4.222,2.438,9.621,0.991,12.058-3.231l0,0c2.438-4.222,0.991-9.621-3.231-12.059l-15.289-8.828
		C363.22,360.676,357.822,362.123,355.384,366.345z"/>
	<path style="fill:#8F96AC;" d="M331.034,438.929L331.034,438.929c-4.222,2.438-9.621,0.991-12.059-3.231l-8.828-15.289
		c-2.438-4.222-0.991-9.621,3.231-12.059l0,0c4.222-2.438,9.621-0.991,12.059,3.231l8.828,15.289
		C336.703,431.092,335.256,436.491,331.034,438.929z"/>
	<path style="fill:#8F96AC;" d="M198.621,209.581L198.621,209.581c-4.222,2.438-9.621,0.991-12.058-3.231l-8.828-15.289
		c-2.438-4.222-0.991-9.621,3.231-12.058l0,0c4.222-2.438,9.621-0.991,12.058,3.231l8.828,15.289
		C204.289,201.745,202.842,207.144,198.621,209.581z"/>
	<path style="fill:#8F96AC;" d="M385.963,233.931L385.963,233.931c2.438,4.222,0.991,9.621-3.231,12.058l-15.289,8.828
		c-4.222,2.438-9.621,0.991-12.059-3.231l0,0c-2.438-4.222-0.991-9.621,3.231-12.058l15.289-8.828
		C378.126,228.263,383.526,229.709,385.963,233.931z"/>
	<path style="fill:#8F96AC;" d="M156.616,366.345L156.616,366.345c2.438,4.222,0.991,9.621-3.231,12.059l-15.289,8.828
		c-4.222,2.438-9.621,0.991-12.058-3.231l0,0c-2.438-4.222-0.991-9.621,3.231-12.059l15.289-8.828
		C148.779,360.676,154.178,362.123,156.616,366.345z"/>
</g>
<path style="fill:#FF6464;" d="M353.103,414.897c-2.259,0-4.518-0.862-6.241-2.586L232.104,297.551
	c-3.448-3.448-3.448-9.035,0-12.483s9.035-3.448,12.483,0l114.759,114.759c3.448,3.448,3.448,9.035,0,12.483
	C357.621,414.035,355.362,414.897,353.103,414.897z"/>
<circle style="fill:#C7CFE2;" cx="256" cy="308.966" r="17.655"/>
<g>
</g>
<g>
</g>
<g>
</g>
<g>
</g>
<g>
</g>
<g>
</g>
<g>
</g>
<g>
</g>
<g>
</g>
<g>
</g>
<g>
</g>
<g>
</g>
<g>
</g>
<g>
</g>
<g>
</g>
</svg>
