<?xml version="1.0" encoding="iso-8859-1"?>
<!-- Generator: Adobe Illustrator 19.0.0, SVG Export Plug-In . SVG Version: 6.00 Build 0)  -->
<svg version="1.1" id="Layer_1" xmlns="http://www.w3.org/2000/svg" xmlns:xlink="http://www.w3.org/1999/xlink" x="0px" y="0px"
	 viewBox="0 0 511.998 511.998" style="enable-background:new 0 0 511.998 511.998;" xml:space="preserve">
<path style="fill:#EFF2FA;" d="M303.684,214.136c0.974-2.108,6.026-9.551,30.25-16.866c27.31-8.25,63.552-11.853,91.164-11.853
	c19.121,0,34.094,1.728,39.129,4.832c13.37,8.237,19.207,57.452,0.905,100.242c-15.577,36.444-97.888,40.104-119.561,32.966
	c-10.457-3.462-24.509-21.393-34.164-43.612C300.202,254.075,297.176,228.282,303.684,214.136z"/>
<path style="fill:#E4EAF6;" d="M447.585,308.088c18.302-42.788,12.466-92.004-0.905-100.242c-5.035-3.104-20.009-4.832-39.129-4.832
	c-27.612,0-63.853,3.604-91.164,11.853c-6.028,1.82-10.862,3.648-14.749,5.4c0.527-2.219,1.196-4.285,2.046-6.133
	c0.974-2.108,6.026-9.551,30.25-16.866c27.31-8.25,63.552-11.853,91.164-11.853c19.121,0,34.094,1.728,39.129,4.832
	c13.37,8.237,19.207,57.452,0.905,100.242c-3.401,7.956-10.094,14.268-18.53,19.327C446.9,309.224,447.324,308.698,447.585,308.088z
	"/>
<path style="fill:#EFF2FA;" d="M200.698,279.997c-9.655,22.22-23.706,40.151-34.164,43.612
	c-21.673,7.138-103.982,3.478-119.561-32.966c-18.302-42.788-12.466-92.004,0.905-100.242c5.035-3.103,20.009-4.832,39.129-4.832
	c27.612,0,63.853,3.604,91.164,11.853c24.224,7.315,29.276,14.759,30.25,16.866C214.931,228.437,211.905,254.23,200.698,279.997z"/>
<path style="fill:#5B5D6E;" d="M503.172,176.531h-28.068c-0.576-0.423-1.107-0.94-1.708-1.311
	c-19.215-11.837-97.621-9.06-144.672,5.146c-4.246,1.282-8.169,2.626-11.774,4.035c-8.214,3.213-16.615,6.008-25.343,7.281
	c-11.015,1.606-23.008,2.504-35.607,2.504c-12.598,0-24.59-0.897-35.606-2.503c-8.729-1.271-17.131-4.067-25.346-7.281
	c-3.605-1.41-7.527-2.754-11.772-4.035c-47.034-14.207-125.448-16.983-144.664-5.151c-0.604,0.372-1.135,0.89-1.714,1.314H8.828
	c-4.875,0-8.828,3.953-8.828,8.828v19.734c0,4.215,2.108,8.152,5.614,10.492l8.164,5.443c2.547,1.698,3.955,4.552,3.86,7.61
	c-0.671,21.673,3.566,46.497,13.094,68.789c15.371,35.944,68.733,46.767,106.974,46.767c14.69,0,27.155-1.595,34.362-3.982
	c18.638-6.159,35.371-31.586,44.828-53.332c8.099-18.634,12.279-36.801,12.49-52.509c0.041-3.039,1.512-5.81,4.073-7.447
	c6.081-3.885,13.905-6.255,22.54-6.255c8.636,0,16.46,2.37,22.54,6.255c2.561,1.636,4.032,4.407,4.073,7.447
	c0.211,15.708,4.391,33.875,12.49,52.509c9.457,21.746,26.189,47.172,44.828,53.332c7.207,2.388,19.663,3.982,34.362,3.982
	c38.241,0,91.604-10.828,106.974-46.767c9.527-22.293,13.766-47.117,13.095-68.79c-0.095-3.059,1.313-5.912,3.86-7.61l8.163-5.442
	c3.508-2.339,5.614-6.276,5.614-10.492v-19.734C512,180.484,508.047,176.531,503.172,176.531z M200.698,279.842
	c-9.655,22.22-23.706,40.151-34.164,43.612c-21.673,7.138-103.982,3.478-119.561-32.966c-18.302-42.788-12.466-92.004,0.905-100.242
	c5.035-3.104,20.009-4.832,39.129-4.832c27.612,0,63.853,3.604,91.164,11.853c24.224,7.315,29.276,14.759,30.25,16.866
	C214.931,228.282,211.905,254.075,200.698,279.842z M465.026,290.489c-15.577,36.452-97.888,40.095-119.561,32.966
	c-10.457-3.461-24.509-21.393-34.164-43.612c-11.207-25.768-14.232-51.561-7.724-65.707c0.974-2.108,6.026-9.551,30.25-16.866
	c46.216-13.961,117.983-14.621,130.302-7.017C477.491,198.485,483.328,247.701,465.026,290.489z"/>
<path style="fill:#E4EAF6;" d="M64.522,308.088c-18.302-42.788-12.466-92.004,0.905-100.242c5.035-3.104,20.009-4.832,39.129-4.832
	c27.612,0,63.853,3.604,91.164,11.853c6.028,1.82,10.862,3.648,14.749,5.4c-0.527-2.219-1.196-4.285-2.046-6.133
	c-0.974-2.108-6.026-9.551-30.25-16.866c-27.31-8.25-63.552-11.853-91.164-11.853c-19.121,0-34.094,1.728-39.129,4.832
	c-13.37,8.237-19.207,57.452-0.905,100.242c3.401,7.956,10.094,14.268,18.53,19.327C65.207,309.224,64.782,308.698,64.522,308.088z"
	/>
<g>
	<circle style="fill:#FFFFFF;" cx="145.655" cy="287.029" r="22.069"/>
	<circle style="fill:#FFFFFF;" cx="112.519" cy="253.892" r="10.996"/>
	<circle style="fill:#FFFFFF;" cx="406.069" cy="287.029" r="22.069"/>
	<circle style="fill:#FFFFFF;" cx="372.921" cy="253.892" r="10.996"/>
</g>
<g>
</g>
<g>
</g>
<g>
</g>
<g>
</g>
<g>
</g>
<g>
</g>
<g>
</g>
<g>
</g>
<g>
</g>
<g>
</g>
<g>
</g>
<g>
</g>
<g>
</g>
<g>
</g>
<g>
</g>
</svg>
