<?xml version="1.0" encoding="iso-8859-1"?>
<!-- Generator: Adobe Illustrator 19.0.0, SVG Export Plug-In . SVG Version: 6.00 Build 0)  -->
<svg version="1.1" id="Layer_1" xmlns="http://www.w3.org/2000/svg" xmlns:xlink="http://www.w3.org/1999/xlink" x="0px" y="0px"
	 viewBox="0 0 512 512" style="enable-background:new 0 0 512 512;" xml:space="preserve">
<path style="fill:#5B5D6E;" d="M494.345,397.241H17.655C7.904,397.241,0,389.337,0,379.586V132.414
	c0-9.751,7.904-17.655,17.655-17.655h476.69c9.751,0,17.655,7.904,17.655,17.655v247.172
	C512,389.336,504.095,397.241,494.345,397.241z"/>
<circle style="fill:#FF6464;" cx="61.793" cy="176.552" r="26.483"/>
<g>
	<path style="fill:#D2555A;" d="M141.241,185.379h-17.655c-4.875,0-8.828-3.953-8.828-8.828l0,0c0-4.875,3.953-8.828,8.828-8.828
		h17.655c4.875,0,8.828,3.953,8.828,8.828l0,0C150.069,181.427,146.116,185.379,141.241,185.379z"/>
	<path style="fill:#D2555A;" d="M264.828,185.379h-88.276c-4.875,0-8.828-3.953-8.828-8.828l0,0c0-4.875,3.953-8.828,8.828-8.828
		h88.276c4.875,0,8.828,3.953,8.828,8.828l0,0C273.655,181.427,269.703,185.379,264.828,185.379z"/>
</g>
<g>
	<path style="fill:#D7DEED;" d="M300.138,247.172h158.897c4.875,0,8.828-3.953,8.828-8.828l0,0c0-4.875-3.953-8.828-8.828-8.828
		H300.138c-4.875,0-8.828,3.953-8.828,8.828l0,0C291.31,243.22,295.263,247.172,300.138,247.172z"/>
	<path style="fill:#D7DEED;" d="M247.172,282.483h211.862c4.875,0,8.828-3.953,8.828-8.828l0,0c0-4.875-3.953-8.828-8.828-8.828
		H247.172c-4.875,0-8.828,3.953-8.828,8.828l0,0C238.345,278.53,242.297,282.483,247.172,282.483z"/>
</g>
<g>
	<path style="fill:#C7CFE2;" d="M52.966,317.793h8.828c4.875,0,8.828-3.953,8.828-8.828l0,0c0-4.875-3.953-8.828-8.828-8.828h-8.828
		c-4.875,0-8.828,3.953-8.828,8.828l0,0C44.138,313.841,48.09,317.793,52.966,317.793z"/>
	<path style="fill:#C7CFE2;" d="M52.966,353.103h8.828c4.875,0,8.828-3.953,8.828-8.828l0,0c0-4.875-3.953-8.828-8.828-8.828h-8.828
		c-4.875,0-8.828,3.953-8.828,8.828l0,0C44.138,349.151,48.09,353.103,52.966,353.103z"/>
</g>
<g style="opacity:0.97;">
	<path style="fill:#AFB9D2;" d="M97.103,317.793h88.276c4.875,0,8.828-3.953,8.828-8.828l0,0c0-4.875-3.953-8.828-8.828-8.828
		H97.103c-4.875,0-8.828,3.953-8.828,8.828l0,0C88.276,313.841,92.228,317.793,97.103,317.793z"/>
</g>
<g style="opacity:0.97;">
	<path style="fill:#AFB9D2;" d="M97.103,353.103h105.931c4.875,0,8.828-3.953,8.828-8.828l0,0c0-4.875-3.953-8.828-8.828-8.828
		H97.103c-4.875,0-8.828,3.953-8.828,8.828l0,0C88.276,349.151,92.228,353.103,97.103,353.103z"/>
</g>
<g>
</g>
<g>
</g>
<g>
</g>
<g>
</g>
<g>
</g>
<g>
</g>
<g>
</g>
<g>
</g>
<g>
</g>
<g>
</g>
<g>
</g>
<g>
</g>
<g>
</g>
<g>
</g>
<g>
</g>
</svg>
