<?xml version="1.0" encoding="iso-8859-1"?>
<!-- Generator: Adobe Illustrator 19.0.0, SVG Export Plug-In . SVG Version: 6.00 Build 0)  -->
<svg version="1.1" id="Layer_1" xmlns="http://www.w3.org/2000/svg" xmlns:xlink="http://www.w3.org/1999/xlink" x="0px" y="0px"
	 viewBox="0 0 512 512" style="enable-background:new 0 0 512 512;" xml:space="preserve">
<path style="fill:#EFF2FA;" d="M291.31,512H114.759c-14.626,0-26.483-11.857-26.483-26.483V132.414
	c0-14.626,11.857-26.483,26.483-26.483H291.31c14.626,0,26.483,11.857,26.483,26.483v353.103
	C317.793,500.143,305.937,512,291.31,512z"/>
<path style="fill:#C3E678;" d="M291.31,459.034H114.759c-4.875,0-8.828-3.953-8.828-8.828V167.724c0-4.875,3.953-8.828,8.828-8.828
	H291.31c4.875,0,8.828,3.953,8.828,8.828v282.483C300.138,455.082,296.185,459.034,291.31,459.034z"/>
<path style="fill:#A5D76E;" d="M300.138,250.834c-19.8-32.999-55.819-55.155-97.103-55.155s-77.303,22.156-97.103,55.155v116.265
	c19.8,32.999,55.819,55.155,97.103,55.155s77.303-22.156,97.103-55.155V250.834z"/>
<path style="fill:#C7CFE2;" d="M220.69,141.241h-35.31c-4.875,0-8.828-3.953-8.828-8.828l0,0c0-4.875,3.953-8.828,8.828-8.828h35.31
	c4.875,0,8.828,3.953,8.828,8.828l0,0C229.517,137.289,225.565,141.241,220.69,141.241z"/>
<path style="fill:#E4EAF6;" d="M211.862,503.172h-17.655c-9.751,0-17.655-7.904-17.655-17.655l0,0
	c0-9.751,7.904-17.655,17.655-17.655h17.655c9.751,0,17.655,7.904,17.655,17.655l0,0
	C229.517,495.267,221.613,503.172,211.862,503.172z"/>
<path style="fill:#959CB3;" d="M150.069,141.241L150.069,141.241c-4.875,0-8.828-3.953-8.828-8.828l0,0
	c0-4.875,3.953-8.828,8.828-8.828l0,0c4.875,0,8.828,3.953,8.828,8.828l0,0C158.897,137.289,154.944,141.241,150.069,141.241z"/>
<polygon style="fill:#D29B6E;" points="224.636,336.233 224.636,317.201 181.433,317.201 181.433,336.233 203.034,357.985 "/>
<path style="fill:#EFF2FA;" d="M257.498,339.663l-29.409-6.596c-0.444-0.099-0.853-0.268-1.235-0.473l-23.82,13.245l-22.891-13.885
	c-0.593,0.532-1.329,0.927-2.164,1.114l-29.409,6.596c-4.295,0.963-7.329,4.616-7.329,8.821v17.742c0,2.503,2.129,4.531,4.754,4.531
	h114.08c2.625,0,4.754-2.028,4.754-4.531v-17.742C264.828,344.279,261.793,340.627,257.498,339.663z"/>
<g>
	<path style="fill:#E4EAF6;" d="M247.38,356.056l15.401-13.187c1.291,1.558,2.047,3.518,2.047,5.615v17.742
		c0,2.503-2.129,4.531-4.754,4.531h-16.637v-6.276C243.437,361.268,244.871,358.205,247.38,356.056z"/>
	<path style="fill:#E4EAF6;" d="M158.689,356.056l-15.401-13.187c-1.291,1.558-2.047,3.518-2.047,5.615v17.742
		c0,2.503,2.129,4.531,4.754,4.531h16.637v-6.276C162.632,361.268,161.198,358.205,158.689,356.056z"/>
</g>
<polygon style="fill:#5B5D6E;" points="208.977,370.759 197.092,370.759 198.578,345.762 207.49,345.762 "/>
<g>
	<path style="fill:#E4EAF6;" d="M181.311,327.202l21.724,18.636c0,0-6.083,2.927-13.591,8.828c-1.549,1.217-3.892,0.724-4.722-1.017
		l-10.206-21.402l3.229-4.617C178.547,326.481,180.234,326.279,181.311,327.202z"/>
	<path style="fill:#E4EAF6;" d="M224.758,327.202l-21.724,18.636c0,0,6.083,2.927,13.591,8.828c1.549,1.217,3.892,0.724,4.722-1.017
		l10.206-21.402l-3.229-4.617C227.522,326.481,225.835,326.279,224.758,327.202z"/>
</g>
<path style="fill:#694B4B;" d="M211.862,238.345h-17.655c-14.626,0-26.483,11.857-26.483,26.483v19.17
	c0,4.682,1.86,9.173,5.171,12.484l3.657,3.656h52.966l3.657-3.657c3.311-3.311,5.171-7.801,5.171-12.484v-19.169
	C238.345,250.201,226.488,238.345,211.862,238.345z"/>
<path style="fill:#F0C087;" d="M175.612,283.821l1.131,25.445c0.177,3.969,2.08,7.65,5.19,10.035l8.963,6.872
	c2.251,1.726,4.99,2.659,7.804,2.659h8.671c2.814,0,5.553-0.934,7.804-2.659l8.963-6.872c3.109-2.385,5.013-6.065,5.19-10.035
	l1.131-25.445c0.413-9.284-6.838-17.043-15.928-17.043h-22.987C182.451,266.778,175.199,274.537,175.612,283.821z"/>
<g>
	<path style="fill:#E4EAF6;" d="M344.276,141.241c-4.875,0-8.828-3.953-8.828-8.828c0-24.339-19.801-44.138-44.138-44.138
		c-4.875,0-8.828-3.953-8.828-8.828c0-4.875,3.953-8.828,8.828-8.828c34.073,0,61.793,27.72,61.793,61.793
		C353.103,137.289,349.151,141.241,344.276,141.241z"/>
	<path style="fill:#E4EAF6;" d="M379.586,141.241c-4.875,0-8.828-3.953-8.828-8.828c0-43.808-35.642-79.448-79.448-79.448
		c-4.875,0-8.828-3.953-8.828-8.828s3.953-8.828,8.828-8.828c53.543,0,97.103,43.561,97.103,97.103
		C388.414,137.289,384.461,141.241,379.586,141.241z"/>
	<path style="fill:#E4EAF6;" d="M414.897,141.241c-4.875,0-8.828-3.953-8.828-8.828c0-63.278-51.478-114.759-114.759-114.759
		c-4.875,0-8.828-3.953-8.828-8.828S286.435,0,291.31,0c73.013,0,132.414,59.401,132.414,132.414
		C423.724,137.289,419.772,141.241,414.897,141.241z"/>
</g>
<g>
</g>
<g>
</g>
<g>
</g>
<g>
</g>
<g>
</g>
<g>
</g>
<g>
</g>
<g>
</g>
<g>
</g>
<g>
</g>
<g>
</g>
<g>
</g>
<g>
</g>
<g>
</g>
<g>
</g>
</svg>
