<?xml version="1.0" encoding="iso-8859-1"?>
<!-- Generator: Adobe Illustrator 19.0.0, SVG Export Plug-In . SVG Version: 6.00 Build 0)  -->
<svg version="1.1" id="Layer_1" xmlns="http://www.w3.org/2000/svg" xmlns:xlink="http://www.w3.org/1999/xlink" x="0px" y="0px"
	 viewBox="0 0 512 512" style="enable-background:new 0 0 512 512;" xml:space="preserve">
<path style="fill:#9B5A50;" d="M256.001,88.276c-92.631,0-167.724,75.093-167.724,167.724s75.093,167.724,167.724,167.724
	S423.725,348.631,423.725,256S348.632,88.276,256.001,88.276z M256.001,406.069c-82.881,0-150.069-67.188-150.069-150.069
	s67.188-150.069,150.069-150.069S406.07,173.119,406.07,256S338.882,406.069,256.001,406.069z"/>
<g>
	<path style="fill:#B9785F;" d="M131.042,348.531L92.817,370.6c-4.222,2.438-9.621,0.991-12.058-3.231l-34.402,19.862
		c-4.225,2.44-9.619,0.994-12.058-3.231c-2.44-4.225-0.994-9.619,3.231-12.059l34.402-19.862c-2.438-4.223-0.991-9.621,3.231-12.059
		l38.225-22.069c4.222-2.438,9.621-0.991,12.058,3.231l57.337-33.103c-2.438-4.223-0.991-9.621,3.231-12.058l22.935-13.241
		l17.655,30.58l-22.935,13.241c-4.222,2.438-9.621,0.991-12.058-3.231l-57.337,33.103
		C136.711,340.695,135.263,346.093,131.042,348.531z"/>
	<path style="fill:#B9785F;" d="M380.958,163.469l38.225-22.069c4.222-2.438,9.621-0.991,12.059,3.231l34.402-19.862
		c4.225-2.44,9.619-0.994,12.059,3.231s0.994,9.619-3.231,12.058l-34.402,19.862c2.438,4.222,0.991,9.621-3.231,12.058
		l-38.225,22.069c-4.222,2.438-9.621,0.991-12.059-3.231l-57.337,33.103c2.438,4.222,0.991,9.621-3.231,12.058l-22.935,13.241
		l-17.655-30.58l22.935-13.241c4.222-2.438,9.621-0.991,12.058,3.231l57.337-33.103C375.29,171.305,376.737,165.907,380.958,163.469
		z"/>
	<path style="fill:#B9785F;" d="M273.656,101.517V57.379c0-4.875-3.953-8.828-8.828-8.828V8.828c0-4.879-3.948-8.828-8.828-8.828
		c-4.879,0-8.828,3.948-8.828,8.828v39.724c-4.875,0-8.828,3.953-8.828,8.828v44.138c0,4.875,3.953,8.828,8.828,8.828v66.207
		c-4.875,0-8.828,3.953-8.828,8.828v26.483h35.31v-26.483c0-4.875-3.953-8.828-8.828-8.828v-66.207
		C269.703,110.345,273.656,106.392,273.656,101.517z"/>
	<path style="fill:#B9785F;" d="M238.345,410.483v44.138c0,4.875,3.953,8.828,8.828,8.828v39.724c0,4.879,3.948,8.828,8.828,8.828
		c4.879,0,8.828-3.948,8.828-8.828v-39.724c4.875,0,8.828-3.953,8.828-8.828v-44.138c0-4.875-3.953-8.828-8.828-8.828v-66.207
		c4.875,0,8.828-3.953,8.828-8.828v-26.483h-35.31v26.483c0,4.875,3.953,8.828,8.828,8.828v66.207
		C242.297,401.655,238.345,405.608,238.345,410.483z"/>
	<path style="fill:#B9785F;" d="M380.958,348.531l38.225,22.069c4.222,2.438,9.621,0.991,12.059-3.231l34.402,19.862
		c4.225,2.44,9.619,0.994,12.059-3.231c2.44-4.225,0.994-9.619-3.231-12.059l-34.402-19.862c2.438-4.223,0.991-9.621-3.231-12.059
		l-38.225-22.069c-4.222-2.438-9.621-0.991-12.059,3.231l-57.337-33.103c2.438-4.223,0.991-9.621-3.231-12.058l-22.935-13.241
		l-17.655,30.58l22.935,13.241c4.222,2.438,9.621,0.991,12.058-3.231l57.337,33.103C375.29,340.695,376.737,346.093,380.958,348.531
		z"/>
	<path style="fill:#B9785F;" d="M131.042,163.469L92.817,141.4c-4.222-2.438-9.621-0.991-12.058,3.231l-34.402-19.862
		c-4.225-2.44-9.619-0.994-12.058,3.231s-0.994,9.619,3.231,12.058l34.402,19.862c-2.438,4.222-0.991,9.621,3.231,12.058
		l38.225,22.069c4.222,2.438,9.621,0.991,12.058-3.231l57.337,33.103c-2.438,4.222-0.991,9.621,3.231,12.058l22.935,13.241
		l17.655-30.58l-22.935-13.241c-4.222-2.438-9.621-0.991-12.058,3.231l-57.337-33.103
		C136.711,171.305,135.263,165.907,131.042,163.469z"/>
</g>
<path style="fill:#AA6455;" d="M256.001,450.207c-107.09,0-194.207-87.117-194.207-194.207S148.911,61.793,256.001,61.793
	S450.207,148.91,450.207,256S363.089,450.207,256.001,450.207z M256.001,88.276c-92.482,0-167.724,75.241-167.724,167.724
	s75.241,167.724,167.724,167.724S423.725,348.482,423.725,256S348.483,88.276,256.001,88.276z"/>
<path style="fill:#FFD782;" d="M256.001,308.966c-29.207,0-52.966-23.758-52.966-52.966s23.758-52.966,52.966-52.966
	s52.966,23.758,52.966,52.966S285.208,308.966,256.001,308.966z M256.001,238.345c-9.732,0-17.655,7.923-17.655,17.655
	s7.923,17.655,17.655,17.655s17.655-7.923,17.655-17.655S265.733,238.345,256.001,238.345z"/>
<path style="fill:#FFC36E;" d="M256.001,220.69c-19.466,0-35.31,15.844-35.31,35.31s15.844,35.31,35.31,35.31
	s35.31-15.844,35.31-35.31S275.466,220.69,256.001,220.69z M256.001,273.655c-9.732,0-17.655-7.923-17.655-17.655
	s7.923-17.655,17.655-17.655s17.655,7.923,17.655,17.655S265.733,273.655,256.001,273.655z"/>
<g>
</g>
<g>
</g>
<g>
</g>
<g>
</g>
<g>
</g>
<g>
</g>
<g>
</g>
<g>
</g>
<g>
</g>
<g>
</g>
<g>
</g>
<g>
</g>
<g>
</g>
<g>
</g>
<g>
</g>
</svg>
