<?xml version="1.0" encoding="iso-8859-1"?>
<!-- Generator: Adobe Illustrator 19.0.0, SVG Export Plug-In . SVG Version: 6.00 Build 0)  -->
<svg version="1.1" id="Layer_1" xmlns="http://www.w3.org/2000/svg" xmlns:xlink="http://www.w3.org/1999/xlink" x="0px" y="0px"
	 viewBox="0 0 512 512" style="enable-background:new 0 0 512 512;" xml:space="preserve">
<path style="fill:#FFD782;" d="M432.552,512H79.448c-9.751,0-17.655-7.904-17.655-17.655V26.483c0-9.751,7.904-17.655,17.655-17.655
	h353.103c9.751,0,17.655,7.904,17.655,17.655v467.862C450.207,504.095,442.302,512,432.552,512z"/>
<path style="fill:#FFC36E;" d="M97.103,494.345L97.103,494.345c-4.875,0-8.828-3.953-8.828-8.828V35.31
	c0-4.875,3.953-8.828,8.828-8.828l0,0c4.875,0,8.828,3.953,8.828,8.828v450.207C105.931,490.392,101.978,494.345,97.103,494.345z"/>
<path style="fill:#FFFFFF;" d="M370.759,247.172H185.379c-9.751,0-17.655-7.904-17.655-17.655v-70.621
	c0-9.751,7.904-17.655,17.655-17.655h185.379c9.751,0,17.655,7.904,17.655,17.655v70.621
	C388.414,239.268,380.509,247.172,370.759,247.172z"/>
<g>
	<path style="fill:#707487;" d="M326.621,185.379H220.69c-4.875,0-8.828-3.953-8.828-8.828l0,0c0-4.875,3.953-8.828,8.828-8.828
		h105.931c4.875,0,8.828,3.953,8.828,8.828l0,0C335.448,181.427,331.496,185.379,326.621,185.379z"/>
	<path style="fill:#707487;" d="M344.276,220.69H203.034c-4.875,0-8.828-3.953-8.828-8.828l0,0c0-4.875,3.953-8.828,8.828-8.828
		h141.241c4.875,0,8.828,3.953,8.828,8.828l0,0C353.103,216.737,349.151,220.69,344.276,220.69z"/>
</g>
<path style="fill:#FF6464;" d="M132.644,82.237l17.425-11.616l17.425,11.616c3.872,2.582,9.058-0.194,9.058-4.847V8.828
	c0-4.875-3.953-8.828-8.828-8.828h-35.31c-4.875,0-8.828,3.953-8.828,8.828v68.562C123.586,82.042,128.772,84.819,132.644,82.237z"
	/>
<g>
</g>
<g>
</g>
<g>
</g>
<g>
</g>
<g>
</g>
<g>
</g>
<g>
</g>
<g>
</g>
<g>
</g>
<g>
</g>
<g>
</g>
<g>
</g>
<g>
</g>
<g>
</g>
<g>
</g>
</svg>
