<?xml version="1.0" encoding="iso-8859-1"?>
<!-- Generator: Adobe Illustrator 19.0.0, SVG Export Plug-In . SVG Version: 6.00 Build 0)  -->
<svg version="1.1" id="Layer_1" xmlns="http://www.w3.org/2000/svg" xmlns:xlink="http://www.w3.org/1999/xlink" x="0px" y="0px"
	 viewBox="0 0 512 512" style="enable-background:new 0 0 512 512;" xml:space="preserve">
<path style="fill:#FFD782;" d="M335.448,264.828c-73.012,0-132.414-59.402-132.414-132.414S262.436,0,335.448,0
	s132.414,59.402,132.414,132.414S408.46,264.828,335.448,264.828z"/>
<path style="fill:#FFC36E;" d="M397.241,220.69c-73.012,0-132.414-59.402-132.414-132.414c0-30.562,10.509-58.66,27.968-81.095
	c-52.122,17.807-89.761,67.157-89.761,125.233c0,73.012,59.402,132.414,132.414,132.414c42.45,0,80.198-20.159,104.446-51.319
	C426.489,218.089,412.178,220.69,397.241,220.69z"/>
<path style="fill:#FFFFFF;" d="M414.897,70.621h-44.138c-4.879,0-8.828,3.953-8.828,8.828c0,4.875,3.948,8.828,8.828,8.828h22.828
	l-44.897,44.896l-20.242-20.242c-3.448-3.448-9.034-3.448-12.482,0l-44.138,44.138c-3.448,3.448-3.448,9.034,0,12.482
	c1.725,1.725,3.982,2.586,6.241,2.586c2.259,0,4.518-0.862,6.241-2.586l37.897-37.896l20.242,20.242
	c3.448,3.448,9.035,3.448,12.483,0l51.137-51.138v22.828c0,4.875,3.948,8.828,8.828,8.828c4.879,0,8.828-3.953,8.828-8.828V79.448
	C423.724,74.573,419.776,70.621,414.897,70.621z"/>
<path style="fill:#694B4B;" d="M194.207,114.759c-139.726,0-124.233,169.917-123.595,293.048c0.024,4.65,2.46,8.843,6.443,11.244
	c15.484,9.334,58.005,31.156,117.152,31.156s101.668-21.822,117.152-31.156c3.982-2.401,6.419-6.594,6.443-11.244
	C318.44,284.675,333.933,114.759,194.207,114.759z"/>
<path style="fill:#5A4146;" d="M185.204,115.108C55.254,122.393,69.988,287.414,70.612,407.807c0.024,4.65,2.46,8.843,6.443,11.244
	c15.484,9.334,58.005,31.156,117.152,31.156l35.31-247.172"/>
<path style="fill:#694B4B;" d="M194.207,114.759c-79.448,0-84.966,96-84.966,96c45.793-7.724,73.931,11.586,120.276-7.724
	l-35.31,247.172c59.147,0,101.668-21.822,117.152-31.156c3.982-2.401,6.419-6.594,6.443-11.244
	C318.44,284.675,333.933,114.759,194.207,114.759z"/>
<path style="fill:#785550;" d="M317.802,407.807c0.548-105.806,11.969-246.055-73.454-283.457
	c-1.49,7.741-4.188,29.348,2.825,43.374c17.655,35.31,35.31,35.31,52.966,61.793c17.655,97.103-33.735,200.168-50.802,214.198l0,0
	c30.24-7.192,51.918-18.573,62.023-24.664C315.341,416.65,317.778,412.457,317.802,407.807z"/>
<path style="fill:#E6AF78;" d="M327.979,434.589l-78.77-32.821c-6.579-2.741-10.865-9.17-10.865-16.298v-21.332h-88.276v21.333
	c0,7.127-4.286,13.556-10.865,16.298l-78.77,32.821c-9.868,4.11-16.297,13.753-16.297,24.445v35.31
	c0,9.75,7.905,17.655,17.655,17.655h264.828c9.75,0,17.655-7.905,17.655-17.655v-35.31
	C344.276,448.343,337.847,438.7,327.979,434.589z"/>
<path style="fill:#B4E1FA;" d="M327.979,434.589l-76.16-31.733l-57.612,24.864l-57.612-24.864l-76.16,31.733
	c-9.868,4.111-16.297,13.754-16.297,24.446v35.31c0,9.75,7.905,17.655,17.655,17.655h264.828c9.75,0,17.655-7.905,17.655-17.655
	v-35.31C344.276,448.343,337.847,438.7,327.979,434.589z"/>
<path style="fill:#D29B6E;" d="M238.345,364.138h-88.276v21.333c0,7.127-4.286,13.556-10.865,16.298l-12.302,5.127
	C221.046,430.9,238.345,364.138,238.345,364.138z"/>
<g>
	<path style="fill:#A0D2F0;" d="M87.165,468.738l-35.433-28.184c-4.748,4.855-7.594,11.42-7.594,18.481v35.31
		c0,9.75,7.905,17.655,17.655,17.655h35.31v-22.582C97.103,481.373,93.447,473.764,87.165,468.738z"/>
	<path style="fill:#A0D2F0;" d="M344.276,494.345v-35.31c0-7.006-2.798-13.526-7.479-18.37l-35.548,28.074
		c-6.282,5.026-9.939,12.634-9.939,20.68V512h35.31C336.371,512,344.276,504.095,344.276,494.345z"/>
	<path style="fill:#A0D2F0;" d="M194.207,494.345L194.207,494.345c-4.875,0-8.828-3.953-8.828-8.828V427.74h17.655v57.778
		C203.034,490.392,199.082,494.345,194.207,494.345z"/>
	<path style="fill:#A0D2F0;" d="M194.207,427.72l-50.525-37.894c-3.243-2.432-7.864-1.641-10.113,1.732l-9.983,14.975l30.976,43.366
		c2.355,3.297,6.995,3.94,10.158,1.41L194.207,427.72z"/>
	<path style="fill:#A0D2F0;" d="M194.207,427.72l50.525-37.894c3.243-2.432,7.864-1.641,10.113,1.732l9.983,14.975l-30.976,43.366
		c-2.355,3.297-6.995,3.94-10.158,1.41L194.207,427.72z"/>
</g>
<path style="fill:#F0C087;" d="M238.345,194.207c-44.138,44.138-130.759,8.828-130.759,79.448l5.482,52.021
	c1.057,11.636,7.804,21.996,18.017,27.67l50.261,27.923c7.999,4.444,17.724,4.444,25.722,0l50.261-27.923
	c10.214-5.675,16.959-16.034,18.017-27.67l6.328-61.782c0.45-4.391,0.546-8.809,0.397-13.216
	C278.769,228.205,247.172,211.862,238.345,194.207z"/>
<path style="fill:#E6AF78;" d="M107.586,273.655l5.482,52.021c1.057,11.636,7.804,21.996,18.017,27.67l50.261,27.923
	c5.55,3.083,11.915,3.882,17.974,2.687l0,0c0,0-25.342-7.679-40.423-48.507c-4.62-12.508-11.034-78.712-5.517-86.805
	c10.905-15.994,71.724-17.655,89.695-47.327c-0.888-1.101-1.708-2.205-2.456-3.31c-0.061-0.089-0.134-0.179-0.193-0.268
	c-0.78-1.173-1.489-2.349-2.08-3.532C194.207,238.345,107.586,203.034,107.586,273.655z"/>
<path style="fill:#A0D2F0;" d="M264.828,494.345h-35.31c-4.875,0-8.828,3.953-8.828,8.828V512h52.966v-8.828
	C273.655,498.297,269.703,494.345,264.828,494.345z"/>
<g>
</g>
<g>
</g>
<g>
</g>
<g>
</g>
<g>
</g>
<g>
</g>
<g>
</g>
<g>
</g>
<g>
</g>
<g>
</g>
<g>
</g>
<g>
</g>
<g>
</g>
<g>
</g>
<g>
</g>
</svg>
