<?xml version="1.0" encoding="iso-8859-1"?>
<!-- Generator: Adobe Illustrator 19.0.0, SVG Export Plug-In . SVG Version: 6.00 Build 0)  -->
<svg version="1.1" id="Layer_1" xmlns="http://www.w3.org/2000/svg" xmlns:xlink="http://www.w3.org/1999/xlink" x="0px" y="0px"
	 viewBox="0 0 512 512" style="enable-background:new 0 0 512 512;" xml:space="preserve">
<polygon style="fill:#AFB9D2;" points="379.586,242.759 326.621,242.759 335.448,198.621 370.759,198.621 "/>
<path style="fill:#C7CFE2;" d="M432.552,216.276H273.655c-4.875,0-8.828-3.953-8.828-8.828V101.517c0-4.875,3.953-8.828,8.828-8.828
	h158.897c4.875,0,8.828,3.953,8.828,8.828v105.931C441.379,212.323,437.427,216.276,432.552,216.276z"/>
<path style="fill:#5B5D6E;" d="M432.552,92.69H273.655c-4.875,0-8.828,3.953-8.828,8.828v97.103h176.552v-97.103
	C441.379,96.642,437.427,92.69,432.552,92.69z"/>
<rect x="282.483" y="110.345" style="fill:#464655;" width="141.241" height="70.621"/>
<rect x="150.069" y="242.759" style="fill:#E1C3A0;" width="335.448" height="35.31"/>
<g>
	<path style="fill:#EBD2AF;" d="M485.517,419.31L485.517,419.31c-4.875,0-8.828-3.953-8.828-8.828V242.759h17.655v167.724
		C494.345,415.358,490.392,419.31,485.517,419.31z"/>
	<path style="fill:#EBD2AF;" d="M150.069,419.31H26.483c-4.875,0-8.828-3.953-8.828-8.828V242.759h141.241v167.724
		C158.897,415.358,154.944,419.31,150.069,419.31z"/>
</g>
<path style="fill:#F0DCBE;" d="M503.172,251.586H8.828c-4.875,0-8.828-3.953-8.828-8.828l0,0c0-4.875,3.953-8.828,8.828-8.828
	h494.345c4.875,0,8.828,3.953,8.828,8.828l0,0C512,247.634,508.047,251.586,503.172,251.586z"/>
<rect x="17.655" y="295.724" style="fill:#E1C3A0;" width="141.241" height="17.655"/>
<g>
	<path style="fill:#B99678;" d="M100.476,269.241H76.076c-3.343,0-6.4-1.889-7.895-4.879l-6.388-12.776h52.966l-6.388,12.776
		C106.876,267.352,103.819,269.241,100.476,269.241z"/>
	<path style="fill:#B99678;" d="M100.476,392.828H76.076c-3.343,0-6.4-1.889-7.895-4.879l-6.388-12.776h52.966l-6.388,12.776
		C106.876,390.938,103.819,392.828,100.476,392.828z"/>
	<path style="fill:#B99678;" d="M100.476,331.034H76.076c-3.343,0-6.4-1.889-7.895-4.879l-6.388-12.776h52.966l-6.388,12.776
		C106.876,329.145,103.819,331.034,100.476,331.034z"/>
</g>
<rect x="17.655" y="357.517" style="fill:#E1C3A0;" width="141.241" height="17.655"/>
<path style="fill:#707487;" d="M227.31,233.931h-83.862c-1.219,0-2.207-0.988-2.207-2.207v-13.241c0-1.219,0.988-2.207,2.207-2.207
	h83.862c1.219,0,2.207,0.988,2.207,2.207v13.241C229.517,232.943,228.53,233.931,227.31,233.931z"/>
<path style="fill:#AFB9D2;" d="M227.31,198.621h-75.034c-1.219,0-2.207-0.988-2.207-2.207v-13.241c0-1.219,0.988-2.207,2.207-2.207
	h75.034c1.219,0,2.207,0.988,2.207,2.207v13.241C229.517,197.633,228.53,198.621,227.31,198.621z"/>
<g>
	<path style="fill:#C7CFE2;" d="M236.138,216.276h-75.034c-1.219,0-2.207-0.988-2.207-2.207v-13.241
		c0-1.219,0.988-2.207,2.207-2.207h75.034c1.219,0,2.207,0.988,2.207,2.207v13.241C238.345,215.288,237.357,216.276,236.138,216.276
		z"/>
	<path style="fill:#C7CFE2;" d="M44.138,233.931c-4.875,0-8.828-3.953-8.828-8.828v-70.621c0-2.34,0.931-4.586,2.586-6.241
		l27.552-27.554c6.676-6.67,15.542-10.343,24.969-10.343h15.513c4.875,0,8.828,3.953,8.828,8.828v26.483
		c0,4.875-3.953,8.828-8.828,8.828c-4.875,0-8.828-3.953-8.828-8.828V128h-6.686c-4.715,0-9.151,1.838-12.487,5.174L52.966,158.14
		v66.964C52.966,229.978,49.013,233.931,44.138,233.931z"/>
</g>
<g>
	<path style="fill:#AFB9D2;" d="M97.103,145.655h17.655c9.751,0,17.655,7.904,17.655,17.655v6.621c0,1.219-0.988,2.207-2.207,2.207
		H81.655c-1.219,0-2.207-0.988-2.207-2.207v-6.621C79.448,153.559,87.352,145.655,97.103,145.655z"/>
	<path style="fill:#AFB9D2;" d="M26.483,233.931h61.793v-8.828c0-4.875-3.953-8.828-8.828-8.828H35.31
		c-4.875,0-8.828,3.953-8.828,8.828V233.931z"/>
</g>
<g>
	<circle style="fill:#959CB3;" cx="105.931" cy="119.172" r="8.828"/>
	<circle style="fill:#959CB3;" cx="44.138" cy="154.483" r="8.828"/>
</g>
<g>
</g>
<g>
</g>
<g>
</g>
<g>
</g>
<g>
</g>
<g>
</g>
<g>
</g>
<g>
</g>
<g>
</g>
<g>
</g>
<g>
</g>
<g>
</g>
<g>
</g>
<g>
</g>
<g>
</g>
</svg>
