<?xml version="1.0" encoding="iso-8859-1"?>
<!-- Generator: Adobe Illustrator 19.0.0, SVG Export Plug-In . SVG Version: 6.00 Build 0)  -->
<svg version="1.1" id="Layer_1" xmlns="http://www.w3.org/2000/svg" xmlns:xlink="http://www.w3.org/1999/xlink" x="0px" y="0px"
	 viewBox="0 0 512 512" style="enable-background:new 0 0 512 512;" xml:space="preserve">
<path style="fill:#C7CFE2;" d="M260.415,35.316H207.45c-4.875,0-8.827-3.953-8.827-8.827s3.953-8.827,8.827-8.827h52.965
	c4.875,0,8.827,3.953,8.827,8.827S265.29,35.316,260.415,35.316z"/>
<path style="fill:#AFB9D2;" d="M295.724,503.173c-4.875,0-8.827-3.953-8.827-8.827v-44.137c0-2.323-0.943-4.595-2.586-6.241
	l-12.483-12.486c-3.448-3.448-3.448-9.038,0-12.483c3.448-3.448,9.035-3.448,12.483,0l12.483,12.487
	c5.004,5.004,7.758,11.651,7.758,18.724v44.137C304.552,499.22,300.599,503.173,295.724,503.173z"/>
<path style="fill:#C7CFE2;" d="M383.999,512H207.45c-4.875,0-8.827-3.953-8.827-8.827v-17.655c0-4.875,3.953-8.828,8.827-8.828
	h176.55c4.875,0,8.827,3.953,8.827,8.828v17.655C392.827,508.049,388.874,512,383.999,512z"/>
<g>
	<path style="fill:#AFB9D2;" d="M260.415,503.173v-17.655c0-4.875,3.952-8.828,8.827-8.828H207.45c-4.875,0-8.827,3.953-8.827,8.828
		v17.655c0,4.875,3.953,8.827,8.827,8.827h61.792C264.366,512,260.415,508.048,260.415,503.173z"/>
	<path style="fill:#AFB9D2;" d="M392.835,247.175c-3.039,0-5.992-1.569-7.634-4.38L261.616,30.936
		c-2.457-4.211-1.035-9.616,3.177-12.073c4.224-2.457,9.616-1.026,12.073,3.177L400.451,233.9c2.457,4.211,1.035,9.616-3.177,12.073
		C395.873,246.788,394.344,247.175,392.835,247.175z"/>
</g>
<path style="fill:#C7CFE2;" d="M260.406,451.721c-1.698,0-3.418-0.487-4.931-1.513c-4.043-2.729-5.103-8.215-2.375-12.254
	l146.963-217.605L283.996,21.377L265.31,33.834c-4.068,2.707-9.539,1.603-12.242-2.449c-2.702-4.056-1.608-9.539,2.449-12.242
	L282,1.489c2.017-1.35,4.509-1.818,6.888-1.255c2.37,0.547,4.409,2.051,5.633,4.151l123.585,211.86
	c1.707,2.931,1.59,6.578-0.31,9.388l-150.067,222.2C266.022,450.359,263.242,451.721,260.406,451.721z"/>
<g>
	<circle style="fill:#707487;" cx="397.237" cy="242.756" r="13.241"/>
	<circle style="fill:#707487;" cx="260.411" cy="26.483" r="13.241"/>
</g>
<g>
	<path style="fill:#C7CFE2;" d="M199.972,0.006h-20.354c-4.316,0-7.998,3.119-8.707,7.376l-7.598,45.588h52.965l-7.598-45.588
		C207.969,3.126,204.286,0.006,199.972,0.006z"/>
	<path style="fill:#C7CFE2;" d="M225.105,70.626h-70.62C101.52,107.406,101.52,158.9,101.52,158.9h176.55
		C278.07,158.9,278.07,107.408,225.105,70.626z"/>
</g>
<g>
	<path style="fill:#AFB9D2;" d="M154.485,70.626C101.52,107.406,101.52,158.9,101.52,158.9h52.965c0,0,0-51.494,29.131-88.275
		C183.615,70.626,154.485,70.626,154.485,70.626z"/>
	<path style="fill:#AFB9D2;" d="M225.105,70.626h-70.62v-8.827c0-4.875,3.952-8.827,8.827-8.827h52.965
		c4.875,0,8.827,3.953,8.827,8.827V70.626z"/>
	<path style="fill:#AFB9D2;" d="M278.07,167.728H101.52c-4.875,0-8.827-3.952-8.827-8.827l0,0c0-4.875,3.953-8.827,8.827-8.827
		h176.55c4.875,0,8.827,3.953,8.827,8.827l0,0C286.897,163.777,282.944,167.728,278.07,167.728z"/>
</g>
<g>
	<path style="fill:#8F96AC;" d="M145.657,158.9c0-4.875,3.953-8.827,8.827-8.827H101.52c-4.875,0-8.827,3.953-8.827,8.827
		s3.953,8.827,8.827,8.827h52.965C149.609,167.728,145.657,163.775,145.657,158.9z"/>
	<path style="fill:#8F96AC;" d="M189.795,52.971h-26.482c-4.875,0-8.827,3.953-8.827,8.827v8.827h26.482v-8.827
		C180.967,56.923,184.919,52.971,189.795,52.971z"/>
</g>
<path style="fill:#AFB9D2;" d="M195.229,0.006h-15.611c-4.316,0-7.998,3.119-8.707,7.376l-7.598,45.588h26.482l2.532-45.588
	C192.563,3.126,193.791,0.006,195.229,0.006z"/>
<circle style="fill:#707487;" cx="273.652" cy="420.829" r="13.241"/>
<g>
</g>
<g>
</g>
<g>
</g>
<g>
</g>
<g>
</g>
<g>
</g>
<g>
</g>
<g>
</g>
<g>
</g>
<g>
</g>
<g>
</g>
<g>
</g>
<g>
</g>
<g>
</g>
<g>
</g>
</svg>
