<?xml version="1.0" encoding="iso-8859-1"?>
<!-- Generator: Adobe Illustrator 19.0.0, SVG Export Plug-In . SVG Version: 6.00 Build 0)  -->
<svg version="1.1" id="Layer_1" xmlns="http://www.w3.org/2000/svg" xmlns:xlink="http://www.w3.org/1999/xlink" x="0px" y="0px"
	 viewBox="0 0 512 512" style="enable-background:new 0 0 512 512;" xml:space="preserve">
<path style="fill:#EFF2FA;" d="M423.724,512H88.276c-9.751,0-17.655-7.904-17.655-17.655V35.31c0-9.751,7.904-17.655,17.655-17.655
	h335.448c9.751,0,17.655,7.904,17.655,17.655v459.034C441.379,504.095,433.474,512,423.724,512z"/>
<rect x="70.621" y="61.793" style="fill:#D7DEED;" width="370.759" height="17.655"/>
<path style="fill:#8F96AC;" d="M441.379,61.793H70.621V35.31c0-9.751,7.904-17.655,17.655-17.655h335.448
	c9.751,0,17.655,7.904,17.655,17.655V61.793z"/>
<g>
	<path style="fill:#C7CFE2;" d="M256,35.31L256,35.31c-4.875,0-8.828-3.953-8.828-8.828V8.828C247.172,3.953,251.125,0,256,0l0,0
		c4.875,0,8.828,3.953,8.828,8.828v17.655C264.828,31.358,260.875,35.31,256,35.31z"/>
	<path style="fill:#C7CFE2;" d="M291.31,35.31L291.31,35.31c-4.875,0-8.828-3.953-8.828-8.828V8.828
		c0-4.875,3.953-8.828,8.828-8.828l0,0c4.875,0,8.828,3.953,8.828,8.828v17.655C300.138,31.358,296.185,35.31,291.31,35.31z"/>
	<path style="fill:#C7CFE2;" d="M185.379,35.31L185.379,35.31c-4.875,0-8.828-3.953-8.828-8.828V8.828
		c0-4.875,3.953-8.828,8.828-8.828l0,0c4.875,0,8.828,3.953,8.828,8.828v17.655C194.207,31.358,190.254,35.31,185.379,35.31z"/>
	<path style="fill:#C7CFE2;" d="M220.69,35.31L220.69,35.31c-4.875,0-8.828-3.953-8.828-8.828V8.828
		c0-4.875,3.953-8.828,8.828-8.828l0,0c4.875,0,8.828,3.953,8.828,8.828v17.655C229.517,31.358,225.565,35.31,220.69,35.31z"/>
	<path style="fill:#C7CFE2;" d="M114.759,35.31L114.759,35.31c-4.875,0-8.828-3.953-8.828-8.828V8.828
		c0-4.875,3.953-8.828,8.828-8.828l0,0c4.875,0,8.828,3.953,8.828,8.828v17.655C123.586,31.358,119.634,35.31,114.759,35.31z"/>
	<path style="fill:#C7CFE2;" d="M150.069,35.31L150.069,35.31c-4.875,0-8.828-3.953-8.828-8.828V8.828
		c0-4.875,3.953-8.828,8.828-8.828l0,0c4.875,0,8.828,3.953,8.828,8.828v17.655C158.897,31.358,154.944,35.31,150.069,35.31z"/>
	<path style="fill:#C7CFE2;" d="M326.621,35.31L326.621,35.31c-4.875,0-8.828-3.953-8.828-8.828V8.828
		c0-4.875,3.953-8.828,8.828-8.828l0,0c4.875,0,8.828,3.953,8.828,8.828v17.655C335.448,31.358,331.496,35.31,326.621,35.31z"/>
	<path style="fill:#C7CFE2;" d="M361.931,35.31L361.931,35.31c-4.875,0-8.828-3.953-8.828-8.828V8.828
		c0-4.875,3.953-8.828,8.828-8.828l0,0c4.875,0,8.828,3.953,8.828,8.828v17.655C370.759,31.358,366.806,35.31,361.931,35.31z"/>
	<path style="fill:#C7CFE2;" d="M397.241,35.31L397.241,35.31c-4.875,0-8.828-3.953-8.828-8.828V8.828
		c0-4.875,3.953-8.828,8.828-8.828l0,0c4.875,0,8.828,3.953,8.828,8.828v17.655C406.069,31.358,402.116,35.31,397.241,35.31z"/>
	<path style="fill:#C7CFE2;" d="M132.414,141.241h-17.655c-4.875,0-8.828-3.953-8.828-8.828l0,0c0-4.875,3.953-8.828,8.828-8.828
		h17.655c4.875,0,8.828,3.953,8.828,8.828l0,0C141.241,137.289,137.289,141.241,132.414,141.241z"/>
	<path style="fill:#C7CFE2;" d="M132.414,176.552h-17.655c-4.875,0-8.828-3.953-8.828-8.828l0,0c0-4.875,3.953-8.828,8.828-8.828
		h17.655c4.875,0,8.828,3.953,8.828,8.828l0,0C141.241,172.599,137.289,176.552,132.414,176.552z"/>
	<path style="fill:#C7CFE2;" d="M132.414,211.862h-17.655c-4.875,0-8.828-3.953-8.828-8.828l0,0c0-4.875,3.953-8.828,8.828-8.828
		h17.655c4.875,0,8.828,3.953,8.828,8.828l0,0C141.241,207.91,137.289,211.862,132.414,211.862z"/>
	<path style="fill:#C7CFE2;" d="M132.414,247.172h-17.655c-4.875,0-8.828-3.953-8.828-8.828l0,0c0-4.875,3.953-8.828,8.828-8.828
		h17.655c4.875,0,8.828,3.953,8.828,8.828l0,0C141.241,243.22,137.289,247.172,132.414,247.172z"/>
	<path style="fill:#C7CFE2;" d="M132.414,282.483h-17.655c-4.875,0-8.828-3.953-8.828-8.828l0,0c0-4.875,3.953-8.828,8.828-8.828
		h17.655c4.875,0,8.828,3.953,8.828,8.828l0,0C141.241,278.53,137.289,282.483,132.414,282.483z"/>
	<path style="fill:#C7CFE2;" d="M132.414,317.793h-17.655c-4.875,0-8.828-3.953-8.828-8.828l0,0c0-4.875,3.953-8.828,8.828-8.828
		h17.655c4.875,0,8.828,3.953,8.828,8.828l0,0C141.241,313.841,137.289,317.793,132.414,317.793z"/>
	<path style="fill:#C7CFE2;" d="M132.414,353.103h-17.655c-4.875,0-8.828-3.953-8.828-8.828l0,0c0-4.875,3.953-8.828,8.828-8.828
		h17.655c4.875,0,8.828,3.953,8.828,8.828l0,0C141.241,349.151,137.289,353.103,132.414,353.103z"/>
	<path style="fill:#C7CFE2;" d="M132.414,388.414h-17.655c-4.875,0-8.828-3.953-8.828-8.828l0,0c0-4.875,3.953-8.828,8.828-8.828
		h17.655c4.875,0,8.828,3.953,8.828,8.828l0,0C141.241,384.461,137.289,388.414,132.414,388.414z"/>
	<path style="fill:#C7CFE2;" d="M132.414,423.724h-17.655c-4.875,0-8.828-3.953-8.828-8.828l0,0c0-4.875,3.953-8.828,8.828-8.828
		h17.655c4.875,0,8.828,3.953,8.828,8.828l0,0C141.241,419.772,137.289,423.724,132.414,423.724z"/>
	<path style="fill:#C7CFE2;" d="M132.414,459.034h-17.655c-4.875,0-8.828-3.953-8.828-8.828l0,0c0-4.875,3.953-8.828,8.828-8.828
		h17.655c4.875,0,8.828,3.953,8.828,8.828l0,0C141.241,455.082,137.289,459.034,132.414,459.034z"/>
</g>
<g>
	<path style="fill:#D7DEED;" d="M397.241,141.241H273.655c-4.875,0-8.828-3.953-8.828-8.828l0,0c0-4.875,3.953-8.828,8.828-8.828
		h123.586c4.875,0,8.828,3.953,8.828,8.828l0,0C406.069,137.289,402.116,141.241,397.241,141.241z"/>
	<path style="fill:#D7DEED;" d="M397.241,211.862h-79.448c-4.875,0-8.828-3.953-8.828-8.828l0,0c0-4.875,3.953-8.828,8.828-8.828
		h79.448c4.875,0,8.828,3.953,8.828,8.828l0,0C406.069,207.91,402.116,211.862,397.241,211.862z"/>
	<path style="fill:#D7DEED;" d="M203.034,176.552h-35.31c-4.875,0-8.828-3.953-8.828-8.828l0,0c0-4.875,3.953-8.828,8.828-8.828
		h35.31c4.875,0,8.828,3.953,8.828,8.828l0,0C211.862,172.599,207.91,176.552,203.034,176.552z"/>
	<path style="fill:#D7DEED;" d="M326.621,176.552h-88.276c-4.875,0-8.828-3.953-8.828-8.828l0,0c0-4.875,3.953-8.828,8.828-8.828
		h88.276c4.875,0,8.828,3.953,8.828,8.828l0,0C335.448,172.599,331.496,176.552,326.621,176.552z"/>
	<path style="fill:#D7DEED;" d="M397.241,176.552h-35.31c-4.875,0-8.828-3.953-8.828-8.828l0,0c0-4.875,3.953-8.828,8.828-8.828
		h35.31c4.875,0,8.828,3.953,8.828,8.828l0,0C406.069,172.599,402.116,176.552,397.241,176.552z"/>
	<path style="fill:#D7DEED;" d="M282.483,211.862H167.724c-4.875,0-8.828-3.953-8.828-8.828l0,0c0-4.875,3.953-8.828,8.828-8.828
		h114.759c4.875,0,8.828,3.953,8.828,8.828l0,0C291.31,207.91,287.358,211.862,282.483,211.862z"/>
	<path style="fill:#D7DEED;" d="M238.345,247.172h-70.621c-4.875,0-8.828-3.953-8.828-8.828l0,0c0-4.875,3.953-8.828,8.828-8.828
		h70.621c4.875,0,8.828,3.953,8.828,8.828l0,0C247.172,243.22,243.22,247.172,238.345,247.172z"/>
	<path style="fill:#D7DEED;" d="M397.241,247.172H273.655c-4.875,0-8.828-3.953-8.828-8.828l0,0c0-4.875,3.953-8.828,8.828-8.828
		h123.586c4.875,0,8.828,3.953,8.828,8.828l0,0C406.069,243.22,402.116,247.172,397.241,247.172z"/>
	<path style="fill:#D7DEED;" d="M397.241,282.483h-35.31c-4.875,0-8.828-3.953-8.828-8.828l0,0c0-4.875,3.953-8.828,8.828-8.828
		h35.31c4.875,0,8.828,3.953,8.828,8.828l0,0C406.069,278.53,402.116,282.483,397.241,282.483z"/>
	<path style="fill:#D7DEED;" d="M326.621,282.483H167.724c-4.875,0-8.828-3.953-8.828-8.828l0,0c0-4.875,3.953-8.828,8.828-8.828
		h158.897c4.875,0,8.828,3.953,8.828,8.828l0,0C335.448,278.53,331.496,282.483,326.621,282.483z"/>
	<path style="fill:#D7DEED;" d="M238.345,141.241h-70.621c-4.875,0-8.828-3.953-8.828-8.828l0,0c0-4.875,3.953-8.828,8.828-8.828
		h70.621c4.875,0,8.828,3.953,8.828,8.828l0,0C247.172,137.289,243.22,141.241,238.345,141.241z"/>
	<path style="fill:#D7DEED;" d="M397.241,317.793H273.655c-4.875,0-8.828-3.953-8.828-8.828l0,0c0-4.875,3.953-8.828,8.828-8.828
		h123.586c4.875,0,8.828,3.953,8.828,8.828l0,0C406.069,313.841,402.116,317.793,397.241,317.793z"/>
	<path style="fill:#D7DEED;" d="M397.241,388.414h-79.448c-4.875,0-8.828-3.953-8.828-8.828l0,0c0-4.875,3.953-8.828,8.828-8.828
		h79.448c4.875,0,8.828,3.953,8.828,8.828l0,0C406.069,384.461,402.116,388.414,397.241,388.414z"/>
	<path style="fill:#D7DEED;" d="M203.034,353.103h-35.31c-4.875,0-8.828-3.953-8.828-8.828l0,0c0-4.875,3.953-8.828,8.828-8.828
		h35.31c4.875,0,8.828,3.953,8.828,8.828l0,0C211.862,349.151,207.91,353.103,203.034,353.103z"/>
	<path style="fill:#D7DEED;" d="M326.621,353.103h-88.276c-4.875,0-8.828-3.953-8.828-8.828l0,0c0-4.875,3.953-8.828,8.828-8.828
		h88.276c4.875,0,8.828,3.953,8.828,8.828l0,0C335.448,349.151,331.496,353.103,326.621,353.103z"/>
	<path style="fill:#D7DEED;" d="M397.241,353.103h-35.31c-4.875,0-8.828-3.953-8.828-8.828l0,0c0-4.875,3.953-8.828,8.828-8.828
		h35.31c4.875,0,8.828,3.953,8.828,8.828l0,0C406.069,349.151,402.116,353.103,397.241,353.103z"/>
	<path style="fill:#D7DEED;" d="M282.483,388.414H167.724c-4.875,0-8.828-3.953-8.828-8.828l0,0c0-4.875,3.953-8.828,8.828-8.828
		h114.759c4.875,0,8.828,3.953,8.828,8.828l0,0C291.31,384.461,287.358,388.414,282.483,388.414z"/>
	<path style="fill:#D7DEED;" d="M238.345,423.724h-70.621c-4.875,0-8.828-3.953-8.828-8.828l0,0c0-4.875,3.953-8.828,8.828-8.828
		h70.621c4.875,0,8.828,3.953,8.828,8.828l0,0C247.172,419.772,243.22,423.724,238.345,423.724z"/>
	<path style="fill:#D7DEED;" d="M397.241,423.724H273.655c-4.875,0-8.828-3.953-8.828-8.828l0,0c0-4.875,3.953-8.828,8.828-8.828
		h123.586c4.875,0,8.828,3.953,8.828,8.828l0,0C406.069,419.772,402.116,423.724,397.241,423.724z"/>
	<path style="fill:#D7DEED;" d="M397.241,459.034h-35.31c-4.875,0-8.828-3.953-8.828-8.828l0,0c0-4.875,3.953-8.828,8.828-8.828
		h35.31c4.875,0,8.828,3.953,8.828,8.828l0,0C406.069,455.082,402.116,459.034,397.241,459.034z"/>
	<path style="fill:#D7DEED;" d="M326.621,459.034H167.724c-4.875,0-8.828-3.953-8.828-8.828l0,0c0-4.875,3.953-8.828,8.828-8.828
		h158.897c4.875,0,8.828,3.953,8.828,8.828l0,0C335.448,455.082,331.496,459.034,326.621,459.034z"/>
	<path style="fill:#D7DEED;" d="M238.345,317.793h-70.621c-4.875,0-8.828-3.953-8.828-8.828l0,0c0-4.875,3.953-8.828,8.828-8.828
		h70.621c4.875,0,8.828,3.953,8.828,8.828l0,0C247.172,313.841,243.22,317.793,238.345,317.793z"/>
</g>
<g>
</g>
<g>
</g>
<g>
</g>
<g>
</g>
<g>
</g>
<g>
</g>
<g>
</g>
<g>
</g>
<g>
</g>
<g>
</g>
<g>
</g>
<g>
</g>
<g>
</g>
<g>
</g>
<g>
</g>
</svg>
