<?xml version="1.0" encoding="iso-8859-1"?>
<!-- Generator: Adobe Illustrator 19.0.0, SVG Export Plug-In . SVG Version: 6.00 Build 0)  -->
<svg version="1.1" id="Layer_1" xmlns="http://www.w3.org/2000/svg" xmlns:xlink="http://www.w3.org/1999/xlink" x="0px" y="0px"
	 viewBox="0 0 512 512" style="enable-background:new 0 0 512 512;" xml:space="preserve">
<path style="fill:#C7CFE2;" d="M326.621,110.345h-17.655V83.862c0-9.737-7.918-17.655-17.655-17.655H220.69
	c-9.737,0-17.655,7.918-17.655,17.655v26.483h-17.655V83.862c0-19.47,15.84-35.31,35.31-35.31h70.621
	c19.47,0,35.31,15.84,35.31,35.31V110.345z"/>
<g>
	<path style="fill:#AFB9D2;" d="M205.5,92.69h-22.585c-3.799,0-7.174,2.431-8.374,6.036l-6.816,20.447h52.966l-6.816-20.447
		C212.672,95.121,209.299,92.69,205.5,92.69z"/>
	<path style="fill:#AFB9D2;" d="M329.086,92.69H306.5c-3.799,0-7.174,2.431-8.374,6.036l-6.816,20.447h52.966l-6.816-20.447
		C336.258,95.121,332.885,92.69,329.086,92.69z"/>
</g>
<path style="fill:#D7DEED;" d="M476.69,463.448H35.31c-19.501,0-35.31-15.809-35.31-35.31V145.655
	c0-19.501,15.809-35.31,35.31-35.31H476.69c19.501,0,35.31,15.809,35.31,35.31v282.483C512,447.639,496.191,463.448,476.69,463.448z
	"/>
<path style="fill:#C7CFE2;" d="M35.31,172.138H0v-26.483c0-19.501,15.809-35.31,35.31-35.31h26.483v35.31
	C61.793,160.281,49.937,172.138,35.31,172.138z"/>
<circle style="fill:#707487;" cx="35.31" cy="145.655" r="8.828"/>
<path style="fill:#C7CFE2;" d="M476.69,172.138H512v-26.483c0-19.501-15.809-35.31-35.31-35.31h-26.483v35.31
	C450.207,160.281,462.063,172.138,476.69,172.138z"/>
<circle style="fill:#707487;" cx="476.69" cy="145.655" r="8.828"/>
<path style="fill:#C7CFE2;" d="M476.69,401.655H512v26.483c0,19.501-15.809,35.31-35.31,35.31h-26.483v-35.31
	C450.207,413.512,462.063,401.655,476.69,401.655z"/>
<circle style="fill:#707487;" cx="476.69" cy="428.138" r="8.828"/>
<path style="fill:#C7CFE2;" d="M35.31,401.655H0v26.483c0,19.501,15.809,35.31,35.31,35.31h26.483v-35.31
	C61.793,413.512,49.937,401.655,35.31,401.655z"/>
<circle style="fill:#707487;" cx="35.31" cy="428.138" r="8.828"/>
<g>
	<path style="fill:#C7CFE2;" d="M423.724,295.723H88.276c-4.875,0-8.828-3.953-8.828-8.828l0,0c0-4.875,3.953-8.828,8.828-8.828
		h335.448c4.875,0,8.828,3.953,8.828,8.828l0,0C432.552,291.772,428.599,295.723,423.724,295.723z"/>
	<path style="fill:#C7CFE2;" d="M423.724,216.276H88.276c-4.875,0-8.828-3.953-8.828-8.828l0,0c0-4.875,3.953-8.828,8.828-8.828
		h335.448c4.875,0,8.828,3.953,8.828,8.828l0,0C432.552,212.323,428.599,216.276,423.724,216.276z"/>
	<path style="fill:#C7CFE2;" d="M423.724,375.172H88.276c-4.875,0-8.828-3.953-8.828-8.828l0,0c0-4.875,3.953-8.828,8.828-8.828
		h335.448c4.875,0,8.828,3.953,8.828,8.828l0,0C432.552,371.22,428.599,375.172,423.724,375.172z"/>
</g>
<g>
</g>
<g>
</g>
<g>
</g>
<g>
</g>
<g>
</g>
<g>
</g>
<g>
</g>
<g>
</g>
<g>
</g>
<g>
</g>
<g>
</g>
<g>
</g>
<g>
</g>
<g>
</g>
<g>
</g>
</svg>
