<?xml version="1.0" encoding="iso-8859-1"?>
<!-- Generator: Adobe Illustrator 19.0.0, SVG Export Plug-In . SVG Version: 6.00 Build 0)  -->
<svg version="1.1" id="Layer_1" xmlns="http://www.w3.org/2000/svg" xmlns:xlink="http://www.w3.org/1999/xlink" x="0px" y="0px"
	 viewBox="0 0 512 512" style="enable-background:new 0 0 512 512;" xml:space="preserve">
<g>
	<path style="fill:#C7CFE2;" d="M379.586,0H132.414c-4.875,0-8.828,3.953-8.828,8.828v8.828c0,4.875,3.953,8.828,8.828,8.828
		h247.172c4.875,0,8.828-3.953,8.828-8.828V8.828C388.414,3.953,384.461,0,379.586,0z"/>
	<path style="fill:#C7CFE2;" d="M132.414,512h247.172c4.875,0,8.828-3.953,8.828-8.828v-8.828c0-4.875-3.953-8.828-8.828-8.828
		H132.414c-4.875,0-8.828,3.953-8.828,8.828v8.828C123.586,508.047,127.539,512,132.414,512z"/>
</g>
<path style="fill:#EFF2FA;" d="M289.443,238.105l66.941-73.026c14.923-16.281,23.202-37.564,23.202-59.649V26.483H132.414v78.947
	c0,22.086,8.279,43.369,23.202,59.649l66.941,73.026c4.477,4.884,6.961,11.268,6.961,17.895l0,0c0,6.626-2.484,13.011-6.961,17.895
	l-66.94,73.025c-14.924,16.281-23.203,37.565-23.203,59.65v78.947h247.172V406.57c0-22.086-8.279-43.37-23.203-59.65l-66.94-73.025
	c-4.477-4.884-6.961-11.268-6.961-17.895l0,0C282.483,249.374,284.967,242.989,289.443,238.105z"/>
<path style="fill:#E4EAF6;" d="M236.975,346.92l21.516-73.025c1.439-4.884,2.238-11.27,2.238-17.895
	c0-6.626-0.799-13.011-2.237-17.895l-21.517-73.026c-4.797-16.28-7.458-37.564-7.458-59.649V26.483h-97.103v78.947
	c0,22.086,8.278,43.369,23.202,59.649l66.941,73.026c4.477,4.884,6.961,11.268,6.961,17.895c0,6.625-2.484,13.011-6.961,17.895
	l-66.94,73.025c-14.924,16.28-23.203,37.565-23.203,59.65v78.947h97.103v-78.946C229.517,384.484,232.179,363.2,236.975,346.92z"/>
<g>
	<path style="fill:#AFB9D2;" d="M220.69,17.655V8.828c0-4.875,3.953-8.828,8.828-8.828h-97.103c-4.875,0-8.828,3.953-8.828,8.828
		v8.828c0,4.875,3.953,8.828,8.828,8.828h97.103C224.641,26.483,220.69,22.53,220.69,17.655z"/>
	<path style="fill:#AFB9D2;" d="M220.69,503.172v-8.828c0-4.875,3.953-8.828,8.828-8.828h-97.103c-4.875,0-8.828,3.953-8.828,8.828
		v8.828c0,4.875,3.953,8.828,8.828,8.828h97.103C224.641,512,220.69,508.047,220.69,503.172z"/>
</g>
<path style="fill:#EBD2AF;" d="M336.862,364.815l-16.204-17.677c-1.672-1.824-4.032-2.862-6.507-2.862h-44.909
	c-4.875,0-8.828-3.953-8.828-8.828v-89.177c0-9.474,3.01-18.919,9.385-25.928c0.041-0.044,0.081-0.089,0.121-0.134l48.113-52.486
	H204c-3.84,0-5.848,4.565-3.254,7.396l41.332,45.09c0.041,0.044,0.082,0.089,0.122,0.134c6.375,7.008,9.386,16.454,9.386,25.928
	v89.176c0,4.875-3.953,8.828-8.828,8.828h-44.909c-2.474,0-4.835,1.038-6.507,2.862l-16.203,17.676
	c-10.447,11.396-16.243,26.296-16.243,41.757v48.05c0,2.438,1.976,4.414,4.414,4.414H348.69c2.438,0,4.414-1.976,4.414-4.414V406.57
	C353.103,391.111,347.308,376.212,336.862,364.815z"/>
<g>
	<path style="fill:#E1C3A0;" d="M200.747,175.121l41.332,45.09c0.041,0.044,0.082,0.089,0.122,0.134
		c6.375,7.008,9.385,16.454,9.385,25.928v51.06l6.905-23.436c0.939-3.188,1.572-7.047,1.922-11.164v-13.463
		c-0.35-4.116-0.983-7.976-1.922-11.164l-20.737-70.381H204C200.16,167.724,198.152,172.289,200.747,175.121z"/>
	<path style="fill:#E1C3A0;" d="M229.517,406.57c0-22.087,2.662-43.37,7.458-59.651l0.779-2.644h-39.905
		c-2.474,0-4.835,1.038-6.507,2.862l-16.203,17.676c-10.447,11.398-16.243,26.296-16.243,41.757v48.051
		c0,2.438,1.976,4.414,4.414,4.414h66.207L229.517,406.57L229.517,406.57z"/>
</g>
<g>
</g>
<g>
</g>
<g>
</g>
<g>
</g>
<g>
</g>
<g>
</g>
<g>
</g>
<g>
</g>
<g>
</g>
<g>
</g>
<g>
</g>
<g>
</g>
<g>
</g>
<g>
</g>
<g>
</g>
</svg>
