<?xml version="1.0" encoding="iso-8859-1"?>
<!-- Generator: Adobe Illustrator 19.0.0, SVG Export Plug-In . SVG Version: 6.00 Build 0)  -->
<svg version="1.1" id="Layer_1" xmlns="http://www.w3.org/2000/svg" xmlns:xlink="http://www.w3.org/1999/xlink" x="0px" y="0px"
	 viewBox="0 0 512 512" style="enable-background:new 0 0 512 512;" xml:space="preserve">
<g>
	<path style="fill:#D5DCEC;" d="M423.724,282.483h-17.655v-52.966h17.655c4.875,0,8.828,3.953,8.828,8.828v35.31
		C432.552,278.53,428.599,282.483,423.724,282.483z"/>
	<path style="fill:#D5DCEC;" d="M171.359,52.966l-6.751,64.701l-49.849,41.23l32.292-96.877c1.802-5.407,6.862-9.054,12.562-9.054
		H171.359z"/>
	<path style="fill:#D5DCEC;" d="M322.986,52.966l6.751,64.701l49.849,41.23l-32.292-96.877c-1.802-5.407-6.862-9.054-12.562-9.054
		H322.986z"/>
	<path style="fill:#D5DCEC;" d="M322.986,459.034l6.751-64.701l49.849-41.23l-32.292,96.877c-1.802,5.407-6.862,9.054-12.562,9.054
		L322.986,459.034L322.986,459.034z"/>
	<path style="fill:#D5DCEC;" d="M171.359,459.034l-6.751-64.701l-49.849-41.23l32.292,96.877c1.802,5.407,6.862,9.054,12.562,9.054
		L171.359,459.034L171.359,459.034z"/>
</g>
<path style="fill:#AA6455;" d="M316.866,88.276H177.479c-5.223,0-9.303-4.51-8.783-9.706l6.268-62.671
	C175.864,6.873,183.459,0,192.53,0h109.286c9.07,0,16.665,6.873,17.568,15.898l6.268,62.671
	C326.169,83.766,322.089,88.276,316.866,88.276z"/>
<path style="fill:#9B5A50;" d="M300.138,70.621H194.207c-4.875,0-8.828-3.953-8.828-8.828l0,0c0-4.875,3.953-8.828,8.828-8.828
	h105.931c4.875,0,8.828,3.953,8.828,8.828l0,0C308.966,66.668,305.013,70.621,300.138,70.621z"/>
<path style="fill:#AA6455;" d="M177.479,423.724h139.388c5.223,0,9.303,4.51,8.783,9.706l-6.268,62.671
	c-0.902,9.025-8.497,15.898-17.567,15.898H192.53c-9.07,0-16.665-6.873-17.568-15.898l-6.268-62.671
	C168.175,428.233,172.256,423.724,177.479,423.724z"/>
<path style="fill:#9B5A50;" d="M194.207,441.379h105.931c4.875,0,8.828,3.953,8.828,8.828l0,0c0,4.875-3.953,8.828-8.828,8.828
	H194.207c-4.875,0-8.828-3.953-8.828-8.828l0,0C185.379,445.332,189.332,441.379,194.207,441.379z"/>
<circle style="fill:#E4EAF6;" cx="247.172" cy="256" r="167.724"/>
<circle style="fill:#C7CFE2;" cx="247.172" cy="256" r="150.069"/>
<circle style="fill:#FFFFFF;" cx="247.172" cy="256" r="132.414"/>
<path style="fill:#5B5D6E;" d="M317.793,249.379h-64v-55.172c0-3.657-2.966-6.621-6.621-6.621s-6.621,2.964-6.621,6.621v55.172
	h-11.034c-3.656,0-6.621,2.964-6.621,6.621s2.966,6.621,6.621,6.621h11.034v11.034c0,3.657,2.966,6.621,6.621,6.621
	s6.621-2.964,6.621-6.621v-11.034h64c3.656,0,6.621-2.964,6.621-6.621S321.448,249.379,317.793,249.379z"/>
<circle style="fill:#C7CFE2;" cx="247.172" cy="256" r="13.241"/>
<g>
	<path style="fill:#5B5D6E;" d="M141.241,262.621h-8.828c-3.656,0-6.621-2.964-6.621-6.621s2.966-6.621,6.621-6.621h8.828
		c3.656,0,6.621,2.964,6.621,6.621S144.896,262.621,141.241,262.621z"/>
	<path style="fill:#5B5D6E;" d="M361.931,262.621h-8.828c-3.656,0-6.621-2.964-6.621-6.621s2.966-6.621,6.621-6.621h8.828
		c3.656,0,6.621,2.964,6.621,6.621S365.586,262.621,361.931,262.621z"/>
	<path style="fill:#5B5D6E;" d="M247.172,377.379c-3.656,0-6.621-2.964-6.621-6.621v-8.828c0-3.657,2.966-6.621,6.621-6.621
		s6.621,2.964,6.621,6.621v8.828C253.793,374.415,250.827,377.379,247.172,377.379z"/>
	<path style="fill:#5B5D6E;" d="M247.172,156.69c-3.656,0-6.621-2.964-6.621-6.621v-8.828c0-3.657,2.966-6.621,6.621-6.621
		s6.621,2.964,6.621,6.621v8.828C253.793,153.726,250.827,156.69,247.172,156.69z"/>
</g>
<g>
	<path style="fill:#959CB3;" d="M195.602,358.676c-1.827,3.166-5.9,4.288-9.066,2.461c-3.166-1.827-4.273-5.842-2.445-9.006
		l0.043-0.075c1.827-3.166,5.878-4.25,9.044-2.423C196.343,351.459,197.43,355.51,195.602,358.676z"/>
	<path style="fill:#959CB3;" d="M310.36,159.907c-1.827,3.166-5.9,4.288-9.066,2.461s-4.273-5.842-2.445-9.006l0.043-0.075
		c1.827-3.166,5.878-4.25,9.044-2.423C311.103,152.692,312.189,156.743,310.36,159.907z"/>
	<path style="fill:#959CB3;" d="M298.856,358.676c1.827,3.166,5.9,4.288,9.066,2.461c3.166-1.827,4.273-5.842,2.445-9.006
		l-0.043-0.075c-1.827-3.166-5.878-4.25-9.044-2.423C298.114,351.459,297.028,355.51,298.856,358.676z"/>
	<path style="fill:#959CB3;" d="M184.097,159.907c1.827,3.166,5.9,4.288,9.066,2.461c3.166-1.827,4.273-5.842,2.445-9.006
		l-0.043-0.075c-1.827-3.166-5.878-4.25-9.044-2.423C183.354,152.692,182.27,156.743,184.097,159.907z"/>
	<path style="fill:#959CB3;" d="M144.548,204.369c-3.166-1.827-4.288-5.9-2.461-9.066c1.827-3.166,5.842-4.273,9.006-2.445
		l0.075,0.043c3.166,1.827,4.25,5.878,2.423,9.044C151.765,205.11,147.714,206.196,144.548,204.369z"/>
	<path style="fill:#959CB3;" d="M343.317,319.127c-3.166-1.827-4.288-5.9-2.461-9.066c1.827-3.166,5.842-4.273,9.006-2.445
		l0.075,0.043c3.166,1.827,4.25,5.878,2.423,9.044C350.534,319.869,346.482,320.954,343.317,319.127z"/>
	<path style="fill:#959CB3;" d="M144.548,307.622c-3.166,1.827-4.288,5.9-2.461,9.066s5.842,4.273,9.006,2.445l0.075-0.043
		c3.166-1.827,4.25-5.878,2.423-9.044C151.765,306.88,147.714,305.794,144.548,307.622z"/>
	<path style="fill:#959CB3;" d="M343.317,192.863c-3.166,1.827-4.288,5.9-2.461,9.066c1.827,3.166,5.842,4.273,9.006,2.445
		l0.075-0.043c3.166-1.827,4.25-5.878,2.423-9.044C350.532,192.121,346.482,191.036,343.317,192.863z"/>
</g>
<g>
</g>
<g>
</g>
<g>
</g>
<g>
</g>
<g>
</g>
<g>
</g>
<g>
</g>
<g>
</g>
<g>
</g>
<g>
</g>
<g>
</g>
<g>
</g>
<g>
</g>
<g>
</g>
<g>
</g>
</svg>
