<?xml version="1.0" encoding="iso-8859-1"?>
<!-- Generator: Adobe Illustrator 19.0.0, SVG Export Plug-In . SVG Version: 6.00 Build 0)  -->
<svg version="1.1" id="Layer_1" xmlns="http://www.w3.org/2000/svg" xmlns:xlink="http://www.w3.org/1999/xlink" x="0px" y="0px"
	 viewBox="0 0 512 512" style="enable-background:new 0 0 512 512;" xml:space="preserve">
<rect x="172.245" y="26.448" style="fill:#FFC36E;" width="26.448" height="423.17"/>
<rect x="198.693" y="26.448" style="fill:#FFD782;" width="26.448" height="423.17"/>
<path style="fill:#EFF2FA;" d="M225.146,26.448H172.25V8.816c0-4.869,3.947-8.816,8.816-8.816h35.264
	c4.869,0,8.816,3.947,8.816,8.816V26.448z"/>
<g>
	<path style="fill:#D7DEED;" d="M198.698,26.448H172.25V8.816c0-4.869,3.947-8.816,8.816-8.816h17.632V26.448z"/>
	<polygon style="fill:#D7DEED;" points="198.698,491.85 198.698,449.618 172.25,449.618 188.087,491.85 	"/>
</g>
<polygon style="fill:#EFF2FA;" points="209.309,491.85 225.146,449.618 198.698,449.618 198.698,491.85 "/>
<path style="fill:#707487;" d="M202.825,509.139l9.097-24.257h-26.448l9.097,24.257
	C196.001,512.953,201.396,512.953,202.825,509.139z"/>
<rect x="172.245" y="26.448" style="fill:#FFC36E;" width="52.896" height="18.302"/>
<rect x="172.245" y="26.448" style="fill:#FFAA5A;" width="26.448" height="18.302"/>
<path style="fill:#FF6464;" d="M330.938,149.873H260.41c-4.869,0-8.816,3.947-8.816,8.816v202.769c0,4.869,3.947,8.816,8.816,8.816
	h70.528c4.869,0,8.816-3.947,8.816-8.816V158.689C339.754,153.82,335.807,149.873,330.938,149.873z"/>
<path style="fill:#D2555A;" d="M330.938,370.273H260.41c-4.869,0-8.816-3.947-8.816-8.816v-17.632c0-4.869,3.947-8.816,8.816-8.816
	h70.528c4.869,0,8.816,3.947,8.816,8.816v17.632C339.754,366.326,335.807,370.273,330.938,370.273z"/>
<path style="fill:#18BDF6;" d="M339.754,220.401h-88.16v-61.712c0-4.869,3.947-8.816,8.816-8.816h70.528
	c4.869,0,8.816,3.947,8.816,8.816V220.401z"/>
<rect x="251.59" y="348.233" style="fill:#D7DEED;" width="88.16" height="8.816"/>
<g>
</g>
<g>
</g>
<g>
</g>
<g>
</g>
<g>
</g>
<g>
</g>
<g>
</g>
<g>
</g>
<g>
</g>
<g>
</g>
<g>
</g>
<g>
</g>
<g>
</g>
<g>
</g>
<g>
</g>
</svg>
