<?xml version="1.0" encoding="iso-8859-1"?>
<svg version="1.1" id="Capa_1" 
	xmlns="http://www.w3.org/2000/svg" 
	xmlns:xlink="http://www.w3.org/1999/xlink" x="0px" y="0px" viewBox="0 0 511.999 511.999" style="enable-background:new 0 0 511.999 511.999;" xml:space="preserve">
	<g>
		<g>
			<path d="M402.903,74.537c-1.595-11.539-8.329-21.416-18.473-27.1C345.522,25.64,301.111,14.119,256,14.119
			s-89.521,11.522-128.429,33.32c-10.145,5.684-16.878,15.561-18.474,27.1c-1.601,11.582,2.22,22.965,10.484,31.229
			c7.106,7.105,16.622,10.824,26.205,10.824c6.094,0,12.216-1.505,17.76-4.599c14.151-7.897,29.287-13.92,45.088-17.964
			c9.185,16.73,26.972,28.098,47.367,28.098c20.395,0,38.182-11.368,47.367-28.098c15.802,4.044,30.937,10.067,45.088,17.964
			c14.26,7.956,32.34,5.397,43.965-6.226C400.683,97.501,404.504,86.12,402.903,74.537z M202.001,68.127
			c0,2.321,0.164,4.602,0.449,6.846c-17.03,4.467-33.356,11.02-48.651,19.554c-6.49,3.621-14.746,2.428-20.076-2.903
			c-3.796-3.796-5.55-9.025-4.815-14.348c0.73-5.278,3.805-9.794,8.437-12.389c22.874-12.815,47.816-21.776,73.679-26.602
			C205.329,46.841,202.001,57.101,202.001,68.127z M256,102.127c-18.748,0-34-15.252-34-34c0-18.748,15.252-34,34-34
			s34,15.252,34,34C290,86.875,274.748,102.127,256,102.127z M378.277,91.625c-5.33,5.331-13.587,6.527-20.076,2.903
			c-15.294-8.534-31.621-15.087-48.651-19.554c0.285-2.244,0.449-4.526,0.449-6.846c0-11.026-3.328-21.287-9.024-29.842
			c25.864,4.826,50.807,13.788,73.679,26.602c4.632,2.594,7.707,7.109,8.437,12.389C383.828,82.599,382.073,87.829,378.277,91.625z" />
		</g>
	</g>
	<g>
		<g>
			<path d="M166.351,429.248c-13.916-8.308-26.695-18.411-38.097-30.073c9.892-16.319,10.842-37.403,0.646-55.063
			c-10.198-17.662-28.936-27.382-48.017-26.972c-4.399-15.705-6.751-31.824-6.987-48.029c-0.238-16.331-11.495-30.708-27.375-34.962
			c-11.29-3.027-23.057-0.644-32.287,6.535c-9.195,7.15-14.383,17.92-14.232,29.547c0.577,44.596,12.804,88.816,35.36,127.884
			c22.556,39.067,54.739,71.767,93.07,94.564c5.804,3.452,12.256,5.2,18.761,5.2c4.697-0.001,9.42-0.912,13.945-2.752
			c10.831-4.405,18.778-13.405,21.802-24.693C187.197,454.557,180.375,437.62,166.351,429.248z M33.786,347.034
			c-8.741-24.797-13.446-50.861-13.785-77.058c-0.068-5.31,2.305-10.231,6.512-13.502c4.242-3.299,9.649-4.393,14.833-3.005
			c7.282,1.951,12.444,8.504,12.552,15.935c0.256,17.514,2.744,34.93,7.391,51.911c-2.086,0.875-4.144,1.874-6.154,3.035
			C45.805,329.735,38.462,337.596,33.786,347.034z M52.691,388.112c-9.374-16.235-3.791-37.07,12.445-46.444
			c3.243-1.872,6.706-3.174,10.271-3.897c0.159-0.028,0.317-0.05,0.475-0.086c2.042-0.384,4.115-0.587,6.199-0.587
			c2.953,0,5.926,0.389,8.855,1.174c8.772,2.349,16.104,7.975,20.645,15.84c9.374,16.236,3.791,37.071-12.445,46.445
			C82.9,409.933,62.065,404.347,52.691,388.112z M163.623,465.26c-1.389,5.184-5.041,9.318-10.018,11.343
			c-4.938,2.008-10.386,1.603-14.949-1.111c-22.529-13.399-42.748-30.521-59.856-50.501c1.139,0.072,2.281,0.111,3.426,0.111
			c9.155,0,18.428-2.327,26.909-7.224c2.01-1.16,3.904-2.443,5.705-3.812c12.383,12.515,26.221,23.378,41.26,32.355
			C162.481,450.231,165.574,457.977,163.623,465.26z"/>
		</g>
	</g>
	<g>
		<g>
			<path d="M497.765,240.686c-9.229-7.177-20.998-9.561-32.287-6.535c-15.879,4.254-27.136,18.631-27.375,34.962
			c-0.237,16.204-2.588,32.323-6.987,48.028c-19.082-0.411-37.82,9.311-48.017,26.973c-10.196,17.661-9.246,38.745,0.646,55.063
			c-11.402,11.662-24.181,21.765-38.097,30.073c-14.023,8.372-20.845,25.309-16.59,41.188c3.024,11.288,10.971,20.289,21.802,24.693
			c4.525,1.84,9.248,2.752,13.945,2.752c6.504-0.001,12.958-1.749,18.761-5.2c38.332-22.798,70.514-55.498,93.069-94.564
			c22.556-39.067,34.783-83.288,35.36-127.884C512.148,258.606,506.96,247.836,497.765,240.686z M373.344,475.491
			c-4.563,2.714-10.011,3.118-14.949,1.111c-4.978-2.024-8.629-6.159-10.018-11.345c-1.951-7.281,1.143-15.027,7.524-18.838
			c15.039-8.978,28.878-19.841,41.26-32.355c1.801,1.369,3.695,2.652,5.705,3.812c8.483,4.897,17.753,7.224,26.909,7.224
			c1.144,0,2.287-0.039,3.426-0.111C416.092,444.97,395.873,462.092,373.344,475.491z M459.311,388.111
			c-9.374,16.236-30.207,21.819-46.445,12.445c-16.236-9.372-21.819-30.207-12.445-46.444c4.541-7.865,11.873-13.491,20.645-15.841
			c2.93-0.785,5.901-1.174,8.855-1.174c2.081,0,4.15,0.203,6.19,0.586c0.168,0.038,0.336,0.063,0.504,0.092
			c3.558,0.724,7.015,2.024,10.251,3.892C463.102,351.041,468.684,371.876,459.311,388.111z M478.214,347.033
			c-4.677-9.438-12.02-17.299-21.349-22.685c-2.01-1.161-4.068-2.16-6.154-3.035c4.647-16.981,7.135-34.396,7.391-51.911
			c0.108-7.431,5.27-13.983,12.552-15.935c5.188-1.389,10.592-0.293,14.833,3.005c4.207,3.271,6.58,8.192,6.512,13.501
			C491.66,296.172,486.956,322.236,478.214,347.033z"/>
		</g>
	</g>
	<g>
		<g>
			<path d="M361.159,208.929l-14.685-8.845c-4.731-2.851-10.876-1.327-13.726,3.405c-2.85,4.731-1.325,10.876,3.406,13.727
			l9.845,5.93v28.705c0,57.29-36.035,107.519-89.999,125.978c-53.965-18.46-89.999-68.688-89.999-125.978v-28.705L256,168.929
			l8.777,5.287c4.729,2.85,10.875,1.325,13.726-3.405c2.85-4.73,1.325-10.876-3.406-13.726l-13.938-8.396
			c-3.174-1.913-7.145-1.911-10.32,0L150.84,208.93c-3.003,1.809-4.84,5.06-4.84,8.565v34.355c0,32.776,10.238,64.076,29.608,90.517
			c19.369,26.44,46.126,45.64,77.376,55.522c0.981,0.311,1.998,0.466,3.015,0.466c1.017,0,2.034-0.155,3.015-0.466
			c31.251-9.883,58.008-29.082,77.376-55.522c19.371-26.441,29.609-57.742,29.609-90.517v-34.355
			C365.999,213.988,364.163,210.738,361.159,208.929z"/>
		</g>
	</g>
	<g>
		<g>
			<path d="M315.99,182.062c-1.86-1.859-4.44-2.93-7.07-2.93c-2.64,0-5.21,1.07-7.07,2.93c-1.87,1.86-2.93,4.44-2.93,7.07
			s1.06,5.21,2.93,7.07c1.86,1.859,4.43,2.93,7.07,2.93c2.63,0,5.21-1.07,7.07-2.93s2.93-4.44,2.93-7.07
			S317.85,183.922,315.99,182.062z"/>
		</g>
	</g>
	<g>
		<g>
			<path d="M308.544,246.684c-3.904-3.904-10.236-3.904-14.141,0l-38.929,38.929l-19.492-19.492c-3.905-3.904-10.237-3.904-14.143,0
			c-3.905,3.905-3.905,10.237,0,14.143l26.563,26.563c1.953,1.952,4.512,2.929,7.071,2.929c2.559,0,5.119-0.977,7.071-2.929l46-46
			C312.449,256.922,312.449,250.59,308.544,246.684z"/>
		</g>
	</g>
</svg>
