<svg height="512pt" viewBox="0 0 512 512" width="512pt" xmlns="http://www.w3.org/2000/svg"><path d="m162.132812 230.398438h187.734376c9.425781 0 17.066406 7.640624 17.066406 17.066406v153.601562c0 9.425782-7.640625 17.066406-17.066406 17.066406h-187.734376c-9.425781 0-17.066406-7.640624-17.066406-17.066406v-153.601562c0-9.425782 7.640625-17.066406 17.066406-17.066406zm0 0" fill="#e4c05c"/><g fill="#b19046"><path d="m366.933594 273.066406v17.066406h-42.667969c-4.710937 0-8.53125-3.820312-8.53125-8.53125 0-4.714843 3.820313-8.535156 8.53125-8.535156zm0 0"/><path d="m366.933594 315.734375v17.066406h-42.667969c-4.710937 0-8.53125-3.820312-8.53125-8.535156 0-4.710937 3.820313-8.53125 8.53125-8.53125zm0 0"/><path d="m366.933594 366.933594v17.066406h-42.667969c-4.710937 0-8.53125-3.820312-8.53125-8.535156 0-4.710938 3.820313-8.53125 8.53125-8.53125zm0 0"/><path d="m196.265625 281.601562c0 4.710938-3.820313 8.53125-8.53125 8.53125h-42.667969v-17.066406h42.667969c4.710937 0 8.53125 3.820313 8.53125 8.535156zm0 0"/><path d="m196.265625 324.265625c0 4.714844-3.820313 8.535156-8.53125 8.535156h-42.667969v-17.066406h42.667969c4.710937 0 8.53125 3.820313 8.53125 8.53125zm0 0"/><path d="m196.265625 375.464844c0 4.714844-3.820313 8.535156-8.53125 8.535156h-42.667969v-17.066406h42.667969c4.710937 0 8.53125 3.820312 8.53125 8.53125zm0 0"/></g><path d="m285.191406 310.339844c-.226562-14.925782-11.664062-27.285156-26.527344-28.664063-14.863281-1.378906-28.378906 8.660157-31.351562 23.289063-1.5625 8.601562.980469 17.4375 6.875 23.894531 2.960938 3.203125 4.644531 7.378906 4.746094 11.738281v26.402344c0 4.675781 3.789062 8.464844 8.464844 8.464844h17.203124c2.246094 0 4.398438-.890625 5.984376-2.476563 1.589843-1.589843 2.480468-3.742187 2.480468-5.988281v-26.519531c.097656-4.359375 1.796875-8.527344 4.769532-11.714844 4.621093-5.039063 7.238281-11.589844 7.355468-18.425781zm0 0" fill="#464f5d"/><path d="m307.199219 230.398438v-52.667969c0-28.273438-22.921875-51.199219-51.199219-51.199219s-51.199219 22.925781-51.199219 51.199219v52.667969h-34.132812v-52.667969c0-47.125 38.203125-85.332031 85.332031-85.332031s85.332031 38.207031 85.332031 85.332031v52.667969zm0 0" fill="#a5a5a4"/><path d="m401.066406 153.601562c-4.710937 0-8.53125-3.820312-8.53125-8.535156v-51.199218c0-4.714844 3.820313-8.535157 8.53125-8.535157 4.714844 0 8.535156 3.820313 8.535156 8.535157v51.199218c0 4.714844-3.820312 8.535156-8.535156 8.535156zm0 0" fill="#804169"/><path d="m366.933594 153.601562c-4.714844 0-8.535156-3.820312-8.535156-8.535156v-51.199218c0-4.714844 3.820312-8.535157 8.535156-8.535157 4.710937 0 8.53125 3.820313 8.53125 8.535157v51.199218c0 4.714844-3.820313 8.535156-8.53125 8.535156zm0 0" fill="#804169"/><path d="m435.199219 153.601562c-4.710938 0-8.53125-3.820312-8.53125-8.535156v-51.199218c0-4.714844 3.820312-8.535157 8.53125-8.535157 4.714843 0 8.535156 3.820313 8.535156 8.535157v51.199218c0 4.714844-3.820313 8.535156-8.535156 8.535156zm0 0" fill="#804169"/><path d="m401.066406 332.800781c-4.710937 0-8.53125-3.820312-8.53125-8.535156v-51.199219c0-4.710937 3.820313-8.53125 8.53125-8.53125 4.714844 0 8.535156 3.820313 8.535156 8.53125v51.199219c0 4.714844-3.820312 8.535156-8.535156 8.535156zm0 0" fill="#804169"/><path d="m452.265625 332.800781c-4.710937 0-8.53125-3.820312-8.53125-8.535156v-51.199219c0-4.710937 3.820313-8.53125 8.53125-8.53125 4.714844 0 8.535156 3.820313 8.535156 8.53125v51.199219c0 4.714844-3.820312 8.535156-8.535156 8.535156zm0 0" fill="#804169"/><path d="m503.464844 332.800781c-4.710938 0-8.53125-3.820312-8.53125-8.535156v-51.199219c0-4.710937 3.820312-8.53125 8.53125-8.53125 4.714844 0 8.535156 3.820313 8.535156 8.53125v51.199219c0 4.714844-3.820312 8.535156-8.535156 8.535156zm0 0" fill="#804169"/><path d="m494.933594 153.601562h-17.066406c-9.425782 0-17.066407-7.640624-17.066407-17.066406v-34.136718c0-9.425782 7.640625-17.066407 17.066407-17.066407h17.066406c9.425781 0 17.066406 7.640625 17.066406 17.066407v34.136718c0 9.425782-7.640625 17.066406-17.066406 17.066406zm-17.066406-51.203124v34.136718h17.066406v-34.136718zm0 0" fill="#3d324c"/><path d="m503.464844 247.464844c-4.710938 0-8.53125-3.820313-8.53125-8.53125v-51.199219c0-4.714844 3.820312-8.535156 8.53125-8.535156 4.714844 0 8.535156 3.820312 8.535156 8.535156v51.199219c0 4.710937-3.820312 8.53125-8.535156 8.53125zm0 0" fill="#804169"/><path d="m469.332031 247.464844c-4.710937 0-8.53125-3.820313-8.53125-8.53125v-51.199219c0-4.714844 3.820313-8.535156 8.53125-8.535156 4.714844 0 8.535157 3.820312 8.535157 8.535156v51.199219c0 4.710937-3.820313 8.53125-8.535157 8.53125zm0 0" fill="#804169"/><path d="m426.667969 247.464844h-17.066407c-9.425781 0-17.066406-7.640625-17.066406-17.066406v-34.132813c0-9.425781 7.640625-17.066406 17.066406-17.066406h17.066407c9.425781 0 17.066406 7.640625 17.066406 17.066406v34.132813c0 9.425781-7.640625 17.066406-17.066406 17.066406zm-17.066407-51.199219v34.132813h17.066407v-34.132813zm0 0" fill="#3d324c"/><path d="m401.066406 426.667969c-4.710937 0-8.53125-3.820313-8.53125-8.535157v-51.199218c0-4.714844 3.820313-8.535156 8.53125-8.535156 4.714844 0 8.535156 3.820312 8.535156 8.535156v51.199218c0 4.714844-3.820312 8.535157-8.535156 8.535157zm0 0" fill="#804169"/><path d="m435.199219 426.667969c-4.710938 0-8.53125-3.820313-8.53125-8.535157v-51.199218c0-4.714844 3.820312-8.535156 8.53125-8.535156 4.714843 0 8.535156 3.820312 8.535156 8.535156v51.199218c0 4.714844-3.820313 8.535157-8.535156 8.535157zm0 0" fill="#804169"/><path d="m494.933594 426.667969h-17.066406c-9.425782 0-17.066407-7.640625-17.066407-17.066407v-34.136718c0-9.425782 7.640625-17.066406 17.066407-17.066406h17.066406c9.425781 0 17.066406 7.640624 17.066406 17.066406v34.136718c0 9.425782-7.640625 17.066407-17.066406 17.066407zm-17.066406-51.203125v34.136718h17.066406v-34.136718zm0 0" fill="#3d324c"/><path d="m110.933594 153.601562c-4.714844 0-8.535156-3.820312-8.535156-8.535156v-51.199218c0-4.714844 3.820312-8.535157 8.535156-8.535157 4.710937 0 8.53125 3.820313 8.53125 8.535157v51.199218c0 4.714844-3.820313 8.535156-8.53125 8.535156zm0 0" fill="#804169"/><path d="m145.066406 153.601562c-4.710937 0-8.53125-3.820312-8.53125-8.535156v-51.199218c0-4.714844 3.820313-8.535157 8.53125-8.535157 4.714844 0 8.535156 3.820313 8.535156 8.535157v51.199218c0 4.714844-3.820312 8.535156-8.535156 8.535156zm0 0" fill="#804169"/><path d="m76.800781 153.601562c-4.714843 0-8.535156-3.820312-8.535156-8.535156v-51.199218c0-4.714844 3.820313-8.535157 8.535156-8.535157 4.710938 0 8.53125 3.820313 8.53125 8.535157v51.199218c0 4.714844-3.820312 8.535156-8.53125 8.535156zm0 0" fill="#804169"/><path d="m110.933594 332.800781c-4.714844 0-8.535156-3.820312-8.535156-8.535156v-51.199219c0-4.710937 3.820312-8.53125 8.535156-8.53125 4.710937 0 8.53125 3.820313 8.53125 8.53125v51.199219c0 4.714844-3.820313 8.535156-8.53125 8.535156zm0 0" fill="#804169"/><path d="m59.734375 332.800781c-4.714844 0-8.535156-3.820312-8.535156-8.535156v-51.199219c0-4.710937 3.820312-8.53125 8.535156-8.53125 4.710937 0 8.53125 3.820313 8.53125 8.53125v51.199219c0 4.714844-3.820313 8.535156-8.53125 8.535156zm0 0" fill="#804169"/><path d="m8.535156 332.800781c-4.714844 0-8.535156-3.820312-8.535156-8.535156v-51.199219c0-4.710937 3.820312-8.53125 8.535156-8.53125 4.710938 0 8.53125 3.820313 8.53125 8.53125v51.199219c0 4.714844-3.820312 8.535156-8.53125 8.535156zm0 0" fill="#804169"/><path d="m34.132812 153.601562h-17.066406c-9.425781 0-17.066406-7.640624-17.066406-17.066406v-34.136718c0-9.425782 7.640625-17.066407 17.066406-17.066407h17.066406c9.425782 0 17.066407 7.640625 17.066407 17.066407v34.136718c0 9.425782-7.640625 17.066406-17.066407 17.066406zm-17.066406-51.203124v34.136718h17.066406v-34.136718zm0 0" fill="#3d324c"/><path d="m8.535156 247.464844c-4.714844 0-8.535156-3.820313-8.535156-8.53125v-51.199219c0-4.714844 3.820312-8.535156 8.535156-8.535156 4.710938 0 8.53125 3.820312 8.53125 8.535156v51.199219c0 4.710937-3.820312 8.53125-8.53125 8.53125zm0 0" fill="#804169"/><path d="m42.667969 247.464844c-4.714844 0-8.535157-3.820313-8.535157-8.53125v-51.199219c0-4.714844 3.820313-8.535156 8.535157-8.535156 4.710937 0 8.53125 3.820312 8.53125 8.535156v51.199219c0 4.710937-3.820313 8.53125-8.53125 8.53125zm0 0" fill="#804169"/><path d="m102.398438 247.464844h-17.066407c-9.425781 0-17.066406-7.640625-17.066406-17.066406v-34.132813c0-9.425781 7.640625-17.066406 17.066406-17.066406h17.066407c9.425781 0 17.066406 7.640625 17.066406 17.066406v34.132813c0 9.425781-7.640625 17.066406-17.066406 17.066406zm-17.066407-51.199219v34.132813h17.066407v-34.132813zm0 0" fill="#3d324c"/><path d="m110.933594 426.667969c-4.714844 0-8.535156-3.820313-8.535156-8.535157v-51.199218c0-4.714844 3.820312-8.535156 8.535156-8.535156 4.710937 0 8.53125 3.820312 8.53125 8.535156v51.199218c0 4.714844-3.820313 8.535157-8.53125 8.535157zm0 0" fill="#804169"/><path d="m76.800781 426.667969c-4.714843 0-8.535156-3.820313-8.535156-8.535157v-51.199218c0-4.714844 3.820313-8.535156 8.535156-8.535156 4.710938 0 8.53125 3.820312 8.53125 8.535156v51.199218c0 4.714844-3.820312 8.535157-8.53125 8.535157zm0 0" fill="#804169"/><path d="m34.132812 426.667969h-17.066406c-9.425781 0-17.066406-7.640625-17.066406-17.066407v-34.136718c0-9.425782 7.640625-17.066406 17.066406-17.066406h17.066406c9.425782 0 17.066407 7.640624 17.066407 17.066406v34.136718c0 9.425782-7.640625 17.066407-17.066407 17.066407zm-17.066406-51.203125v34.136718h17.066406v-34.136718zm0 0" fill="#3d324c"/><path d="m494.933594 68.265625c-4.714844 0-8.535156-3.820313-8.535156-8.53125v-51.199219c0-4.714844 3.820312-8.535156 8.535156-8.535156 4.710937 0 8.53125 3.820312 8.53125 8.535156v51.199219c0 4.710937-3.820313 8.53125-8.53125 8.53125zm0 0" fill="#804169"/><path d="m460.800781 68.265625c-4.714843 0-8.535156-3.820313-8.535156-8.53125v-51.199219c0-4.714844 3.820313-8.535156 8.535156-8.535156 4.710938 0 8.53125 3.820312 8.53125 8.535156v51.199219c0 4.710937-3.820312 8.53125-8.53125 8.53125zm0 0" fill="#804169"/><path d="m358.398438 68.265625c-4.710938 0-8.53125-3.820313-8.53125-8.53125v-51.199219c0-4.714844 3.820312-8.535156 8.53125-8.535156 4.714843 0 8.535156 3.820312 8.535156 8.535156v51.199219c0 4.710937-3.820313 8.53125-8.535156 8.53125zm0 0"/><path d="m358.398438 68.265625c-4.710938 0-8.53125-3.820313-8.53125-8.53125v-51.199219c0-4.714844 3.820312-8.535156 8.53125-8.535156 4.714843 0 8.535156 3.820312 8.535156 8.535156v51.199219c0 4.710937-3.820313 8.53125-8.535156 8.53125zm0 0" fill="#804169"/><path d="m256 68.265625c-4.710938 0-8.535156-3.820313-8.535156-8.53125v-51.199219c0-4.714844 3.824218-8.535156 8.535156-8.535156s8.535156 3.820312 8.535156 8.535156v51.199219c0 4.710937-3.824218 8.53125-8.535156 8.53125zm0 0"/><path d="m418.132812 68.265625h-17.066406c-9.425781 0-17.066406-7.640625-17.066406-17.066406v-34.132813c0-9.425781 7.640625-17.066406 17.066406-17.066406h17.066406c9.425782 0 17.066407 7.640625 17.066407 17.066406v34.132813c0 9.425781-7.640625 17.066406-17.066407 17.066406zm-17.066406-51.199219v34.132813h17.066406v-34.132813zm0 0" fill="#3d324c"/><path d="m315.734375 68.265625h-17.066406c-9.425781 0-17.066407-7.640625-17.066407-17.066406v-34.132813c0-9.425781 7.640626-17.066406 17.066407-17.066406h17.066406c9.425781 0 17.066406 7.640625 17.066406 17.066406v34.132813c0 9.425781-7.640625 17.066406-17.066406 17.066406zm-17.066406-51.199219v34.132813h17.066406v-34.132813zm0 0" fill="#3d324c"/><path d="m256 68.265625c-4.710938 0-8.535156-3.820313-8.535156-8.53125v-51.199219c0-4.714844 3.824218-8.535156 8.535156-8.535156s8.535156 3.820312 8.535156 8.535156v51.199219c0 4.710937-3.824218 8.53125-8.535156 8.53125zm0 0" fill="#804169"/><path d="m221.867188 68.265625c-4.714844 0-8.535157-3.820313-8.535157-8.53125v-51.199219c0-4.714844 3.820313-8.535156 8.535157-8.535156 4.710937 0 8.53125 3.820312 8.53125 8.535156v51.199219c0 4.710937-3.820313 8.53125-8.53125 8.53125zm0 0" fill="#804169"/><path d="m17.066406 68.265625c-4.710937 0-8.53125-3.820313-8.53125-8.53125v-51.199219c0-4.714844 3.820313-8.535156 8.53125-8.535156 4.714844 0 8.535156 3.820312 8.535156 8.535156v51.199219c0 4.710937-3.820312 8.53125-8.535156 8.53125zm0 0"/><path d="m17.066406 68.265625c-4.710937 0-8.53125-3.820313-8.53125-8.53125v-51.199219c0-4.714844 3.820313-8.535156 8.53125-8.535156 4.714844 0 8.535156 3.820312 8.535156 8.535156v51.199219c0 4.710937-3.820312 8.53125-8.535156 8.53125zm0 0" fill="#804169"/><path d="m119.464844 68.265625c-4.710938 0-8.53125-3.820313-8.53125-8.53125v-51.199219c0-4.714844 3.820312-8.535156 8.53125-8.535156 4.714844 0 8.535156 3.820312 8.535156 8.535156v51.199219c0 4.710937-3.820312 8.53125-8.535156 8.53125zm0 0"/><path d="m119.464844 68.265625c-4.710938 0-8.53125-3.820313-8.53125-8.53125v-51.199219c0-4.714844 3.820312-8.535156 8.53125-8.535156 4.714844 0 8.535156 3.820312 8.535156 8.535156v51.199219c0 4.710937-3.820312 8.53125-8.535156 8.53125zm0 0" fill="#804169"/><path d="m179.199219 68.265625h-17.066407c-9.425781 0-17.066406-7.640625-17.066406-17.066406v-34.132813c0-9.425781 7.640625-17.066406 17.066406-17.066406h17.066407c9.425781 0 17.066406 7.640625 17.066406 17.066406v34.132813c0 9.425781-7.640625 17.066406-17.066406 17.066406zm-17.066407-51.199219v34.132813h17.066407v-34.132813zm0 0" fill="#3d324c"/><path d="m76.800781 68.265625h-17.066406c-9.425781 0-17.066406-7.640625-17.066406-17.066406v-34.132813c0-9.425781 7.640625-17.066406 17.066406-17.066406h17.066406c9.425781 0 17.066407 7.640625 17.066407 17.066406v34.132813c0 9.425781-7.640626 17.066406-17.066407 17.066406zm-17.066406-51.199219v34.132813h17.066406v-34.132813zm0 0" fill="#3d324c"/><path d="m17.066406 512c-4.710937 0-8.53125-3.820312-8.53125-8.535156v-51.199219c0-4.710937 3.820313-8.53125 8.53125-8.53125 4.714844 0 8.535156 3.820313 8.535156 8.53125v51.199219c0 4.714844-3.820312 8.535156-8.535156 8.535156zm0 0" fill="#804169"/><path d="m51.199219 512c-4.710938 0-8.53125-3.820312-8.53125-8.535156v-51.199219c0-4.710937 3.820312-8.53125 8.53125-8.53125 4.714843 0 8.535156 3.820313 8.535156 8.53125v51.199219c0 4.714844-3.820313 8.535156-8.535156 8.535156zm0 0" fill="#804169"/><path d="m153.601562 512c-4.714843 0-8.535156-3.820312-8.535156-8.535156v-51.199219c0-4.710937 3.820313-8.53125 8.535156-8.53125 4.710938 0 8.53125 3.820313 8.53125 8.53125v51.199219c0 4.714844-3.820312 8.535156-8.53125 8.535156zm0 0"/><path d="m153.601562 512c-4.714843 0-8.535156-3.820312-8.535156-8.535156v-51.199219c0-4.710937 3.820313-8.53125 8.535156-8.53125 4.710938 0 8.53125 3.820313 8.53125 8.53125v51.199219c0 4.714844-3.820312 8.535156-8.53125 8.535156zm0 0" fill="#804169"/><path d="m256 512c-4.710938 0-8.535156-3.820312-8.535156-8.535156v-51.199219c0-4.710937 3.824218-8.53125 8.535156-8.53125s8.535156 3.820313 8.535156 8.53125v51.199219c0 4.714844-3.824218 8.535156-8.535156 8.535156zm0 0"/><path d="m110.933594 512h-17.066406c-9.425782 0-17.066407-7.640625-17.066407-17.066406v-34.132813c0-9.425781 7.640625-17.066406 17.066407-17.066406h17.066406c9.425781 0 17.066406 7.640625 17.066406 17.066406v34.132813c0 9.425781-7.640625 17.066406-17.066406 17.066406zm-17.066406-51.199219v34.132813h17.066406v-34.132813zm0 0" fill="#3d324c"/><path d="m213.332031 512h-17.066406c-9.425781 0-17.066406-7.640625-17.066406-17.066406v-34.132813c0-9.425781 7.640625-17.066406 17.066406-17.066406h17.066406c9.425781 0 17.066407 7.640625 17.066407 17.066406v34.132813c0 9.425781-7.640626 17.066406-17.066407 17.066406zm-17.066406-51.199219v34.132813h17.066406v-34.132813zm0 0" fill="#3d324c"/><path d="m256 512c-4.710938 0-8.535156-3.820312-8.535156-8.535156v-51.199219c0-4.710937 3.824218-8.53125 8.535156-8.53125s8.535156 3.820313 8.535156 8.53125v51.199219c0 4.714844-3.824218 8.535156-8.535156 8.535156zm0 0" fill="#804169"/><path d="m290.132812 512c-4.710937 0-8.53125-3.820312-8.53125-8.535156v-51.199219c0-4.710937 3.820313-8.53125 8.53125-8.53125 4.714844 0 8.535157 3.820313 8.535157 8.53125v51.199219c0 4.714844-3.820313 8.535156-8.535157 8.535156zm0 0" fill="#804169"/><path d="m494.933594 512c-4.714844 0-8.535156-3.820312-8.535156-8.535156v-51.199219c0-4.710937 3.820312-8.53125 8.535156-8.53125 4.710937 0 8.53125 3.820313 8.53125 8.53125v51.199219c0 4.714844-3.820313 8.535156-8.53125 8.535156zm0 0"/><path d="m494.933594 512c-4.714844 0-8.535156-3.820312-8.535156-8.535156v-51.199219c0-4.710937 3.820312-8.53125 8.535156-8.53125 4.710937 0 8.53125 3.820313 8.53125 8.53125v51.199219c0 4.714844-3.820313 8.535156-8.53125 8.535156zm0 0" fill="#804169"/><path d="m392.535156 512c-4.714844 0-8.535156-3.820312-8.535156-8.535156v-51.199219c0-4.710937 3.820312-8.53125 8.535156-8.53125 4.710938 0 8.53125 3.820313 8.53125 8.53125v51.199219c0 4.714844-3.820312 8.535156-8.53125 8.535156zm0 0"/><path d="m392.535156 512c-4.714844 0-8.535156-3.820312-8.535156-8.535156v-51.199219c0-4.710937 3.820312-8.53125 8.535156-8.53125 4.710938 0 8.53125 3.820313 8.53125 8.53125v51.199219c0 4.714844-3.820312 8.535156-8.53125 8.535156zm0 0" fill="#804169"/><path d="m349.867188 512h-17.066407c-9.425781 0-17.066406-7.640625-17.066406-17.066406v-34.132813c0-9.425781 7.640625-17.066406 17.066406-17.066406h17.066407c9.425781 0 17.066406 7.640625 17.066406 17.066406v34.132813c0 9.425781-7.640625 17.066406-17.066406 17.066406zm-17.066407-51.199219v34.132813h17.066407v-34.132813zm0 0" fill="#3d324c"/><path d="m452.265625 512h-17.066406c-9.425781 0-17.066407-7.640625-17.066407-17.066406v-34.132813c0-9.425781 7.640626-17.066406 17.066407-17.066406h17.066406c9.425781 0 17.066406 7.640625 17.066406 17.066406v34.132813c0 9.425781-7.640625 17.066406-17.066406 17.066406zm-17.066406-51.199219v34.132813h17.066406v-34.132813zm0 0" fill="#3d324c"/></svg>