<svg height="512pt" viewBox="0 0 512 512" width="512pt" xmlns="http://www.w3.org/2000/svg"><g fill="#804169"><path d="m273.65625 88.277344h-35.3125c-4.875 0-8.828125-3.953125-8.828125-8.828125s3.953125-8.828125 8.828125-8.828125h35.3125c4.875 0 8.828125 3.953125 8.828125 8.828125s-3.953125 8.828125-8.828125 8.828125zm0 0"/><path d="m256 114.757812c-4.875 0-8.828125-3.953124-8.828125-8.828124v-26.480469c0-4.875 3.953125-8.828125 8.828125-8.828125s8.828125 3.953125 8.828125 8.828125v26.480469c0 4.875-3.953125 8.828124-8.828125 8.828124zm0 0"/><path d="m335.449219 88.277344h-26.484375c-4.875 0-8.828125-3.953125-8.828125-8.828125s3.953125-8.828125 8.828125-8.828125h26.484375c4.875 0 8.828125 3.953125 8.828125 8.828125s-3.953125 8.828125-8.828125 8.828125zm0 0"/><path d="m203.035156 88.277344h-26.484375c-4.875 0-8.828125-3.953125-8.828125-8.828125s3.953125-8.828125 8.828125-8.828125h26.484375c4.875 0 8.828125 3.953125 8.828125 8.828125s-3.953125 8.828125-8.828125 8.828125zm0 0"/><path d="m256 176.550781c-4.875 0-8.828125-3.953125-8.828125-8.828125v-26.480468c0-4.875 3.953125-8.828126 8.828125-8.828126s8.828125 3.953126 8.828125 8.828126v26.480468c0 4.875-3.953125 8.828125-8.828125 8.828125zm0 0"/></g><path d="m282.484375 308.964844h-26.484375c-4.875 0-8.828125-3.953125-8.828125-8.828125v-61.792969c0-4.875 3.953125-8.828125 8.828125-8.828125s8.828125 3.953125 8.828125 8.828125v52.964844h17.65625c4.875 0 8.824219 3.953125 8.824219 8.828125s-3.949219 8.828125-8.824219 8.828125zm0 0" fill="#f3d55b"/><path d="m256 247.171875c-14.625 0-26.484375-11.855469-26.484375-26.480469 0-14.628906 11.859375-26.484375 26.484375-26.484375s26.484375 11.855469 26.484375 26.484375c0 14.625-11.859375 26.480469-26.484375 26.480469zm0-35.308594c-4.875 0-8.828125 3.949219-8.828125 8.828125 0 4.875 3.953125 8.824219 8.828125 8.824219s8.828125-3.949219 8.828125-8.824219c0-4.878906-3.953125-8.828125-8.828125-8.828125zm0 0" fill="#f3d55b"/><path d="m273.65625 282.484375h-17.65625c-4.875 0-8.828125-3.953125-8.828125-8.828125s3.953125-8.828125 8.828125-8.828125h17.65625c4.875 0 8.828125 3.953125 8.828125 8.828125s-3.953125 8.828125-8.828125 8.828125zm0 0" fill="#f3d55b"/><path d="m176.550781 35.308594c0-19.5-39.523437-35.308594-88.273437-35.308594-48.753906 0-88.277344 15.808594-88.277344 35.308594 0 19.503906 39.523438 35.3125 88.277344 35.3125 48.75 0 88.273437-15.808594 88.273437-35.3125zm0 0" fill="#e4c05c"/><path d="m176.550781 141.242188v52.964843c0 19.507813-39.546875 35.308594-88.273437 35.308594-48.730469 0-88.277344-15.800781-88.277344-35.308594v-52.964843c0 19.507812 39.546875 35.308593 88.277344 35.308593 48.726562 0 88.273437-15.800781 88.273437-35.308593zm0 0" fill="#b19046"/><path d="m176.550781 88.277344v52.964844c0 19.507812-39.546875 35.308593-88.273437 35.308593-48.730469 0-88.277344-15.800781-88.277344-35.308593v-52.964844c0 19.507812 39.546875 35.308594 88.277344 35.308594 48.726562 0 88.273437-15.800782 88.273437-35.308594zm0 0" fill="#e4c05c"/><path d="m176.550781 35.308594v52.96875c0 19.507812-39.546875 35.308594-88.273437 35.308594-48.730469 0-88.277344-15.800782-88.277344-35.308594v-52.96875c0 19.511718 39.546875 35.3125 88.277344 35.3125 48.726562 0 88.273437-15.800782 88.273437-35.3125zm0 0" fill="#b19046"/><path d="m512 35.308594c0-19.5-39.523438-35.308594-88.277344-35.308594-48.75 0-88.273437 15.808594-88.273437 35.308594 0 19.503906 39.523437 35.3125 88.273437 35.3125 48.753906 0 88.277344-15.808594 88.277344-35.3125zm0 0" fill="#e4c05c"/><path d="m512 35.308594v52.96875c0 19.507812-39.546875 35.308594-88.277344 35.308594-48.726562 0-88.273437-15.800782-88.273437-35.308594v-52.96875c0 19.511718 39.546875 35.3125 88.273437 35.3125 48.730469 0 88.277344-15.800782 88.277344-35.3125zm0 0" fill="#b19046"/><path d="m512 88.277344v52.964844c0 19.507812-39.546875 35.308593-88.277344 35.308593-48.726562 0-88.273437-15.800781-88.273437-35.308593v-52.964844c0 19.507812 39.546875 35.308594 88.273437 35.308594 48.730469 0 88.277344-15.800782 88.277344-35.308594zm0 0" fill="#e4c05c"/><path d="m512 141.242188v52.964843c0 19.507813-39.546875 35.308594-88.277344 35.308594-48.726562 0-88.273437-15.800781-88.273437-35.308594v-52.964843c0 19.507812 39.546875 35.308593 88.273437 35.308593 48.730469 0 88.277344-15.800781 88.277344-35.308593zm0 0" fill="#b19046"/><path d="m379.585938 353.101562v17.65625h-238.34375v-17.65625c.027343-9.738281 7.914062-17.625 17.65625-17.652343h203.03125c9.738281.027343 17.628906 7.914062 17.65625 17.652343zm0 0" fill="#285680"/><path d="m379.585938 370.757812v123.585938c-.027344 9.738281-7.917969 17.628906-17.65625 17.65625h-203.03125c-9.742188-.027344-17.628907-7.917969-17.65625-17.65625v-123.585938zm0 0" fill="#bdc3c7"/><path d="m344.277344 485.515625h-167.726563c-4.875 0-8.828125-3.949219-8.828125-8.824219 0-4.878906 3.953125-8.828125 8.828125-8.828125h167.726563c4.875 0 8.824218 3.949219 8.824218 8.828125 0 4.875-3.949218 8.824219-8.824218 8.824219zm0 0" fill="#7f8c8d"/><path d="m273.65625 450.207031h-97.105469c-4.875 0-8.828125-3.953125-8.828125-8.828125s3.953125-8.828125 8.828125-8.828125h97.105469c4.875 0 8.828125 3.953125 8.828125 8.828125s-3.953125 8.828125-8.828125 8.828125zm0 0" fill="#7f8c8d"/><path d="m273.65625 414.898438h-97.105469c-4.875 0-8.828125-3.953126-8.828125-8.828126s3.953125-8.828124 8.828125-8.828124h97.105469c4.875 0 8.828125 3.953124 8.828125 8.828124s-3.953125 8.828126-8.828125 8.828126zm0 0" fill="#7f8c8d"/><path d="m335.449219 450.207031h-17.65625c-9.75 0-17.65625-7.90625-17.65625-17.65625v-17.652343c0-9.753907 7.90625-17.65625 17.65625-17.65625h17.65625c9.75 0 17.652343 7.902343 17.652343 17.65625v17.652343c0 9.75-7.902343 17.65625-17.652343 17.65625zm0 0" fill="#cc4b4c"/></svg>