<svg height="512pt" viewBox="-26 0 512 512" width="512pt" xmlns="http://www.w3.org/2000/svg"><path d="m264.828125 370.757812h176.550781c9.75 0 17.65625 7.90625 17.65625 17.65625v105.929688c0 9.75-7.90625 17.65625-17.65625 17.65625h-423.722656c-9.75 0-17.65625-7.90625-17.65625-17.65625v-105.929688c0-9.75 7.90625-17.65625 17.65625-17.65625h176.550781" fill="#b49aca"/><g fill="#3d324c"><path d="m70.621094 450.207031c-.726563.003907-1.449219-.085937-2.15625-.265625l-35.308594-8.828125c-3.078125-.746093-5.519531-3.089843-6.398438-6.132812-.878906-3.046875-.054687-6.328125 2.152344-8.597657 2.210938-2.273437 5.46875-3.1875 8.535156-2.394531l35.3125 8.828125c4.320313 1.082032 7.15625 5.21875 6.613282 9.640625-.542969 4.421875-4.296875 7.746094-8.75 7.75zm0 0"/><path d="m44.136719 485.515625c-3.34375 0-6.398438-1.886719-7.894531-4.878906-1.496094-2.988281-1.171876-6.570313.832031-9.242188l26.484375-35.3125c2.925781-3.898437 8.457031-4.691406 12.359375-1.765625 3.898437 2.925782 4.691406 8.460938 1.765625 12.359375l-26.484375 35.308594c-1.667969 2.226563-4.28125 3.53125-7.0625 3.53125zm0 0"/><path d="m97.101562 485.515625c-2.777343 0-5.394531-1.304687-7.058593-3.53125l-26.484375-35.308594c-2.925782-3.898437-2.132813-9.433593 1.765625-12.359375 3.898437-2.925781 9.433593-2.132812 12.359375 1.765625l26.480468 35.3125c2.007813 2.671875 2.332032 6.253907.835938 9.242188-1.496094 2.992187-4.554688 4.878906-7.898438 4.878906zm0 0"/><path d="m70.621094 450.207031c-4.457032-.003906-8.210938-3.328125-8.753906-7.75-.542969-4.421875 2.296874-8.558593 6.617187-9.640625l35.308594-8.828125c3.070312-.792969 6.328125.121094 8.535156 2.394531 2.210937 2.269532 3.03125 5.550782 2.15625 8.597657-.878906 3.042969-3.320313 5.386719-6.398437 6.132812l-35.3125 8.828125c-.703126.179688-1.425782.269532-2.152344.265625zm0 0"/><path d="m70.621094 450.207031c-4.875 0-8.828125-3.953125-8.828125-8.828125v-35.308594c0-4.875 3.953125-8.828124 8.828125-8.828124s8.828125 3.953124 8.828125 8.828124v35.308594c0 4.875-3.953125 8.828125-8.828125 8.828125zm0 0"/><path d="m176.550781 450.207031c-.726562.003907-1.449219-.085937-2.152343-.265625l-35.3125-8.828125c-4.695313-1.210937-7.535157-5.984375-6.355469-10.691406 1.179687-4.707031 5.933593-7.578125 10.648437-6.433594l35.308594 8.828125c4.320312 1.082032 7.160156 5.21875 6.617188 9.640625-.542969 4.421875-4.296876 7.746094-8.753907 7.75zm0 0"/><path d="m150.070312 485.515625c-3.34375 0-6.402343-1.886719-7.898437-4.878906-1.492187-2.988281-1.171875-6.570313.835937-9.242188l26.480469-35.3125c1.894531-2.523437 4.988281-3.84375 8.121094-3.46875 3.128906.378907 5.820313 2.398438 7.058594 5.296875 1.242187 2.902344.839843 6.242188-1.054688 8.765625l-26.480469 35.308594c-1.667968 2.226563-4.285156 3.53125-7.0625 3.53125zm0 0"/><path d="m203.035156 485.515625c-2.777344 0-5.394531-1.304687-7.0625-3.53125l-26.484375-35.308594c-2.925781-3.898437-2.132812-9.433593 1.765625-12.359375 3.902344-2.925781 9.433594-2.132812 12.359375 1.765625l26.484375 35.3125c2.003906 2.671875 2.328125 6.253907.832032 9.242188-1.496094 2.992187-4.550782 4.878906-7.894532 4.878906zm0 0"/><path d="m176.550781 450.207031c-4.453125-.003906-8.207031-3.328125-8.75-7.75s2.292969-8.558593 6.613281-9.640625l35.3125-8.828125c3.066407-.792969 6.324219.121094 8.535157 2.394531 2.207031 2.269532 3.03125 5.550782 2.152343 8.597657-.875 3.042969-3.320312 5.386719-6.398437 6.132812l-35.308594 8.828125c-.707031.179688-1.429687.269532-2.15625.265625zm0 0"/><path d="m176.550781 450.207031c-4.875 0-8.828125-3.953125-8.828125-8.828125v-35.308594c0-4.875 3.953125-8.828124 8.828125-8.828124s8.828125 3.953124 8.828125 8.828124v35.308594c0 4.875-3.953125 8.828125-8.828125 8.828125zm0 0"/><path d="m282.484375 450.207031c-.726563.003907-1.453125-.085937-2.15625-.265625l-35.308594-8.828125c-4.699219-1.210937-7.535156-5.984375-6.359375-10.691406 1.179688-4.707031 5.933594-7.578125 10.648438-6.433594l35.308594 8.828125c4.324218 1.082032 7.160156 5.21875 6.617187 9.640625s-4.296875 7.746094-8.75 7.75zm0 0"/><path d="m256 485.515625c-3.34375 0-6.398438-1.886719-7.894531-4.878906-1.496094-2.988281-1.171875-6.570313.832031-9.242188l26.484375-35.3125c2.925781-3.898437 8.457031-4.691406 12.359375-1.765625 3.898438 2.925782 4.6875 8.460938 1.761719 12.359375l-26.480469 35.308594c-1.667969 2.226563-4.285156 3.53125-7.0625 3.53125zm0 0"/><path d="m308.964844 485.515625c-2.777344 0-5.394532-1.304687-7.0625-3.53125l-26.480469-35.308594c-1.894531-2.523437-2.296875-5.863281-1.058594-8.765625 1.242188-2.898437 3.933594-4.917968 7.0625-5.296875 3.132813-.375 6.226563.945313 8.117188 3.46875l26.484375 35.3125c2.007812 2.671875 2.328125 6.253907.832031 9.242188-1.492187 2.992187-4.550781 4.878906-7.894531 4.878906zm0 0"/><path d="m282.484375 450.207031c-4.457031-.003906-8.210937-3.328125-8.753906-7.75s2.292969-8.558593 6.617187-9.640625l35.308594-8.828125c3.070312-.792969 6.328125.121094 8.535156 2.394531 2.210938 2.269532 3.03125 5.550782 2.152344 8.597657-.875 3.042969-3.316406 5.386719-6.398438 6.132812l-35.308593 8.828125c-.703125.179688-1.425781.269532-2.152344.265625zm0 0"/><path d="m282.484375 450.207031c-4.878906 0-8.828125-3.953125-8.828125-8.828125v-35.308594c0-4.875 3.949219-8.828124 8.828125-8.828124 4.875 0 8.824219 3.953124 8.824219 8.828124v35.308594c0 4.875-3.949219 8.828125-8.824219 8.828125zm0 0"/><path d="m388.414062 450.207031c-.726562.003907-1.449218-.085937-2.152343-.265625l-35.3125-8.828125c-3.078125-.746093-5.519531-3.089843-6.398438-6.132812-.878906-3.046875-.054687-6.328125 2.152344-8.597657 2.210937-2.273437 5.46875-3.1875 8.535156-2.394531l35.3125 8.828125c4.320313 1.082032 7.160157 5.21875 6.613281 9.640625-.542968 4.421875-4.292968 7.746094-8.75 7.75zm0 0"/><path d="m361.929688 485.515625c-3.34375 0-6.398438-1.886719-7.894532-4.878906-1.496094-2.988281-1.171875-6.570313.832032-9.242188l26.484374-35.3125c1.890626-2.523437 4.988282-3.84375 8.117188-3.46875 3.132812.378907 5.824219 2.398438 7.0625 5.296875 1.238281 2.902344.835938 6.242188-1.054688 8.765625l-26.484374 35.308594c-1.667969 2.226563-4.28125 3.53125-7.0625 3.53125zm0 0"/><path d="m414.898438 485.515625c-2.78125 0-5.398438-1.304687-7.0625-3.53125l-26.484376-35.308594c-2.925781-3.898437-2.132812-9.433593 1.765626-12.359375 3.898437-2.925781 9.433593-2.132812 12.359374 1.765625l26.480469 35.3125c2.007813 2.671875 2.332031 6.253907.835938 9.242188-1.496094 2.992187-4.554688 4.878906-7.894531 4.878906zm0 0"/><path d="m388.414062 450.207031c-4.457031-.003906-8.210937-3.328125-8.753906-7.75-.542968-4.421875 2.296875-8.558593 6.617188-9.640625l35.308594-8.828125c4.714843-1.144531 9.46875 1.726563 10.648437 6.433594s-1.660156 9.480469-6.355469 10.691406l-35.3125 8.828125c-.703125.179688-1.425781.269532-2.152344.265625zm0 0"/><path d="m388.414062 450.207031c-4.875 0-8.828124-3.953125-8.828124-8.828125v-35.308594c0-4.875 3.953124-8.828124 8.828124-8.828124s8.828126 3.953124 8.828126 8.828124v35.308594c0 4.875-3.953126 8.828125-8.828126 8.828125zm0 0"/></g><path d="m70.621094 176.550781v-141.242187c49.925781-22.71875 104.046875-34.746094 158.894531-35.308594 54.847656.566406 108.972656 12.59375 158.898437 35.308594v141.242187c-.203124 64.648438-31.488281 125.253907-84.066406 162.871094l-64.238281 47.996094c-6.277344 4.707031-14.90625 4.707031-21.183594 0l-64.25-47.996094c-52.574219-37.617187-83.855469-98.222656-84.054687-162.871094zm0 0" fill="#285680"/><path d="m176.550781 308.964844c-44.585937-33.316406-70.621093-77.292969-70.621093-132.414063v-114.757812c38.941406-17.222657 81.011718-26.238281 123.585937-26.484375 42.578125.246094 84.648437 9.257812 123.585937 26.484375v114.757812c0 55.121094-26.03125 99.097657-70.617187 132.414063l-43.160156 28.777344c-5.9375 3.96875-13.675781 3.96875-19.613281 0zm0 0" fill="#4482c3"/><path d="m273.65625 167.722656h-17.65625v-17.652344c0-14.628906-11.855469-26.484374-26.484375-26.484374-14.625 0-26.480469 11.855468-26.480469 26.484374v17.652344h-17.65625v-17.652344c0-24.378906 19.761719-44.140624 44.136719-44.140624 24.378906 0 44.140625 19.761718 44.140625 44.140624zm0 0" fill="#bdc3c7"/><path d="m194.207031 158.898438h70.621094c9.75 0 17.65625 7.902343 17.65625 17.652343v52.964844c0 9.753906-7.90625 17.65625-17.65625 17.65625h-70.621094c-9.75 0-17.65625-7.902344-17.65625-17.65625v-52.964844c0-9.75 7.90625-17.652343 17.65625-17.652343zm0 0" fill="#e4c05c"/><path d="m229.515625 220.691406c-4.875 0-8.824219-3.953125-8.824219-8.828125v-17.65625c0-4.875 3.949219-8.828125 8.824219-8.828125 4.878906 0 8.828125 3.953125 8.828125 8.828125v17.65625c0 4.875-3.949219 8.828125-8.828125 8.828125zm0 0" fill="#b19046"/></svg>