<svg height="512pt" viewBox="-53 0 512 512" width="512pt" xmlns="http://www.w3.org/2000/svg"><path d="m17.65625 176.550781h370.757812c9.75 0 17.65625 7.90625 17.65625 17.65625v300.136719c0 9.75-7.90625 17.65625-17.65625 17.65625h-370.757812c-9.75 0-17.65625-7.90625-17.65625-17.65625v-300.136719c0-9.75 7.90625-17.65625 17.65625-17.65625zm0 0" fill="#f0c419"/><path d="m406.070312 194.207031v300.136719c-.03125 9.738281-7.917968 17.628906-17.65625 17.65625h-185.378906v-335.449219h185.378906c9.738282.03125 17.625 7.917969 17.65625 17.65625zm0 0" fill="#f3d55b"/><path d="m70.621094 132.414062c0-73.128906 59.285156-132.414062 132.414062-132.414062s132.414063 59.285156 132.414063 132.414062v44.136719h-44.140625v-44.136719c0-48.753906-39.519532-88.277343-88.273438-88.277343s-88.277344 39.523437-88.277344 88.277343v44.136719h-44.136718zm0 0" fill="#bdc3c7"/><path d="m406.070312 291.488281v17.300781c-.613281.101563-1.234374.160157-1.855468.175782h-32.042969c-4.875 0-8.828125-3.953125-8.828125-8.828125s3.953125-8.828125 8.828125-8.828125h32.042969c.621094.015625 1.242187.074218 1.855468.179687zm0 0" fill="#f29c1f"/><path d="m406.070312 353.28125v17.300781c-.613281.101563-1.234374.160157-1.855468.175781h-32.042969c-4.875 0-8.828125-3.953124-8.828125-8.828124s3.953125-8.828126 8.828125-8.828126h32.042969c.621094.015626 1.242187.074219 1.855468.179688zm0 0" fill="#f29c1f"/><path d="m406.070312 423.902344v17.300781c-.613281.101563-1.234374.160156-1.855468.175781h-32.042969c-4.875 0-8.828125-3.953125-8.828125-8.828125s3.953125-8.828125 8.828125-8.828125h32.042969c.621094.015625 1.242187.074219 1.855468.179688zm0 0" fill="#f29c1f"/><path d="m42.726562 300.136719c0 4.875-3.953124 8.828125-8.828124 8.828125h-32.042969c-.621094-.015625-1.242188-.074219-1.855469-.175782v-17.300781c.613281-.105469 1.234375-.164062 1.855469-.179687h32.042969c4.875 0 8.828124 3.953125 8.828124 8.828125zm0 0" fill="#f29c1f"/><path d="m42.726562 361.929688c0 4.875-3.953124 8.828124-8.828124 8.828124h-32.042969c-.621094-.015624-1.242188-.074218-1.855469-.175781v-17.300781c.613281-.105469 1.234375-.164062 1.855469-.179688h32.042969c4.875 0 8.828124 3.953126 8.828124 8.828126zm0 0" fill="#f29c1f"/><path d="m42.726562 432.550781c0 4.875-3.953124 8.828125-8.828124 8.828125h-32.042969c-.621094-.015625-1.242188-.074218-1.855469-.175781v-17.300781c.613281-.105469 1.234375-.164063 1.855469-.179688h32.042969c4.875 0 8.828124 3.953125 8.828124 8.828125zm0 0" fill="#f29c1f"/><g fill="#3d324c"><path d="m115.324219 441.882812c-3.390625 0-6.484375-1.945312-7.953125-5.003906-1.46875-3.054687-1.058594-6.683594 1.058594-9.332031 2.558593-3.214844 4.992187-6.527344 7.300781-9.941406 2.363281-3.53125 3.265625-4.855469 5.144531-8.199219 2.410156-4.199219 7.746094-5.671875 11.96875-3.308594 4.222656 2.363282 5.753906 7.6875 3.4375 11.933594-1.695312 3.054688-3.546875 6.023438-5.542969 8.886719-2.941406 4.363281-5.652343 8.0625-8.511719 11.644531-1.675781 2.101562-4.214843 3.320312-6.902343 3.320312zm0 0"/><path d="m143.808594 387.0625c-.835938 0-1.671875-.117188-2.480469-.351562-2.246094-.65625-4.140625-2.183594-5.265625-4.238282-1.125-2.054687-1.386719-4.46875-.726562-6.71875l.933593-3.363281c1.078125-4.058594 1.988281-8.195313 2.730469-12.410156.730469-4.175781 1.296875-8.484375 1.675781-12.808594.378907-4.324219.566407-8.738281.566407-13.128906-.003907-4.179688.421874-8.347657 1.261718-12.445313.808594-3.980468 2.015625-7.867187 3.601563-11.609375 4.671875-11.03125 12.441406-20.472656 22.367187-27.179687 6.683594-4.507813 14.179688-7.667969 22.070313-9.304688 4.113281-.835937 8.296875-1.253906 12.492187-1.253906 4.875 0 8.828125 3.953125 8.828125 8.828125s-3.953125 8.828125-8.828125 8.828125c-2.988281-.003906-5.96875.292969-8.898437.882812-14.234375 2.9375-26.117188 12.683594-31.78125 26.066407-1.128907 2.667969-1.988281 5.4375-2.566407 8.273437-.597656 2.929688-.890624 5.914063-.882812 8.90625 0 4.898438-.210938 9.84375-.636719 14.664063-.421875 4.820312-1.050781 9.65625-1.878906 14.328125-.832031 4.667968-1.847656 9.347656-3.046875 13.902344l-1.058594 3.769531c-1.097656 3.769531-4.550781 6.363281-8.476562 6.363281zm0 0"/><path d="m248.648438 404.984375c-.703126.003906-1.402344-.078125-2.085938-.25-4.734375-1.148437-7.640625-5.917969-6.496094-10.652344.757813-3.160156 1.464844-6.355469 2.109375-9.5625 1.09375-5.4375 2.011719-10.9375 2.753907-16.496093.742187-5.5625 1.300781-11.175782 1.679687-16.835938.375-5.65625.5625-11.371094.5625-17.144531.007813-2.988281-.285156-5.96875-.882813-8.898438-1.152343-5.640625-3.410156-11.003906-6.636718-15.773437-1.582032-2.347656-3.386719-4.535156-5.386719-6.539063-.546875-.539062-1.113281-1.070312-1.683594-1.589843-3.605469-3.285157-3.867187-8.867188-.585937-12.472657 3.285156-3.605469 8.871094-3.867187 12.476562-.585937.765625.707031 1.535156 1.421875 2.277344 2.164062 11.59375 11.582032 18.101562 27.308594 18.078125 43.695313 0 6.082031-.203125 12.253906-.601563 18.320312-.398437 6.0625-1.015624 12.109375-1.765624 18-.75 5.886719-1.765626 11.816407-2.9375 17.652344-.691407 3.433594-1.445313 6.84375-2.269532 10.242187-.972656 3.960938-4.527344 6.742188-8.605468 6.726563zm0 0"/><path d="m221.28125 473.882812c-3.15625.007813-6.078125-1.675781-7.65625-4.40625-1.582031-2.734374-1.585938-6.101562-.007812-8.835937 2.667968-4.707031 5.1875-9.46875 7.566406-14.28125 2.378906-4.816406 4.601562-9.742187 6.675781-14.789063l1.375-3.386718c1.890625-4.390625 6.925781-6.480469 11.367187-4.714844 4.441407 1.761719 6.671876 6.738281 5.035157 11.226562l-1.464844 3.628907c-2.214844 5.351562-4.589844 10.617187-7.132813 15.800781-2.542968 5.1875-5.234374 10.273438-8.078124 15.265625-1.5625 2.769531-4.496094 4.488281-7.679688 4.492187zm0 0"/><path d="m171.253906 485.515625c-3.308594 0-6.339844-1.851563-7.847656-4.796875-1.511719-2.945312-1.25-6.488281.679688-9.175781l8.871093-12.359375c2.96875-4.296875 5.90625-8.90625 8.660157-13.585938 2.753906-4.675781 5.351562-9.515625 7.726562-14.34375s4.652344-9.90625 6.691406-15.007812c2.039063-5.101563 3.925782-10.320313 5.578125-15.519532 1.652344-5.199218 3.160157-10.652343 4.414063-16.039062 1.253906-5.382812 2.355468-10.972656 3.222656-16.496094.863281-5.527344 1.535156-11.257812 1.96875-16.914062.429688-5.660156.644531-11.414063.644531-17.234375-.003906-.589844-.066406-1.183594-.1875-1.765625-.113281-.550782-.28125-1.09375-.503906-1.613282-.4375-1.046874-1.074219-1.996093-1.878906-2.796874-.40625-.40625-.847657-.773438-1.324219-1.097657-.476562-.320312-.980469-.597656-1.507812-.828125-.523438-.214844-1.0625-.378906-1.617188-.496094-1.777344-.375-3.625-.195312-5.296875.511719-1.039063.449219-1.984375 1.089844-2.789063 1.890625-.804687.808594-1.449218 1.765625-1.898437 2.816406-.222656.53125-.394531 1.085938-.511719 1.652344-.117187.578125-.175781 1.171875-.175781 1.761719 0 4.878906-3.953125 8.828125-8.828125 8.828125s-8.828125-3.949219-8.828125-8.828125c0-1.777344.179687-3.550781.539063-5.292969 1.042968-5.09375 3.558593-9.765625 7.238281-13.4375 3.667969-3.695312 8.34375-6.222656 13.445312-7.265625 3.511719-.710937 7.132813-.710937 10.644531 0 3.386719.691407 6.605469 2.050781 9.464844 3.992188 2.820313 1.902343 5.246094 4.328125 7.148438 7.148437.960937 1.410156 1.777344 2.914063 2.4375 4.484375.683594 1.605469 1.203125 3.273438 1.554687 4.980469.355469 1.757812.535157 3.546875.539063 5.339844 0 6.230468-.238282 12.507812-.726563 18.660156-.484375 6.152344-1.191406 12.261719-2.125 18.273438-.9375 6.011718-2.101562 11.960937-3.480469 17.824218-1.375 5.859375-2.992187 11.644532-4.792968 17.328125-1.800782 5.683594-3.804688 11.265625-6.027344 16.773438-2.226562 5.507812-4.636719 10.910156-7.222656 16.160156-2.585938 5.253906-5.375 10.4375-8.351563 15.503906-2.972656 5.066407-6.179687 10.019531-9.433593 14.785157l-8.960938 12.507812c-1.65625 2.300781-4.316406 3.667969-7.152344 3.671875zm0 0"/><path d="m144.773438 461.683594c-3.367188-.003906-6.4375-1.921875-7.921876-4.945313-1.480468-3.019531-1.113281-6.625.945313-9.285156 3.011719-3.894531 5.917969-7.945313 8.636719-12.121094s5.296875-8.464843 7.667968-12.816406c2.375-4.351563 4.617188-8.933594 6.632813-13.445313 2.011719-4.511718 3.898437-9.332031 5.542969-14.035156 1.640625-4.707031 3.140625-9.667968 4.414062-14.566406 1.128906-4.117188 2.050782-8.289062 2.761719-12.5.53125-3.109375 2.679687-5.699219 5.636719-6.796875 2.957031-1.09375 6.277344-.53125 8.703125 1.484375 2.429687 2.011719 3.597656 5.167969 3.066406 8.277344-.976563 5.730468-1.761719 8.714844-3.078125 13.949218-1.386719 5.375-3.011719 10.742188-4.828125 15.96875-1.820313 5.226563-3.839844 10.328126-6.082031 15.378907-2.242188 5.046875-4.644532 9.902343-7.265625 14.722656-2.621094 4.820313-5.421875 9.492187-8.394531 14.046875-2.976563 4.554688-6.179688 9.003906-9.457032 13.238281-1.667968 2.167969-4.246094 3.441407-6.980468 3.445313zm0 0"/><path d="m91.808594 414.492188c-3.304688-.007813-6.324219-1.855469-7.835938-4.789063-1.511718-2.9375-1.257812-6.46875.65625-9.160156 1.667969-2.355469 3.265625-4.777344 4.769532-7.246094 1.5-2.472656 2.902343-5.007813 4.226562-7.601563 1.324219-2.597656 2.523438-5.21875 3.644531-7.945312 1.121094-2.726562 2.136719-5.4375 3.054688-8.234375.917969-2.800781 1.765625-5.625 2.429687-8.511719.660156-2.886718 1.296875-5.800781 1.765625-8.765625.46875-2.964843.882813-5.96875 1.085938-9.003906s.324219-6.089844.324219-9.191406c0-4.875 3.953124-8.824219 8.828124-8.824219s8.828126 3.949219 8.828126 8.824219c0 3.578125-.140626 7.109375-.421876 10.59375-.285156 3.484375-.703124 6.953125-1.253906 10.398437-.546875 3.425782-1.230468 6.808594-2.050781 10.144532-.800781 3.320312-1.765625 6.59375-2.796875 9.816406s-2.242188 6.410156-3.53125 9.523437c-1.289062 3.117188-2.699219 6.179688-4.210938 9.136719-1.507812 2.957031-3.152343 5.914062-4.871093 8.757812-1.722657 2.84375-3.53125 5.640626-5.5 8.34375-1.636719 2.328126-4.296875 3.71875-7.140625 3.734376zm0 0"/><path d="m122.050781 307.675781c-2.960937 0-5.722656-1.488281-7.355469-3.953125-1.632812-2.46875-1.921874-5.589844-.765624-8.316406 2.324218-5.5 5.199218-10.746094 8.589843-15.660156 14.183594-21.050782 36.046875-35.707032 60.910157-40.835938 12.90625-2.613281 26.207031-2.613281 39.113281 0 24.867187 5.140625 46.746093 19.796875 60.964843 40.835938l1.15625 1.703125c2.4375 3.351562 4.457032 6.988281 6 10.832031 1.859376 4.480469-.246093 9.621094-4.714843 11.511719s-9.621094-.179688-11.542969-4.636719c-1.09375-2.757812-2.542969-5.359375-4.316406-7.738281l-1.21875-1.765625c-5.714844-8.46875-13.003906-15.757813-21.46875-21.480469-8.59375-5.804687-18.242188-9.863281-28.398438-11.953125-10.570312-2.140625-21.464844-2.140625-32.035156 0-10.15625 2.085938-19.804688 6.144531-28.398438 11.945312-4.214843 2.859376-8.152343 6.109376-11.757812 9.710938-3.605469 3.605469-6.855469 7.542969-9.710938 11.765625-2.757812 3.964844-5.089843 8.210937-6.964843 12.660156-1.378907 3.246094-4.558594 5.359375-8.085938 5.375zm0 0"/><path d="m268.421875 457.929688c-1.167969 0-2.320313-.234376-3.390625-.6875-4.5-1.871094-6.628906-7.039063-4.757812-11.539063 1.765624-4.292969 3.449218-8.640625 5.058593-13.035156 1.605469-4.398438 3.078125-8.847657 4.414063-13.347657 1.375-4.496093 2.644531-9.039062 3.804687-13.621093 1.15625-4.585938 2.210938-9.210938 3.160157-13.878907.945312-4.671874 1.777343-9.378906 2.488281-14.125.710937-4.742187 1.300781-9.527343 1.765625-14.351562.484375-4.8125.882812-9.710938 1.09375-14.558594.210937-4.84375.425781-9.804687.425781-14.742187 0-4.875 3.949219-8.824219 8.824219-8.824219 4.878906 0 8.828125 3.949219 8.828125 8.824219 0 5.246093-.128907 10.457031-.386719 15.636719-.257812 5.175781-.644531 10.320312-1.15625 15.429687-.523438 5.121094-1.164062 10.191406-1.917969 15.21875-.75 5.027344-1.632812 10.027344-2.648437 15.007813-1.003906 4.953124-2.121094 9.863281-3.351563 14.722656-1.230469 4.863281-2.578125 9.675781-4.042969 14.441406-1.453124 4.769531-3.027343 9.476562-4.714843 14.125-1.667969 4.660156-3.46875 9.277344-5.359375 13.839844-1.359375 3.300781-4.570313 5.457031-8.136719 5.464844zm0 0"/><path d="m79.449219 342.871094c-4.875 0-8.828125-3.949219-8.828125-8.828125-.015625-8.957031.871094-17.894531 2.648437-26.675781 1.753907-8.53125 4.355469-16.867188 7.757813-24.882813 6.480468-15.304687 15.785156-29.253906 27.417968-41.121094 2.210938-2.253906 5.453126-3.15625 8.507813-2.371093 3.054687.785156 5.457031 3.140624 6.304687 6.179687.847657 3.039063.011719 6.296875-2.195312 8.550781-10.085938 10.289063-18.148438 22.378906-23.773438 35.644532-2.933593 6.9375-5.167968 14.152343-6.675781 21.53125-1.558593 7.617187-2.339843 15.371093-2.335937 23.144531 0 4.878906-3.953125 8.828125-8.828125 8.828125zm0 0"/><path d="m139.476562 236.878906c-3.964843 0-7.441406-2.640625-8.503906-6.457031-1.0625-3.820313.546875-7.878906 3.9375-9.925781 12.8125-7.707032 26.84375-13.175782 41.492188-16.171875 17.605468-3.574219 35.75-3.574219 53.351562 0 3.84375.78125 7.621094 1.730469 11.328125 2.839843 3.058594.875 5.410157 3.324219 6.15625 6.417969.746094 3.089844-.226562 6.34375-2.546875 8.515625-2.324218 2.171875-5.632812 2.929688-8.667968 1.980469-3.214844-.964844-6.484376-1.785156-9.808594-2.460937-15.269532-3.097657-31.003906-3.097657-46.273438 0-12.675781 2.59375-24.816406 7.328124-35.902344 14-1.375.832031-2.953124 1.269531-4.5625 1.261718zm0 0"/><path d="m321.324219 402.230469c-.519531-.003907-1.035157-.046875-1.542969-.132813-2.308594-.40625-4.359375-1.714844-5.703125-3.632812-1.339844-1.917969-1.867187-4.292969-1.457031-6.597656.421875-2.355469.820312-4.710938 1.191406-7.0625.371094-2.375.714844-4.742188 1.042969-7.117188.324219-2.375.617187-4.785156.878906-7.175781.265625-2.390625.523437-4.800781.742187-7.210938.222657-2.410156.417969-4.820312.582032-7.238281.167968-2.421875.3125-4.847656.417968-7.292969.105469-2.445312.203126-4.882812.261719-7.335937.0625-2.453125.082031-4.898438.082031-7.371094 0-7.769531-.78125-15.523438-2.332031-23.136719-4.535156-21.980469-15.410156-42.148437-31.285156-58.015625-4.820313-4.816406-10.054687-9.195312-15.640625-13.089844-4.003906-2.785156-4.992188-8.285156-2.207031-12.289062 2.78125-4.003906 8.285156-4.992188 12.289062-2.207031 20.542969 14.300781 36.625 34.113281 46.394531 57.160156 3.390626 8.011719 5.972657 16.339844 7.71875 24.867187 1.773438 8.78125 2.660157 17.71875 2.644532 26.675782 0 2.59375-.027344 5.1875-.085938 7.777344-.058594 2.589843-.152344 5.171874-.273437 7.75-.117188 2.558593-.265625 5.117187-.441407 7.671874-.175781 2.566407-.378906 5.109376-.609374 7.644532-.230469 2.53125-.496094 5.085937-.785157 7.601562-.292969 2.515625-.601562 5.039063-.9375 7.546875-.335937 2.507813-.707031 4.996094-1.09375 7.484375-.386719 2.488282-.8125 4.953125-1.246093 7.414063-.730469 4.195312-4.351563 7.269531-8.605469 7.3125zm0 0"/></g></svg>