<svg height="512pt" viewBox="0 -4 512.00021 512" width="512pt" xmlns="http://www.w3.org/2000/svg"><path d="m418.238281 0-42.667969 17.066406-25.597656-17.066406-51.199218 17.066406-42.667969-17.066406-42.667969 17.066406-59.734375-17.066406-25.597656 17.066406-34.132813-17.066406v221.867188h324.265625zm0 0" fill="#f9eab0"/><path d="m239.039062 59.734375h-110.933593c-4.714844 0-8.535157-3.820313-8.535157-8.535156 0-4.710938 3.820313-8.53125 8.535157-8.53125h110.933593c4.710938 0 8.53125 3.820312 8.53125 8.53125 0 4.714843-3.820312 8.535156-8.53125 8.535156zm0 0" fill="#464f5d"/><path d="m239.039062 93.867188h-110.933593c-4.714844 0-8.535157-3.820313-8.535157-8.535157 0-4.710937 3.820313-8.53125 8.535157-8.53125h110.933593c4.710938 0 8.53125 3.820313 8.53125 8.53125 0 4.714844-3.820312 8.535157-8.53125 8.535157zm0 0" fill="#464f5d"/><path d="m384.105469 59.734375h-110.933594c-4.714844 0-8.535156-3.820313-8.535156-8.535156 0-4.710938 3.820312-8.53125 8.535156-8.53125h110.933594c4.710937 0 8.53125 3.820312 8.53125 8.53125 0 4.714843-3.820313 8.535156-8.53125 8.535156zm0 0" fill="#464f5d"/><path d="m384.105469 93.867188h-110.933594c-4.714844 0-8.535156-3.820313-8.535156-8.535157 0-4.710937 3.820312-8.53125 8.535156-8.53125h110.933594c4.710937 0 8.53125 3.820313 8.53125 8.53125 0 4.714844-3.820313 8.535157-8.53125 8.535157zm0 0" fill="#464f5d"/><path d="m384.105469 128h-256c-4.714844 0-8.535157-3.820312-8.535157-8.535156 0-4.710938 3.820313-8.53125 8.535157-8.53125h256c4.710937 0 8.53125 3.820312 8.53125 8.53125 0 4.714844-3.820313 8.535156-8.53125 8.535156zm0 0" fill="#464f5d"/><path d="m384.105469 162.132812h-256c-4.714844 0-8.535157-3.820312-8.535157-8.53125 0-4.714843 3.820313-8.535156 8.535157-8.535156h256c4.710937 0 8.53125 3.820313 8.53125 8.535156 0 4.710938-3.820313 8.53125-8.53125 8.53125zm0 0" fill="#464f5d"/><path d="m384.105469 196.265625h-153.601563c-4.710937 0-8.53125-3.820313-8.53125-8.53125 0-4.714844 3.820313-8.535156 8.53125-8.535156h153.601563c4.710937 0 8.53125 3.820312 8.53125 8.535156 0 4.710937-3.820313 8.53125-8.53125 8.53125zm0 0" fill="#464f5d"/><path d="m136.636719 187.734375h51.203125c4.710937 0 8.53125 3.820313 8.53125 8.53125v25.601563h-68.265625v-25.601563c0-4.710937 3.820312-8.53125 8.53125-8.53125zm0 0" fill="#804169"/><path d="m401.171875 418.132812h-17.066406c-9.425781 0-17.066407-7.640624-17.066407-17.066406v-34.132812c0-9.425782 7.640626-17.066406 17.066407-17.066406h17.066406c9.425781 0 17.066406 7.640624 17.066406 17.066406v34.132812c0 9.425782-7.640625 17.066406-17.066406 17.066406zm-17.066406-51.199218v34.132812h17.066406v-34.132812zm0 0" fill="#3d324c"/><path d="m239.039062 418.132812c-4.714843 0-8.535156-3.820312-8.535156-8.53125v-51.203124c0-4.710938 3.820313-8.53125 8.535156-8.53125 4.710938 0 8.53125 3.820312 8.53125 8.53125v51.203124c0 4.710938-3.820312 8.53125-8.53125 8.53125zm0 0" fill="#804169"/><path d="m204.90625 418.132812c-4.714844 0-8.535156-3.820312-8.535156-8.53125v-51.203124c0-4.710938 3.820312-8.53125 8.535156-8.53125 4.710938 0 8.53125 3.820312 8.53125 8.53125v51.203124c0 4.710938-3.820312 8.53125-8.53125 8.53125zm0 0" fill="#804169"/><path d="m273.171875 418.132812c-4.714844 0-8.535156-3.820312-8.535156-8.53125v-51.203124c0-4.710938 3.820312-8.53125 8.535156-8.53125 4.710937 0 8.53125 3.820312 8.53125 8.53125v51.203124c0 4.710938-3.820313 8.53125-8.53125 8.53125zm0 0" fill="#804169"/><path d="m102.503906 418.132812c-4.710937 0-8.53125-3.820312-8.53125-8.53125v-51.203124c0-4.710938 3.820313-8.53125 8.53125-8.53125 4.714844 0 8.535156 3.820312 8.535156 8.53125v51.203124c0 4.710938-3.820312 8.53125-8.535156 8.53125zm0 0"/><path d="m102.503906 418.132812c-4.710937 0-8.53125-3.820312-8.53125-8.53125v-51.203124c0-4.710938 3.820313-8.53125 8.53125-8.53125 4.714844 0 8.535156 3.820312 8.535156 8.53125v51.203124c0 4.710938-3.820312 8.53125-8.535156 8.53125zm0 0" fill="#804169"/><path d="m162.238281 418.132812h-17.066406c-9.425781 0-17.066406-7.640624-17.066406-17.066406v-34.132812c0-9.425782 7.640625-17.066406 17.066406-17.066406h17.066406c9.425781 0 17.066407 7.640624 17.066407 17.066406v34.132812c0 9.425782-7.640626 17.066406-17.066407 17.066406zm-17.066406-51.199218v34.132812h17.066406v-34.132812zm0 0" fill="#3d324c"/><path d="m332.90625 418.132812h-17.066406c-9.425782 0-17.066406-7.640624-17.066406-17.066406v-34.132812c0-9.425782 7.640624-17.066406 17.066406-17.066406h17.066406c9.425781 0 17.066406 7.640624 17.066406 17.066406v34.132812c0 9.425782-7.640625 17.066406-17.066406 17.066406zm-17.066406-51.199218v34.132812h17.066406v-34.132812zm0 0" fill="#3d324c"/><path d="m128.105469 332.800781h-17.066407c-9.425781 0-17.066406-7.640625-17.066406-17.066406v-42.667969c0-4.710937 3.820313-8.53125 8.53125-8.53125 4.714844 0 8.535156 3.820313 8.535156 8.53125v42.667969h17.066407v-42.667969c0-4.710937 3.820312-8.53125 8.53125-8.53125 4.714843 0 8.535156 3.820313 8.535156 8.53125v42.667969c0 9.425781-7.640625 17.066406-17.066406 17.066406zm0 0" fill="#3d324c"/><path d="m273.171875 332.800781c-4.714844 0-8.535156-3.820312-8.535156-8.535156v-51.199219c0-4.710937 3.820312-8.53125 8.535156-8.53125 4.710937 0 8.53125 3.820313 8.53125 8.53125v51.199219c0 4.714844-3.820313 8.535156-8.53125 8.535156zm0 0" fill="#804169"/><path d="m307.304688 332.800781c-4.710938 0-8.53125-3.820312-8.53125-8.535156v-51.199219c0-4.710937 3.820312-8.53125 8.53125-8.53125 4.714843 0 8.535156 3.820313 8.535156 8.53125v51.199219c0 4.714844-3.820313 8.535156-8.535156 8.535156zm0 0" fill="#804169"/><path d="m239.039062 332.800781c-4.714843 0-8.535156-3.820312-8.535156-8.535156v-51.199219c0-4.710937 3.820313-8.53125 8.535156-8.53125 4.710938 0 8.53125 3.820313 8.53125 8.53125v51.199219c0 4.714844-3.820312 8.535156-8.53125 8.535156zm0 0" fill="#804169"/><path d="m409.703125 332.800781c-4.710937 0-8.53125-3.820312-8.53125-8.535156v-51.199219c0-4.710937 3.820313-8.53125 8.53125-8.53125 4.714844 0 8.535156 3.820313 8.535156 8.53125v51.199219c0 4.714844-3.820312 8.535156-8.535156 8.535156zm0 0"/><path d="m409.703125 332.800781c-4.710937 0-8.53125-3.820312-8.53125-8.535156v-51.199219c0-4.710937 3.820313-8.53125 8.53125-8.53125 4.714844 0 8.535156 3.820313 8.535156 8.53125v51.199219c0 4.714844-3.820312 8.535156-8.535156 8.535156zm0 0" fill="#804169"/><path d="m367.039062 332.800781h-17.066406c-9.425781 0-17.066406-7.640625-17.066406-17.066406v-42.667969c0-4.710937 3.820312-8.53125 8.53125-8.53125 4.714844 0 8.535156 3.820313 8.535156 8.53125v42.667969h17.066406v-42.667969c0-4.710937 3.820313-8.53125 8.53125-8.53125 4.714844 0 8.535157 3.820313 8.535157 8.53125v42.667969c0 9.425781-7.640625 17.066406-17.066407 17.066406zm0 0" fill="#3d324c"/><path d="m196.371094 332.800781h-17.066406c-9.425782 0-17.066407-7.640625-17.066407-17.066406v-42.667969c0-4.710937 3.820313-8.53125 8.535157-8.53125 4.710937 0 8.53125 3.820313 8.53125 8.53125v42.667969h17.066406v-42.667969c0-4.710937 3.820312-8.53125 8.535156-8.53125 4.710938 0 8.53125 3.820313 8.53125 8.53125v42.667969c0 9.425781-7.640625 17.066406-17.066406 17.066406zm0 0" fill="#3d324c"/><path d="m128.105469 503.464844h-17.066407c-9.425781 0-17.066406-7.640625-17.066406-17.066406v-34.132813c0-9.425781 7.640625-17.066406 17.066406-17.066406h17.066407c9.425781 0 17.066406 7.640625 17.066406 17.066406v34.132813c0 9.425781-7.640625 17.066406-17.066406 17.066406zm-17.066407-51.199219v34.132813h17.066407v-34.132813zm0 0" fill="#3d324c"/><path d="m307.304688 503.464844c-4.710938 0-8.53125-3.820313-8.53125-8.53125v-51.199219c0-4.714844 3.820312-8.535156 8.53125-8.535156 4.714843 0 8.535156 3.820312 8.535156 8.535156v51.199219c0 4.710937-3.820313 8.53125-8.535156 8.53125zm0 0" fill="#804169"/><path d="m204.90625 503.464844c-4.714844 0-8.535156-3.820313-8.535156-8.53125v-51.199219c0-4.714844 3.820312-8.535156 8.535156-8.535156 4.710938 0 8.53125 3.820312 8.53125 8.535156v51.199219c0 4.710937-3.820312 8.53125-8.53125 8.53125zm0 0" fill="#804169"/><path d="m170.773438 503.464844c-4.714844 0-8.535157-3.820313-8.535157-8.53125v-51.199219c0-4.714844 3.820313-8.535156 8.535157-8.535156 4.710937 0 8.53125 3.820312 8.53125 8.535156v51.199219c0 4.710937-3.820313 8.53125-8.53125 8.53125zm0 0" fill="#804169"/><path d="m409.703125 503.464844c-4.710937 0-8.53125-3.820313-8.53125-8.53125v-51.199219c0-4.714844 3.820313-8.535156 8.53125-8.535156 4.714844 0 8.535156 3.820312 8.535156 8.535156v51.199219c0 4.710937-3.820312 8.53125-8.535156 8.53125zm0 0"/><path d="m409.703125 503.464844c-4.710937 0-8.53125-3.820313-8.53125-8.53125v-51.199219c0-4.714844 3.820313-8.535156 8.53125-8.535156 4.714844 0 8.535156 3.820312 8.535156 8.535156v51.199219c0 4.710937-3.820312 8.53125-8.535156 8.53125zm0 0" fill="#804169"/><path d="m367.039062 503.464844h-17.066406c-9.425781 0-17.066406-7.640625-17.066406-17.066406v-34.132813c0-9.425781 7.640625-17.066406 17.066406-17.066406h17.066406c9.425782 0 17.066407 7.640625 17.066407 17.066406v34.132813c0 9.425781-7.640625 17.066406-17.066407 17.066406zm-17.066406-51.199219v34.132813h17.066406v-34.132813zm0 0" fill="#3d324c"/><path d="m264.636719 503.464844h-17.066407c-9.425781 0-17.066406-7.640625-17.066406-17.066406v-34.132813c0-9.425781 7.640625-17.066406 17.066406-17.066406h17.066407c9.425781 0 17.066406 7.640625 17.066406 17.066406v34.132813c0 9.425781-7.640625 17.066406-17.066406 17.066406zm-17.066407-51.199219v34.132813h17.066407v-34.132813zm0 0" fill="#3d324c"/><g fill="#4482c3"><path d="m477.972656 494.933594c-4.714844 0-8.535156-3.820313-8.535156-8.535156v-51.199219c0-4.710938 3.820312-8.53125 8.535156-8.53125 4.710938 0 8.53125 3.820312 8.53125 8.53125v51.199219c0 4.714843-3.820312 8.535156-8.53125 8.535156zm0 0"/><path d="m477.972656 503.464844c-2.265625 0-4.433594-.898438-6.035156-2.5l-25.597656-25.597656c-3.234375-3.347657-3.1875-8.671876.101562-11.960938 3.292969-3.292969 8.613282-3.339844 11.964844-.105469l19.566406 19.566407 19.566406-19.566407c3.347657-3.234375 8.671876-3.1875 11.960938.105469 3.292969 3.289062 3.339844 8.613281.105469 11.960938l-25.601563 25.597656c-1.597656 1.601562-3.769531 2.5-6.03125 2.5zm0 0"/><path d="m477.972656 409.601562c-4.714844 0-8.535156-3.820312-8.535156-8.535156v-17.066406c0-4.710938 3.820312-8.535156 8.535156-8.535156 4.710938 0 8.53125 3.824218 8.53125 8.535156v17.066406c0 4.714844-3.820312 8.535156-8.53125 8.535156zm0 0"/><path d="m477.972656 358.398438c-4.714844 0-8.535156-3.820313-8.535156-8.53125v-17.066407c0-4.714843 3.820312-8.535156 8.535156-8.535156 4.710938 0 8.53125 3.820313 8.53125 8.535156v17.066407c0 4.710937-3.820312 8.53125-8.53125 8.53125zm0 0"/><path d="m34.238281 494.933594c-4.710937 0-8.535156-3.820313-8.535156-8.535156v-51.199219c0-4.710938 3.824219-8.53125 8.535156-8.53125 4.714844 0 8.535157 3.820312 8.535157 8.53125v51.199219c0 4.714843-3.820313 8.535156-8.535157 8.535156zm0 0"/><path d="m34.238281 503.464844c-2.261719 0-4.433593-.898438-6.03125-2.5l-25.601562-25.597656c-2.21875-2.144532-3.109375-5.316407-2.328125-8.300782.78125-2.980468 3.113281-5.3125 6.09375-6.09375 2.984375-.78125 6.15625.109375 8.300781 2.328125l19.566406 19.566407 19.566407-19.566407c3.347656-3.234375 8.671874-3.1875 11.960937.105469 3.292969 3.289062 3.339844 8.613281.105469 11.960938l-25.601563 25.597656c-1.597656 1.601562-3.769531 2.5-6.03125 2.5zm0 0"/><path d="m34.238281 409.601562c-4.710937 0-8.535156-3.820312-8.535156-8.535156v-17.066406c0-4.710938 3.824219-8.535156 8.535156-8.535156 4.714844 0 8.535157 3.824218 8.535157 8.535156v17.066406c0 4.714844-3.820313 8.535156-8.535157 8.535156zm0 0"/><path d="m34.238281 358.398438c-4.710937 0-8.535156-3.820313-8.535156-8.53125v-17.066407c0-4.714843 3.824219-8.535156 8.535156-8.535156 4.714844 0 8.535157 3.820313 8.535157 8.535156v17.066407c0 4.710937-3.820313 8.53125-8.535157 8.53125zm0 0"/><path d="m503.570312 230.398438v34.136718c0 4.710938-3.820312 8.53125-8.53125 8.53125h-477.867187c-4.714844 0-8.535156-3.820312-8.535156-8.53125v-34.136718c0-4.710938 3.820312-8.53125 8.535156-8.53125h477.867187c4.710938 0 8.53125 3.820312 8.53125 8.53125zm0 0"/></g><path d="m59.839844 221.867188h392.53125v51.199218h-392.53125zm0 0" fill="#285680"/></svg>