<svg height="512pt" viewBox="0 0 512 512" width="512pt" xmlns="http://www.w3.org/2000/svg"><path d="m25.601562 8.535156h460.796876c9.425781 0 17.066406 7.640625 17.066406 17.066406v460.796876c0 9.425781-7.640625 17.066406-17.066406 17.066406h-460.796876c-9.425781 0-17.066406-7.640625-17.066406-17.066406v-460.796876c0-9.425781 7.640625-17.066406 17.066406-17.066406zm0 0" fill="#b0d3f0"/><path d="m503.464844 68.265625c-4.710938 0-8.53125-3.820313-8.53125-8.53125v-33.777344c-.003906-4.90625-3.984375-8.886719-8.890625-8.890625h-33.777344c-4.710937 0-8.53125-3.820312-8.53125-8.53125 0-4.714844 3.820313-8.535156 8.53125-8.535156h33.777344c14.328125.015625 25.941406 11.628906 25.957031 25.957031v33.777344c0 4.710937-3.820312 8.53125-8.535156 8.53125zm0 0" fill="#285680"/><path d="m486.042969 512h-33.777344c-4.710937 0-8.53125-3.820312-8.53125-8.535156 0-4.710938 3.820313-8.53125 8.53125-8.53125h33.777344c4.90625-.003906 8.886719-3.984375 8.890625-8.890625v-33.777344c0-4.710937 3.820312-8.53125 8.53125-8.53125 4.714844 0 8.535156 3.820313 8.535156 8.53125v33.777344c-.015625 14.328125-11.628906 25.941406-25.957031 25.957031zm0 0" fill="#285680"/><path d="m8.535156 68.265625c-4.714844 0-8.535156-3.820313-8.535156-8.53125v-33.777344c.015625-14.328125 11.628906-25.941406 25.957031-25.957031h33.777344c4.710937 0 8.53125 3.820312 8.53125 8.535156 0 4.710938-3.820313 8.53125-8.53125 8.53125h-33.777344c-4.90625.003906-8.886719 3.984375-8.890625 8.890625v33.777344c0 4.710937-3.820312 8.53125-8.53125 8.53125zm0 0" fill="#285680"/><path d="m59.734375 512h-33.777344c-14.328125-.015625-25.941406-11.628906-25.957031-25.957031v-32.070313c0-4.710937 3.820312-8.53125 8.535156-8.53125 4.710938 0 8.53125 3.820313 8.53125 8.53125v32.070313c.003906 4.90625 3.984375 8.886719 8.890625 8.890625h33.777344c4.710937 0 8.53125 3.820312 8.53125 8.53125 0 4.714844-3.820313 8.535156-8.53125 8.535156zm0 0" fill="#285680"/><g fill="#cc66a1"><path d="m119.535156 424.105469c-3.773437.007812-7.101562-2.460938-8.1875-6.074219-1.085937-3.613281.328125-7.507812 3.476563-9.582031 3.617187-2.386719 7.152343-4.875 10.597656-7.46875 3.449219-2.59375 6.820313-5.289063 10.113281-8.089844 3.289063-2.796875 6.492188-5.691406 9.609375-8.675781 3.097657-2.980469 6.117188-6.070313 9.035157-9.234375 2.917968-3.167969 5.753906-6.425781 8.484374-9.761719 2.730469-3.335938 5.367188-6.777344 7.898438-10.242188 2.535156-3.464843 4.949219-7.082031 7.273438-10.75 2.320312-3.667968 4.511718-7.382812 6.605468-11.1875 2.089844-3.804687 4.085938-7.679687 5.972656-11.640624 1.882813-3.957032 3.589844-7.945313 5.222657-12.015626l1.160156-3.097656c1.71875-4.308594 6.566406-6.457031 10.914063-4.832031 4.347656 1.625 6.597656 6.425781 5.066406 10.808594l-1.226563 3.265625c-1.828125 4.566406-3.714843 8.894531-5.71875 13.152344-2.003906 4.257812-4.15625 8.457031-6.425781 12.566406-2.269531 4.113281-4.640625 8.144531-7.140625 12.09375-2.5 3.949218-5.121094 7.816406-7.84375 11.605468-2.722656 3.789063-5.582031 7.492188-8.53125 11.09375-2.953125 3.601563-5.976563 7.117188-9.148437 10.539063-3.175782 3.421875-6.417969 6.75-9.773438 9.964844-3.351562 3.21875-6.824219 6.351562-10.359375 9.386719-3.53125 3.039062-7.191406 5.921874-10.914063 8.722656-3.71875 2.796875-7.550781 5.503906-11.449218 8.082031-1.402344.90625-3.039063 1.386719-4.710938 1.371094zm0 0"/><path d="m215.210938 281.601562c-.554688 0-1.105469-.054687-1.648438-.164062-4.621094-.902344-7.636719-5.378906-6.738281-10 .851562-4.402344 1.566406-9.113281 2.140625-13.613281.570312-4.496094 1.023437-9.035157 1.320312-13.609375.300782-4.574219.4375-9.191406.4375-13.847656 0-2.054688.097656-4.085938.296875-6.09375.214844-2.015626.523438-4.003907.921875-5.972657.390625-1.9375.878906-3.851562 1.46875-5.734375.582032-1.867187 1.257813-3.707031 2.023438-5.503906.722656-1.707031 1.578125-3.492188 2.492187-5.1875.910157-1.699219 1.9375-3.355469 2.992188-4.933594 1.058593-1.578125 2.230469-3.132812 3.414062-4.609375 1.1875-1.476562 2.492188-2.882812 3.847657-4.265625 1.359374-1.355468 2.78125-2.644531 4.269531-3.855468 1.449219-1.203126 3.003906-2.367188 4.605469-3.414063 1.605468-1.050781 3.203124-2.058594 4.890624-2.980469 1.691407-.921875 3.414063-1.757812 5.25-2.515625 1.832032-.761719 3.597657-1.425781 5.476563-2.015625 1.878906-.585937 3.804687-1.074218 5.75-1.464844 1.957031-.402343 3.929687-.703124 5.914063-.90625 4.054687-.402343 8.132812-.402343 12.1875 0 2.003906.203126 4 .507813 5.972656.914063 1.925781.386719 3.832031.875 5.707031 1.457031 1.878906.585938 3.730469 1.261719 5.539063 2.03125 1.757812.742188 3.5 1.578125 5.199218 2.5 1.695313.921875 3.328125 1.921875 4.914063 2.996094 1.585937 1.074219 3.121093 2.21875 4.597656 3.414062 1.476563 1.195313 2.894531 2.507813 4.269531 3.855469 1.371094 1.347657 2.644532 2.773438 3.863282 4.269531 1.222656 1.492188 2.355468 3.003907 3.414062 4.597657 1.082031 1.59375 2.082031 3.238281 2.996094 4.933593.902344 1.707032 1.707031 3.414063 2.507812 5.195313.800782 1.785156 1.425782 3.617187 2.015625 5.496094.585938 1.878906 1.074219 3.804687 1.464844 5.734375l.394531 2.089844c.777344 4.648437-2.363281 9.050781-7.011718 9.828124-4.648438.777344-9.046876-2.363281-9.824219-7.011718l-.292969-1.542969c-.269531-1.332031-.628906-2.707031-1.039062-4.054687-.410157-1.347657-.855469-2.558594-1.417969-3.867188-.5625-1.304688-1.140625-2.558594-1.800781-3.726562-.65625-1.171876-1.371094-2.390626-2.132813-3.515626-.757813-1.128906-1.601563-2.253906-2.464844-3.304687-.863281-1.046875-1.800781-2.074219-2.765625-3.035156-.964844-.964844-1.960937-1.878907-3.011718-2.742188-1.050782-.859375-2.167969-1.707031-3.300782-2.464843-2.28125-1.539063-4.699218-2.855469-7.230468-3.933594-1.304688-.546875-2.609376-1.03125-3.933594-1.441406-1.320313-.410157-2.679688-.761719-4.0625-1.042969-1.410156-.289063-2.832032-.511719-4.265625-.65625-2.902344-.289063-5.828125-.289063-8.730469 0-1.433594.140625-2.855469.363281-4.265625.65625-2.746094.554687-5.425781 1.386719-8.003906 2.484375-1.273438.53125-2.519531 1.128906-3.730469 1.792968-2.417969 1.308594-4.703125 2.84375-6.824219 4.589844-1.078125.882813-2.09375 1.800782-3.054687 2.757813-.957032.960937-1.878906 1.96875-2.742188 3.027343-.875 1.050782-1.695312 2.148438-2.457031 3.285157-.777344 1.144531-1.492187 2.332031-2.15625 3.542969-.652344 1.195312-1.242187 2.425781-1.769531 3.683593-.550782 1.289063-1.035156 2.605469-1.449219 3.945313-.421875 1.328125-.769531 2.675781-1.042969 4.042968-.574218 2.84375-.859375 5.742188-.851562 8.644532 0 5.019531-.15625 9.996094-.46875 14.933594s-.785156 9.839843-1.417969 14.703124c-.628906 4.855469-1.398437 9.941407-2.328125 14.695313-.765625 3.996094-4.25 6.898437-8.320312 6.929687zm0 0"/><path d="m281.601562 395.09375c-3.027343-.003906-5.828124-1.613281-7.355468-4.226562-1.53125-2.613282-1.558594-5.839844-.078125-8.480469 2.558593-4.53125 3.847656-7.089844 6.167969-11.757813 2.320312-4.667968 4.558593-9.472656 6.664062-14.292968 2.109375-4.824219 4.082031-9.6875 5.976562-14.628907 1.894532-4.9375 3.609376-9.957031 5.230469-15.015625 1.621094-5.0625 3.121094-10.164062 4.488281-15.359375 1.363282-5.199219 2.609376-10.378906 3.710938-15.644531s2.089844-10.582031 2.925781-15.9375c.835938-5.359375 1.5625-10.769531 2.132813-16.214844.285156-2.722656.53125-5.453125.746094-8.210937.375-4.695313 4.488281-8.199219 9.1875-7.824219 4.699218.378906 8.203124 4.492188 7.824218 9.191406-.230468 2.882813-.484375 5.761719-.792968 8.628906-.609376 5.75-1.351563 11.4375-2.226563 17.066407-.875 5.625-1.90625 11.226562-3.097656 16.800781-1.171875 5.558594-2.476563 11.058594-3.917969 16.503906-1.4375 5.445313-3.011719 10.832032-4.726562 16.171875-1.707032 5.324219-3.546876 10.59375-5.519532 15.808594-1.976562 5.21875-4.0625 10.367187-6.265625 15.445313-2.234375 5.085937-4.574219 10.105468-7.019531 15.054687-2.46875 4.957031-3.867188 7.679687-6.574219 12.519531-1.503906 2.722656-4.371093 4.40625-7.480469 4.402344zm0 0"/><path d="m221.78125 472.890625c-3.460938-.023437-6.566406-2.136719-7.859375-5.351563-1.289063-3.210937-.511719-6.886718 1.972656-9.300781 3.738281-3.59375 7.390625-7.277343 10.964844-11.050781 3.570313-3.769531 7.042969-7.628906 10.410156-11.570312 3.414063-3.941407 6.691407-7.964844 9.839844-12.074219 3.144531-4.105469 6.226563-8.292969 9.25-12.550781 2.808594-3.484376 7.828125-4.203126 11.503906-1.65625 3.675781 2.550781 4.757813 7.507812 2.480469 11.355468-3.144531 4.5-6.394531 8.910156-9.753906 13.230469-3.355469 4.316406-6.816406 8.5625-10.382813 12.738281-3.550781 4.148438-7.207031 8.210938-10.964843 12.1875-3.761719 3.976563-7.609376 7.855469-11.546876 11.636719-1.585937 1.539063-3.707031 2.402344-5.914062 2.40625zm0 0"/><path d="m183.464844 461.472656c-3.589844.007813-6.800782-2.238281-8.027344-5.613281-1.230469-3.375-.210938-7.160156 2.542969-9.464844 3.855469-3.222656 7.625-6.550781 11.304687-9.984375 3.660156-3.410156 5.878906-5.535156 9.386719-9.136718 7.019531-7.25 13.636719-14.878907 19.816406-22.851563l1.570313-2.007813c2.859375-3.667968 6.28125-8.039062 8.730468-11.542968 2.84375-4.132813 5.605469-8.347656 8.285157-12.648438 2.679687-4.300781 5.222656-8.671875 7.636719-13.117187 2.40625-4.46875 4.71875-8.980469 6.9375-13.53125s4.285156-9.203125 6.203124-13.953125c1.945313-4.726563 3.761719-9.511719 5.453126-14.351563l.582031-1.648437c.964843-2.929688 3.433593-5.105469 6.460937-5.699219s6.136719.492187 8.136719 2.839844c2 2.347656 2.578125 5.589843 1.511719 8.484375l-.582032 1.707031c-1.785156 5.117187-3.714843 10.191406-5.792968 15.214844-2.078125 5.023437-4.253906 9.9375-6.527344 14.742187-2.332031 4.867188-4.78125 9.65625-7.347656 14.371094-2.566406 4.71875-5.269532 9.355469-8.113282 13.917969-2.8125 4.550781-5.746093 9.027343-8.800781 13.421875-2.558593 3.730468-6.21875 8.390625-9.273437 12.296875l-1.503906 1.921875c-6.574219 8.507812-13.625 16.640625-21.121094 24.355468-3.660156 3.785157-6.023438 6.058594-9.941406 9.699219-3.914063 3.644531-7.890626 7.160157-11.945313 10.589844-1.5625 1.308594-3.542969 2.015625-5.582031 1.988281zm0 0"/><path d="m281.371094 298.667969c-.574219 0-1.148438-.0625-1.707032-.179688-4.613281-.957031-7.578124-5.472656-6.621093-10.085937.671875-3.234375 1.398437-7 1.960937-10.242188.886719-5.183594 1.625-10.398437 2.21875-15.648437.589844-5.25 1.042969-10.554688 1.355469-15.914063.308594-5.359375.460937-10.75.453125-16.171875 0-.285156-.019531-.570312-.050781-.851562 0 0-.128907-.855469-.136719-.914063l-.476562-1.519531-.386719-.792969-.851563-1.316406-.589844-.640625-1.21875-1.003906-1.484374-.804688-1.621094-.542969c-2.296875-.316406-2.03125-.191406-2.613282-.128906-.28125 0-.578124.074219-.851562.136719l-1.578125.503906-1.488281.851563-1.277344 1.074218-.992188 1.214844c0 .050782-.425781.699219-.433593.742188l-1.007813 3.113281c-.027344.285156-.042968.566406-.042968.851563 0 4.714843-3.820313 8.535156-8.53125 8.535156-4.714844 0-8.535157-3.820313-8.535157-8.535156 0-.878907.042969-1.75.128907-2.609376.085937-.855468.214843-1.648437.375-2.457031.175781-.863281.394531-1.71875.65625-2.5625.246093-.800781.53125-1.589843.855468-2.363281.324219-.773438.6875-1.53125 1.089844-2.269531.773438-1.402344 1.667969-2.734375 2.679688-3.976563.554687-.675781 1.144531-1.324218 1.765624-1.9375.488282-.492187 1.101563-1.046875 1.75-1.585937.648438-.539063 1.324219-1.039063 2.023438-1.5.589844-.410157 1.3125-.855469 2.058594-1.257813.734375-.398437 1.488281-.757812 2.257812-1.082031.726563-.308594 1.519532-.597656 2.332032-.851563 1.625-.511718 3.296874-.851562 4.992187-1.015624 1.734375-.167969 3.484375-.167969 5.222656 0 .859375.082031 1.714844.214843 2.558594.390624.835937.164063 1.664063.375 2.476563.632813.808593.253906 1.59375.546875 2.371093.851563.777344.308593 1.492188.683593 2.21875 1.066406.726563.386718 1.414063.855468 2.097657 1.28125.6875.464844 1.351562.960937 1.988281 1.492187.644531.535157 1.257812 1.105469 1.835937 1.707031.546875.539063 1.09375 1.152344 1.621094 1.785157.527344.628906.988281 1.261719 1.460938 1.945312.929687 1.378907 1.722656 2.84375 2.371093 4.375.316407.734375.605469 1.539063.851563 2.339844.265625.839844.484375 1.695313.648437 2.558594.15625.742187.28125 1.597656.375 2.46875.09375.867187.128907 1.707031.128907 2.609375 0 5.753906-.160157 11.464844-.484376 17.136718-.316406 5.65625-.792968 11.296876-1.433593 16.871094-.640625 5.570313-1.417969 11.089844-2.363281 16.613282-.589844 3.414062-1.351563 7.433593-2.058594 10.855468-.835938 3.9375-4.316406 6.757813-8.34375 6.757813zm0 0"/><path d="m230.527344 344.789062c-2.910156 0-5.617188-1.484374-7.1875-3.933593-1.566406-2.453125-1.78125-5.53125-.558594-8.175781l.902344-1.980469c1.921875-4.34375 3.746094-8.789063 5.445312-13.300781 1.699219-4.515626 3.257813-9.089844 4.691406-13.722657 1.433594-4.632812 2.742188-9.308593 3.894532-14.046875 1.132812-4.605468 3.148437-13.199218 4.035156-18.0625.5-3.046875 2.605469-5.582031 5.503906-6.636718 2.902344-1.054688 6.144532-.460938 8.480469 1.550781 2.339844 2.011719 3.410156 5.132812 2.800781 8.15625-1.023437 5.640625-3.226562 14.933593-4.265625 19.0625-1.238281 5.0625-2.636719 10.078125-4.167969 15.027343-1.527343 4.949219-3.207031 9.839844-5.015624 14.660157-1.808594 4.824219-3.773438 9.574219-5.84375 14.261719l-.984376 2.175781c-1.386718 3.019531-4.40625 4.957031-7.730468 4.964843zm0 0"/><path d="m149.402344 444.902344c-3.671875 0-6.933594-2.351563-8.097656-5.835938-1.160157-3.484375.039062-7.320312 2.976562-9.523437 3.816406-2.816407 7.546875-5.738281 11.1875-8.765625 3.640625-3.023438 7.195312-6.152344 10.65625-9.386719 3.449219-3.210937 6.8125-6.53125 10.089844-9.957031 3.273437-3.425782 6.457031-6.960938 9.546875-10.605469 3.078125-3.613281 6.046875-7.3125 8.910156-11.09375 2.847656-3.765625 5.613281-7.628906 8.257813-11.570313 1.246093-1.835937 2.46875-3.707031 3.664062-5.589843 1.636719-2.578125 4.527344-4.082031 7.574219-3.953125 3.050781.132812 5.800781 1.878906 7.210937 4.585937 1.414063 2.707031 1.273438 5.964844-.367187 8.539063-1.273438 2.015625-2.574219 4.003906-3.90625 5.972656-2.84375 4.214844-5.789063 8.335938-8.832031 12.367188-3.042969 4.027343-6.222657 7.972656-9.539063 11.835937-3.273437 3.828125-6.652344 7.570313-10.140625 11.226563-3.515625 3.664062-7.097656 7.210937-10.792969 10.660156-3.695312 3.445312-7.5 6.824218-11.382812 10.027344-3.882813 3.199218-7.886719 6.363281-11.949219 9.386718-1.464844 1.085938-3.242188 1.675782-5.066406 1.679688zm0 0"/><path d="m93.945312 399.949219c-3.84375.007812-7.214843-2.550781-8.242187-6.25-1.03125-3.699219.542969-7.632813 3.835937-9.605469 3.269532-1.953125 6.453126-4.019531 9.585938-6.167969 3.128906-2.152343 6.160156-4.414062 9.136719-6.75 2.980469-2.339843 5.863281-4.78125 8.679687-7.304687 1.707032-1.507813 3.351563-3.039063 4.941406-4.59375 2.171876-2.210938 5.375-3.074219 8.367188-2.246094 2.988281.832031 5.292969 3.214844 6.019531 6.234375.722657 3.015625-.246093 6.1875-2.535156 8.285156-1.769531 1.707031-3.574219 3.382813-5.417969 5.035157-3.074218 2.753906-6.234375 5.414062-9.480468 7.984374-3.25 2.574219-6.589844 5.039063-10.019532 7.398438-3.414062 2.367188-6.910156 4.621094-10.496094 6.761719-1.320312.796875-2.832031 1.21875-4.375 1.21875zm0 0"/><path d="m148.847656 349.867188c-3.207031-.019532-6.132812-1.835938-7.574218-4.703126-1.441407-2.867187-1.152344-6.296874.746093-8.882812 1.589844-2.167969 3.140625-4.378906 4.632813-6.621094 2.105468-3.167968 4.113281-6.398437 6.027344-9.6875 1.882812-3.273437 3.695312-6.636718 5.390624-10.058594 1.699219-3.421874 3.296876-6.914062 4.769532-10.453124 1.476562-3.542969 2.851562-7.144532 4.113281-10.796876 1.265625-3.652343 2.390625-7.355468 3.414063-11.089843 1.023437-3.738281 1.929687-7.546875 2.699218-11.402344.765625-3.855469 1.433594-7.730469 1.960938-11.664063.527344-3.933593.929687-7.921874 1.195312-11.949218s.410156-8.054688.410156-12.140625c0-4.714844 3.820313-8.535157 8.53125-8.535157 4.714844 0 8.535157 3.820313 8.535157 8.535157 0 4.464843-.144531 8.898437-.4375 13.292969-.304688 4.386718-.734375 8.738281-1.320313 13.058593-.589844 4.316407-1.289062 8.53125-2.144531 12.796875-.851563 4.269532-1.839844 8.382813-2.960937 12.496094-1.117188 4.113281-2.378907 8.191406-3.753907 12.191406-1.375 4.003906-2.875 7.9375-4.488281 11.8125-1.613281 3.871094-3.371094 7.679688-5.230469 11.457032-1.859375 3.78125-3.832031 7.417968-5.914062 11.027343s-4.265625 7.140625-6.597657 10.605469c-1.644531 2.449219-3.328124 4.875-5.066406 7.246094-1.625 2.199218-4.203125 3.488281-6.9375 3.464844zm0 0"/><path d="m192.214844 204.800781c-1.144532 0-2.277344-.230469-3.328125-.683593-4.339844-1.839844-6.363281-6.847657-4.523438-11.1875 1.054688-2.496094 2.246094-4.9375 3.566407-7.304688 1.425781-2.644531 3.011718-5.230469 4.691406-7.730469 1.683594-2.5 3.492187-4.90625 5.410156-7.226562 1.921875-2.324219 3.925781-4.53125 6.050781-6.65625s4.351563-4.148438 6.664063-6.058594c2.3125-1.914063 4.71875-3.714844 7.210937-5.394531 2.492188-1.679688 5.121094-3.269532 7.75-4.710938 2.628907-1.441406 5.402344-2.765625 8.207031-3.949218 2.808594-1.1875 5.695313-2.246094 8.644532-3.15625 2.957031-.929688 5.960937-1.703126 8.996094-2.324219 3.078124-.628907 6.183593-1.101563 9.308593-1.414063 6.375-.640625 12.800781-.640625 19.175781 0 3.128907.3125 6.238282.785156 9.316407 1.414063 3.046875.621093 6.054687 1.394531 9.019531 2.324219 1.101562.339843 2.210938.707031 3.3125 1.097656 2.9375.96875 5.121094 3.449218 5.707031 6.488281.585938 3.035156-.515625 6.152344-2.882812 8.144531-2.363281 1.992188-5.625 2.546875-8.515625 1.453125-.855469-.304687-1.785156-.605469-2.6875-.851562-2.414063-.753907-4.855469-1.382813-7.355469-1.894531-2.5-.511719-5.054687-.898438-7.636719-1.171876-5.226562-.523437-10.492187-.523437-15.71875 0-2.5625.273438-5.121094.660157-7.628906 1.171876-4.9375 1.007812-9.765625 2.507812-14.40625 4.46875-2.285156.964843-4.53125 2.050781-6.707031 3.234374-2.175781 1.1875-4.265625 2.46875-6.347657 3.851563-2.082031 1.378906-4.003906 2.847656-5.898437 4.417969-1.894531 1.570312-3.726563 3.226562-5.46875 4.96875-1.742187 1.738281-3.414063 3.546875-4.957031 5.453125-1.546875 1.902343-3.03125 3.871093-4.421875 5.910156s-2.652344 4.148437-3.832031 6.316406c-1.054688 1.894531-2.011719 3.84375-2.867188 5.835938-1.347656 3.136719-4.433594 5.167969-7.847656 5.164062zm0 0"/><path d="m350.566406 304.265625c-2.542968 0-4.957031-1.132813-6.578125-3.089844-1.621093-1.960937-2.285156-4.542969-1.808593-7.039062.421874-2.441407.707031-4.902344.851562-7.375.179688-2.140625.359375-4.335938.71875-6.894531.765625-5.382813 1.398438-10.8125 1.925781-16.273438.53125-5.460938.898438-10.957031 1.152344-16.484375.257813-5.53125.394531-11.09375.394531-16.710937.003906-2.625-.132812-5.246094-.402344-7.859376-.257812-2.558593-.640624-5.105468-1.152343-7.628906-.507813-2.476562-1.144531-4.929687-1.902344-7.34375-.726563-2.394531-1.582031-4.75-2.558594-7.050781-.972656-2.292969-2.058593-4.546875-3.246093-6.730469-1.183594-2.1875-2.457032-4.269531-3.839844-6.324218-1.378906-2.058594-2.847656-4.003907-4.410156-5.90625-1.40625-1.707032-2.875-3.34375-4.421876-4.914063-2.132812-2.179687-2.941406-5.332031-2.121093-8.269531.820312-2.941406 3.148437-5.214844 6.101562-5.976563 2.953125-.757812 6.089844.117188 8.222657 2.296875 1.867187 1.925782 3.660156 3.914063 5.386718 5.976563 1.894532 2.300781 3.703125 4.710937 5.382813 7.199219 1.683593 2.492187 3.261719 5.121093 4.703125 7.742187 1.441406 2.617187 2.765625 5.410156 3.949218 8.199219 1.207032 2.832031 2.261719 5.722656 3.167969 8.660156.925781 2.957031 1.699219 5.960938 2.320313 8.996094.625 3.054687 1.101562 6.15625 1.425781 9.308594.324219 3.152343.488281 6.359374.492187 9.625 0 5.871093-.132812 11.707031-.40625 17.503906-.273437 5.796875-.691406 11.5625-1.246093 17.296875-.570313 5.734375-1.242188 11.421875-2.015625 17.066406-.316406 2.175781-.460938 4.054687-.613282 5.878906-.203124 3.078125-.582031 6.140625-1.136718 9.175781-.757813 4.011719-4.253906 6.921876-8.335938 6.945313zm0 0"/><path d="m264.585938 477.714844c-3.363282-.003906-6.410157-1.980469-7.785157-5.050782-1.371093-3.070312-.8125-6.660156 1.425781-9.167968 3.414063-3.863282 6.828126-7.808594 10.113282-11.835938s6.492187-8.105468 9.597656-12.277344c3.109375-4.175781 6.128906-8.398437 9.054688-12.707031 1.609374-2.371093 3.191406-4.757812 4.738281-7.160156 1.253906-1.945313 2.558593-3.941406 3.746093-5.972656 2.757813-4.464844 5.398438-8.976563 7.925782-13.527344s4.964844-9.179687 7.320312-13.890625c2.339844-4.675781 4.566406-9.4375 6.699219-14.242188 2.132813-4.804687 4.164063-9.675781 6.078125-14.59375 1.910156-4.914062 3.726562-9.878906 5.425781-14.90625 1.5-4.453124 2.925781-8.957031 4.265625-13.507812 1.328125-4.523438 6.070313-7.117188 10.59375-5.789062 4.527344 1.324218 7.117188 6.070312 5.792969 10.59375-1.402344 4.765624-2.894531 9.488281-4.480469 14.164062-1.78125 5.273438-3.679687 10.488281-5.691406 15.640625-2.015625 5.15625-4.140625 10.277344-6.375 15.363281-2.226562 5.03125-4.582031 10.015625-7.023438 14.941406-2.441406 4.921876-5.027343 9.777344-7.679687 14.566407-2.65625 4.785156-5.4375 9.523437-8.3125 14.171875-1.269531 2.082031-2.558594 4.171875-3.925781 6.246094-1.644532 2.5625-3.292969 5.042968-4.984375 7.519531-3.042969 4.5-6.199219 8.9375-9.46875 13.320312-3.261719 4.359375-6.632813 8.652344-10.070313 12.867188-3.441406 4.214843-6.980468 8.347656-10.617187 12.40625-1.621094 1.804687-3.9375 2.832031-6.363281 2.828125zm0 0"/><path d="m72.535156 372.8125c-3.882812.003906-7.277344-2.617188-8.261718-6.371094-.984376-3.757812.691406-7.703125 4.078124-9.601562 2.757813-1.542969 5.457032-3.179688 8.097657-4.90625 2.644531-1.707032 5.242187-3.535156 7.757812-5.429688 2.515625-1.894531 4.992188-3.855468 7.382813-5.90625 2.386718-2.046875 4.71875-4.171875 6.980468-6.363281 2.257813-2.195313 4.4375-4.464844 6.542969-6.828125 2.109375-2.363281 4.15625-4.734375 6.101563-7.210938 1.945312-2.472656 3.832031-5.007812 5.632812-7.601562 1.800782-2.59375 3.488282-5.238281 5.121094-7.953125 1.628906-2.714844 3.164062-5.496094 4.613281-8.320313 1.453125-2.824218 2.808594-5.710937 4.070313-8.636718 1.265625-2.925782 2.433594-5.894532 3.507812-8.925782 1.074219-3.027343 2.039063-6.09375 2.910156-9.207031.871094-3.113281 1.648438-6.273437 2.320313-9.472656.675781-3.199219 1.222656-6.425781 1.707031-9.703125.488282-3.273438.792969-6.550781 1.015625-9.886719.222657-3.339843.351563-6.71875.351563-10.113281 0-4.371094.230468-8.773438.65625-13.082031.425781-4.308594 1.082031-8.535157 1.945312-12.699219.855469-4.042969 1.886719-8.171875 3.148438-12.269531 1.261718-4.097657 2.695312-7.953125 4.308594-11.765625 1.613281-3.816406 3.414062-7.621094 5.394531-11.207032 1.980469-3.582031 4.148437-7.199218 6.417969-10.554687 1.832031-2.714844 4.367187-5.761719 6.65625-8.535156l1.636718-1.953125c1.917969-2.421875 4.996094-3.621094 8.046875-3.128906 3.054688.492187 5.601563 2.59375 6.660157 5.496093 1.0625 2.90625.46875 6.152344-1.546876 8.496094l-1.707031 2.058594c-1.921875 2.292969-4.070312 4.828125-5.605469 7.097656-1.992187 2.953125-3.84375 6.003906-5.558593 9.148437-1.710938 3.144532-3.265625 6.375-4.667969 9.695313-1.398438 3.308594-2.640625 6.707031-3.726562 10.1875-1.101563 3.539063-2.015626 7.117187-2.730469 10.605469-.742188 3.644531-1.296875 7.355468-1.707031 11.015625-.382813 3.796875-.570313 7.605469-.5625 11.417969 0 3.789062-.128907 7.546874-.386719 11.273437-.253907 3.726563-.636719 7.425781-1.140625 11.09375-.511719 3.667969-1.140625 7.289063-1.886719 10.855469-.742187 3.574218-1.613281 7.097656-2.5625 10.582031-.945313 3.480469-2.0625 6.917969-3.265625 10.308594-1.203125 3.386719-2.5 6.695312-3.910156 9.964843-1.40625 3.269532-2.941406 6.519532-4.5625 9.667969-1.621094 3.148438-3.328125 6.265625-5.121094 9.300781-1.792969 3.039063-3.722656 5.972657-5.710938 8.882813-1.988281 2.910156-4.121093 5.746094-6.296874 8.535156-2.175782 2.789063-4.460938 5.445313-6.824219 8.054688-2.367188 2.613281-4.796875 5.121093-7.324219 7.605469-2.523438 2.480468-5.117188 4.8125-7.773438 7.097656-2.652343 2.289062-5.433593 4.480468-8.257812 6.597656-2.828125 2.113281-5.703125 4.128906-8.65625 6.058594-2.949219 1.925781-5.972656 3.761718-9.078125 5.503906-1.296875.703125-2.757813 1.058594-4.230469 1.03125zm0 0"/><path d="m387.125 213.136719c-4.003906-.007813-7.464844-2.796875-8.320312-6.707031-.679688-3.054688-1.480469-6.0625-2.40625-9.019532-1.066407-3.453125-2.308594-6.847656-3.722657-10.171875-1.382812-3.285156-2.953125-6.546875-4.675781-9.710937-1.722656-3.164063-3.558594-6.195313-5.546875-9.148438s-4.136719-5.800781-6.390625-8.53125c-2.253906-2.730468-4.652344-5.367187-7.160156-7.878906-2.507813-2.507812-5.121094-4.90625-7.882813-7.167969-2.765625-2.261719-5.589843-4.394531-8.535156-6.382812s-5.972656-3.847657-9.148437-5.554688c-3.171876-1.707031-6.375-3.265625-9.691407-4.675781-3.320312-1.40625-6.75-2.664062-10.183593-3.730469-3.429688-1.066406-7.097657-2.003906-10.621094-2.71875-3.644532-.757812-7.324219-1.328125-11.027344-1.707031-7.546875-.761719-15.152344-.761719-22.699219 0-3.695312.382812-7.367187.953125-11.007812 1.707031-3.539063.722657-7.117188 1.644531-10.632813 2.730469-3.449218 1.070312-6.84375 2.316406-10.171875 3.726562-3.328125 1.40625-6.5625 2.964844-9.710937 4.675782-2.679688 1.457031-5.929688 1.371094-8.53125-.21875-2.601563-1.59375-4.152344-4.453125-4.074219-7.503906.078125-3.046876 1.777344-5.820313 4.457031-7.277344 3.636719-1.972656 7.398438-3.78125 11.195313-5.394532 3.796875-1.613281 7.773437-3.0625 11.769531-4.308593 4.039062-1.257813 8.140625-2.308594 12.285156-3.148438 4.167969-.851562 8.441406-1.511719 12.691406-1.945312 8.703126-.871094 17.46875-.871094 26.171876 0 4.265624.433593 8.53125 1.09375 12.695312 1.945312 4.144531.84375 8.238281 1.894531 12.273438 3.148438 3.96875 1.238281 7.925781 2.6875 11.765624 4.308593 3.839844 1.621094 7.585938 3.414063 11.207032 5.402344 3.617187 1.988282 7.175781 4.128906 10.546875 6.410156 3.371093 2.277344 6.707031 4.777344 9.847656 7.355469s6.234375 5.410157 9.09375 8.269531c2.859375 2.855469 5.660156 5.972657 8.253906 9.078126 2.59375 3.105468 5.117188 6.492187 7.363281 9.855468 2.246094 3.363282 4.464844 6.964844 6.410157 10.554688 1.945312 3.59375 3.796875 7.417968 5.390625 11.195312 1.632812 3.851563 3.070312 7.777344 4.308594 11.769532 1.058593 3.414062 1.988281 6.886718 2.765624 10.417968.558594 2.527344-.0625 5.171875-1.6875 7.1875-1.621093 2.015625-4.070312 3.183594-6.65625 3.179688zm0 0"/><path d="m311.558594 474.273438c-3.230469 0-6.183594-1.824219-7.628906-4.714844-1.445313-2.890625-1.136719-6.351563.804687-8.9375 3.003906-4.015625 5.933594-8.085938 8.789063-12.210938 2.855468-4.125 5.632812-8.316406 8.328124-12.570312 2.679688-4.230469 5.289063-8.53125 7.824219-12.894532 2.539063-4.363281 4.984375-8.769531 7.339844-13.226562 2.355469-4.453125 4.628906-8.964844 6.828125-13.53125 2.195312-4.570312 4.289062-9.179688 6.277344-13.824219 2.019531-4.667969 3.945312-9.375 5.769531-14.125 1.828125-4.75 3.5625-9.546875 5.207031-14.386719 1.65625-4.851562 3.203125-9.738281 4.648438-14.652343 1.445312-4.914063 2.804687-9.890625 4.078125-14.933594 1.265625-5.011719 2.425781-10.058594 3.484375-15.136719 1.058594-5.082031 2.015625-10.199218 2.875-15.359375.851562-5.121093 1.605468-10.351562 2.261718-15.582031s1.1875-10.472656 1.628907-15.761719c.445312-5.289062.734375-10.035156.957031-15.359375.1875-4.578125 3.953125-8.1875 8.53125-8.183594h.359375c4.707031.191407 8.367187 4.167969 8.175781 8.875-.222656 5.578126-.546875 10.554688-1 16.085938-.453125 5.527344-1.023437 11.015625-1.707031 16.476562-.679687 5.460938-1.464844 10.871094-2.355469 16.214844-.886718 5.339844-1.902344 10.734375-3.011718 16.039063-1.109376 5.308593-2.3125 10.589843-3.632813 15.824219-1.324219 5.230468-2.730469 10.410156-4.269531 15.554687-1.535156 5.144531-3.128906 10.238281-4.855469 15.359375-1.722656 5.121094-3.523437 10.070312-5.433594 15.035156-1.910156 4.96875-3.917969 9.890625-6.023437 14.753906-2.109375 4.867188-4.269532 9.679688-6.5625 14.449219-2.296875 4.769531-4.675782 9.480469-7.136719 14.140625-2.457031 4.65625-5.023437 9.265625-7.679687 13.804688-2.652344 4.539062-5.375 9.039062-8.183594 13.472656-2.804688 4.4375-5.714844 8.816406-8.695313 13.125-2.976562 4.308594-6.03125 8.535156-9.171875 12.75-1.605468 2.152344-4.132812 3.421875-6.820312 3.429688zm0 0"/><path d="m418.203125 426.667969c-2.890625-.003907-5.585937-1.46875-7.15625-3.894531-1.570313-2.425782-1.808594-5.484376-.628906-8.121094 1.570312-3.527344 3.101562-7.070313 4.59375-10.632813 1.488281-3.5625 2.929687-7.148437 4.316406-10.761719 1.398437-3.613281 2.75-7.242187 4.054687-10.894531 1.304688-3.644531 2.558594-7.324219 3.789063-11.027343 1.226563-3.703126 2.371094-7.398438 3.488281-11.09375 1.117188-3.695313 2.203125-7.484376 3.226563-11.253907 1.023437-3.773437 1.996093-7.585937 2.925781-11.402343.929688-3.8125 1.816406-7.679688 2.652344-11.492188.839844-3.816406 1.613281-7.679688 2.347656-11.597656.734375-3.917969 1.417969-7.800782 2.058594-11.714844.640625-3.917969 1.210937-7.878906 1.707031-11.828125.492187-3.953125 1.015625-7.917969 1.441406-11.945313.425781-4.03125.800781-7.996093 1.117188-12.007812l.253906-3.140625c.390625-4.699219 4.515625-8.191406 9.214844-7.804687 4.699219.390624 8.191406 4.515624 7.800781 9.210937l-.253906 3.132813c-.324219 4.128906-.71875 8.285156-1.167969 12.433593-.453125 4.148438-.941406 8.242188-1.496094 12.355469-.554687 4.113281-1.160156 8.191406-1.816406 12.273438-.65625 4.078124-1.363281 8.113281-2.132813 12.148437-.769531 4.039063-1.5625 8.046875-2.433593 12.050781-.871094 4-1.78125 7.976563-2.746094 11.945313s-1.988281 7.902343-3.054687 11.820312c-1.066407 3.917969-2.175782 7.808594-3.335938 11.691407-1.160156 3.882812-2.382812 7.730468-3.636719 11.5625-1.253906 3.832031-2.558593 7.679687-3.917969 11.433593-1.355468 3.753907-2.761718 7.570313-4.214843 11.324219-1.449219 3.753906-2.941407 7.457031-4.480469 11.152344-1.535156 3.695312-3.140625 7.382812-4.761719 11.023437-1.367187 3.0625-4.402343 5.039063-7.753906 5.054688zm0 0"/><path d="m458.1875 238.933594c-4.710938 0-8.53125-3.820313-8.53125-8.535156-.003906-6.121094-.3125-12.238282-.929688-18.328126-.601562-5.972656-1.503906-11.910156-2.707031-17.792968-1.175781-5.742188-2.660156-11.519532-4.417969-17.175782l-1.230468-3.796874c-.964844-2.898438-.3125-6.089844 1.710937-8.375 2.023438-2.285157 5.113281-3.316407 8.105469-2.703126 2.992188.609376 5.429688 2.769532 6.398438 5.667969.460937 1.363281.851562 2.746094 1.328124 4.136719 3.890626 12.476562 6.507813 25.3125 7.816407 38.316406.667969 6.664063 1 13.355469.992187 20.050782 0 4.714843-3.820312 8.535156-8.535156 8.535156zm0 0"/><path d="m435.542969 149.453125c-3.132813.003906-6.015625-1.710937-7.511719-4.464844-2.738281-5.050781-5.769531-10.015625-8.976562-14.769531-3.207032-4.753906-6.699219-9.386719-10.316407-13.796875-3.617187-4.414063-7.542969-8.714844-11.570312-12.734375-4.027344-4.019531-8.296875-7.910156-12.722657-11.570312-4.429687-3.660157-9.082031-7.125-13.800781-10.316407-2.605469-1.671875-4.101562-4.625-3.90625-7.714843.191407-3.089844 2.046875-5.832032 4.839844-7.167969 2.792969-1.332031 6.089844-1.050781 8.617187.742187 5.171876 3.492188 10.238282 7.296875 15.113282 11.289063 4.871094 3.996093 9.539062 8.277343 13.933594 12.671875 4.394531 4.394531 8.660156 9.082031 12.65625 13.925781 3.992187 4.847656 7.761718 9.882813 11.304687 15.113281 3.542969 5.230469 6.828125 10.652344 9.832031 16.214844 1.4375 2.644531 1.375 5.847656-.160156 8.4375-1.539062 2.585938-4.324219 4.171875-7.332031 4.175781zm0 0"/><path d="m341.28125 65.023438c-1.101562 0-2.195312-.214844-3.214844-.632813-4.730468-1.925781-9.542968-3.648437-14.320312-5.117187-5.648438-1.757813-11.417969-3.242188-17.160156-4.421876-5.882813-1.199218-11.820313-2.101562-17.792969-2.703124-12.199219-1.238282-24.492188-1.238282-36.691407 0-5.96875.601562-11.90625 1.503906-17.785156 2.703124-3.414062.699219-6.789062 1.496094-10.128906 2.390626-4.554688 1.214843-9.230469-1.496094-10.445312-6.050782-1.210938-4.554687 1.496093-9.230468 6.050781-10.445312 3.652343-.972656 7.363281-1.84375 11.09375-2.609375 6.441406-1.320313 12.945312-2.308594 19.488281-2.972657 13.335938-1.351562 26.773438-1.351562 40.109375 0 6.539063.664063 13.039063 1.652344 19.480469 2.972657 6.296875 1.289062 12.636718 2.917969 18.773437 4.835937 5.230469 1.632813 10.511719 3.527344 15.683594 5.625 3.789063 1.53125 5.960937 5.539063 5.175781 9.546875-.785156 4.011719-4.304687 6.90625-8.390625 6.898438zm0 0"/><path d="m81.066406 255.625c-2.566406.003906-4.996094-1.144531-6.621094-3.128906s-2.273437-4.597656-1.757812-7.113282c.324219-1.609374.597656-3.25.808594-4.894531.214844-1.648437.394531-3.320312.496094-4.984375.101562-1.664062.171874-3.414062.171874-5.121094 0-6.699218.335938-13.394531 1.007813-20.0625.671875-6.554687 1.703125-13.105468 2.976563-19.480468 1.300781-6.351563 2.917968-12.636719 4.847656-18.824219 1.886718-6.078125 4.105468-12.144531 6.59375-18.03125 2.492187-5.886719 5.25-11.613281 8.269531-17.160156 3.023437-5.546875 6.332031-11.015625 9.832031-16.214844 3.496094-5.195313 7.296875-10.238281 11.289063-15.101563 3.992187-4.867187 8.269531-9.542968 12.671875-13.945312s9.148437-8.609375 13.953125-12.605469c4.804687-3.992187 9.878906-7.761719 15.101562-11.296875 5.222657-3.53125 10.640625-6.824218 16.214844-9.839844 3.71875-2.011718 7.519531-3.914062 11.390625-5.707031 2.796875-1.484375 6.1875-1.300781 8.804688.484375 2.621093 1.78125 4.035156 4.871094 3.675781 8.015625-.355469 3.148438-2.429688 5.835938-5.378907 6.988281-3.527343 1.625-6.988281 3.367188-10.378906 5.222657-5.117187 2.746093-10.050781 5.769531-14.785156 8.976562-4.738281 3.207031-9.386719 6.699219-13.800781 10.316407-4.410157 3.617187-8.703125 7.542968-12.730469 11.570312s-7.917969 8.304688-11.570312 12.734375c-3.652344 4.425781-7.125 9.070313-10.316407 13.789063-3.191406 4.71875-6.207031 9.691406-8.96875 14.777343-2.765625 5.085938-5.300781 10.335938-7.554687 15.660157-2.25 5.324218-4.265625 10.90625-5.972656 16.453124-1.707032 5.546876-3.242188 11.417969-4.429688 17.175782-2.421875 11.890625-3.644531 23.992187-3.652344 36.121094 0 2.101562-.066406 4.175781-.203125 6.238281-.136719 2.066406-.332031 4.105469-.605469 6.144531-.273437 2.039062-.597656 3.996094-1 5.972656-.792968 4-4.304687 6.875-8.378906 6.871094zm0 0"/><path d="m42.667969 311.167969c-3.804688 0-7.152344-2.515625-8.203125-6.171875-1.054688-3.65625.441406-7.566406 3.660156-9.589844 1.351562-.847656 2.671875-1.734375 3.96875-2.660156 1.308594-.941406 2.5625-1.914063 3.808594-2.921875 1.246094-1.003907 2.414062-2.027344 3.574218-3.105469 1.160157-1.074219 2.320313-2.207031 3.414063-3.359375 1.089844-1.152344 2.148437-2.324219 3.183594-3.542969 1.03125-1.21875 2.011719-2.464844 2.96875-3.738281.953125-1.269531 1.859375-2.558594 2.722656-3.90625 2.570313-3.949219 7.859375-5.066406 11.808594-2.492187 3.949219 2.574218 5.066406 7.859374 2.492187 11.808593-1.066406 1.640625-2.191406 3.242188-3.363281 4.804688-1.167969 1.5625-2.355469 3.074219-3.601563 4.546875-1.246093 1.476562-2.558593 2.921875-3.882812 4.320312-1.320312 1.398438-2.746094 2.773438-4.171875 4.085938-1.425781 1.316406-2.882813 2.5625-4.378906 3.816406-1.492188 1.253906-3.070313 2.414062-4.640625 3.546875-1.570313 1.136719-3.199219 2.21875-4.855469 3.253906-1.347656.851563-2.910156 1.304688-4.503906 1.304688zm0 0"/><path d="m55.464844 343.289062c-3.886719.003907-7.289063-2.625-8.265625-6.386718-.980469-3.765625.710937-7.714844 4.113281-9.605469 2.125-1.179687 4.195312-2.433594 6.226562-3.746094 2.03125-1.316406 4.039063-2.707031 5.972657-4.148437 1.9375-1.441406 3.84375-2.953125 5.675781-4.523438 1.835938-1.570312 3.636719-3.183594 5.367188-4.863281 1.734374-1.679687 3.414062-3.414063 5.042968-5.203125 2.023438-2.359375 5.164063-3.429688 8.203125-2.800781 3.042969.628906 5.5 2.859375 6.421875 5.820312.921875 2.964844.160156 6.195313-1.984375 8.4375-1.871093 2.074219-3.816406 4.070313-5.8125 5.976563-1.996093 1.902344-4.0625 3.804687-6.1875 5.613281s-4.265625 3.53125-6.527343 5.195313c-2.261719 1.664062-4.546876 3.269531-6.894532 4.789062s-4.753906 2.960938-7.210937 4.335938c-1.261719.714843-2.6875 1.097656-4.140625 1.109374zm0 0"/><path d="m362.742188 459.375c-3.078126 0-5.917969-1.660156-7.429688-4.34375s-1.460938-5.976562.136719-8.609375c2.386719-3.941406 4.707031-7.925781 6.960937-11.945313 2.253906-4.023437 4.4375-8.089843 6.554688-12.195312 2.128906-4.101562 4.1875-8.242188 6.175781-12.425781 1.988281-4.1875 3.707031-7.925781 5.558594-12.175781 1.21875-2.796876 3.835937-4.730469 6.867187-5.070313 3.03125-.34375 6.011719.957031 7.824219 3.414063 1.8125 2.453124 2.175781 5.6875.957031 8.480468-1.929687 4.4375-3.710937 8.347656-5.785156 12.707032-2.074219 4.363281-4.222656 8.664062-6.433594 12.9375-2.210937 4.273437-4.488281 8.53125-6.828125 12.6875-2.335937 4.15625-4.769531 8.347656-7.253906 12.441406-1.550781 2.550781-4.320313 4.101562-7.304687 4.097656zm0 0"/><path d="m401.210938 377.003906c-.9375 0-1.867188-.15625-2.753907-.460937-4.460937-1.519531-6.847656-6.371094-5.328125-10.828125.890625-2.585938 1.742188-5.183594 2.5625-7.800782 1.425782-4.460937 2.785156-8.957031 4.070313-13.492187 1.269531-4.53125 2.484375-9.085937 3.601562-13.652344 1.117188-4.566406 2.191407-9.226562 3.183594-13.867187.988281-4.640625 1.867187-9.328125 2.695313-14.039063.828124-4.707031 1.570312-9.4375 2.234374-14.199219.667969-4.761718 1.238282-9.53125 1.707032-14.34375s.914062-9.625 1.246094-14.507812c.332031-4.878906.605468-9.726562.769531-14.625.160156-4.898438.253906-9.839844.253906-14.777344.003906-4.957031-.246094-9.910156-.75-14.839844-.96875-9.601562-2.902344-19.082031-5.769531-28.296874-1.402344-4.523438-3.03125-8.972657-4.878906-13.328126-1.339844-3.167968-4.378907-9.191406-8.160157-16.128906-2.25-4.144531-.714843-9.324218 3.425781-11.578125 4.144532-2.25 9.328126-.714843 11.578126 3.429688 1.925781 3.546875 6.65625 12.378906 8.875 17.628906 2.082031 4.914063 3.914062 9.933594 5.460937 14.914063 1.59375 5.109374 2.925781 10.296874 3.992187 15.539062 1.09375 5.320312 1.914063 10.691406 2.464844 16.09375.546875 5.445312.855469 11.027344.855469 16.566406 0 5.117188-.089844 10.238282-.273437 15.359375-.164063 5.117188-.445313 10.171875-.785157 15.222657-.339843 5.050781-.785156 10.078124-1.304687 15.085937-.523438 5.011719-1.136719 9.984375-1.828125 14.933594-.691407 4.949219-1.46875 9.882812-2.3125 14.773437-.84375 4.886719-1.800781 9.777344-2.816407 14.617188-1.015624 4.835937-2.113281 9.660156-3.300781 14.4375s-2.425781 9.523437-3.773437 14.234375c-1.347656 4.710937-2.738282 9.386719-4.265625 14.054687-.851563 2.703125-1.765625 5.410156-2.679688 8.097656-1.167969 3.425782-4.375 5.742188-7.996093 5.777344zm0 0"/><path d="m384.265625 135.730469c-2.265625 0-4.433594-.898438-6.035156-2.5-5.453125-5.453125-12.636719-12.40625-15.503907-14.769531-3.609374-2.980469-7.355468-5.785157-11.160156-8.355469-3.808594-2.570313-7.871094-5.042969-11.949218-7.269531-4.078126-2.226563-8.421876-4.308594-12.671876-6.101563s-8.855468-3.492187-13.328124-4.882813c-4.570313-1.421874-9.210938-2.613281-13.902344-3.566406-4.757813-.976562-9.566406-1.710937-14.402344-2.199218-3.035156-.304688-5.675781-2.207032-6.925781-4.984376-1.253907-2.78125-.929688-6.019531.851562-8.492187 1.78125-2.476563 4.746094-3.8125 7.78125-3.507813 10.734375 1.09375 21.335938 3.253907 31.640625 6.453126 5.019532 1.5625 10.027344 3.414062 14.898438 5.460937 4.875 2.046875 9.523437 4.265625 14.175781 6.828125 4.648437 2.558594 9.085937 5.238281 13.371094 8.128906 4.285156 2.894532 8.449219 5.976563 12.476562 9.328125 4.5625 3.773438 14.71875 13.882813 16.707031 15.871094 2.441407 2.441406 3.167969 6.113281 1.847657 9.300781-1.320313 3.1875-4.429688 5.265625-7.878907 5.265625zm0 0"/><path d="m143.085938 153.054688c-3.15625 0-6.058594-1.742188-7.539063-4.53125-1.480469-2.785157-1.300781-6.164063.464844-8.78125 2.902343-4.265626 6.042969-8.535157 9.34375-12.484376 3.304687-3.949218 6.828125-7.851562 10.453125-11.503906 3.628906-3.652344 7.519531-7.167968 11.503906-10.460937s8.191406-6.433594 12.484375-9.328125c4.292969-2.890625 8.796875-5.640625 13.371094-8.121094 4.574219-2.484375 9.386719-4.804688 14.175781-6.828125 4.785156-2.023437 9.898438-3.898437 14.90625-5.460937s10.335938-2.925782 15.539062-3.996094c4.621094-.941406 9.128907 2.039062 10.070313 6.65625.941406 4.621094-2.039063 9.128906-6.65625 10.070312-4.660156.949219-9.328125 2.152344-13.890625 3.566406-4.566406 1.417969-8.960938 3.03125-13.332031 4.875-4.367188 1.84375-8.53125 3.871094-12.671875 6.109376-4.136719 2.234374-8.113282 4.675781-11.945313 7.269531s-7.585937 5.402343-11.160156 8.355469c-3.578125 2.953124-7.042969 6.101562-10.308594 9.386718-3.269531 3.285156-6.417969 6.738282-9.386719 10.308594-2.960937 3.582031-5.738281 7.3125-8.320312 11.175781-1.601562 2.34375-4.261719 3.738281-7.101562 3.722657zm0 0"/><path d="m105.035156 290.039062c-2.875 0-5.558594-1.453124-7.132812-3.859374-1.578125-2.410157-1.832032-5.449219-.683594-8.085938.378906-.855469.992188-2.195312 1.707031-3.679688 1.144531-2.464843 2.5625-5.417968 3.066407-6.910156.851562-2.3125 1.566406-4.660156 2.234374-7.03125.664063-2.375 1.261719-4.832031 1.773438-7.273437.511719-2.4375.949219-4.949219 1.296875-7.449219.351563-2.5.617187-5.050781.785156-7.601562.171875-2.550782.273438-5.121094.273438-7.757813 0-5.539063.289062-11.09375.855469-16.5625.546874-5.40625 1.367187-10.785156 2.457031-16.109375 1.101562-5.367188 3.71875-15.96875 5.296875-21.070312.917968-2.910157 3.316406-5.113282 6.292968-5.777344 2.980469-.664063 6.085938.3125 8.148438 2.558594 2.066406 2.25 2.773438 5.425781 1.859375 8.339843-1.390625 4.4375-3.882813 14.558594-4.882813 19.414063-.953124 4.691406-1.707031 9.53125-2.191406 14.402344-.515625 4.921874-.785156 9.867187-.800781 14.8125 0 3.003906-.105469 5.984374-.308594 8.9375-.207031 2.949218-.511719 5.871093-.914062 8.769531-.402344 2.902343-.894531 5.769531-1.492188 8.601562-.597656 2.835938-1.273437 5.617188-2.046875 8.371094-.777344 2.757813-1.640625 5.480469-2.5625 8.167969-.640625 1.800781-2.269531 5.367187-3.652344 8.34375-.605468 1.332031-1.160156 2.5625-1.5 3.304687-1.359374 3.136719-4.457031 5.164063-7.878906 5.144531zm0 0"/></g></svg>