<svg height="512pt" viewBox="-97 0 512 512" width="512pt" xmlns="http://www.w3.org/2000/svg"><path d="m299.035156 512h-280.277344c-4.976562.003906-9.746093-1.972656-13.265624-5.492188-3.519532-3.519531-5.49609425-8.289062-5.492188-13.265624v-474.484376c-.00390625-4.976562 1.972656-9.746093 5.492188-13.265624 3.519531-3.519532 8.289062-5.49609425 13.265624-5.492188h281.378907c9.75 0 17.65625 7.90625 17.65625 17.65625v475.585938c.003906 4.976562-1.972657 9.746093-5.492188 13.265624-3.519531 3.519532-8.289062 5.496094-13.265625 5.492188zm0 0" fill="#bdc3c7"/><path d="m0 70.621094h317.792969v335.449218h-317.792969zm0 0" fill="#35495e"/><path d="m317.792969 230.839844v175.230468h-317.792969v-68.414062c41.753906-71.417969 133.207031-162.074219 317.792969-106.816406zm0 0" fill="#2c3e50"/><path d="m114.757812 441.378906h88.277344c9.75 0 17.65625 7.90625 17.65625 17.65625s-7.90625 17.65625-17.65625 17.65625h-88.277344c-9.75 0-17.65625-7.90625-17.65625-17.65625s7.90625-17.65625 17.65625-17.65625zm0 0" fill="#95a5a5"/><path d="m194.207031 44.136719h-70.621093c-4.875 0-8.828126-3.949219-8.828126-8.828125 0-4.875 3.953126-8.824219 8.828126-8.824219h70.621093c4.875 0 8.828125 3.949219 8.828125 8.824219 0 4.878906-3.953125 8.828125-8.828125 8.828125zm0 0" fill="#95a5a5"/><g fill="#ff5364"><path d="m71.175781 337.355469c-3.386719-.003907-6.472656-1.949219-7.941406-5-1.46875-3.054688-1.0625-6.675781 1.046875-9.328125 2.5625-3.210938 5.007812-6.523438 7.292969-9.9375 1.863281-2.644532 3.585937-5.386719 5.164062-8.210938 1.503907-2.828125 4.417969-4.617187 7.617188-4.679687 3.199219-.066407 6.183593 1.609375 7.796875 4.371093 1.617187 2.765626 1.609375 6.183594-.019532 8.941407-1.726562 3.117187-3.617187 6.144531-5.65625 9.066406-2.808593 4.175781-5.527343 7.875-8.378906 11.476563-1.683594 2.097656-4.230468 3.3125-6.921875 3.300781zm0 0"/><path d="m99.679688 282.535156c-.816407.003906-1.628907-.109375-2.417969-.335937-2.253907-.636719-4.160157-2.148438-5.300781-4.195313-1.140626-2.042968-1.421876-4.460937-.78125-6.714844l.9375-3.363281c1.09375-4.121093 2.003906-8.273437 2.734374-12.464843.75-4.226563 1.316407-8.535157 1.6875-12.808594.371094-4.273438.5625-8.792969.5625-13.136719 0-4.179687.421876-8.351563 1.265626-12.445313 1.621093-7.894531 4.777343-15.394531 9.292968-22.070312 2.21875-3.277344 4.746094-6.335938 7.546875-9.136719 2.796875-2.804687 5.859375-5.328125 9.148438-7.539062 3.300781-2.230469 6.808593-4.136719 10.476562-5.691407 3.75-1.589843 7.644531-2.800781 11.636719-3.609374 4.085938-.851563 8.25-1.285157 12.429688-1.300782 4.875 0 8.824218 3.953125 8.824218 8.828125s-3.949218 8.828125-8.824218 8.828125c-2.988282-.007812-5.972657.289063-8.898438.882813-2.839844.578125-5.613281 1.4375-8.28125 2.570312-2.625 1.109375-5.136719 2.472657-7.496094 4.070313-2.34375 1.570312-4.53125 3.371094-6.523437 5.375-4.03125 4.023437-7.246094 8.789062-9.460938 14.035156-1.136719 2.667969-2 5.445312-2.578125 8.289062-.605468 2.933594-.90625 5.921876-.902344 8.914063 0 4.855469-.210937 9.78125-.636718 14.664063-.421875 4.882812-1.039063 9.605468-1.878906 14.328124-.792969 4.589844-1.828126 9.277344-3.054688 13.902344-.316406 1.21875-.671875 2.472656-1.023438 3.714844-1.078124 3.792969-4.542968 6.40625-8.484374 6.410156zm0 0"/><path d="m204.515625 300.464844c-.691406 0-1.382813-.082032-2.054687-.246094-4.722657-1.132812-7.644532-5.867188-6.542969-10.59375.761719-3.167969 1.46875-6.359375 2.121093-9.578125 1.09375-5.449219 2.011719-10.949219 2.753907-16.5.730469-5.550781 1.304687-11.175781 1.675781-16.832031.371094-5.660156.566406-11.433594.566406-17.199219.007813-2.988281-.289062-5.96875-.882812-8.898437-1.160156-5.636719-3.410156-10.992188-6.628906-15.765626-1.585938-2.351562-3.394532-4.542968-5.402344-6.546874-.546875-.550782-1.097656-1.070313-1.652344-1.574219-3.621094-3.261719-3.914062-8.84375-.648438-12.46875 3.265626-3.621094 8.847657-3.910157 12.46875-.648438.785157.707031 1.570313 1.449219 2.320313 2.207031 2.792969 2.789063 5.3125 5.839844 7.523437 9.109376 4.515626 6.675781 7.675782 14.175781 9.292969 22.070312.847657 4.117188 1.269531 8.3125 1.265625 12.515625 0 6.082031-.203125 12.246094-.601562 18.320313-.398438 6.070312-1.015625 12.046874-1.765625 17.988281-.75 5.941406-1.765625 11.839843-2.949219 17.65625-.6875 3.425781-1.449219 6.832031-2.25 10.222656-.957031 3.976563-4.519531 6.773437-8.609375 6.761719zm0 0"/><path d="m177.144531 369.355469c-3.160156.003906-6.078125-1.675781-7.660156-4.40625-1.582031-2.734375-1.582031-6.101563-.003906-8.835938 2.667969-4.667969 5.1875-9.425781 7.566406-14.28125 2.375-4.855469 4.601563-9.789062 6.671875-14.796875l1.371094-3.390625c1.164062-2.929687 3.804687-5.015625 6.925781-5.472656s6.25.785156 8.203125 3.261719c1.957031 2.472656 2.445312 5.804687 1.28125 8.734375l-1.46875 3.628906c-2.210938 5.351563-4.585938 10.617187-7.121094 15.800781-2.539062 5.1875-5.234375 10.269532-8.085937 15.253906-1.5625 2.777344-4.496094 4.496094-7.679688 4.503907zm0 0"/><path d="m128.351562 379.585938c-3.28125-.003907-6.289062-1.832032-7.808593-4.742188-1.519531-2.90625-1.300781-6.421875.570312-9.117188l7.59375-10.945312c3.070313-4.414062 6.011719-9.058594 8.722657-13.683594 2.707031-4.625 5.382812-9.550781 7.730468-14.34375 2.347656-4.792968 4.644532-9.878906 6.691406-15.007812 2.046876-5.128906 3.902344-10.222656 5.578126-15.519532 1.679687-5.296874 3.144531-10.59375 4.414062-16.03125 1.273438-5.4375 2.375-10.980468 3.222656-16.488281.847656-5.507812 1.546875-11.316406 1.976563-16.921875.433593-5.605468.679687-11.476562.679687-17.269531.003906-.589844-.054687-1.183594-.175781-1.765625-.113281-.574219-.28125-1.136719-.511719-1.675781-.21875-.519531-.488281-1.019531-.804687-1.492188-.316407-.46875-.675781-.90625-1.074219-1.304687-.40625-.402344-.847656-.769532-1.316406-1.097656-.476563-.316407-.980469-.59375-1.507813-.820313-.535156-.222656-1.09375-.394531-1.660156-.511719-1.1875-.230468-2.40625-.230468-3.59375 0-.542969.113282-1.078125.277344-1.589844.496094-.527343.222656-1.03125.492188-1.507812.8125-.472657.324219-.914063.691406-1.324219 1.09375-.394531.390625-.75.820312-1.058594 1.28125-.332031.480469-.613281.996094-.839844 1.535156-.222656.519532-.390624 1.0625-.503906 1.613282-.125.605468-.1875 1.222656-.183594 1.835937 0 4.878906-3.953124 8.828125-8.828124 8.828125s-8.828126-3.949219-8.828126-8.828125c-.003906-1.800781.179688-3.601563.546876-5.367187.691406-3.386719 2.050781-6.605469 4-9.460938.941406-1.410156 2.023437-2.71875 3.230468-3.910156 1.191406-1.195313 2.5-2.273438 3.902344-3.214844 1.410156-.960938 2.917969-1.78125 4.492188-2.445312 1.601562-.675782 3.265624-1.191407 4.96875-1.542969 5.265624-1.085938 10.730468-.542969 15.679687 1.550781 4.722656 2.015625 8.761719 5.351562 11.632813 9.605469 1.941406 2.863281 3.292968 6.082031 3.972656 9.472656.363281 1.75.542968 3.527344.539062 5.3125 0 6.25-.238281 12.535156-.722656 18.671875s-1.183594 12.199219-2.128906 18.265625c-.945313 6.0625-2.101563 11.960937-3.53125 17.839844-1.429688 5.878906-2.984375 11.667969-4.773438 17.320312-1.792968 5.648438-3.839844 11.359375-6.023437 16.769531-2.179688 5.414063-4.660157 10.949219-7.238281 16.175782-2.578126 5.222656-5.347657 10.386718-8.339844 15.492187-2.992188 5.101563-6.109375 9.964844-9.429688 14.785157l-7.617187 10.964843c-1.644531 2.363281-4.339844 3.777344-7.222657 3.785157zm0 0"/><path d="m100.632812 357.121094c-3.367187-.003906-6.4375-1.925782-7.917968-4.949219-1.480469-3.027344-1.109375-6.628906.953125-9.289063 3.019531-3.902343 5.925781-7.945312 8.636719-12.121093 2.707031-4.175781 5.292968-8.40625 7.660156-12.820313 2.367187-4.410156 4.597656-8.824218 6.648437-13.453125 2.046875-4.625 3.882813-9.292969 5.535157-14.023437 1.648437-4.734375 3.140624-9.710938 4.414062-14.566406 1.136719-4.117188 2.058594-8.289063 2.761719-12.5.816406-4.808594 5.378906-8.046876 10.1875-7.230469 4.808593.816406 8.046875 5.378906 7.230469 10.1875-.964844 5.65625-1.765626 8.675781-3.082032 13.957031-1.316406 5.277344-3.011718 10.734375-4.828125 15.957031-1.820312 5.226563-3.859375 10.355469-6.082031 15.386719-2.226562 5.035156-4.6875 9.996094-7.273438 14.734375-2.585937 4.742187-5.449218 9.550781-8.394531 14.035156-2.949219 4.484375-6.179687 8.996094-9.457031 13.242188-1.667969 2.171875-4.25 3.449219-6.992188 3.453125zm0 0"/><path d="m47.667969 309.964844c-3.300781-.003906-6.328125-1.851563-7.839844-4.785156-1.515625-2.9375-1.261719-6.472657.65625-9.164063 1.675781-2.355469 3.265625-4.765625 4.765625-7.238281s2.910156-5.003906 4.230469-7.59375c1.324219-2.605469 2.542969-5.253906 3.660156-7.941406 1.121094-2.691407 2.136719-5.441407 3.046875-8.246094.882812-2.765625 1.765625-5.605469 2.425781-8.484375.664063-2.878907 1.300781-5.835938 1.765625-8.828125.46875-2.992188.882813-5.949219 1.078125-8.984375.195313-3.039063.335938-6.074219.335938-9.183594 0-4.875 3.953125-8.824219 8.828125-8.824219s8.828125 3.949219 8.828125 8.824219c0 3.578125-.152344 7.117187-.425781 10.59375-.273438 3.480469-.707032 6.964844-1.242188 10.390625-.539062 3.425781-1.246094 6.832031-2.058594 10.160156s-1.765625 6.59375-2.796875 9.824219c-1.035156 3.234375-2.242187 6.402344-3.53125 9.519531-1.289062 3.113282-2.703125 6.175782-4.230469 9.160156-1.527343 2.984376-3.132812 5.890626-4.855468 8.742188-1.71875 2.851562-3.53125 5.621094-5.488282 8.324219-1.644531 2.324219-4.304687 3.714843-7.152343 3.734375zm0 0"/><path d="m77.914062 203.15625c-1.183593 0-2.351562-.238281-3.4375-.703125-4.488281-1.898437-6.589843-7.074219-4.695312-11.566406 2.324219-5.5 5.207031-10.75 8.597656-15.667969 10.542969-15.601562 25.375-27.816406 42.710938-35.167969 5.875-2.484375 11.984375-4.382812 18.234375-5.660156 12.914062-2.621094 26.222656-2.621094 39.132812 0 6.253907 1.277344 12.359375 3.171875 18.238281 5.648437 17.335938 7.359376 32.167969 19.574219 42.707032 35.179688l1.175781 1.710938c2.4375 3.347656 4.453125 6.980468 5.992187 10.824218 1.257813 2.910156.855469 6.269532-1.050781 8.800782-1.902343 2.53125-5.019531 3.851562-8.160156 3.453124-3.144531-.398437-5.832031-2.449218-7.046875-5.378906-1.09375-2.757812-2.542969-5.359375-4.316406-7.738281l-1.21875-1.765625c-8.636719-12.785156-20.785156-22.792969-34.984375-28.824219-4.804688-2.023437-9.792969-3.570312-14.902344-4.617187-10.570313-2.144532-21.464844-2.144532-32.035156 0-5.105469 1.046875-10.097657 2.597656-14.898438 4.625-14.191406 6.023437-26.335937 16.023437-34.96875 28.796875-2.753906 3.964843-5.085937 8.210937-6.964843 12.660156-1.375 3.261719-4.570313 5.382813-8.109376 5.390625zm0 0"/><path d="m224.28125 353.402344c-2.949219 0-5.707031-1.472656-7.34375-3.929688-1.640625-2.457031-1.941406-5.570312-.804688-8.296875 1.765626-4.296875 3.472657-8.660156 5.070313-13.054687 1.597656-4.394532 3.054687-8.828125 4.414063-13.339844 1.359374-4.507812 2.648437-9.019531 3.792968-13.609375 1.148438-4.589844 2.21875-9.207031 3.160156-13.871094.945313-4.660156 1.765626-9.382812 2.480469-14.121093.714844-4.742188 1.324219-9.527344 1.765625-14.347657.441406-4.816406.882813-9.707031 1.097656-14.5625.210938-4.855469.429688-9.800781.429688-14.753906 0-4.875 3.953125-8.824219 8.828125-8.824219s8.828125 3.949219 8.828125 8.824219c0 5.246094-.128906 10.457031-.386719 15.636719-.261719 5.175781-.648437 10.324218-1.167969 15.4375-.5 5.101562-1.136718 10.179687-1.914062 15.226562-.75 5.015625-1.625 10.019532-2.648438 15.007813-1.023437 4.988281-2.117187 9.851562-3.347656 14.726562-1.226562 4.871094-2.585937 9.707031-4.042968 14.441407-1.453126 4.730468-3.035157 9.488281-4.710938 14.125-1.679688 4.632812-3.46875 9.292968-5.378906 13.847656-1.363282 3.285156-4.566406 5.425781-8.121094 5.4375zm0 0"/><path d="m35.308594 238.34375c-4.875 0-8.824219-3.949219-8.824219-8.828125-.015625-8.957031.871094-17.894531 2.648437-26.675781 5.128907-24.933594 17.347657-47.851563 35.183594-66.011719 3.429688-3.398437 8.949219-3.414063 12.394532-.035156 3.449218 3.378906 3.542968 8.898437.210937 12.394531-21.054687 21.429688-32.832031 50.285156-32.785156 80.328125 0 2.34375-.929688 4.589844-2.585938 6.242187-1.652343 1.65625-3.898437 2.585938-6.242187 2.585938zm0 0"/><path d="m95.339844 132.351562c-3.972656.007813-7.457032-2.636718-8.519532-6.460937-1.066406-3.820313.550782-7.886719 3.953126-9.929687 5.332031-3.203126 10.878906-6.023438 16.605468-8.449219 8.015625-3.394531 16.347656-5.980469 24.875-7.714844 17.601563-3.574219 35.738282-3.574219 53.335938 0 3.851562.789063 7.632812 1.734375 11.34375 2.839844 4.671875 1.402343 7.320312 6.324219 5.921875 10.996093-1.402344 4.671876-6.324219 7.320313-10.996094 5.917969-3.214844-.960937-6.472656-1.765625-9.800781-2.453125-15.265625-3.097656-31.003906-3.097656-46.273438 0-7.378906 1.515625-14.589844 3.753906-21.53125 6.683594-4.953125 2.101562-9.753906 4.546875-14.371094 7.316406-1.371093.824219-2.945312 1.257813-4.542968 1.253906zm0 0"/><path d="m277.1875 297.703125c-.523438 0-1.046875-.046875-1.5625-.144531-2.308594-.410156-4.355469-1.71875-5.695312-3.640625-1.339844-1.925781-1.859376-4.300781-1.449219-6.605469.425781-2.355469.824219-4.710938 1.203125-7.0625.359375-2.339844.707031-4.722656 1.039062-7.117188.335938-2.390624.609375-4.730468.882813-7.132812.273437-2.398438.523437-4.792969.742187-7.210938.222656-2.417968.414063-4.820312.574219-7.246093.160156-2.429688.308594-4.847657.425781-7.285157.113282-2.433593.191406-4.898437.253906-7.351562s.054688-4.925781.054688-7.390625c-.03125-37.574219-18.421875-72.765625-49.257812-94.242187-3.851563-2.835938-4.742188-8.222657-2.007813-12.148438 2.730469-3.925781 8.089844-4.960938 12.085937-2.335938 27.921876 19.394532 47.308594 48.792969 54.140626 82.09375 1.789062 8.765626 2.691406 17.6875 2.691406 26.632813 0 2.609375-.027344 5.203125-.085938 7.789063-.0625 2.59375-.152344 5.171874-.273437 7.75-.125 2.578124-.265625 5.117187-.441407 7.679687-.175781 2.558594-.390624 5.09375-.609374 7.625-.222657 2.535156-.503907 5.070313-.777344 7.59375-.273438 2.523437-.601563 5.03125-.9375 7.539063-.332032 2.507812-.714844 5.011718-1.101563 7.492187s-.8125 4.980469-1.253906 7.441406c-.75 4.195313-4.382813 7.253907-8.640625 7.277344zm0 0"/></g></svg>