<svg height="512pt" viewBox="-71 0 512 512" width="512pt" xmlns="http://www.w3.org/2000/svg"><path d="m17.65625 0h326.621094c14.625 0 26.480468 11.855469 26.480468 26.484375v467.859375c0 9.75-7.902343 17.65625-17.65625 17.65625h-335.445312c-9.75 0-17.65625-7.90625-17.65625-17.65625v-476.6875c0-9.75 7.90625-17.65625 17.65625-17.65625zm0 0" fill="#bdc3c7"/><path d="m0 70.621094h370.757812v353.101562h-370.757812zm0 0" fill="#35495e"/><path d="m370.757812 255.117188v168.605468h-370.757812v-68.148437c49.257812-79.269531 157.484375-180.789063 370.757812-100.457031zm0 0" fill="#2c3e50"/><path d="m185.378906 450.207031c9.75 0 17.65625 7.90625 17.65625 17.65625s-7.90625 17.652344-17.65625 17.652344-17.65625-7.902344-17.65625-17.652344 7.90625-17.65625 17.65625-17.65625zm0 0" fill="#95a5a5"/><path d="m220.691406 44.136719h-70.621094c-4.875 0-8.828124-3.949219-8.828124-8.828125 0-4.875 3.953124-8.824219 8.828124-8.824219h70.621094c4.875 0 8.824219 3.949219 8.824219 8.824219 0 4.878906-3.949219 8.828125-8.824219 8.828125zm0 0" fill="#95a5a5"/><g fill="#ff5364"><path d="m97.660156 346.183594c-3.386718-.003906-6.476562-1.949219-7.945312-5-1.46875-3.054688-1.058594-6.679688 1.050781-9.328125 2.558594-3.214844 5.003906-6.523438 7.292969-9.941407 1.863281-2.644531 3.585937-5.382812 5.164062-8.207031 1.5-2.828125 4.417969-4.617187 7.617188-4.679687 3.199218-.066406 6.183594 1.609375 7.796875 4.371094 1.613281 2.765624 1.605469 6.183593-.019531 8.941406-1.726563 3.117187-3.617188 6.144531-5.660157 9.066406-2.804687 4.175781-5.523437 7.875-8.375 11.476562-1.683593 2.09375-4.234375 3.3125-6.921875 3.300782zm0 0"/><path d="m126.164062 291.363281c-.816406.003907-1.632812-.109375-2.417968-.335937-2.253906-.636719-4.164063-2.148438-5.304688-4.195313s-1.421875-4.460937-.777344-6.714843l.933594-3.363282c1.09375-4.121094 2.007813-8.273437 2.738282-12.464844.75-4.226562 1.316406-8.535156 1.683593-12.808593.371094-4.273438.566407-8.792969.566407-13.136719 0-4.179688.421874-8.351562 1.261718-12.445312 1.621094-7.894532 4.78125-15.394532 9.296875-22.070313 2.21875-3.277344 4.746094-6.339844 7.546875-9.136719 2.796875-2.804687 5.859375-5.328125 9.144532-7.539062 3.300781-2.230469 6.8125-4.136719 10.480468-5.691406 3.746094-1.589844 7.644532-2.800782 11.632813-3.613282 4.089843-.847656 8.253906-1.28125 12.429687-1.296875 4.875 0 8.828125 3.953125 8.828125 8.828125s-3.953125 8.828125-8.828125 8.828125c-2.988281-.007812-5.96875.289063-8.898437.882813-2.839844.578125-5.613281 1.4375-8.28125 2.570312-2.621094 1.109375-5.132813 2.472656-7.492188 4.066406-2.347656 1.574219-4.53125 3.375-6.523437 5.378907-4.03125 4.023437-7.246094 8.789062-9.464844 14.035156-1.136719 2.667969-2 5.445313-2.578125 8.289063-.601563 2.933593-.902344 5.921874-.898437 8.914062 0 4.855469-.210938 9.78125-.636719 14.664062-.421875 4.882813-1.042969 9.605469-1.878907 14.328126-.796874 4.589843-1.828124 9.277343-3.054687 13.902343-.320313 1.21875-.671875 2.472657-1.023437 3.714844-1.082032 3.792969-4.542969 6.40625-8.484376 6.410156zm0 0"/><path d="m231 309.292969c-.691406 0-1.382812-.082031-2.054688-.246094-4.726562-1.132813-7.648437-5.867187-6.542968-10.59375.757812-3.167969 1.464844-6.359375 2.117187-9.578125 1.097657-5.449219 2.015625-10.949219 2.753907-16.5.734374-5.550781 1.308593-11.175781 1.679687-16.835938.371094-5.65625.5625-11.429687.5625-17.195312.011719-2.988281-.285156-5.96875-.882813-8.898438-1.15625-5.636718-3.410156-10.992187-6.628906-15.765624-1.585937-2.351563-3.394531-4.546876-5.402344-6.550782-.546874-.546875-1.09375-1.066406-1.648437-1.570312-3.625-3.261719-3.914063-8.847656-.648437-12.46875 3.261718-3.621094 8.84375-3.914063 12.46875-.648438.785156.707032 1.570312 1.449219 2.320312 2.207032 2.792969 2.789062 5.308594 5.839843 7.519531 9.109374 4.519531 6.675782 7.675781 14.175782 9.296875 22.070313.84375 4.117187 1.269532 8.3125 1.261719 12.515625 0 6.082031-.203125 12.246094-.601563 18.316406-.394531 6.074219-1.011718 12.050782-1.765624 17.992188-.75 5.941406-1.761719 11.839844-2.945313 17.65625-.691406 3.425781-1.449219 6.832031-2.253906 10.222656-.953125 3.972656-4.515625 6.773438-8.605469 6.761719zm0 0"/><path d="m203.625 378.183594c-3.15625.003906-6.074219-1.675782-7.65625-4.40625-1.582031-2.734375-1.582031-6.101563-.003906-8.835938 2.664062-4.667968 5.1875-9.429687 7.5625-14.28125 2.378906-4.855468 4.605468-9.789062 6.675781-14.796875l1.367187-3.390625c1.164063-2.929687 3.804688-5.019531 6.929688-5.472656 3.121094-.457031 6.246094.785156 8.203125 3.261719 1.957031 2.472656 2.445313 5.804687 1.277344 8.734375l-1.464844 3.628906c-2.210937 5.351562-4.585937 10.617188-7.125 15.800781-2.535156 5.183594-5.230469 10.269531-8.085937 15.253907-1.558594 2.777343-4.492188 4.496093-7.679688 4.503906zm0 0"/><path d="m154.835938 388.414062c-3.28125-.003906-6.289063-1.832031-7.808594-4.742187-1.519532-2.910156-1.300782-6.421875.570312-9.117187l7.589844-10.945313c3.074219-4.414063 6.011719-9.058594 8.722656-13.683594 2.710938-4.625 5.386719-9.550781 7.734375-14.34375 2.347657-4.792969 4.640625-9.878906 6.691407-15.007812 2.046874-5.128907 3.902343-10.222657 5.578124-15.519531 1.675782-5.296876 3.140626-10.59375 4.414063-16.03125 1.269531-5.4375 2.375-10.980469 3.222656-16.488282.847657-5.507812 1.542969-11.316406 1.976563-16.921875s.679687-11.476562.679687-17.269531c.003907-.59375-.058593-1.183594-.175781-1.765625-.113281-.574219-.285156-1.136719-.511719-1.675781-.222656-.523438-.492187-1.019532-.804687-1.492188-.316406-.46875-.675782-.90625-1.078125-1.304687-.40625-.402344-.84375-.769531-1.3125-1.097657-.476563-.316406-.984375-.59375-1.511719-.820312-.535156-.222656-1.089844-.394531-1.660156-.511719-1.183594-.230469-2.40625-.230469-3.589844 0-.546875.113281-1.078125.277344-1.589844.496094-.527344.222656-1.035156.492187-1.511718.8125-.46875.324219-.914063.691406-1.324219 1.09375-.394531.390625-.746094.820313-1.058594 1.277344-.328125.484375-.609375 1-.835937 1.539062-.222657.519531-.390626 1.058594-.503907 1.613281-.125.605469-.1875 1.21875-.1875 1.835938 0 4.875-3.953125 8.828125-8.828125 8.828125s-8.824218-3.953125-8.824218-8.828125c-.003907-1.800781.179687-3.601562.546874-5.367188.6875-3.386718 2.046876-6.605468 3.996094-9.460937.945313-1.410156 2.027344-2.71875 3.230469-3.910156 1.195313-1.199219 2.5-2.273438 3.902344-3.214844 1.414062-.964844 2.917969-1.78125 4.496093-2.445313 1.601563-.675781 3.265626-1.191406 4.96875-1.542968 5.261719-1.085938 10.730469-.542969 15.675782 1.550781 4.722656 2.015625 8.761718 5.351563 11.636718 9.605469 1.9375 2.863281 3.289063 6.082031 3.972657 9.472656.359375 1.746094.542969 3.527344.539062 5.3125 0 6.25-.238281 12.535156-.726562 18.671875-.484375 6.132813-1.179688 12.199219-2.125 18.265625-.945313 6.0625-2.101563 11.960938-3.53125 17.839844-1.429688 5.878906-2.984375 11.667968-4.777344 17.320312-1.792969 5.648438-3.839844 11.359375-6.019531 16.769532-2.179688 5.414062-4.660156 10.949218-7.238282 16.171874-2.578124 5.226563-5.351562 10.390626-8.34375 15.492188-2.992187 5.105469-6.105468 9.96875-9.425781 14.789062l-7.617187 10.960938c-1.648438 2.367188-4.34375 3.78125-7.222656 3.789062zm0 0"/><path d="m127.117188 365.949219c-3.367188-.003907-6.441407-1.925781-7.921876-4.949219-1.476562-3.027344-1.109374-6.628906.957032-9.292969 3.019531-3.898437 5.921875-7.941406 8.632812-12.117187 2.710938-4.175782 5.296875-8.40625 7.664063-12.820313 2.363281-4.414062 4.597656-8.828125 6.644531-13.453125 2.050781-4.625 3.886719-9.292968 5.535156-14.027344 1.652344-4.730468 3.144532-9.707031 4.414063-14.5625 1.140625-4.117187 2.0625-8.289062 2.765625-12.5.816406-4.8125 5.375-8.046874 10.183594-7.230468 4.8125.816406 8.046874 5.375 7.230468 10.1875-.960937 5.65625-1.765625 8.675781-3.078125 13.957031-1.316406 5.277344-3.011719 10.734375-4.832031 15.957031-1.816406 5.226563-3.855469 10.355469-6.082031 15.386719-2.222657 5.03125-4.6875 9.992187-7.273438 14.734375-2.585937 4.742188-5.445312 9.550781-8.394531 14.035156s-6.179688 8.996094-9.453125 13.242188c-1.667969 2.171875-4.253906 3.449218-6.992187 3.453125zm0 0"/><path d="m74.152344 318.789062c-3.304688 0-6.328125-1.847656-7.84375-4.78125-1.511719-2.9375-1.257813-6.472656.65625-9.164062 1.679687-2.355469 3.265625-4.769531 4.769531-7.238281 1.5-2.472657 2.910156-5.003907 4.226563-7.59375 1.324218-2.605469 2.546874-5.253907 3.664062-7.945313 1.117188-2.6875 2.132812-5.4375 3.046875-8.242187.882813-2.765625 1.765625-5.605469 2.425781-8.484375.664063-2.878906 1.296875-5.835938 1.765625-8.828125.46875-2.992188.882813-5.949219 1.078125-8.984375.191406-3.039063.335938-6.074219.335938-9.183594 0-4.875 3.949218-8.828125 8.824218-8.828125 4.878907 0 8.828126 3.953125 8.828126 8.828125 0 3.578125-.148438 7.117188-.421876 10.59375-.273437 3.476562-.707031 6.964844-1.246093 10.390625-.539063 3.425781-1.242188 6.832031-2.054688 10.160156s-1.765625 6.59375-2.800781 9.824219c-1.03125 3.230469-2.242188 6.402344-3.53125 9.515625-1.289062 3.117187-2.699219 6.179687-4.226562 9.164063-1.527344 2.984374-3.132813 5.886718-4.855469 8.738281-1.722657 2.851562-3.53125 5.625-5.492188 8.324219-1.640625 2.328124-4.304687 3.714843-7.148437 3.734374zm0 0"/><path d="m104.394531 211.984375c-1.179687 0-2.347656-.238281-3.433593-.703125-4.488282-1.898438-6.589844-7.074219-4.695313-11.566406 2.324219-5.5 5.207031-10.75 8.597656-15.667969 10.539063-15.601563 25.375-27.816406 42.707031-35.167969 5.878907-2.484375 11.988282-4.382812 18.238282-5.660156 12.914062-2.621094 26.21875-2.621094 39.132812 0 6.25 1.277344 12.359375 3.167969 18.238282 5.648438 17.332031 7.355468 32.167968 19.574218 42.707031 35.179687l1.175781 1.710937c2.4375 3.347657 4.449219 6.980469 5.992188 10.824219 1.253906 2.910157.855468 6.269531-1.050782 8.800781-1.902344 2.53125-5.019531 3.847657-8.164062 3.453126-3.140625-.398438-5.832032-2.449219-7.046875-5.378907-1.089844-2.757812-2.542969-5.363281-4.316407-7.742187l-1.21875-1.765625c-8.632812-12.78125-20.78125-22.792969-34.980468-28.820313-4.804688-2.027344-9.796875-3.570312-14.902344-4.617187-10.570312-2.144531-21.464844-2.144531-32.035156 0-5.109375 1.046875-10.097656 2.597656-14.902344 4.625-14.191406 6.023437-26.335938 16.023437-34.964844 28.796875-2.753906 3.964844-5.089844 8.207031-6.964844 12.660156-1.378906 3.261719-4.570312 5.382812-8.113281 5.390625zm0 0"/><path d="m250.765625 362.230469c-2.953125 0-5.710937-1.476563-7.347656-3.929688-1.636719-2.457031-1.9375-5.570312-.800781-8.296875 1.765624-4.296875 3.46875-8.660156 5.066406-13.054687s3.054687-8.828125 4.414062-13.339844 2.648438-9.019531 3.796875-13.609375c1.148438-4.59375 2.214844-9.207031 3.160157-13.871094.945312-4.660156 1.765624-9.382812 2.480468-14.121094.714844-4.742187 1.324219-9.527343 1.765625-14.347656.441407-4.820312.882813-9.710937 1.09375-14.5625.210938-4.855468.433594-9.800781.433594-14.753906 0-4.875 3.953125-8.828125 8.828125-8.828125s8.828125 3.953125 8.828125 8.828125c0 5.246094-.132813 10.457031-.390625 15.632812-.257812 5.179688-.648438 10.328126-1.164062 15.441407-.5 5.101562-1.140626 10.179687-1.917969 15.226562-.75 5.015625-1.621094 10.019531-2.644531 15.007813-1.027344 4.988281-2.121094 9.851562-3.347657 14.722656-1.226562 4.875-2.585937 9.710938-4.042969 14.445312-1.457031 4.730469-3.035156 9.488282-4.714843 14.121094-1.675781 4.636719-3.46875 9.296875-5.375 13.851563-1.367188 3.28125-4.566407 5.425781-8.121094 5.4375zm0 0"/><path d="m61.792969 247.171875c-4.875 0-8.828125-3.953125-8.828125-8.828125-.015625-8.957031.871094-17.894531 2.648437-26.675781 5.132813-24.933594 17.347657-47.855469 35.1875-66.011719 3.425781-3.398438 8.949219-3.414062 12.394531-.035156 3.445313 3.378906 3.539063 8.898437.210938 12.394531-21.058594 21.429687-32.835938 50.285156-32.785156 80.328125 0 4.875-3.953125 8.828125-8.828125 8.828125zm0 0"/><path d="m121.820312 141.179688c-3.96875.007812-7.453124-2.636719-8.519531-6.460938-1.0625-3.824219.554688-7.886719 3.957031-9.933594 5.332032-3.199218 10.878907-6.019531 16.605469-8.445312 8.011719-3.394532 16.347657-5.980469 24.875-7.714844 17.597657-3.578125 35.738281-3.578125 53.335938 0 3.847656.785156 7.628906 1.734375 11.34375 2.839844 4.671875 1.402344 7.320312 6.324218 5.917969 10.996094-1.402344 4.671874-6.324219 7.320312-10.996094 5.917968-3.210938-.960937-6.46875-1.765625-9.796875-2.453125-15.269531-3.097656-31.003907-3.097656-46.273438 0-7.378906 1.511719-14.589843 3.753907-21.53125 6.683594-4.953125 2.101563-9.757812 4.546875-14.371093 7.316406-1.375.824219-2.945313 1.257813-4.546876 1.253907zm0 0"/><path d="m303.667969 306.527344c-.523438.003906-1.046875-.042969-1.5625-.140625-2.304688-.410157-4.355469-1.71875-5.695313-3.644531-1.339844-1.921876-1.859375-4.296876-1.445312-6.601563.425781-2.355469.824218-4.710937 1.199218-7.0625.363282-2.339844.707032-4.722656 1.042969-7.117187.335938-2.390626.609375-4.730469.882813-7.132813.273437-2.398437.519531-4.792969.742187-7.210937.21875-2.417969.414063-4.820313.574219-7.246094.15625-2.429688.308594-4.847656.421875-7.285156.117187-2.433594.195313-4.898438.257813-7.351563s.050781-4.925781.050781-7.390625c-.027344-37.574219-18.421875-72.765625-49.257813-94.242188-3.847656-2.835937-4.738281-8.222656-2.007812-12.148437 2.730468-3.925781 8.09375-4.960937 12.089844-2.335937 6.453124 4.484374 12.492187 9.539062 18.042968 15.101562 12.09375 12.058594 21.730469 26.355469 28.371094 42.089844 3.394531 8.011718 5.984375 16.335937 7.726562 24.859375 1.789063 8.777343 2.691407 17.714843 2.691407 26.675781 0 2.609375-.027344 5.203125-.089844 7.785156-.058594 2.597656-.148437 5.175782-.273437 7.753906-.121094 2.578126-.261719 5.117188-.441407 7.679688-.175781 2.558594-.386719 5.09375-.609375 7.625-.21875 2.535156-.5 5.066406-.773437 7.59375-.273438 2.523438-.601563 5.03125-.9375 7.539062-.335938 2.503907-.714844 5.011719-1.101563 7.492188-.390625 2.480469-.8125 4.980469-1.253906 7.441406-.75 4.191406-4.386719 7.253906-8.644531 7.273438zm0 0"/></g></svg>