<svg height="512pt" viewBox="0 -31 512 512" width="512pt" xmlns="http://www.w3.org/2000/svg"><path d="m397.242188 0h79.449218c9.75 0 17.652344 7.90625 17.652344 17.65625v353.101562h-476.6875v-353.101562c0-9.75 7.902344-17.65625 17.652344-17.65625zm0 0" fill="#bdc3c7"/><path d="m459.035156 44.136719.003906 326.621093h-406.074218v-326.621093c0-4.875 3.953125-8.828125 8.828125-8.828125h390.089843c4.234376.78125 7.265626 4.527344 7.152344 8.828125zm0 0" fill="#35495e"/><path d="m459.035156 163.398438v207.359374h-406.070312v-85.890624c61.265625-57.558594 189.792968-141.507813 406.070312-121.46875zm0 0" fill="#2c3e50"/><path d="m512 379.585938v35.3125c0 19.5-15.808594 35.308593-35.308594 35.308593h-441.382812c-19.5 0-35.308594-15.808593-35.308594-35.308593v-35.3125c0-4.875 3.953125-8.828126 8.828125-8.828126h494.34375c4.875 0 8.828125 3.953126 8.828125 8.828126zm0 0" fill="#95a5a5"/><path d="m315.710938 406.070312h-119.421876c-6.6875 0-12.800781-3.78125-15.792968-9.765624l-12.773438-25.546876h176.554688l-12.773438 25.546876c-2.992187 5.984374-9.105468 9.765624-15.792968 9.765624zm0 0" fill="#7f8c8d"/><path d="m114.757812 406.070312c0 4.875-3.953124 8.828126-8.828124 8.828126h-105.929688v-17.65625h105.929688c4.875 0 8.828124 3.953124 8.828124 8.828124zm0 0" fill="#7f8c8d"/><path d="m150.070312 414.898438h-8.828124c-4.875 0-8.828126-3.953126-8.828126-8.828126s3.953126-8.828124 8.828126-8.828124h8.828124c4.875 0 8.828126 3.953124 8.828126 8.828124s-3.953126 8.828126-8.828126 8.828126zm0 0" fill="#7f8c8d"/><path d="m512 414.898438h-105.929688c-4.875 0-8.828124-3.953126-8.828124-8.828126s3.953124-8.828124 8.828124-8.828124h105.929688zm0 0" fill="#7f8c8d"/><path d="m370.757812 414.898438h-8.828124c-4.875 0-8.828126-3.953126-8.828126-8.828126s3.953126-8.828124 8.828126-8.828124h8.828124c4.875 0 8.828126 3.953124 8.828126 8.828124s-3.953126 8.828126-8.828126 8.828126zm0 0" fill="#7f8c8d"/><g fill="#ff5364"><path d="m168.28125 302.042969c-3.390625-.003907-6.476562-1.945313-7.945312-5-1.46875-3.050781-1.0625-6.675781 1.050781-9.324219 2.558593-3.214844 5.003906-6.523438 7.289062-9.941406 1.867188-2.644532 3.589844-5.382813 5.164063-8.210938 2.386718-4.253906 7.765625-5.769531 12.019531-3.382812 4.253906 2.382812 5.769531 7.765625 3.386719 12.019531-1.734375 3.113281-3.625 6.140625-5.667969 9.0625-2.808594 4.175781-5.527344 7.875-8.378906 11.476563-1.683594 2.097656-4.230469 3.3125-6.917969 3.300781zm0 0"/><path d="m196.785156 247.226562c-.820312 0-1.632812-.113281-2.417968-.335937-2.253907-.640625-4.164063-2.148437-5.304688-4.195313-1.140625-2.046874-1.421875-4.460937-.777344-6.714843l.933594-3.363281c1.09375-4.121094 2.007812-8.277344 2.738281-12.464844.75-4.230469 1.3125-8.539063 1.683594-12.808594.371094-4.273438.566406-8.792969.566406-13.136719 0-4.179687.421875-8.351562 1.261719-12.445312 1.621094-7.894531 4.78125-15.394531 9.296875-22.070313 2.21875-3.28125 4.746094-6.339844 7.546875-9.136718 2.796875-2.804688 5.859375-5.332032 9.144531-7.539063 3.300781-2.230469 6.808594-4.140625 10.480469-5.695313 3.746094-1.585937 7.644531-2.796874 11.632812-3.609374 4.089844-.847657 8.253907-1.285157 12.429688-1.296876 4.875 0 8.828125 3.953126 8.828125 8.828126s-3.953125 8.828124-8.828125 8.828124c-2.988281-.007812-5.96875.285157-8.898438.882813-2.839843.578125-5.613281 1.4375-8.28125 2.566406-2.621093 1.113281-5.132812 2.472657-7.492187 4.070313-2.347656 1.574218-4.53125 3.375-6.523437 5.375-4.03125 4.023437-7.246094 8.792968-9.464844 14.035156-1.136719 2.671875-2 5.449219-2.578125 8.292969-.601563 2.933593-.902344 5.917969-.898438 8.914062 0 4.855469-.214843 9.78125-.636719 14.664063-.421874 4.878906-1.042968 9.601562-1.878906 14.324218-.796875 4.589844-1.828125 9.277344-3.054687 13.90625-.320313 1.214844-.671875 2.46875-1.023438 3.714844-1.082031 3.789063-4.542969 6.40625-8.484375 6.410156zm0 0"/><path d="m301.621094 265.152344c-.691406 0-1.382813-.082032-2.058594-.246094-4.722656-1.128906-7.644531-5.863281-6.539062-10.59375.757812-3.164062 1.464843-6.355469 2.117187-9.578125 1.09375-5.441406 2.011719-10.941406 2.753906-16.496094.734375-5.554687 1.308594-11.175781 1.679688-16.835937.371093-5.65625.5625-11.429688.5625-17.195313.007812-2.988281-.285157-5.96875-.882813-8.898437-1.15625-5.636719-3.410156-10.996094-6.628906-15.765625-1.585938-2.351563-3.394531-4.546875-5.402344-6.550781-.546875-.546876-1.09375-1.066407-1.648437-1.570313-2.34375-2.113281-3.382813-5.3125-2.726563-8.398437.65625-3.085938 2.910156-5.585938 5.910156-6.558594s6.292969-.273438 8.632813 1.839844c.789063.703124 1.574219 1.445312 2.324219 2.207031 2.789062 2.789062 5.308594 5.839843 7.519531 9.109375 4.519531 6.675781 7.675781 14.171875 9.296875 22.066406.84375 4.121094 1.269531 8.316406 1.261719 12.519531 0 6.082031-.203125 12.242188-.601563 18.316407-.394531 6.074218-1.015625 12.050781-1.765625 17.992187s-1.765625 11.835937-2.945312 17.65625c-.691407 3.421875-1.449219 6.832031-2.253907 10.21875-.957031 3.976563-4.515624 6.773437-8.605468 6.761719zm0 0"/><path d="m274.246094 334.042969c-3.15625.007812-6.078125-1.671875-7.65625-4.40625-1.582032-2.730469-1.585938-6.097657-.003906-8.832031 2.664062-4.667969 5.1875-9.429688 7.5625-14.285157 2.378906-4.855469 4.601562-9.785156 6.675781-14.792969l1.367187-3.390624c1.164063-2.933594 3.804688-5.019532 6.925782-5.476563 3.125-.457031 6.25.789063 8.207031 3.261719 1.957031 2.476562 2.441406 5.804687 1.277343 8.738281l-1.464843 3.628906c-2.214844 5.347657-4.585938 10.617188-7.125 15.800781-2.535157 5.183594-5.226563 10.269532-8.078125 15.253907-1.558594 2.777343-4.5 4.5-7.6875 4.5zm0 0"/><path d="m225.457031 344.277344c-3.28125-.007813-6.292969-1.832032-7.8125-4.742188s-1.296875-6.421875.574219-9.117187l7.589844-10.949219c3.074218-4.414062 6.011718-9.054688 8.722656-13.679688 2.710938-4.628906 5.386719-9.554687 7.734375-14.347656 2.347656-4.792968 4.640625-9.875 6.691406-15.003906 2.046875-5.128906 3.898438-10.222656 5.578125-15.519531 1.675782-5.296875 3.140625-10.59375 4.414063-16.03125 1.269531-5.4375 2.375-10.980469 3.222656-16.492188.847656-5.507812 1.542969-11.316406 1.976563-16.921875.433593-5.605468.679687-11.476562.679687-17.265625 0-.59375-.058594-1.183593-.175781-1.765625-.113282-.574218-.285156-1.136718-.511719-1.675781-.222656-.523437-.492187-1.023437-.804687-1.492187-.316407-.46875-.675782-.90625-1.078126-1.308594-.40625-.402344-.84375-.765625-1.3125-1.09375-.480468-.320313-.984374-.59375-1.511718-.820313-.535156-.226562-1.089844-.398437-1.660156-.511719-1.1875-.230468-2.40625-.230468-3.59375 0-.542969.109376-1.074219.277344-1.585938.492188-.527344.222656-1.035156.496094-1.511719.8125-.472656.328125-.914062.695312-1.324219 1.09375-.394531.390625-.75.820312-1.058593 1.28125-.328125.484375-.609375.996094-.839844 1.535156-.21875.523438-.386719 1.0625-.5 1.617188-.125.605468-.1875 1.21875-.1875 1.835937 0 4.875-3.953125 8.828125-8.828125 8.828125s-8.828125-3.953125-8.828125-8.828125c0-1.804687.183594-3.601562.550781-5.367187.6875-3.390625 2.046875-6.605469 3.996094-9.464844.945312-1.40625 2.027344-2.714844 3.230469-3.910156 1.195312-1.195313 2.5-2.269532 3.902343-3.210938 1.414063-.964844 2.917969-1.785156 4.492188-2.445312 1.605469-.675782 3.269531-1.195313 4.972656-1.546875 5.261719-1.082031 10.730469-.542969 15.675782 1.554687 4.722656 2.015625 8.761718 5.351563 11.636718 9.605469 1.9375 2.859375 3.289063 6.082031 3.972656 9.472656.359376 1.746094.539063 3.527344.539063 5.3125 0 6.25-.238281 12.535157-.726563 18.671875-.484374 6.132813-1.183593 12.199219-2.125 18.261719-.945312 6.066406-2.101562 11.960937-3.53125 17.839844-1.429687 5.878906-2.984374 11.671875-4.777343 17.320312-1.792969 5.652344-3.839844 11.363281-6.019531 16.773438-2.179688 5.410156-4.660157 10.945312-7.238282 16.171875-2.578125 5.226562-5.351562 10.390625-8.34375 15.492187-2.992187 5.101563-6.109375 9.96875-9.425781 14.785157l-7.621094 10.964843c-1.644531 2.367188-4.339843 3.777344-7.21875 3.789063zm0 0"/><path d="m197.738281 321.808594c-3.367187-.003906-6.441406-1.921875-7.921875-4.949219-1.480468-3.023437-1.109375-6.628906.957032-9.289063 3.019531-3.902343 5.921874-7.945312 8.632812-12.121093s5.296875-8.402344 7.664062-12.816407c2.363282-4.414062 4.597657-8.828124 6.644532-13.453124 2.050781-4.625 3.886718-9.296876 5.535156-14.027344 1.652344-4.730469 3.144531-9.710938 4.414062-14.566406 1.140626-4.113282 2.0625-8.285157 2.761719-12.5.820313-4.808594 5.378907-8.046876 10.1875-7.230469 4.8125.820312 8.046875 5.378906 7.230469 10.1875-.960938 5.660156-1.765625 8.679687-3.082031 13.957031-1.3125 5.28125-3.007813 10.734375-4.828125 15.960938-1.816406 5.226562-3.855469 10.355468-6.082032 15.386718-2.222656 5.03125-4.6875 9.992188-7.273437 14.734375-2.585937 4.738281-5.445313 9.550781-8.394531 14.035157-2.949219 4.484374-6.179688 8.996093-9.453125 13.242187-1.667969 2.171875-4.253907 3.445313-6.992188 3.449219zm0 0"/><path d="m144.773438 274.652344c-3.304688 0-6.332032-1.847656-7.84375-4.785156-1.511719-2.9375-1.257813-6.472657.65625-9.160157 1.679687-2.355469 3.265624-4.769531 4.769531-7.242187 1.5-2.46875 2.910156-5 4.226562-7.589844 1.324219-2.605469 2.546875-5.253906 3.664063-7.945312 1.117187-2.6875 2.132812-5.4375 3.046875-8.246094.878906-2.761719 1.761719-5.605469 2.425781-8.480469.660156-2.878906 1.296875-5.835937 1.765625-8.828125s.882813-5.949219 1.078125-8.988281c.191406-3.035157.335938-6.074219.335938-9.179688 0-4.875 3.949218-8.828125 8.824218-8.828125s8.828125 3.953125 8.828125 8.828125c0 3.574219-.148437 7.113281-.421875 10.59375-.273437 3.476563-.707031 6.964844-1.246094 10.390625-.539062 3.421875-1.246093 6.832032-2.054687 10.160156-.8125 3.328126-1.765625 6.59375-2.800781 9.824219-1.03125 3.230469-2.242188 6.398438-3.53125 9.515625-1.289063 3.117188-2.699219 6.179688-4.226563 9.164063-1.527343 2.984375-3.132812 5.886719-4.855469 8.738281-1.722656 2.851562-3.53125 5.625-5.492187 8.324219-1.640625 2.324219-4.304687 3.714843-7.148437 3.734375zm0 0"/><path d="m175.015625 167.847656c-1.179687 0-2.347656-.242187-3.433594-.707031-4.488281-1.894531-6.59375-7.074219-4.695312-11.5625 2.324219-5.503906 5.203125-10.753906 8.597656-15.667969 10.539063-15.601562 25.375-27.816406 42.707031-35.171875 5.878906-2.484375 11.988282-4.378906 18.238282-5.65625 12.910156-2.621093 26.21875-2.621093 39.132812 0 12.429688 2.53125 24.238281 7.496094 34.734375 14.617188 5.148437 3.484375 9.957031 7.445312 14.355469 11.835937 4.402344 4.402344 8.375 9.214844 11.855468 14.375l1.175782 1.710938c2.4375 3.34375 4.449218 6.980468 5.992187 10.824218 1.253907 2.90625.851563 6.265626-1.050781 8.800782-1.90625 2.53125-5.019531 3.847656-8.164062 3.449218-3.144532-.394531-5.832032-2.449218-7.046876-5.375-1.089843-2.757812-2.542968-5.363281-4.316406-7.742187l-1.21875-1.765625c-8.632812-12.78125-20.785156-22.792969-34.980468-28.820312-4.804688-2.027344-9.796876-3.574219-14.902344-4.617188-10.570313-2.144531-21.464844-2.144531-32.035156 0-5.109376 1.046875-10.097657 2.59375-14.902344 4.625-14.191406 6.019531-26.335938 16.023438-34.964844 28.796875-2.753906 3.964844-5.089844 8.207031-6.964844 12.65625-1.378906 3.261719-4.570312 5.386719-8.113281 5.394531zm0 0"/><path d="m321.386719 318.09375c-2.953125 0-5.710938-1.476562-7.347657-3.933594-1.636718-2.457031-1.9375-5.570312-.800781-8.292968 1.765625-4.300782 3.46875-8.660157 5.066407-13.054688 1.597656-4.398438 3.054687-8.828125 4.414062-13.339844 1.359375-4.511718 2.648438-9.023437 3.796875-13.613281s2.214844-9.207031 3.160156-13.867187c.945313-4.660157 1.765625-9.382813 2.480469-14.125.714844-4.738282 1.324219-9.523438 1.765625-14.34375.441406-4.820313.882813-9.710938 1.09375-14.566407s.433594-9.796875.433594-14.75c0-4.875 3.953125-8.828125 8.828125-8.828125s8.824218 3.953125 8.824218 8.828125c0 5.242188-.128906 10.453125-.386718 15.632813-.257813 5.179687-.648438 10.324218-1.164063 15.441406-.5 5.101562-1.140625 10.175781-1.917969 15.226562-.75 5.015626-1.621093 10.019532-2.648437 15.007813-1.023437 4.988281-2.117187 9.851563-3.34375 14.722656-1.226563 4.875-2.585937 9.710938-4.042969 14.441407-1.457031 4.734374-3.035156 9.492187-4.714844 14.125-1.675781 4.632812-3.46875 9.296874-5.375 13.851562-1.367187 3.28125-4.566406 5.425781-8.121093 5.4375zm0 0"/><path d="m132.414062 203.035156c-4.875 0-8.828124-3.953125-8.828124-8.828125-.015626-8.957031.871093-17.894531 2.648437-26.675781 5.132813-24.933594 17.347656-47.855469 35.1875-66.015625 3.425781-3.394531 8.949219-3.410156 12.394531-.03125 3.445313 3.378906 3.539063 8.898437.210938 12.390625-21.058594 21.429688-32.835938 50.289062-32.785156 80.332031 0 2.339844-.929688 4.585938-2.585938 6.242188s-3.902344 2.585937-6.242188 2.585937zm0 0"/><path d="m192.441406 97.042969c-3.96875.003906-7.453125-2.636719-8.519531-6.460938-1.0625-3.824219.554687-7.886719 3.957031-9.933593 5.328125-3.199219 10.878906-6.023438 16.601563-8.449219 8.015625-3.390625 16.351562-5.976563 24.878906-7.714844 17.597656-3.574219 35.734375-3.574219 53.335937 0 3.847657.789063 7.628907 1.738281 11.34375 2.84375 4.667969 1.402344 7.320313 6.324219 5.917969 10.996094-1.402343 4.667969-6.324219 7.320312-10.996093 5.917969-3.210938-.960938-6.46875-1.765626-9.796876-2.453126-15.269531-3.101562-31.003906-3.101562-46.273437 0-7.378906 1.511719-14.59375 3.75-21.53125 6.679688-4.957031 2.105469-9.757813 4.546875-14.371094 7.320312-1.375.820313-2.945312 1.253907-4.546875 1.253907zm0 0"/><path d="m374.289062 262.390625c-.523437 0-1.046874-.046875-1.5625-.140625-2.304687-.410156-4.355468-1.722656-5.695312-3.644531s-1.859375-4.296875-1.445312-6.605469c.421874-2.351562.824218-4.707031 1.199218-7.0625.363282-2.335938.707032-4.722656 1.042969-7.113281s.609375-4.730469.882813-7.132813c.273437-2.402344.519531-4.792968.742187-7.210937.21875-2.421875.414063-4.820313.574219-7.25.15625-2.425781.308594-4.84375.421875-7.28125s.195312-4.898438.257812-7.355469c.058594-2.453125.050781-4.925781.050781-7.386719-.027343-37.578125-18.421874-72.769531-49.257812-94.242187-3.847656-2.839844-4.738281-8.226563-2.007812-12.148438 2.730468-3.925781 8.09375-4.960937 12.089843-2.339844 6.453125 4.488282 12.492188 9.542969 18.042969 15.105469 12.09375 12.058594 21.730469 26.355469 28.371094 42.089844 3.394531 8.007813 5.980468 16.335937 7.726562 24.859375 1.789063 8.777344 2.691406 17.714844 2.691406 26.675781 0 2.605469-.03125 5.203125-.089843 7.785157-.058594 2.597656-.148438 5.171874-.273438 7.75-.121093 2.578124-.265625 5.121093-.441406 7.679687-.175781 2.5625-.386719 5.09375-.609375 7.628906-.21875 2.535157-.5 5.066407-.777344 7.589844-.273437 2.527344-.597656 5.035156-.933594 7.539063-.335937 2.507812-.714843 5.015624-1.105468 7.496093-.386719 2.480469-.808594 4.980469-1.25 7.441407-.75 4.191406-4.386719 7.25-8.644532 7.273437zm0 0"/></g></svg>