<svg height="512pt" viewBox="-4 0 512 512" width="512pt" xmlns="http://www.w3.org/2000/svg"><path d="m425.21875 494.644531c-19.167969 0-34.710938-15.542969-34.710938-34.710937v-43.390625c0-4.792969 3.886719-8.679688 8.679688-8.679688s8.675781 3.886719 8.675781 8.679688v43.390625c0 9.585937 7.773438 17.355468 17.355469 17.355468 4.792969 0 8.679688 3.882813 8.679688 8.675782 0 4.792968-3.886719 8.679687-8.679688 8.679687zm0 0" fill="#7f8c8d"/><path d="m503.320312 17.355469v17.355469h-503.320312v-17.355469c.0273438-9.574219 7.78125-17.3281252 17.355469-17.355469h468.609375c9.574218.0273438 17.328125 7.78125 17.355468 17.355469zm0 0" fill="#95a5a5"/><path d="m0 34.710938h503.320312v329.417968h-503.320312zm0 0" fill="#35495e"/><path d="m503.320312 200.199219v163.929687h-503.320312v-47.296875c67.339844-65.691406 233.265625-185.1875 503.320312-116.632812zm0 0" fill="#2c3e50"/><path d="m0 364.128906h503.320312v35.058594c0 9.585938-7.769531 17.355469-17.355468 17.355469h-468.609375c-9.585938 0-17.355469-7.769531-17.355469-17.355469zm0 0" fill="#95a5a5"/><path d="m364.472656 503.320312h-225.625v-17.078124c0-9.640626 7.816406-17.457032 17.460938-17.457032h190.808594c9.585937 0 17.355468 7.769532 17.355468 17.355469zm0 0" fill="#95a5a5"/><path d="m295.050781 416.542969h-95.457031v7.003906c0 12.40625-3.671875 24.539063-10.554688 34.867187l-6.800781 10.195313h138.847657l-7.628907-7.628906c-11.785156-11.785157-18.40625-27.769531-18.40625-44.4375zm0 0" fill="#7f8c8d"/><path d="m485.964844 512h-60.746094c-4.792969 0-8.675781-3.886719-8.675781-8.679688v-4.335937c0-21.570313 17.484375-39.050781 39.050781-39.050781s39.050781 17.480468 39.050781 39.050781v4.335937c0 4.792969-3.886719 8.679688-8.679687 8.679688zm0 0" fill="#bdc3c7"/><g fill="#ff5364"><path d="m165.429688 296.925781c-3.332032-.003906-6.367188-1.914062-7.8125-4.914062-1.441407-3.003907-1.042969-6.566407 1.035156-9.171875 2.515625-3.15625 4.917968-6.410156 7.167968-9.769532 1.832032-2.601562 3.523438-5.292968 5.074219-8.070312 2.34375-4.183594 7.632813-5.671875 11.816407-3.328125 4.179687 2.34375 5.671874 7.632813 3.328124 11.8125-1.703124 3.066406-3.566406 6.039063-5.570312 8.914063-2.761719 4.105468-5.433594 7.742187-8.238281 11.28125-1.652344 2.0625-4.160157 3.257812-6.800781 3.246093zm0 0"/><path d="m193.449219 243.035156c-.804688 0-1.605469-.109375-2.378907-.328125-2.214843-.628906-4.089843-2.113281-5.210937-4.125s-1.398437-4.386719-.765625-6.601562l.917969-3.308594c1.078125-4.046875 1.972656-8.132813 2.691406-12.253906.738281-4.15625 1.292969-8.390625 1.65625-12.589844s.554687-8.644531.554687-12.914063c0-4.109374.414063-8.207031 1.242188-12.234374 1.59375-7.761719 4.699219-15.132813 9.136719-21.695313 2.183593-3.222656 4.667969-6.230469 7.421875-8.980469 2.746094-2.757812 5.757812-5.242187 8.988281-7.414062 3.246094-2.191406 6.695313-4.066406 10.300781-5.59375 3.683594-1.5625 7.515625-2.753906 11.4375-3.550782 4.019532-.835937 8.113282-1.261718 12.21875-1.277343 4.792969 0 8.679688 3.886719 8.679688 8.679687 0 4.792969-3.886719 8.679688-8.679688 8.679688-2.9375-.011719-5.867187.28125-8.746094.867187-2.792968.566407-5.519531 1.414063-8.140624 2.523438-2.578126 1.09375-5.046876 2.433593-7.367188 4-2.304688 1.546875-4.453125 3.316406-6.414062 5.285156-3.960938 3.957031-7.121094 8.640625-9.300782 13.796875-1.117187 2.625-1.96875 5.355469-2.535156 8.152344-.59375 2.882812-.890625 5.820312-.886719 8.761718 0 4.773438-.207031 9.617188-.625 14.414063-.414062 4.800781-1.023437 9.441406-1.847656 14.085937-.78125 4.511719-1.796875 9.121094-3 13.667969-.3125 1.195313-.660156 2.429688-1.007813 3.652344-1.0625 3.726563-4.464843 6.296875-8.339843 6.300781zm0 0"/><path d="m296.507812 260.660156c-.679687 0-1.359374-.082031-2.019531-.242187-2.242187-.535157-4.175781-1.9375-5.382812-3.898438-1.207031-1.960937-1.582031-4.320312-1.050781-6.558593.746093-3.113282 1.441406-6.25 2.085937-9.417969 1.074219-5.351563 1.976563-10.757813 2.707031-16.21875.71875-5.457031 1.285156-10.984375 1.648438-16.546875.363281-5.5625.554687-11.195313.554687-16.863282.007813-2.9375-.28125-5.867187-.867187-8.746093-1.140625-5.542969-3.351563-10.808594-6.519532-15.5-1.554687-2.3125-3.335937-4.46875-5.308593-6.4375-.539063-.539063-1.078125-1.050781-1.625-1.546875-2.300781-2.074219-3.324219-5.222656-2.675781-8.253906.644531-3.03125 2.859374-5.492188 5.808593-6.449219s6.183594-.265625 8.488281 1.808593c.773438.695313 1.546876 1.425782 2.28125 2.171876 2.746094 2.742187 5.222657 5.738281 7.394532 8.953124 4.441406 6.5625 7.546875 13.933594 9.136718 21.695313.832032 4.050781 1.25 8.171875 1.242188 12.304687 0 5.980469-.199219 12.039063-.589844 18.007813s-.996094 11.84375-1.734375 17.6875c-.738281 5.839844-1.738281 11.636719-2.898437 17.355469-.679688 3.367187-1.425782 6.714844-2.214844 10.046875-.941406 3.910156-4.441406 6.660156-8.460938 6.648437zm0 0"/><path d="m269.597656 328.382812c-3.101562.007813-5.972656-1.644531-7.527344-4.332031-1.554687-2.683593-1.554687-5.996093-.003906-8.683593 2.621094-4.589844 5.097656-9.269532 7.4375-14.042969 2.335938-4.773438 4.523438-9.621094 6.558594-14.542969l1.347656-3.332031c1.144532-2.882813 3.738282-4.933594 6.808594-5.382813 3.066406-.449218 6.144531.773438 8.066406 3.207032 1.921875 2.433593 2.402344 5.707031 1.253906 8.589843l-1.4375 3.566407c-2.175781 5.257812-4.511718 10.433593-7.003906 15.53125-2.492187 5.097656-5.140625 10.097656-7.941406 14.996093-1.535156 2.730469-4.425781 4.421875-7.558594 4.425781zm0 0"/><path d="m221.636719 338.441406c-3.226563-.007812-6.183594-1.800781-7.679688-4.660156-1.492187-2.859375-1.277343-6.3125.5625-8.964844l7.460938-10.761718c3.023437-4.339844 5.910156-8.902344 8.574219-13.449219 2.664062-4.546875 5.296874-9.390625 7.601562-14.101563 2.308594-4.714844 4.566406-9.710937 6.578125-14.753906 2.015625-5.042969 3.835937-10.046875 5.484375-15.253906 1.652344-5.207032 3.089844-10.414063 4.339844-15.761719 1.25-5.34375 2.335937-10.792969 3.167968-16.210937.832032-5.414063 1.519532-11.125 1.945313-16.632813.425781-5.511719.667969-11.28125.667969-16.976563 0-.582031-.054688-1.164062-.175782-1.734374-.109374-.566407-.277343-1.117188-.503906-1.648438-.214844-.511719-.480468-1.003906-.789062-1.46875-.308594-.460938-.664063-.890625-1.058594-1.28125-.398438-.394531-.832031-.757812-1.292969-1.078125-.46875-.3125-.964843-.582031-1.484375-.804687-.523437-.222657-1.070312-.390626-1.628906-.503907-1.167969-.226562-2.367188-.226562-3.53125 0-.535156.109375-1.058594.273438-1.5625.484375-.519531.21875-1.015625.488282-1.484375.800782-.464844.320312-.898437.679687-1.300781 1.074218-.390625.382813-.738282.804688-1.042969 1.257813-.324219.476562-.601563.980469-.824219 1.511719-.21875.511718-.382812 1.042968-.496094 1.585937-.121093.59375-.183593 1.199219-.179687 1.804687 0 4.792969-3.886719 8.679688-8.679687 8.679688-4.792969 0-8.675782-3.886719-8.675782-8.679688-.003906-1.769531.175782-3.539062.535156-5.273437.679688-3.332031 2.015626-6.496094 3.933594-9.304687.925782-1.382813 1.992188-2.671876 3.175782-3.84375 1.171874-1.175782 2.457031-2.234376 3.835937-3.160157 1.386719-.945312 2.867187-1.75 4.414063-2.402343 1.578124-.664063 3.214843-1.171876 4.886718-1.519532 5.175782-1.066406 10.550782-.53125 15.414063 1.527344 4.640625 1.980469 8.613281 5.261719 11.4375 9.441406 1.90625 2.816406 3.234375 5.980469 3.902343 9.3125.355469 1.71875.535157 3.46875.53125 5.222656 0 6.144532-.234374 12.324219-.710937 18.355469s-1.164063 11.992188-2.09375 17.953125c-.925781 5.964844-2.0625 11.761719-3.46875 17.539063-1.40625 5.78125-2.933594 11.472656-4.695313 17.027343-1.761718 5.554688-3.777343 11.167969-5.917968 16.488282-2.144532 5.320312-4.582032 10.757812-7.117188 15.898437-2.535156 5.136719-5.257812 10.210938-8.199218 15.226563-2.941407 5.019531-6.007813 9.800781-9.269532 14.539062l-7.488281 10.777344c-1.617187 2.324219-4.265625 3.714844-7.097656 3.722656zm0 0"/><path d="m194.386719 316.355469c-3.3125-.003907-6.332031-1.890625-7.785157-4.863281-1.457031-2.976563-1.089843-6.519532.9375-9.132813 2.96875-3.835937 5.824219-7.8125 8.488282-11.917969 2.664062-4.101562 5.207031-8.261718 7.53125-12.597656 2.324218-4.339844 4.523437-8.679688 6.535156-13.226562 2.011719-4.546876 3.816406-9.136719 5.441406-13.789063 1.621094-4.652344 3.089844-9.546875 4.339844-14.320313 1.117188-4.042968 2.023438-8.144531 2.714844-12.285156.519531-3.058594 2.628906-5.609375 5.539062-6.6875 2.910156-1.082031 6.171875-.527344 8.5625 1.453125 2.386719 1.976563 3.539063 5.082031 3.019532 8.140625-.945313 5.5625-1.734376 8.53125-3.027344 13.71875-1.292969 5.191406-2.960938 10.554688-4.746094 15.691406-1.789062 5.136719-3.792969 10.179688-5.980469 15.125-2.1875 4.945313-4.609375 9.824219-7.152343 14.484376-2.542969 4.660156-5.351563 9.386718-8.25 13.796874-2.898438 4.410157-6.074219 8.84375-9.296876 13.015626-1.640624 2.136718-4.179687 3.390624-6.871093 3.394531zm0 0"/><path d="m142.320312 269.996094c-3.25 0-6.222656-1.816406-7.710937-4.703125s-1.238281-6.359375.644531-9.007813c1.648438-2.3125 3.210938-4.683594 4.6875-7.113281 1.476563-2.429687 2.859375-4.917969 4.15625-7.464844 1.300782-2.5625 2.503906-5.164062 3.601563-7.808593 1.097656-2.644532 2.097656-5.347657 2.992187-8.105469.871094-2.71875 1.738282-5.511719 2.386719-8.339844.652344-2.828125 1.277344-5.738281 1.738281-8.679687.457032-2.941407.867188-5.847657 1.058594-8.832032s.328125-5.972656.328125-9.027344c0-4.792968 3.886719-8.675781 8.679687-8.675781 4.792969 0 8.675782 3.882813 8.675782 8.675781 0 3.515626-.148438 6.996094-.414063 10.414063-.269531 3.417969-.695312 6.847656-1.226562 10.214844-.527344 3.367187-1.222657 6.714843-2.019531 9.988281-.800782 3.269531-1.738282 6.480469-2.753907 9.660156-1.011719 3.175782-2.203125 6.289063-3.46875 9.351563-1.269531 3.066406-2.65625 6.074219-4.15625 9.007812-1.503906 2.933594-3.082031 5.789063-4.773437 8.59375-1.691406 2.800781-3.472656 5.527344-5.398438 8.183594-1.613281 2.285156-4.230468 3.652344-7.027344 3.667969zm0 0"/><path d="m172.050781 165.003906c-1.160156 0-2.308593-.238281-3.378906-.695312-4.410156-1.863282-6.476563-6.953125-4.613281-11.367188 2.285156-5.410156 5.117187-10.570312 8.449218-15.40625 10.363282-15.335937 24.945313-27.34375 41.984376-34.570312 5.777343-2.441406 11.785156-4.304688 17.929687-5.5625 12.695313-2.578125 25.777344-2.578125 38.46875 0 12.222656 2.488281 23.828125 7.371094 34.148437 14.371094 5.0625 3.421874 9.785157 7.320312 14.109376 11.636718 4.328124 4.324219 8.234374 9.054688 11.65625 14.125l1.152343 1.683594c2.398438 3.289062 4.378907 6.863281 5.894531 10.640625 1.230469 2.859375.839844 6.164063-1.035156 8.652344-1.871094 2.488281-4.933594 3.785156-8.023437 3.394531-3.089844-.390625-5.734375-2.410156-6.925781-5.285156-1.074219-2.714844-2.5-5.273438-4.246094-7.613282l-1.195313-1.734374c-8.488281-12.566407-20.433593-22.40625-34.390625-28.332032-4.722656-1.992187-9.628906-3.511718-14.648437-4.539062-10.394531-2.109375-21.101563-2.109375-31.492188 0-5.023437 1.027344-9.929687 2.550781-14.648437 4.546875-13.953125 5.917969-25.890625 15.75-34.375 28.308593-2.707032 3.898438-5.003906 8.070313-6.847656 12.441407-1.351563 3.207031-4.492188 5.296875-7.972657 5.304687zm0 0"/><path d="m315.9375 312.703125c-2.902344 0-5.613281-1.453125-7.222656-3.867187-1.609375-2.414063-1.902344-5.472657-.785156-8.152344 1.734374-4.226563 3.410156-8.515625 4.980468-12.835938 1.570313-4.320312 3.003906-8.675781 4.339844-13.113281 1.335938-4.433594 2.601562-8.867187 3.730469-13.378906 1.128906-4.515625 2.179687-9.050781 3.105469-13.632813.929687-4.582031 1.738281-9.226562 2.441406-13.886718.703125-4.660157 1.300781-9.363282 1.734375-14.101563.433593-4.738281.867187-9.546875 1.074219-14.316406.210937-4.773438.425781-9.632813.425781-14.503907 0-4.792968 3.886719-8.675781 8.679687-8.675781 4.792969 0 8.675782 3.882813 8.675782 8.675781 0 5.15625-.125 10.277344-.378907 15.371094-.257812 5.089844-.636719 10.148438-1.148437 15.175782-.492188 5.015624-1.117188 10.007812-1.882813 14.96875-.738281 4.929687-1.59375 9.851562-2.601562 14.753906-1.007813 4.902344-2.082031 9.683594-3.289063 14.476562-1.207031 4.789063-2.542968 9.542969-3.976562 14.195313-1.429688 4.652343-2.984375 9.328125-4.632813 13.886719-1.648437 4.554687-3.410156 9.136718-5.285156 13.613281-1.339844 3.226562-4.488281 5.335937-7.984375 5.347656zm0 0"/><path d="m130.167969 199.59375c-4.792969 0-8.675781-3.886719-8.675781-8.679688-.015626-8.804687.855468-17.589843 2.601562-26.222656 5.046875-24.511718 17.054688-47.042968 34.589844-64.894531 3.371094-3.339844 8.796875-3.355469 12.1875-.035156 3.386718 3.324219 3.480468 8.75.207031 12.183593-20.699219 21.066407-32.277344 49.433594-32.230469 78.96875 0 2.300782-.914062 4.511719-2.542968 6.136719-1.625 1.628907-3.832032 2.542969-6.136719 2.542969zm0 0"/><path d="m189.179688 95.398438c-3.902344.003906-7.328126-2.59375-8.375-6.351563-1.046876-3.757813.542968-7.753906 3.886718-9.765625 5.242188-3.144531 10.695313-5.917969 16.324219-8.304688 7.878906-3.335937 16.070313-5.875 24.457031-7.585937 17.300782-3.511719 35.128906-3.511719 52.429688 0 3.785156.777344 7.5 1.707031 11.152344 2.796875 4.589843 1.378906 7.195312 6.214844 5.816406 10.808594-1.375 4.589844-6.214844 7.195312-10.804688 5.816406-3.160156-.945312-6.363281-1.734375-9.632812-2.410156-15.011719-3.046875-30.480469-3.046875-45.492188 0-7.253906 1.488281-14.34375 3.6875-21.164062 6.566406-4.871094 2.070312-9.59375 4.472656-14.128906 7.195312-1.351563.808594-2.894532 1.234376-4.46875 1.234376zm0 0"/><path d="m367.945312 257.945312c-.515624 0-1.027343-.046874-1.535156-.140624-2.269531-.402344-4.28125-1.691407-5.597656-3.582032s-1.828125-4.226562-1.421875-6.492187c.414063-2.316407.808594-4.628907 1.179687-6.941407.355469-2.300781.695313-4.644531 1.023438-6.996093.328125-2.351563.597656-4.652344.867188-7.011719.269531-2.359375.511718-4.710938.730468-7.089844.214844-2.378906.40625-4.738281.5625-7.125.15625-2.386718.304688-4.765625.417969-7.160156s.191406-4.816406.25-7.226562c.0625-2.414063.050781-4.84375.050781-7.265626-.027344-36.9375-18.109375-71.535156-48.421875-92.644531-3.785156-2.789062-4.660156-8.085937-1.972656-11.941406 2.683594-3.859375 7.953125-4.878906 11.882813-2.300781 6.34375 4.414062 12.28125 9.382812 17.738281 14.847656 11.890625 11.855469 21.363281 25.910156 27.890625 41.378906 3.335937 7.871094 5.878906 16.058594 7.59375 24.4375 1.761718 8.628906 2.648437 17.414063 2.648437 26.222656 0 2.5625-.03125 5.117188-.089843 7.65625-.058594 2.550782-.144532 5.085938-.265626 7.617188-.125 2.535156-.261718 5.035156-.4375 7.550781-.171874 2.515625-.378906 5.007813-.597656 7.496094-.214844 2.492187-.492187 4.984375-.761718 7.464844-.269532 2.480469-.589844 4.945312-.921876 7.410156-.328124 2.464844-.703124 4.929687-1.085937 7.367187-.378906 2.441407-.796875 4.894532-1.230469 7.316407-.738281 4.121093-4.308594 7.128906-8.496094 7.152343zm0 0"/></g></svg>