<svg height="512pt" viewBox="0 0 512.00763 512" width="512pt" xmlns="http://www.w3.org/2000/svg"><g fill="#cc66a1"><path d="m469.335938 392.539062h-35.539063c-6.832031.011719-13.386719-2.703124-18.203125-7.546874l-46.15625-46.15625c-3.234375-3.347657-3.1875-8.667969.105469-11.960938 3.289062-3.292969 8.613281-3.339844 11.960937-.105469l46.15625 46.140625c1.621094 1.636719 3.832032 2.558594 6.136719 2.558594h35.539063c4.714843 0 8.535156 3.820312 8.535156 8.535156 0 4.710938-3.820313 8.535156-8.535156 8.535156zm0 0"/><path d="m76.804688 477.871094c-4.714844 0-8.535157-3.820313-8.535157-8.535156v-69.972657c-.015625-6.636719 2.621094-13.007812 7.332031-17.6875l54.902344-54.90625c3.347656-3.234375 8.671875-3.1875 11.960938.105469 3.292968 3.292969 3.339844 8.613281.105468 11.960938l-54.902343 54.90625c-1.496094 1.488281-2.335938 3.511718-2.332031 5.621093v69.972657c0 4.714843-3.820313 8.535156-8.53125 8.535156zm0 0"/><path d="m426.671875 477.871094c-4.714844 0-8.535156-3.820313-8.535156-8.535156v-78.503907c-.007813-2.109375-.84375-4.128906-2.328125-5.625l-46.371094-46.371093c-3.234375-3.347657-3.1875-8.667969.105469-11.960938 3.289062-3.292969 8.613281-3.339844 11.960937-.105469l46.371094 46.371094c4.675781 4.703125 7.308594 11.058594 7.328125 17.691406v78.503907c0 4.714843-3.820313 8.535156-8.53125 8.535156zm0 0"/><path d="m349.085938 179.628906c-3.449219-.015625-6.546876-2.105468-7.851563-5.296875-1.308594-3.191406-.566406-6.855469 1.878906-9.285156l66.492188-66.191406v-56.183594c0-4.714844 3.820312-8.535156 8.53125-8.535156 4.714843 0 8.535156 3.820312 8.535156 8.535156v59.730469c-.011719 2.277344-.933594 4.457031-2.5625 6.050781l-69.050781 68.695313c-1.585938 1.578124-3.734375 2.46875-5.972656 2.480468zm0 0"/><path d="m469.335938 230.402344c-2.261719 0-4.433594-.898438-6.03125-2.5l-85.332032-85.332032c-3.234375-3.347656-3.191406-8.671874.101563-11.960937 3.292969-3.292969 8.613281-3.339844 11.960937-.105469l85.335938 85.332032c2.4375 2.441406 3.167968 6.113281 1.847656 9.300781s-4.429688 5.265625-7.882812 5.265625zm0 0"/><path d="m136.539062 307.203125h-34.136718c-4.710938 0-8.53125-3.820313-8.53125-8.53125 0-4.714844 3.820312-8.535156 8.53125-8.535156h34.136718c4.710938 0 8.53125 3.820312 8.53125 8.535156 0 4.710937-3.820312 8.53125-8.53125 8.53125zm0 0"/><path d="m409.605469 307.203125h-34.136719c-4.710938 0-8.53125-3.820313-8.53125-8.53125 0-4.714844 3.820312-8.535156 8.53125-8.535156h34.136719c4.710937 0 8.53125 3.820312 8.53125 8.535156 0 4.710937-3.820313 8.53125-8.53125 8.53125zm0 0"/><path d="m435.203125 187.738281c-3.449219 0-6.5625-2.082031-7.882813-5.269531-1.320312-3.1875-.589843-6.859375 1.851563-9.296875l34.132813-34.132813c3.347656-3.234374 8.671874-3.1875 11.960937.101563 3.292969 3.292969 3.339844 8.613281.105469 11.964844l-34.132813 34.132812c-1.601562 1.597657-3.769531 2.5-6.035156 2.5zm0 0"/><path d="m162.921875 179.628906c-2.238281-.011718-4.386719-.902344-5.972656-2.480468l-69.050781-68.695313c-1.628907-1.59375-2.550782-3.773437-2.5625-6.050781v-59.730469c0-4.714844 3.820312-8.535156 8.535156-8.535156 4.710937 0 8.53125 3.820312 8.53125 8.535156v56.183594l66.5625 66.191406c2.449218 2.4375 3.1875 6.109375 1.871094 9.304687-1.320313 3.195313-4.433594 5.277344-7.886719 5.277344zm0 0"/><path d="m42.671875 230.402344c-3.453125 0-6.5625-2.078125-7.882813-5.265625-1.320312-3.1875-.589843-6.859375 1.847657-9.300781l85.335937-85.332032c3.347656-3.234375 8.667969-3.1875 11.960938.105469 3.289062 3.289063 3.335937 8.613281.101562 11.960937l-85.332031 85.332032c-1.597656 1.601562-3.769531 2.5-6.03125 2.5zm0 0"/><path d="m76.804688 187.738281c-2.265626 0-4.433594-.902343-6.035157-2.5l-34.132812-34.132812c-3.234375-3.351563-3.1875-8.671875.105469-11.964844 3.289062-3.289063 8.613281-3.335937 11.960937-.101563l34.132813 34.132813c2.441406 2.4375 3.171874 6.109375 1.851562 9.296875s-4.433594 5.269531-7.882812 5.269531zm0 0"/><path d="m69.730469 401.070312h-27.058594c-4.714844 0-8.535156-3.820312-8.535156-8.53125 0-4.714843 3.820312-8.535156 8.535156-8.535156h27.058594c2.261719-.007812 4.433593-.90625 6.039062-2.5l54.734375-54.734375c3.347656-3.234375 8.671875-3.1875 11.960938.105469 3.292968 3.292969 3.339844 8.613281.105468 11.960938l-54.734374 54.734374c-4.8125 4.785157-11.316407 7.480469-18.105469 7.5zm0 0"/></g><path d="m153.605469 247.921875h204.796875c9.425781 0 17.066406 7.640625 17.066406 17.066406v161.683594c0 9.425781-7.640625 17.066406-17.066406 17.066406h-204.796875c-9.425781 0-17.066407-7.640625-17.066407-17.066406v-161.683594c0-9.425781 7.640626-17.066406 17.066407-17.066406zm0 0" fill="#f0c419"/><path d="m375.46875 264.964844v161.707031c-.027344 9.414063-7.652344 17.039063-17.066406 17.066406h-102.398438v-195.839843h102.398438c9.414062.027343 17.039062 7.652343 17.066406 17.066406zm0 0" fill="#f3d55b"/><path d="m350.324219 247.921875v-61.617187c-.980469-51.394532-42.917969-92.542969-94.320313-92.542969s-93.339844 41.148437-94.320312 92.542969v61.617187h34.132812v-61.617187c1.09375-32.453126 27.71875-58.195313 60.1875-58.195313s59.09375 25.742187 60.183594 58.195313v61.617187zm0 0" fill="#bdc3c7"/><path d="m298.671875 324.269531c.050781-22.050781-16.707031-40.507812-38.660156-42.578125-21.953125-2.070312-41.867188 12.929688-45.941407 34.601563-2.609374 13.617187 1.628907 27.648437 11.339844 37.546875 3.160156 3.179687 4.949219 7.464844 4.992188 11.945312v35.140625c.007812 2.308594.929687 4.519531 2.566406 6.148438 1.636719 1.628906 3.855469 2.539062 6.164062 2.53125h33.742188c2.3125 0 4.535156-.921875 6.171875-2.558594s2.558594-3.859375 2.558594-6.171875v-35.082031c.011719-4.472657 1.785156-8.765625 4.929687-11.945313 7.769532-7.886718 12.125-18.507812 12.136719-29.578125zm0 0" fill="#464f5d"/><path d="m426.671875 512.003906c-10.359375 0-19.695313-6.238281-23.65625-15.804687-3.960937-9.570313-1.769531-20.582031 5.554687-27.902344 10.132813-9.667969 26.074219-9.667969 36.207032 0 9.996094 9.996094 9.996094 26.199219 0 36.199219-4.789063 4.820312-11.308594 7.523437-18.105469 7.507812zm0 0" fill="#3d324c"/><path d="m486.402344 409.605469c-10.355469 0-19.691406-6.238281-23.652344-15.808594-3.964844-9.566406-1.769531-20.582031 5.554688-27.902344 10.132812-9.667969 26.074218-9.667969 36.207031 0 9.992187 10 9.992187 26.203125 0 36.199219-4.789063 4.824219-11.3125 7.527344-18.109375 7.511719zm0 0" fill="#3d324c"/><path d="m417.566406 51.203125c-14.140625 0-25.601562-11.460937-25.601562-25.597656 0-14.140625 11.460937-25.60156275 25.601562-25.60156275 14.136719 0 25.597656 11.46093775 25.597656 25.60156275 0 6.789062-2.695312 13.300781-7.496093 18.101562s-11.3125 7.496094-18.101563 7.496094zm0 0" fill="#3d324c"/><path d="m486.402344 264.539062c-10.355469 0-19.691406-6.238281-23.652344-15.808593-3.964844-9.566407-1.769531-20.582031 5.554688-27.902344 10.132812-9.65625 26.066406-9.65625 36.199218 0 7.324219 7.320313 9.515625 18.335937 5.554688 27.902344-3.960938 9.570312-13.296875 15.808593-23.65625 15.808593zm0 0" fill="#3d324c"/><path d="m486.402344 153.605469c-10.355469 0-19.691406-6.238281-23.652344-15.808594-3.964844-9.566406-1.769531-20.582031 5.554688-27.902344 10.132812-9.65625 26.066406-9.65625 36.199218 0 7.324219 7.320313 9.515625 18.335938 5.554688 27.902344-3.960938 9.570313-13.296875 15.808594-23.65625 15.808594zm0 0" fill="#3d324c"/><path d="m85.335938 324.269531c-10.351563.003907-19.6875-6.234375-23.652344-15.800781-3.964844-9.5625-1.773438-20.574219 5.546875-27.898438 10.132812-9.667968 26.074219-9.667968 36.207031 0 7.316406 7.324219 9.507812 18.332032 5.546875 27.894532-3.960937 9.566406-13.292969 15.804687-23.648437 15.804687zm0 0" fill="#3d324c"/><path d="m76.804688 512.003906c-6.792969.019532-13.308594-2.679687-18.101563-7.492187-4.800781-4.800781-7.5-11.3125-7.5-18.105469 0-6.789062 2.699219-13.300781 7.5-18.101562 10.132813-9.667969 26.074219-9.667969 36.207031 0 7.320313 7.324218 9.511719 18.332031 5.546875 27.898437-3.964843 9.566406-13.300781 15.800781-23.652343 15.800781zm0 0" fill="#3d324c"/><path d="m25.605469 418.136719c-6.792969.019531-13.308594-2.679688-18.101563-7.492188-4.800781-4.800781-7.49999975-11.3125-7.49999975-18.101562 0-6.792969 2.69921875-13.304688 7.49999975-18.105469 10.132813-9.667969 26.074219-9.667969 36.207032 0 7.320312 7.324219 9.507812 18.335938 5.546874 27.898438-3.964843 9.566406-13.300781 15.800781-23.652343 15.800781zm0 0" fill="#3d324c"/><path d="m426.671875 324.269531c-10.359375.003907-19.695313-6.238281-23.65625-15.804687-3.960937-9.570313-1.769531-20.582032 5.554687-27.902344 10.132813-9.660156 26.066407-9.660156 36.199219 0 7.324219 7.320312 9.519531 18.332031 5.554688 27.902344-3.960938 9.566406-13.296875 15.808594-23.652344 15.804687zm0 0" fill="#3d324c"/><path d="m94.441406 51.203125c-14.136718 0-25.597656-11.460937-25.597656-25.597656 0-14.140625 11.460938-25.60156275 25.597656-25.60156275 14.140625 0 25.601563 11.46093775 25.601563 25.60156275 0 6.789062-2.699219 13.300781-7.5 18.101562s-11.3125 7.496094-18.101563 7.496094zm0 0" fill="#3d324c"/><path d="m25.605469 264.539062c-10.355469 0-19.691407-6.238281-23.65625-15.800781-3.960938-9.566406-1.773438-20.578125 5.546875-27.898437 10.132812-9.671875 26.074218-9.671875 36.207031 0 7.320313 7.320312 9.507813 18.328125 5.546875 27.894531-3.960938 9.5625-13.292969 15.800781-23.644531 15.804687zm0 0" fill="#3d324c"/><path d="m25.605469 153.605469c-10.355469 0-19.691407-6.238281-23.65625-15.800781-3.960938-9.566407-1.773438-20.578126 5.546875-27.898438 10.132812-9.671875 26.074218-9.671875 36.207031 0 7.320313 7.320312 9.507813 18.328125 5.546875 27.894531-3.960938 9.5625-13.292969 15.800781-23.644531 15.804688zm0 0" fill="#3d324c"/></svg>