<svg height="512pt" viewBox="0 -26 512 512" width="512pt" xmlns="http://www.w3.org/2000/svg"><path d="m512 17.65625v308.964844h-512v-308.964844c.0273438-9.738281 7.917969-17.6289062 17.65625-17.65625h476.6875c9.738281.0273438 17.628906 7.917969 17.65625 17.65625zm0 0" fill="#35495e"/><path d="m512 172.136719v154.484375h-512v-60.558594c70.886719-68.058594 231.546875-170.636719 512-93.925781zm0 0" fill="#2c3e50"/><path d="m344.277344 264.828125c-4.875 0-8.828125-3.953125-8.828125-8.828125v-26.484375c0-4.875 3.953125-8.824219 8.828125-8.824219h70.621094c4.875 0 8.824218 3.949219 8.824218 8.824219 0 4.878906-3.949218 8.828125-8.824218 8.828125h-61.796876v17.65625c0 4.875-3.949218 8.828125-8.824218 8.828125zm0 0" fill="#e4c05c"/><path d="m432.550781 256c-14.625 0-26.480469-11.855469-26.480469-26.484375 0-14.625 11.855469-26.480469 26.480469-26.480469 14.628907 0 26.484375 11.855469 26.484375 26.480469 0 14.628906-11.855468 26.484375-26.484375 26.484375zm0-35.308594c-4.875 0-8.828125 3.949219-8.828125 8.824219 0 4.878906 3.953125 8.828125 8.828125 8.828125s8.828125-3.949219 8.828125-8.828125c0-4.875-3.953125-8.824219-8.828125-8.824219zm0 0" fill="#e4c05c"/><path d="m379.585938 256c-4.875 0-8.828126-3.953125-8.828126-8.828125v-17.65625c0-4.875 3.953126-8.824219 8.828126-8.824219s8.828124 3.949219 8.828124 8.824219v17.65625c0 4.875-3.953124 8.828125-8.828124 8.828125zm0 0" fill="#e4c05c"/><path d="m512 326.621094v26.480468c0 9.753907-7.90625 17.65625-17.65625 17.65625h-476.6875c-9.75 0-17.65625-7.902343-17.65625-17.65625v-26.480468zm0 0" fill="#95a5a5"/><path d="m370.757812 459.035156h-229.515624v-17.480468c0-9.75 7.902343-17.652344 17.65625-17.652344h194.203124c9.753907 0 17.65625 7.902344 17.65625 17.652344zm0 0" fill="#95a5a5"/><path d="m317.792969 370.757812h-123.585938l-8.828125 52.964844h141.242188zm0 0" fill="#7f8c8d"/><path d="m512 61.792969h-62.058594l.089844 17.65625.085938 17.476562.089843 18.097657 17.65625-.089844v17.480468h-17.921875c-4.613281.007813-9.042968-1.824218-12.304687-5.085937s-5.09375-7.691406-5.085938-12.304687v-53.496094c-.007812-4.613282 1.824219-9.039063 5.085938-12.304688 3.261719-3.261718 7.691406-5.089844 12.304687-5.085937h62.058594zm0 0" fill="#804169"/><path d="m512 114.757812v17.65625h-44.136719v-17.480468l17.652344-.085938zm0 0" fill="#804169"/><path d="m388.414062 79.449219v17.566406h17.65625l26.480469-.089844v-17.476562zm0 0v17.566406h17.65625l26.480469-.089844v-17.476562zm0 0" fill="#cc66a1"/><path d="m326.621094 114.933594h-17.566406l.085937 17.480468h43.960937v-17.566406zm0 0" fill="#804169"/><path d="m406.070312 61.527344v53.496094c.003907 4.613281-1.824218 9.042968-5.085937 12.304687-3.265625 3.261719-7.691406 5.09375-12.304687 5.085937h-18.007813l-.089844-17.566406 17.832031-.089844v-53.230468l-97.367187.265625.085937 17.65625.089844 17.476562.085938 18.097657 17.746094-.089844.085937 17.480468h-18.09375c-4.617187.007813-9.042969-1.824218-12.304687-5.085937-3.265626-3.261719-5.09375-7.691406-5.085938-12.304687v-53.496094c-.007812-4.613282 1.820312-9.039063 5.085938-12.304688 3.261718-3.261718 7.6875-5.089844 12.304687-5.085937h97.632813c4.613281-.003907 9.039062 1.824219 12.304687 5.085937 3.261719 3.265625 5.089844 7.691406 5.085937 12.304688zm0 0" fill="#804169"/><path d="m485.515625 96.839844v53.492187c.007813 4.617188-1.820313 9.042969-5.085937 12.304688-3.261719 3.265625-7.6875 5.09375-12.304688 5.085937h-97.632812c-4.613282.007813-9.039063-1.820312-12.304688-5.085937-3.261719-3.261719-5.089844-7.6875-5.085938-12.304688v-53.492187c-.003906-4.617188 1.824219-9.042969 5.085938-12.304688 3.265625-3.265625 7.691406-5.09375 12.304688-5.085937h17.921874v17.566406l-17.921874.085937.089843 17.746094.089844 17.566406.085937 17.917969 97.105469-.261719v-53.230468l-17.746093.085937-.085938-17.476562h18.09375c4.617188-.007813 9.042969 1.820312 12.304688 5.085937 3.265624 3.261719 5.09375 7.6875 5.085937 12.304688zm0 0" fill="#cc66a1"/><path d="m309.230469 79.449219h-18.097657l.089844 17.476562 17.742188-.085937.089844 18.09375.085937 17.480468h17.480469v-35.574218c.007812-4.617188-1.824219-9.042969-5.085938-12.304688-3.261718-3.265625-7.691406-5.09375-12.304687-5.085937zm-88.453125 0 .089844 17.566406h17.476562l35.3125-.089844v-17.476562zm0 0" fill="#cc66a1"/><path d="m158.898438 114.933594h-17.570313l.089844 17.480468h43.960937v-17.566406zm0 0" fill="#804169"/><path d="m238.34375 61.527344v53.496094c.007812 4.613281-1.820312 9.042968-5.085938 12.304687-3.261718 3.261719-7.6875 5.09375-12.304687 5.085937h-17.917969v-17.566406l17.917969-.089844-.085937-17.742187-.089844-17.566406-.085938-17.921875-97.105468.265625v53.230469l17.742187-.089844.089844 17.480468h-18.097657c-4.613281.007813-9.039062-1.824218-12.304687-5.085937-3.261719-3.261719-5.089844-7.691406-5.085937-12.304687v-53.496094c-.003907-4.613282 1.824218-9.039063 5.085937-12.304688 3.265625-3.261718 7.691406-5.089844 12.304687-5.085937h97.632813c4.617187-.003907 9.042969 1.824219 12.304687 5.085937 3.265626 3.265625 5.09375 7.691406 5.085938 12.304688zm0 0" fill="#804169"/><g fill="#cc66a1"><path d="m326.621094 132.414062v17.917969c.007812 4.617188-1.824219 9.042969-5.085938 12.304688-3.261718 3.265625-7.691406 5.09375-12.304687 5.085937h-78.125c3.398437-9.644531 12.070312-16.457031 22.246093-17.476562.195313-.089844.421876-.089844.617188 0l3.972656-.089844h33.367188l17.921875-.085938-.089844-17.65625zm0 0"/><path d="m253.351562 150.246094c-10.175781 1.019531-18.847656 7.832031-22.246093 17.476562h-28.335938c-4.613281.007813-9.042969-1.820312-12.304687-5.085937-3.261719-3.261719-5.09375-7.6875-5.085938-12.304688v-53.492187c-.007812-4.617188 1.824219-9.042969 5.085938-12.304688 3.261718-3.265625 7.691406-5.09375 12.304687-5.085937h18.007813l.089844 17.566406-17.832032.085937v53.230469h17.476563zm0 0"/><path d="m141.507812 79.449219h-17.921874v17.476562l17.65625-.085937.085937 18.09375.089844 17.480468h17.480469v-35.574218c.003906-4.617188-1.824219-9.042969-5.085938-12.304688-3.265625-3.265625-7.691406-5.09375-12.304688-5.085937zm-79.625 0 .085938 17.566406h17.480469l26.480469-.089844v-17.476562zm0 0"/><path d="m158.898438 132.414062v17.917969c.003906 4.617188-1.824219 9.042969-5.085938 12.304688-3.265625 3.265625-7.691406 5.09375-12.304688 5.085937h-97.632812c-4.617188.007813-9.042969-1.820312-12.304688-5.085937-3.265624-3.261719-5.09375-7.6875-5.085937-12.304688v-53.492187c-.007813-4.617188 1.820313-9.042969 5.085937-12.304688 3.261719-3.265625 7.6875-5.09375 12.304688-5.085937h18.007812l.085938 17.566406-17.832031.085937v53.230469l97.371093-.261719-.089843-17.65625zm0 0"/></g><path d="m0 114.757812h26.484375v17.65625h-26.484375zm0 0" fill="#804169"/><path d="m79.449219 61.527344v53.496094c.007812 4.613281-1.824219 9.042968-5.085938 12.304687s-7.691406 5.09375-12.304687 5.085937h-17.921875v-17.65625h17.921875l-.089844-17.742187-.085938-17.566406-.089843-17.921875-61.792969.265625v-17.65625h62.058594c4.613281-.003907 9.042968 1.824219 12.304687 5.085937 3.261719 3.265625 5.09375 7.691406 5.085938 12.304688zm0 0" fill="#804169"/><path d="m291.308594 150.15625h-33.367188c-.644531-.074219-1.292968-.105469-1.941406-.085938-.683594-.035156-1.363281.023438-2.03125.175782-.195312-.089844-.421875-.089844-.617188 0-10.175781 1.019531-18.847656 7.832031-22.246093 17.476562-1.066407 2.820313-1.605469 5.8125-1.589844 8.828125v26.484375h-17.652344v-26.484375c-.023437-2.964843.273438-5.925781.882813-8.828125 3.496094-17.011718 16.648437-30.394531 33.601562-34.183594 16.953125-3.792968 34.550782 2.714844 44.960938 16.617188zm0 0" fill="#bdc3c7"/><path d="m300.136719 176.550781v26.484375h-17.652344v-26.484375c.015625-3.015625-.523437-6.007812-1.589844-8.828125h18.359375c.609375 2.902344.90625 5.863282.882813 8.828125zm0 0" fill="#bdc3c7"/><path d="m220.691406 185.378906h70.617188c9.753906 0 17.65625 7.90625 17.65625 17.65625v61.792969c0 9.75-7.902344 17.65625-17.65625 17.65625h-70.617188c-9.753906 0-17.65625-7.90625-17.65625-17.65625v-61.792969c0-9.75 7.902344-17.65625 17.65625-17.65625zm0 0" fill="#e4c05c"/><path d="m256 256c-4.875 0-8.828125-3.953125-8.828125-8.828125v-26.480469c0-4.878906 3.953125-8.828125 8.828125-8.828125s8.828125 3.949219 8.828125 8.828125v26.480469c0 4.875-3.953125 8.828125-8.828125 8.828125zm0 0" fill="#464f5d"/></svg>