<svg height="504pt" viewBox="-52 0 504 504.22094" width="504pt" xmlns="http://www.w3.org/2000/svg"><path d="m.109375 221.800781v-178.410156c126.773437-57.855469 272.414063-57.855469 399.1875 0v178.410156c.074219 83.925781-38.964844 163.09375-105.59375 214.128907l-85.730469 65.492187c-4.878906 3.730469-11.65625 3.730469-16.539062 0l-85.730469-65.492187c-66.625-51.035157-105.6640625-130.203126-105.59375-214.128907zm0 0" fill="#2c3e50"/><path d="m126.6875 408.082031c-57.964844-44.394531-91.933594-113.269531-91.863281-186.28125v-152.378906c52.09375-22.417969 108.164062-34.140625 164.878906-34.46875 56.714844.328125 112.785156 12.050781 164.882813 34.46875v152.378906c.0625 73.007813-33.898438 141.875-91.855469 186.273438l-64.757813 49.460937c-4.878906 3.734375-11.65625 3.734375-16.539062 0zm0 0" fill="#285680"/><path d="m399.296875 43.390625v178.417969c.097656 83.925781-38.957031 163.089844-105.609375 214.085937l-85.738281 65.519531c-2.355469 1.832032-5.261719 2.8125-8.246094 2.777344v-504.191406c68.863281.09375 136.910156 14.886719 199.59375 43.390625zm0 0" fill="#35495e"/><path d="m364.585938 69.421875v152.386719c.0625 73.007812-33.917969 141.867187-91.902344 186.230468l-64.734375 49.464844c-2.347657 1.859375-5.253907 2.867188-8.246094 2.863282v-425.394532c56.714844.3125 112.789063 12.027344 164.882813 34.449219zm0 0" fill="#4482c3"/><path d="m146.890625 170.289062c-28.507813 17.101563-51.324219 46.332032-51.324219 79.835938.996094 56.273438 46.378906 101.652344 102.652344 102.644531 55.289062 0 96.941406-47.367187 96.941406-102.644531 0-16.039062-3.742187-31.855469-10.933594-46.191406-.945312-1.933594-2.957031-3.105469-5.101562-2.972656-2.144531.128906-4 1.539062-4.703125 3.570312-6.328125 19.121094-16.765625 36.628906-30.582031 51.285156-22.8125 22.808594-39.917969 17.105469-45.621094 11.402344-5.699219-5.699219-11.410156-22.8125 11.402344-45.617188 29.707031-29.714843 33.84375-79.890624-14.273438-123.871093-1.460937-1.324219-3.539062-1.726563-5.386718-1.046875-1.851563.683594-3.171876 2.335937-3.421876 4.292968-1.820312 14.152344-3.480468 47.609376-39.648437 69.3125zm0 0" fill="#f0c419"/><path d="m198.21875 335.410156c-46.609375-1.167968-84.121094-38.671875-85.292969-85.285156 0-28.921875 22.152344-52.519531 42.894531-64.964844 21.605469-12.460937 37.320313-33.0625 43.632813-57.195312 9.011719 11.496094 14.242187 25.503906 14.96875 40.09375.234375 15.523437-5.941406 30.453125-17.070313 41.28125-32.265624 32.253906-21.574218 60-11.402343 70.160156 7.074219 6.710938 16.503906 10.371094 26.25 10.1875 16.960937-.9375 32.8125-8.730469 43.910156-21.589844 8.222656-8.34375 15.324219-17.722656 21.125-27.898437.378906 3.292969.570313 6.609375.570313 9.925781 0 47.027344-35.699219 85.285156-79.585938 85.285156zm0 0" fill="#e57e25"/></svg>