<svg height="512pt" viewBox="0 0 512 512" width="512pt" xmlns="http://www.w3.org/2000/svg"><path d="m370.757812 256c0 63.378906-51.378906 114.757812-114.757812 114.757812s-114.757812-51.378906-114.757812-114.757812 51.378906-114.757812 114.757812-114.757812 114.757812 51.378906 114.757812 114.757812zm0 0" fill="#cc4b4c"/><path d="m476.691406 79.449219v44.136719c0 4.875-3.953125 8.828124-8.828125 8.828124h-97.105469c-4.875 0-8.828124-3.953124-8.828124-8.828124v-61.792969c0-4.875 3.953124-8.828125 8.828124-8.828125h26.484376zm0 0" fill="#285680"/><path d="m0 203.035156v-70.621094c0-4.875 3.953125-8.828124 8.828125-8.828124h97.101563c4.875 0 8.828124 3.953124 8.828124 8.828124v61.792969c0 4.875-3.953124 8.828125-8.828124 8.828125zm0 0" fill="#90bae1"/><path d="m35.308594 432.550781v-44.136719c0-4.875 3.953125-8.828124 8.828125-8.828124h97.105469c4.875 0 8.828124 3.953124 8.828124 8.828124v61.792969c0 4.875-3.953124 8.828125-8.828124 8.828125h-26.484376zm0 0" fill="#285680"/><path d="m512 317.792969v61.792969c0 4.875-3.953125 8.828124-8.828125 8.828124h-97.101563c-4.875 0-8.828124-3.953124-8.828124-8.828124v-61.792969c0-4.875 3.953124-8.828125 8.828124-8.828125h26.480469zm0 0" fill="#90bae1"/><path d="m225.984375 222.367188c-18.425781 9.875-30.445313 28.570312-31.777344 49.433593.582031 34.871094 28.6875 63.015625 63.558594 63.648438 16.398437-.460938 31.945313-7.425781 43.203125-19.359375 11.261719-11.933594 17.3125-27.855469 16.824219-44.253906 0-9.933594-2.320313-19.734376-6.769531-28.617188-.585938-1.199219-1.835938-1.925781-3.164063-1.839844-1.332031.082032-2.480469.957032-2.910156 2.21875-3.785157 12.738282-10.238281 24.523438-18.933594 34.570313-14.125 14.121093-24.71875 7.800781-28.25 4.269531s-7.0625-14.121094 7.0625-28.246094c18.394531-18.414062 20.949219-49.507812-8.828125-76.800781-.902344-.824219-2.191406-1.074219-3.339844-.652344-1.148437.421875-1.964844 1.449219-2.117187 2.664063-.296875 17.582031-9.558594 33.789062-24.558594 42.964844zm0 0" fill="#f0c419"/><path d="m326.621094 97.101562c-4.875 0-8.828125-3.949218-8.828125-8.824218v-26.484375c0-4.875 3.953125-8.828125 8.828125-8.828125s8.828125 3.953125 8.828125 8.828125v26.484375c0 4.875-3.953125 8.824218-8.828125 8.824218zm0 0" fill="#cc4b4c"/><path d="m335.449219 114.757812c0 4.875-3.953125 8.828126-8.828125 8.828126s-8.828125-3.953126-8.828125-8.828126 3.953125-8.828124 8.828125-8.828124 8.828125 3.953124 8.828125 8.828124zm0 0" fill="#cc4b4c"/><path d="m158.898438 0h97.101562c4.875 0 8.828125 3.953125 8.828125 8.828125v61.792969c0 4.875-3.953125 8.828125-8.828125 8.828125h-97.101562c-4.878907 0-8.828126-3.953125-8.828126-8.828125v-61.792969c0-4.875 3.949219-8.828125 8.828126-8.828125zm0 0" fill="#f0c419"/><g fill="#cc4b4c"><path d="m114.757812 44.136719c-4.875 0-8.828124-3.949219-8.828124-8.828125v-26.480469c0-4.875 3.953124-8.828125 8.828124-8.828125s8.828126 3.953125 8.828126 8.828125v26.480469c0 4.878906-3.953126 8.828125-8.828126 8.828125zm0 0"/><path d="m123.585938 61.792969c0 4.875-3.953126 8.828125-8.828126 8.828125s-8.828124-3.953125-8.828124-8.828125 3.953124-8.828125 8.828124-8.828125 8.828126 3.953125 8.828126 8.828125zm0 0"/><path d="m185.378906 459.035156c-4.875 0-8.828125-3.953125-8.828125-8.828125v-26.484375c0-4.875 3.953125-8.824218 8.828125-8.824218s8.828125 3.949218 8.828125 8.824218v26.484375c0 4.875-3.953125 8.828125-8.828125 8.828125zm0 0"/><path d="m194.207031 476.691406c0 4.875-3.953125 8.824219-8.828125 8.824219s-8.828125-3.949219-8.828125-8.824219c0-4.878906 3.953125-8.828125 8.828125-8.828125s8.828125 3.949219 8.828125 8.828125zm0 0"/></g><path d="m79.449219 185.378906v97.105469c0 4.875-3.953125 8.824219-8.828125 8.824219h-61.792969c-4.875 0-8.828125-3.949219-8.828125-8.824219v-97.105469c0-4.875 3.953125-8.828125 8.828125-8.828125h61.792969c4.875 0 8.828125 3.953125 8.828125 8.828125zm0 0" fill="#b0d3f0"/><path d="m406.070312 0h97.101563c4.875 0 8.828125 3.953125 8.828125 8.828125v61.792969c0 4.875-3.953125 8.828125-8.828125 8.828125h-97.101563c-4.875 0-8.828124-3.953125-8.828124-8.828125v-61.792969c0-4.875 3.953124-8.828125 8.828124-8.828125zm0 0" fill="#4482c3"/><path d="m353.101562 512h-97.101562c-4.875 0-8.828125-3.953125-8.828125-8.828125v-61.792969c0-4.875 3.953125-8.828125 8.828125-8.828125h97.101562c4.878907 0 8.828126 3.953125 8.828126 8.828125v61.792969c0 4.875-3.949219 8.828125-8.828126 8.828125zm0 0" fill="#f29c1f"/><path d="m397.242188 476.691406c-4.875 0-8.828126-3.953125-8.828126-8.828125v-26.484375c0-4.875 3.953126-8.828125 8.828126-8.828125s8.828124 3.953125 8.828124 8.828125v26.484375c0 4.875-3.953124 8.828125-8.828124 8.828125zm0 0" fill="#cc4b4c"/><path d="m406.070312 494.34375c0 4.875-3.953124 8.828125-8.828124 8.828125s-8.828126-3.953125-8.828126-8.828125 3.953126-8.828125 8.828126-8.828125 8.828124 3.953125 8.828124 8.828125zm0 0" fill="#cc4b4c"/><path d="m441.378906 220.691406h61.792969c4.875 0 8.828125 3.949219 8.828125 8.824219v97.105469c0 4.875-3.953125 8.828125-8.828125 8.828125h-61.792969c-4.875 0-8.828125-3.953125-8.828125-8.828125v-97.105469c0-4.875 3.953125-8.824219 8.828125-8.824219zm0 0" fill="#b0d3f0"/><path d="m8.828125 432.550781h97.101563c4.875 0 8.828124 3.953125 8.828124 8.828125v61.792969c0 4.875-3.953124 8.828125-8.828124 8.828125h-97.101563c-4.875 0-8.828125-3.953125-8.828125-8.828125v-61.792969c0-4.875 3.953125-8.828125 8.828125-8.828125zm0 0" fill="#4482c3"/></svg>