<svg height="512pt" viewBox="0 0 512 512" width="512pt" xmlns="http://www.w3.org/2000/svg"><g fill="#527f72"><path d="m341.332031 247.464844c-3.816406.007812-7.175781-2.523438-8.222656-6.195313-1.042969-3.671875.476563-7.59375 3.726563-9.597656l47.660156-29.433594-.496094-57.09375c-.019531-2.265625.859375-4.441406 2.445312-6.058593 1.585938-1.613282 3.746094-2.53125 6.011719-2.550782h.078125c4.679688-.003906 8.488282 3.773438 8.53125 8.453125l.53125 61.867188c.023438 2.980469-1.503906 5.761719-4.039062 7.332031l-51.738282 32.007812c-1.347656.832032-2.902343 1.273438-4.488281 1.269532zm0 0"/><path d="m170.667969 247.464844c-1.597657 0-3.160157-.449219-4.515625-1.296875l-51.199219-32c-2.519531-1.570313-4.039063-4.34375-4.011719-7.3125l.53125-61.867188c-.054687-2.28125.839844-4.488281 2.46875-6.089843 1.628906-1.601563 3.847656-2.457032 6.132813-2.363282 2.261719.019532 4.425781.9375 6.011719 2.550782 1.585937 1.617187 2.464843 3.792968 2.441406 6.058593l-.484375 57.09375 47.144531 29.476563c3.214844 2.023437 4.703125 5.925781 3.652344 9.574218-1.046875 3.648438-4.378906 6.164063-8.171875 6.175782zm0 0"/><path d="m409.601562 477.867188c-4.714843 0-8.535156-3.820313-8.535156-8.535157v-46.804687l-56.15625-40.105469c-3.835937-2.738281-4.726562-8.066406-1.988281-11.90625 2.738281-3.835937 8.066406-4.726563 11.902344-1.988281l59.734375 42.667968c2.242187 1.601563 3.570312 4.183594 3.574218 6.9375v51.199219c0 4.714844-3.820312 8.535157-8.53125 8.535157zm0 0"/><path d="m102.398438 477.867188c-4.710938 0-8.53125-3.820313-8.53125-8.535157v-51.199219c0-2.757812 1.332031-5.34375 3.574218-6.945312l59.734375-42.667969c3.835938-2.738281 9.164063-1.847656 11.902344 1.988281 2.738281 3.835938 1.847656 9.167969-1.988281 11.90625l-56.15625 40.113282v46.804687c0 4.714844-3.820313 8.535157-8.535156 8.535157zm0 0"/><path d="m409.601562 307.054688h-50.101562c-4.710938 0-8.53125-3.820313-8.53125-8.53125 0-4.714844 3.820312-8.535157 8.53125-8.535157h50.101562c4.710938 0 8.53125 3.820313 8.53125 8.535157 0 4.710937-3.820312 8.53125-8.53125 8.53125zm0 0"/><path d="m102.398438 308.675781c-4.710938 0-8.53125-3.820312-8.53125-8.53125 0-4.714843 3.820312-8.535156 8.53125-8.535156l50.101562-.179687c4.710938 0 8.53125 3.820312 8.53125 8.535156 0 4.710937-3.820312 8.53125-8.53125 8.53125zm0 0"/></g><path d="m358.398438 311.464844c0 69.546875-32.597657 128.085937-76.796876 144.640625l-68.269531-29.4375 42.667969-264.535157c56.574219 0 102.398438 66.902344 102.398438 149.332032zm0 0" fill="#4fba6f"/><path d="m256 162.132812 25.601562 281.601563-52.566406 11.773437c-43.519531-17.234374-75.433594-75.175781-75.433594-144.042968 0-82.429688 45.824219-149.332032 102.398438-149.332032zm0 0" fill="#4fba6f"/><path d="m191.308594 142.898438c0-31.871094 28.960937-57.710938 64.691406-57.710938s64.691406 25.839844 64.691406 57.710938l-21.5625 19.234374h-86.257812zm0 0" fill="#24ae5f"/><path d="m281.601562 452.265625v3.839844c-8.179687 3.097656-16.855468 4.691406-25.601562 4.695312-9.25.019531-18.410156-1.78125-26.964844-5.292969l1.363282-3.242187 25.601562-290.132813zm0 0" fill="#24ae5f"/><path d="m281.601562 93.867188c-3.261718 0-6.238281-1.855469-7.671874-4.78125-1.433594-2.929688-1.074219-6.417969.929687-8.992188l33.183594-42.667969c2.207031-2.84375 5.964843-4 9.386719-2.882812l26.550781 8.535156c4.195312 1.644531 6.386719 6.269531 5.003906 10.558594-1.382813 4.289062-5.859375 6.765625-10.226563 5.652343l-20.867187-6.707031-29.550781 37.992188c-1.617188 2.078125-4.105469 3.292969-6.738282 3.292969zm0 0" fill="#527f72"/><path d="m230.398438 93.867188c-2.589844 0-5.042969-1.175782-6.664063-3.199219l-30.410156-38.027344-19.960938 6.65625c-4.476562 1.492187-9.3125-.933594-10.804687-5.410156-1.488282-4.476563.933594-9.3125 5.410156-10.800781l25.601562-8.535157c3.398438-1.140625 7.148438-.035156 9.386719 2.765625l34.132813 42.667969c2.066406 2.5625 2.46875 6.085937 1.039062 9.054687-1.429687 2.964844-4.4375 4.84375-7.730468 4.828126zm0 0" fill="#527f72"/><path d="m494.933594 512h-477.867188c-9.425781 0-17.066406-7.640625-17.066406-17.066406v-477.867188c0-9.425781 7.640625-17.066406 17.066406-17.066406h477.867188c9.425781 0 17.066406 7.640625 17.066406 17.066406v477.867188c0 9.425781-7.640625 17.066406-17.066406 17.066406zm-477.867188-494.933594v477.867188h477.867188v-477.867188zm0 0" fill="#cc4b4c"/><path d="m503.464844 426.667969h-494.929688c-4.714844 0-8.535156-3.820313-8.535156-8.535157v-332.800781c0-4.710937 3.820312-8.53125 8.535156-8.53125h494.929688c4.714844 0 8.535156 3.820313 8.535156 8.53125v332.800781c0 4.714844-3.820312 8.535157-8.535156 8.535157zm-486.398438-17.066407h477.867188v-315.734374h-477.867188zm0 0" fill="#cc4b4c"/><path d="m503.464844 264.574219h-494.929688c-4.492187-.316407-7.972656-4.050781-7.972656-8.554688 0-4.5 3.480469-8.234375 7.972656-8.554687h494.929688c4.714844 0 8.535156 3.824218 8.535156 8.535156v.085938c-.023438 4.695312-3.835938 8.488281-8.535156 8.488281zm0 0" fill="#cc4b4c"/><path d="m503.464844 349.867188h-494.929688c-4.714844 0-8.535156-3.820313-8.535156-8.535157v-179.199219c0-4.710937 3.820312-8.53125 8.535156-8.53125h494.929688c4.714844 0 8.535156 3.820313 8.535156 8.53125v179.199219c0 4.714844-3.820312 8.535157-8.535156 8.535157zm-486.398438-17.066407h477.867188v-162.132812h-477.867188zm0 0" fill="#cc4b4c"/></svg>