<svg height="512pt" viewBox="0 0 512 512" width="512pt" xmlns="http://www.w3.org/2000/svg"><path d="m132.414062 26.484375h361.929688c9.75 0 17.65625 7.902344 17.65625 17.652344v70.621093c0 9.75-7.90625 17.65625-17.65625 17.65625h-361.929688zm0 0" fill="#b0d3f0"/><path d="m379.585938 203.035156h-361.929688c-9.75 0-17.65625 7.902344-17.65625 17.65625v70.617188c0 9.753906 7.90625 17.65625 17.65625 17.65625h361.929688zm0 0" fill="#b49aca"/><path d="m132.414062 379.585938h361.929688c9.75 0 17.65625 7.90625 17.65625 17.65625v70.621093c0 9.75-7.90625 17.652344-17.65625 17.652344h-361.929688zm0 0" fill="#fb7b76"/><path d="m158.898438 79.449219c0 43.878906-35.570313 79.449219-79.449219 79.449219-43.878907 0-79.449219-35.570313-79.449219-79.449219 0-43.878907 35.570312-79.449219 79.449219-79.449219 43.878906 0 79.449219 35.570312 79.449219 79.449219zm0 0" fill="#4482c3"/><path d="m347.3125 70.621094h-135.449219c-4.875 0-8.828125-3.953125-8.828125-8.828125s3.953125-8.828125 8.828125-8.828125h135.449219c4.875 0 8.828125 3.953125 8.828125 8.828125s-3.953125 8.828125-8.828125 8.828125zm0 0" fill="#35495e"/><path d="m476.691406 105.929688h-264.828125c-4.875 0-8.828125-3.949219-8.828125-8.828126 0-4.875 3.953125-8.824218 8.828125-8.824218h264.828125c4.875 0 8.824219 3.949218 8.824219 8.824218 0 4.878907-3.949219 8.828126-8.824219 8.828126zm0 0" fill="#35495e"/><path d="m512 256c0 43.878906-35.570312 79.449219-79.449219 79.449219-43.878906 0-79.449219-35.570313-79.449219-79.449219s35.570313-79.449219 79.449219-79.449219c43.878907 0 79.449219 35.570313 79.449219 79.449219zm0 0" fill="#955ba5"/><path d="m467.863281 220.691406v35.308594c0 17.65625 0 17.65625-8.828125 26.484375l-26.484375 17.652344-26.480469-17.652344c-6.785156-7.046875-10.03125-16.777344-8.828124-26.484375v-35.308594l6.523437 3.265625c6.660156 3.324219 14.703125 2.007813 19.957031-3.265625l8.828125-8.828125 8.828125 8.828125c5.257813 5.25 13.285156 6.554688 19.933594 3.238282zm0 0" fill="#bdc3c7"/><path d="m170.761719 247.171875h-135.453125c-4.875 0-8.824219-3.953125-8.824219-8.828125s3.949219-8.828125 8.824219-8.828125h135.453125c4.875 0 8.828125 3.953125 8.828125 8.828125s-3.953125 8.828125-8.828125 8.828125zm0 0" fill="#3d324c"/><path d="m300.136719 282.484375h-264.828125c-4.875 0-8.824219-3.953125-8.824219-8.828125s3.949219-8.828125 8.824219-8.828125h264.828125c4.875 0 8.828125 3.953125 8.828125 8.828125s-3.953125 8.828125-8.828125 8.828125zm0 0" fill="#3d324c"/><path d="m158.898438 432.550781c0 43.878907-35.570313 79.449219-79.449219 79.449219-43.878907 0-79.449219-35.570312-79.449219-79.449219 0-43.878906 35.570312-79.449219 79.449219-79.449219 43.878906 0 79.449219 35.570313 79.449219 79.449219zm0 0" fill="#cc4b4c"/><path d="m347.3125 423.722656h-135.449219c-4.875 0-8.828125-3.949218-8.828125-8.824218 0-4.878907 3.953125-8.828126 8.828125-8.828126h135.449219c4.875 0 8.828125 3.949219 8.828125 8.828126 0 4.875-3.953125 8.824218-8.828125 8.824218zm0 0" fill="#802f34"/><path d="m476.691406 459.035156h-264.828125c-4.875 0-8.828125-3.953125-8.828125-8.828125s3.953125-8.828125 8.828125-8.828125h264.828125c4.875 0 8.824219 3.953125 8.824219 8.828125s-3.949219 8.828125-8.824219 8.828125zm0 0" fill="#802f34"/><g fill="#bdc3c7"><path d="m114.757812 44.136719v35.3125c0 17.652343 0 17.652343-8.828124 26.480469l-26.480469 17.65625-26.484375-17.65625c-6.785156-7.042969-10.027344-16.773438-8.828125-26.480469v-35.3125l6.523437 3.265625c6.664063 3.324218 14.707032 2.007812 19.960938-3.265625l8.828125-8.828125 8.828125 8.828125c5.253906 5.253906 13.28125 6.558593 19.929687 3.242187zm0 0"/><path d="m114.757812 397.242188v35.308593c0 17.65625 0 17.65625-8.828124 26.484375l-26.480469 17.65625-26.484375-17.65625c-6.785156-7.046875-10.027344-16.777344-8.828125-26.484375v-35.308593l6.523437 3.265624c6.664063 3.324219 14.707032 2.007813 19.960938-3.265624l8.828125-8.828126 8.828125 8.828126c5.253906 5.25 13.28125 6.554687 19.929687 3.238281zm0 0"/></g></svg>