<svg height="512pt" viewBox="0 0 512 512" width="512pt" xmlns="http://www.w3.org/2000/svg"><path d="m44.136719 432.550781-44.136719 44.140625h326.621094l-44.136719-44.140625zm0 0" fill="#95a5a5"/><path d="m0 476.691406h326.621094v17.652344c0 9.75-7.90625 17.65625-17.65625 17.65625h-291.308594c-9.75 0-17.65625-7.90625-17.65625-17.65625zm0 0" fill="#7f8c8d"/><path d="m282.484375 264.828125v26.480469h-238.347656v-26.480469c0-4.875 3.953125-8.828125 8.828125-8.828125h220.691406c4.875 0 8.828125 3.953125 8.828125 8.828125zm0 0" fill="#bdc3c7"/><path d="m44.136719 291.308594h238.347656v141.15625h-238.347656zm0 0" fill="#35495e"/><path d="m459.035156 264.828125c-4.875 0-8.828125-3.953125-8.828125-8.828125v-8.828125c0-4.875 3.953125-8.828125 8.828125-8.828125s8.828125 3.953125 8.828125 8.828125v8.828125c0 4.875-3.953125 8.828125-8.828125 8.828125zm0 0" fill="#3d324c"/><path d="m459.035156 308.964844c-4.875 0-8.828125-3.953125-8.828125-8.828125v-8.828125c0-4.875 3.953125-8.824219 8.828125-8.824219s8.828125 3.949219 8.828125 8.824219v8.828125c0 4.875-3.953125 8.828125-8.828125 8.828125zm0 0" fill="#3d324c"/><path d="m414.898438 370.757812h-8.828126c-4.875 0-8.828124-3.953124-8.828124-8.828124s3.953124-8.828126 8.828124-8.828126h8.828126c4.875 0 8.824218 3.953126 8.824218 8.828126s-3.949218 8.828124-8.824218 8.828124zm0 0" fill="#3d324c"/><path d="m370.757812 370.757812h-8.828124c-4.875 0-8.828126-3.953124-8.828126-8.828124s3.953126-8.828126 8.828126-8.828126h8.828124c4.875 0 8.828126 3.953126 8.828126 8.828126s-3.953126 8.828124-8.828126 8.828124zm0 0" fill="#3d324c"/><path d="m326.621094 370.757812h-8.828125c-4.875 0-8.828125-3.953124-8.828125-8.828124s3.953125-8.828126 8.828125-8.828126h8.828125c4.875 0 8.828125 3.953126 8.828125 8.828126s-3.953125 8.828124-8.828125 8.828124zm0 0" fill="#3d324c"/><path d="m476.691406 406.070312c8.824219-8.828124 26.480469-26.484374 26.480469-52.96875v-35.238281c0-.070312 0-.070312 0-.070312-28.246094-11.769531-60.027344-11.769531-88.273437 0v35.308593c0 26.484376 17.652343 44.140626 26.480468 52.96875l17.65625 17.652344zm0 0" fill="#95a5a5"/><g fill="#3d324c"><path d="m158.898438 203.035156c-4.878907 0-8.828126-3.953125-8.828126-8.828125v-8.828125c0-4.875 3.949219-8.828125 8.828126-8.828125 4.875 0 8.824218 3.953125 8.824218 8.828125v8.828125c0 4.875-3.949218 8.828125-8.824218 8.828125zm0 0"/><path d="m158.898438 256c-4.878907 0-8.828126-3.953125-8.828126-8.828125v-17.65625c0-4.875 3.949219-8.824219 8.828126-8.824219 4.875 0 8.824218 3.949219 8.824218 8.824219v17.65625c0 4.875-3.949218 8.828125-8.824218 8.828125zm0 0"/><path d="m158.898438 158.898438c-4.878907 0-8.828126-3.953126-8.828126-8.828126v-8.828124c0-4.875 3.949219-8.828126 8.828126-8.828126 4.875 0 8.824218 3.953126 8.824218 8.828126v8.828124c0 4.875-3.949218 8.828126-8.824218 8.828126zm0 0"/><path d="m211.863281 88.277344h-8.828125c-4.875 0-8.828125-3.953125-8.828125-8.828125s3.953125-8.828125 8.828125-8.828125h8.828125c4.875 0 8.828125 3.953125 8.828125 8.828125s-3.953125 8.828125-8.828125 8.828125zm0 0"/><path d="m256 88.277344h-8.828125c-4.875 0-8.828125-3.953125-8.828125-8.828125s3.953125-8.828125 8.828125-8.828125h8.828125c4.875 0 8.828125 3.953125 8.828125 8.828125s-3.953125 8.828125-8.828125 8.828125zm0 0"/><path d="m300.136719 88.277344h-8.828125c-4.875 0-8.824219-3.953125-8.824219-8.828125s3.949219-8.828125 8.824219-8.828125h8.828125c4.875 0 8.828125 3.953125 8.828125 8.828125s-3.953125 8.828125-8.828125 8.828125zm0 0"/><path d="m344.277344 88.277344h-8.828125c-4.875 0-8.828125-3.953125-8.828125-8.828125s3.953125-8.828125 8.828125-8.828125h8.828125c4.875 0 8.824218 3.953125 8.824218 8.828125s-3.949218 8.828125-8.824218 8.828125zm0 0"/><path d="m406.070312 88.277344h-26.484374c-4.875 0-8.828126-3.953125-8.828126-8.828125s3.953126-8.828125 8.828126-8.828125h26.484374c4.875 0 8.828126 3.953125 8.828126 8.828125s-3.953126 8.828125-8.828126 8.828125zm0 0"/></g><path d="m247.171875 406.070312h-167.722656c-4.875 0-8.828125-3.953124-8.828125-8.828124s3.953125-8.828126 8.828125-8.828126h167.722656c4.875 0 8.828125 3.953126 8.828125 8.828126s-3.953125 8.828124-8.828125 8.828124zm0 0" fill="#cc66a1"/><path d="m176.550781 370.757812h-97.101562c-4.875 0-8.828125-3.953124-8.828125-8.828124s3.953125-8.828126 8.828125-8.828126h97.101562c4.875 0 8.828125 3.953126 8.828125 8.828126s-3.953125 8.828124-8.828125 8.828124zm0 0" fill="#cc66a1"/><path d="m176.550781 335.449219h-97.101562c-4.875 0-8.828125-3.953125-8.828125-8.828125s3.953125-8.828125 8.828125-8.828125h97.101562c4.875 0 8.828125 3.953125 8.828125 8.828125s-3.953125 8.828125-8.828125 8.828125zm0 0" fill="#cc66a1"/><path d="m238.34375 370.757812h-17.652344c-9.753906 0-17.65625-7.902343-17.65625-17.65625v-17.652343c0-9.75 7.902344-17.65625 17.65625-17.65625h17.652344c9.75 0 17.65625 7.90625 17.65625 17.65625v17.652343c0 9.753907-7.90625 17.65625-17.65625 17.65625zm0 0" fill="#b49aca"/><path d="m423.722656 0h70.621094c9.75 0 17.65625 7.90625 17.65625 17.65625v176.550781c0 9.75-7.90625 17.65625-17.65625 17.65625h-70.621094c-9.75 0-17.652344-7.90625-17.652344-17.65625v-176.550781c0-9.75 7.902344-17.65625 17.652344-17.65625zm0 0" fill="#bdc3c7"/><path d="m406.070312 35.308594h105.929688v141.242187h-105.929688zm0 0" fill="#35495e"/><path d="m476.691406 79.449219h-35.3125c-4.875 0-8.828125-3.953125-8.828125-8.828125s3.953125-8.828125 8.828125-8.828125h35.3125c4.875 0 8.824219 3.953125 8.824219 8.828125s-3.949219 8.828125-8.824219 8.828125zm0 0" fill="#f0c419"/><path d="m476.691406 114.757812h-35.3125c-4.875 0-8.828125-3.953124-8.828125-8.828124s3.953125-8.828126 8.828125-8.828126h35.3125c4.875 0 8.824219 3.953126 8.824219 8.828126s-3.949219 8.828124-8.824219 8.828124zm0 0" fill="#f0c419"/><path d="m476.691406 150.070312h-35.3125c-4.875 0-8.828125-3.953124-8.828125-8.828124s3.953125-8.828126 8.828125-8.828126h35.3125c4.875 0 8.824219 3.953126 8.824219 8.828126s-3.949219 8.828124-8.824219 8.828124zm0 0" fill="#f0c419"/><path d="m176.550781 123.585938c8.828125-8.828126 26.484375-26.484376 26.484375-52.964844v-35.238282-.074218c-28.25-11.769532-60.027344-11.769532-88.277344 0v35.3125c0 26.480468 17.65625 44.136718 26.484376 52.964844l17.65625 17.65625zm0 0" fill="#95a5a5"/><path d="m203.035156 35.308594v35.3125c0 26.480468-17.65625 44.136718-26.484375 52.964844l-17.652343 17.65625v-114.757813c15.148437.011719 30.144531 3.011719 44.136718 8.824219zm0 0" fill="#bdc3c7"/><path d="m503.171875 317.792969v35.308593c0 26.484376-17.65625 44.140626-26.480469 52.96875l-17.65625 17.652344v-114.757812c15.148438.015625 30.148438 3.015625 44.136719 8.828125zm0 0" fill="#bdc3c7"/></svg>