<svg height="508pt" viewBox="0 0 508 508.35115" width="508pt" xmlns="http://www.w3.org/2000/svg"><path d="m326.796875 114.757812-150.070313 150.070313-176.550781-150.070313 52.964844-44.136718v79.449218l-1.851563 2.558594 92.246094 68.414063c11.972656 9.003906 28.457032 9.003906 40.429688 0l92.335937-68.765625-2.46875-3.355469v-78.300781zm0 0" fill="#f0c419"/><path d="m326.796875 114.757812v79.449219l-123.585937 114.757813h-185.378907c-9.738281-.027344-17.628906-7.914063-17.65625-17.65625v-176.550782l51.113281 37.871094 92.246094 68.414063c11.972656 9.003906 28.457032 9.003906 40.429688 0l92.335937-68.765625zm0 0" fill="#f3d55b"/><path d="m432.726562 317.792969c.023438 48.957031-31.03125 92.53125-77.3125 108.492187-46.285156 15.957032-97.59375.78125-127.75-37.78125 24.363282-51.289062 81.742188-124.382812 204.179688-84.921875.609375 4.710938.902344 9.460938.882812 14.210938zm0 0" fill="#90bae1"/><path d="m431.84375 303.582031c-122.4375-39.460937-179.816406 33.632813-204.179688 84.921875-29.9375-38.164062-32.648437-91.027344-6.773437-132.054687 25.875-41.023438 74.75-61.351563 122.085937-50.773438 47.335938 10.574219 82.914063 49.769531 88.867188 97.90625zm0 0" fill="#b0d3f0"/><path d="m276.300781 152.277344-92.335937 68.765625c-11.972656 9.003906-28.457032 9.003906-40.429688 0l-92.246094-68.414063 1.851563-2.558594v-79.539062c0-4.660156 1.847656-9.128906 5.144531-12.421875 3.292969-3.296875 7.761719-5.144531 12.421875-5.144531h185.558594c4.65625 0 9.128906 1.847656 12.421875 5.144531 3.296875 3.292969 5.144531 7.761719 5.144531 12.421875v78.390625zm0 0" fill="#f5efca"/><path d="m247.347656 52.964844h-167.722656l64.085938-46.078125c11.980468-9.183594 28.628906-9.183594 40.609374 0zm0 0" fill="#f0c419"/><path d="m415.070312 388.414062 88.277344 88.277344c6.90625 7.476563 6.90625 19.003906 0 26.480469-7.476562 6.90625-19.003906 6.90625-26.484375 0l-88.273437-88.273437zm0 0" fill="#7f8c8d"/><path d="m415.070312 176.550781c-4.875 0-8.824218-3.953125-8.824218-8.828125v-44.136718c0-4.875 3.949218-8.828126 8.824218-8.828126 4.878907 0 8.828126 3.953126 8.828126 8.828126v44.136718c0 4.875-3.949219 8.828125-8.828126 8.828125zm0 0" fill="#cc4b4c"/><path d="m423.898438 194.207031c0 4.875-3.949219 8.828125-8.828126 8.828125-4.875 0-8.824218-3.953125-8.824218-8.828125s3.949218-8.828125 8.824218-8.828125c4.878907 0 8.828126 3.953125 8.828126 8.828125zm0 0" fill="#cc4b4c"/><path d="m317.96875 441.378906c-68.253906 0-123.585938-55.332031-123.585938-123.585937 0-68.253907 55.332032-123.585938 123.585938-123.585938s123.585938 55.332031 123.585938 123.585938c-.074219 68.226562-55.363282 123.511719-123.585938 123.585937zm0-229.515625c-58.503906 0-105.929688 47.425781-105.929688 105.929688 0 58.503906 47.425782 105.929687 105.929688 105.929687s105.929688-47.425781 105.929688-105.929687c-.0625-58.476563-47.453126-105.867188-105.929688-105.929688zm0 0" fill="#95a5a5"/><path d="m229.691406 105.929688h-132.414062c-4.875 0-8.824219-3.949219-8.824219-8.828126 0-4.875 3.949219-8.824218 8.824219-8.824218h132.414062c4.875 0 8.828125 3.949218 8.828125 8.824218 0 4.878907-3.953125 8.828126-8.828125 8.828126zm0 0" fill="#464f5d"/><path d="m229.691406 141.242188h-132.414062c-4.875 0-8.824219-3.953126-8.824219-8.828126s3.949219-8.828124 8.824219-8.828124h132.414062c4.875 0 8.828125 3.953124 8.828125 8.828124s-3.953125 8.828126-8.828125 8.828126zm0 0" fill="#464f5d"/><g fill="#802f34"><path d="m300.3125 282.484375c-8.824219-10.117187-8.824219-25.195313 0-35.3125 4.757812-4.796875 10.960938-7.898437 17.65625-8.828125 6.695312.929688 12.898438 4.03125 17.65625 8.828125 8.824219 10.117187 8.824219 25.195313 0 35.3125zm0 0"/><path d="m344.453125 308.964844c-3.570313 0-6.789063-2.152344-8.15625-5.449219s-.609375-7.09375 1.914063-9.617187l23.894531-23.898438v-14c0-4.875 3.953125-8.828125 8.828125-8.828125s8.828125 3.953125 8.828125 8.828125v17.65625c0 2.339844-.929688 4.585938-2.585938 6.238281l-26.484375 26.484375c-1.652344 1.65625-3.898437 2.585938-6.238281 2.585938zm0 0"/><path d="m291.484375 308.964844c-2.339844 0-4.585937-.929688-6.238281-2.585938l-26.484375-26.484375c-1.65625-1.652343-2.585938-3.898437-2.585938-6.238281v-17.65625c0-4.875 3.953125-8.828125 8.828125-8.828125s8.828125 3.953125 8.828125 8.828125v14l23.894531 23.898438c2.523438 2.523437 3.277344 6.320312 1.914063 9.617187-1.367187 3.296875-4.585937 5.449219-8.15625 5.449219zm0 0"/><path d="m370.933594 388.414062c-4.875 0-8.828125-3.953124-8.828125-8.828124v-14l-23.894531-23.898438c-3.347657-3.460938-3.296876-8.96875.105468-12.371094 3.40625-3.40625 8.914063-3.453125 12.375-.109375l26.484375 26.484375c1.65625 1.652344 2.585938 3.898438 2.585938 6.238282v17.65625c0 4.875-3.953125 8.828124-8.828125 8.828124zm0 0"/><path d="m265.003906 388.414062c-4.875 0-8.828125-3.953124-8.828125-8.828124v-17.65625c0-2.339844.929688-4.585938 2.585938-6.238282l26.484375-26.484375c3.460937-3.34375 8.96875-3.296875 12.375.109375 3.402344 3.402344 3.453125 8.910156.105468 12.371094l-23.894531 23.898438v14c0 4.875-3.953125 8.828124-8.828125 8.828124zm0 0"/><path d="m379.761719 326.621094h-26.484375c-4.875 0-8.824219-3.953125-8.824219-8.828125s3.949219-8.828125 8.824219-8.828125h26.484375c4.875 0 8.828125 3.953125 8.828125 8.828125s-3.953125 8.828125-8.828125 8.828125zm0 0"/><path d="m282.660156 326.621094h-26.484375c-4.875 0-8.828125-3.953125-8.828125-8.828125s3.953125-8.828125 8.828125-8.828125h26.484375c4.875 0 8.824219 3.953125 8.824219 8.828125s-3.949219 8.828125-8.824219 8.828125zm0 0"/></g><path d="m353.277344 317.792969c0 25.601562-15.800782 44.136719-35.308594 44.136719v-88.273438c19.507812 0 35.308594 18.535156 35.308594 44.136719zm0 0" fill="#e64c3c"/><path d="m317.96875 273.65625v88.273438c-19.507812 0-35.308594-18.535157-35.308594-44.136719 0-25.601563 15.800782-44.136719 35.308594-44.136719zm0 0" fill="#c03a2b"/></svg>