<svg height="512pt" viewBox="0 -76 512.00582 512" width="512pt" xmlns="http://www.w3.org/2000/svg"><path d="m499.808594 171.265625c2.335937 2.167969 3.660156 5.210937 3.660156 8.398437 0 3.183594-1.324219 6.226563-3.660156 8.394532-28.765625 27.1875-127.027344 111.070312-243.804688 111.070312-116.78125 0-215.039062-83.882812-243.808594-111.070312-2.332031-2.167969-3.660156-5.210938-3.660156-8.394532 0-3.1875 1.328125-6.230468 3.660156-8.398437 28.769532-27.1875 127.027344-111.070313 243.808594-111.070313 116.777344 0 215.039063 83.882813 243.804688 111.070313zm0 0" fill="#fb7b76"/><path d="m474.59375 170.667969c4.367188 5.199219 4.367188 12.789062 0 17.988281-25.804688 29.132812-113.894531 119.007812-218.589844 119.007812-104.695312 0-192.785156-89.875-218.589844-119.007812-4.367187-5.199219-4.367187-12.789062 0-17.988281 25.804688-29.132813 113.894532-119.003907 218.589844-119.003907 104.695313 0 192.785156 89.871094 218.589844 119.003907zm0 0" fill="#ecf0f1"/><path d="m384.003906 179.664062c0 70.691407-57.308594 128-128 128-70.695312 0-128-57.308593-128-128 0-70.695312 57.304688-128 128-128 70.691406 0 128 57.304688 128 128zm0 0" fill="#285680"/><path d="m366.9375 179.664062c0 61.265626-49.667969 110.929688-110.933594 110.929688-61.269531 0-110.933594-49.664062-110.933594-110.929688 0-61.269531 49.664063-110.933593 110.933594-110.933593 61.265625 0 110.933594 49.664062 110.933594 110.933593zm0 0" fill="#4482c3"/><g fill="#3d324c"><path d="m8.535156 128.460938c-3.492187.003906-6.632812-2.125-7.929687-5.371094-1.292969-3.246094-.476563-6.953125 2.058593-9.355469 1.851563-1.75 4.003907-3.738281 6.417969-5.90625 2.25-2.152344 5.492188-2.90625 8.460938-1.972656 2.96875.933593 5.195312 3.410156 5.804687 6.460937.613282 3.050782-.484375 6.195313-2.863281 8.203125-2.296875 2.0625-4.34375 3.949219-6.09375 5.605469-1.582031 1.496094-3.675781 2.332031-5.855469 2.335938zm0 0"/><path d="m40.671875 101.230469c-3.652344.007812-6.898437-2.3125-8.082031-5.769531-1.183594-3.453126-.035156-7.277344 2.851562-9.511719 4.277344-3.324219 8.851563-6.734375 13.722656-10.238281 3.824219-2.636719 9.054688-1.730469 11.769532 2.039062 2.710937 3.769531 1.910156 9.019531-1.804688 11.808594-4.691406 3.414062-9.113281 6.691406-13.25 9.890625-1.492187 1.152343-3.320312 1.78125-5.207031 1.78125zm430.609375-.074219c-1.882812 0-3.714844-.625-5.203125-1.777344-4.148437-3.191406-8.578125-6.507812-13.269531-9.886718-3.714844-2.792969-4.515625-8.039063-1.804688-11.808594 2.714844-3.773438 7.945313-4.679688 11.769532-2.042969 4.863281 3.5 9.4375 6.921875 13.722656 10.238281 2.894531 2.230469 4.046875 6.054688 2.867187 9.515625-1.179687 3.457031-4.429687 5.78125-8.082031 5.777344zm-389.179688-28.714844c-3.816406.007813-7.171874-2.519531-8.222656-6.1875-1.050781-3.667968.464844-7.589844 3.710938-9.601562 4.742187-2.945313 9.648437-5.871094 14.71875-8.777344 2.648437-1.542969 5.917968-1.550781 8.570312-.011719 2.652344 1.535157 4.277344 4.375 4.257813 7.441407-.019531 3.0625-1.683594 5.882812-4.355469 7.382812-4.878906 2.789062-9.609375 5.609375-14.183594 8.464844-1.347656.839844-2.90625 1.285156-4.496094 1.289062zm347.734376-.050781c-1.585938 0-3.140626-.441406-4.488282-1.28125-4.582031-2.84375-9.3125-5.664063-14.191406-8.464844-4.089844-2.34375-5.507812-7.558593-3.167969-11.648437 2.34375-4.089844 7.558594-5.507813 11.648438-3.164063 5.054687 2.886719 9.953125 5.816407 14.703125 8.78125 3.234375 2.011719 4.742187 5.921875 3.699218 9.585938-1.046874 3.664062-4.394531 6.1875-8.203124 6.191406zm-303.480469-24.140625c-3.964844-.027344-7.390625-2.785156-8.265625-6.65625-.871094-3.867188 1.035156-7.828125 4.605468-9.558594 5.121094-2.417968 10.355469-4.753906 15.703126-7.003906 2.824218-1.277344 6.121093-.921875 8.609374.933594 2.488282 1.851562 3.773438 4.910156 3.355469 7.984375-.414062 3.074219-2.464843 5.679687-5.351562 6.808593-5.121094 2.148438-10.128907 4.386719-15.019531 6.714844-1.140626.523438-2.382813.789063-3.636719.777344zm259.21875-.042969c-1.261719-.003906-2.503907-.28125-3.644531-.8125-4.898438-2.320312-9.917969-4.574219-15.019532-6.714843-4.34375-1.824219-6.386718-6.828126-4.5625-11.175782 1.828125-4.34375 6.832032-6.386718 11.175782-4.558594 5.335937 2.242188 10.570312 4.578126 15.703124 7.011719 3.566407 1.730469 5.476563 5.6875 4.605469 9.558594-.871093 3.867187-4.292969 6.625-8.257812 6.65625zm-212.300781-18.425781c-4.234376.03125-7.851563-3.050781-8.492188-7.238281-.644531-4.1875 1.882812-8.210938 5.929688-9.453125 5.460937-1.703125 10.996093-3.277344 16.605468-4.71875 4.570313-1.175782 9.226563 1.570312 10.402344 6.136718 1.179688 4.566407-1.566406 9.222657-6.132812 10.402344-5.324219 1.355469-10.570313 2.847656-15.738282 4.480469-.832031.257813-1.703125.386719-2.574218.390625zm165.375 0c-.867188.003906-1.730469-.128906-2.558594-.390625-5.191406-1.613281-10.4375-3.113281-15.753906-4.472656-4.566407-1.175781-7.3125-5.835938-6.136719-10.402344 1.179687-4.566406 5.835937-7.3125 10.402343-6.132813 5.597657 1.433594 11.132813 3.003907 16.597657 4.71875 4.035156 1.25 6.542969 5.265626 5.902343 9.441407-.640624 4.175781-4.238281 7.253906-8.460937 7.238281zm-116.242188-11.007812c-4.507812.019531-8.253906-3.476563-8.546875-7.976563s2.964844-8.453125 7.4375-9.019531c5.691406-.757813 11.445313-1.328125 17.265625-1.7070315 4.710938-.3242185 8.792969 3.2343755 9.117188 7.9492185.320312 4.710938-3.238282 8.792969-7.949219 9.117188-5.445313.363281-10.847657.910156-16.214844 1.636719-.371094.015624-.738281.003906-1.109375-.03125zm67.082031 0c-.378906 0-.757812-.023438-1.136719-.074219-5.359374-.71875-10.761718-1.265625-16.210937-1.640625-3.085937-.148438-5.847656-1.953125-7.222656-4.71875-1.378907-2.765625-1.152344-6.054688.585937-8.609375 1.738282-2.550781 4.71875-3.964844 7.796875-3.6953128 5.800781.4023438 11.558594.9726558 17.269531 1.7070318 4.476563.570312 7.734376 4.523437 7.441407 9.023437-.296875 4.503906-4.046875 7.996094-8.558594 7.976563zm0 0"/><path d="m503.46875 128.460938c-2.183594 0-4.285156-.835938-5.871094-2.335938-1.707031-1.65625-3.796875-3.542969-6.09375-5.605469-2.265625-2.042969-3.269531-5.136719-2.636718-8.117187.632812-2.984375 2.808593-5.402344 5.707031-6.34375 2.898437-.945313 6.082031-.269532 8.347656 1.769531 2.417969 2.167969 4.566406 4.15625 6.417969 5.90625 2.539062 2.402344 3.351562 6.109375 2.058594 9.355469-1.292969 3.246094-4.433594 5.375-7.929688 5.371094zm0 0"/><path d="m14.792969 253.6875c-2.109375 0-4.144531-.78125-5.710938-2.191406-2.414062-2.167969-4.566406-4.15625-6.417969-5.90625-3.421874-3.242188-3.566406-8.644532-.324218-12.066406 3.242187-3.421876 8.644531-3.566407 12.066406-.324219 1.75 1.65625 3.796875 3.542969 6.09375 5.609375 2.632812 2.359375 3.53125 6.101562 2.265625 9.402344-1.265625 3.300781-4.4375 5.480468-7.972656 5.476562zm0 0"/><path d="m272.746094 359.355469c-4.714844.160156-8.660156-3.53125-8.820313-8.246094-.15625-4.710937 3.535157-8.660156 8.246094-8.820313 5.429687-.375 10.832031-.921874 16.214844-1.636718 4.671875-.621094 8.964843 2.660156 9.585937 7.335937.625 4.671875-2.660156 8.964844-7.332031 9.585938-5.691406.761719-11.445313 1.332031-17.273437 1.707031zm-33.597656 0h-.585938c-5.808594-.390625-11.5625-.960938-17.265625-1.703125-4.671875-.621094-7.957031-4.910156-7.335937-9.585938.617187-4.671875 4.910156-7.957031 9.582031-7.335937 5.347656.714843 10.75 1.261719 16.210937 1.636719 4.714844.160156 8.40625 4.109374 8.246094 8.824218-.160156 4.710938-4.113281 8.402344-8.824219 8.242188zm83.3125-8.105469c-4.300782 0-7.929688-3.203125-8.46875-7.472656-.535157-4.265625 2.191406-8.265625 6.359374-9.328125 5.316407-1.359375 10.566407-2.859375 15.753907-4.472657 2.929687-.980468 6.164062-.296874 8.449219 1.78125 2.285156 2.078126 3.269531 5.234376 2.570312 8.242188-.699219 3.011719-2.972656 5.410156-5.941406 6.265625-5.460938 1.707031-10.996094 3.28125-16.597656 4.71875-.695313.175781-1.410157.261719-2.125.257813zm-133.019532-.066406c-.714844 0-1.429687-.089844-2.125-.265625-5.601562-1.441407-11.136718-3.011719-16.605468-4.71875-4.5-1.414063-7-6.210938-5.589844-10.710938 1.414062-4.5 6.210937-7.003906 10.710937-5.589843 5.171875 1.621093 10.417969 3.117187 15.734375 4.480468 4.171875 1.066406 6.898438 5.070313 6.359375 9.339844-.539062 4.273438-4.175781 7.472656-8.484375 7.464844zm180.78125-16.128906c-4.0625-.007813-7.550781-2.878907-8.347656-6.859376-.800781-3.980468 1.316406-7.96875 5.0625-9.542968 5.117188-2.140625 10.121094-4.394532 15.015625-6.714844 4.265625-2.015625 9.351563-.191406 11.367187 4.070312 2.015626 4.261719.191407 9.351563-4.070312 11.367188-5.117188 2.421875-10.351562 4.761719-15.699219 7.011719-1.054687.445312-2.1875.671875-3.328125.667969zm-228.523437 0c-1.136719 0-2.257813-.230469-3.300781-.675782-5.332032-2.246094-10.566407-4.582031-15.703126-7.003906-4.261718-2.015625-6.085937-7.105469-4.070312-11.367188 2.015625-4.261718 7.101562-6.085937 11.367188-4.070312 4.910156 2.320312 9.914062 4.558594 15.019531 6.714844 3.746093 1.574218 5.863281 5.574218 5.058593 9.558594-.804687 3.984374-4.308593 6.847656-8.371093 6.84375zm273.707031-22.433594c-3.875.011718-7.273438-2.585938-8.273438-6.328125-1-3.742188.644532-7.691407 4.007813-9.613281 4.878906-2.789063 9.609375-5.609376 14.1875-8.464844 4.007813-2.484375 9.269531-1.25 11.753906 2.757812 2.480469 4.003906 1.246094 9.265625-2.757812 11.75-4.746094 2.953125-9.644531 5.878906-14.703125 8.78125-1.285156.730469-2.738282 1.117188-4.214844 1.117188zm-318.875-.042969c-1.480469 0-2.9375-.390625-4.222656-1.128906-5.070313-2.898438-9.976563-5.828125-14.71875-8.777344-4.007813-2.488281-5.238282-7.753906-2.75-11.761719 2.488281-4.003906 7.753906-5.234375 11.757812-2.746094 4.550782 2.84375 9.28125 5.664063 14.183594 8.464844 3.363281 1.921875 5.007812 5.871094 4.007812 9.613282-1.003906 3.742187-4.398437 6.339843-8.273437 6.328124zm361.269531-27.308594c-3.703125 0-6.984375-2.386719-8.121093-5.910156-1.136719-3.523437.125-7.375 3.128906-9.542969 4.691406-3.414062 9.121094-6.699218 13.269531-9.890625 2.410156-1.878906 5.644531-2.324219 8.476563-1.164062 2.832031 1.160156 4.824218 3.746093 5.226562 6.777343.398438 3.035157-.851562 6.050782-3.285156 7.90625-4.265625 3.300782-8.859375 6.722657-13.722656 10.238282-1.449219 1.039062-3.191407 1.59375-4.972657 1.585937zm-403.628906 0c-1.785156.003907-3.527344-.5625-4.972656-1.613281-4.867188-3.496094-9.441407-6.910156-13.722657-10.238281-3.738281-2.871094-4.441406-8.234375-1.570312-11.972657 2.871094-3.738281 8.230469-4.441406 11.972656-1.570312 4.136719 3.199219 8.53125 6.511719 13.25 9.890625 3.011719 2.164063 4.28125 6.023437 3.140625 9.550781-1.136719 3.527344-4.425781 5.917969-8.132812 5.910156zm0 0"/><path d="m497.214844 253.6875c-3.535156.003906-6.707032-2.175781-7.972656-5.476562-1.269532-3.300782-.367188-7.042969 2.261718-9.402344 2.296875-2.066406 4.34375-3.953125 6.09375-5.609375 3.421875-3.242188 8.824219-3.097657 12.066406.324219 3.242188 3.421874 3.097657 8.824218-.324218 12.066406-1.851563 1.707031-4 3.738281-6.417969 5.90625-1.566406 1.410156-3.597656 2.191406-5.707031 2.191406zm0 0"/></g><path d="m206.289062 176.25v-44.007812c31.109376-16.417969 68.320313-16.417969 99.429688 0v44.007812c.074219 21.203125-9.628906 41.253906-26.300781 54.355469l-21.332031 16.632812c-1.207032.949219-2.90625.949219-4.113282 0l-21.335937-16.632812c-16.6875-13.089844-26.410157-33.144531-26.347657-54.355469zm0 0" fill="#bdc3c7"/></svg>