<svg height="512pt" viewBox="0 0 512 512.003" width="512pt" xmlns="http://www.w3.org/2000/svg"><path d="m312.410156 43.394531c18.871094 0 26.03125 8.78125 26.03125 26.03125 0 17.253907-7.160156 26.035157-26.03125 26.035157l-26.035156-13.015626v-26.035156zm0 0" fill="#527f72"/><path d="m373.152344 260.34375v-86.78125h-251.660156v138.847656c0 9.585938 7.769531 17.355469 17.355468 17.355469h199.59375" fill="#f0c419"/><path d="m121.492188 173.5625h251.28125l-110.074219 81.574219c-9.226563 6.90625-21.898438 6.90625-31.125 0zm0 0" fill="#f3d55b"/><path d="m512 329.765625c0 47.925781-38.851562 86.78125-86.777344 86.78125-47.929687 0-86.78125-38.855469-86.78125-86.78125s38.851563-86.78125 86.78125-86.78125c47.925782 0 86.777344 38.855469 86.777344 86.78125zm0 0" fill="#cc4b4c"/><path d="m381.832031 323.804688v-30.980469c.046875-.558594.386719-1.054688.894531-1.292969.507813-.242188 1.105469-.195312 1.570313.121094 5.011719 2.722656 10.851563 3.5 16.402344 2.179687 8.625-3.691406 16.84375-8.265625 24.523437-13.652343 7.679688 5.386718 15.898438 9.960937 24.523438 13.652343 5.546875 1.320313 11.390625.542969 16.402344-2.179687.460937-.316406 1.058593-.363282 1.566406-.121094.507812.238281.851562.734375.898437 1.292969v30.980469c-.234375 16.96875-8.824219 32.726562-22.953125 42.121093l-18.640625 12.878907c-1.089843.726562-2.507812.726562-3.59375 0l-18.640625-12.878907c-14.132812-9.394531-22.71875-25.152343-22.953125-42.121093zm0 0" fill="#bdc3c7"/><path d="m8.679688 425.144531v69.503907c0 4.792968 3.886718 8.675781 8.679687 8.675781h121.488281c4.792969 0 8.679688-3.882813 8.679688-8.675781v-69.753907zm0 0" fill="#f3d55b"/><path d="m69.425781 376.0625c5.070313-3.878906 12.113281-3.878906 17.183594 0l60.917969 49.160156-60.746094 34.710938c-5.199219 3.480468-11.984375 3.480468-17.183594 0l-60.917968-34.710938zm0 0" fill="#f0c419"/><path d="m373.152344 51.992188v69.503906c0 4.792968 3.886718 8.675781 8.679687 8.675781h121.492188c4.792969 0 8.675781-3.882813 8.675781-8.675781v-69.753906zm0 0" fill="#f3d55b"/><path d="m433.898438 2.910156c5.070312-3.878906 12.113281-3.878906 17.183593 0l60.917969 49.160156-60.746094 34.710938c-5.195312 3.480469-11.980468 3.480469-17.179687 0l-60.921875-34.710938zm0 0" fill="#f0c419"/><path d="m86.78125 199.597656h-78.101562c-4.792969 0-8.679688-3.886718-8.679688-8.679687s3.886719-8.675781 8.679688-8.675781h78.101562c4.792969 0 8.679688 3.882812 8.679688 8.675781s-3.886719 8.679687-8.679688 8.679687zm0 0" fill="#b0d3f0"/><path d="m86.78125 260.34375h-60.746094c-4.792968 0-8.675781-3.886719-8.675781-8.679688 0-4.792968 3.882813-8.679687 8.675781-8.679687h60.746094c4.792969 0 8.679688 3.886719 8.679688 8.679687 0 4.792969-3.886719 8.679688-8.679688 8.679688zm0 0" fill="#b0d3f0"/><path d="m86.78125 321.085938h-43.390625c-4.792969 0-8.675781-3.882813-8.675781-8.675782 0-4.792968 3.882812-8.679687 8.675781-8.679687h43.390625c4.792969 0 8.679688 3.886719 8.679688 8.679687 0 4.792969-3.886719 8.675782-8.679688 8.675782zm0 0" fill="#b0d3f0"/><path d="m321.085938 130.171875h-17.355469c-2.300781 0-4.507813-.914063-6.136719-2.542969l-26.03125-26.03125c-3.289062-3.40625-3.242188-8.820312.105469-12.167968 3.347656-3.347657 8.757812-3.394532 12.164062-.105469l23.492188 23.492187h13.761719c4.792968 0 8.679687 3.886719 8.679687 8.679688 0 4.792968-3.886719 8.675781-8.679687 8.675781zm0 0" fill="#527f72"/><path d="m277.695312 52.070312c-3.507812 0-6.671874-2.113281-8.015624-5.355468-1.339844-3.242188-.601563-6.976563 1.882812-9.457032l26.03125-26.035156c1.628906-1.625 3.835938-2.542968 6.136719-2.542968h17.355469c4.792968 0 8.679687 3.886718 8.679687 8.679687s-3.886719 8.675781-8.679687 8.675781h-13.761719l-23.492188 23.492188c-1.628906 1.628906-3.835937 2.542968-6.136719 2.542968zm0 0" fill="#527f72"/><path d="m216.949219 130.171875h-17.355469c-4.792969 0-8.675781-3.882813-8.675781-8.675781 0-4.792969 3.882812-8.679688 8.675781-8.679688h13.765625l23.488281-23.492187c3.40625-3.289063 8.820313-3.242188 12.167969.105469 3.347656 3.347656 3.394531 8.761718.105469 12.167968l-26.035156 26.03125c-1.628907 1.628906-3.832032 2.542969-6.136719 2.542969zm0 0" fill="#527f72"/><path d="m242.984375 52.070312c-2.300781 0-4.507813-.914062-6.136719-2.542968l-23.488281-23.492188h-13.765625c-4.792969 0-8.675781-3.882812-8.675781-8.675781s3.882812-8.679687 8.675781-8.679687h17.355469c2.304687 0 4.507812.917968 6.136719 2.542968l26.035156 26.035156c2.480468 2.480469 3.222656 6.214844 1.878906 9.457032-1.34375 3.242187-4.507812 5.355468-8.015625 5.355468zm0 0" fill="#527f72"/><path d="m260.339844 138.851562c-4.792969 0-8.675782-3.886718-8.675782-8.679687v-26.035156c0-4.789063 3.882813-8.675781 8.675782-8.675781 4.792968 0 8.679687 3.886718 8.679687 8.675781v26.035156c0 4.792969-3.886719 8.679687-8.679687 8.679687zm0 0" fill="#527f72"/><path d="m260.339844 43.394531c-4.792969 0-8.675782-3.886719-8.675782-8.679687v-26.035156c0-4.792969 3.882813-8.67578175 8.675782-8.67578175 4.792968 0 8.679687 3.88281275 8.679687 8.67578175v26.035156c0 4.792968-3.886719 8.679687-8.679687 8.679687zm0 0" fill="#527f72"/><path d="m303.730469 69.425781c0 19.179688-18.222657 34.710938-43.390625 34.710938-25.164063 0-43.390625-15.53125-43.390625-34.710938zm0 0" fill="#4fba6f"/><path d="m303.730469 69.425781h-86.78125c0-19.175781 18.226562-34.710937 43.390625-34.710937 25.167968 0 43.390625 15.535156 43.390625 34.710937zm0 0" fill="#24ae5f"/><g fill="#527f72"><path d="m208.273438 416.546875c-18.875 0-26.035157 8.78125-26.035157 26.03125 0 17.253906 7.160157 26.035156 26.035157 26.035156l26.03125-13.015625v-26.035156zm0 0"/><path d="m199.59375 503.324219h17.355469c2.304687 0 4.507812-.914063 6.136719-2.542969l26.035156-26.03125c3.289062-3.40625 3.242187-8.820312-.105469-12.167969-3.347656-3.347656-8.761719-3.394531-12.167969-.105469l-23.488281 23.492188h-13.765625c-4.792969 0-8.675781 3.886719-8.675781 8.679688 0 4.792968 3.882812 8.675781 8.675781 8.675781zm0 0"/><path d="m242.984375 425.222656c3.507813 0 6.671875-2.113281 8.015625-5.355468 1.34375-3.242188.601562-6.976563-1.878906-9.457032l-26.035156-26.035156c-1.628907-1.625-3.832032-2.539062-6.136719-2.542969h-17.355469c-4.792969 0-8.675781 3.886719-8.675781 8.679688s3.882812 8.675781 8.675781 8.675781h13.765625l23.488281 23.492188c1.628906 1.628906 3.835938 2.542968 6.136719 2.542968zm0 0"/><path d="m303.730469 503.324219h17.355469c4.792968 0 8.679687-3.882813 8.679687-8.675781 0-4.792969-3.886719-8.679688-8.679687-8.679688h-13.761719l-23.492188-23.492188c-3.40625-3.289062-8.816406-3.242187-12.164062.105469-3.347657 3.347657-3.394531 8.761719-.105469 12.167969l26.03125 26.03125c1.628906 1.628906 3.835938 2.542969 6.136719 2.542969zm0 0"/><path d="m277.695312 425.222656c2.300782 0 4.507813-.914062 6.136719-2.542968l23.492188-23.492188h13.761719c4.792968 0 8.679687-3.882812 8.679687-8.675781s-3.886719-8.679688-8.679687-8.679688h-17.355469c-2.300781.003907-4.507813.917969-6.136719 2.542969l-26.03125 26.035156c-2.484375 2.480469-3.222656 6.214844-1.882812 9.457032 1.34375 3.242187 4.507812 5.355468 8.015624 5.355468zm0 0"/><path d="m260.339844 512.003906c4.792968 0 8.679687-3.886718 8.679687-8.679687v-26.03125c0-4.792969-3.886719-8.679688-8.679687-8.679688-4.792969 0-8.675782 3.886719-8.675782 8.679688v26.03125c0 4.792969 3.882813 8.679687 8.675782 8.679687zm0 0"/><path d="m260.339844 416.546875c4.792968 0 8.679687-3.886719 8.679687-8.679687v-26.035157c0-4.792969-3.886719-8.675781-8.679687-8.675781-4.792969 0-8.675782 3.882812-8.675782 8.675781v26.035157c0 4.792968 3.882813 8.679687 8.675782 8.679687zm0 0"/></g><path d="m216.949219 442.578125c0 19.179687 18.226562 34.714844 43.390625 34.714844 25.167968 0 43.390625-15.535157 43.390625-34.714844zm0 0" fill="#4fba6f"/><path d="m216.949219 442.578125h86.78125c0-19.175781-18.222657-34.710937-43.390625-34.710937-25.164063 0-43.390625 15.535156-43.390625 34.710937zm0 0" fill="#24ae5f"/></svg>