<svg height="512pt" viewBox="0 0 512.00763 512" width="512pt" xmlns="http://www.w3.org/2000/svg"><path d="m375.46875 358.402344v42.667968c0 4.714844-3.820312 8.535157-8.53125 8.535157h-42.667969c-4.710937 0-8.53125-3.820313-8.53125-8.535157v-25.601562zm0 0" fill="#7f8c8d"/><path d="m136.539062 358.402344v42.667968c0 4.714844 3.820313 8.535157 8.53125 8.535157h42.667969c4.710938 0 8.53125-3.820313 8.53125-8.535157v-25.601562zm0 0" fill="#7f8c8d"/><g fill="#cc66a1"><path d="m426.671875 477.871094c-4.714844 0-8.535156-3.820313-8.535156-8.535156v-81.800782l-57.234375-57.230468c-3.230469-3.347657-3.1875-8.671876.105468-11.964844 3.292969-3.289063 8.613282-3.335938 11.960938-.101563l62.234375 62.234375v88.863282c0 4.714843-3.820313 8.535156-8.53125 8.535156zm0 0"/><path d="m366.9375 204.804688c-3.453125 0-6.5625-2.082032-7.882812-5.269532-1.320313-3.1875-.589844-6.855468 1.847656-9.296875l78.890625-78.890625c2.535156-2.519531 3.953125-5.945312 3.945312-9.515625v-59.160156c0-4.714844 3.820313-8.535156 8.53125-8.535156 4.714844 0 8.535157 3.820312 8.535157 8.535156v59.160156c.019531 8.097657-3.199219 15.871094-8.945313 21.582031l-78.890625 78.890626c-1.597656 1.597656-3.769531 2.5-6.03125 2.5zm0 0"/><path d="m469.335938 187.738281c-2.261719 0-4.433594-.902343-6.03125-2.5l-42.667969-42.667969c-3.234375-3.347656-3.1875-8.671874.105469-11.960937 3.289062-3.292969 8.613281-3.339844 11.960937-.105469l42.667969 42.667969c2.4375 2.4375 3.167968 6.109375 1.847656 9.296875s-4.429688 5.269531-7.882812 5.269531zm0 0"/><path d="m469.335938 392.539062h-42.664063c-4.714844 0-8.535156-3.824218-8.535156-8.535156 0-4.714844 3.820312-8.535156 8.535156-8.535156h42.664063c4.714843 0 8.535156 3.820312 8.535156 8.535156 0 4.710938-3.820313 8.535156-8.535156 8.535156zm0 0"/><path d="m255.578125 145.070312c-4.714844 0-8.535156-3.820312-8.535156-8.53125v-38.273437c0-4.714844 3.820312-8.535156 8.535156-8.535156 4.710937 0 8.53125 3.820312 8.53125 8.535156v38.273437c0 4.710938-3.820313 8.53125-8.53125 8.53125zm0 0"/><path d="m255.578125 106.796875c-2.265625 0-4.433594-.898437-6.035156-2.5l-30.171875-30.171875c-3.234375-3.347656-3.1875-8.671875.101562-11.960938 3.292969-3.292968 8.617188-3.339843 11.964844-.105468l30.171875 30.171875c2.441406 2.441406 3.171875 6.113281 1.851563 9.300781-1.320313 3.1875-4.433594 5.265625-7.882813 5.265625zm0 0"/><path d="m256.429688 106.796875c-3.449219 0-6.5625-2.078125-7.882813-5.265625s-.589844-6.859375 1.851563-9.300781l30.171874-30.171875c2.144532-2.21875 5.316407-3.109375 8.300782-2.328125 2.980468.78125 5.3125 3.113281 6.09375 6.09375.78125 2.984375-.109375 6.15625-2.328125 8.300781l-30.171875 30.171875c-1.601563 1.601563-3.769532 2.5-6.035156 2.5zm0 0"/><path d="m426.671875 290.136719h-51.203125c-4.710938 0-8.53125-3.820313-8.53125-8.53125 0-4.714844 3.820312-8.535157 8.53125-8.535157h51.203125c4.710937 0 8.53125 3.820313 8.53125 8.535157 0 4.710937-3.820313 8.53125-8.53125 8.53125zm0 0"/><path d="m256.003906 452.269531c-4.714844 0-8.535156-3.820312-8.535156-8.53125v-68.269531c0-4.710938 3.820312-8.53125 8.535156-8.53125 4.710938 0 8.535156 3.820312 8.535156 8.53125v68.269531c0 4.710938-3.824218 8.53125-8.535156 8.53125zm0 0"/><path d="m85.335938 477.871094c-4.710938 0-8.53125-3.820313-8.53125-8.535156v-88.863282l62.234374-62.234375c3.347657-3.234375 8.667969-3.1875 11.960938.101563 3.292969 3.292968 3.335938 8.617187.105469 11.964844l-57.234375 57.230468v81.800782c0 4.714843-3.820313 8.535156-8.535156 8.535156zm0 0"/><path d="m145.070312 204.804688c-2.261718 0-4.433593-.902344-6.03125-2.5l-78.890624-78.890626c-5.746094-5.710937-8.964844-13.484374-8.945313-21.582031v-59.160156c0-4.714844 3.820313-8.535156 8.535156-8.535156 4.710938 0 8.53125 3.820312 8.53125 8.535156v59.160156c-.007812 3.570313 1.410157 6.996094 3.941407 9.515625l78.894531 78.890625c2.4375 2.441407 3.167969 6.109375 1.847656 9.296875s-4.433594 5.269532-7.882813 5.269532zm0 0"/><path d="m42.671875 187.738281c-3.453125 0-6.5625-2.082031-7.882813-5.269531-1.320312-3.1875-.589843-6.859375 1.847657-9.296875l42.667969-42.667969c3.347656-3.234375 8.671874-3.1875 11.960937.105469 3.292969 3.289063 3.339844 8.613281.105469 11.960937l-42.667969 42.667969c-1.597656 1.597657-3.769531 2.5-6.03125 2.5zm0 0"/><path d="m85.335938 392.539062h-42.664063c-4.714844 0-8.535156-3.824218-8.535156-8.535156 0-4.714844 3.820312-8.535156 8.535156-8.535156h42.664063c4.714843 0 8.535156 3.820312 8.535156 8.535156 0 4.710938-3.820313 8.535156-8.535156 8.535156zm0 0"/><path d="m136.539062 290.136719h-51.203124c-4.710938 0-8.53125-3.820313-8.53125-8.53125 0-4.714844 3.820312-8.535157 8.53125-8.535157h51.203124c4.710938 0 8.53125 3.820313 8.53125 8.535157 0 4.710937-3.820312 8.53125-8.53125 8.53125zm0 0"/></g><path d="m153.605469 136.539062h204.796875c9.425781 0 17.066406 7.640626 17.066406 17.066407v204.796875c0 9.425781-7.640625 17.066406-17.066406 17.066406h-204.796875c-9.425781 0-17.066407-7.640625-17.066407-17.066406v-204.796875c0-9.425781 7.640626-17.066407 17.066407-17.066407zm0 0" fill="#bdc3c7"/><path d="m187.738281 170.671875h136.53125c9.425781 0 17.066407 7.640625 17.066407 17.066406v136.53125c0 9.425781-7.640626 17.066407-17.066407 17.066407h-136.53125c-9.425781 0-17.066406-7.640626-17.066406-17.066407v-136.53125c0-9.425781 7.640625-17.066406 17.066406-17.066406zm0 0" fill="#95a5a5"/><path d="m426.671875 512.003906c-10.359375 0-19.695313-6.238281-23.65625-15.804687-3.960937-9.570313-1.769531-20.582031 5.554687-27.902344 10.132813-9.667969 26.074219-9.667969 36.207032 0 9.996094 9.996094 9.996094 26.199219 0 36.199219-4.789063 4.820312-11.308594 7.523437-18.105469 7.507812zm0 0" fill="#3d324c"/><path d="m486.402344 409.605469c-10.355469 0-19.691406-6.238281-23.652344-15.808594-3.964844-9.566406-1.769531-20.582031 5.554688-27.902344 10.132812-9.667969 26.074218-9.667969 36.207031 0 9.992187 10 9.992187 26.203125 0 36.199219-4.789063 4.824219-11.3125 7.527344-18.109375 7.511719zm0 0" fill="#3d324c"/><path d="m452.269531 51.203125c-14.136719 0-25.597656-11.460937-25.597656-25.597656 0-14.140625 11.460937-25.60156275 25.597656-25.60156275 14.140625 0 25.601563 11.46093775 25.601563 25.60156275 0 6.789062-2.699219 13.300781-7.5 18.101562-4.800782 4.800781-11.3125 7.496094-18.101563 7.496094zm0 0" fill="#3d324c"/><path d="m486.402344 221.871094c-10.355469 0-19.691406-6.238282-23.652344-15.804688-3.964844-9.570312-1.769531-20.582031 5.554688-27.902344 10.132812-9.660156 26.066406-9.660156 36.199218 0 7.324219 7.320313 9.515625 18.332032 5.554688 27.902344-3.960938 9.566406-13.296875 15.804688-23.65625 15.804688zm0 0" fill="#3d324c"/><path d="m213.335938 81.625c-14.136719 0-25.597657-11.460938-25.597657-25.601562 0-14.136719 11.460938-25.597657 25.597657-25.597657 14.140624 0 25.601562 11.460938 25.601562 25.597657 0 14.140624-11.460938 25.601562-25.601562 25.601562zm0 0" fill="#3d324c"/><path d="m298.671875 81.625c-14.140625 0-25.601563-11.460938-25.601563-25.601562 0-14.136719 11.460938-25.597657 25.601563-25.597657 14.136719 0 25.597656 11.460938 25.597656 25.597657 0 14.140624-11.460937 25.601562-25.597656 25.601562zm0 0" fill="#3d324c"/><path d="m443.738281 307.203125c-10.355469 0-19.695312-6.238281-23.65625-15.804687-3.960937-9.570313-1.769531-20.582032 5.554688-27.902344 10.132812-9.660156 26.066406-9.660156 36.199219 0 7.324218 7.320312 9.519531 18.332031 5.554687 27.902344-3.960937 9.566406-13.296875 15.804687-23.652344 15.804687zm0 0" fill="#3d324c"/><path d="m256.003906 486.402344c-10.355468.003906-19.691406-6.234375-23.65625-15.804688-3.960937-9.566406-1.769531-20.582031 5.558594-27.902344 10.128906-9.667968 26.074219-9.667968 36.207031 0 9.992188 9.996094 9.992188 26.203126 0 36.199219-4.792969 4.820313-11.3125 7.527344-18.109375 7.507813zm0 0" fill="#3d324c"/><path d="m85.335938 512.003906c-6.789063.019532-13.308594-2.679687-18.097657-7.492187-4.800781-4.800781-7.5-11.3125-7.5-18.105469 0-6.789062 2.699219-13.300781 7.5-18.101562 10.132813-9.667969 26.074219-9.667969 36.207031 0 7.320313 7.324218 9.507813 18.332031 5.542969 27.898437-3.960937 9.566406-13.296875 15.800781-23.652343 15.800781zm0 0" fill="#3d324c"/><path d="m25.605469 409.605469c-6.792969.015625-13.308594-2.679688-18.101563-7.492188-4.800781-4.804687-7.49999975-11.316406-7.49999975-18.105469 0-6.789062 2.69921875-13.300781 7.49999975-18.101562 10.132813-9.671875 26.074219-9.671875 36.207032 0 7.320312 7.320312 9.507812 18.332031 5.546874 27.898438-3.964843 9.5625-13.300781 15.800781-23.652343 15.800781zm0 0" fill="#3d324c"/><path d="m59.738281 51.203125c-14.140625 0-25.601562-11.460937-25.601562-25.597656 0-14.140625 11.460937-25.60156275 25.601562-25.60156275 14.136719 0 25.597657 11.46093775 25.597657 25.60156275 0 6.789062-2.695313 13.300781-7.496094 18.101562-4.800782 4.800781-11.3125 7.496094-18.101563 7.496094zm0 0" fill="#3d324c"/><path d="m25.605469 221.871094c-10.355469 0-19.691407-6.234375-23.65625-15.800782-3.960938-9.566406-1.773438-20.578124 5.546875-27.898437 10.132812-9.667969 26.074218-9.667969 36.207031 0 7.320313 7.320313 9.507813 18.328125 5.546875 27.894531s-13.292969 15.800782-23.644531 15.804688zm0 0" fill="#3d324c"/><path d="m68.269531 307.203125c-10.351562 0-19.6875-6.234375-23.652343-15.800781-3.964844-9.5625-1.773438-20.574219 5.546874-27.898438 10.132813-9.667968 26.074219-9.667968 36.207032 0 7.316406 7.320313 9.507812 18.332032 5.546875 27.894532-3.960938 9.566406-13.296875 15.804687-23.648438 15.804687zm0 0" fill="#3d324c"/><path d="m285.195312 233.542969c-.226562-14.925781-11.664062-27.28125-26.527343-28.664063-14.863281-1.378906-28.378907 8.660156-31.351563 23.289063-1.5625 8.601562.980469 17.4375 6.875 23.894531 2.960938 3.203125 4.644532 7.378906 4.746094 11.742188v34.867187c0 4.671875 3.789062 8.464844 8.464844 8.464844h17.203125c2.246093 0 4.398437-.894531 5.984375-2.480469 1.589844-1.585938 2.480468-3.742188 2.480468-5.984375v-34.988281c.097657-4.359375 1.796876-8.527344 4.769532-11.714844 4.621094-5.035156 7.238281-11.589844 7.355468-18.425781zm0 0" fill="#2c3e50"/></svg>