<svg height="512pt" viewBox="0 -9 512 512" width="512pt" xmlns="http://www.w3.org/2000/svg"><g fill="#cc66a1"><path d="m105.933594 332.800781h-63.265625c-4.714844 0-8.535157-3.820312-8.535157-8.535156 0-4.710937 3.820313-8.53125 8.535157-8.53125h56.199219l48.699218-48.699219c3.347656-3.234375 8.671875-3.1875 11.960938.101563 3.292968 3.292969 3.339844 8.613281.105468 11.964843zm0 0"/><path d="m469.332031 358.398438h-18.773437c-6.664063.019531-13.058594-2.628907-17.757813-7.355469l-71.941406-71.941407c-3.234375-3.351562-3.1875-8.671874.101563-11.964843 3.292968-3.289063 8.613281-3.335938 11.960937-.101563l71.945313 71.941406c1.507812 1.515626 3.558593 2.363282 5.691406 2.355469h18.773437c4.714844 0 8.535157 3.820313 8.535157 8.535157 0 4.710937-3.820313 8.53125-8.535157 8.53125zm0 0"/><path d="m392.535156 349.867188c-3.453125 0-6.5625-2.082032-7.882812-5.269532-1.320313-3.1875-.59375-6.855468 1.847656-9.296875l17.066406-17.066406c3.347656-3.234375 8.671875-3.1875 11.960938.101563 3.292968 3.292968 3.339844 8.617187.105468 11.964843l-17.066406 17.066407c-1.601562 1.601562-3.769531 2.5-6.03125 2.5zm0 0"/><path d="m102.398438 375.464844c-4.710938 0-8.53125-3.820313-8.53125-8.53125v-42.667969c0-4.710937 3.820312-8.53125 8.53125-8.53125 4.714843 0 8.535156 3.820313 8.535156 8.53125v42.667969c0 4.710937-3.820313 8.53125-8.535156 8.53125zm0 0"/></g><path d="m324.265625 341.332031c-4.710937 0-8.53125-3.820312-8.53125-8.53125v-17.066406c0-4.714844 3.820313-8.535156 8.53125-8.535156 4.714844 0 8.535156 3.820312 8.535156 8.535156v17.066406c0 4.710938-3.820312 8.53125-8.535156 8.53125zm0 0" fill="#b0d3f0"/><path d="m290.132812 341.332031c-4.710937 0-8.53125-3.820312-8.53125-8.53125v-17.066406c0-4.714844 3.820313-8.535156 8.53125-8.535156 4.714844 0 8.535157 3.820312 8.535157 8.535156v17.066406c0 4.710938-3.820313 8.53125-8.535157 8.53125zm0 0" fill="#b0d3f0"/><path d="m170.667969 392.535156c-4.714844 0-8.535157-3.824218-8.535157-8.535156v-17.066406c0-4.714844 3.820313-8.535156 8.535157-8.535156 4.710937 0 8.53125 3.820312 8.53125 8.535156v17.066406c0 4.710938-3.820313 8.535156-8.53125 8.535156zm0 0" fill="#b0d3f0"/><path d="m204.800781 392.535156c-4.714843 0-8.535156-3.824218-8.535156-8.535156v-17.066406c0-4.714844 3.820313-8.535156 8.535156-8.535156 4.710938 0 8.53125 3.820312 8.53125 8.535156v17.066406c0 4.710938-3.820312 8.535156-8.53125 8.535156zm0 0" fill="#b0d3f0"/><path d="m25.601562 349.867188c-14.140624 0-25.601562-11.460938-25.601562-25.601563 0-14.136719 11.460938-25.597656 25.601562-25.597656 14.136719 0 25.597657 11.460937 25.597657 25.597656 0 14.140625-11.460938 25.601563-25.597657 25.601563zm0 0" fill="#3d324c"/><path d="m102.398438 409.601562c-14.136719 0-25.597657-11.464843-25.597657-25.601562s11.460938-25.601562 25.597657-25.601562c14.140624 0 25.601562 11.464843 25.601562 25.601562s-11.460938 25.601562-25.601562 25.601562zm0 0" fill="#3d324c"/><path d="m486.398438 375.464844c-14.136719 0-25.597657-11.460938-25.597657-25.597656 0-14.140626 11.460938-25.601563 25.597657-25.601563 14.140624 0 25.601562 11.460937 25.601562 25.601563 0 14.136718-11.460938 25.597656-25.601562 25.597656zm0 0" fill="#3d324c"/><path d="m375.464844 384c-14.136719 0-25.597656-11.460938-25.597656-25.601562 0-14.136719 11.460937-25.597657 25.597656-25.597657 14.140625 0 25.601562 11.460938 25.601562 25.597657 0 14.140624-11.460937 25.601562-25.601562 25.601562zm0 0" fill="#3d324c"/><path d="m89.667969 117.027344c4.558593.027344 8.367187-3.46875 8.730469-8.015625 3.667968-60.914063 53.910156-108.570313 114.933593-109.011719 31.714844.015625 61.988281 13.25 83.542969 36.515625 2.539062 2.902344 6.699219 3.761719 10.179688 2.097656 14.085937-7.214843 30.085937-9.8125 45.730468-7.414062 33.636719 5.449219 59.808594 32.160156 64.570313 65.902343 1.277343 9.082032.988281 18.320313-.851563 27.304688-.628906 2.789062.140625 5.710938 2.070313 7.820312 1.925781 2.109376 4.765625 3.144532 7.597656 2.769532 9.28125-1.277344 18.726563-.578125 27.714844 2.058594 32.835937 9.796874 53.617187 42.070312 48.953125 76.015624-4.660156 33.945313-33.382813 59.417969-67.640625 59.996094h-347.238281c-41.421876.25-76.011719-31.527344-79.265626-72.824218-1.574218-21.375 5.769532-42.445313 20.289063-58.210938s34.917969-24.816406 56.347656-25.003906zm0 0" fill="#285680"/><path d="m435.199219 273.066406h-170.664063v-260.777344c12.132813 6.09375 23.082032 14.300782 32.339844 24.234376 2.542969 2.875 6.667969 3.742187 10.15625 2.132812 14.082031-7.230469 30.089844-9.828125 45.738281-7.425781 33.636719 5.4375 59.820313 32.140625 64.597657 65.878906 1.261718 9.085937.972656 18.320313-.855469 27.304687-.628907 2.785157.140625 5.699219 2.0625 7.808594 1.921875 2.105469 4.75 3.144532 7.582031 2.773438 9.285156-1.246094 18.730469-.546875 27.730469 2.050781 32.824219 9.804687 53.597656 42.078125 48.933593 76.015625-4.660156 33.9375-33.367187 59.410156-67.621093 60.003906zm0 0" fill="#4482c3"/><path d="m256 273.066406h-59.734375v51.199219c0 4.714844 3.820313 8.535156 8.535156 8.535156h30.914063c2.078125 0 4.082031-.753906 5.640625-2.125l11.71875-10.242187c1.867187-1.625 2.933593-3.980469 2.925781-6.457032zm0 0" fill="#f5efca"/><path d="m315.734375 366.933594h-42.667969c-4.710937 0-8.53125 3.820312-8.53125 8.53125v59.734375c0 4.714843 3.820313 8.535156 8.53125 8.535156h30.917969c2.074219 0 4.078125-.753906 5.640625-2.125l11.714844-10.242187c1.867187-1.625 2.933594-3.984376 2.925781-6.457032v-49.445312c0-4.710938-3.820313-8.53125-8.53125-8.53125zm0 0" fill="#f9eab0"/><path d="m221.867188 418.132812h-42.667969c-4.710938 0-8.53125 3.820313-8.53125 8.535157v59.730469c0 4.714843 3.820312 8.535156 8.53125 8.535156h30.917969c2.074218 0 4.082031-.753906 5.640624-2.125l11.714844-10.238282c1.867188-1.628906 2.933594-3.984374 2.925782-6.460937v-49.441406c0-4.714844-3.820313-8.535157-8.53125-8.535157zm0 0" fill="#f5efca"/><path d="m290.132812 145.066406c-4.710937 0-8.53125-3.820312-8.53125-8.53125v-17.070312c0-14.136719-11.464843-25.597656-25.601562-25.597656s-25.601562 11.460937-25.601562 25.597656v17.070312c0 4.710938-3.820313 8.53125-8.53125 8.53125-4.714844 0-8.535157-3.820312-8.535157-8.53125v-17.070312c0-23.5625 19.105469-42.664063 42.667969-42.664063s42.667969 19.101563 42.667969 42.664063v17.070312c0 4.710938-3.820313 8.53125-8.535157 8.53125zm0 0" fill="#bdc3c7"/><path d="m221.867188 136.535156h68.265624c9.425782 0 17.066407 7.640625 17.066407 17.066406v51.199219c0 9.425781-7.640625 17.066407-17.066407 17.066407h-68.265624c-9.425782 0-17.066407-7.640626-17.066407-17.066407v-51.199219c0-9.425781 7.640625-17.066406 17.066407-17.066406zm0 0" fill="#f3d55b"/><path d="m256 196.265625c-4.710938 0-8.535156-3.820313-8.535156-8.53125v-17.066406c0-4.714844 3.824218-8.535157 8.535156-8.535157s8.535156 3.820313 8.535156 8.535157v17.066406c0 4.710937-3.824218 8.53125-8.535156 8.53125zm0 0" fill="#464f5d"/></svg>