<svg height="512pt" viewBox="0 -9 512 512" width="512pt" xmlns="http://www.w3.org/2000/svg"><path d="m404.566406 363.433594c-3.453125 0-6.5625-2.078125-7.882812-5.265625-1.320313-3.191407-.589844-6.859375 1.847656-9.300781l22.101562-22.101563c3.347657-3.234375 8.671876-3.1875 11.964844.105469 3.289063 3.292968 3.335938 8.613281.101563 11.960937l-22.101563 22.101563c-1.597656 1.601562-3.769531 2.5-6.03125 2.5zm0 0" fill="#cc66a1"/><path d="m392.535156 392.535156c-14.140625 0-25.601562-11.464844-25.601562-25.601562 0-14.140625 11.460937-25.601563 25.601562-25.601563 14.136719 0 25.597656 11.460938 25.597656 25.601563 0 14.136718-11.460937 25.601562-25.597656 25.601562zm0 0" fill="#3d324c"/><g fill="#cc66a1"><path d="m85.332031 384c-4.710937 0-8.53125-3.820312-8.53125-8.535156v-42.664063c0-4.714843 3.820313-8.535156 8.53125-8.535156 4.714844 0 8.535157 3.820313 8.535157 8.535156v42.664063c0 4.714844-3.820313 8.535156-8.535157 8.535156zm0 0"/><path d="m85.332031 341.332031h-42.664062c-4.714844 0-8.535157-3.820312-8.535157-8.53125 0-4.714843 3.820313-8.535156 8.535157-8.535156h39.132812l57.234375-57.230469c3.347656-3.234375 8.667969-3.1875 11.960938.101563 3.292968 3.292969 3.335937 8.613281.105468 11.964843l-59.734374 59.730469c-1.601563 1.601563-3.769532 2.5-6.035157 2.5zm0 0"/><path d="m452.265625 363.589844c-4.410156.007812-8.640625-1.746094-11.75-4.875l-79.617187-79.613282c-3.230469-3.351562-3.1875-8.671874.105468-11.964843 3.292969-3.289063 8.613282-3.335938 11.960938-.101563l79.617187 79.613282 15.753907-16.382813c3.332031-3.339844 8.738281-3.34375 12.078124-.011719 3.339844 3.332032 3.34375 8.738282.011719 12.078125l-16.382812 16.382813c-3.117188 3.136718-7.355469 4.890625-11.777344 4.875zm0 0"/></g><path d="m89.667969 117.027344c4.558593.027344 8.367187-3.46875 8.730469-8.015625 3.667968-60.914063 53.910156-108.570313 114.933593-109.011719 31.714844.015625 61.988281 13.25 83.542969 36.515625 2.539062 2.902344 6.699219 3.761719 10.179688 2.097656 14.085937-7.214843 30.085937-9.8125 45.730468-7.414062 33.636719 5.449219 59.808594 32.160156 64.570313 65.902343 1.277343 9.082032.988281 18.320313-.851563 27.304688-.628906 2.789062.140625 5.710938 2.070313 7.820312 1.925781 2.109376 4.765625 3.144532 7.597656 2.769532 9.28125-1.277344 18.726563-.578125 27.714844 2.058594 32.835937 9.796874 53.617187 42.070312 48.953125 76.015624-4.660156 33.945313-33.382813 59.417969-67.640625 59.996094h-347.238281c-41.421876.25-76.011719-31.527344-79.265626-72.824218-1.574218-21.375 5.769532-42.445313 20.289063-58.210938s34.917969-24.816406 56.347656-25.003906zm0 0" fill="#285680"/><path d="m435.199219 273.066406h-170.664063v-260.777344c12.132813 6.09375 23.082032 14.300782 32.339844 24.234376 2.542969 2.875 6.667969 3.742187 10.15625 2.132812 14.082031-7.230469 30.089844-9.828125 45.738281-7.425781 33.636719 5.4375 59.820313 32.140625 64.597657 65.878906 1.261718 9.085937.972656 18.320313-.855469 27.304687-.628907 2.785157.140625 5.699219 2.0625 7.808594 1.921875 2.105469 4.75 3.144532 7.582031 2.773438 9.285156-1.246094 18.730469-.546875 27.730469 2.050781 32.824219 9.804687 53.597656 42.078125 48.933593 76.015625-4.660156 33.9375-33.367187 59.410156-67.621093 60.003906zm0 0" fill="#4482c3"/><path d="m204.800781 145.066406h102.398438c4.714843 0 8.535156 3.820313 8.535156 8.535156v76.796876h-119.46875v-76.796876c0-4.714843 3.820313-8.535156 8.535156-8.535156zm0 0" fill="#bdc3c7"/><path d="m238.933594 204.800781c-4.714844 0-8.535156-3.820312-8.535156-8.535156v-17.066406c0-4.710938 3.820312-8.53125 8.535156-8.53125 4.710937 0 8.53125 3.820312 8.53125 8.53125v17.066406c0 4.714844-3.820313 8.535156-8.53125 8.535156zm0 0" fill="#95a5a5"/><path d="m273.066406 204.800781c-4.710937 0-8.53125-3.820312-8.53125-8.535156v-17.066406c0-4.710938 3.820313-8.53125 8.53125-8.53125 4.714844 0 8.535156 3.820312 8.535156 8.53125v17.066406c0 4.714844-3.820312 8.535156-8.535156 8.535156zm0 0" fill="#95a5a5"/><path d="m187.734375 230.398438h136.53125c4.714844 0 8.535156 3.820312 8.535156 8.535156v162.132812h-153.601562v-162.132812c0-4.714844 3.820312-8.535156 8.535156-8.535156zm0 0" fill="#cc4b4c"/><path d="m187.734375 392.535156h136.53125c9.425781 0 17.066406 7.640625 17.066406 17.066406 0 47.125-38.203125 85.332032-85.332031 85.332032s-85.332031-38.207032-85.332031-85.332032c0-9.425781 7.640625-17.066406 17.066406-17.066406zm0 0" fill="#802f34"/><path d="m298.667969 366.933594c-4.714844 0-8.535157-3.820313-8.535157-8.535156v-93.863282c0-4.714844 3.820313-8.535156 8.535157-8.535156 4.710937 0 8.53125 3.820312 8.53125 8.535156v93.863282c0 4.714843-3.820313 8.535156-8.53125 8.535156zm0 0" fill="#802f34"/><path d="m213.332031 366.933594c-4.710937 0-8.53125-3.820313-8.53125-8.535156v-93.863282c0-4.714844 3.820313-8.535156 8.53125-8.535156 4.714844 0 8.535157 3.820312 8.535157 8.535156v93.863282c0 4.714843-3.820313 8.535156-8.535157 8.535156zm0 0" fill="#802f34"/><path d="m273.066406 443.734375c0 9.425781-7.640625 17.066406-17.066406 17.066406s-17.066406-7.640625-17.066406-17.066406 7.640625-17.066406 17.066406-17.066406 17.066406 7.640625 17.066406 17.066406zm0 0" fill="#2c2f38"/><path d="m486.398438 349.867188c-14.136719 0-25.597657-11.460938-25.597657-25.601563 0-14.136719 11.460938-25.597656 25.597657-25.597656 14.140624 0 25.601562 11.460937 25.601562 25.597656 0 14.140625-11.460938 25.601563-25.601562 25.601563zm0 0" fill="#3d324c"/><path d="m25.601562 358.398438c-14.140624 0-25.601562-11.460938-25.601562-25.597657 0-14.140625 11.460938-25.601562 25.601562-25.601562 14.136719 0 25.597657 11.460937 25.597657 25.601562 0 14.136719-11.460938 25.597657-25.597657 25.597657zm0 0" fill="#3d324c"/><path d="m85.332031 418.132812c-10.351562 0-19.6875-6.238281-23.648437-15.804687-3.964844-9.5625-1.773438-20.574219 5.546875-27.898437 7.324219-7.320313 18.332031-9.511719 27.898437-5.546876 9.566406 3.960938 15.804688 13.296876 15.804688 23.652344 0 14.136719-11.460938 25.597656-25.601563 25.597656zm0 0" fill="#3d324c"/></svg>