<svg height="511pt" viewBox="0 -4 511.89337 511" width="511pt" xmlns="http://www.w3.org/2000/svg"><path d="m251.660156 451.40625v43.390625c0 4.792969-3.882812 8.675781-8.675781 8.675781h-43.390625c-4.792969 0-8.679688-3.882812-8.679688-8.675781v-26.035156zm0 0" fill="#95a5a5"/><path d="m0 451.40625v43.390625c0 4.792969 3.886719 8.675781 8.679688 8.675781h43.386718c4.792969 0 8.679688-3.882812 8.679688-8.675781v-26.035156zm0 0" fill="#95a5a5"/><path d="m251.660156 295.496094v-60.746094c0-9.582031-7.769531-17.355469-17.355468-17.355469h-216.949219c-9.585938 0-17.355469 7.773438-17.355469 17.355469v216.65625c0 9.585938 7.769531 17.355469 17.355469 17.355469h216.949219c9.585937 0 17.355468-7.769531 17.355468-17.355469zm0 0" fill="#bdc3c7"/><path d="m216.949219 260.785156v164.796875c.007812 2.324219-.914063 4.558594-2.558594 6.203125-1.644531 1.644532-3.878906 2.566406-6.207031 2.558594l-164.792969-.257812c-.292969.011718-.585937-.015626-.867187-.089844l.867187-8.328125 113.855469-72.984375c4.765625-3.203125 7.628906-8.570313 7.636718-14.316406v-86.257813h43.386719c4.792969 0 8.679688 3.882813 8.679688 8.675781zm0 0" fill="#464f5d"/><path d="m164.882812 197.351562v141.015626c-.007812 5.746093-2.871093 11.113281-7.636718 14.316406l-113.855469 72.984375-.867187 8.328125c-4.4375-.476563-7.800782-4.214844-7.8125-8.675782v-168.527343c.007812-2.929688 1.472656-5.660157 3.90625-7.289063l99.621093-66.386718c5.25-3.527344 12.019531-3.867188 17.597657-.886719 5.578124 2.980469 9.058593 8.792969 9.046874 15.121093zm0 0" fill="#95a5a5"/><path d="m121.492188 303.878906c0-19.167968-9.714844-34.710937-21.695313-34.710937s-21.695313 15.542969-21.695313 34.710937c0 19.171875 9.714844 34.714844 21.695313 34.714844s21.695313-15.542969 21.695313-34.714844zm0 0" fill="#bdc3c7"/><path d="m86.78125 295.203125c-2.265625.011719-4.445312-.859375-6.074219-2.429687l-8.679687-8.390626c-3.425782-3.335937-3.507813-8.8125-.183594-12.25 3.320312-3.4375 8.796875-3.539062 12.246094-.230468l8.675781 8.382812c2.550781 2.464844 3.34375 6.230469 2.007813 9.511719-1.335938 3.285156-4.535157 5.421875-8.082032 5.40625zm0 0" fill="#bdc3c7"/><path d="m121.492188 329.914062c-2.304688.007813-4.511719-.910156-6.136719-2.542968l-8.675781-8.675782c-3.289063-3.40625-3.242188-8.820312.105468-12.167968s8.757813-3.394532 12.164063-.105469l8.675781 8.679687c2.484375 2.480469 3.226562 6.214844 1.882812 9.457032-1.34375 3.242187-4.507812 5.355468-8.015624 5.355468zm0 0" fill="#bdc3c7"/><path d="m451.253906 312.851562h-69.421875c-4.792969 0-8.679687-3.882812-8.679687-8.675781v-95.457031c0-4.792969 3.886718-8.679688 8.679687-8.679688h34.710938l43.390625 52.070313v52.066406c0 4.792969-3.886719 8.675781-8.679688 8.675781zm0 0" fill="#f0c419"/><path d="m416.542969 200.039062v52.070313h43.390625zm0 0" fill="#f3d55b"/><path d="m494.644531 113.261719h-69.425781c-4.792969 0-8.675781-3.886719-8.675781-8.679688v-95.457031c0-4.792969 3.882812-8.679688 8.675781-8.679688h34.714844l43.386718 52.070313v52.066406c0 4.792969-3.882812 8.679688-8.675781 8.679688zm0 0" fill="#f0c419"/><path d="m459.933594.445312v52.070313h43.386718zm0 0" fill="#f3d55b"/><path d="m321.085938 165.328125h-69.425782c-4.792968 0-8.675781-3.886719-8.675781-8.679687v-95.457032c0-4.792968 3.882813-8.675781 8.675781-8.675781h34.710938l43.390625 52.066406v52.066407c0 4.792968-3.882813 8.679687-8.675781 8.679687zm0 0" fill="#f0c419"/><path d="m286.371094 52.515625v52.066406h43.390625zm0 0" fill="#f3d55b"/><g fill="#b0d3f0"><path d="m442.578125 191.363281c-3.511719-.003906-6.675781-2.117187-8.015625-5.359375-1.34375-3.242187-.601562-6.972656 1.878906-9.457031l17.355469-17.355469c3.40625-3.289062 8.816406-3.242187 12.164063.105469 3.347656 3.347656 3.394531 8.761719.105468 12.167969l-17.355468 17.355468c-1.625 1.625-3.832032 2.542969-6.132813 2.542969zm0 0"/><path d="m468.609375 217.394531c-3.507813 0-6.671875-2.113281-8.015625-5.355469-1.34375-3.242187-.601562-6.976562 1.882812-9.457031l34.710938-34.710937c3.402344-3.289063 8.816406-3.242188 12.164062.105468 3.347657 3.347657 3.394532 8.757813.105469 12.164063l-34.710937 34.710937c-1.628906 1.628907-3.835938 2.542969-6.136719 2.542969zm0 0"/><path d="m286.371094 269.464844c-3.507813-.003906-6.671875-2.117188-8.015625-5.359375-1.339844-3.242188-.597657-6.972657 1.882812-9.457031l17.355469-17.355469c3.40625-3.289063 8.816406-3.238281 12.164062.105469 3.347657 3.347656 3.394532 8.761718.105469 12.167968l-17.355469 17.355469c-1.625 1.625-3.832031 2.542969-6.136718 2.542969zm0 0"/><path d="m303.730469 304.175781c-3.511719 0-6.675781-2.117187-8.015625-5.359375-1.34375-3.242187-.601563-6.972656 1.878906-9.453125l34.710938-34.714843c3.40625-3.285157 8.816406-3.238282 12.164062.109374 3.347656 3.34375 3.394531 8.757813.105469 12.164063l-34.710938 34.710937c-1.625 1.628907-3.832031 2.542969-6.132812 2.542969zm0 0"/><path d="m312.40625 43.835938c-3.507812 0-6.671875-2.113282-8.015625-5.355469-1.34375-3.242188-.601563-6.976563 1.878906-9.457031l17.359375-17.355469c2.175782-2.257813 5.402344-3.160157 8.4375-2.367188s5.402344 3.164063 6.199219 6.199219c.792969 3.03125-.113281 6.257812-2.367187 8.4375l-17.355469 17.355469c-1.628907 1.628906-3.835938 2.542969-6.136719 2.542969zm0 0"/><path d="m338.441406 69.871094c-3.511718 0-6.671875-2.117188-8.015625-5.359375-1.34375-3.242188-.601562-6.972657 1.878907-9.453125l34.710937-34.714844c2.179687-2.253906 5.40625-3.160156 8.441406-2.363281 3.035157.792969 5.402344 3.160156 6.199219 6.195312.792969 3.035157-.113281 6.261719-2.367188 8.441407l-34.714843 34.710937c-1.625 1.628906-3.832031 2.542969-6.132813 2.542969zm0 0"/></g><path d="m286.371094 399.632812h-69.421875c-4.792969 0-8.679688-3.886718-8.679688-8.675781v-95.460937c0-4.792969 3.886719-8.675782 8.679688-8.675782h34.710937l43.390625 52.066407v52.070312c0 4.789063-3.886719 8.675781-8.679687 8.675781zm0 0" fill="#f0c419"/><path d="m251.660156 286.820312v52.066407h43.390625zm0 0" fill="#f3d55b"/></svg>