<svg height="510pt" viewBox="-16 0 510 510.80875" width="510pt" xmlns="http://www.w3.org/2000/svg"><path d="m341.738281 109.742188c0 56.554687-45.847656 102.398437-102.402343 102.398437-56.550782 0-102.398438-45.84375-102.398438-102.398437 0-56.554688 45.847656-102.398438 102.398438-102.398438 56.554687 0 102.402343 45.84375 102.402343 102.398438zm0 0" fill="#e64c3c"/><path d="m230.804688 152.410156c-.625-.003906-1.25-.070312-1.859376-.207031-4.601562-1.023437-7.5-5.578125-6.476562-10.179687l17.066406-76.800782c.613282-3.023437 2.8125-5.480468 5.75-6.425781 2.9375-.941406 6.15625-.226563 8.417969 1.875 2.261719 2.097656 3.210937 5.253906 2.488281 8.253906l-17.066406 76.800781c-.867188 3.902344-4.324219 6.675782-8.320312 6.683594zm0 0" fill="#f3d55b"/><path d="m273.472656 135.34375c-3.765625.003906-7.085937-2.457031-8.175781-6.058594-1.09375-3.597656.300781-7.488281 3.429687-9.574218l14.984376-9.96875-14.949219-9.96875c-3.921875-2.613282-4.980469-7.914063-2.363281-11.835938 2.613281-3.917969 7.914062-4.976562 11.835937-2.363281l25.597656 17.066406c2.375 1.585937 3.800781 4.25 3.800781 7.101563 0 2.851562-1.425781 5.515624-3.800781 7.101562l-25.597656 17.066406c-1.410156.9375-3.070313 1.4375-4.761719 1.433594zm0 0" fill="#f0c419"/><path d="m205.203125 135.34375c-1.679687-.003906-3.328125-.5-4.726563-1.433594l-25.601562-17.066406c-2.371094-1.585938-3.796875-4.25-3.796875-7.101562 0-2.851563 1.425781-5.515626 3.796875-7.101563l25.601562-17.066406c3.921876-2.613281 9.21875-1.554688 11.835938 2.363281 2.617188 3.921875 1.558594 9.222656-2.363281 11.835938l-14.984375 9.96875 14.949218 9.96875c3.125 2.082031 4.519532 5.964843 3.4375 9.558593-1.082031 3.597657-4.390624 6.0625-8.148437 6.074219zm0 0" fill="#f0c419"/><path d="m239.261719 220.675781c-2.730469 0-5.445313-.101562-8.175781-.300781-3.046876-.222656-5.746094-2.054688-7.078126-4.804688-1.332031-2.75-1.09375-6.003906.621094-8.53125 1.71875-2.53125 4.652344-3.953124 7.703125-3.730468 5.03125.378906 10.085938.34375 15.113281-.101563 4.695313-.410156 8.835938 3.066407 9.246094 7.761719s-3.066406 8.835938-7.761718 9.246094c-3.21875.324218-6.441407.460937-9.667969.460937zm-39.484375-7.929687c-1.132813.003906-2.25-.222656-3.292969-.664063-5.5-2.304687-10.800781-5.054687-15.855469-8.21875-4.007812-2.5-5.226562-7.773437-2.726562-11.777343 2.5-4.007813 7.773437-5.226563 11.78125-2.726563 4.269531 2.671875 8.75 4.996094 13.394531 6.945313 3.757813 1.566406 5.886719 5.570312 5.082031 9.558593-.800781 3.992188-4.3125 6.859375-8.382812 6.851563zm80.214844-.484375c-4.0625.023437-7.578126-2.816407-8.40625-6.792969-.828126-3.972656 1.261718-7.980469 4.992187-9.582031 4.621094-2.003907 9.074219-4.371094 13.320313-7.082031 3.96875-2.542969 9.25-1.386719 11.792968 2.585937 2.542969 3.96875 1.382813 9.25-2.585937 11.792969-5.023438 3.207031-10.296875 6.007812-15.769531 8.371094-1.042969.457031-2.164063.699218-3.304688.714843zm-119.570313-28.699219c-2.542969 0-4.949219-1.132812-6.570313-3.085938-3.804687-4.59375-7.226562-9.484374-10.242187-14.628906-1.628906-2.632812-1.703125-5.941406-.191406-8.648437 1.507812-2.703125 4.367187-4.375 7.460937-4.371094 3.097656.003906 5.949219 1.683594 7.453125 4.394531 2.550781 4.34375 5.449219 8.480469 8.660157 12.363282 2.109374 2.546874 2.558593 6.082031 1.152343 9.074218-1.40625 2.992188-4.417969 4.902344-7.722656 4.902344zm158.589844-.972656c-3.289063 0-6.285157-1.894532-7.699219-4.863282-1.414062-2.972656-.992188-6.488281 1.078125-9.042968.769531-.953125 1.519531-1.921875 2.253906-2.910156 2.277344-3.054688 4.371094-6.246094 6.261719-9.550782 2.394531-3.96875 7.519531-5.300781 11.542969-3 4.023437 2.296875 5.476562 7.390625 3.273437 11.464844-2.230468 3.902344-4.695312 7.667969-7.382812 11.273438-.882813 1.175781-1.78125 2.335937-2.695313 3.472656-1.621093 2-4.058593 3.160156-6.632812 3.15625zm-179.882813-43.160156c-4.027344-.007813-7.503906-2.832032-8.335937-6.777344-1.226563-5.824219-1.984375-11.742188-2.269531-17.6875-.109376-2.261719.683593-4.472656 2.207031-6.148438 1.523437-1.675781 3.648437-2.679687 5.910156-2.785156 4.691406-.1875 8.667969 3.425781 8.933594 8.113281.238281 5.039063.882812 10.050781 1.917969 14.984375.46875 2.214844.035156 4.527344-1.203126 6.425782-1.234374 1.894531-3.175781 3.222656-5.390624 3.6875-.582032.125-1.175782.1875-1.769532.1875zm200.679688-1.203126c-2.566406.003907-4.996094-1.144531-6.621094-3.128906s-2.269531-4.597656-1.757812-7.109375c.96875-4.945312 1.539062-9.960937 1.707031-14.996093.046875-2.269532 1.007812-4.429688 2.667969-5.980469 1.660156-1.550781 3.875-2.367188 6.144531-2.261719 2.265625.074219 4.40625 1.046875 5.953125 2.703125s2.371094 3.855469 2.292968 6.121094c-.207031 5.957031-.890624 11.890625-2.050781 17.738281-.773437 4-4.261719 6.894531-8.335937 6.914062zm-199.039063-47.785156c-.785156-.003906-1.566406-.113281-2.320312-.324218-2.179688-.617188-4.023438-2.070313-5.128907-4.046876-1.105468-1.972656-1.382812-4.308593-.769531-6.484374 1.621094-5.742188 3.703125-11.339844 6.230469-16.742188 1.257812-2.816406 3.9375-4.730469 7.011719-5.011719 3.070312-.28125 6.050781 1.113281 7.800781 3.652344s1.996094 5.824219.640625 8.59375c-2.132813 4.5625-3.890625 9.292969-5.257813 14.140625-1.023437 3.6875-4.378906 6.242188-8.207031 6.246094zm196.777344-1.1875c-3.78125-.003906-7.109375-2.5-8.175781-6.128906-1.425782-4.832031-3.238282-9.546875-5.417969-14.09375-1.738281-4.1875.101563-9.003906 4.183594-10.964844 4.085937-1.964844 8.996093-.390625 11.175781 3.582032 2.574219 5.371093 4.714844 10.941406 6.402344 16.65625.640625 2.171874.390625 4.507812-.695313 6.496093-1.082031 1.988281-2.910156 3.464844-5.082031 4.101563-.777344.230468-1.582031.351562-2.390625.359375zm-172.570313-41.386718c-3.40625 0-6.488281-2.027344-7.835937-5.15625-1.351563-3.128907-.707031-6.761719 1.632813-9.238282 4.097656-4.335937 8.535156-8.332031 13.277343-11.949218 3.75-2.683594 8.957031-1.90625 11.753907 1.761718 2.796874 3.664063 2.175781 8.890625-1.402344 11.796875-4.003906 3.0625-7.757813 6.441407-11.21875 10.105469-1.613282 1.707031-3.855469 2.679688-6.207032 2.679688zm147.867188-.855469c-2.300781.007812-4.507812-.914063-6.117188-2.558594-3.519531-3.613281-7.320312-6.945313-11.367187-9.957031-3.800781-2.816406-4.640625-8.160156-1.886719-12.007813 1.3125-1.820312 3.292969-3.042969 5.507813-3.398437 2.214843-.355469 4.480469.191406 6.292969 1.511718l.085937.070313c4.847656 3.585937 9.398437 7.5625 13.601563 11.886719 2.410156 2.457031 3.105468 6.117187 1.769531 9.289062-1.335938 3.167969-4.445313 5.226563-7.886719 5.21875zm-106.667969-25.597657c-4.195312.023438-7.785156-3.007812-8.46875-7.148437-.679687-4.140625 1.75-8.160156 5.730469-9.484375 5.640625-1.929688 11.421875-3.402344 17.296875-4.402344 4.648437-.785156 9.050781 2.34375 9.839844 6.988282.785156 4.648437-2.34375 9.050781-6.988281 9.839843-4.972657.839844-9.867188 2.082031-14.636719 3.710938-.886719.300781-1.816407.457031-2.753907.460937zm64.855469-.503906c-.894531 0-1.785156-.144531-2.636719-.417968-4.792969-1.5625-9.703125-2.730469-14.6875-3.5-3.058593-.402344-5.664062-2.429688-6.808593-5.296876-1.140626-2.871093-.648438-6.132812 1.296874-8.53125 1.941407-2.398437 5.027344-3.5625 8.074219-3.042968 5.886719.910156 11.691407 2.296875 17.355469 4.140625 3.992188 1.296875 6.445312 5.304687 5.789062 9.449219-.65625 4.144531-4.230468 7.199218-8.425781 7.199218zm0 0" fill="#802f34"/><path d="m418.539062 126.808594c-.699218 0-1.390624-.085938-2.066406-.253906l-34.132812-8.535157c-4.496094-1.207031-7.195313-5.792969-6.066406-10.3125 1.128906-4.515625 5.667968-7.292969 10.203124-6.242187l19.066407 4.761718-3.621094-10.855468c-.980469-2.953125-.277344-6.203125 1.835937-8.488282 2.113282-2.28125 5.300782-3.234374 8.320313-2.484374l34.132813 8.53125c3.019531.679687 5.4375 2.945312 6.3125 5.914062s.074218 6.179688-2.09375 8.386719c-2.167969 2.210937-5.363282 3.074219-8.347657 2.253906l-19.0625-4.761719 3.617188 10.855469c.867187 2.601563.429687 5.464844-1.175781 7.6875-1.605469 2.226563-4.179688 3.542969-6.921876 3.542969zm0 0" fill="#f0c419"/><path d="m307.605469 297.476562c-3.910157-.003906-7.320313-2.667968-8.269531-6.460937l-8.535157-34.132813c-.757812-3.023437.191407-6.21875 2.476563-8.335937s5.542968-2.820313 8.5-1.835937l10.851562 3.617187-4.761718-19.046875c-.765626-2.964844.117187-6.113281 2.316406-8.25 2.195312-2.136719 5.367187-2.929688 8.308594-2.082031 2.945312.847656 5.207031 3.210937 5.929687 6.1875l8.535156 34.132812c.757813 3.019531-.191406 6.214844-2.476562 8.332031-2.285157 2.117188-5.542969 2.824219-8.496094 1.839844l-10.855469-3.621094 4.761719 19.046876c1.144531 4.574218-1.632813 9.207031-6.203125 10.351562-.679688.171875-1.382812.257812-2.082031.257812zm0 0" fill="#f0c419"/><path d="m179.605469 297.476562c-.703125 0-1.402344-.085937-2.082031-.257812-4.574219-1.144531-7.351563-5.777344-6.203126-10.351562l4.761719-19.046876-10.855469 3.621094c-2.957031.984375-6.214843.277344-8.5-1.839844-2.285156-2.117187-3.234374-5.3125-2.476562-8.332031l8.535156-34.132812c1.171875-4.542969 5.789063-7.285157 10.335938-6.144531 4.546875 1.136718 7.324218 5.734374 6.21875 10.289062l-4.761719 19.046875 10.855469-3.617187c2.953125-.984376 6.210937-.28125 8.496094 1.835937 2.285156 2.117187 3.234374 5.3125 2.476562 8.335937l-8.53125 34.132813c-.953125 3.792969-4.359375 6.457031-8.269531 6.460937zm0 0" fill="#f0c419"/><path d="m60.136719 135.34375c-2.742188 0-5.316407-1.320312-6.921875-3.542969-1.605469-2.226562-2.042969-5.085937-1.175782-7.6875l3.617188-10.855469-19.046875 4.761719c-4.554687 1.105469-9.152344-1.671875-10.289063-6.21875-1.140624-4.546875 1.605469-9.164062 6.144532-10.335937l34.132812-8.535156c3.023438-.757813 6.214844.191406 8.332032 2.476562 2.121093 2.285156 2.824218 5.542969 1.839843 8.5l-3.617187 10.851562 19.046875-4.757812c4.554687-1.109375 9.152343 1.667969 10.289062 6.214844 1.140625 4.550781-1.601562 9.164062-6.144531 10.339844l-34.132812 8.53125c-.679688.167968-1.375.253906-2.074219.257812zm0 0" fill="#f0c419"/><path d="m418.539062 178.007812h-34.132812c-4.714844 0-8.535156 3.820313-8.535156 8.535157v35.675781c0 4.5 1.785156 8.8125 4.964844 11.992188l20.636718 20.597656 20.632813-20.632813c3.179687-3.179687 4.964843-7.492187 4.964843-11.988281v-35.644531c0-4.714844-3.820312-8.535157-8.53125-8.535157zm0 0" fill="#955ba5"/><path d="m94.269531 178.007812h-34.132812c-4.710938 0-8.53125 3.820313-8.53125 8.535157v35.675781c0 4.5 1.785156 8.8125 4.964843 11.992188l20.632813 20.597656 20.636719-20.632813c3.179687-3.179687 4.964844-7.492187 4.964844-11.988281v-35.644531c0-4.714844-3.820313-8.535157-8.535157-8.535157zm0 0" fill="#955ba5"/><g fill="#527f72"><path d="m51.605469 340.140625-7.484375-14.972656c-.722656-1.371094-1.050782-2.914063-.9375-4.457031 2.015625-12.753907 12.601562-22.402344 25.488281-23.234376 12.882813.832032 23.472656 10.480469 25.488281 23.234376.109375 1.542968-.214844 3.085937-.9375 4.457031l-7.484375 14.972656zm0 0"/><path d="m213.738281 408.410156-7.484375-14.976562c-.722656-1.367188-1.046875-2.910156-.9375-4.457032 2.015625-12.75 12.601563-22.402343 25.488282-23.234374 12.882812.832031 23.472656 10.484374 25.488281 23.234374.109375 1.546876-.214844 3.089844-.9375 4.457032l-7.484375 14.976562zm0 0"/><path d="m392.9375 340.140625-7.484375-14.972656c-.722656-1.371094-1.046875-2.914063-.9375-4.457031 1.230469-13.15625 12.273437-23.21875 25.488281-23.21875s24.261719 10.0625 25.488282 23.21875c.109374 1.542968-.214844 3.085937-.9375 4.457031l-7.484376 14.972656zm0 0"/><path d="m256.40625 434.007812c-3.453125 0-6.5625-2.078124-7.882812-5.265624-1.320313-3.191407-.59375-6.859376 1.847656-9.300782l23.101562-23.097656v-13.535156c0-4.710938 3.820313-8.53125 8.53125-8.53125 4.714844 0 8.535156 3.820312 8.535156 8.53125v17.066406c0 2.261719-.902343 4.433594-2.5 6.035156l-25.601562 25.597656c-1.601562 1.601563-3.769531 2.5-6.03125 2.5zm0 0"/><path d="m205.203125 434.007812c-2.261719 0-4.433594-.898437-6.03125-2.5l-25.601563-25.597656c-1.597656-1.601562-2.5-3.773437-2.5-6.035156v-17.066406c0-4.710938 3.820313-8.53125 8.535157-8.53125 4.710937 0 8.53125 3.820312 8.53125 8.53125v13.535156l23.101562 23.097656c2.4375 2.441406 3.167969 6.109375 1.847657 9.300782-1.320313 3.1875-4.429688 5.265624-7.882813 5.265624zm0 0"/><path d="m282.003906 510.808594c-4.710937 0-8.53125-3.820313-8.53125-8.53125v-13.535156l-23.101562-23.101563c-3.234375-3.347656-3.1875-8.667969.105468-11.960937 3.289063-3.292969 8.613282-3.339844 11.960938-.105469l25.601562 25.601562c1.597657 1.601563 2.5 3.769531 2.5 6.03125v17.070313c0 4.710937-3.820312 8.53125-8.535156 8.53125zm0 0"/><path d="m179.605469 510.808594c-4.714844 0-8.535157-3.820313-8.535157-8.53125v-17.070313c0-2.261719.902344-4.429687 2.5-6.03125l25.601563-25.601562c3.347656-3.234375 8.671875-3.1875 11.960937.105469 3.292969 3.292968 3.339844 8.613281.105469 11.960937l-23.101562 23.101563v13.535156c0 4.710937-3.820313 8.53125-8.53125 8.53125zm0 0"/><path d="m290.539062 451.074219h-25.601562c-4.710938 0-8.53125-3.820313-8.53125-8.53125 0-4.714844 3.820312-8.535157 8.53125-8.535157h25.601562c4.710938 0 8.53125 3.820313 8.53125 8.535157 0 4.710937-3.820312 8.53125-8.53125 8.53125zm0 0"/><path d="m196.671875 451.074219h-25.601563c-4.710937 0-8.53125-3.820313-8.53125-8.53125 0-4.714844 3.820313-8.535157 8.53125-8.535157h25.601563c4.710937 0 8.53125 3.820313 8.53125 8.535157 0 4.710937-3.820313 8.53125-8.53125 8.53125zm0 0"/><path d="m435.605469 365.742188c-3.453125 0-6.5625-2.078126-7.882813-5.269532-1.320312-3.1875-.589844-6.855468 1.847656-9.296875l23.101563-23.101562v-13.53125c0-4.714844 3.820313-8.535157 8.53125-8.535157 4.714844 0 8.535156 3.820313 8.535156 8.535157v17.066406c0 2.261719-.902343 4.433594-2.5 6.03125l-25.601562 25.601563c-1.597657 1.601562-3.769531 2.5-6.03125 2.5zm0 0"/><path d="m384.40625 365.742188c-2.265625 0-4.433594-.898438-6.035156-2.5l-25.601563-25.601563c-1.597656-1.597656-2.496093-3.769531-2.5-6.03125v-17.066406c0-4.714844 3.820313-8.535157 8.535157-8.535157 4.710937 0 8.53125 3.820313 8.53125 8.535157v13.53125l23.101562 23.101562c2.441406 2.441407 3.167969 6.109375 1.847656 9.296875-1.320312 3.191406-4.429687 5.269532-7.878906 5.269532zm0 0"/><path d="m461.203125 442.542969c-4.710937 0-8.53125-3.820313-8.53125-8.535157v-13.53125l-23.101563-23.101562c-3.234374-3.347656-3.1875-8.671875.105469-11.960938 3.292969-3.292968 8.613281-3.339843 11.960938-.105468l25.601562 25.601562c1.597657 1.597656 2.5 3.769532 2.5 6.03125v17.066406c0 4.714844-3.820312 8.535157-8.535156 8.535157zm0 0"/><path d="m358.804688 442.542969c-4.714844 0-8.535157-3.820313-8.535157-8.535157v-17.066406c.003907-2.261718.902344-4.433594 2.5-6.03125l25.601563-25.601562c3.347656-3.234375 8.671875-3.1875 11.960937.105468 3.292969 3.289063 3.339844 8.613282.105469 11.960938l-23.101562 23.101562v13.53125c0 4.714844-3.820313 8.535157-8.53125 8.535157zm0 0"/><path d="m469.738281 382.808594h-25.601562c-4.710938 0-8.53125-3.820313-8.53125-8.53125 0-4.714844 3.820312-8.535156 8.53125-8.535156h25.601562c4.710938 0 8.53125 3.820312 8.53125 8.535156 0 4.710937-3.820312 8.53125-8.53125 8.53125zm0 0"/><path d="m375.871094 382.808594h-25.601563c-4.710937 0-8.53125-3.820313-8.53125-8.53125 0-4.714844 3.820313-8.535156 8.53125-8.535156h25.601563c4.710937 0 8.535156 3.820312 8.535156 8.535156 0 4.710937-3.824219 8.53125-8.535156 8.53125zm0 0"/><path d="m94.269531 365.742188c-3.449219 0-6.558593-2.078126-7.878906-5.269532-1.320313-3.1875-.59375-6.855468 1.847656-9.296875l23.097657-23.101562v-13.53125c0-4.714844 3.824218-8.535157 8.535156-8.535157 4.710937 0 8.535156 3.820313 8.535156 8.535157v17.066406c-.003906 2.261719-.902344 4.433594-2.503906 6.03125l-25.597656 25.601563c-1.601563 1.601562-3.769532 2.5-6.035157 2.5zm0 0"/><path d="m43.070312 365.742188c-2.261718 0-4.433593-.898438-6.03125-2.5l-25.601562-25.601563c-1.601562-1.597656-2.5-3.769531-2.5-6.03125v-17.066406c0-4.714844 3.820312-8.535157 8.535156-8.535157 4.710938 0 8.53125 3.820313 8.53125 8.535157v13.53125l23.101563 23.101562c2.4375 2.441407 3.167969 6.109375 1.847656 9.296875-1.320313 3.191406-4.429687 5.269532-7.882813 5.269532zm0 0"/><path d="m119.871094 442.542969c-4.710938 0-8.535156-3.820313-8.535156-8.535157v-13.53125l-23.097657-23.101562c-3.234375-3.347656-3.1875-8.671875.105469-11.960938 3.289062-3.292968 8.613281-3.339843 11.960938-.105468l25.597656 25.601562c1.601562 1.597656 2.5 3.769532 2.503906 6.03125v17.066406c0 4.714844-3.824219 8.535157-8.535156 8.535157zm0 0"/><path d="m17.472656 442.542969c-4.714844 0-8.535156-3.820313-8.535156-8.535157v-17.066406c0-2.261718.898438-4.433594 2.5-6.03125l25.601562-25.601562c3.347657-3.234375 8.667969-3.1875 11.960938.105468 3.292969 3.289063 3.339844 8.613282.105469 11.960938l-23.101563 23.101562v13.53125c0 4.714844-3.820312 8.535157-8.53125 8.535157zm0 0"/><path d="m128.40625 382.808594h-25.601562c-4.714844 0-8.535157-3.820313-8.535157-8.53125 0-4.714844 3.820313-8.535156 8.535157-8.535156h25.601562c4.710938 0 8.53125 3.820312 8.53125 8.535156 0 4.710937-3.820312 8.53125-8.53125 8.53125zm0 0"/><path d="m34.539062 382.808594h-25.601562c-4.710938 0-8.53125-3.820313-8.53125-8.53125 0-4.714844 3.820312-8.535156 8.53125-8.535156h25.601562c4.710938 0 8.53125 3.820312 8.53125 8.535156 0 4.710937-3.820312 8.53125-8.53125 8.53125zm0 0"/></g><path d="m264.9375 442.542969c0 24.746093-15.273438 42.664062-34.132812 42.664062v-85.332031c18.859374 0 34.132812 17.921875 34.132812 42.667969zm0 0" fill="#24ae5f"/><path d="m230.804688 399.875v85.332031c-18.859376 0-34.132813-17.917969-34.132813-42.664062 0-24.746094 15.273437-42.667969 34.132813-42.667969zm0 0" fill="#4fba6f"/><path d="m444.136719 374.277344c0 25.597656-17.066407 42.664062-34.132813 42.664062v-85.332031c17.066406 0 34.132813 17.066406 34.132813 42.667969zm0 0" fill="#24ae5f"/><path d="m410.003906 331.609375v85.332031c-17.066406 0-34.132812-17.066406-34.132812-42.664062 0-25.601563 17.066406-42.667969 34.132812-42.667969zm0 0" fill="#4fba6f"/><path d="m102.804688 374.277344c0 24.746094-15.273438 42.664062-34.132813 42.664062v-85.332031c18.859375 0 34.132813 17.917969 34.132813 42.667969zm0 0" fill="#24ae5f"/><path d="m68.671875 331.609375v85.332031c-18.859375 0-34.132813-17.917968-34.132813-42.664062 0-24.75 15.273438-42.667969 34.132813-42.667969zm0 0" fill="#4fba6f"/></svg>