<svg height="512pt" viewBox="0 -4 512 512" width="512pt" xmlns="http://www.w3.org/2000/svg"><path d="m269.015625 407.863281c-2.300781 0-4.507813-.914062-6.132813-2.542969l-26.035156-26.03125c-3.386718-3.390624-3.386718-8.882812 0-12.273437l8.679688-8.675781c3.402344-3.289063 8.816406-3.242188 12.164062.105468 3.347656 3.347657 3.394532 8.757813.105469 12.164063l-2.542969 2.542969 19.898438 19.898437c2.480468 2.480469 3.222656 6.214844 1.878906 9.457031-1.339844 3.242188-4.503906 5.355469-8.015625 5.355469zm0 0" fill="#4fba6f"/><path d="m251.660156 459.933594c-2.300781 0-4.507812-.917969-6.132812-2.542969l-8.679688-8.679687c-3.386718-3.386719-3.386718-8.882813 0-12.269532l26.035156-26.035156c3.402344-3.289062 8.816407-3.242188 12.164063.105469 3.347656 3.347656 3.394531 8.761719.105469 12.164062l-19.898438 19.902344 2.542969 2.539063c2.480469 2.484374 3.222656 6.214843 1.878906 9.457031-1.34375 3.242187-4.503906 5.355469-8.015625 5.359375zm0 0" fill="#4fba6f"/><path d="m477.289062 269.015625c-2.300781 0-4.507812-.914063-6.136718-2.542969l-46.992188-46.988281c-4.863281-4.890625-7.601562-11.5-7.617187-18.398437v-79.59375c0-4.792969 3.882812-8.679688 8.675781-8.679688s8.679688 3.886719 8.679688 8.679688v79.59375c.003906 2.296874.917968 4.5 2.542968 6.125l46.980469 46.992187c2.484375 2.480469 3.226563 6.214844 1.882813 9.457031-1.34375 3.242188-4.507813 5.355469-8.015626 5.355469zm0 0" fill="#95a5a5"/><path d="m0 286.371094 234.304688-121.488282 34.710937 34.710938-95.457031 295.050781zm0 0" fill="#f3d55b"/><path d="m165.417969 503.320312h-157.285157c-4.492187-.003906-8.132812-3.644531-8.132812-8.136718v-209.347656c0-4.492188 3.640625-8.136719 8.132812-8.140626h113.359376l52.066406 52.066407v165.421875c0 4.492187-3.644532 8.136718-8.140625 8.136718zm0 0" fill="#f9eab0"/><path d="m121.492188 277.695312v43.390626c0 4.792968 3.882812 8.675781 8.675781 8.675781h43.390625zm0 0" fill="#f5efca"/><path d="m86.78125 329.761719h-52.070312c-4.792969 0-8.675782-3.882813-8.675782-8.675781 0-4.792969 3.882813-8.679688 8.675782-8.679688h52.070312c4.792969 0 8.675781 3.886719 8.675781 8.679688 0 4.792968-3.882812 8.675781-8.675781 8.675781zm0 0" fill="#464f5d"/><path d="m86.78125 364.472656h-52.070312c-4.792969 0-8.675782-3.882812-8.675782-8.675781s3.882813-8.679687 8.675782-8.679687h52.070312c4.792969 0 8.675781 3.886718 8.675781 8.679687s-3.882812 8.675781-8.675781 8.675781zm0 0" fill="#464f5d"/><path d="m138.847656 399.1875h-104.136718c-4.792969 0-8.675782-3.886719-8.675782-8.679688 0-4.792968 3.882813-8.675781 8.675782-8.675781h104.136718c4.792969 0 8.679688 3.882813 8.679688 8.675781 0 4.792969-3.886719 8.679688-8.679688 8.679688zm0 0" fill="#464f5d"/><path d="m138.847656 433.898438h-104.136718c-4.792969 0-8.675782-3.886719-8.675782-8.679688s3.882813-8.675781 8.675782-8.675781h104.136718c4.792969 0 8.679688 3.882812 8.679688 8.675781s-3.886719 8.679688-8.679688 8.679688zm0 0" fill="#464f5d"/><path d="m138.847656 468.609375h-104.136718c-4.792969 0-8.675782-3.882813-8.675782-8.675781 0-4.792969 3.882813-8.679688 8.675782-8.679688h104.136718c4.792969 0 8.679688 3.886719 8.679688 8.679688 0 4.792968-3.886719 8.675781-8.679688 8.675781zm0 0" fill="#464f5d"/><path d="m503.320312 0-138.847656 138.847656-53.929687 54.863282c-1.621094 1.644531-3.832031 2.578124-6.140625 2.589843-2.308594.015625-4.527344-.894531-6.167969-2.523437l-57.757813-57.472656c-1.632812-1.628907-2.550781-3.839844-2.550781-6.144532 0-2.304687.917969-4.515625 2.550781-6.144531l121.488282-121.492187c1.625-1.609376 3.816406-2.51953175 6.101562-2.523438zm0 0" fill="#35495e"/><path d="m260.339844 104.136719-19.898438-19.898438c-3.390625-3.390625-3.390625-8.882812 0-12.273437l48.472656-48.472656c3.390626-3.386719 8.882813-3.386719 12.273438 0l19.898438 19.898437zm0 0" fill="#7f8c8d"/><path d="m286.371094 182.238281-19.898438 19.898438c-3.386718 3.386719-8.878906 3.386719-12.269531 0l-22.441406-22.441407c-3.386719-3.390624-3.386719-8.882812 0-12.269531l19.898437-19.898437zm0 0" fill="#95a5a5"/><path d="m503.320312 0v49.289062c.003907 1.808594-.5625 3.570313-1.613281 5.042969l-39.976562 55.964844c-1.164063 1.628906-2.851563 2.804687-4.785157 3.332031l-92.472656 25.21875zm0 0" fill="#2c3e50"/><path d="m303.730469 156.203125c-2.304688 0-4.511719-.914063-6.136719-2.542969l-17.355469-17.355468c-3.289062-3.40625-3.242187-8.816407.105469-12.164063s8.757812-3.394531 12.164062-.105469l17.355469 17.355469c2.480469 2.480469 3.222657 6.214844 1.882813 9.457031-1.34375 3.242188-4.507813 5.355469-8.015625 5.355469zm0 0" fill="#bdc3c7"/><path d="m329.761719 130.167969c-2.300781 0-4.507813-.914063-6.132813-2.542969l-17.359375-17.355469c-3.285156-3.402343-3.238281-8.816406.109375-12.164062 3.34375-3.347657 8.757813-3.394531 12.164063-.105469l17.355469 17.355469c2.480468 2.484375 3.222656 6.214843 1.878906 9.457031s-4.503906 5.355469-8.015625 5.355469zm0 0" fill="#bdc3c7"/><path d="m355.796875 104.136719c-2.300781 0-4.507813-.917969-6.136719-2.542969l-17.355468-17.355469c-3.289063-3.40625-3.242188-8.820312.105468-12.167969 3.347656-3.34375 8.761719-3.394531 12.164063-.105468l17.359375 17.359375c2.480468 2.480469 3.222656 6.210937 1.878906 9.453125-1.34375 3.242187-4.507812 5.359375-8.015625 5.359375zm0 0" fill="#bdc3c7"/><path d="m468.609375 215.464844v72.539062c0 4.511719 1.792969 8.835938 4.980469 12.027344l29.730468 29.730469v-156.203125l-29.625 29.628906c-3.257812 3.253906-5.085937 7.671875-5.085937 12.277344zm0 0" fill="#35495e"/><path d="m451.253906 416.542969h-17.355468c-4.792969 0-8.679688-3.886719-8.679688-8.679688s3.886719-8.675781 8.679688-8.675781h17.355468c4.792969 0 8.679688 3.882812 8.679688 8.675781s-3.886719 8.679688-8.679688 8.679688zm0 0" fill="#cc66a1"/><path d="m503.320312 416.542969h-17.355468c-4.792969 0-8.675782-3.886719-8.675782-8.679688s3.882813-8.675781 8.675782-8.675781h17.355468c4.792969 0 8.679688 3.882812 8.679688 8.675781s-3.886719 8.679688-8.679688 8.679688zm0 0" fill="#cc66a1"/><g fill="#527f72"><path d="m286.371094 433.898438c-14.375 0-26.03125-11.65625-26.03125-26.035157 0-14.378906 11.65625-26.03125 26.03125-26.03125l17.359375 8.675781v34.710938zm0 0"/><path d="m338.441406 390.507812c-2.300781 0-4.507812-.914062-6.136718-2.542968l-32.167969-32.167969h-13.765625c-4.789063 0-8.675782-3.886719-8.675782-8.679687 0-4.792969 3.886719-8.675782 8.675782-8.675782h17.359375c2.300781 0 4.507812.914063 6.132812 2.542969l34.710938 34.710937c2.484375 2.480469 3.226562 6.214844 1.882812 9.457032-1.34375 3.242187-4.507812 5.355468-8.015625 5.355468zm0 0"/><path d="m303.730469 477.289062h-17.359375c-4.789063 0-8.675782-3.886718-8.675782-8.679687s3.886719-8.675781 8.675782-8.675781h13.765625l23.492187-23.492188c3.402344-3.289062 8.816406-3.242187 12.164063.105469 3.347656 3.347656 3.394531 8.757813.105469 12.164063l-26.035157 26.035156c-1.625 1.625-3.832031 2.542968-6.132812 2.542968zm0 0"/><path d="m364.472656 381.832031c-3.507812-.003906-6.671875-2.117187-8.015625-5.359375-1.339843-3.242187-.597656-6.972656 1.882813-9.457031l26.035156-26.03125c1.625-1.628906 3.832031-2.542969 6.132812-2.542969h17.355469c4.792969 0 8.679688 3.882813 8.679688 8.675782 0 4.792968-3.886719 8.679687-8.679688 8.679687h-13.761719l-23.492187 23.492187c-1.625 1.625-3.832031 2.539063-6.136719 2.542969zm0 0"/><path d="m407.863281 477.289062h-17.355469c-2.300781 0-4.507812-.917968-6.132812-2.542968l-26.035156-26.035156c-3.289063-3.40625-3.242188-8.816407.105468-12.164063 3.347657-3.347656 8.757813-3.394531 12.164063-.105469l23.492187 23.492188h13.761719c4.792969 0 8.679688 3.882812 8.679688 8.675781s-3.886719 8.679687-8.679688 8.679687zm0 0"/><path d="m347.117188 373.152344c-4.792969 0-8.675782-3.886719-8.675782-8.679688v-26.03125c0-4.792968 3.882813-8.679687 8.675782-8.679687 4.792968 0 8.679687 3.886719 8.679687 8.679687v26.03125c0 4.792969-3.886719 8.679688-8.679687 8.679688zm0 0"/><path d="m347.117188 485.964844c-4.792969 0-8.675782-3.882813-8.675782-8.675782v-26.035156c0-4.792968 3.882813-8.675781 8.675782-8.675781 4.792968 0 8.679687 3.882813 8.679687 8.675781v26.035156c0 4.792969-3.886719 8.675782-8.679687 8.675782zm0 0"/></g><path d="m399.1875 407.863281h-104.136719c0-23.949219 23.34375-43.390625 52.066407-43.390625 28.726562 0 52.070312 19.441406 52.070312 43.390625zm0 0" fill="#4fba6f"/><path d="m399.1875 407.863281c0 23.953125-23.34375 43.390625-52.070312 43.390625-28.722657 0-52.066407-19.4375-52.066407-43.390625zm0 0" fill="#24ae5f"/></svg>