<svg height="512pt" viewBox="0 0 512 512.01064" width="512pt" xmlns="http://www.w3.org/2000/svg"><path d="m358.40625 110.945312c0 56.550782-45.847656 102.398438-102.402344 102.398438-56.550781 0-102.398437-45.847656-102.398437-102.398438 0-56.554687 45.847656-102.402343 102.398437-102.402343 56.554688 0 102.402344 45.847656 102.402344 102.402343zm0 0" fill="#cc4b4c"/><path d="m226.992188 223.5c-17.816407 9.542969-29.433594 27.617188-30.71875 47.785156.5625 33.710938 27.730468 60.914063 61.4375 61.527344 15.855468-.449219 30.878906-7.179688 41.765624-18.714844 10.882813-11.535156 16.734376-26.925781 16.261719-42.777344 0-9.605468-2.242187-19.078124-6.542969-27.664062-.566406-1.160156-1.773437-1.859375-3.058593-1.78125-1.285157.082031-2.398438.929688-2.8125 2.144531-3.660157 12.316407-9.898438 23.707031-18.304688 33.417969-13.652343 13.652344-23.894531 7.542969-27.308593 4.128906-3.414063-3.410156-6.824219-13.652344 6.828124-27.304687 17.78125-17.800781 20.25-47.855469-8.535156-74.242188-.871094-.792969-2.117187-1.039062-3.226562-.628906s-1.898438 1.402344-2.046875 2.578125c-.285157 16.992188-9.242188 32.660156-23.738281 41.53125zm0 0" fill="#f0c419"/><path d="m257.710938 315.742188c-24.261719-.621094-43.777344-20.160157-44.371094-44.421876 1.410156-14.132812 9.84375-26.609374 22.433594-33.1875 9.894531-5.738281 18.039062-14.0625 23.558593-24.082031.851563 2.675781 1.324219 5.457031 1.410157 8.261719.085937 7.476562-2.90625 14.660156-8.277344 19.867188-21.335938 21.390624-15.789063 42.496093-6.828125 51.453124 6.027343 6 14.179687 9.375 22.683593 9.386719 9.378907-.238281 18.351563-3.875 25.25-10.238281-6.664062 13.808594-20.53125 22.6875-35.859374 22.960938zm0 0" fill="#f29c1f"/><path d="m247.472656 145.078125c-.625 0-1.25-.070313-1.859375-.207031-2.210937-.488282-4.136719-1.835938-5.351562-3.746094-1.21875-1.910156-1.625-4.222656-1.136719-6.433594l17.066406-76.800781c1.023438-4.601563 5.585938-7.507813 10.191406-6.484375 4.601563 1.023438 7.507813 5.585938 6.484376 10.191406l-17.066407 76.796875c-.867187 3.90625-4.328125 6.683594-8.328125 6.683594zm0 0" fill="#fb7b76"/><path d="m290.136719 128.011719c-3.761719.003906-7.082031-2.457031-8.175781-6.054688-1.089844-3.601562.304687-7.492187 3.433593-9.578125l14.984375-9.96875-14.949218-9.964844c-3.921876-2.617187-4.980469-7.917968-2.363282-11.835937 2.613282-3.921875 7.914063-4.980469 11.832032-2.363281l25.601562 17.066406c2.375 1.582031 3.800781 4.246094 3.800781 7.097656 0 2.851563-1.425781 5.515625-3.800781 7.101563l-25.601562 17.066406c-1.40625.9375-3.066407 1.4375-4.761719 1.433594zm0 0" fill="#fb7b76"/><path d="m221.871094 128.011719c-1.683594-.003907-3.328125-.5-4.726563-1.433594l-25.601562-17.066406c-2.371094-1.585938-3.796875-4.25-3.796875-7.101563 0-2.851562 1.425781-5.515625 3.796875-7.097656l25.601562-17.066406c3.921875-2.617188 9.21875-1.558594 11.835938 2.363281 2.617187 3.917969 1.558593 9.21875-2.363281 11.835937l-14.984376 9.964844 14.949219 9.96875c3.125 2.082032 4.519531 5.964844 3.4375 9.558594-1.085937 3.597656-4.390625 6.0625-8.148437 6.074219zm0 0" fill="#fb7b76"/><path d="m187.738281 195.800781c-2.101562.003907-4.128906-.773437-5.691406-2.175781-2.296875-2.050781-4.496094-4.199219-6.613281-6.425781-2.097656-2.214844-2.859375-5.375-1.992188-8.300781.867188-2.921876 3.226563-5.164063 6.191406-5.875 2.964844-.710938 6.082032.210937 8.183594 2.425781 1.796875 1.894531 3.667969 3.714843 5.613282 5.460937 2.636718 2.359375 3.542968 6.097656 2.28125 9.402344-1.265626 3.304688-4.433594 5.488281-7.972657 5.488281zm0 0" fill="#802f34"/><path d="m163.195312 162.785156c-3.3125 0-6.324218-1.917968-7.730468-4.917968-2.523438-5.382813-4.605469-10.964844-6.230469-16.691407-1.277344-4.535156 1.363281-9.253906 5.902344-10.53125 4.539062-1.28125 9.253906 1.359375 10.535156 5.898438 1.359375 4.828125 3.109375 9.539062 5.238281 14.082031 1.238282 2.636719 1.046875 5.71875-.507812 8.183594-1.554688 2.460937-4.257813 3.960937-7.171875 3.976562zm185.746094-.238281c-1.234375 0-2.457031-.265625-3.574218-.785156-2.054688-.953125-3.648438-2.679688-4.429688-4.804688s-.6875-4.472656.265625-6.53125c2.109375-4.558593 3.851563-9.28125 5.210937-14.121093 1.273438-4.539063 5.984376-7.1875 10.523438-5.914063s7.1875 5.984375 5.914062 10.523437c-1.609374 5.714844-3.667968 11.292969-6.160156 16.683594-1.398437 3.015625-4.421875 4.949219-7.75 4.949219zm-195.226562-47.675781h-.390625c-4.707031-.214844-8.347657-4.195313-8.140625-8.902344.265625-5.929688 1.003906-11.824219 2.199218-17.636719.507813-3.089843 2.660157-5.652343 5.617188-6.683593 2.953125-1.027344 6.234375-.359376 8.550781 1.746093 2.3125 2.105469 3.289063 5.3125 2.542969 8.347657-1.015625 4.929687-1.636719 9.925781-1.859375 14.953124-.195313 4.566407-3.949219 8.167969-8.519531 8.175782zm204.5625-.257813c-4.558594.003907-8.316406-3.570312-8.535156-8.125-.234376-5.019531-.867188-10.019531-1.894532-14.941406-.683594-3.007813.304688-6.148437 2.589844-8.222656 2.285156-2.070313 5.511719-2.746094 8.433594-1.769531 2.925781.976562 5.097656 3.457031 5.679687 6.484374 1.210938 5.808594 1.960938 11.703126 2.242188 17.632813.109375 2.257813-.683594 4.472656-2.207031 6.148437-1.519532 1.675782-3.648438 2.675782-5.90625 2.785157zm-190.832032-46.59375c-3.042968-.007812-5.851562-1.636719-7.371093-4.277343-1.515625-2.636719-1.515625-5.882813.007812-8.519532 2.988281-5.132812 6.386719-10.011718 10.15625-14.601562 1.929688-2.371094 4.980469-3.527344 8-3.03125 3.015625.496094 5.535157 2.570312 6.605469 5.433594 1.070312 2.863281.527344 6.082031-1.421875 8.433593-3.1875 3.886719-6.0625 8.019531-8.59375 12.355469-1.539063 2.617188-4.347656 4.21875-7.382813 4.207031zm176.980469-.21875c-3.039062-.007812-5.851562-1.632812-7.371093-4.269531-2.542969-4.328125-5.425782-8.445312-8.617188-12.320312-2.902344-3.644532-2.34375-8.9375 1.246094-11.898438 3.59375-2.960938 8.898437-2.496094 11.917968 1.042969 3.78125 4.578125 7.1875 9.453125 10.191407 14.574219 1.542969 2.640624 1.558593 5.902343.035156 8.554687-1.519531 2.652344-4.34375 4.289063-7.402344 4.289063zm-143.035156-34.9375c-3.796875 0-7.136719-2.507812-8.195313-6.15625-1.058593-3.648437.421876-7.554687 3.632813-9.585937 4.992187-3.164063 10.230469-5.929688 15.65625-8.269532 4.335937-1.855468 9.351563.15625 11.207031 4.488282 1.851563 4.332031-.15625 9.351562-4.492187 11.203125-4.617188 1.976562-9.070313 4.316406-13.320313 7-1.34375.847656-2.898437 1.308593-4.488281 1.320312zm109.066406-.136719c-1.605469.003907-3.175781-.449218-4.53125-1.304687-4.253906-2.675781-8.71875-5.003906-13.347656-6.964844-4.304687-1.855469-6.304687-6.839843-4.480469-11.15625 1.828125-4.320312 6.796875-6.355469 11.128906-4.558593 5.472657 2.316406 10.746094 5.070312 15.777344 8.234374 3.214844 2.023438 4.703125 5.933594 3.648438 9.585938-1.054688 3.648438-4.394532 6.164062-8.195313 6.164062zm-62.804687-15.308593c-4.714844.1875-8.683594-3.484375-8.871094-8.195313-.1875-4.714844 3.484375-8.683594 8.195312-8.871094 5.914063-.46875 11.855469-.46875 17.765626 0 3.039062.238282 5.722656 2.078126 7.035156 4.832032 1.316406 2.75 1.0625 5.992187-.664063 8.507812-1.726562 2.511719-4.660156 3.914063-7.699219 3.675782-5.015624-.390626-10.050781-.390626-15.0625 0-.234374.03125-.464843.046874-.699218.050781zm0 0" fill="#802f34"/><path d="m324.273438 195.800781c-3.539063 0-6.707032-2.183593-7.972657-5.488281-1.261719-3.304688-.355469-7.042969 2.28125-9.402344 1.945313-1.742187 3.816407-3.5625 5.613281-5.460937 2.097657-2.214844 5.21875-3.136719 8.183594-2.425781 2.964844.710937 5.324219 2.953124 6.191406 5.875.867188 2.925781.105469 6.085937-1.992187 8.300781-2.117187 2.226562-4.320313 4.375-6.613281 6.425781-1.5625 1.402344-3.589844 2.179688-5.691406 2.175781zm0 0" fill="#802f34"/><path d="m349.871094 264.542969h-8.53125c-4.714844 0-8.535156-3.820313-8.535156-8.53125 0-4.714844 3.820312-8.535157 8.535156-8.535157h8.53125c4.714844 0 8.535156 3.820313 8.535156 8.535157 0 4.710937-3.820312 8.53125-8.535156 8.53125zm0 0" fill="#f29c1f"/><path d="m458.671875 264.542969h-18.132813c-4.714843 0-8.535156-3.820313-8.535156-8.53125 0-4.714844 3.820313-8.535157 8.535156-8.535157h18.132813c4.714844 0 8.535156 3.820313 8.535156 8.535157 0 4.710937-3.820312 8.53125-8.535156 8.53125zm-54.398437 0h-18.136719c-4.710938 0-8.53125-3.820313-8.53125-8.53125 0-4.714844 3.820312-8.535157 8.53125-8.535157h18.136719c4.710937 0 8.53125 3.820313 8.53125 8.535157 0 4.710937-3.820313 8.53125-8.53125 8.53125zm0 0" fill="#f29c1f"/><path d="m503.472656 264.542969h-8.535156c-4.710938 0-8.53125-3.820313-8.53125-8.53125 0-4.714844 3.820312-8.535157 8.53125-8.535157h8.535156c4.710938 0 8.53125 3.820313 8.53125 8.535157 0 4.710937-3.820312 8.53125-8.53125 8.53125zm0 0" fill="#f29c1f"/><path d="m17.070312 264.542969h-8.53125c-4.714843 0-8.53515575-3.820313-8.53515575-8.53125 0-4.714844 3.82031275-8.535157 8.53515575-8.535157h8.53125c4.714844 0 8.535157 3.820313 8.535157 8.535157 0 4.710937-3.820313 8.53125-8.535157 8.53125zm0 0" fill="#f29c1f"/><path d="m125.871094 264.542969h-18.132813c-4.710937 0-8.53125-3.820313-8.53125-8.53125 0-4.714844 3.820313-8.535157 8.53125-8.535157h18.132813c4.714844 0 8.535156 3.820313 8.535156 8.535157 0 4.710937-3.820312 8.53125-8.535156 8.53125zm-54.398438 0h-18.132812c-4.714844 0-8.535156-3.820313-8.535156-8.53125 0-4.714844 3.820312-8.535157 8.535156-8.535157h18.132812c4.710938 0 8.53125 3.820313 8.53125 8.535157 0 4.710937-3.820312 8.53125-8.53125 8.53125zm0 0" fill="#f29c1f"/><path d="m170.671875 264.542969h-8.535156c-4.710938 0-8.53125-3.820313-8.53125-8.53125 0-4.714844 3.820312-8.535157 8.53125-8.535157h8.535156c4.714844 0 8.535156 3.820313 8.535156 8.535157 0 4.710937-3.820312 8.53125-8.535156 8.53125zm0 0" fill="#f29c1f"/><g fill="#527f72"><path d="m409.605469 341.34375c-8.53125-9.777344-8.53125-24.355469 0-34.132812 4.597656-4.640626 10.597656-7.636719 17.066406-8.535157 6.472656.898438 12.46875 3.894531 17.066406 8.535157 8.53125 9.777343 8.53125 24.355468 0 34.132812zm0 0"/><path d="m452.273438 366.945312c-3.453126-.003906-6.5625-2.082031-7.882813-5.269531s-.589844-6.859375 1.847656-9.296875l23.101563-23.101562v-13.535156c0-4.710938 3.820312-8.53125 8.53125-8.53125 4.714844 0 8.535156 3.820312 8.535156 8.53125v17.070312c0 2.261719-.902344 4.429688-2.5 6.03125l-25.601562 25.601562c-1.597657 1.597657-3.769532 2.5-6.03125 2.5zm0 0"/><path d="m401.070312 366.945312c-2.261718 0-4.429687-.902343-6.03125-2.5l-25.601562-25.601562c-1.597656-1.601562-2.5-3.769531-2.5-6.03125v-17.070312c0-4.710938 3.820312-8.53125 8.535156-8.53125 4.710938 0 8.53125 3.820312 8.53125 8.53125v13.535156l23.101563 23.101562c2.4375 2.4375 3.167969 6.109375 1.847656 9.296875s-4.429687 5.265625-7.882813 5.269531zm0 0"/><path d="m477.871094 443.742188c-4.710938 0-8.53125-3.820313-8.53125-8.53125v-13.535157l-23.101563-23.097656c-3.234375-3.347656-3.1875-8.671875.105469-11.964844 3.289062-3.289062 8.613281-3.335937 11.960938-.101562l25.601562 25.597656c1.597656 1.601563 2.5 3.773437 2.5 6.035156v17.066407c0 4.710937-3.820312 8.53125-8.535156 8.53125zm0 0"/><path d="m375.472656 443.742188c-4.714844 0-8.535156-3.820313-8.535156-8.53125v-17.066407c0-2.261719.902344-4.433593 2.5-6.035156l25.601562-25.597656c3.347657-3.234375 8.671876-3.1875 11.960938.101562 3.292969 3.292969 3.339844 8.617188.105469 11.964844l-23.101563 23.097656v13.535157c0 4.710937-3.820312 8.53125-8.53125 8.53125zm0 0"/><path d="m486.40625 384.011719h-25.601562c-4.710938 0-8.53125-3.820313-8.53125-8.535157 0-4.710937 3.820312-8.53125 8.53125-8.53125h25.601562c4.710938 0 8.53125 3.820313 8.53125 8.53125 0 4.714844-3.820312 8.535157-8.53125 8.535157zm0 0"/><path d="m392.539062 384.011719h-25.601562c-4.710938 0-8.53125-3.820313-8.53125-8.535157 0-4.710937 3.820312-8.53125 8.53125-8.53125h25.601562c4.710938 0 8.53125 3.820313 8.53125 8.53125 0 4.714844-3.820312 8.535157-8.53125 8.535157zm0 0"/></g><path d="m460.804688 375.476562c0 24.746094-15.273438 42.667969-34.132813 42.667969v-85.332031c18.859375 0 34.132813 17.917969 34.132813 42.664062zm0 0" fill="#4fba6f"/><path d="m426.671875 332.8125v85.332031c-18.859375 0-34.132813-17.921875-34.132813-42.667969 0-24.746093 15.273438-42.664062 34.132813-42.664062zm0 0" fill="#24ae5f"/><path d="m230.40625 409.609375c-8.53125-9.777344-8.53125-24.355469 0-34.132813 4.597656-4.636718 10.59375-7.636718 17.066406-8.53125 6.46875.894532 12.464844 3.894532 17.066406 8.53125 8.53125 9.777344 8.53125 24.355469 0 34.132813zm0 0" fill="#527f72"/><path d="m273.070312 435.210938c-3.449218 0-6.558593-2.082032-7.878906-5.269532-1.320312-3.1875-.59375-6.855468 1.847656-9.296875l23.097657-23.101562v-13.53125c0-4.714844 3.824219-8.535157 8.535156-8.535157 4.714844 0 8.535156 3.820313 8.535156 8.535157v17.066406c-.003906 2.261719-.902343 4.433594-2.503906 6.03125l-25.597656 25.601563c-1.601563 1.601562-3.769531 2.5-6.035157 2.5zm0 0" fill="#527f72"/><path d="m221.871094 435.210938c-2.261719 0-4.433594-.898438-6.03125-2.5l-25.601563-25.601563c-1.601562-1.597656-2.5-3.769531-2.5-6.03125v-17.066406c0-4.714844 3.820313-8.535157 8.535157-8.535157 4.710937 0 8.53125 3.820313 8.53125 8.535157v13.53125l23.101562 23.101562c2.4375 2.441407 3.167969 6.109375 1.847656 9.296875-1.320312 3.1875-4.429687 5.269532-7.882812 5.269532zm0 0" fill="#527f72"/><path d="m298.671875 512.011719c-4.710937 0-8.535156-3.820313-8.535156-8.535157v-13.53125l-23.097657-23.101562c-3.234374-3.347656-3.1875-8.671875.105469-11.960938 3.289063-3.292968 8.613281-3.339843 11.960938-.105468l25.597656 25.601562c1.601563 1.597656 2.5 3.769532 2.503906 6.03125v17.066406c0 4.714844-3.820312 8.535157-8.535156 8.535157zm0 0" fill="#527f72"/><path d="m196.273438 512.011719c-4.714844 0-8.535157-3.820313-8.535157-8.535157v-17.066406c0-2.261718.898438-4.433594 2.5-6.03125l25.601563-25.601562c3.347656-3.234375 8.667968-3.1875 11.960937.105468 3.292969 3.289063 3.339844 8.613282.105469 11.960938l-23.101562 23.101562v13.53125c0 4.714844-3.820313 8.535157-8.53125 8.535157zm0 0" fill="#527f72"/><path d="m307.207031 452.277344h-25.601562c-4.714844 0-8.535157-3.820313-8.535157-8.535156 0-4.710938 3.820313-8.53125 8.535157-8.53125h25.601562c4.710938 0 8.53125 3.820312 8.53125 8.53125 0 4.714843-3.820312 8.535156-8.53125 8.535156zm0 0" fill="#527f72"/><path d="m213.339844 452.277344h-25.601563c-4.710937 0-8.53125-3.820313-8.53125-8.535156 0-4.710938 3.820313-8.53125 8.53125-8.53125h25.601563c4.710937 0 8.53125 3.820312 8.53125 8.53125 0 4.714843-3.820313 8.535156-8.53125 8.535156zm0 0" fill="#527f72"/><path d="m281.605469 443.742188c0 24.75-15.273438 42.667968-34.132813 42.667968v-85.332031c18.859375 0 34.132813 17.917969 34.132813 42.664063zm0 0" fill="#4fba6f"/><path d="m247.472656 401.078125v85.332031c-18.859375 0-34.132812-17.917968-34.132812-42.667968 0-24.746094 15.273437-42.664063 34.132812-42.664063zm0 0" fill="#24ae5f"/><path d="m68.273438 341.34375c-8.535157-9.777344-8.535157-24.355469 0-34.132812 4.597656-4.640626 10.59375-7.636719 17.066406-8.535157 6.46875.898438 12.464844 3.894531 17.066406 8.535157 8.53125 9.777343 8.53125 24.355468 0 34.132812zm0 0" fill="#527f72"/><path d="m110.9375 366.945312c-3.449219-.003906-6.558594-2.082031-7.882812-5.269531-1.320313-3.1875-.589844-6.859375 1.851562-9.296875l23.097656-23.101562v-13.535156c0-4.710938 3.820313-8.53125 8.535156-8.53125 4.710938 0 8.53125 3.820312 8.53125 8.53125v17.070312c0 2.261719-.898437 4.429688-2.5 6.03125l-25.597656 25.601562c-1.601562 1.597657-3.769531 2.5-6.035156 2.5zm0 0" fill="#527f72"/><path d="m59.738281 366.945312c-2.261719 0-4.433593-.902343-6.03125-2.5l-25.601562-25.601562c-1.601563-1.601562-2.5-3.769531-2.5-6.03125v-17.070312c0-4.710938 3.820312-8.53125 8.53125-8.53125 4.714843 0 8.535156 3.820312 8.535156 8.53125v13.535156l23.101563 23.101562c2.4375 2.4375 3.167968 6.109375 1.847656 9.296875-1.320313 3.1875-4.429688 5.265625-7.882813 5.269531zm0 0" fill="#527f72"/><path d="m136.539062 443.742188c-4.714843 0-8.535156-3.820313-8.535156-8.53125v-13.535157l-23.097656-23.097656c-3.234375-3.347656-3.1875-8.671875.101562-11.964844 3.292969-3.289062 8.617188-3.335937 11.964844-.101562l25.597656 25.597656c1.601563 1.601563 2.5 3.773437 2.5 6.035156v17.066407c0 4.710937-3.820312 8.53125-8.53125 8.53125zm0 0" fill="#527f72"/><path d="m34.136719 443.742188c-4.710938 0-8.53125-3.820313-8.53125-8.53125v-17.066407c0-2.261719.898437-4.433593 2.5-6.035156l25.601562-25.597656c3.347657-3.234375 8.667969-3.1875 11.960938.101562 3.292969 3.292969 3.335937 8.617188.105469 11.964844l-23.101563 23.097656v13.535157c0 4.710937-3.820313 8.53125-8.535156 8.53125zm0 0" fill="#527f72"/><path d="m145.070312 384.011719h-25.597656c-4.714844 0-8.535156-3.820313-8.535156-8.535157 0-4.710937 3.820312-8.53125 8.535156-8.53125h25.597656c4.714844 0 8.535157 3.820313 8.535157 8.53125 0 4.714844-3.820313 8.535157-8.535157 8.535157zm0 0" fill="#527f72"/><path d="m51.207031 384.011719h-25.601562c-4.714844 0-8.535157-3.820313-8.535157-8.535157 0-4.710937 3.820313-8.53125 8.535157-8.53125h25.601562c4.710938 0 8.53125 3.820313 8.53125 8.53125 0 4.714844-3.820312 8.535157-8.53125 8.535157zm0 0" fill="#527f72"/><path d="m119.472656 375.476562c0 24.746094-15.273437 42.667969-34.132812 42.667969v-85.332031c18.859375 0 34.132812 17.917969 34.132812 42.664062zm0 0" fill="#4fba6f"/><path d="m85.339844 332.8125v85.332031c-18.859375 0-34.132813-17.921875-34.132813-42.667969 0-24.746093 15.273438-42.664062 34.132813-42.664062zm0 0" fill="#24ae5f"/></svg>