<svg height="512pt" viewBox="-4 0 512 512" width="512pt" xmlns="http://www.w3.org/2000/svg"><path d="m8.679688 425.21875c-4.792969 0-8.679688-3.882812-8.679688-8.675781v-52.070313c0-4.789062 3.886719-8.675781 8.679688-8.675781 4.789062 0 8.675781 3.886719 8.675781 8.675781v52.070313c0 4.792969-3.886719 8.675781-8.675781 8.675781zm0 0" fill="#b49aca"/><path d="m43.390625 425.21875c-4.792969 0-8.679687-3.882812-8.679687-8.675781v-52.070313c0-4.789062 3.886718-8.675781 8.679687-8.675781s8.675781 3.886719 8.675781 8.675781v52.070313c0 4.792969-3.882812 8.675781-8.675781 8.675781zm0 0" fill="#b49aca"/><path d="m104.136719 425.21875h-17.355469c-9.585938 0-17.359375-7.769531-17.359375-17.355469v-34.710937c0-9.585938 7.773437-17.355469 17.359375-17.355469h17.355469c9.585937 0 17.355469 7.769531 17.355469 17.355469v34.710937c0 9.585938-7.769532 17.355469-17.355469 17.355469zm-17.355469-52.066406v34.710937h17.355469v-34.710937zm0 0" fill="#3d324c"/><path d="m251.660156 425.21875c-4.792968 0-8.675781-3.882812-8.675781-8.675781v-43.390625c0-4.792969 3.882813-8.679688 8.675781-8.679688 4.792969 0 8.679688 3.886719 8.679688 8.679688v43.390625c0 4.792969-3.886719 8.675781-8.679688 8.675781zm0 0" fill="#b49aca"/><path d="m286.371094 425.21875c-4.789063 0-8.675782-3.882812-8.675782-8.675781v-52.070313c0-4.789062 3.886719-8.675781 8.675782-8.675781 4.792968 0 8.679687 3.886719 8.679687 8.675781v52.070313c0 4.792969-3.886719 8.675781-8.679687 8.675781zm0 0" fill="#b49aca"/><path d="m216.949219 425.21875c-4.792969 0-8.679688-3.882812-8.679688-8.675781v-52.070313c0-4.789062 3.886719-8.675781 8.679688-8.675781s8.679687 3.886719 8.679687 8.675781v52.070313c0 4.792969-3.886718 8.675781-8.679687 8.675781zm0 0" fill="#b49aca"/><path d="m425.21875 425.21875c-4.792969 0-8.675781-3.882812-8.675781-8.675781v-52.070313c0-4.789062 3.882812-8.675781 8.675781-8.675781s8.679688 3.886719 8.679688 8.675781v52.070313c0 4.792969-3.886719 8.675781-8.679688 8.675781zm0 0"/><path d="m425.21875 425.21875c-4.792969 0-8.675781-3.882812-8.675781-8.675781v-52.070313c0-4.789062 3.882812-8.675781 8.675781-8.675781s8.679688 3.886719 8.679688 8.675781v52.070313c0 4.792969-3.886719 8.675781-8.679688 8.675781zm0 0" fill="#b49aca"/><path d="m390.507812 425.21875c-4.792968 0-8.675781-3.882812-8.675781-8.675781v-52.070313c0-4.789062 3.882813-8.675781 8.675781-8.675781 4.792969 0 8.679688 3.886719 8.679688 8.675781v52.070313c0 4.792969-3.886719 8.675781-8.679688 8.675781zm0 0"/><path d="m390.507812 425.21875c-4.792968 0-8.675781-3.882812-8.675781-8.675781v-52.070313c0-4.789062 3.882813-8.675781 8.675781-8.675781 4.792969 0 8.679688 3.886719 8.679688 8.675781v52.070313c0 4.792969-3.886719 8.675781-8.679688 8.675781zm0 0" fill="#b49aca"/><path d="m347.117188 425.21875h-17.355469c-9.585938 0-17.355469-7.769531-17.355469-17.355469v-34.710937c0-9.585938 7.769531-17.355469 17.355469-17.355469h17.355469c9.585937 0 17.355468 7.769531 17.355468 17.355469v34.710937c0 9.585938-7.769531 17.355469-17.355468 17.355469zm-17.355469-52.066406v34.710937h17.355469v-34.710937zm0 0" fill="#3d324c"/><path d="m173.558594 425.21875h-17.355469c-9.585937 0-17.355469-7.769531-17.355469-17.355469v-34.710937c0-9.585938 7.769532-17.355469 17.355469-17.355469h17.355469c9.585937 0 17.355468 7.769531 17.355468 17.355469v34.710937c0 9.585938-7.769531 17.355469-17.355468 17.355469zm-17.355469-52.066406v34.710937h17.355469v-34.710937zm0 0" fill="#3d324c"/><path d="m485.964844 425.21875h-17.355469c-9.585937 0-17.355469-7.769531-17.355469-17.355469v-34.710937c0-9.585938 7.769532-17.355469 17.355469-17.355469h17.355469c9.585937 0 17.355468 7.769531 17.355468 17.355469v34.710937c0 9.585938-7.769531 17.355469-17.355468 17.355469zm-17.355469-52.066406v34.710937h17.355469v-34.710937zm0 0" fill="#3d324c"/><path d="m8.679688 512c-4.792969 0-8.679688-3.886719-8.679688-8.679688v-52.066406c0-4.792968 3.886719-8.675781 8.679688-8.675781 4.789062 0 8.675781 3.882813 8.675781 8.675781v52.066406c0 4.792969-3.886719 8.679688-8.675781 8.679688zm0 0" fill="#b49aca"/><path d="m43.390625 512c-4.792969 0-8.679687-3.886719-8.679687-8.679688v-52.066406c0-4.792968 3.886718-8.675781 8.679687-8.675781s8.675781 3.882813 8.675781 8.675781v52.066406c0 4.792969-3.882812 8.679688-8.675781 8.679688zm0 0" fill="#b49aca"/><path d="m104.136719 512h-17.355469c-9.585938 0-17.359375-7.769531-17.359375-17.355469v-34.710937c0-9.585938 7.773437-17.355469 17.359375-17.355469h17.355469c9.585937 0 17.355469 7.769531 17.355469 17.355469v34.710937c0 9.585938-7.769532 17.355469-17.355469 17.355469zm-17.355469-52.066406v34.710937h17.355469v-34.710937zm0 0" fill="#3d324c"/><path d="m286.371094 512c-4.789063 0-8.675782-3.886719-8.675782-8.679688v-52.066406c0-4.792968 3.886719-8.675781 8.675782-8.675781 4.792968 0 8.679687 3.882813 8.679687 8.675781v52.066406c0 4.792969-3.886719 8.679688-8.679687 8.679688zm0 0" fill="#b49aca"/><path d="m182.238281 512c-4.792969 0-8.679687-3.886719-8.679687-8.679688v-52.066406c0-4.792968 3.886718-8.675781 8.679687-8.675781s8.675781 3.882813 8.675781 8.675781v52.066406c0 4.792969-3.882812 8.679688-8.675781 8.679688zm0 0" fill="#b49aca"/><path d="m147.527344 512c-4.792969 0-8.679688-3.886719-8.679688-8.679688v-52.066406c0-4.792968 3.886719-8.675781 8.679688-8.675781 4.789062 0 8.675781 3.882813 8.675781 8.675781v52.066406c0 4.792969-3.886719 8.679688-8.675781 8.679688zm0 0" fill="#b49aca"/><path d="m494.644531 512c-4.792969 0-8.679687-3.886719-8.679687-8.679688v-52.066406c0-4.792968 3.886718-8.675781 8.679687-8.675781s8.675781 3.882813 8.675781 8.675781v52.066406c0 4.792969-3.882812 8.679688-8.675781 8.679688zm0 0"/><path d="m494.644531 512c-4.792969 0-8.679687-3.886719-8.679687-8.679688v-52.066406c0-4.792968 3.886718-8.675781 8.679687-8.675781s8.675781 3.882813 8.675781 8.675781v52.066406c0 4.792969-3.882812 8.679688-8.675781 8.679688zm0 0" fill="#b49aca"/><path d="m390.507812 512c-4.792968 0-8.675781-3.886719-8.675781-8.679688v-52.066406c0-4.792968 3.882813-8.675781 8.675781-8.675781 4.792969 0 8.679688 3.882813 8.679688 8.675781v52.066406c0 4.792969-3.886719 8.679688-8.679688 8.679688zm0 0"/><path d="m390.507812 512c-4.792968 0-8.675781-3.886719-8.675781-8.679688v-52.066406c0-4.792968 3.882813-8.675781 8.675781-8.675781 4.792969 0 8.679688 3.882813 8.679688 8.675781v52.066406c0 4.792969-3.886719 8.679688-8.679688 8.679688zm0 0" fill="#b49aca"/><path d="m347.117188 512h-17.355469c-9.585938 0-17.355469-7.769531-17.355469-17.355469v-34.710937c0-9.585938 7.769531-17.355469 17.355469-17.355469h17.355469c9.585937 0 17.355468 7.769531 17.355468 17.355469v34.710937c0 9.585938-7.769531 17.355469-17.355468 17.355469zm-17.355469-52.066406v34.710937h17.355469v-34.710937zm0 0" fill="#3d324c"/><path d="m242.984375 512h-17.355469c-9.585937 0-17.359375-7.769531-17.359375-17.355469v-34.710937c0-9.585938 7.773438-17.355469 17.359375-17.355469h17.355469c9.585937 0 17.355469 7.769531 17.355469 17.355469v34.710937c0 9.585938-7.769532 17.355469-17.355469 17.355469zm-17.355469-52.066406v34.710937h17.355469v-34.710937zm0 0" fill="#3d324c"/><path d="m451.253906 512h-17.355468c-9.585938 0-17.355469-7.769531-17.355469-17.355469v-34.710937c0-9.585938 7.769531-17.355469 17.355469-17.355469h17.355468c9.585938 0 17.355469 7.769531 17.355469 17.355469v34.710937c0 9.585938-7.769531 17.355469-17.355469 17.355469zm-17.355468-52.066406v34.710937h17.355468v-34.710937zm0 0" fill="#3d324c"/><path d="m8.679688 338.441406c-4.792969 0-8.679688-3.886718-8.679688-8.679687v-52.066407c0-4.792968 3.886719-8.679687 8.679688-8.679687 4.789062 0 8.675781 3.886719 8.675781 8.679687v52.066407c0 4.792969-3.886719 8.679687-8.675781 8.679687zm0 0" fill="#b49aca"/><path d="m112.8125 338.441406c-4.792969 0-8.675781-3.886718-8.675781-8.679687v-52.066407c0-4.792968 3.882812-8.679687 8.675781-8.679687s8.679688 3.886719 8.679688 8.679687v52.066407c0 4.792969-3.886719 8.679687-8.679688 8.679687zm0 0"/><path d="m112.8125 338.441406c-4.792969 0-8.675781-3.886718-8.675781-8.679687v-52.066407c0-4.792968 3.882812-8.679687 8.675781-8.679687s8.679688 3.886719 8.679688 8.679687v52.066407c0 4.792969-3.886719 8.679687-8.679688 8.679687zm0 0" fill="#b49aca"/><path d="m69.421875 338.441406h-17.355469c-9.585937 0-17.355468-7.769531-17.355468-17.355468v-34.714844c0-9.582032 7.769531-17.355469 17.355468-17.355469h17.355469c9.585937 0 17.359375 7.773437 17.359375 17.355469v34.714844c0 9.585937-7.773438 17.355468-17.359375 17.355468zm-17.355469-52.070312v34.714844h17.355469v-34.714844zm0 0" fill="#3d324c"/><path d="m182.238281 338.441406h-26.035156c-9.585937 0-17.355469-7.769531-17.355469-17.355468v-34.714844c0-9.582032 7.769532-17.355469 17.355469-17.355469h26.035156c4.792969 0 8.675781 3.886719 8.675781 8.679687 0 4.792969-3.882812 8.675782-8.675781 8.675782h-26.035156v34.714844h26.035156c4.792969 0 8.675781 3.882812 8.675781 8.675781s-3.882812 8.679687-8.675781 8.679687zm0 0" fill="#b49aca"/><path d="m494.644531 338.441406c-4.792969 0-8.679687-3.886718-8.679687-8.679687v-52.066407c0-4.792968 3.886718-8.679687 8.679687-8.679687s8.675781 3.886719 8.675781 8.679687v52.066407c0 4.792969-3.882812 8.679687-8.675781 8.679687zm0 0" fill="#b49aca"/><path d="m390.507812 338.441406c-4.792968 0-8.675781-3.886718-8.675781-8.679687v-52.066407c0-4.792968 3.882813-8.679687 8.675781-8.679687 4.792969 0 8.679688 3.886719 8.679688 8.679687v52.066407c0 4.792969-3.886719 8.679687-8.679688 8.679687zm0 0"/><path d="m390.507812 338.441406c-4.792968 0-8.675781-3.886718-8.675781-8.679687v-52.066407c0-4.792968 3.882813-8.679687 8.675781-8.679687 4.792969 0 8.679688 3.886719 8.679688 8.679687v52.066407c0 4.792969-3.886719 8.679687-8.679688 8.679687zm0 0" fill="#b49aca"/><path d="m451.253906 338.441406h-17.355468c-9.585938 0-17.355469-7.769531-17.355469-17.355468v-34.714844c0-9.582032 7.769531-17.355469 17.355469-17.355469h17.355468c9.585938 0 17.355469 7.773437 17.355469 17.355469v34.714844c0 9.585937-7.769531 17.355468-17.355469 17.355468zm-17.355468-52.070312v34.714844h17.355468v-34.714844zm0 0" fill="#3d324c"/><path d="m347.117188 338.441406h-26.03125c-4.792969 0-8.679688-3.886718-8.679688-8.679687s3.886719-8.675781 8.679688-8.675781h26.03125v-34.714844h-26.03125c-4.792969 0-8.679688-3.882813-8.679688-8.675782 0-4.792968 3.886719-8.679687 8.679688-8.679687h26.03125c9.585937 0 17.355468 7.773437 17.355468 17.355469v34.714844c0 9.585937-7.769531 17.355468-17.355468 17.355468zm0 0" fill="#b49aca"/><path d="m321.085938 303.730469c0 38.339843-31.082032 69.421875-69.425782 69.421875-38.339844 0-69.421875-31.082032-69.421875-69.421875 0-38.34375 31.082031-69.425781 69.421875-69.425781 38.34375 0 69.425782 31.082031 69.425782 69.425781zm0 0" fill="#4482c3"/><path d="m321.085938 69.421875c0 38.34375-31.082032 69.425781-69.425782 69.425781-38.339844 0-69.421875-31.082031-69.421875-69.425781 0-38.339844 31.082031-69.421875 69.421875-69.421875 38.34375 0 69.425782 31.082031 69.425782 69.421875zm0 0" fill="#cc4b4c"/><g fill="#f0c419"><path d="m251.660156 208.269531c-4.792968 0-8.675781-3.882812-8.675781-8.675781v-8.679688c0-4.792968 3.882813-8.675781 8.675781-8.675781 4.792969 0 8.679688 3.882813 8.679688 8.675781v8.679688c0 4.792969-3.886719 8.675781-8.679688 8.675781zm0 0"/><path d="m251.660156 164.882812c-4.792968 0-8.675781-3.886718-8.675781-8.679687v-8.675781c0-4.792969 3.882813-8.679688 8.675781-8.679688 4.792969 0 8.679688 3.886719 8.679688 8.679688v8.675781c0 4.792969-3.886719 8.679687-8.679688 8.679687zm0 0"/><path d="m251.660156 86.78125c-4.792968 0-8.675781-3.886719-8.675781-8.679688v-43.390624c0-4.792969 3.882813-8.675782 8.675781-8.675782 4.792969 0 8.679688 3.882813 8.679688 8.675782v43.390624c0 4.792969-3.886719 8.679688-8.679688 8.679688zm0 0"/><path d="m260.339844 104.136719c0 4.792969-3.886719 8.675781-8.679688 8.675781-4.792968 0-8.675781-3.882812-8.675781-8.675781s3.882813-8.679688 8.675781-8.679688c4.792969 0 8.679688 3.886719 8.679688 8.679688zm0 0"/></g><path d="m260.339844 338.441406h-17.355469c-9.585937 0-17.355469-7.769531-17.355469-17.355468v-34.714844c0-9.582032 7.769532-17.355469 17.355469-17.355469h17.355469c9.585937 0 17.355468 7.773437 17.355468 17.355469v34.714844c0 9.585937-7.769531 17.355468-17.355468 17.355468zm-17.355469-52.070312v34.714844h17.355469v-34.714844zm0 0" fill="#285680"/></svg>