<svg height="512pt" viewBox="0 0 512 512" width="512pt" xmlns="http://www.w3.org/2000/svg"><path d="m512 256c0 141.386719-114.613281 256-256 256s-256-114.613281-256-256 114.613281-256 256-256 256 114.613281 256 256zm0 0" fill="#fb7b76"/><path d="m397.242188 251.585938c0 78.003906-63.238282 141.242187-141.242188 141.242187s-141.242188-63.238281-141.242188-141.242187c0-78.003907 63.238282-141.242188 141.242188-141.242188s141.242188 63.238281 141.242188 141.242188zm0 0" fill="#ecf0f1"/><g fill="#cc4b4c"><path d="m286.898438 251.585938c0 17.0625-13.835938 30.898437-30.898438 30.898437s-30.898438-13.835937-30.898438-30.898437 13.835938-30.894532 30.898438-30.894532 30.898438 13.832032 30.898438 30.894532zm0 0"/><path d="m264.828125 247.171875c-3.570313 0-6.789063-2.152344-8.15625-5.449219-1.363281-3.296875-.609375-7.09375 1.914063-9.617187l167.726562-167.726563c3.460938-3.34375 8.96875-3.296875 12.371094.109375 3.40625 3.402344 3.453125 8.910157.109375 12.375l-167.722657 167.722657c-1.65625 1.65625-3.902343 2.585937-6.242187 2.585937zm0 0"/><path d="m406.070312 105.929688c-2.308593.007812-4.527343-.886719-6.179687-2.496094-38.359375-37.828125-90.019531-59.113282-143.890625-59.296875-4.875 0-8.828125-3.949219-8.828125-8.828125 0-4.875 3.953125-8.824219 8.828125-8.824219 58.488281.15625 114.585938 23.238281 156.25 64.289063 2.578125 2.507812 3.378906 6.332031 2.019531 9.664062s-4.601562 5.503906-8.199219 5.492188zm0 0"/><path d="m379.585938 132.414062c-2.304688.011719-4.523438-.878906-6.179688-2.480468-31.039062-31.515625-73.179688-49.636719-117.40625-50.484375-4.875 0-8.828125-3.953125-8.828125-8.828125s3.953125-8.828125 8.828125-8.828125c48.878906.632812 95.523438 20.5625 129.765625 55.445312 2.59375 2.507813 3.398437 6.335938 2.039063 9.675781-1.359376 3.339844-4.613282 5.519532-8.21875 5.5zm0 0"/><path d="m326.621094 185.378906c-2.25.003906-4.417969-.851562-6.054688-2.390625-17.730468-15.863281-40.78125-24.464843-64.566406-24.089843-4.875 0-8.828125-3.953126-8.828125-8.828126s3.953125-8.828124 8.828125-8.828124c28.28125-.363282 55.660156 9.949218 76.675781 28.875 2.640625 2.480468 3.5 6.320312 2.164063 9.691406-1.335938 3.367187-4.597656 5.574218-8.21875 5.570312zm0 0"/><path d="m300.136719 211.863281c-2.195313-.003906-4.316407-.824219-5.941407-2.304687-10.351562-9.734375-23.988281-15.214844-38.195312-15.351563-4.875 0-8.828125-3.953125-8.828125-8.828125s3.953125-8.828125 8.828125-8.828125c18.617188.078125 36.511719 7.210938 50.078125 19.960938 2.695313 2.453125 3.601563 6.3125 2.285156 9.707031-1.3125 3.398438-4.582031 5.640625-8.226562 5.644531zm0 0"/><path d="m105.929688 158.898438c0 9.75-7.902344 17.652343-17.652344 17.652343-9.753906 0-17.65625-7.902343-17.65625-17.652343 0-9.753907 7.902344-17.65625 17.65625-17.65625 9.75 0 17.652344 7.902343 17.652344 17.65625zm0 0"/><path d="m185.378906 247.171875c0 9.75-7.902344 17.65625-17.65625 17.65625-9.75 0-17.652344-7.90625-17.652344-17.65625s7.902344-17.65625 17.652344-17.65625c9.753906 0 17.65625 7.90625 17.65625 17.65625zm0 0"/><path d="m88.277344 326.621094c0 9.75-7.90625 17.65625-17.65625 17.65625s-17.65625-7.90625-17.65625-17.65625 7.90625-17.65625 17.65625-17.65625 17.65625 7.90625 17.65625 17.65625zm0 0"/></g></svg>