<svg height="512pt" viewBox="-97 0 512 512.00002" width="512pt" xmlns="http://www.w3.org/2000/svg"><path d="m256 335.449219c33.96875-35.3125 61.792969-105.542969 61.792969-167.726563v-98.082031c.035156-5.316406-2.363281-10.359375-6.511719-13.683594-4.148438-3.328125-9.589844-4.574219-14.769531-3.390625-13.269531 3.449219-27.179688 3.585938-40.511719.398438-26.578125-7.0625-97.101562-52.964844-97.101562-52.964844s-61.699219 45.902344-88.277344 52.964844c-16.355469 3.355468-33.257813 2.953125-49.433594-1.171875-5.167969-1.148438-10.574219.117187-14.695312 3.4375-4.121094 3.320312-6.5117192 8.332031-6.492188 13.625v98.867187c0 62.183594 27.171875 133.105469 61.792969 167.726563zm0 0" fill="#4482c3"/><path d="m317.792969 370.757812v123.851563c.007812 4.613281-1.824219 9.042969-5.085938 12.304687-3.261719 3.261719-7.691406 5.09375-12.304687 5.085938h-283.011719c-4.613281.007812-9.042969-1.824219-12.304687-5.085938-3.261719-3.261718-5.0937505-7.691406-5.085938-12.304687v-123.851563l61.792969 41.226563 87.304687 58.171875c5.921875 4.003906 13.679688 4.003906 19.597656 0l87.304688-58.171875zm0 0" fill="#f3d55b"/><path d="m317.792969 370.757812-61.792969 41.226563-87.304688 58.171875c-5.917968 4.003906-13.675781 4.003906-19.597656 0l-87.304687-58.171875-61.792969-41.226563 61.792969-44.136718 52.964843-35.3125 24.277344-20.035156c11.695313-8.566407 27.589844-8.566407 39.28125 0l24.628906 19.949218.089844.085938 52.964844 35.3125zm0 0" fill="#f0c419"/><path d="m158.898438 61.792969c9.75 0 17.652343 7.90625 17.652343 17.65625v61.792969c0 9.75-7.902343 17.65625-17.652343 17.65625-9.753907 0-17.65625-7.90625-17.65625-17.65625v-61.792969c0-9.75 7.902343-17.65625 17.65625-17.65625zm0 0" fill="#b0d3f0"/><path d="m176.550781 211.863281c0 9.75-7.902343 17.652344-17.652343 17.652344-9.753907 0-17.65625-7.902344-17.65625-17.652344s7.902343-17.65625 17.65625-17.65625c9.75 0 17.652343 7.90625 17.652343 17.65625zm0 0" fill="#b0d3f0"/><path d="m256 300.136719v111.847656l-87.304688 58.171875c-5.917968 4.003906-13.675781 4.003906-19.597656 0l-87.304687-58.171875v-111.847656c0-4.875 3.953125-8.828125 8.828125-8.828125h44.136718l88.1875-.085938h44.226563c4.886719.058594 8.820313 4.03125 8.828125 8.914063zm0 0" fill="#f5efca"/><g fill="#802f34"><path d="m141.242188 370.757812-7.75-15.5c-.738282-1.398437-1.078126-2.976562-.972657-4.554687 1.226563-13.65625 12.667969-24.117187 26.378907-24.117187 13.707031 0 25.148437 10.460937 26.375 24.117187.105468 1.578125-.230469 3.15625-.972657 4.554687l-7.75 15.5zm0 0"/><path d="m185.378906 397.242188c-3.570312 0-6.789062-2.152344-8.152344-5.449219-1.367187-3.300781-.613281-7.09375 1.910157-9.621094l23.898437-23.894531v-14c0-4.875 3.953125-8.828125 8.828125-8.828125s8.828125 3.953125 8.828125 8.828125v17.652344c-.003906 2.34375-.933594 4.585937-2.589844 6.242187l-26.480468 26.484375c-1.65625 1.652344-3.902344 2.585938-6.242188 2.585938zm0 0"/><path d="m132.414062 397.242188c-2.339843 0-4.585937-.933594-6.242187-2.585938l-26.480469-26.484375c-1.65625-1.65625-2.585937-3.898437-2.585937-6.242187v-17.652344c0-4.875 3.949219-8.828125 8.824219-8.828125s8.828124 3.953125 8.828124 8.828125v14l23.898438 23.894531c2.523438 2.527344 3.277344 6.320313 1.910156 9.621094-1.363281 3.296875-4.582031 5.449219-8.152344 5.449219zm0 0"/><path d="m220.691406 414.898438h-26.484375c-4.875 0-8.828125-3.953126-8.828125-8.828126s3.953125-8.828124 8.828125-8.828124h26.484375c4.875 0 8.824219 3.953124 8.824219 8.828124s-3.949219 8.828126-8.824219 8.828126zm0 0"/><path d="m123.585938 414.898438h-26.480469c-4.878907 0-8.828125-3.953126-8.828125-8.828126s3.949218-8.828124 8.828125-8.828124h26.480469c4.875 0 8.828124 3.953124 8.828124 8.828124s-3.953124 8.828126-8.828124 8.828126zm0 0"/></g><path d="m194.207031 414.898438c0 30.453124-15.800781 52.964843-35.308593 52.964843v-105.933593c19.507812 0 35.308593 22.511718 35.308593 52.96875zm0 0" fill="#e64c3c"/><path d="m158.898438 361.929688v105.933593c-19.511719 0-35.3125-22.511719-35.3125-52.964843 0-30.457032 15.800781-52.96875 35.3125-52.96875zm0 0" fill="#c03a2b"/></svg>