<svg height="512pt" viewBox="-4 0 512 512" width="512pt" xmlns="http://www.w3.org/2000/svg"><path d="m283.628906 173.558594-8.214844-34.710938h-37.679687l-8.914063 34.710938zm0 0" fill="#7f8c8d"/><path d="m182.238281 0h138.847657c9.585937 0 17.355468 7.769531 17.355468 17.355469v104.136719c0 9.585937-7.769531 17.355468-17.355468 17.355468h-138.847657c-9.585937 0-17.355469-7.769531-17.355469-17.355468v-104.136719c0-9.585938 7.769532-17.355469 17.355469-17.355469zm0 0" fill="#35495e"/><path d="m301.90625 43.390625h-100.492188c-4.792968 0-8.675781-3.886719-8.675781-8.679687 0-4.792969 3.882813-8.675782 8.675781-8.675782h100.492188c4.792969 0 8.679688 3.882813 8.679688 8.675782 0 4.792968-3.886719 8.679687-8.679688 8.679687zm0 0" fill="#ff5364"/><path d="m301.90625 78.101562h-100.492188c-4.792968 0-8.675781-3.886718-8.675781-8.679687 0-4.789063 3.882813-8.675781 8.675781-8.675781h100.492188c4.792969 0 8.679688 3.886718 8.679688 8.675781 0 4.792969-3.886719 8.679687-8.679688 8.679687zm0 0" fill="#ff5364"/><path d="m246.082031 112.8125h-44.667969c-4.792968 0-8.675781-3.882812-8.675781-8.675781s3.882813-8.679688 8.675781-8.679688h44.667969c4.792969 0 8.675781 3.886719 8.675781 8.679688s-3.882812 8.675781-8.675781 8.675781zm0 0" fill="#ff5364"/><path d="m320.21875 182.238281h-127.933594c-4.792968 0-8.675781-3.886719-8.675781-8.679687 0-4.792969 3.882813-8.675782 8.675781-8.675782h127.933594c4.789062 0 8.675781 3.882813 8.675781 8.675782 0 4.792968-3.886719 8.679687-8.675781 8.679687zm0 0" fill="#95a5a5"/><g fill="#804169"><path d="m381.832031 78.101562h-8.679687c-4.792969 0-8.679688-3.886718-8.679688-8.679687 0-4.789063 3.886719-8.675781 8.679688-8.675781h8.679687c4.792969 0 8.675781 3.886718 8.675781 8.675781 0 4.792969-3.882812 8.679687-8.675781 8.679687zm0 0"/><path d="m425.21875 329.761719c-4.792969 0-8.675781-3.882813-8.675781-8.675781v-8.679688c0-4.792969 3.882812-8.675781 8.675781-8.675781s8.679688 3.882812 8.679688 8.675781v8.679688c0 4.792968-3.886719 8.675781-8.679688 8.675781zm0 0"/><path d="m425.21875 286.371094c-4.792969 0-8.675781-3.882813-8.675781-8.675782v-17.355468c0-4.792969 3.882812-8.679688 8.675781-8.679688s8.679688 3.886719 8.679688 8.679688v17.355468c0 4.792969-3.886719 8.675782-8.679688 8.675782zm0 0"/><path d="m425.21875 190.914062c-4.792969 0-8.675781-3.882812-8.675781-8.675781v-8.679687c0-4.792969 3.882812-8.675782 8.675781-8.675782s8.679688 3.882813 8.679688 8.675782v8.679687c0 4.792969-3.886719 8.675781-8.679688 8.675781zm0 0"/><path d="m425.21875 234.304688c-4.792969 0-8.675781-3.886719-8.675781-8.675782v-8.679687c0-4.792969 3.882812-8.679688 8.675781-8.679688s8.679688 3.886719 8.679688 8.679688v8.679687c0 4.789063-3.886719 8.675782-8.679688 8.675782zm0 0"/><path d="m425.21875 147.527344c-4.792969 0-8.675781-3.886719-8.675781-8.679688v-8.679687c0-4.792969 3.882812-8.675781 8.675781-8.675781s8.679688 3.882812 8.679688 8.675781v8.679687c0 4.792969-3.886719 8.679688-8.679688 8.679688zm0 0"/><path d="m425.21875 104.136719c-4.792969 0-8.675781-3.886719-8.675781-8.679688v-26.035156c0-4.789063 3.882812-8.675781 8.675781-8.675781s8.679688 3.886718 8.679688 8.675781v26.035156c0 4.792969-3.886719 8.679688-8.679688 8.679688zm0 0"/><path d="m425.21875 86.78125c-4.792969 0-8.675781-3.886719-8.675781-8.679688-4.792969 0-8.679688-3.886718-8.679688-8.679687 0-4.789063 3.886719-8.675781 8.679688-8.675781h8.675781c4.792969 0 8.679688 3.886718 8.679688 8.675781v8.679687c0 4.792969-3.886719 8.679688-8.679688 8.679688zm0 0"/><path d="m425.21875 277.695312h-17.355469c-4.792969 0-8.675781-3.886718-8.675781-8.679687s3.882812-8.675781 8.675781-8.675781h17.355469c4.792969 0 8.679688 3.882812 8.679688 8.675781s-3.886719 8.679687-8.679688 8.679687zm0 0"/><path d="m373.152344 277.695312h-17.355469c-4.792969 0-8.679687-3.886718-8.679687-8.679687s3.886718-8.675781 8.679687-8.675781h17.355469c4.792968 0 8.679687 3.882812 8.679687 8.675781s-3.886719 8.679687-8.679687 8.679687zm0 0"/><path d="m321.085938 277.695312h-8.679688c-4.792969 0-8.675781-3.886718-8.675781-8.679687s3.882812-8.675781 8.675781-8.675781h8.679688c4.792968 0 8.675781 3.882812 8.675781 8.675781s-3.882813 8.679687-8.675781 8.679687zm0 0"/><path d="m130.167969 78.101562h-8.675781c-4.792969 0-8.679688-3.886718-8.679688-8.679687 0-4.789063 3.886719-8.675781 8.679688-8.675781h8.675781c4.792969 0 8.679687 3.886718 8.679687 8.675781 0 4.792969-3.886718 8.679687-8.679687 8.679687zm0 0"/><path d="m78.101562 329.761719c-4.792968 0-8.679687-3.882813-8.679687-8.675781v-8.679688c0-4.792969 3.886719-8.675781 8.679687-8.675781 4.792969 0 8.679688 3.882812 8.679688 8.675781v8.679688c0 4.792968-3.886719 8.675781-8.679688 8.675781zm0 0"/><path d="m78.101562 286.371094c-4.792968 0-8.679687-3.882813-8.679687-8.675782v-17.355468c0-4.792969 3.886719-8.679688 8.679687-8.679688 4.792969 0 8.679688 3.886719 8.679688 8.679688v17.355468c0 4.792969-3.886719 8.675782-8.679688 8.675782zm0 0"/><path d="m78.101562 190.914062c-4.792968 0-8.679687-3.882812-8.679687-8.675781v-8.679687c0-4.792969 3.886719-8.675782 8.679687-8.675782 4.792969 0 8.679688 3.882813 8.679688 8.675782v8.679687c0 4.792969-3.886719 8.675781-8.679688 8.675781zm0 0"/><path d="m78.101562 234.304688c-4.792968 0-8.679687-3.886719-8.679687-8.675782v-8.679687c0-4.792969 3.886719-8.679688 8.679687-8.679688 4.792969 0 8.679688 3.886719 8.679688 8.679688v8.679687c0 4.789063-3.886719 8.675782-8.679688 8.675782zm0 0"/><path d="m78.101562 147.527344c-4.792968 0-8.679687-3.886719-8.679687-8.679688v-8.679687c0-4.792969 3.886719-8.675781 8.679687-8.675781 4.792969 0 8.679688 3.882812 8.679688 8.675781v8.679687c0 4.792969-3.886719 8.679688-8.679688 8.679688zm0 0"/><path d="m78.101562 104.136719c-4.792968 0-8.679687-3.886719-8.679687-8.679688v-26.035156c0-4.789063 3.886719-8.675781 8.679687-8.675781 4.792969 0 8.679688 3.886718 8.679688 8.675781v26.035156c0 4.792969-3.886719 8.679688-8.679688 8.679688zm0 0"/><path d="m78.101562 86.78125c-4.792968 0-8.679687-3.886719-8.679687-8.679688v-8.679687c0-4.789063 3.886719-8.675781 8.679687-8.675781h8.679688c4.792969 0 8.675781 3.886718 8.675781 8.675781 0 4.792969-3.882812 8.679687-8.675781 8.679687 0 4.792969-3.886719 8.679688-8.679688 8.679688zm0 0"/><path d="m95.457031 277.695312h-17.355469c-4.792968 0-8.679687-3.886718-8.679687-8.679687s3.886719-8.675781 8.679687-8.675781h17.355469c4.792969 0 8.679688 3.882812 8.679688 8.675781s-3.886719 8.679687-8.679688 8.679687zm0 0"/><path d="m147.527344 277.695312h-17.359375c-4.792969 0-8.675781-3.886718-8.675781-8.679687s3.882812-8.675781 8.675781-8.675781h17.359375c4.789062 0 8.675781 3.882812 8.675781 8.675781s-3.886719 8.679687-8.675781 8.679687zm0 0"/><path d="m190.914062 277.695312h-8.675781c-4.792969 0-8.679687-3.886718-8.679687-8.679687s3.886718-8.675781 8.679687-8.675781h8.675781c4.792969 0 8.679688 3.882812 8.679688 8.675781s-3.886719 8.679687-8.679688 8.679687zm0 0"/></g><path d="m451.253906 503.320312-7.808594-34.710937h-35.796874l-8.460938 34.710937zm0 0" fill="#7f8c8d"/><path d="m355.796875 329.761719h130.167969c9.585937 0 17.355468 7.773437 17.355468 17.355469v104.136718c0 9.585938-7.769531 17.355469-17.355468 17.355469h-130.167969c-9.585937 0-17.355469-7.769531-17.355469-17.355469v-104.136718c0-9.582032 7.769532-17.355469 17.355469-17.355469zm0 0" fill="#35495e"/><path d="m468.609375 373.152344h-95.457031c-4.792969 0-8.679688-3.886719-8.679688-8.679688 0-4.789062 3.886719-8.675781 8.679688-8.675781h95.457031c4.792969 0 8.679687 3.886719 8.679687 8.675781 0 4.792969-3.886718 8.679688-8.679687 8.679688zm0 0" fill="#ff5364"/><path d="m468.609375 407.863281h-95.457031c-4.792969 0-8.679688-3.882812-8.679688-8.675781s3.886719-8.679688 8.679688-8.679688h95.457031c4.792969 0 8.679687 3.886719 8.679687 8.679688s-3.886718 8.675781-8.679687 8.675781zm0 0" fill="#ff5364"/><path d="m415.578125 442.578125h-42.425781c-4.792969 0-8.679688-3.886719-8.679688-8.679687 0-4.792969 3.886719-8.679688 8.679688-8.679688h42.425781c4.792969 0 8.679687 3.886719 8.679687 8.679688 0 4.792968-3.886718 8.679687-8.679687 8.679687zm0 0" fill="#ff5364"/><path d="m485.964844 512h-121.492188c-4.789062 0-8.675781-3.886719-8.675781-8.679688 0-4.789062 3.886719-8.675781 8.675781-8.675781h121.492188c4.792968 0 8.679687 3.886719 8.679687 8.675781 0 4.792969-3.886719 8.679688-8.679687 8.679688zm0 0" fill="#95a5a5"/><path d="m112.8125 503.320312-7.808594-34.710937h-35.796875l-8.460937 34.710937zm0 0" fill="#7f8c8d"/><path d="m17.355469 329.761719h130.171875c9.582031 0 17.355468 7.773437 17.355468 17.355469v104.136718c0 9.585938-7.773437 17.355469-17.355468 17.355469h-130.171875c-9.585938 0-17.355469-7.769531-17.355469-17.355469v-104.136718c0-9.582032 7.769531-17.355469 17.355469-17.355469zm0 0" fill="#35495e"/><path d="m130.167969 373.152344h-95.457031c-4.792969 0-8.675782-3.886719-8.675782-8.679688 0-4.789062 3.882813-8.675781 8.675782-8.675781h95.457031c4.792969 0 8.679687 3.886719 8.679687 8.675781 0 4.792969-3.886718 8.679688-8.679687 8.679688zm0 0" fill="#ff5364"/><path d="m130.167969 407.863281h-95.457031c-4.792969 0-8.675782-3.882812-8.675782-8.675781s3.882813-8.679688 8.675782-8.679688h95.457031c4.792969 0 8.679687 3.886719 8.679687 8.679688s-3.886718 8.675781-8.679687 8.675781zm0 0" fill="#ff5364"/><path d="m77.136719 442.578125h-42.425781c-4.792969 0-8.675782-3.886719-8.675782-8.679687 0-4.792969 3.882813-8.679688 8.675782-8.679688h42.425781c4.792969 0 8.679687 3.886719 8.679687 8.679688 0 4.792968-3.886718 8.679687-8.679687 8.679687zm0 0" fill="#ff5364"/><path d="m147.527344 512h-121.492188c-4.792968 0-8.679687-3.886719-8.679687-8.679688 0-4.789062 3.886719-8.675781 8.679687-8.675781h121.492188c4.789062 0 8.675781 3.886719 8.675781 8.675781 0 4.792969-3.886719 8.679688-8.675781 8.679688zm0 0" fill="#95a5a5"/><path d="m224.757812 346.25c-21.242187-16.414062-33.726562-41.710938-33.84375-68.554688v-45.992187c-.03125-3.746094 2.371094-7.078125 5.9375-8.226563 17.847657-4.921874 36.296876-7.296874 54.808594-7.058593 18.511719-.226563 36.964844 2.160156 54.8125 7.089843 3.550782 1.148438 5.953125 4.460938 5.933594 8.195313v45.992187c-.117188 26.84375-12.605469 52.136719-33.84375 68.554688l-23.855469 17.21875c-1.816406 1.300781-4.257812 1.300781-6.074219 0zm0 0" fill="#cc66a1"/><path d="m269.015625 303.730469c-4.792969 0-8.675781-3.886719-8.675781-8.679688v-34.589843c0-4.792969-3.886719-8.679688-8.679688-8.679688-4.792968 0-8.675781 3.886719-8.675781 8.679688v34.589843c0 4.792969-3.886719 8.679688-8.679687 8.679688-4.792969 0-8.675782-3.886719-8.675782-8.679688v-34.589843c0-14.378907 11.652344-26.035157 26.03125-26.035157s26.035156 11.65625 26.035156 26.035157v34.589843c0 4.792969-3.886718 8.679688-8.679687 8.679688zm0 0" fill="#ecf0f1"/><path d="m234.070312 271.933594h34.945313c9.585937 0 17.355469 7.769531 17.355469 17.355468v11.515626c0 9.585937-7.769532 17.355468-17.355469 17.355468h-34.945313c-9.585937 0-17.355468-7.769531-17.355468-17.355468v-11.515626c0-9.585937 7.769531-17.355468 17.355468-17.355468zm0 0" fill="#f0c419"/></svg>