<svg height="511pt" viewBox="-40 0 511 511.92271" width="511pt" xmlns="http://www.w3.org/2000/svg"><path d="m368.742188 305.328125v-80.84375c0-9.921875-8.042969-17.964844-17.964844-17.964844h-224.5625c-9.921875 0-17.964844 8.042969-17.964844 17.964844v80.84375zm0 0" fill="#f5efca"/><path d="m305.863281 305.328125v-44.914063c0-9.921874-8.042969-17.964843-17.964843-17.964843h-206.59375c-9.921876 0-17.964844 8.042969-17.964844 17.964843v44.914063zm0 0" fill="#f9eab0"/><path d="m339.101562 301.328125-12.578124-18.953125c-1.671876-2.503906-4.488282-4.003906-7.5-3.996094h-98.175782c-3.003906 0-5.808594 1.5-7.476562 3.996094l-12.601563 18.953125c-1.664062 2.5-4.46875 4-7.472656 4h-129.957031c-9.921875 0-17.964844 8.042969-17.964844 17.964844v170.664062c0 9.921875 8.042969 17.964844 17.964844 17.964844h305.402344c9.921874 0 17.964843-8.042969 17.964843-17.964844v-170.664062c0-9.921875-8.042969-17.964844-17.964843-17.964844h-22.140626c-3.011718.007813-5.828124-1.492187-7.5-4zm0 0" fill="#f3d55b"/><path d="m153.703125 422.1875-18.234375.089844h-18.144531l-.089844 17.785156h54.433594v-17.875zm0 0v17.875h17.964844v-17.875zm0 0" fill="#802d40"/><path d="m207.328125 367.933594v54.433594c.007813 4.695312-1.855469 9.199218-5.175781 12.519531-3.320313 3.320312-7.824219 5.183593-12.519532 5.175781h-17.964843v-17.875l17.964843-.089844-.089843-18.054687-.089844-17.875-.089844-18.234375-89.824219.269531v54.164063l17.785157-.089844-.089844 17.785156h-17.964844c-4.695312.007812-9.203125-1.855469-12.523437-5.175781-3.316406-3.320313-5.179688-7.824219-5.171875-12.519531v-54.433594c-.007813-4.695313 1.855469-9.199219 5.171875-12.519532 3.320312-3.320312 7.828125-5.183593 12.523437-5.175781h90.363281c4.695313-.007812 9.199219 1.855469 12.519532 5.175781 3.320312 3.320313 5.183594 7.824219 5.175781 12.519532zm0 0" fill="#802d40"/><path d="m117.324219 422.277344-.089844 17.785156h18.234375v-17.785156zm-.269531-36.109375h-17.515626v17.785156l17.964844-.089844-.179687 18.414063-.089844 17.785156-.179687 17.964844-98.628907.269531-.179687-53.984375c.191406-.113281.40625-.175781.628906-.179688l62.699219-.179687v-17.785156h-62.699219c-9.96875-.195313-18.210938 7.726562-18.414062 17.695312v54.433594c.203124 9.96875 8.445312 17.890625 18.414062 17.695313h98.179688c9.96875.195312 18.210937-7.726563 18.414062-17.695313v-54.433594c-.203125-9.96875-8.445312-17.890625-18.414062-17.695312zm0 0h-17.515626v17.785156l17.964844-.089844-.179687 18.414063-.089844 17.785156h18.234375v-36.199219c-.203125-9.96875-8.445312-17.890625-18.414062-17.695312zm0 0" fill="#d75e72"/><path d="m315.027344 422.1875h-17.875l-17.964844.089844h-17.875l.089844 17.785156h53.714844zm0 0" fill="#802d40"/><path d="m351.046875 367.933594v54.433594c.007813 4.695312-1.855469 9.199218-5.175781 12.519531-3.320313 3.320312-7.824219 5.183593-12.519532 5.175781h-18.234374l-.089844-17.875 18.324218-.089844-.089843-18.054687-.089844-17.875-.089844-18.234375-89.824219.269531v54.164063l18.054688-.089844.089844 17.785156h-18.414063c-4.695312.007812-9.199219-1.855469-12.519531-5.175781-3.320312-3.320313-5.183594-7.824219-5.175781-12.519531v-54.433594c-.007813-4.695313 1.855469-9.199219 5.175781-12.519532 3.320312-3.320312 7.824219-5.183593 12.519531-5.175781h90.363281c4.695313-.007812 9.199219 1.855469 12.519532 5.175781 3.320312 3.320313 5.183594 7.824219 5.175781 12.519532zm0 0" fill="#802d40"/><path d="m261.3125 422.277344.089844 17.785156h17.785156v-17.785156zm-53.984375-36.109375v17.875l17.964844-.089844v-17.785156zm54.164063 0h-18.234376v17.785156l17.964844-.089844.089844 18.414063.089844 17.785156.089844 17.964844-89.824219.269531v-54.164063l17.875-.089843-.089844-17.875h-18.054687c-9.765626.019531-17.675782 7.929687-17.695313 17.695312v54.433594c.019531 9.765625 7.929687 17.675781 17.695313 17.695313h90.09375c4.695312.007812 9.199218-1.855469 12.519531-5.175782 3.320312-3.320312 5.183593-7.824218 5.175781-12.519531v-54.433594c.007812-4.695312-1.855469-9.199219-5.175781-12.519531-3.320313-3.320312-7.824219-5.183594-12.519531-5.175781zm-107.789063 36.019531v17.875h17.964844v-17.875zm107.789063-36.019531h-18.234376v17.785156l17.964844-.089844.089844 18.414063.089844 17.785156h17.785156v-36.199219c.007812-4.695312-1.855469-9.199219-5.175781-12.519531-3.320313-3.320312-7.824219-5.183594-12.519531-5.175781zm0 0" fill="#d75e72"/><path d="m413.207031 386.167969h-62.160156v17.875l62.609375-.179688-.449219 54.164063-98.089843.269531v-18.234375l-.089844-17.875v-17.875c.152344-.125.34375-.1875.539062-.179688l17.695313-.089843-.089844-17.875h-17.605469c-9.96875-.195313-18.214844 7.726562-18.414062 17.695312v54.433594c.199218 9.96875 8.445312 17.890625 18.414062 17.695313h97.640625c9.96875.195312 18.210938-7.726563 18.414063-17.695313v-54.433594c-.203125-9.96875-8.445313-17.890625-18.414063-17.695312zm0 0" fill="#d75e72"/><path d="m207.058594 170.589844h17.964844c9.921874 0 17.964843-8.042969 17.964843-17.964844v-44.914062c0-4.960938 4.019531-8.980469 8.980469-8.980469h11.300781c3.203125-.011719 6.160157-1.726563 7.757813-4.503907 1.597656-2.777343 1.597656-6.195312-.003906-8.96875l-47.25-80.84375c-1.613282-2.734374-4.554688-4.414062-7.734376-4.414062-3.175781 0-6.117187 1.679688-7.734374 4.414062l-47.246094 80.84375c-1.601563 2.773438-1.605469 6.191407-.007813 8.96875 1.597657 2.777344 4.554688 4.492188 7.761719 4.503907h11.296875c4.960937 0 8.984375 4.019531 8.984375 8.980469v44.914062c0 9.921875 8.042969 17.964844 17.964844 17.964844zm0 0" fill="#804169"/></svg>