<svg height="512pt" viewBox="0 0 512.15334 512" width="512pt" xmlns="http://www.w3.org/2000/svg"><path d="m211.90625 450.285156c-4.875 0-8.828125-3.953125-8.828125-8.828125v-52.964843c0-4.878907 3.953125-8.828126 8.828125-8.828126s8.828125 3.949219 8.828125 8.828126v52.964843c0 4.875-3.953125 8.828125-8.828125 8.828125zm0 0" fill="#7f8c8d"/><path d="m247.214844 450.285156c-4.875 0-8.828125-3.953125-8.828125-8.828125v-17.65625c0-4.875 3.953125-8.828125 8.828125-8.828125s8.828125 3.953125 8.828125 8.828125v17.65625c0 4.875-3.953125 8.828125-8.828125 8.828125zm0 0" fill="#7f8c8d"/><path d="m423.765625 97.179688c-4.613281-24.804688-20.609375-46-43.199219-57.234376-22.589844-11.238281-49.144531-11.207031-71.707031.078126-3.601563 1.71875-7.90625.832031-10.53125-2.171876-22.296875-24.070312-53.613281-37.757812-86.421875-37.773437-63.074219 0-110.566406 34.109375-114.761719 97.101563l-35.308593 26.484374c-35.308594 0-64.617188 36.554688-61.625 83.5625 2.089843 42.242188 36.984374 75.398438 79.28125 75.332032h361.929687c20.960937-.210938 40.773437-9.617188 54.1875-25.726563s19.078125-37.296875 15.488281-57.949219c-4.296875-27.066406-34.363281-57.566406-60.847656-57.566406zm0 0" fill="#4482c3"/><path d="m79.492188 97.179688h353.101562c9.75 0 17.65625 7.90625 17.65625 17.65625v88.273437c0 9.753906-7.90625 17.65625-17.65625 17.65625h-353.101562c-9.75 0-17.65625-7.902344-17.65625-17.65625v-88.273437c0-9.75 7.90625-17.65625 17.65625-17.65625zm0 0" fill="#f3d55b"/><g fill="#802f34"><path d="m123.628906 167.800781c-.949218 0-1.890625-.152343-2.789062-.449219l-26.484375-8.828124c-4.628907-1.542969-7.136719-6.542969-5.59375-11.175782 1.539062-4.632812 6.542969-7.136718 11.175781-5.597656l26.480469 8.828125c4.140625 1.347656 6.683593 5.507813 5.984375 9.808594-.695313 4.296875-4.417969 7.445312-8.773438 7.414062zm0 0"/><path d="m105.972656 194.285156c-3.253906-.003906-6.242187-1.796875-7.777344-4.667968-1.535156-2.871094-1.363281-6.351563.441407-9.058594l17.65625-26.484375c2.707031-4.054688 8.1875-5.152344 12.246093-2.445313 4.054688 2.707032 5.148438 8.1875 2.445313 12.242188l-17.65625 26.484375c-1.640625 2.457031-4.398437 3.929687-7.355469 3.929687zm0 0"/><path d="m141.285156 194.285156c-2.953125 0-5.714844-1.472656-7.355468-3.929687l-17.652344-26.484375c-2.707032-4.054688-1.613282-9.535156 2.445312-12.242188 4.054688-2.707031 9.535156-1.609375 12.242188 2.445313l17.65625 26.484375c1.804687 2.707031 1.976562 6.1875.441406 9.058594-1.535156 2.871093-4.523438 4.664062-7.777344 4.667968zm0 0"/><path d="m123.628906 167.800781c-4.332031.003907-8.027344-3.136719-8.71875-7.414062-.695312-4.277344 1.816406-8.425781 5.929688-9.789063l26.484375-8.828125c2.996093-.996093 6.292969-.320312 8.65625 1.777344 2.359375 2.09375 3.421875 5.292969 2.789062 8.386719-.636719 3.089844-2.871093 5.609375-5.867187 6.605468l-26.484375 8.828126c-.898438.292968-1.84375.441406-2.789063.433593zm0 0"/><path d="m123.628906 167.800781c-4.875 0-8.828125-3.953125-8.828125-8.828125v-26.480468c0-4.878907 3.953125-8.828126 8.828125-8.828126s8.828125 3.949219 8.828125 8.828126v26.480468c0 4.875-3.953125 8.828125-8.828125 8.828125zm0 0"/><path d="m211.90625 167.800781c-.949219 0-1.890625-.152343-2.789062-.449219l-26.484376-8.828124c-2.996093-.996094-5.234374-3.515626-5.867187-6.609376-.636719-3.09375.425781-6.289062 2.789063-8.386718 2.359374-2.097656 5.660156-2.773438 8.65625-1.777344l26.484374 8.828125c4.140626 1.347656 6.679688 5.507813 5.984376 9.808594-.695313 4.296875-4.421876 7.445312-8.773438 7.414062zm0 0"/><path d="m194.25 194.285156c-3.253906-.003906-6.246094-1.796875-7.777344-4.667968-1.535156-2.871094-1.363281-6.351563.441406-9.058594l17.65625-26.484375c1.75-2.625 4.765626-4.113281 7.914063-3.910157 3.148437.203126 5.949219 2.070313 7.34375 4.898438 1.398437 2.828125 1.179687 6.1875-.570313 8.808594l-17.65625 26.484375c-1.636718 2.457031-4.398437 3.929687-7.351562 3.929687zm0 0"/><path d="m229.558594 194.285156c-2.953125 0-5.710938-1.472656-7.351563-3.929687l-17.65625-26.484375c-1.75-2.621094-1.96875-5.980469-.570312-8.808594 1.398437-2.828125 4.199219-4.695312 7.34375-4.898438 3.148437-.203124 6.167969 1.285157 7.917969 3.910157l17.652343 26.484375c1.808594 2.707031 1.976563 6.1875.445313 9.058594-1.535156 2.871093-4.523438 4.664062-7.78125 4.667968zm0 0"/><path d="m211.90625 167.800781c-4.332031.003907-8.027344-3.136719-8.722656-7.414062-.691406-4.277344 1.820312-8.425781 5.933594-9.789063l26.480468-8.828125c4.632813-1.542969 9.636719.964844 11.175782 5.59375 1.542968 4.632813-.964844 9.636719-5.597657 11.175781l-26.480469 8.828126c-.902343.292968-1.84375.441406-2.789062.433593zm0 0"/><path d="m211.90625 167.800781c-4.875 0-8.828125-3.953125-8.828125-8.828125v-26.480468c0-4.878907 3.953125-8.828126 8.828125-8.828126s8.828125 3.949219 8.828125 8.828126v26.480468c0 4.875-3.953125 8.828125-8.828125 8.828125zm0 0"/><path d="m300.179688 167.800781c-.945313 0-1.890626-.152343-2.789063-.449219l-26.480469-8.828124c-4.632812-1.542969-7.140625-6.542969-5.597656-11.175782 1.539062-4.632812 6.542969-7.136718 11.175781-5.597656l26.480469 8.828125c4.140625 1.347656 6.683594 5.507813 5.988281 9.808594-.699219 4.296875-4.421875 7.445312-8.777343 7.414062zm0 0"/><path d="m282.527344 194.285156c-3.257813-.003906-6.246094-1.796875-7.78125-4.667968-1.53125-2.871094-1.363282-6.351563.445312-9.058594l17.652344-26.484375c1.75-2.625 4.769531-4.113281 7.917969-3.910157 3.144531.203126 5.945312 2.070313 7.34375 4.898438 1.398437 2.828125 1.179687 6.1875-.570313 8.808594l-17.65625 26.484375c-1.640625 2.457031-4.398437 3.929687-7.351562 3.929687zm0 0"/><path d="m317.835938 194.285156c-2.953126 0-5.714844-1.472656-7.351563-3.929687l-17.65625-26.484375c-2.707031-4.054688-1.613281-9.535156 2.445313-12.242188 4.054687-2.707031 9.539062-1.609375 12.242187 2.445313l17.65625 26.484375c1.804687 2.707031 1.976563 6.1875.441406 9.058594-1.535156 2.871093-4.523437 4.664062-7.777343 4.667968zm0 0"/><path d="m300.179688 167.800781c-4.332032.003907-8.027344-3.136719-8.71875-7.414062-.695313-4.277344 1.820312-8.425781 5.929687-9.789063l26.484375-8.828125c4.628906-1.542969 9.632812.964844 11.175781 5.59375 1.539063 4.632813-.964843 9.636719-5.597656 11.175781l-26.484375 8.828126c-.898438.292968-1.839844.441406-2.789062.433593zm0 0"/><path d="m300.179688 167.800781c-4.875 0-8.828126-3.953125-8.828126-8.828125v-26.480468c0-4.878907 3.953126-8.828126 8.828126-8.828126s8.828124 3.949219 8.828124 8.828126v26.480468c0 4.875-3.953124 8.828125-8.828124 8.828125zm0 0"/><path d="m388.457031 167.800781c-.949219 0-1.890625-.152343-2.789062-.449219l-26.484375-8.828124c-2.996094-.996094-5.230469-3.515626-5.867188-6.609376-.636718-3.09375.429688-6.289062 2.789063-8.386718 2.363281-2.097656 5.660156-2.773438 8.65625-1.777344l26.484375 8.828125c4.140625 1.347656 6.679687 5.507813 5.984375 9.808594-.695313 4.296875-4.421875 7.445312-8.773438 7.414062zm0 0"/><path d="m370.800781 194.285156c-3.253906-.003906-6.242187-1.796875-7.777343-4.667968-1.535157-2.871094-1.363282-6.351563.441406-9.058594l17.65625-26.484375c1.75-2.625 4.765625-4.113281 7.914062-3.910157 3.148438.203126 5.949219 2.070313 7.34375 4.898438 1.398438 2.828125 1.179688 6.1875-.570312 8.808594l-17.652344 26.484375c-1.640625 2.457031-4.402344 3.929687-7.355469 3.929687zm0 0"/><path d="m406.113281 194.285156c-2.957031 0-5.714843-1.472656-7.355469-3.929687l-17.65625-26.484375c-2.703124-4.054688-1.609374-9.535156 2.445313-12.242188 4.058594-2.707031 9.539063-1.609375 12.246094 2.445313l17.65625 26.484375c1.804687 2.707031 1.976562 6.1875.441406 9.058594-1.535156 2.871093-4.523437 4.664062-7.777344 4.667968zm0 0"/><path d="m388.457031 167.800781c-4.332031.003907-8.027343-3.136719-8.71875-7.414062-.695312-4.277344 1.816407-8.425781 5.929688-9.789063l26.480469-8.828125c2.996093-.996093 6.296874-.320312 8.660156 1.777344 2.359375 2.09375 3.421875 5.292969 2.789062 8.386719-.636718 3.089844-2.871094 5.609375-5.867187 6.605468l-26.484375 8.828126c-.902344.292968-1.84375.441406-2.789063.433593zm0 0"/><path d="m388.457031 167.800781c-4.875 0-8.828125-3.953125-8.828125-8.828125v-26.480468c0-4.878907 3.953125-8.828126 8.828125-8.828126s8.828125 3.949219 8.828125 8.828126v26.480468c0 4.875-3.953125 8.828125-8.828125 8.828125zm0 0"/></g><path d="m176.59375 494.421875v-35.3125c0-9.75 7.90625-17.652344 17.65625-17.652344h123.585938c9.75 0 17.65625 7.902344 17.65625 17.652344v35.3125c0 9.75-7.90625 17.65625-17.65625 17.65625h-123.585938c-9.75 0-17.65625-7.90625-17.65625-17.65625zm0 0" fill="#95a5a5"/><path d="m300.179688 485.59375h-8.828126c-4.875 0-8.824218-3.953125-8.824218-8.828125s3.949218-8.828125 8.824218-8.828125h8.828126c4.875 0 8.828124 3.953125 8.828124 8.828125s-3.953124 8.828125-8.828124 8.828125zm0 0" fill="#7f8c8d"/><path d="m256.042969 485.59375h-44.136719c-4.875 0-8.828125-3.953125-8.828125-8.828125s3.953125-8.828125 8.828125-8.828125h44.136719c4.875 0 8.828125 3.953125 8.828125 8.828125s-3.953125 8.828125-8.828125 8.828125zm0 0" fill="#7f8c8d"/><path d="m247.214844 397.316406c-4.875 0-8.828125-3.949218-8.828125-8.824218 0-14.628907-11.855469-26.484376-26.480469-26.484376-14.628906 0-26.484375 11.855469-26.484375 26.484376 0 4.875-3.953125 8.824218-8.828125 8.824218s-8.828125-3.949218-8.828125-8.824218c0-24.378907 19.761719-44.140626 44.140625-44.140626 24.375 0 44.136719 19.761719 44.136719 44.140626 0 4.875-3.953125 8.824218-8.828125 8.824218zm0 0" fill="#cc4b4c"/><path d="m317.835938 397.316406c-4.875 0-8.828126-3.949218-8.828126-8.824218.054688-27.789063-11.714843-54.285157-32.371093-72.875-3.578125-3.261719-3.859375-8.800782-.625-12.410157 3.230469-3.605469 8.761719-3.9375 12.402343-.742187 24.390626 21.941406 38.296876 53.21875 38.25 86.027344 0 4.875-3.953124 8.824218-8.828124 8.824218zm0 0"/><path d="m317.835938 397.316406c-4.875 0-8.828126-3.949218-8.828126-8.824218.054688-27.789063-11.714843-54.285157-32.371093-72.875-3.578125-3.261719-3.859375-8.800782-.625-12.410157 3.230469-3.605469 8.761719-3.9375 12.402343-.742187 24.390626 21.941406 38.296876 53.21875 38.25 86.027344 0 4.875-3.953124 8.824218-8.828124 8.824218zm0 0" fill="#cc4b4c"/><path d="m105.972656 397.316406c-4.875 0-8.828125-3.949218-8.828125-8.824218-.042969-32.808594 13.863281-64.085938 38.25-86.027344 3.640625-3.195313 9.175781-2.863282 12.40625.742187 3.230469 3.609375 2.949219 9.148438-.628906 12.410157-20.648437 18.59375-32.417969 45.089843-32.371094 72.875 0 4.875-3.953125 8.824218-8.828125 8.824218zm0 0" fill="#cc4b4c"/><path d="m282.527344 397.316406c-4.878906 0-8.828125-3.949218-8.828125-8.824218.066406-22.261719-11.699219-42.882813-30.898438-54.148438-2.753906-1.566406-4.457031-4.488281-4.464843-7.65625-.003907-3.167969 1.683593-6.097656 4.433593-7.675781 2.746094-1.574219 6.125-1.5625 8.859375.039062 24.644532 14.441407 39.769532 40.878907 39.722656 69.441407 0 4.875-3.949218 8.824218-8.824218 8.824218zm0 0" fill="#cc4b4c"/><path d="m141.285156 397.316406c-4.875 0-8.828125-3.949218-8.828125-8.824218-.046875-28.5625 15.078125-55 39.722657-69.441407 4.21875-2.394531 9.582031-.941406 12.007812 3.261719s1.007812 9.574219-3.179688 12.03125c-19.199218 11.265625-30.964843 31.886719-30.894531 54.148438 0 4.875-3.953125 8.824218-8.828125 8.824218zm0 0" fill="#cc4b4c"/><path d="m211.90625 309.042969c-4.875 0-8.828125-3.953125-8.828125-8.828125v-8.828125c0-4.875 3.953125-8.828125 8.828125-8.828125s8.828125 3.953125 8.828125 8.828125v8.828125c0 4.875-3.953125 8.828125-8.828125 8.828125zm0 0" fill="#cc4b4c"/><path d="m211.90625 353.179688c-4.875 0-8.828125-3.953126-8.828125-8.828126v-8.828124c0-4.875 3.953125-8.824219 8.828125-8.824219s8.828125 3.949219 8.828125 8.824219v8.828124c0 4.875-3.953125 8.828126-8.828125 8.828126zm0 0" fill="#cc4b4c"/></svg>