<svg height="512pt" viewBox="-82 0 512 512" width="512pt" xmlns="http://www.w3.org/2000/svg"><path d="m251.660156 295.050781-21.980468-36.628906c-2.300782-3.832031-7.132813-5.289063-11.167969-3.367187l-175.121094 83.386718zm0 0" fill="#b19046"/><path d="m234.304688 60.746094c-3.046876.003906-5.875-1.59375-7.445313-4.210938l-23.5-39.179687h-59.601563l-23.507812 39.179687c-1.566406 2.71875-4.480469 4.378906-7.617188 4.34375-3.136718-.035156-6.011718-1.761718-7.515624-4.515625-1.503907-2.753906-1.40625-6.105469.257812-8.765625l26.035156-43.390625c1.570313-2.609375 4.390625-4.207031 7.4375-4.207031h69.421875c3.046875 0 5.871094 1.597656 7.4375 4.207031l26.035157 43.390625c1.609374 2.679688 1.652343 6.019532.113281 8.742188-1.539063 2.722656-4.421875 4.40625-7.550781 4.40625zm0 0" fill="#95a5a5"/><path d="m173.558594 242.984375c-4.792969 0-8.675782-3.886719-8.675782-8.679687v-17.355469c0-4.792969 3.882813-8.679688 8.675782-8.679688 4.792968 0 8.679687 3.886719 8.679687 8.679688v17.355469c0 4.792968-3.886719 8.679687-8.679687 8.679687zm0 0" fill="#cc66a1"/><path d="m173.558594 190.914062c-4.792969 0-8.675782-3.882812-8.675782-8.675781v-17.355469c0-4.792968 3.882813-8.679687 8.675782-8.679687 4.792968 0 8.679687 3.886719 8.679687 8.679687v17.355469c0 4.792969-3.886719 8.675781-8.679687 8.675781zm0 0" fill="#cc66a1"/><path d="m225.628906 216.949219c-2.304687 0-4.511718-.914063-6.136718-2.542969l-17.355469-17.355469c-3.289063-3.40625-3.242188-8.816406.105469-12.164062 3.347656-3.347657 8.757812-3.394531 12.164062-.105469l11.222656 11.21875 37.253906-37.253906c3.402344-3.289063 8.816407-3.242188 12.164063.105468 3.347656 3.347657 3.394531 8.761719.105469 12.164063l-43.390625 43.390625c-1.625 1.628906-3.832031 2.542969-6.132813 2.542969zm0 0" fill="#4fba6f"/><path d="m221.808594 130.167969h-96.5c-7.457032-.003907-14.078125-4.777344-16.445313-11.851563l-18.316406-54.96875c-.859375-2.617187-.414063-5.488281 1.203125-7.71875 1.613281-2.234375 4.199219-3.558594 6.953125-3.5625h149.710937c2.757813.003906 5.34375 1.328125 6.957032 3.5625 1.613281 2.230469 2.0625 5.101563 1.203125 7.71875l-18.320313 54.941406c-2.355468 7.085938-8.980468 11.871094-16.445312 11.878907zm0 0" fill="#bdc3c7"/><g fill="#95a5a5"><path d="m138.847656 104.136719c-4.792968 0-8.679687-3.886719-8.679687-8.679688v-8.675781c0-4.792969 3.886719-8.679688 8.679687-8.679688 4.792969 0 8.679688 3.886719 8.679688 8.679688v8.675781c0 4.792969-3.886719 8.679688-8.679688 8.679688zm0 0"/><path d="m173.558594 104.136719c-4.792969 0-8.675782-3.886719-8.675782-8.679688v-8.675781c0-4.792969 3.882813-8.679688 8.675782-8.679688 4.792968 0 8.679687 3.886719 8.679687 8.679688v8.675781c0 4.792969-3.886719 8.679688-8.679687 8.679688zm0 0"/><path d="m208.269531 104.136719c-4.792969 0-8.675781-3.886719-8.675781-8.679688v-8.675781c0-4.792969 3.882812-8.679688 8.675781-8.679688s8.679688 3.886719 8.679688 8.679688v8.675781c0 4.792969-3.886719 8.679688-8.679688 8.679688zm0 0"/></g><path d="m347.117188 381.832031v112.8125c-.027344 9.574219-7.78125 17.328125-17.355469 17.355469h-156.203125v-130.167969zm0 0" fill="#285680"/><path d="m173.558594 381.832031v130.167969h-156.203125c-9.574219-.027344-17.3281252-7.78125-17.355469-17.355469v-112.8125zm0 0" fill="#4482c3"/><path d="m43.390625 338.441406h-26.035156c-9.585938 0-17.355469 7.769532-17.355469 17.355469v26.035156h347.117188v-26.035156c0-9.585937-7.769532-17.355469-17.355469-17.355469zm0 0" fill="#2c3e50"/><path d="m43.390625 416.542969h86.777344c4.792969 0 8.679687 3.882812 8.679687 8.675781v43.390625c0 4.792969-3.886718 8.679687-8.679687 8.679687h-86.777344c-4.792969 0-8.679687-3.886718-8.679687-8.679687v-43.390625c0-4.792969 3.886718-8.675781 8.679687-8.675781zm0 0" fill="#b0d3f0"/><path d="m312.40625 433.898438h-104.136719c-4.792969 0-8.675781-3.886719-8.675781-8.679688s3.882812-8.675781 8.675781-8.675781h104.136719c4.792969 0 8.679688 3.882812 8.679688 8.675781s-3.886719 8.679688-8.679688 8.679688zm0 0" fill="#2c3e50"/><path d="m312.40625 477.289062h-104.136719c-4.792969 0-8.675781-3.886718-8.675781-8.679687s3.882812-8.675781 8.675781-8.675781h104.136719c4.792969 0 8.679688 3.882812 8.679688 8.675781s-3.886719 8.679687-8.679688 8.679687zm0 0" fill="#2c3e50"/><path d="m269.015625 477.289062h-60.746094c-4.792969 0-8.675781-3.886718-8.675781-8.679687s3.882812-8.675781 8.675781-8.675781h60.746094c4.792969 0 8.679687 3.882812 8.679687 8.675781s-3.886718 8.679687-8.679687 8.679687zm0 0" fill="#2c3e50"/><path d="m303.730469 381.832031-15.753907-86.652343c-.417968-2.3125-1.753906-4.355469-3.707031-5.664063s-4.355469-1.769531-6.652343-1.277344l-234.226563 50.203125 8.675781 43.390625zm0 0" fill="#e4c05c"/><path d="m190.914062 373.152344c0-9.585938-7.769531-17.355469-17.355468-17.355469-9.585938 0-17.355469 7.769531-17.355469 17.355469v8.679687h34.710937zm0 0" fill="#b19046"/></svg>