<svg height="508pt" viewBox="0 0 508 508.38763" width="508pt" xmlns="http://www.w3.org/2000/svg"><path d="m335.640625 379.585938c-4.351563 5.40625-10.855469 8.632812-17.796875 8.828124-.851562 9.375-8.277344 16.804688-17.652344 17.65625 1.691406 13.957032 6.34375 27.398438 13.648438 39.414063l30.628906 40.03125c52.964844 35.3125 105.933594 0 105.933594 0l35.308594-35.308594c35.308593-52.964843 0-105.929687 0-105.929687l-44.136719-35.3125c-13.414063-7.148438-28.625-10.21875-43.757813-8.828125 0 15.988281-9.339844 26.484375-35.769531 26.484375zm0 0" fill="#fac176"/><path d="m317.988281 105.929688c17.808594-15.15625 43.984375-15.15625 61.792969 0-.039062-7.199219 3.210938-14.027344 8.828125-18.535157-5.894531-49.351562-47.410156-86.714843-97.105469-87.394531-53.628906 0-97.101562 43.476562-97.101562 97.101562 0 53.628907 43.472656 97.105469 97.101562 97.105469-.5-7.164062 2.128906-14.195312 7.207032-19.273437 5.078124-5.082032 12.109374-7.710938 19.277343-7.210938-15.160156-17.808594-15.160156-43.984375 0-61.792968zm0 0" fill="#fac176"/><path d="m123.78125 361.929688c-.472656-7.15625 2.167969-14.167969 7.238281-19.242188 5.074219-5.070312 12.085938-7.710938 19.242188-7.238281 0-16.003907 10.480469-35.3125 26.484375-35.3125.851562-9.375 8.28125-16.800781 17.65625-17.652344-5.980469-49.445313-47.316406-87.023437-97.105469-88.277344-53.644531.445313-96.945313 43.976563-97.101563 97.625.003907 53.339844 43.242188 96.578125 96.582032 96.582031-.351563-7.21875 2.398437-14.242187 7.558594-19.300781 5.15625-5.0625 12.234374-7.675781 19.445312-7.183593zm0 0" fill="#fac176"/><g fill="#7f5b53"><path d="m97.296875 229.515625c0 4.878906-3.953125 8.828125-8.828125 8.828125s-8.828125-3.949219-8.828125-8.828125c0-4.875 3.953125-8.824219 8.828125-8.824219s8.828125 3.949219 8.828125 8.824219zm0 0"/><path d="m150.261719 264.828125c0 4.875-3.953125 8.828125-8.828125 8.828125s-8.824219-3.953125-8.824219-8.828125 3.949219-8.828125 8.824219-8.828125 8.828125 3.953125 8.828125 8.828125zm0 0"/><path d="m53.160156 273.65625c0 4.875-3.953125 8.828125-8.828125 8.828125s-8.828125-3.953125-8.828125-8.828125 3.953125-8.828125 8.828125-8.828125 8.828125 3.953125 8.828125 8.828125zm0 0"/><path d="m106.125 291.308594c0 4.878906-3.953125 8.828125-8.828125 8.828125s-8.828125-3.949219-8.828125-8.828125c0-4.875 3.953125-8.824219 8.828125-8.824219s8.828125 3.949219 8.828125 8.824219zm0 0"/><path d="m79.640625 335.449219c0 4.875-3.949219 8.828125-8.824219 8.828125-4.878906 0-8.828125-3.953125-8.828125-8.828125s3.949219-8.828125 8.828125-8.828125c4.875 0 8.824219 3.953125 8.824219 8.828125zm0 0"/><path d="m282.675781 44.136719c0 4.875-3.953125 8.828125-8.828125 8.828125s-8.828125-3.953125-8.828125-8.828125 3.953125-8.828125 8.828125-8.828125 8.828125 3.953125 8.828125 8.828125zm0 0"/><path d="m344.46875 52.964844c0 4.875-3.953125 8.828125-8.828125 8.828125s-8.824219-3.953125-8.824219-8.828125 3.949219-8.828125 8.824219-8.828125 8.828125 3.953125 8.828125 8.828125zm0 0"/><path d="m238.539062 97.101562c0 4.878907-3.953124 8.828126-8.828124 8.828126s-8.828126-3.949219-8.828126-8.828126c0-4.875 3.953126-8.824218 8.828126-8.824218s8.828124 3.949218 8.828124 8.824218zm0 0"/><path d="m300.332031 88.277344c0 4.875-3.953125 8.824218-8.828125 8.824218s-8.828125-3.949218-8.828125-8.824218 3.953125-8.828125 8.828125-8.828125 8.828125 3.953125 8.828125 8.828125zm0 0"/><path d="m265.019531 141.242188c0 4.875-3.949219 8.828124-8.824219 8.828124s-8.828124-3.953124-8.828124-8.828124 3.953124-8.828126 8.828124-8.828126 8.824219 3.953126 8.824219 8.828126zm0 0"/></g><path d="m432.746094 185.378906c0 9.75-7.90625 17.65625-17.65625 17.65625s-17.65625-7.90625-17.65625-17.65625 7.90625-17.65625 17.65625-17.65625 17.65625 7.90625 17.65625 17.65625zm0 0" fill="#fac176"/><path d="m459.085938 414.898438c0 4.875-3.949219 8.824218-8.828126 8.824218-4.875 0-8.824218-3.949218-8.824218-8.824218 0-4.878907 3.949218-8.828126 8.824218-8.828126 4.878907 0 8.828126 3.949219 8.828126 8.828126zm0 0" fill="#7f5b53"/><path d="m288.777344 324.035156 66.984375 67.027344c3.445312 3.445312 3.445312 9.035156 0 12.480469l-66.863281 66.949219c-3.445313 3.449218-3.445313 9.035156 0 12.484374l22.828124 22.828126c3.449219 3.445312 9.035157 3.445312 12.484376 0l66.894531-66.898438c3.449219-3.445312 9.035156-3.445312 12.484375 0l66.875 66.871094c1.65625 1.660156 3.90625 2.59375 6.25 2.59375 2.347656 0 4.59375-.933594 6.25-2.59375l22.875-23.050782c3.433594-3.445312 3.433594-9.019531 0-12.464843l-66.828125-66.789063c-1.65625-1.65625-2.585938-3.902344-2.585938-6.246094 0-2.339843.929688-4.589843 2.585938-6.242187l66.914062-66.921875c1.664063-1.660156 2.597657-3.910156 2.597657-6.257812 0-2.34375-.933594-4.597657-2.597657-6.253907l-23.074219-22.890625c-3.445312-3.433594-9.019531-3.433594-12.464843 0l-66.773438 66.960938c-3.445312 3.445312-9.035156 3.445312-12.480469 0l-67.011718-66.914063c-3.445313-3.441406-9.027344-3.441406-12.472656 0l-22.835938 22.828125c-1.664062 1.652344-2.605469 3.898438-2.613281 6.242188-.003907 2.34375.921875 4.597656 2.578125 6.257812zm0 0" fill="#cc4b4c"/><path d="m388.609375 264.828125c0 4.875-3.953125 8.828125-8.828125 8.828125s-8.828125-3.953125-8.828125-8.828125 3.953125-8.828125 8.828125-8.828125 8.828125 3.953125 8.828125 8.828125zm0 0" fill="#fac176"/><path d="m450.402344 105.929688c0 4.875-3.953125 8.828124-8.828125 8.828124s-8.828125-3.953124-8.828125-8.828124 3.953125-8.828126 8.828125-8.828126 8.828125 3.953126 8.828125 8.828126zm0 0" fill="#af8066"/><path d="m344.46875 220.691406c0 4.875-3.953125 8.824219-8.828125 8.824219s-8.824219-3.949219-8.824219-8.824219c0-4.878906 3.949219-8.828125 8.824219-8.828125s8.828125 3.949219 8.828125 8.828125zm0 0" fill="#af8066"/><path d="m503.367188 220.691406c0 4.875-3.953126 8.824219-8.828126 8.824219s-8.828124-3.949219-8.828124-8.824219c0-4.878906 3.953124-8.828125 8.828124-8.828125s8.828126 3.949219 8.828126 8.828125zm0 0" fill="#fac176"/><path d="m238.539062 432.550781c0 9.75-7.90625 17.65625-17.65625 17.65625s-17.65625-7.90625-17.65625-17.65625 7.90625-17.652343 17.65625-17.652343 17.65625 7.902343 17.65625 17.652343zm0 0" fill="#fac176"/><path d="m106.125 450.207031c0 9.75-7.90625 17.65625-17.65625 17.65625s-17.652344-7.90625-17.652344-17.65625 7.902344-17.65625 17.652344-17.65625 17.65625 7.90625 17.65625 17.65625zm0 0" fill="#af8066"/><path d="m229.710938 317.792969c0 4.875-3.953126 8.828125-8.828126 8.828125s-8.828124-3.953125-8.828124-8.828125 3.953124-8.828125 8.828124-8.828125 8.828126 3.953125 8.828126 8.828125zm0 0" fill="#fac176"/><path d="m167.917969 485.515625c0 4.878906-3.953125 8.828125-8.828125 8.828125s-8.828125-3.949219-8.828125-8.828125c0-4.875 3.953125-8.824219 8.828125-8.824219s8.828125 3.949219 8.828125 8.824219zm0 0" fill="#fac176"/><path d="m256.195312 370.757812c0 4.875-3.953124 8.828126-8.828124 8.828126s-8.828126-3.953126-8.828126-8.828126 3.953126-8.828124 8.828126-8.828124 8.828124 3.953124 8.828124 8.828124zm0 0" fill="#fac176"/><path d="m167.917969 397.242188c0 4.875-3.953125 8.828124-8.828125 8.828124s-8.828125-3.953124-8.828125-8.828124 3.953125-8.828126 8.828125-8.828126 8.828125 3.953126 8.828125 8.828126zm0 0" fill="#af8066"/></svg>