<svg height="512pt" viewBox="-4 0 512 512" width="512pt" xmlns="http://www.w3.org/2000/svg"><path d="m174.433594 52.066406c2.011718 0 3.683594-1.554687 3.824218-3.566406 1.417969-26.898438 23.433594-48.097656 50.367188-48.5 13.945312.0273438 27.234375 5.925781 36.613281 16.246094 1.105469 1.289062 2.941407 1.675781 4.46875.9375 6.160157-3.210938 13.183594-4.367188 20.046875-3.300782 14.835938 2.515626 26.308594 14.398438 28.300782 29.316407.5625 4.042969.433593 8.148437-.375 12.148437-.285157 1.230469.050781 2.523438.894531 3.460938.847656.9375 2.097656 1.40625 3.347656 1.25 4.066406-.582032 8.210937-.289063 12.152344.871094 14.488281 4.449218 23.625 18.734374 21.59375 33.753906-2.035157 15.019531-14.636719 26.363281-29.789063 26.808594h-152.210937c-18.273438-.03125-33.421875-14.171876-34.710938-32.402344-.753906-9.433594 2.417969-18.757813 8.773438-25.769532 6.355469-7.007812 15.324219-11.082031 24.785156-11.253906zm0 0" fill="#4482c3"/><g fill="#ff5364"><path d="m251.667969 216.949219c-4.792969 0-8.679688-3.886719-8.679688-8.679688v-8.675781c0-4.792969 3.886719-8.679688 8.679688-8.679688s8.675781 3.886719 8.675781 8.679688v8.675781c0 4.792969-3.882812 8.679688-8.675781 8.679688zm0 0"/><path d="m251.667969 173.558594c-4.792969 0-8.679688-3.882813-8.679688-8.675782v-8.679687c0-4.792969 3.886719-8.675781 8.679688-8.675781s8.675781 3.882812 8.675781 8.675781v8.679687c0 4.792969-3.882812 8.675782-8.675781 8.675782zm0 0"/><path d="m251.667969 260.339844c-4.792969 0-8.679688-3.886719-8.679688-8.679688v-8.675781c0-4.792969 3.886719-8.679687 8.679688-8.679687s8.675781 3.886718 8.675781 8.679687v8.675781c0 4.792969-3.882812 8.679688-8.675781 8.679688zm0 0"/><path d="m251.667969 303.730469c-4.792969 0-8.679688-3.886719-8.679688-8.679688v-8.679687c0-4.789063 3.886719-8.675782 8.679688-8.675782s8.675781 3.886719 8.675781 8.675782v8.679687c0 4.792969-3.882812 8.679688-8.675781 8.679688zm0 0"/><path d="m399.191406 407.863281h-8.675781c-4.792969 0-8.679687-3.882812-8.679687-8.675781s3.886718-8.679688 8.679687-8.679688h8.675781c4.792969 0 8.679688 3.886719 8.679688 8.679688s-3.886719 8.675781-8.679688 8.675781zm0 0"/><path d="m442.582031 407.863281h-8.679687c-4.792969 0-8.675782-3.882812-8.675782-8.675781s3.882813-8.679688 8.675782-8.679688c0-4.792968 3.886718-8.675781 8.679687-8.675781s8.679688 3.882813 8.679688 8.675781v8.679688c0 4.792969-3.886719 8.675781-8.679688 8.675781zm0 0"/><path d="m442.582031 364.472656c-4.792969 0-8.679687-3.882812-8.679687-8.675781v-8.679687c0-4.792969 3.886718-8.675782 8.679687-8.675782s8.679688 3.882813 8.679688 8.675782v8.679687c0 4.792969-3.886719 8.675781-8.679688 8.675781zm0 0"/><path d="m442.582031 321.085938c-4.792969 0-8.679687-3.886719-8.679687-8.679688v-8.675781c0-4.792969 3.886718-8.679688 8.679687-8.679688s8.679688 3.886719 8.679688 8.679688v8.675781c0 4.792969-3.886719 8.679688-8.679688 8.679688zm0 0"/><path d="m442.582031 277.695312c-4.792969 0-8.679687-3.886718-8.679687-8.679687v-8.675781c0-4.792969 3.886718-8.679688 8.679687-8.679688s8.679688 3.886719 8.679688 8.679688v8.675781c0 4.792969-3.886719 8.679687-8.679688 8.679687zm0 0"/><path d="m112.820312 407.863281h-8.679687c-4.792969 0-8.675781-3.882812-8.675781-8.675781s3.882812-8.679688 8.675781-8.679688h8.679687c4.792969 0 8.675782 3.886719 8.675782 8.679688s-3.882813 8.675781-8.675782 8.675781zm0 0"/><path d="m69.429688 407.863281h-8.679688c-4.792969 0-8.675781-3.882812-8.675781-8.675781v-8.679688c0-4.792968 3.882812-8.675781 8.675781-8.675781s8.679688 3.882813 8.679688 8.675781c4.792968 0 8.675781 3.886719 8.675781 8.679688s-3.882813 8.675781-8.675781 8.675781zm0 0"/><path d="m60.75 364.472656c-4.792969 0-8.675781-3.882812-8.675781-8.675781v-8.679687c0-4.792969 3.882812-8.675782 8.675781-8.675782s8.679688 3.882813 8.679688 8.675782v8.679687c0 4.792969-3.886719 8.675781-8.679688 8.675781zm0 0"/><path d="m60.75 321.085938c-4.792969 0-8.675781-3.886719-8.675781-8.679688v-8.675781c0-4.792969 3.882812-8.679688 8.675781-8.679688s8.679688 3.886719 8.679688 8.679688v8.675781c0 4.792969-3.886719 8.679688-8.679688 8.679688zm0 0"/><path d="m60.75 277.695312c-4.792969 0-8.675781-3.886718-8.675781-8.679687v-8.675781c0-4.792969 3.882812-8.679688 8.675781-8.679688s8.679688 3.886719 8.679688 8.679688v8.675781c0 4.792969-3.886719 8.679687-8.679688 8.679687zm0 0"/></g><path d="m35.585938 190.914062c2.011718 0 3.683593-1.554687 3.828124-3.566406 1.414063-26.898437 23.433594-48.097656 50.363282-48.5 13.945312.027344 27.234375 5.925782 36.613281 16.246094 1.105469 1.289062 2.941406 1.675781 4.46875.9375 6.160156-3.210938 13.183594-4.367188 20.046875-3.300781 14.835938 2.515625 26.308594 14.398437 28.300781 29.316406.5625 4.042969.433594 8.148437-.375 12.148437-.285156 1.230469.050781 2.523438.894531 3.460938.847657.9375 2.097657 1.40625 3.347657 1.25 4.070312-.570312 8.214843-.257812 12.152343.914062 14.421876 4.5 23.492188 18.746094 21.464844 33.71875-2.027344 14.972657-14.558594 26.296876-29.660156 26.800782h-152.210938c-18.273437-.03125-33.421874-14.175782-34.710937-32.40625-.753906-9.429688 2.417969-18.753906 8.773437-25.765625 6.355469-7.007813 15.324219-11.082031 24.785157-11.253907zm0 0" fill="#285680"/><path d="m467.746094 190.914062c-2.011719 0-3.683594-1.554687-3.824219-3.566406-1.417969-26.898437-23.433594-48.097656-50.367187-48.5-13.945313.027344-27.234376 5.925782-36.613282 16.246094-1.105468 1.289062-2.9375 1.675781-4.46875.9375-6.160156-3.210938-13.183594-4.367188-20.046875-3.300781-14.835937 2.515625-26.308593 14.398437-28.296875 29.316406-.5625 4.042969-.4375 8.148437.371094 12.148437.285156 1.230469-.050781 2.523438-.894531 3.460938s-2.09375 1.40625-3.347657 1.25c-4.070312-.570312-8.210937-.257812-12.148437.914062-14.421875 4.5-23.492187 18.746094-21.46875 33.71875 2.027344 14.972657 14.558594 26.296876 29.660156 26.800782h152.210938c18.277343-.03125 33.425781-14.175782 34.710937-32.40625.757813-9.429688-2.417968-18.753906-8.773437-25.765625-6.355469-7.007813-15.324219-11.082031-24.785157-11.253907zm0 0" fill="#285680"/><path d="m112.820312 503.320312h277.695313v-190.914062c0-9.585938-7.773437-17.355469-17.359375-17.355469h-242.980469c-9.585937 0-17.355469 7.769531-17.355469 17.355469zm0 0" fill="#bdc3c7"/><path d="m112.820312 364.472656h277.695313v69.425782h-277.695313zm0 0" fill="#95a5a5"/><path d="m164.886719 477.289062h-17.355469c-4.792969 0-8.679688-3.886718-8.679688-8.679687s3.886719-8.675781 8.679688-8.675781h17.355469c4.792969 0 8.679687 3.882812 8.679687 8.675781s-3.886718 8.679687-8.679687 8.679687zm0 0" fill="#95a5a5"/><path d="m216.953125 477.289062h-17.355469c-4.792968 0-8.675781-3.886718-8.675781-8.679687s3.882813-8.675781 8.675781-8.675781h17.355469c4.792969 0 8.679687 3.882812 8.679687 8.675781s-3.886718 8.679687-8.679687 8.679687zm0 0" fill="#95a5a5"/><path d="m269.023438 477.289062h-17.355469c-4.792969 0-8.679688-3.886718-8.679688-8.679687s3.886719-8.675781 8.679688-8.675781h17.355469c4.792968 0 8.675781 3.882812 8.675781 8.675781s-3.882813 8.679687-8.675781 8.679687zm0 0" fill="#95a5a5"/><path d="m355.800781 477.289062h-52.066406c-4.792969 0-8.679687-3.886718-8.679687-8.679687s3.886718-8.675781 8.679687-8.675781h52.066406c4.792969 0 8.679688 3.882812 8.679688 8.675781s-3.886719 8.679687-8.679688 8.679687zm0 0" fill="#95a5a5"/><path d="m355.800781 407.863281h-17.355469c-4.792968 0-8.675781-3.882812-8.675781-8.675781s3.882813-8.679688 8.675781-8.679688h17.355469c4.792969 0 8.679688 3.886719 8.679688 8.679688s-3.886719 8.675781-8.679688 8.675781zm0 0" fill="#7f8c8d"/><path d="m199.597656 407.863281h-52.066406c-4.792969 0-8.679688-3.882812-8.679688-8.675781s3.886719-8.679688 8.679688-8.679688h52.066406c4.792969 0 8.679688 3.886719 8.679688 8.679688s-3.886719 8.675781-8.679688 8.675781zm0 0" fill="#7f8c8d"/><path d="m164.886719 338.441406h-17.355469c-4.792969 0-8.679688-3.886718-8.679688-8.679687s3.886719-8.675781 8.679688-8.675781h17.355469c4.792969 0 8.679687 3.882812 8.679687 8.675781s-3.886718 8.679687-8.679687 8.679687zm0 0" fill="#95a5a5"/><path d="m216.953125 338.441406h-17.355469c-4.792968 0-8.675781-3.886718-8.675781-8.679687s3.882813-8.675781 8.675781-8.675781h17.355469c4.792969 0 8.679687 3.882812 8.679687 8.675781s-3.886718 8.679687-8.679687 8.679687zm0 0" fill="#95a5a5"/><path d="m269.023438 338.441406h-17.355469c-4.792969 0-8.679688-3.886718-8.679688-8.679687s3.886719-8.675781 8.679688-8.675781h17.355469c4.792968 0 8.675781 3.882812 8.675781 8.675781s-3.882813 8.679687-8.675781 8.679687zm0 0" fill="#95a5a5"/><path d="m355.800781 338.441406h-52.066406c-4.792969 0-8.679687-3.886718-8.679687-8.679687s3.886718-8.675781 8.679687-8.675781h52.066406c4.792969 0 8.679688 3.882812 8.679688 8.675781s-3.886719 8.679687-8.679688 8.679687zm0 0" fill="#95a5a5"/><path d="m242.988281 399.1875c0 4.792969-3.886719 8.675781-8.675781 8.675781-4.792969 0-8.679688-3.882812-8.679688-8.675781s3.886719-8.679688 8.679688-8.679688c4.789062 0 8.675781 3.886719 8.675781 8.679688zm0 0" fill="#7f8c8d"/><path d="m277.699219 399.1875c0 4.792969-3.882813 8.675781-8.675781 8.675781-4.792969 0-8.679688-3.882812-8.679688-8.675781s3.886719-8.679688 8.679688-8.679688c4.792968 0 8.675781 3.886719 8.675781 8.679688zm0 0" fill="#7f8c8d"/><path d="m312.414062 399.1875c0 4.792969-3.886718 8.675781-8.679687 8.675781s-8.679687-3.882812-8.679687-8.675781 3.886718-8.679688 8.679687-8.679688 8.679687 3.886719 8.679687 8.679688zm0 0" fill="#7f8c8d"/><path d="m459.9375 512h-416.542969c-4.792969 0-8.675781-3.886719-8.675781-8.679688 0-4.789062 3.882812-8.675781 8.675781-8.675781h416.542969c4.792969 0 8.679688 3.886719 8.679688 8.675781 0 4.792969-3.886719 8.679688-8.679688 8.679688zm0 0" fill="#7f8c8d"/></svg>