<svg height="512pt" viewBox="0 0 512 512" width="512pt" xmlns="http://www.w3.org/2000/svg"><path d="m406.070312 48.199219v85.539062c0 17.917969-21.539062 33.808594-55.351562 44.226563l-26.304688 6.707031c-20.339843 3.480469-40.902343 5.515625-61.527343 6.09375l-99.046875-11.125c-34.25-10.414063-57.910156-27.894531-57.910156-45.902344v-85.539062c0 27.363281 57.46875 52.082031 125.089843 57.644531l60.644531-2.207031c65.675782-6.09375 114.40625-28.601563 114.40625-55.4375zm0 0" fill="#95a5a5"/><path d="m406.070312 133.738281v88.011719c-1.855468 18.183594-26.308593 34.160156-62.855468 44.046875l-168.515625 1.945313c-42.550781-10.066407-68.769531-27.984376-68.769531-48.375v-85.628907c0 18.007813 23.660156 35.488281 57.910156 45.902344l99.046875 11.125c20.625-.578125 41.1875-2.613281 61.527343-6.09375l26.304688-6.707031c33.8125-10.417969 55.351562-26.308594 55.351562-44.226563zm0 0" fill="#7f8c8d"/><path d="m406.070312 221.75v78.386719h-300.140624v-80.769531c0 20.390624 26.21875 38.308593 68.769531 48.375l168.515625-1.945313c36.546875-9.886719 61-25.863281 62.855468-44.046875zm0 0" fill="#95a5a5"/><path d="m406.070312 48.199219c0 26.835937-48.730468 49.34375-114.40625 55.4375l-60.644531 2.207031c-67.621093-5.5625-125.089843-30.28125-125.089843-57.644531 0-31.515625 67.179687-48.199219 150.070312-48.199219s150.070312 16.683594 150.070312 48.199219zm0 0" fill="#bdc3c7"/><path d="m132.414062 300.136719v52.964843h-132.414062v-35.308593c.0273438-9.738281 7.917969-17.625 17.65625-17.65625zm0 0" fill="#cc4b4c"/><path d="m132.414062 300.136719h247.171876v52.964843h-247.171876zm0 0" fill="#802f34"/><g fill="#cc4b4c"><path d="m512 317.792969v35.308593h-132.414062v-52.964843h114.757812c9.738281.03125 17.628906 7.917969 17.65625 17.65625zm0 0"/><path d="m0 406.070312h132.414062v52.964844h-132.414062zm0 0"/><path d="m379.585938 406.070312h132.414062v52.964844h-132.414062zm0 0"/></g><path d="m256 353.101562h256v52.96875h-256zm0 0" fill="#fb7b76"/><path d="m0 353.101562h256v52.96875h-256zm0 0" fill="#c2615f"/><path d="m512 459.035156v35.308594c-.027344 9.738281-7.917969 17.628906-17.65625 17.65625h-238.34375v-52.964844zm0 0" fill="#fb7b76"/><path d="m256 459.035156v52.964844h-238.34375c-9.738281-.027344-17.6289062-7.917969-17.65625-17.65625v-35.308594zm0 0" fill="#c2615f"/><path d="m132.414062 406.070312h247.171876v52.964844h-247.171876zm0 0" fill="#802f34"/><path d="m208.835938 129.324219c-27.746094 17.65625-49.9375 47.855469-49.9375 82.449219 0 57.097656 46.085937 106.019531 99.875 106.019531 53.785156 0 94.328124-48.921875 94.328124-106.019531.015626-16.480469-3.621093-32.757813-10.644531-47.667969-.839843-1.984375-2.839843-3.21875-4.988281-3.074219-2.148438.140625-3.972656 1.625-4.546875 3.699219-6.0625 19.5625-16.207031 37.613281-29.757813 52.964843-22.191406 23.554688-38.839843 17.65625-44.390624 11.777344-5.554688-5.878906-11.097657-23.558594 11.09375-47.121094 28.910156-30.710937 32.917968-82.527343-13.867188-127.957031-1.429688-1.355469-3.511719-1.761719-5.347656-1.046875-1.835938.71875-3.089844 2.429688-3.222656 4.394532-1.792969 14.644531-3.410157 49.167968-38.59375 71.582031zm0 0" fill="#f3d55b"/><path d="m258.773438 300.136719c-43.796876 0-82.222657-41.285157-82.222657-88.363281 0-30.191407 21.574219-54.730469 41.765625-67.566407 20.960938-12.890625 36.066406-33.449219 42.097656-57.308593 22.703126 34.171874 13.445313 65.472656-3.371093 83.324218-30.976563 32.875-20.800781 61.035156-11.097657 71.335938 6.972657 7.082031 16.546876 10.992187 26.484376 10.8125 10.203124 0 26.046874-3.917969 43.632812-22.597656 7.382812-7.921876 13.792969-16.699219 19.085938-26.148438.230468 2.71875.351562 5.449219.351562 8.148438-.050781 48.730468-34.480469 88.363281-76.726562 88.363281zm0 0" fill="#f18d46"/></svg>