<svg height="512pt" viewBox="-9 0 512 512" width="512pt" xmlns="http://www.w3.org/2000/svg"><path d="m110.933594 238.933594 115.445312-61.578125c2.648438-1.410157 5.839844-1.332031 8.414063.210937 2.570312 1.546875 4.144531 4.324219 4.140625 7.324219v142.21875c.003906 3-1.570313 5.777344-4.140625 7.324219-2.574219 1.542968-5.765625 1.621094-8.414063.210937l-115.445312-61.578125zm0 0" fill="#f3d55b"/><path d="m477.867188 401.066406h-187.734376c-9.425781 0-17.066406-7.640625-17.066406-17.066406v-256c0-9.425781 7.640625-17.066406 17.066406-17.066406h136.535157l68.265625 68.265625v204.800781c0 9.425781-7.640625 17.066406-17.066406 17.066406zm0 0" fill="#f9eab0"/><path d="m426.667969 110.933594v59.734375c0 4.710937 3.820312 8.53125 8.53125 8.53125h59.734375zm0 0" fill="#f5efca"/><path d="m384 179.199219h-66.558594c-4.714844 0-8.535156-3.820313-8.535156-8.53125 0-4.714844 3.820312-8.535157 8.535156-8.535157h66.558594c4.710938 0 8.535156 3.820313 8.535156 8.535157 0 4.710937-3.824218 8.53125-8.535156 8.53125zm0 0" fill="#464f5d"/><path d="m384 221.867188h-68.265625c-4.714844 0-8.535156-3.820313-8.535156-8.535157 0-4.710937 3.820312-8.53125 8.535156-8.53125h68.265625c4.710938 0 8.535156 3.820313 8.535156 8.53125 0 4.714844-3.824218 8.535157-8.535156 8.535157zm0 0" fill="#464f5d"/><path d="m452.265625 264.535156h-136.53125c-4.714844 0-8.535156-3.824218-8.535156-8.535156s3.820312-8.535156 8.535156-8.535156h136.53125c4.714844 0 8.535156 3.824218 8.535156 8.535156s-3.820312 8.535156-8.535156 8.535156zm0 0" fill="#464f5d"/><path d="m452.265625 307.199219h-136.53125c-4.714844 0-8.535156-3.820313-8.535156-8.53125 0-4.714844 3.820312-8.535157 8.535156-8.535157h136.53125c4.714844 0 8.535156 3.820313 8.535156 8.535157 0 4.710937-3.820312 8.53125-8.535156 8.53125zm0 0" fill="#464f5d"/><path d="m452.265625 349.867188h-136.53125c-4.714844 0-8.535156-3.820313-8.535156-8.535157 0-4.710937 3.820312-8.53125 8.535156-8.53125h136.53125c4.714844 0 8.535156 3.820313 8.535156 8.53125 0 4.714844-3.820312 8.535157-8.535156 8.535157zm0 0" fill="#464f5d"/><path d="m494.933594 0v59.734375c0 9.425781-7.640625 17.066406-17.066406 17.066406h-187.734376c-9.425781 0-17.066406-7.640625-17.066406-17.066406v-59.734375zm0 0" fill="#f9eab0"/><path d="m452.265625 25.601562h-136.53125c-4.714844 0-8.535156-3.820312-8.535156-8.535156 0-4.710937 3.820312-8.53125 8.535156-8.53125h136.53125c4.714844 0 8.535156 3.820313 8.535156 8.53125 0 4.714844-3.820312 8.535156-8.535156 8.535156zm0 0" fill="#464f5d"/><path d="m273.066406 512v-59.734375c0-9.425781 7.640625-17.066406 17.066406-17.066406h136.535157l68.265625 68.265625v8.535156zm0 0" fill="#f9eab0"/><path d="m426.667969 435.199219v59.734375c0 4.710937 3.820312 8.53125 8.53125 8.53125h59.734375zm0 0" fill="#f5efca"/><path d="m384 503.464844h-66.558594c-4.714844 0-8.535156-3.820313-8.535156-8.53125 0-4.714844 3.820312-8.535156 8.535156-8.535156h66.558594c4.710938 0 8.535156 3.820312 8.535156 8.535156 0 4.710937-3.824218 8.53125-8.535156 8.53125zm0 0" fill="#464f5d"/><path d="m187.734375 281.601562c-4.714844 0-8.535156-3.820312-8.535156-8.535156v-34.132812c0-4.714844 3.820312-8.535156 8.535156-8.535156 4.710937 0 8.53125 3.820312 8.53125 8.535156v34.132812c0 4.714844-3.820313 8.535156-8.53125 8.535156zm0 0" fill="#f0c419"/><path d="m221.867188 298.667969c-4.714844 0-8.535157-3.820313-8.535157-8.535157v-68.265624c0-4.714844 3.820313-8.535157 8.535157-8.535157 4.710937 0 8.53125 3.820313 8.53125 8.535157v68.265624c0 4.714844-3.820313 8.535157-8.53125 8.535157zm0 0" fill="#f0c419"/><g fill="#cc66a1"><path d="m238.933594 153.601562c-4.714844 0-8.535156-3.820312-8.535156-8.535156v-17.066406c0-4.710938 3.820312-8.535156 8.535156-8.535156 4.710937 0 8.53125 3.824218 8.53125 8.535156v17.066406c0 4.714844-3.820313 8.535156-8.53125 8.535156zm0 0"/><path d="m238.933594 102.398438c-4.714844 0-8.535156-3.820313-8.535156-8.53125v-17.066407c0-4.714843 3.820312-8.535156 8.535156-8.535156 4.710937 0 8.53125 3.820313 8.53125 8.535156v17.066407c0 4.710937-3.820313 8.53125-8.53125 8.53125zm0 0"/><path d="m238.933594 51.199219c-4.714844 0-8.535156-3.820313-8.535156-8.53125v-17.066407c0-4.714843 3.820312-8.535156 8.535156-8.535156 4.710937 0 8.53125 3.820313 8.53125 8.535156v17.066407c0 4.710937-3.820313 8.53125-8.53125 8.53125zm0 0"/><path d="m238.933594 494.933594c-4.714844 0-8.535156-3.820313-8.535156-8.535156v-17.066407c0-4.710937 3.820312-8.53125 8.535156-8.53125 4.710937 0 8.53125 3.820313 8.53125 8.53125v17.066407c0 4.714843-3.820313 8.535156-8.53125 8.535156zm0 0"/><path d="m238.933594 443.734375c-4.714844 0-8.535156-3.820313-8.535156-8.535156v-17.066407c0-4.710937 3.820312-8.53125 8.535156-8.53125 4.710937 0 8.53125 3.820313 8.53125 8.53125v17.066407c0 4.714843-3.820313 8.535156-8.53125 8.535156zm0 0"/><path d="m238.933594 392.535156c-4.714844 0-8.535156-3.824218-8.535156-8.535156v-17.066406c0-4.714844 3.820312-8.535156 8.535156-8.535156 4.710937 0 8.53125 3.820312 8.53125 8.535156v17.066406c0 4.710938-3.820313 8.535156-8.53125 8.535156zm0 0"/></g><path d="m110.933594 281.601562 7.140625 49.996094c.351562 2.449219-.378907 4.925782-2 6.792969-1.621094 1.871094-3.972657 2.941406-6.445313 2.941406h-23.613281zm0 0" fill="#cc4b4c"/><path d="m110.933594 281.601562-41.4375 99.445313c-.792969 1.898437-.871094 4.019531-.222656 5.972656l3.78125 11.34375c.867187 2.601563.433593 5.460938-1.167969 7.6875-1.601563 2.226563-4.179688 3.546875-6.921875 3.550781h-56.429688c-4.714844 0-8.535156-3.820312-8.535156-8.535156v-19.457031c0-3.667969 2.347656-6.925781 5.828125-8.089844l19.773437-6.585937 34.132813-85.332032" fill="#35495e"/><path d="m119.464844 281.601562h-72.386719c-2.871094 0-5.546875-1.4375-7.128906-3.835937-1.582031-2.394531-1.851563-5.421875-.722657-8.0625l17.945313-41.929687c1.496094-3.503907 5.125-5.589844 8.902344-5.121094l54.417969 6.824218c4.269531.535157 7.472656 4.164063 7.472656 8.46875v35.121094c0 4.699219-3.796875 8.515625-8.5 8.535156zm0 0" fill="#2c3e50"/></svg>