<svg height="512pt" viewBox="0 0 512 512" width="512pt" xmlns="http://www.w3.org/2000/svg"><path d="m17.65625 0h476.6875c9.75 0 17.65625 7.90625 17.65625 17.65625v476.6875c0 9.75-7.90625 17.65625-17.65625 17.65625h-476.6875c-9.75 0-17.65625-7.90625-17.65625-17.65625v-476.6875c0-9.75 7.90625-17.65625 17.65625-17.65625zm0 0" fill="#b49aca"/><path d="m52.964844 35.308594h141.242187c9.75 0 17.65625 7.90625 17.65625 17.65625v105.933594c0 9.75-7.90625 17.652343-17.65625 17.652343h-141.242187c-9.75 0-17.65625-7.902343-17.65625-17.652343v-105.933594c0-9.75 7.90625-17.65625 17.65625-17.65625zm0 0" fill="#804169"/><path d="m150.070312 97.101562c0 14.628907-11.859374 26.484376-26.484374 26.484376s-26.484376-11.855469-26.484376-26.484376c0-14.625 11.859376-26.480468 26.484376-26.480468s26.484374 11.855468 26.484374 26.480468zm0 0" fill="#fdd7ad"/><path d="m70.621094 176.550781c0-29.25 23.714844-52.964843 52.964844-52.964843 29.253906 0 52.964843 23.714843 52.964843 52.964843zm0 0" fill="#4fba6f"/><path d="m476.691406 44.136719h-220.691406c-4.875 0-8.828125-3.949219-8.828125-8.828125 0-4.875 3.953125-8.824219 8.828125-8.824219h220.691406c4.875 0 8.824219 3.949219 8.824219 8.824219 0 4.878906-3.949219 8.828125-8.824219 8.828125zm0 0" fill="#3d324c"/><path d="m476.691406 79.449219h-220.691406c-4.875 0-8.828125-3.953125-8.828125-8.828125s3.953125-8.828125 8.828125-8.828125h220.691406c4.875 0 8.824219 3.953125 8.824219 8.828125s-3.949219 8.828125-8.824219 8.828125zm0 0" fill="#3d324c"/><path d="m423.722656 114.757812h-114.757812c-4.875 0-8.828125-3.953124-8.828125-8.828124s3.953125-8.828126 8.828125-8.828126h114.757812c4.875 0 8.828125 3.953126 8.828125 8.828126s-3.953125 8.828124-8.828125 8.828124zm0 0" fill="#3d324c"/><path d="m264.828125 105.929688c0 4.875-3.953125 8.828124-8.828125 8.828124s-8.828125-3.953124-8.828125-8.828124 3.953125-8.828126 8.828125-8.828126 8.828125 3.953126 8.828125 8.828126zm0 0" fill="#3d324c"/><path d="m423.722656 150.070312h-114.757812c-4.875 0-8.828125-3.953124-8.828125-8.828124s3.953125-8.828126 8.828125-8.828126h114.757812c4.875 0 8.828125 3.953126 8.828125 8.828126s-3.953125 8.828124-8.828125 8.828124zm0 0" fill="#3d324c"/><path d="m264.828125 141.242188c0 4.875-3.953125 8.828124-8.828125 8.828124s-8.828125-3.953124-8.828125-8.828124 3.953125-8.828126 8.828125-8.828126 8.828125 3.953126 8.828125 8.828126zm0 0" fill="#3d324c"/><path d="m423.722656 185.378906h-114.757812c-4.875 0-8.828125-3.953125-8.828125-8.828125s3.953125-8.828125 8.828125-8.828125h114.757812c4.875 0 8.828125 3.953125 8.828125 8.828125s-3.953125 8.828125-8.828125 8.828125zm0 0" fill="#3d324c"/><path d="m264.828125 176.550781c0 4.875-3.953125 8.828125-8.828125 8.828125s-8.828125-3.953125-8.828125-8.828125 3.953125-8.828125 8.828125-8.828125 8.828125 3.953125 8.828125 8.828125zm0 0" fill="#3d324c"/><path d="m158.898438 291.308594c-4.878907 0-8.828126-3.949219-8.828126-8.824219v-17.65625h-61.792968c-4.875 0-8.828125-3.953125-8.828125-8.828125s3.953125-8.828125 8.828125-8.828125h70.621094c4.875 0 8.824218 3.953125 8.824218 8.828125v26.484375c0 4.875-3.949218 8.824219-8.824218 8.824219zm0 0" fill="#f3d55b"/><path d="m70.621094 282.484375c-14.625 0-26.484375-11.859375-26.484375-26.484375s11.859375-26.484375 26.484375-26.484375 26.480468 11.859375 26.480468 26.484375-11.855468 26.484375-26.480468 26.484375zm0-35.3125c-4.875 0-8.828125 3.953125-8.828125 8.828125s3.953125 8.828125 8.828125 8.828125 8.828125-3.953125 8.828125-8.828125-3.953125-8.828125-8.828125-8.828125zm0 0" fill="#f3d55b"/><path d="m123.585938 282.484375c-4.875 0-8.828126-3.953125-8.828126-8.828125v-17.65625c0-4.875 3.953126-8.828125 8.828126-8.828125s8.828124 3.953125 8.828124 8.828125v17.65625c0 4.875-3.953124 8.828125-8.828124 8.828125zm0 0" fill="#f3d55b"/><g fill="#804169"><path d="m264.828125 282.484375c-2.339844-.003906-4.585937-.933594-6.242187-2.589844l-35.308594-35.308593c-3.347656-3.464844-3.296875-8.96875.105468-12.375 3.40625-3.40625 8.910157-3.453126 12.375-.105469l35.3125 35.308593c2.523438 2.523438 3.277344 6.320313 1.910157 9.617188-1.363281 3.300781-4.582031 5.449219-8.152344 5.453125zm0 0"/><path d="m229.515625 282.484375c-3.566406-.003906-6.785156-2.152344-8.152344-5.453125-1.367187-3.296875-.609375-7.09375 1.914063-9.617188l35.308594-35.308593c3.464843-3.347657 8.96875-3.300781 12.375.105469s3.453124 8.910156.109374 12.375l-35.3125 35.308593c-1.65625 1.65625-3.898437 2.585938-6.242187 2.589844zm0 0"/><path d="m335.449219 282.484375c-2.34375-.003906-4.585938-.933594-6.242188-2.589844l-35.308593-35.308593c-3.347657-3.464844-3.300782-8.96875.105468-12.375s8.910156-3.453126 12.375-.105469l35.308594 35.308593c2.527344 2.523438 3.28125 6.320313 1.914062 9.617188-1.367187 3.300781-4.582031 5.449219-8.152343 5.453125zm0 0"/><path d="m300.136719 282.484375c-3.570313-.003906-6.785157-2.152344-8.152344-5.453125-1.367187-3.296875-.613281-7.09375 1.914063-9.617188l35.308593-35.308593c3.464844-3.347657 8.96875-3.300781 12.375.105469s3.453125 8.910156.105469 12.375l-35.308594 35.308593c-1.65625 1.65625-3.898437 2.585938-6.242187 2.589844zm0 0"/><path d="m406.070312 282.484375c-2.34375-.003906-4.585937-.933594-6.242187-2.589844l-35.3125-35.308593c-3.34375-3.464844-3.296875-8.96875.109375-12.375s8.910156-3.453126 12.375-.105469l35.308594 35.308593c2.523437 2.523438 3.28125 6.320313 1.914062 9.617188-1.367187 3.300781-4.582031 5.449219-8.152344 5.453125zm0 0"/><path d="m370.757812 282.484375c-3.570312-.003906-6.785156-2.152344-8.152343-5.453125-1.367188-3.296875-.613281-7.09375 1.910156-9.617188l35.3125-35.308593c3.464844-3.347657 8.96875-3.300781 12.375.105469s3.453125 8.910156.105469 12.375l-35.308594 35.308593c-1.65625 1.65625-3.898438 2.585938-6.242188 2.589844zm0 0"/><path d="m476.691406 282.484375c-2.34375-.003906-4.585937-.933594-6.242187-2.589844l-35.3125-35.308593c-3.34375-3.464844-3.296875-8.96875.109375-12.375s8.910156-3.453126 12.375-.105469l35.308594 35.308593c2.523437 2.523438 3.28125 6.320313 1.914062 9.617188-1.367188 3.300781-4.585938 5.449219-8.152344 5.453125zm0 0"/><path d="m441.378906 282.484375c-3.570312-.003906-6.789062-2.152344-8.152344-5.453125-1.367187-3.296875-.613281-7.09375 1.910157-9.617188l35.3125-35.308593c3.464843-3.347657 8.96875-3.300781 12.375.105469 3.402343 3.40625 3.453125 8.910156.105469 12.375l-35.308594 35.308593c-1.65625 1.65625-3.902344 2.585938-6.242188 2.589844zm0 0"/></g><path d="m105.929688 423.722656c-4.875 0-8.828126-3.949218-8.828126-8.824218v-17.65625c0-4.875 3.953126-8.828126 8.828126-8.828126 9.753906 0 17.65625-7.90625 17.65625-17.65625s-7.902344-17.65625-17.65625-17.65625c-9.75 0-17.652344 7.90625-17.652344 17.65625 0 4.875-3.953125 8.828126-8.828125 8.828126s-8.828125-3.953126-8.828125-8.828126c.003906-18.347656 14.0625-33.636718 32.34375-35.175781 18.285156-1.539062 34.703125 11.179688 37.777344 29.269531 3.074218 18.089844-8.21875 35.519532-25.984376 40.105469v9.941407c0 4.875-3.953124 8.824218-8.828124 8.824218zm0 0" fill="#3d324c"/><path d="m114.757812 450.207031c0 4.875-3.953124 8.828125-8.828124 8.828125s-8.828126-3.953125-8.828126-8.828125 3.953126-8.828125 8.828126-8.828125 8.828124 3.953125 8.828124 8.828125zm0 0" fill="#3d324c"/><path d="m476.691406 423.722656h-247.175781c-4.875 0-8.824219-3.949218-8.824219-8.824218 0-4.878907 3.949219-8.828126 8.824219-8.828126h247.175781c4.875 0 8.824219 3.949219 8.824219 8.828126 0 4.875-3.949219 8.824218-8.824219 8.824218zm0 0" fill="#3d324c"/><path d="m353.101562 459.035156h-123.585937c-4.875 0-8.824219-3.953125-8.824219-8.828125s3.949219-8.828125 8.824219-8.828125h123.585937c4.878907 0 8.828126 3.953125 8.828126 8.828125s-3.949219 8.828125-8.828126 8.828125zm0 0" fill="#3d324c"/><path d="m476.691406 353.101562v17.65625c0 4.875-3.953125 8.828126-8.828125 8.828126h-44.140625v-35.308594h44.140625c4.875 0 8.828125 3.949218 8.828125 8.824218zm0 0" fill="#f0c419"/><path d="m423.722656 344.277344v35.308594h-185.378906c-4.875 0-8.828125-3.953126-8.828125-8.828126v-17.65625c0-4.875 3.953125-8.824218 8.828125-8.824218zm0 0" fill="#f3d55b"/></svg>