<svg height="512pt" viewBox="0 0 512 512" width="512pt" xmlns="http://www.w3.org/2000/svg"><path d="m503.464844 256c0 136.671875-110.792969 247.464844-247.464844 247.464844s-247.464844-110.792969-247.464844-247.464844 110.792969-247.464844 247.464844-247.464844 247.464844 110.792969 247.464844 247.464844zm0 0" fill="#4482c3"/><g fill="#285680"><path d="m256 512c-141.386719 0-256-114.613281-256-256s114.613281-256 256-256 256 114.613281 256 256c-.160156 141.320312-114.679688 255.839844-256 256zm0-494.933594c-131.960938 0-238.933594 106.972656-238.933594 238.933594s106.972656 238.933594 238.933594 238.933594 238.933594-106.972656 238.933594-238.933594c-.152344-131.898438-107.035156-238.78125-238.933594-238.933594zm0 0"/><path d="m256 512c-94.105469 0-170.667969-114.839844-170.667969-256s76.5625-256 170.667969-256 170.667969 114.839844 170.667969 256-76.5625 256-170.667969 256zm0-494.933594c-84.691406 0-153.601562 107.1875-153.601562 238.933594s68.910156 238.933594 153.601562 238.933594 153.601562-107.1875 153.601562-238.933594-68.910156-238.933594-153.601562-238.933594zm0 0"/><path d="m256 136.535156c-4.710938 0-8.535156-3.824218-8.535156-8.535156v-119.464844c0-4.714844 3.824218-8.535156 8.535156-8.535156s8.535156 3.820312 8.535156 8.535156v119.464844c0 4.710938-3.824218 8.535156-8.535156 8.535156zm0 0"/><path d="m256 512c-4.710938 0-8.535156-3.820312-8.535156-8.535156v-112.195313c0-4.710937 3.824218-8.53125 8.535156-8.53125s8.535156 3.820313 8.535156 8.53125v112.195313c0 4.714844-3.824218 8.535156-8.535156 8.535156zm0 0"/><path d="m426.667969 443.734375c-.542969 0-1.082031-.054687-1.613281-.15625-55.742188-10.613281-112.316407-16.273437-169.054688-16.910156-56.742188.636719-113.316406 6.296875-169.0625 16.910156-3.019531.636719-6.148438-.40625-8.179688-2.730469-2.03125-2.320312-2.652343-5.558594-1.621093-8.46875 1.03125-2.90625 3.550781-5.035156 6.59375-5.558594 56.800781-10.8125 114.449219-16.578124 172.269531-17.21875 57.820312.640626 115.46875 6.40625 172.269531 17.21875 4.320313.832032 7.300781 4.808594 6.886719 9.183594-.417969 4.378906-4.089844 7.726563-8.488281 7.730469zm0 0"/><path d="m256 102.398438c-57.820312-.640626-115.46875-6.40625-172.269531-17.21875-3.042969-.523438-5.5625-2.652344-6.59375-5.558594-1.03125-2.910156-.410157-6.148438 1.621093-8.46875 2.03125-2.324219 5.160157-3.367188 8.179688-2.730469 55.746094 10.613281 112.320312 16.273437 169.0625 16.910156 56.742188-.636719 113.316406-6.296875 169.0625-16.910156 3.019531-.636719 6.148438.40625 8.179688 2.730469 2.03125 2.320312 2.652343 5.558594 1.621093 8.46875-1.03125 2.90625-3.550781 5.035156-6.59375 5.558594-56.800781 10.8125-114.449219 16.578124-172.269531 17.21875zm0 0"/><path d="m503.464844 264.535156h-145.066406c-4.710938 0-8.53125-3.824218-8.53125-8.535156s3.820312-8.535156 8.53125-8.535156h145.066406c4.714844 0 8.535156 3.824218 8.535156 8.535156s-3.820312 8.535156-8.535156 8.535156zm0 0"/><path d="m153.601562 264.535156h-145.066406c-4.714844 0-8.535156-3.824218-8.535156-8.535156s3.820312-8.535156 8.535156-8.535156h145.066406c4.710938 0 8.53125 3.824218 8.53125 8.535156s-3.820312 8.535156-8.53125 8.535156zm0 0"/></g><path d="m273.476562 136.472656-17.476562-17.007812-17.476562 17.007812c-23.191407 21.554688-57.882813 25.066406-84.921876 8.59375v128.417969c.265626 35.515625 19.515626 68.175781 50.457032 85.617187l51.941406 32.167969 51.941406-32.167969c30.941406-17.441406 50.191406-50.101562 50.457032-85.617187v-128.417969c-27.039063 16.472656-61.730469 12.960938-84.921876-8.59375zm0 0" fill="#ecf0f1"/><path d="m315.734375 254.738281c0 32.988281-26.746094 59.730469-59.734375 59.730469s-59.734375-26.742188-59.734375-59.730469c0-32.992187 26.746094-59.734375 59.734375-59.734375s59.734375 26.742188 59.734375 59.734375zm0 0" fill="#4fba6f"/><path d="m247.464844 280.335938c-2.261719 0-4.429688-.898438-6.03125-2.5l-8.535156-8.53125c-3.230469-3.347657-3.1875-8.671876.105468-11.964844 3.292969-3.289063 8.613282-3.335938 11.960938-.101563l2.5 2.5 19.570312-19.566406c3.347656-3.234375 8.667969-3.1875 11.960938.101563 3.292968 3.292968 3.335937 8.613281.105468 11.964843l-25.601562 25.597657c-1.601562 1.601562-3.769531 2.5-6.035156 2.5zm0 0" fill="#ecf0f1"/></svg>