<svg height="512pt" viewBox="0 0 512 512" width="512pt" xmlns="http://www.w3.org/2000/svg"><path d="m512 70.621094v423.722656c-.027344 9.738281-7.917969 17.628906-17.65625 17.65625h-476.6875c-9.738281-.027344-17.6289062-7.917969-17.65625-17.65625v-423.722656zm0 0" fill="#2c3e50"/><path d="m397.242188 229.515625c0 63.382813-51.378907 114.761719-114.757813 114.761719-63.382813 0-114.761719-51.378906-114.761719-114.761719 0-63.378906 51.378906-114.757813 114.761719-114.757813 63.378906 0 114.757813 51.378907 114.757813 114.757813zm0 0" fill="#cc4b4c"/><path d="m512 17.65625v52.964844h-512v-52.964844c.0273438-9.738281 7.917969-17.6289062 17.65625-17.65625h476.6875c9.738281.0273438 17.628906 7.917969 17.65625 17.65625zm0 0" fill="#285680"/><path d="m44.136719 35.308594c0 4.878906-3.949219 8.828125-8.828125 8.828125-4.875 0-8.824219-3.949219-8.824219-8.828125 0-4.875 3.949219-8.824219 8.824219-8.824219 4.878906 0 8.828125 3.949219 8.828125 8.824219zm0 0" fill="#e64c3c"/><path d="m79.449219 35.308594c0 4.878906-3.953125 8.828125-8.828125 8.828125s-8.828125-3.949219-8.828125-8.828125c0-4.875 3.953125-8.824219 8.828125-8.824219s8.828125 3.949219 8.828125 8.824219zm0 0"/><path d="m79.449219 35.308594c0 4.878906-3.953125 8.828125-8.828125 8.828125s-8.828125-3.949219-8.828125-8.828125c0-4.875 3.953125-8.824219 8.828125-8.824219s8.828125 3.949219 8.828125 8.824219zm0 0" fill="#f0c419"/><path d="m114.757812 35.308594c0 4.878906-3.953124 8.828125-8.828124 8.828125s-8.828126-3.949219-8.828126-8.828125c0-4.875 3.953126-8.824219 8.828126-8.824219s8.828124 3.949219 8.828124 8.824219zm0 0" fill="#4fba6f"/><path d="m252.46875 195.882812c-18.429688 9.875-30.449219 28.570313-31.777344 49.4375.582032 34.871094 28.683594 63.011719 63.558594 63.644532 16.398438-.460938 31.941406-7.425782 43.203125-19.359375 11.257813-11.929688 17.3125-27.851563 16.824219-44.25-.003906-9.9375-2.320313-19.738281-6.773438-28.621094-.582031-1.195313-1.832031-1.921875-3.164062-1.839844-1.328125.082031-2.476563.960938-2.90625 2.21875-3.785156 12.738281-10.242188 24.523438-18.9375 34.570313-14.125 14.125-24.714844 7.804687-28.246094 4.273437s-7.0625-14.125 7.058594-28.25c18.398437-18.414062 20.949218-49.503906-8.824219-76.800781-.90625-.824219-2.195313-1.074219-3.339844-.652344-1.148437.425782-1.964843 1.453125-2.117187 2.667969-.296875 17.578125-9.5625 33.785156-24.558594 42.960937zm0 0" fill="#f0c419"/><path d="m52.964844 406.070312h406.070312c9.75 0 17.65625 7.902344 17.65625 17.652344v35.3125c0 9.75-7.90625 17.65625-17.65625 17.65625h-406.070312c-9.75 0-17.65625-7.90625-17.65625-17.65625v-35.3125c0-9.75 7.90625-17.652344 17.65625-17.652344zm0 0" fill="#b0d3f0"/><g fill="#b49aca"><path d="m476.691406 370.757812c0 4.875-3.953125 8.828126-8.828125 8.828126s-8.828125-3.953126-8.828125-8.828126 3.953125-8.828124 8.828125-8.828124 8.828125 3.953124 8.828125 8.828124zm0 0"/><path d="m423.722656 317.792969c0 4.875-3.949218 8.828125-8.824218 8.828125-4.878907 0-8.828126-3.953125-8.828126-8.828125s3.949219-8.828125 8.828126-8.828125c4.875 0 8.824218 3.953125 8.824218 8.828125zm0 0"/><path d="m414.898438 379.585938c-3.570313 0-6.789063-2.152344-8.15625-5.449219-1.367188-3.296875-.609376-7.09375 1.914062-9.621094l52.964844-52.964844c3.464844-3.34375 8.96875-3.296875 12.375.109375s3.453125 8.910156.105468 12.375l-52.964843 52.964844c-1.652344 1.65625-3.898438 2.585938-6.238281 2.585938zm0 0"/></g><path d="m70.621094 326.621094v-98.605469c.003906-4.691406-1.859375-9.191406-5.183594-12.507813l-24.988281-24.992187c-3.292969-3.289063-5.140625-7.753906-5.140625-12.410156v-28.035157c0-9.753906 7.90625-17.65625 17.65625-17.65625h8.828125c4.875 0 8.828125 3.953126 8.828125 8.828126v19.191406c0 4.667968 1.855468 9.144531 5.15625 12.445312 3.3125 3.320313 7.808594 5.1875 12.5 5.1875 4.6875 0 9.1875-1.867187 12.5-5.1875 3.300781-3.300781 5.152344-7.777344 5.152344-12.445312v-19.191406c0-4.875 3.953124-8.828126 8.828124-8.828126h8.828126c9.75 0 17.65625 7.902344 17.65625 17.65625v28.035157c0 4.65625-1.847657 9.121093-5.136719 12.410156l-24.992188 24.992187c-3.320312 3.316407-5.1875 7.816407-5.183593 12.507813v98.605469c0 9.75-7.902344 17.65625-17.652344 17.65625-9.753906 0-17.65625-7.90625-17.65625-17.65625zm0 0" fill="#bdc3c7"/><path d="m326.621094 450.207031h-256c-4.875 0-8.828125-3.953125-8.828125-8.828125s3.953125-8.828125 8.828125-8.828125h256c4.875 0 8.828125 3.953125 8.828125 8.828125s-3.953125 8.828125-8.828125 8.828125zm0 0" fill="#35495e"/></svg>