<svg height="512pt" viewBox="-4 0 512 512" width="512pt" xmlns="http://www.w3.org/2000/svg"><path d="m164.882812 242.984375h173.558594v69.421875h-173.558594zm0 0" fill="#2c3e50"/><path d="m321.085938 251.660156h34.710937v52.070313h-34.710937zm0 0" fill="#285680"/><path d="m147.527344 251.660156h34.710937v52.070313h-34.710937zm0 0" fill="#285680"/><g fill="#cc66a1"><path d="m321.085938 381.832031c-4.792969 0-8.679688-3.886719-8.679688-8.679687v-8.679688c0-4.789062 3.886719-8.675781 8.679688-8.675781 4.792968 0 8.675781 3.886719 8.675781 8.675781v8.679688c0 4.792968-3.882813 8.679687-8.675781 8.679687zm0 0"/><path d="m321.085938 425.21875c-4.792969 0-8.679688-3.882812-8.679688-8.675781v-8.679688c0-4.792969 3.886719-8.675781 8.679688-8.675781 4.792968 0 8.675781 3.882812 8.675781 8.675781v8.679688c0 4.792969-3.882813 8.675781-8.675781 8.675781zm0 0"/><path d="m390.507812 477.289062h-17.355468c-4.792969 0-8.679688-3.886718-8.679688-8.679687s3.886719-8.675781 8.679688-8.675781h17.355468c4.792969 0 8.679688 3.882812 8.679688 8.675781s-3.886719 8.679687-8.679688 8.679687zm0 0"/><path d="m338.441406 477.289062h-17.355468c-4.792969 0-8.679688-3.886718-8.679688-8.679687v-17.355469c0-4.792968 3.886719-8.675781 8.679688-8.675781 4.792968 0 8.675781 3.882813 8.675781 8.675781v8.679688h8.679687c4.792969 0 8.675782 3.882812 8.675782 8.675781s-3.882813 8.679687-8.675782 8.679687zm0 0"/><path d="m182.238281 381.832031c-4.792969 0-8.679687-3.886719-8.679687-8.679687v-8.679688c0-4.789062 3.886718-8.675781 8.679687-8.675781s8.675781 3.886719 8.675781 8.675781v8.679688c0 4.792968-3.882812 8.679687-8.675781 8.679687zm0 0"/><path d="m182.238281 425.21875c-4.792969 0-8.679687-3.882812-8.679687-8.675781v-8.679688c0-4.792969 3.886718-8.675781 8.679687-8.675781s8.675781 3.882812 8.675781 8.675781v8.679688c0 4.792969-3.882812 8.675781-8.675781 8.675781zm0 0"/><path d="m130.167969 477.289062h-17.355469c-4.792969 0-8.675781-3.886718-8.675781-8.679687s3.882812-8.675781 8.675781-8.675781h17.355469c4.792969 0 8.679687 3.882812 8.679687 8.675781s-3.886718 8.679687-8.679687 8.679687zm0 0"/><path d="m182.238281 477.289062h-17.355469c-4.792968 0-8.679687-3.886718-8.679687-8.679687s3.886719-8.675781 8.679687-8.675781h8.675782v-8.679688c0-4.792968 3.886718-8.675781 8.679687-8.675781s8.675781 3.882813 8.675781 8.675781v17.355469c0 4.792969-3.882812 8.679687-8.675781 8.679687zm0 0"/></g><path d="m86.78125 60.746094c-4.792969 0-8.679688-3.886719-8.679688-8.679688v-8.675781c0-14.378906-11.65625-26.035156-26.035156-26.035156-14.375 0-26.03125 11.65625-26.03125 26.035156v8.675781c0 4.792969-3.886718 8.679688-8.679687 8.679688s-8.675781-3.886719-8.675781-8.679688v-8.675781c0-23.964844 19.425781-43.390625 43.386718-43.390625 23.964844 0 43.390625 19.425781 43.390625 43.390625v8.675781c0 4.792969-3.882812 8.679688-8.675781 8.679688zm0 0" fill="#bdc3c7"/><path d="m121.492188 190.914062h260.339843c4.792969 0 8.675781 3.886719 8.675781 8.679688v52.066406c0 4.792969-3.882812 8.679688-8.675781 8.679688h-260.339843c-4.792969 0-8.679688-3.886719-8.679688-8.679688v-52.066406c0-4.792969 3.886719-8.679688 8.679688-8.679688zm0 0" fill="#4482c3"/><path d="m303.730469 234.304688h-34.714844c-4.792969 0-8.675781-3.886719-8.675781-8.675782 0-4.792968 3.882812-8.679687 8.675781-8.679687h34.714844c4.792969 0 8.675781 3.886719 8.675781 8.679687 0 4.789063-3.882812 8.675782-8.675781 8.675782zm0 0" fill="#2c3e50"/><path d="m164.882812 234.304688h-17.355468c-4.792969 0-8.679688-3.886719-8.679688-8.675782 0-4.792968 3.886719-8.679687 8.679688-8.679687h17.355468c4.792969 0 8.675782 3.886719 8.675782 8.679687 0 4.789063-3.882813 8.675782-8.675782 8.675782zm0 0" fill="#2c3e50"/><path d="m355.796875 234.304688h-17.355469c-4.792968 0-8.679687-3.886719-8.679687-8.675782 0-4.792968 3.886719-8.679687 8.679687-8.679687h17.355469c4.792969 0 8.675781 3.886719 8.675781 8.679687 0 4.789063-3.882812 8.675782-8.675781 8.675782zm0 0" fill="#2c3e50"/><path d="m121.492188 295.050781h260.339843c4.792969 0 8.675781 3.886719 8.675781 8.679688v52.066406c0 4.792969-3.882812 8.675781-8.675781 8.675781h-260.339843c-4.792969 0-8.679688-3.882812-8.679688-8.675781v-52.066406c0-4.792969 3.886719-8.679688 8.679688-8.679688zm0 0" fill="#4482c3"/><path d="m251.660156 338.441406h-104.132812c-4.792969 0-8.679688-3.886718-8.679688-8.679687s3.886719-8.675781 8.679688-8.675781h104.132812c4.792969 0 8.679688 3.882812 8.679688 8.675781s-3.886719 8.679687-8.679688 8.679687zm0 0" fill="#2c3e50"/><path d="m303.730469 338.441406h-17.359375c-4.789063 0-8.675782-3.886718-8.675782-8.679687s3.886719-8.675781 8.675782-8.675781h17.359375c4.792969 0 8.675781 3.882812 8.675781 8.675781s-3.882812 8.679687-8.675781 8.679687zm0 0" fill="#2c3e50"/><path d="m355.796875 338.441406h-17.355469c-4.792968 0-8.679687-3.886718-8.679687-8.679687s3.886719-8.675781 8.679687-8.675781h17.355469c4.792969 0 8.675781 3.882812 8.675781 8.675781s-3.882812 8.679687-8.675781 8.679687zm0 0" fill="#2c3e50"/><path d="m208.269531 225.628906c0 4.789063-3.882812 8.675782-8.675781 8.675782s-8.679688-3.886719-8.679688-8.675782c0-4.792968 3.886719-8.679687 8.679688-8.679687s8.675781 3.886719 8.675781 8.679687zm0 0" fill="#2c3e50"/><path d="m242.984375 225.628906c0 4.789063-3.886719 8.675782-8.679687 8.675782-4.792969 0-8.675782-3.886719-8.675782-8.675782 0-4.792968 3.882813-8.679687 8.675782-8.679687 4.792968 0 8.679687 3.886719 8.679687 8.679687zm0 0" fill="#2c3e50"/><path d="m17.355469 52.066406h69.425781c9.582031 0 17.355469 7.773438 17.355469 17.355469v52.070313c0 9.585937-7.773438 17.355468-17.355469 17.355468h-69.425781c-9.585938 0-17.355469-7.769531-17.355469-17.355468v-52.070313c0-9.582031 7.769531-17.355469 17.355469-17.355469zm0 0" fill="#f0c419"/><path d="m104.136719 69.421875v52.070313c-.03125 9.574218-7.785157 17.328124-17.355469 17.355468h-34.714844v-86.78125h34.714844c9.570312.03125 17.324219 7.785156 17.355469 17.355469zm0 0" fill="#f3d55b"/><path d="m52.066406 112.8125c-4.792968 0-8.675781-3.882812-8.675781-8.675781v-17.355469c0-4.792969 3.882813-8.679688 8.675781-8.679688 4.792969 0 8.679688 3.886719 8.679688 8.679688v17.355469c0 4.792969-3.886719 8.675781-8.679688 8.675781zm0 0" fill="#464f5d"/><path d="m321.085938 164.882812c-4.792969 0-8.679688-3.886718-8.679688-8.679687v-8.675781c0-4.792969 3.886719-8.679688 8.679688-8.679688 4.792968 0 8.675781 3.886719 8.675781 8.679688v8.675781c0 4.792969-3.882813 8.679687-8.675781 8.679687zm0 0" fill="#cc66a1"/><path d="m390.507812 104.136719h-17.355468c-4.792969 0-8.679688-3.886719-8.679688-8.679688s3.886719-8.675781 8.679688-8.675781h17.355468c4.792969 0 8.679688 3.882812 8.679688 8.675781s-3.886719 8.679688-8.679688 8.679688zm0 0" fill="#cc66a1"/><path d="m321.085938 121.492188c-4.792969 0-8.679688-3.886719-8.679688-8.679688v-17.355469c0-4.792969 3.886719-8.675781 8.679688-8.675781h17.355468c4.792969 0 8.675782 3.882812 8.675782 8.675781s-3.882813 8.679688-8.675782 8.679688h-8.679687v8.675781c0 4.792969-3.882813 8.679688-8.675781 8.679688zm0 0" fill="#cc66a1"/><path d="m182.238281 164.882812c-4.792969 0-8.679687-3.886718-8.679687-8.679687v-8.675781c0-4.792969 3.886718-8.679688 8.679687-8.679688s8.675781 3.886719 8.675781 8.679688v8.675781c0 4.792969-3.882812 8.679687-8.675781 8.679687zm0 0" fill="#cc66a1"/><path d="m130.167969 104.136719h-17.355469c-4.792969 0-8.675781-3.886719-8.675781-8.679688s3.882812-8.675781 8.675781-8.675781h17.355469c4.792969 0 8.679687 3.882812 8.679687 8.675781s-3.886718 8.679688-8.679687 8.679688zm0 0" fill="#cc66a1"/><path d="m182.238281 121.492188c-4.792969 0-8.679687-3.886719-8.679687-8.679688v-8.675781h-8.675782c-4.792968 0-8.679687-3.886719-8.679687-8.679688s3.886719-8.675781 8.679687-8.675781h17.355469c4.792969 0 8.675781 3.882812 8.675781 8.675781v17.355469c0 4.792969-3.882812 8.679688-8.675781 8.679688zm0 0" fill="#cc66a1"/><path d="m86.78125 433.898438c-4.792969 0-8.679688-3.886719-8.679688-8.679688v-8.675781c0-14.378907-11.65625-26.035157-26.035156-26.035157-14.375 0-26.03125 11.65625-26.03125 26.035157v8.675781c0 4.792969-3.886718 8.679688-8.679687 8.679688s-8.675781-3.886719-8.675781-8.679688v-8.675781c0-23.964844 19.425781-43.390625 43.386718-43.390625 23.964844 0 43.390625 19.425781 43.390625 43.390625v8.675781c0 4.792969-3.882812 8.679688-8.675781 8.679688zm0 0" fill="#bdc3c7"/><path d="m17.355469 425.21875h69.425781c9.582031 0 17.355469 7.773438 17.355469 17.359375v52.066406c0 9.585938-7.773438 17.355469-17.355469 17.355469h-69.425781c-9.585938 0-17.355469-7.769531-17.355469-17.355469v-52.066406c0-9.585937 7.769531-17.359375 17.355469-17.359375zm0 0" fill="#f0c419"/><path d="m104.136719 442.578125v52.066406c-.03125 9.574219-7.785157 17.328125-17.355469 17.355469h-34.714844v-86.78125h34.714844c9.570312.03125 17.324219 7.785156 17.355469 17.359375zm0 0" fill="#f3d55b"/><path d="m52.066406 485.964844c-4.792968 0-8.675781-3.882813-8.675781-8.675782v-17.355468c0-4.792969 3.882813-8.679688 8.675781-8.679688 4.792969 0 8.679688 3.886719 8.679688 8.679688v17.355468c0 4.792969-3.886719 8.675782-8.679688 8.675782zm0 0" fill="#464f5d"/><path d="m485.964844 433.898438c-4.792969 0-8.675782-3.886719-8.675782-8.679688v-8.675781c0-14.378907-11.65625-26.035157-26.035156-26.035157s-26.035156 11.65625-26.035156 26.035157v8.675781c0 4.792969-3.882812 8.679688-8.675781 8.679688s-8.679688-3.886719-8.679688-8.679688v-8.675781c0-23.964844 19.425781-43.390625 43.390625-43.390625s43.390625 19.425781 43.390625 43.390625v8.675781c0 4.792969-3.886719 8.679688-8.679687 8.679688zm0 0" fill="#bdc3c7"/><path d="m416.542969 425.21875h69.421875c9.585937 0 17.355468 7.773438 17.355468 17.359375v52.066406c0 9.585938-7.769531 17.355469-17.355468 17.355469h-69.421875c-9.585938 0-17.355469-7.769531-17.355469-17.355469v-52.066406c0-9.585937 7.769531-17.359375 17.355469-17.359375zm0 0" fill="#f0c419"/><path d="m503.320312 442.578125v52.066406c-.027343 9.574219-7.78125 17.328125-17.355468 17.355469h-34.710938v-86.78125h34.710938c9.574218.03125 17.328125 7.785156 17.355468 17.359375zm0 0" fill="#f3d55b"/><path d="m451.253906 485.964844c-4.792968 0-8.675781-3.882813-8.675781-8.675782v-17.355468c0-4.792969 3.882813-8.679688 8.675781-8.679688 4.792969 0 8.679688 3.886719 8.679688 8.679688v17.355468c0 4.792969-3.886719 8.675782-8.679688 8.675782zm0 0" fill="#464f5d"/><path d="m485.964844 60.746094c-4.792969 0-8.675782-3.886719-8.675782-8.679688v-8.675781c0-14.378906-11.65625-26.035156-26.035156-26.035156s-26.035156 11.65625-26.035156 26.035156v8.675781c0 4.792969-3.882812 8.679688-8.675781 8.679688s-8.679688-3.886719-8.679688-8.679688v-8.675781c0-23.964844 19.425781-43.390625 43.390625-43.390625s43.390625 19.425781 43.390625 43.390625v8.675781c0 4.792969-3.886719 8.679688-8.679687 8.679688zm0 0" fill="#bdc3c7"/><path d="m416.542969 52.066406h69.421875c9.585937 0 17.355468 7.773438 17.355468 17.355469v52.070313c0 9.585937-7.769531 17.355468-17.355468 17.355468h-69.421875c-9.585938 0-17.355469-7.769531-17.355469-17.355468v-52.070313c0-9.582031 7.769531-17.355469 17.355469-17.355469zm0 0" fill="#f0c419"/><path d="m503.320312 69.421875v52.070313c-.027343 9.574218-7.78125 17.328124-17.355468 17.355468h-34.710938v-86.78125h34.710938c9.574218.03125 17.328125 7.785156 17.355468 17.355469zm0 0" fill="#f3d55b"/><path d="m451.253906 112.8125c-4.792968 0-8.675781-3.882812-8.675781-8.675781v-17.355469c0-4.792969 3.882813-8.679688 8.675781-8.679688 4.792969 0 8.679688 3.886719 8.679688 8.679688v17.355469c0 4.792969-3.886719 8.675781-8.679688 8.675781zm0 0" fill="#464f5d"/></svg>