<svg height="512pt" viewBox="0 0 512 512" width="512pt" xmlns="http://www.w3.org/2000/svg"><path d="m35.308594 0h88.921875c4.265625 0 7.722656 3.457031 7.722656 7.722656v168.828125c0 4.875-3.949219 8.828125-8.824219 8.828125h-87.820312c-4.875 0-8.824219-3.953125-8.824219-8.828125v-167.722656c0-4.875 3.949219-8.828125 8.824219-8.828125zm0 0" fill="#bdc3c7"/><path d="m26.484375 35.308594h105.488281v114.761718h-105.488281zm0 0" fill="#35495e"/><path d="m131.972656 98.691406v51.378906h-105.488281v-27.808593c20.65625-18.890625 53.316406-34.25 105.488281-23.570313zm0 0" fill="#2c3e50"/><path d="m167.722656 211.863281h344.277344v17.652344c0 9.753906-7.90625 17.65625-17.65625 17.65625h-308.964844c-9.75 0-17.65625-7.902344-17.65625-17.65625zm0 0" fill="#bdc3c7"/><path d="m167.722656 35.308594h344.277344v176.554687h-344.277344zm0 0" fill="#35495e"/><path d="m450.207031 247.171875h35.308594v26.484375c0 4.875-3.949219 8.828125-8.824219 8.828125h-17.65625c-4.875 0-8.828125-3.953125-8.828125-8.828125zm0 0" fill="#95a5a5"/><path d="m512 122.878906v88.984375h-344.277344v-1.148437c43.609375-48.550782 146.1875-124.117188 344.277344-87.835938zm0 0" fill="#2c3e50"/><g fill="#802f34"><path d="m79.449219 247.171875c-4.875 0-8.828125-3.953125-8.828125-8.828125v-8.828125c0-4.875 3.953125-8.824219 8.828125-8.824219s8.828125 3.949219 8.828125 8.824219v8.828125c0 4.875-3.953125 8.828125-8.828125 8.828125zm0 0"/><path d="m79.449219 310.730469c-4.875 0-8.828125-3.953125-8.828125-8.828125v-21.183594c0-4.875 3.953125-8.828125 8.828125-8.828125s8.828125 3.953125 8.828125 8.828125v21.183594c0 2.34375-.929688 4.585937-2.585938 6.242187s-3.902344 2.585938-6.242187 2.585938zm0 0"/><path d="m79.449219 361.929688c-4.875 0-8.828125-3.949219-8.828125-8.828126v-8.824218c0-4.875 3.953125-8.828125 8.828125-8.828125s8.828125 3.953125 8.828125 8.828125v8.824218c0 4.878907-3.953125 8.828126-8.828125 8.828126zm0 0"/><path d="m167.722656 441.378906h-8.824218c-4.878907 0-8.828126-3.953125-8.828126-8.828125s3.949219-8.828125 8.828126-8.828125h8.824218c4.875 0 8.828125 3.953125 8.828125 8.828125s-3.953125 8.828125-8.828125 8.828125zm0 0"/><path d="m424.765625 441.378906h-17.144531c-4.875 0-8.824219-3.953125-8.824219-8.828125s3.949219-8.828125 8.824219-8.828125h17.144531c4.875 0 8.828125 3.953125 8.828125 8.828125s-3.953125 8.828125-8.828125 8.828125zm-51.410156 0h-17.136719c-4.875 0-8.828125-3.953125-8.828125-8.828125s3.953125-8.828125 8.828125-8.828125h17.136719c4.875 0 8.824219 3.953125 8.824219 8.828125s-3.949219 8.828125-8.824219 8.828125zm-51.40625 0h-17.140625c-4.875 0-8.828125-3.953125-8.828125-8.828125s3.953125-8.828125 8.828125-8.828125h17.140625c4.878906 0 8.828125 3.953125 8.828125 8.828125s-3.949219 8.828125-8.828125 8.828125zm-51.410157 0h-17.132812c-4.875 0-8.828125-3.953125-8.828125-8.828125s3.953125-8.828125 8.828125-8.828125h17.132812c4.875 0 8.828126 3.953125 8.828126 8.828125s-3.953126 8.828125-8.828126 8.828125zm-51.402343 0h-17.144531c-4.875 0-8.828126-3.953125-8.828126-8.828125s3.953126-8.828125 8.828126-8.828125h17.144531c4.875 0 8.828125 3.953125 8.828125 8.828125s-3.953125 8.828125-8.828125 8.828125zm0 0"/><path d="m467.863281 441.378906h-8.828125c-4.875 0-8.828125-3.953125-8.828125-8.828125s3.953125-8.828125 8.828125-8.828125c0-4.875 3.953125-8.824218 8.828125-8.824218s8.828125 3.949218 8.828125 8.824218v8.828125c0 4.875-3.953125 8.828125-8.828125 8.828125zm0 0"/><path d="m467.863281 401.65625c-4.875 0-8.828125-3.953125-8.828125-8.828125v-15.449219c0-4.875 3.953125-8.828125 8.828125-8.828125s8.828125 3.953125 8.828125 8.828125v15.449219c0 4.875-3.953125 8.828125-8.828125 8.828125zm0-46.347656c-4.875 0-8.828125-3.949219-8.828125-8.824219v-15.449219c0-4.875 3.953125-8.828125 8.828125-8.828125s8.828125 3.953125 8.828125 8.828125v15.449219c0 4.875-3.953125 8.824219-8.828125 8.824219zm0 0"/><path d="m467.863281 308.964844c-4.875 0-8.828125-3.953125-8.828125-8.828125v-8.828125c0-4.875 3.953125-8.824219 8.828125-8.824219s8.828125 3.949219 8.828125 8.824219v8.828125c0 4.875-3.953125 8.828125-8.828125 8.828125zm0 0"/></g><path d="m414.898438 317.792969h-150.070313c-4.875 0-8.828125-3.953125-8.828125-8.828125v-8.722656c0-9.808594 7.953125-17.757813 17.761719-17.757813h132.308593c9.75 0 17.652344 7.902344 17.652344 17.652344v8.828125c0 4.875-3.949218 8.828125-8.824218 8.828125zm0 0" fill="#bdc3c7"/><path d="m512 17.65625v17.652344h-344.277344v-17.652344c.03125-9.738281 7.917969-17.6289062 17.65625-17.65625h308.964844c9.738281.0273438 17.628906 7.917969 17.65625 17.65625zm0 0" fill="#bdc3c7"/><path d="m282.484375 282.484375c9.558594-8.828125 19.128906-18.285156 19.128906-26.484375v-8.828125h76.5v8.828125c0 8.828125 9.566407 17.65625 19.128907 26.484375zm0 0" fill="#95a5a5"/><path d="m88.277344 220.691406h-17.65625c-4.875 0-8.828125-3.953125-8.828125-8.828125v-26.484375h35.308593v26.484375c0 4.875-3.949218 8.828125-8.824218 8.828125zm0 0" fill="#95a5a5"/><path d="m158.898438 432.550781c0 43.878907-35.570313 79.449219-79.449219 79.449219-43.878907 0-79.449219-35.570312-79.449219-79.449219 0-43.878906 35.570312-79.449219 79.449219-79.449219 43.878906 0 79.449219 35.570313 79.449219 79.449219zm0 0" fill="#cc4b4c"/><path d="m114.757812 397.242188v35.308593c0 17.65625 0 17.65625-8.828124 26.484375l-26.480469 17.65625-26.484375-17.65625c-6.785156-7.046875-10.027344-16.777344-8.828125-26.484375v-35.308593l6.523437 3.265624c6.664063 3.324219 14.707032 2.007813 19.960938-3.265624l8.828125-8.828126 8.828125 8.828126c5.253906 5.25 13.28125 6.554687 19.929687 3.238281zm0 0" fill="#bdc3c7"/><path d="m79.449219 79.449219h-17.65625c-4.875 0-8.828125-3.953125-8.828125-8.828125s3.953125-8.828125 8.828125-8.828125h17.65625c4.875 0 8.828125 3.953125 8.828125 8.828125s-3.953125 8.828125-8.828125 8.828125zm0 0" fill="#ff5364"/><path d="m97.101562 114.757812h-35.308593c-4.875 0-8.828125-3.953124-8.828125-8.828124s3.953125-8.828126 8.828125-8.828126h35.308593c4.878907 0 8.828126 3.953126 8.828126 8.828126s-3.949219 8.828124-8.828126 8.828124zm0 0" fill="#ff5364"/><path d="m335.449219 79.449219h-132.414063c-4.875 0-8.828125-3.953125-8.828125-8.828125s3.953125-8.828125 8.828125-8.828125h132.414063c4.875 0 8.828125 3.953125 8.828125 8.828125s-3.953125 8.828125-8.828125 8.828125zm0 0" fill="#ff5364"/><path d="m335.449219 114.757812h-132.414063c-4.875 0-8.828125-3.953124-8.828125-8.828124s3.953125-8.828126 8.828125-8.828126h132.414063c4.875 0 8.828125 3.953126 8.828125 8.828126s-3.953125 8.828124-8.828125 8.828124zm0 0"/><path d="m335.449219 114.757812h-132.414063c-4.875 0-8.828125-3.953124-8.828125-8.828124s3.953125-8.828126 8.828125-8.828126h132.414063c4.875 0 8.828125 3.953126 8.828125 8.828126s-3.953125 8.828124-8.828125 8.828124zm0 0" fill="#ff5364"/><path d="m476.691406 150.070312h-273.65625c-4.875 0-8.828125-3.953124-8.828125-8.828124s3.953125-8.828126 8.828125-8.828126h273.65625c4.875 0 8.824219 3.953126 8.824219 8.828126s-3.949219 8.828124-8.824219 8.828124zm0 0" fill="#ff5364"/><path d="m476.691406 185.378906h-273.65625c-4.875 0-8.828125-3.953125-8.828125-8.828125s3.953125-8.828125 8.828125-8.828125h273.65625c4.875 0 8.824219 3.953125 8.824219 8.828125s-3.949219 8.828125-8.824219 8.828125zm0 0" fill="#ff5364"/></svg>