<svg height="511pt" viewBox="0 -4 511.89357 511" width="511pt" xmlns="http://www.w3.org/2000/svg"><path d="m255.894531 350.332031c-4.710937 0-8.53125-3.820312-8.53125-8.535156v-68.265625c0-4.714844 3.820313-8.535156 8.53125-8.535156 4.714844 0 8.535157 3.820312 8.535157 8.535156v68.265625c0 4.714844-3.820313 8.535156-8.535157 8.535156zm0 0" fill="#804169"/><path d="m290.027344 316.195312c-2.261719 0-4.433594-.898437-6.03125-2.5l-28.101563-28.097656-28.101562 28.097656c-3.347657 3.234376-8.667969 3.1875-11.960938-.101562-3.289062-3.292969-3.335937-8.613281-.101562-11.964844l34.132812-34.132812c3.332031-3.328125 8.734375-3.328125 12.066407 0l34.132812 34.132812c2.4375 2.441406 3.167969 6.113282 1.847656 9.300782-1.320312 3.1875-4.429687 5.265624-7.882812 5.265624zm0 0" fill="#804169"/><path d="m332.695312 418.597656c0 42.414063-34.382812 76.800782-76.800781 76.800782-42.414062 0-76.800781-34.386719-76.800781-76.800782 0-42.414062 34.386719-76.800781 76.800781-76.800781 42.417969 0 76.800781 34.386719 76.800781 76.800781zm0 0" fill="#4482c3"/><path d="m179.09375 145.53125h-25.597656c-23.566406 0-42.667969-19.101562-42.667969-42.667969 0-23.5625 19.101563-42.667969 42.667969-42.667969-.007813-27.351562 18.570312-51.214843 45.085937-57.917968 26.519531-6.707032 54.203125 5.453125 67.203125 29.519531 14.550782-13.132813 34.960938-17.59375 53.660156-11.722656 18.703126 5.867187 32.90625 21.183593 37.347657 40.277343.511719 0 .988281-.15625 1.503906-.15625 23.5625 0 42.664063 19.105469 42.664063 42.667969 0 23.566407-19.101563 42.667969-42.664063 42.667969zm0 0" fill="#b0d3f0"/><path d="m332.695312 145.53125c0 42.414062-34.382812 76.800781-76.800781 76.800781-42.414062 0-76.800781-34.386719-76.800781-76.800781 0-42.417969 34.386719-76.800781 76.800781-76.800781 42.417969 0 76.800781 34.382812 76.800781 76.800781zm0 0" fill="#cc4b4c"/><path d="m290.027344 111.398438v34.132812c0 17.066406 0 17.066406-8.53125 25.597656l-25.601563 17.066406-25.597656-17.066406c-6.5625-6.808594-9.695313-16.214844-8.535156-25.597656v-34.132812l6.304687 3.15625c6.441406 3.210937 14.214844 1.941406 19.296875-3.15625l8.53125-8.535157 8.535157 8.535157c5.082031 5.078124 12.839843 6.335937 19.265624 3.128906zm0 0" fill="#bdc3c7"/><path d="m255.894531 503.929688c-28.707031 0-51.199219-37.484376-51.199219-85.332032s22.492188-85.332031 51.199219-85.332031 51.199219 37.484375 51.199219 85.332031-22.492188 85.332032-51.199219 85.332032zm0-153.597657c-16.144531 0-34.132812 28.03125-34.132812 68.265625s17.988281 68.265625 34.132812 68.265625 34.132813-28.03125 34.132813-68.265625-17.988282-68.265625-34.132813-68.265625zm0 0" fill="#285680"/><path d="m332.695312 427.128906h-153.601562c-4.710938 0-8.53125-3.820312-8.53125-8.53125 0-4.714844 3.820312-8.535156 8.53125-8.535156h153.601562c4.710938 0 8.53125 3.820312 8.53125 8.535156 0 4.710938-3.820312 8.53125-8.53125 8.53125zm0 0" fill="#285680"/><path d="m255.894531 503.929688c-4.710937 0-8.53125-3.820313-8.53125-8.53125v-153.601563c0-4.710937 3.820313-8.53125 8.53125-8.53125 4.714844 0 8.535157 3.820313 8.535157 8.53125v153.601563c0 4.710937-3.820313 8.53125-8.535157 8.53125zm0 0" fill="#285680"/><path d="m503.363281 290.597656c-2.265625 0-4.433593-.898437-6.035156-2.5l-28.101563-28.101562-28.097656 28.101562c-3.347656 3.234375-8.671875 3.1875-11.960937-.105468-3.292969-3.289063-3.339844-8.613282-.105469-11.960938l34.132812-34.132812c3.332032-3.332032 8.734376-3.332032 12.066407 0l34.132812 34.132812c2.441407 2.441406 3.167969 6.109375 1.847657 9.296875-1.320313 3.1875-4.429688 5.269531-7.878907 5.269531zm0 0" fill="#804169"/><g fill="#cc66a1"><path d="m469.226562 222.332031c-4.710937 0-8.53125-3.820312-8.53125-8.535156v-17.066406c0-4.710938 3.820313-8.535157 8.53125-8.535157 4.714844 0 8.535157 3.824219 8.535157 8.535157v17.066406c0 4.714844-3.820313 8.535156-8.535157 8.535156zm0-51.203125c-4.710937 0-8.53125-3.820312-8.53125-8.53125v-17.066406c0-4.714844 3.820313-8.535156 8.53125-8.535156 4.714844 0 8.535157 3.820312 8.535157 8.535156v17.066406c0 4.710938-3.820313 8.53125-8.535157 8.53125zm0-51.199218c-4.710937 0-8.53125-3.820313-8.53125-8.53125-4.714843 0-8.535156-3.820313-8.535156-8.535157 0-4.710937 3.820313-8.53125 8.535156-8.53125h8.53125c4.714844 0 8.535157 3.820313 8.535157 8.53125v8.535157c0 4.710937-3.820313 8.53125-8.535157 8.53125zm-42.664062-8.53125h-17.066406c-4.714844 0-8.535156-3.820313-8.535156-8.535157 0-4.710937 3.820312-8.53125 8.535156-8.53125h17.066406c4.710938 0 8.53125 3.820313 8.53125 8.53125 0 4.714844-3.820312 8.535157-8.53125 8.535157zm0 0"/><path d="m469.226562 427.128906c-4.710937 0-8.53125-3.820312-8.53125-8.53125v-17.066406c0-4.714844 3.820313-8.535156 8.53125-8.535156 4.714844 0 8.535157 3.820312 8.535157 8.535156v17.066406c0 4.710938-3.820313 8.53125-8.535157 8.53125zm-34.132812 0h-17.066406c-4.710938 0-8.53125-3.820312-8.53125-8.53125 0-4.714844 3.820312-8.535156 8.53125-8.535156h17.066406c4.714844 0 8.535156 3.820312 8.535156 8.535156 0 4.710938-3.820312 8.53125-8.535156 8.53125zm-51.199219 0h-17.066406c-4.710937 0-8.53125-3.820312-8.53125-8.53125 0-4.714844 3.820313-8.535156 8.53125-8.535156h17.066406c4.714844 0 8.535157 3.820312 8.535157 8.535156 0 4.710938-3.820313 8.53125-8.535157 8.53125zm85.332031-51.199218c-4.710937 0-8.53125-3.820313-8.53125-8.53125v-17.066407c0-4.714843 3.820313-8.535156 8.53125-8.535156 4.714844 0 8.535157 3.820313 8.535157 8.535156v17.066407c0 4.710937-3.820313 8.53125-8.535157 8.53125zm0 0"/><path d="m42.5625 222.332031c-4.714844 0-8.535156-3.820312-8.535156-8.535156v-17.066406c0-4.710938 3.820312-8.535157 8.535156-8.535157 4.710938 0 8.53125 3.824219 8.53125 8.535157v17.066406c0 4.714844-3.820312 8.535156-8.53125 8.535156zm0-51.203125c-4.714844 0-8.535156-3.820312-8.535156-8.53125v-17.066406c0-4.714844 3.820312-8.535156 8.535156-8.535156 4.710938 0 8.53125 3.820312 8.53125 8.535156v17.066406c0 4.710938-3.820312 8.53125-8.53125 8.53125zm0-51.199218c-4.714844 0-8.535156-3.820313-8.535156-8.53125v-8.535157c0-4.710937 3.820312-8.53125 8.535156-8.53125h8.53125c4.714844 0 8.535156 3.820313 8.535156 8.53125 0 4.714844-3.820312 8.535157-8.535156 8.535157 0 4.710937-3.820312 8.53125-8.53125 8.53125zm59.734375-8.53125h-17.070313c-4.710937 0-8.53125-3.820313-8.53125-8.535157 0-4.710937 3.820313-8.53125 8.53125-8.53125h17.070313c4.710937 0 8.53125 3.820313 8.53125 8.53125 0 4.714844-3.820313 8.535157-8.53125 8.535157zm0 0"/><path d="m144.960938 427.128906h-17.066407c-4.710937 0-8.53125-3.820312-8.53125-8.53125 0-4.714844 3.820313-8.535156 8.53125-8.535156h17.066407c4.714843 0 8.535156 3.820312 8.535156 8.535156 0 4.710938-3.820313 8.53125-8.535156 8.53125zm-51.199219 0h-17.066407c-4.714843 0-8.535156-3.820312-8.535156-8.53125 0-4.714844 3.820313-8.535156 8.535156-8.535156h17.066407c4.714843 0 8.535156 3.820312 8.535156 8.535156 0 4.710938-3.820313 8.53125-8.535156 8.53125zm-51.199219 0c-4.714844 0-8.535156-3.820312-8.535156-8.53125v-17.066406c0-4.714844 3.820312-8.535156 8.535156-8.535156 4.710938 0 8.53125 3.820312 8.53125 8.535156v17.066406c0 4.710938-3.820312 8.53125-8.53125 8.53125zm0-51.199218c-4.714844 0-8.535156-3.820313-8.535156-8.53125v-17.066407c0-4.714843 3.820312-8.535156 8.535156-8.535156 4.710938 0 8.53125 3.820313 8.53125 8.535156v17.066407c0 4.710937-3.820312 8.53125-8.53125 8.53125zm0 0"/></g><path d="m76.695312 290.597656c-2.261718 0-4.433593-.898437-6.035156-2.5l-28.097656-28.101562-28.101562 28.101562c-3.347657 3.234375-8.671876 3.1875-11.960938-.105468-3.292969-3.289063-3.339844-8.613282-.105469-11.960938l34.132813-34.132812c3.332031-3.332032 8.734375-3.332032 12.066406 0l34.132812 34.132812c2.441407 2.441406 3.171876 6.109375 1.851563 9.296875s-4.433594 5.269531-7.882813 5.269531zm0 0" fill="#804169"/><path d="m42.5625 324.730469c-4.714844 0-8.535156-3.820313-8.535156-8.535157v-68.265624c0-4.710938 3.820312-8.53125 8.535156-8.53125 4.710938 0 8.53125 3.820312 8.53125 8.53125v68.265624c0 4.714844-3.820312 8.535157-8.53125 8.535157zm0 0" fill="#804169"/><path d="m469.226562 324.730469c-4.710937 0-8.53125-3.820313-8.53125-8.535157v-68.265624c0-4.710938 3.820313-8.53125 8.53125-8.53125 4.714844 0 8.535157 3.820312 8.535157 8.53125v68.265624c0 4.714844-3.820313 8.535157-8.535157 8.535157zm0 0" fill="#804169"/><path d="m255.894531 503.929688c-47.128906 0-85.332031-38.203126-85.332031-85.332032s38.203125-85.332031 85.332031-85.332031c47.128907 0 85.332031 38.203125 85.332031 85.332031-.050781 47.105469-38.222656 85.28125-85.332031 85.332032zm0-153.597657c-37.703125 0-68.265625 30.5625-68.265625 68.265625s30.5625 68.265625 68.265625 68.265625 68.265625-30.5625 68.265625-68.265625c-.039062-37.6875-30.578125-68.226562-68.265625-68.265625zm0 0" fill="#285680"/></svg>