<svg height="512pt" viewBox="0 0 512.12758 512" width="512pt" xmlns="http://www.w3.org/2000/svg"><path d="m425.21875 147.589844c-1.710938-.003906-3.382812-.507813-4.804688-1.457032-9.117187-5.109374-19.464843-7.605468-29.90625-7.222656-10.4375-.382812-20.78125 2.117188-29.894531 7.222656-2.578125 1.785157-5.921875 2.039063-8.742187.664063-2.816406-1.375-4.675782-4.164063-4.859375-7.292969-.183594-3.132812 1.335937-6.121094 3.976562-7.8125 11.953125-7.042968 25.652344-10.558594 39.519531-10.136718 13.871094-.421876 27.574219 3.089843 39.527344 10.136718 3.183594 2.121094 4.601563 6.074219 3.492188 9.734375-1.109375 3.660157-4.484375 6.164063-8.308594 6.164063zm0 0" fill="#24ae5f"/><path d="m442.578125 121.824219c-2.058594.003906-4.046875-.730469-5.609375-2.066407-27.496094-20.742187-65.414062-20.742187-92.914062 0-2.339844 2.152344-5.671876 2.851563-8.683594 1.820313-3.007813-1.03125-5.210938-3.625-5.742188-6.761719-.53125-3.136718.695313-6.308594 3.195313-8.273437 33.984375-26.289063 81.4375-26.289063 115.417969 0 2.773437 2.363281 3.773437 6.207031 2.507812 9.621093-1.265625 3.414063-4.53125 5.675782-8.171875 5.660157zm0 0" fill="#24ae5f"/><path d="m399.1875 164.945312c0 4.792969-3.886719 8.679688-8.679688 8.679688-4.792968 0-8.675781-3.886719-8.675781-8.679688 0-4.792968 3.882813-8.679687 8.675781-8.679687 4.792969 0 8.679688 3.886719 8.679688 8.679687zm0 0" fill="#24ae5f"/><path d="m416.550781 225.691406c0 14.378906-11.65625 26.035156-26.035156 26.035156-14.375 0-26.03125-11.65625-26.03125-26.035156s11.65625-26.035156 26.03125-26.035156c14.378906 0 26.035156 11.65625 26.035156 26.035156zm0 0" fill="#804169"/><g fill="#cc66a1"><path d="m286.371094 416.605469h-8.675782c-4.792968 0-8.679687-3.882813-8.679687-8.675781 0-4.792969 3.886719-8.679688 8.679687-8.679688h8.675782c4.792968 0 8.679687 3.886719 8.679687 8.679688 0 4.792968-3.886719 8.675781-8.679687 8.675781zm0 0"/><path d="m295.050781 416.605469h-8.679687c-4.789063 0-8.675782-3.882813-8.675782-8.675781 0-4.792969 3.886719-8.679688 8.675782-8.679688h8.679687c4.792969 0 8.679688 3.886719 8.679688 8.679688 0 4.792968-3.886719 8.675781-8.679688 8.675781zm0 0"/><path d="m338.441406 416.605469h-8.679687c-4.792969 0-8.675781-3.882813-8.675781-8.675781 0-4.792969 3.882812-8.679688 8.675781-8.679688h8.679687c4.792969 0 8.675782 3.886719 8.675782 8.679688 0 4.792968-3.882813 8.675781-8.675782 8.675781zm0 0"/><path d="m381.832031 416.605469h-8.679687c-4.792969 0-8.679688-3.882813-8.679688-8.675781 0-4.792969 3.886719-8.679688 8.679688-8.679688h8.679687c4.792969 0 8.675781 3.886719 8.675781 8.679688 0 4.792968-3.882812 8.675781-8.675781 8.675781zm0 0"/><path d="m390.507812 416.605469h-8.675781c-4.792969 0-8.679687-3.882813-8.679687-8.675781 0-4.792969 3.886718-8.679688 8.679687-8.679688 0-4.792969 3.882813-8.679688 8.675781-8.679688 4.792969 0 8.679688 3.886719 8.679688 8.679688v8.679688c0 4.792968-3.886719 8.675781-8.679688 8.675781zm0 0"/><path d="m390.507812 407.929688c-4.792968 0-8.675781-3.886719-8.675781-8.679688v-8.679688c0-4.789062 3.882813-8.675781 8.675781-8.675781 4.792969 0 8.679688 3.886719 8.679688 8.675781v8.679688c0 4.792969-3.886719 8.679688-8.679688 8.679688zm0 0"/><path d="m390.507812 364.539062c-4.792968 0-8.675781-3.886718-8.675781-8.679687v-8.675781c0-4.792969 3.882813-8.679688 8.675781-8.679688 4.792969 0 8.679688 3.886719 8.679688 8.679688v8.675781c0 4.792969-3.886719 8.679687-8.679688 8.679687zm0 0"/><path d="m390.507812 321.148438c-4.792968 0-8.675781-3.886719-8.675781-8.679688v-8.675781c0-4.792969 3.882813-8.679688 8.675781-8.679688 4.792969 0 8.679688 3.886719 8.679688 8.679688v8.675781c0 4.792969-3.886719 8.679688-8.679688 8.679688zm0 0"/><path d="m390.507812 277.757812c-4.792968 0-8.675781-3.882812-8.675781-8.675781v-8.679687c0-4.792969 3.882813-8.675782 8.675781-8.675782 4.792969 0 8.679688 3.882813 8.679688 8.675782v8.679687c0 4.792969-3.886719 8.675781-8.679688 8.675781zm0 0"/></g><path d="m407.863281 225.691406c-3.589843 0-6.8125-2.214844-8.097656-5.570312-1.289063-3.351563-.375-7.152344 2.292969-9.554688l95.457031-86.78125c2.292969-2.148437 5.566406-2.886718 8.5625-1.9375 2.992187.953125 5.238281 3.445313 5.871094 6.523438.632812 3.074218-.445313 6.253906-2.820313 8.308594l-95.457031 86.78125c-1.59375 1.433593-3.664063 2.230468-5.808594 2.230468zm0 0" fill="#804169"/><path d="m373.152344 225.691406c-2.144532 0-4.210938-.796875-5.804688-2.230468l-95.457031-86.78125c-2.375-2.054688-3.457031-5.234376-2.824219-8.308594.632813-3.078125 2.878906-5.570313 5.875-6.523438 2.992188-.949218 6.265625-.210937 8.558594 1.9375l95.457031 86.78125c2.667969 2.402344 3.582031 6.203125 2.292969 9.554688-1.285156 3.355468-4.503906 5.570312-8.097656 5.570312zm0 0" fill="#804169"/><path d="m459.933594 86.84375c-3.511719 0-6.675782-2.117188-8.015625-5.359375-1.34375-3.242187-.601563-6.972656 1.878906-9.453125l8.679687-8.679688c2.175782-2.253906 5.402344-3.160156 8.4375-2.367187 3.035157.796875 5.402344 3.164063 6.199219 6.199219.792969 3.035156-.113281 6.261718-2.367187 8.4375l-8.679688 8.679687c-1.625 1.628907-3.832031 2.542969-6.132812 2.542969zm0 0" fill="#f0c419"/><path d="m494.644531 52.496094c-3.511719 0-6.671875-2.113282-8.015625-5.355469s-.601562-6.976563 1.878906-9.457031l8.679688-8.679688c2.179688-2.253906 5.40625-3.160156 8.4375-2.367187 3.035156.796875 5.40625 3.164062 6.199219 6.199219.792969 3.035156-.109375 6.261718-2.367188 8.441406l-8.675781 8.675781c-1.628906 1.628906-3.835938 2.542969-6.136719 2.542969zm0 0" fill="#f0c419"/><path d="m321.085938 86.84375c-2.300782 0-4.507813-.914062-6.136719-2.542969l-8.679688-8.679687c-2.253906-2.175782-3.160156-5.402344-2.363281-8.4375.792969-3.035156 3.164062-5.402344 6.195312-6.199219 3.035157-.792969 6.261719.113281 8.441407 2.367187l8.675781 8.679688c2.480469 2.480469 3.222656 6.210938 1.882812 9.453125-1.34375 3.242187-4.507812 5.359375-8.015624 5.359375zm0 0" fill="#f0c419"/><path d="m286.371094 52.496094c-2.300782 0-4.507813-.914063-6.132813-2.542969l-8.679687-8.675781c-3.289063-3.40625-3.242188-8.820313.105468-12.167969 3.347657-3.347656 8.761719-3.394531 12.167969-.105469l8.675781 8.679688c2.480469 2.480468 3.222657 6.214844 1.878907 9.457031-1.339844 3.242187-4.503907 5.355469-8.015625 5.355469zm0 0" fill="#f0c419"/><path d="m390.507812 69.488281c-4.792968 0-8.675781-3.886719-8.675781-8.679687v-8.675782c0-4.792968 3.882813-8.679687 8.675781-8.679687 4.792969 0 8.679688 3.886719 8.679688 8.679687v8.675782c0 4.792968-3.886719 8.679687-8.679688 8.679687zm0 0" fill="#f0c419"/><path d="m390.507812 26.097656c-4.792968 0-8.675781-3.886718-8.675781-8.679687v-8.675781c0-4.792969 3.882813-8.679688 8.675781-8.679688 4.792969 0 8.679688 3.886719 8.679688 8.679688v8.675781c0 4.792969-3.886719 8.679687-8.679688 8.679687zm0 0" fill="#f0c419"/><path d="m43.390625 95.519531h86.777344c4.792969 0 8.679687 3.886719 8.679687 8.679688v78.101562h-104.136718v-78.101562c0-4.792969 3.886718-8.679688 8.679687-8.679688zm0 0" fill="#bdc3c7"/><path d="m69.421875 156.265625c-4.789063 0-8.675781-3.882813-8.675781-8.675781v-17.355469c0-4.792969 3.886718-8.679687 8.675781-8.679687 4.792969 0 8.679687 3.886718 8.679687 8.679687v17.355469c0 4.792968-3.886718 8.675781-8.679687 8.675781zm0 0" fill="#95a5a5"/><path d="m104.136719 156.265625c-4.792969 0-8.679688-3.882813-8.679688-8.675781v-17.355469c0-4.792969 3.886719-8.679687 8.679688-8.679687s8.675781 3.886718 8.675781 8.679687v17.355469c0 4.792968-3.882812 8.675781-8.675781 8.675781zm0 0" fill="#95a5a5"/><path d="m26.035156 182.300781h121.492188c4.789062 0 8.675781 3.886719 8.675781 8.679688v86.777343h-138.847656v-86.777343c0-4.792969 3.886719-8.679688 8.679687-8.679688zm0 0" fill="#b0d3f0"/><path d="m121.492188 286.4375c-4.792969 0-8.679688-3.886719-8.679688-8.679688v-60.746093c0-4.792969 3.886719-8.675781 8.679688-8.675781 4.792968 0 8.675781 3.882812 8.675781 8.675781v60.746093c0 4.792969-3.882813 8.679688-8.675781 8.679688zm0 0" fill="#90bae1"/><path d="m52.066406 286.4375c-4.792968 0-8.675781-3.886719-8.675781-8.679688v-60.746093c0-4.792969 3.882813-8.675781 8.675781-8.675781 4.792969 0 8.679688 3.882812 8.679688 8.675781v60.746093c0 4.792969-3.886719 8.679688-8.679688 8.679688zm0 0" fill="#90bae1"/><path d="m199.59375 442.640625h-34.710938l8.675782-69.425781h26.035156c9.585938 0 17.355469 7.773437 17.355469 17.355468v34.714844c0 9.585938-7.769531 17.355469-17.355469 17.355469zm0 0" fill="#802f34"/><path d="m269.015625 425.285156h-52.066406v-34.714844h52.066406c4.792969 0 8.679687 3.886719 8.679687 8.679688v17.355469c0 4.792969-3.886718 8.679687-8.679687 8.679687zm0 0" fill="#bdc3c7"/><path d="m86.78125 512.0625c-47.929688 0-86.78125-38.851562-86.78125-86.777344v-130.171875c0-9.585937 7.769531-17.355469 17.355469-17.355469h138.847656c9.585937 0 17.355469 7.769532 17.355469 17.355469v130.171875c0 47.925782-38.851563 86.777344-86.777344 86.777344zm0 0" fill="#e64c3c"/><path d="m121.492188 381.894531c-1.710938 0-3.378907-.503906-4.800782-1.457031-9.117187-5.105469-19.46875-7.605469-29.910156-7.222656-10.441406-.378906-20.789062 2.117187-29.90625 7.222656-2.578125 1.828125-5.945312 2.109375-8.792969.734375-2.847656-1.375-4.71875-4.1875-4.890625-7.34375s1.386719-6.15625 4.070313-7.832031c11.949219-7.046875 25.652343-10.5625 39.519531-10.136719 13.863281-.425781 27.566406 3.089844 39.519531 10.136719 3.179688 2.121094 4.597657 6.074218 3.492188 9.730468-1.109375 3.660157-4.480469 6.164063-8.300781 6.167969zm0 0" fill="#fb7b76"/><path d="m104.136719 459.996094c0 9.585937-7.773438 17.355468-17.355469 17.355468-9.585938 0-17.359375-7.769531-17.359375-17.355468 0-9.585938 7.773437-17.355469 17.359375-17.355469 9.582031 0 17.355469 7.769531 17.355469 17.355469zm0 0" fill="#802f34"/><path d="m138.847656 356.128906c-2.054687 0-4.046875-.726562-5.613281-2.054687-13.207031-10.433594-29.632813-15.9375-46.453125-15.570313-16.824219-.367187-33.25 5.136719-46.453125 15.570313-3.65625 3.101562-9.132813 2.65625-12.238281-1-3.101563-3.652344-2.65625-9.132813 1-12.234375 16.355468-13.074219 36.753906-20.039063 57.691406-19.691406 20.933594-.347657 41.335938 6.617187 57.691406 19.691406 2.769532 2.355468 3.777344 6.191406 2.523438 9.605468-1.257813 3.417969-4.507813 5.6875-8.148438 5.683594zm0 0" fill="#fb7b76"/><path d="m95.457031 399.25c0 4.792969-3.882812 8.679688-8.675781 8.679688s-8.679688-3.886719-8.679688-8.679688 3.886719-8.679688 8.679688-8.679688 8.675781 3.886719 8.675781 8.679688zm0 0" fill="#fb7b76"/></svg>