<svg height="512pt" viewBox="-53 0 512 512" width="512pt" xmlns="http://www.w3.org/2000/svg"><path d="m353.101562 450.207031h-44.136718c-4.875 0-8.828125-3.953125-8.828125-8.828125s3.953125-8.828125 8.828125-8.828125h44.136718c4.878907 0 8.828126-3.953125 8.828126-8.828125v-114.757812c0-4.875-3.949219-8.828125-8.828126-8.828125h-44.136718c-4.875 0-8.828125-3.949219-8.828125-8.828125 0-4.875 3.953125-8.824219 8.828125-8.824219h44.136718c14.628907 0 26.484376 11.855469 26.484376 26.480469v114.757812c0 14.628906-11.855469 26.484375-26.484376 26.484375zm0 0" fill="#95a5a5"/><path d="m132.414062 370.757812h141.242188v141.242188h-141.242188zm0 0" fill="#4482c3"/><path d="m273.65625 370.757812 30.4375 15.21875c2.984375 1.496094 4.867188 4.546876 4.871094 7.882813v95.039063c-.003906 3.335937-1.886719 6.386718-4.871094 7.882812l-30.4375 15.21875zm0 0" fill="#bdc3c7"/><path d="m132.414062 512-30.4375-15.21875c-2.984374-1.496094-4.871093-4.546875-4.875-7.882812v-95.039063c.003907-3.335937 1.890626-6.386719 4.875-7.882813l30.4375-15.21875zm0 0" fill="#bdc3c7"/><g fill="#285680"><path d="m176.550781 406.070312c0 4.875-3.953125 8.828126-8.828125 8.828126s-8.824218-3.953126-8.824218-8.828126 3.949218-8.828124 8.824218-8.828124 8.828125 3.953124 8.828125 8.828124zm0 0"/><path d="m211.863281 406.070312c0 4.875-3.953125 8.828126-8.828125 8.828126s-8.828125-3.953126-8.828125-8.828126 3.953125-8.828124 8.828125-8.828124 8.828125 3.953124 8.828125 8.828124zm0 0"/><path d="m247.171875 406.070312c0 4.875-3.953125 8.828126-8.828125 8.828126s-8.828125-3.953126-8.828125-8.828126 3.953125-8.828124 8.828125-8.828124 8.828125 3.953124 8.828125 8.828124zm0 0"/><path d="m176.550781 441.378906c0 4.875-3.953125 8.828125-8.828125 8.828125s-8.824218-3.953125-8.824218-8.828125 3.949218-8.828125 8.824218-8.828125 8.828125 3.953125 8.828125 8.828125zm0 0"/><path d="m211.863281 441.378906c0 4.875-3.953125 8.828125-8.828125 8.828125s-8.828125-3.953125-8.828125-8.828125 3.953125-8.828125 8.828125-8.828125 8.828125 3.953125 8.828125 8.828125zm0 0"/><path d="m247.171875 441.378906c0 4.875-3.953125 8.828125-8.828125 8.828125s-8.828125-3.953125-8.828125-8.828125 3.953125-8.828125 8.828125-8.828125 8.828125 3.953125 8.828125 8.828125zm0 0"/><path d="m176.550781 476.691406c0 4.875-3.953125 8.824219-8.828125 8.824219s-8.824218-3.949219-8.824218-8.824219c0-4.878906 3.949218-8.828125 8.824218-8.828125s8.828125 3.949219 8.828125 8.828125zm0 0"/><path d="m211.863281 476.691406c0 4.875-3.953125 8.824219-8.828125 8.824219s-8.828125-3.949219-8.828125-8.824219c0-4.878906 3.953125-8.828125 8.828125-8.828125s8.828125 3.949219 8.828125 8.828125zm0 0"/><path d="m247.171875 476.691406c0 4.875-3.953125 8.824219-8.828125 8.824219s-8.828125-3.949219-8.828125-8.824219c0-4.878906 3.953125-8.828125 8.828125-8.828125s8.828125 3.949219 8.828125 8.828125zm0 0"/></g><path d="m264.792969 273.65625h-123.515625l17.621094-35.3125h88.273437zm0 0" fill="#95a5a5"/><path d="m17.46875 0h371.128906c9.648438 0 17.472656 7.820312 17.472656 17.46875v203.40625c0 9.648438-7.824218 17.46875-17.472656 17.46875h-371.128906c-9.648438 0-17.46875-7.820312-17.46875-17.46875v-203.40625c0-9.648438 7.820312-17.46875 17.46875-17.46875zm0 0" fill="#bdc3c7"/><path d="m353.101562 52.789062v17.832032h-300.136718v-17.832032c.023437-9.644531 7.835937-17.453124 17.480468-17.480468h265.179688c9.644531.027344 17.453125 7.835937 17.476562 17.480468zm0 0" fill="#285680"/><path d="m353.101562 70.621094v114.933594c-.023437 9.644531-7.832031 17.457031-17.476562 17.480468h-265.179688c-9.644531-.023437-17.457031-7.835937-17.480468-17.480468v-114.933594zm0 0" fill="#2c3e50"/><path d="m123.585938 176.550781h-26.484376c-4.875 0-8.824218-3.953125-8.824218-8.828125s3.949218-8.824218 8.824218-8.824218h26.484376c4.875 0 8.828124 3.949218 8.828124 8.824218s-3.953124 8.828125-8.828124 8.828125zm0 0" fill="#b49aca"/><path d="m185.378906 176.550781h-26.480468c-4.878907 0-8.828126-3.953125-8.828126-8.828125s3.949219-8.824218 8.828126-8.824218h26.480468c4.875 0 8.828125 3.949218 8.828125 8.824218s-3.953125 8.828125-8.828125 8.828125zm0 0" fill="#b49aca"/><path d="m247.171875 176.550781h-26.480469c-4.878906 0-8.828125-3.953125-8.828125-8.828125s3.949219-8.824218 8.828125-8.824218h26.480469c4.875 0 8.828125 3.949218 8.828125 8.824218s-3.953125 8.828125-8.828125 8.828125zm0 0" fill="#b49aca"/><path d="m308.964844 176.550781h-26.480469c-4.878906 0-8.828125-3.953125-8.828125-8.828125s3.949219-8.824218 8.828125-8.824218h26.480469c4.875 0 8.828125 3.949218 8.828125 8.824218s-3.953125 8.828125-8.828125 8.828125zm0 0" fill="#b49aca"/><path d="m123.585938 141.242188c-2.339844 0-4.585938-.933594-6.242188-2.585938l-26.480469-26.484375c-3.347656-3.464844-3.296875-8.96875.105469-12.375 3.40625-3.40625 8.910156-3.453125 12.375-.105469l26.484375 26.480469c2.523437 2.527344 3.277344 6.320313 1.910156 9.621094-1.363281 3.296875-4.582031 5.449219-8.152343 5.449219zm0 0" fill="#cc66a1"/><path d="m97.101562 141.242188c-3.566406 0-6.785156-2.152344-8.152343-5.449219-1.367188-3.300781-.609375-7.09375 1.914062-9.621094l26.480469-26.480469c3.464844-3.347656 8.972656-3.300781 12.375.105469 3.40625 3.40625 3.453125 8.910156.109375 12.375l-26.484375 26.484375c-1.65625 1.652344-3.898438 2.585938-6.242188 2.585938zm0 0" fill="#cc66a1"/><path d="m185.378906 141.242188c-2.339844 0-4.585937-.933594-6.242187-2.585938l-26.480469-26.484375c-3.347656-3.464844-3.296875-8.96875.105469-12.375 3.40625-3.40625 8.914062-3.453125 12.375-.105469l26.484375 26.480469c2.523437 2.527344 3.277344 6.320313 1.910156 9.621094-1.363281 3.296875-4.582031 5.449219-8.152344 5.449219zm0 0" fill="#cc66a1"/><path d="m158.898438 141.242188c-3.570313 0-6.789063-2.152344-8.15625-5.449219-1.367188-3.300781-.609376-7.09375 1.914062-9.621094l26.480469-26.480469c3.464843-3.347656 8.972656-3.300781 12.375.105469 3.40625 3.40625 3.453125 8.910156.109375 12.375l-26.484375 26.484375c-1.652344 1.652344-3.898438 2.585938-6.238281 2.585938zm0 0" fill="#cc66a1"/><path d="m303.605469 308.964844h-201.144531c-3.039063-.003906-5.855469-1.578125-7.453126-4.164063-1.597656-2.585937-1.742187-5.8125-.386718-8.53125l6.4375-12.867187c2.992187-5.972656 9.097656-9.742188 15.773437-9.746094h172.402344c6.671875-.003906 12.773437 3.753906 15.777344 9.710938l6.433593 12.867187c1.375 2.722656 1.238282 5.960937-.359374 8.558594-1.597657 2.59375-4.429688 4.175781-7.480469 4.171875zm0 0" fill="#bdc3c7"/></svg>