<svg height="512pt" viewBox="0 0 512 512" width="512pt" xmlns="http://www.w3.org/2000/svg"><path d="m150.070312 432.550781h-132.414062c-9.75 0-17.65625-7.902343-17.65625-17.652343v-397.242188c0-9.75 7.90625-17.65625 17.65625-17.65625h476.6875c9.75 0 17.65625 7.90625 17.65625 17.65625v397.242188c0 9.75-7.90625 17.652343-17.65625 17.652343h-17.652344" fill="#2c3e50"/><g fill="#4482c3"><path d="m44.136719 167.722656h105.933593c4.875 0 8.828126 3.953125 8.828126 8.828125v79.449219c0 4.875-3.953126 8.828125-8.828126 8.828125h-105.933593c-4.875 0-8.828125-3.953125-8.828125-8.828125v-79.449219c0-4.875 3.953125-8.828125 8.828125-8.828125zm0 0"/><path d="m203.035156 300.136719h105.929688c4.875 0 8.828125 3.953125 8.828125 8.828125v79.449218c0 4.875-3.953125 8.828126-8.828125 8.828126h-105.929688c-4.875 0-8.828125-3.953126-8.828125-8.828126v-79.449218c0-4.875 3.953125-8.828125 8.828125-8.828125zm0 0"/><path d="m229.515625 264.828125h-26.480469c-4.875 0-8.828125-3.953125-8.828125-8.828125v-79.449219c0-4.875 3.953125-8.828125 8.828125-8.828125h105.929688c4.875 0 8.828125 3.953125 8.828125 8.828125v79.449219c0 4.875-3.953125 8.828125-8.828125 8.828125h-17.65625"/><path d="m361.929688 167.722656h105.933593c4.875 0 8.828125 3.953125 8.828125 8.828125v79.449219c0 4.875-3.953125 8.828125-8.828125 8.828125h-105.933593c-4.875 0-8.828126-3.953125-8.828126-8.828125v-79.449219c0-4.875 3.953126-8.828125 8.828126-8.828125zm0 0"/><path d="m132.414062 397.242188h-88.277343c-4.875 0-8.828125-3.953126-8.828125-8.828126v-79.449218c0-4.875 3.953125-8.828125 8.828125-8.828125h105.933593c4.875 0 8.828126 3.953125 8.828126 8.828125v44.136718"/><path d="m353.101562 388.414062v-79.449218c0-4.875 3.953126-8.828125 8.828126-8.828125h105.933593c4.875 0 8.828125 3.953125 8.828125 8.828125v88.277344"/></g><path d="m476.691406 512v-105.929688c0-17.066406-12.871094-35.3125-29.9375-35.3125-17.0625 0-31.855468 18.246094-31.855468 35.3125v-35.3125c0-17.0625-12.8125-35.414062-29.867188-35.414062s-31.929688 18.351562-31.929688 35.414062v-35.308593c0-17.066407-12.867187-35.3125-29.933593-35.3125-17.0625 0-31.859375 18.246093-31.859375 35.3125v-88.277344c0-17.0625-12.867188-35.308594-29.933594-35.308594-17.0625 0-31.859375 18.246094-31.859375 35.308594v220.691406c0-24.472656-19.859375-73.789062-43.175781-97.105469-21.996094-21.996093-75.914063-8.722656-44.136719 35.3125 21.0625 29.183594 28.929687 73.851563 34.382813 105.929688zm0 0" fill="#fdd7ad"/><path d="m361.929688 35.308594h105.933593c4.875 0 8.828125 3.953125 8.828125 8.828125v79.449219c0 4.875-3.953125 8.828124-8.828125 8.828124h-105.933593c-4.875 0-8.828126-3.953124-8.828126-8.828124v-79.449219c0-4.875 3.953126-8.828125 8.828126-8.828125zm0 0" fill="#4482c3"/><path d="m203.035156 35.308594h105.929688c4.875 0 8.828125 3.953125 8.828125 8.828125v79.449219c0 4.875-3.953125 8.828124-8.828125 8.828124h-105.929688c-4.875 0-8.828125-3.953124-8.828125-8.828124v-79.449219c0-4.875 3.953125-8.828125 8.828125-8.828125zm0 0" fill="#4482c3"/><path d="m44.136719 35.308594h105.933593c4.875 0 8.828126 3.953125 8.828126 8.828125v79.449219c0 4.875-3.953126 8.828124-8.828126 8.828124h-105.933593c-4.875 0-8.828125-3.953124-8.828125-8.828124v-79.449219c0-4.875 3.953125-8.828125 8.828125-8.828125zm0 0" fill="#4482c3"/><path d="m291.308594 339.863281c4.878906 0 8.828125 3.949219 8.828125 8.828125v66.207032c0 4.875-3.949219 8.824218-8.828125 8.824218-4.875 0-8.824219-3.949218-8.824219-8.824218v-66.207032c0-4.878906 3.949219-8.828125 8.824219-8.828125zm0 0" fill="#f09372"/><path d="m353.101562 423.722656c-4.875 0-8.824218-3.949218-8.824218-8.824218l-.046875-39.726563c0-4.875 3.953125-8.828125 8.828125-8.828125s8.828125 3.953125 8.828125 8.828125l.042969 39.726563c0 4.875-3.949219 8.824218-8.828126 8.824218zm0 0" fill="#f09372"/><path d="m414.898438 441.378906c-4.878907 0-8.828126-3.953125-8.828126-8.828125v-22.066406c0-4.878906 3.949219-8.828125 8.828126-8.828125 4.875 0 8.824218 3.949219 8.824218 8.828125v22.066406c0 4.875-3.949218 8.828125-8.824218 8.828125zm0 0" fill="#f09372"/></svg>