<svg height="512pt" viewBox="-8 0 511 512" width="512pt" xmlns="http://www.w3.org/2000/svg"><path d="m493.386719 261.460938c-1.585938 1.953124-3.972657 3.082031-6.488281 3.074218h-102.398438c-4.710938 0-8.535156-3.824218-8.535156-8.535156v-179.199219c0-4.714843 3.824218-8.535156 8.535156-8.535156h102.398438c2.457031-.015625 4.796874 1.046875 6.402343 2.902344l-59.136719 81.324219c-4.179687 5.792968-4.351562 13.566406-.425781 19.539062zm0 0" fill="#f0c419"/><path d="m117.917969 261.460938c-1.585938 1.953124-3.96875 3.082031-6.484375 3.074218h-102.398438c-4.714844 0-8.535156-3.824218-8.535156-8.535156v-179.199219c0-4.714843 3.820312-8.535156 8.535156-8.535156h102.398438c2.453125-.015625 4.792968 1.046875 6.398437 2.902344l-59.132812 81.324219c-4.183594 5.792968-4.351563 13.566406-.429688 19.539062zm0 0" fill="#f0c419"/><path d="m326.3125 503.464844h-156.691406c-4.054688.003906-7.550782-2.851563-8.363282-6.824219l-32.757812-163.839844h238.933594l-32.757813 163.839844c-.8125 3.972656-4.308593 6.828125-8.363281 6.824219zm0 0" fill="#fff"/><path d="m326.3125 512h-156.691406c-8.128906-.003906-15.125-5.742188-16.722656-13.714844l-32.761719-163.777344c-.511719-2.511718.132812-5.121093 1.753906-7.105468s4.046875-3.136719 6.609375-3.136719h238.933594c2.5625 0 4.988281 1.152344 6.609375 3.136719 1.621093 1.984375 2.265625 4.59375 1.753906 7.105468l-32.761719 163.839844c-1.621094 7.945313-8.613281 13.652344-16.722656 13.652344zm-187.402344-170.667969 30.71875 153.601563h156.683594l30.71875-153.601563zm0 0" fill="#95a5a5"/><path d="m307.699219 102.398438c-4.710938 0-8.53125-3.820313-8.53125-8.53125v-85.332032c0-4.714844 3.820312-8.535156 8.53125-8.535156 4.714843 0 8.535156 3.820312 8.535156 8.535156v85.332032c0 4.710937-3.820313 8.53125-8.535156 8.53125zm0 0" fill="#b0d3f0"/><path d="m247.964844 102.398438c-4.710938 0-8.53125-3.820313-8.53125-8.53125v-68.265626c0-4.714843 3.820312-8.535156 8.53125-8.535156 4.714844 0 8.535156 3.820313 8.535156 8.535156v68.265626c0 4.710937-3.820312 8.53125-8.535156 8.53125zm0 0" fill="#b0d3f0"/><path d="m188.234375 102.398438c-4.714844 0-8.535156-3.820313-8.535156-8.53125v-42.667969c0-4.710938 3.820312-8.53125 8.535156-8.53125 4.710937 0 8.53125 3.820312 8.53125 8.53125v42.667969c0 4.710937-3.820313 8.53125-8.53125 8.53125zm0 0" fill="#b0d3f0"/><g fill="#95a5a5"><path d="m137.035156 392.535156h221.863282v17.066406h-221.863282zm0 0"/><path d="m154.101562 443.734375h187.730469v17.066406h-187.730469zm0 0"/><path d="m282.101562 332.800781h17.066407v170.664063h-17.066407zm0 0"/><path d="m196.765625 332.800781h17.066406v170.664063h-17.066406zm0 0"/></g><path d="m316.234375 375.464844h-136.535156c-9.425781 0-17.066407-7.640625-17.066407-17.066406v-25.597657c0-4.714843 3.820313-8.535156 8.535157-8.535156 4.710937 0 8.53125 3.820313 8.53125 8.535156v25.597657h136.535156v-25.597657c0-4.714843 3.820313-8.535156 8.53125-8.535156 4.714844 0 8.535156 3.820313 8.535156 8.535156v25.597657c0 9.425781-7.640625 17.066406-17.066406 17.066406zm0 0" fill="#7f8c8d"/><path d="m102.898438 42.667969c-4.710938 0-8.53125-3.820313-8.53125-8.535157v-25.597656c0-4.714844 3.820312-8.535156 8.53125-8.535156 4.714843 0 8.535156 3.820312 8.535156 8.535156v25.597656c0 4.714844-3.820313 8.535157-8.535156 8.535157zm0 0" fill="#b0d3f0"/><path d="m60.234375 42.667969c-4.714844 0-8.535156-3.820313-8.535156-8.535157v-17.066406c0-4.710937 3.820312-8.53125 8.535156-8.53125 4.710937 0 8.53125 3.820313 8.53125 8.53125v17.066406c0 4.714844-3.820313 8.535157-8.53125 8.535157zm0 0" fill="#b0d3f0"/><path d="m119.964844 76.800781v179.199219c0 2.007812-.726563 3.949219-2.046875 5.460938l-59.648438-89.429688c-3.921875-5.972656-3.753906-13.746094.429688-19.539062l59.132812-81.324219c1.382813 1.550781 2.144531 3.554687 2.132813 5.632812zm0 0" fill="#f3d55b"/><path d="m9.035156 42.667969c-4.714844 0-8.535156-3.820313-8.535156-8.535157v-8.53125c0-4.714843 3.820312-8.535156 8.535156-8.535156 4.710938 0 8.53125 3.820313 8.53125 8.535156v8.53125c0 4.714844-3.820312 8.535157-8.53125 8.535157zm0 0" fill="#b0d3f0"/><path d="m478.367188 42.667969c-4.714844 0-8.535157-3.820313-8.535157-8.535157v-25.597656c0-4.714844 3.820313-8.535156 8.535157-8.535156 4.710937 0 8.53125 3.820312 8.53125 8.535156v25.597656c0 4.714844-3.820313 8.535157-8.53125 8.535157zm0 0" fill="#b0d3f0"/><path d="m435.699219 42.667969c-4.710938 0-8.53125-3.820313-8.53125-8.535157v-17.066406c0-4.710937 3.820312-8.53125 8.53125-8.53125 4.714843 0 8.535156 3.820313 8.535156 8.53125v17.066406c0 4.714844-3.820313 8.535157-8.535156 8.535157zm0 0" fill="#b0d3f0"/><path d="m495.433594 76.800781v179.199219c0 2.007812-.726563 3.949219-2.046875 5.460938l-59.648438-89.429688c-3.925781-5.972656-3.753906-13.746094.425781-19.539062l59.136719-81.324219c1.382813 1.550781 2.140625 3.554687 2.132813 5.632812zm0 0" fill="#f3d55b"/><path d="m384.5 42.667969c-4.710938 0-8.535156-3.820313-8.535156-8.535157v-8.53125c0-4.714843 3.824218-8.535156 8.535156-8.535156s8.535156 3.820313 8.535156 8.535156v8.53125c0 4.714844-3.824218 8.535157-8.535156 8.535157zm0 0" fill="#b0d3f0"/><path d="m324.765625 136.535156v162.132813h-51.199219l-26.195312-28.589844c-8.941406-9.15625-10.121094-23.367187-2.816406-33.875l78.078124-105.300781c1.382813 1.546875 2.144532 3.554687 2.132813 5.632812zm0 0" fill="#f3d55b"/><path d="m247.371094 270.078125 26.195312 28.589844h-102.398437v-162.132813c0-4.714844 3.820312-8.535156 8.53125-8.535156h136.535156c2.453125-.015625 4.792969 1.042969 6.398437 2.902344l-78.078124 105.300781c-7.304688 10.507813-6.125 24.71875 2.816406 33.875zm0 0" fill="#f0c419"/><path d="m124.234375 298.667969h247.464844c11.78125 0 21.335937 9.550781 21.335937 21.332031s-9.554687 21.332031-21.335937 21.332031h-247.464844c-11.78125 0-21.335937-9.550781-21.335937-21.332031s9.554687-21.332031 21.335937-21.332031zm0 0" fill="#bdc3c7"/></svg>