<svg height="512pt" viewBox="0 -5 512 512" width="512pt" xmlns="http://www.w3.org/2000/svg"><path d="m251.660156 433.898438h242.984375c4.792969 0 8.675781 3.886718 8.675781 8.675781v52.070312c0 4.792969-3.882812 8.675781-8.675781 8.675781h-242.984375c-4.792968 0-8.675781-3.882812-8.675781-8.675781v-52.070312c0-4.789063 3.882813-8.675781 8.675781-8.675781zm0 0" fill="#95a5a5"/><path d="m112.8125 190.914062h-95.457031c-9.585938 0-17.355469 7.769532-17.355469 17.355469v277.695313c0 9.585937 7.769531 17.355468 17.355469 17.355468h173.558593c9.585938 0 17.355469-7.769531 17.355469-17.355468v-130.167969zm0 0" fill="#2c3e50"/><path d="m52.066406 347.117188v78.101562c0 4.792969 3.886719 8.679688 8.679688 8.679688h69.421875v-86.78125zm0 0" fill="#95a5a5"/><path d="m120.625 245.066406c-27.308594-6.734375-55.980469 3.675782-72.609375 26.355469-16.628906 22.683594-17.929687 53.160156-3.292969 77.175781 14.632813 24.015625 42.316406 36.832032 70.097656 32.449219s50.175782-25.089844 56.707032-52.449219zm0 0" fill="#bdc3c7"/><path d="m147.527344 459.933594c6.253906-2.09375 11.199218-6.949219 13.402344-13.164063 2.203124-6.21875 1.421874-13.105469-2.121094-18.667969l-45.996094-72.304687 6.570312 85.453125c.503907 6.578125 4.015626 12.558594 9.511719 16.207031 5.5 3.648438 12.371094 4.5625 18.632813 2.476563zm0 0" fill="#cc4b4c"/><path d="m494.644531 190.914062c-.140625 90.09375-63.335937 167.789063-151.511719 186.273438-88.179687 18.484375-177.257812-27.292969-213.5625-109.746094-36.308593-82.453125-9.933593-179.066406 63.238282-231.632812 73.167968-52.566406 173.148437-46.722656 239.703125 14.003906 4.25 3.992188 8.328125 8.070312 12.320312 12.320312 32.105469 35.199219 49.875 81.140626 49.8125 128.78125zm0 0" fill="#cc4b4c"/><path d="m407.863281 190.914062c0 57.511719-46.621093 104.136719-104.132812 104.136719-57.515625 0-104.136719-46.625-104.136719-104.136719 0-57.511718 46.621094-104.132812 104.136719-104.132812 57.511719 0 104.132812 46.621094 104.132812 104.132812zm0 0" fill="#ecf0f1"/><path d="m121.492188 312.40625c0 9.585938-7.769532 17.355469-17.355469 17.355469-9.585938 0-17.355469-7.769531-17.355469-17.355469s7.769531-17.355469 17.355469-17.355469c9.585937 0 17.355469 7.769531 17.355469 17.355469zm0 0" fill="#7f8c8d"/><path d="m329.761719 190.914062c0 14.378907-11.65625 26.035157-26.03125 26.035157-14.378907 0-26.035157-11.65625-26.035157-26.035157 0-14.378906 11.65625-26.03125 26.035157-26.03125 14.375 0 26.03125 11.652344 26.03125 26.03125zm0 0" fill="#802f34"/><path d="m346.675781 156.644531c-2.347656.011719-4.597656-.925781-6.238281-2.601562-9.597656-9.9375-22.894531-15.441407-36.707031-15.195313-4.792969 0-8.679688-3.886718-8.679688-8.679687s3.886719-8.675781 8.679688-8.675781c18.519531-.308594 36.335937 7.09375 49.183593 20.4375 2.453126 2.5 3.160157 6.226562 1.796876 9.453124-1.363282 3.226563-4.53125 5.316407-8.035157 5.296876zm0 0" fill="#802f34"/><path d="m468.609375 477.289062h-112.8125c-4.792969 0-8.679687-3.886718-8.679687-8.679687s3.886718-8.675781 8.679687-8.675781h112.8125c4.792969 0 8.679687 3.882812 8.679687 8.675781s-3.886718 8.679687-8.679687 8.679687zm0 0" fill="#7f8c8d"/><path d="m321.085938 477.289062h-8.679688c-4.792969 0-8.675781-3.886718-8.675781-8.679687s3.882812-8.675781 8.675781-8.675781h8.679688c4.792968 0 8.675781 3.882812 8.675781 8.675781s-3.882813 8.679687-8.675781 8.679687zm0 0" fill="#7f8c8d"/><g fill="#cc66a1"><path d="m459.933594 407.863281c-3.511719 0-6.675782-2.113281-8.015625-5.355469-1.34375-3.242187-.601563-6.976562 1.878906-9.457031l43.390625-43.390625c3.402344-3.289062 8.816406-3.242187 12.164062.105469 3.347657 3.347656 3.394532 8.761719.105469 12.167969l-43.390625 43.386718c-1.625 1.628907-3.832031 2.542969-6.132812 2.542969zm0 0"/><path d="m512 399.1875c0 4.792969-3.886719 8.675781-8.679688 8.675781-4.789062 0-8.675781-3.882812-8.675781-8.675781s3.886719-8.679688 8.675781-8.679688c4.792969 0 8.679688 3.886719 8.679688 8.679688zm0 0"/><path d="m468.609375 355.796875c0 4.792969-3.882813 8.675781-8.675781 8.675781-4.792969 0-8.679688-3.882812-8.679688-8.675781s3.886719-8.679687 8.679688-8.679687c4.792968 0 8.675781 3.886718 8.675781 8.679687zm0 0"/></g><path d="m286.371094 468.609375c0 4.792969-3.882813 8.679687-8.675782 8.679687-4.792968 0-8.679687-3.886718-8.679687-8.679687s3.886719-8.675781 8.679687-8.675781c4.792969 0 8.675782 3.882812 8.675782 8.675781zm0 0" fill="#7f8c8d"/><path d="m444.832031 62.132812-117.585937 117.585938-12.324219-12.320312 117.589844-117.585938c4.25 3.992188 8.328125 8.070312 12.320312 12.320312zm0 0" fill="#802f34"/><path d="m408.046875 95.273438c-2.304687.003906-4.511719-.90625-6.144531-2.53125-25.976563-26.132813-61.328125-40.777344-98.171875-40.675782-4.792969 0-8.679688-3.882812-8.679688-8.675781s3.886719-8.679687 8.679688-8.679687c41.449219-.117188 81.222656 16.359374 110.453125 45.75 2.480468 2.484374 3.222656 6.214843 1.878906 9.457031-1.34375 3.242187-4.507812 5.355469-8.015625 5.355469zm0 0" fill="#802f34"/></svg>