<svg height="512pt" viewBox="-74 0 512 512" width="512pt" xmlns="http://www.w3.org/2000/svg"><path d="m60.746094 425.21875v-121.488281c0-67.097657 54.394531-121.492188 121.492187-121.492188 67.097657 0 121.492188 54.394531 121.492188 121.492188v121.488281zm0 0" fill="#f0c419"/><path d="m303.730469 425.21875h-242.984375l-34.710938 52.070312h312.40625zm0 0" fill="#95a5a5"/><path d="m269.015625 347.117188c-4.792969 0-8.675781-3.882813-8.675781-8.675782v-26.035156c.0625-16.910156-5.425782-33.371094-15.621094-46.859375-2.875-3.835937-2.097656-9.273437 1.734375-12.148437 3.835937-2.878907 9.273437-2.101563 12.148437 1.734374 12.449219 16.492188 19.15625 36.609376 19.09375 57.273438v26.035156c0 4.792969-3.886718 8.675782-8.679687 8.675782zm0 0" fill="#f3d55b"/><g fill="#f0c419"><path d="m182.238281 43.390625c-4.792969 0-8.679687-3.886719-8.679687-8.679687v-26.03125c0-4.792969 3.886718-8.679688 8.679687-8.679688s8.675781 3.886719 8.675781 8.679688v26.03125c0 4.792968-3.882812 8.679687-8.675781 8.679687zm0 0"/><path d="m251.660156 52.066406c-2.785156 0-5.402344-1.34375-7.035156-3.605468-1.628906-2.261719-2.070312-5.167969-1.191406-7.8125l8.679687-26.035157c.980469-2.945312 3.457031-5.144531 6.496094-5.769531 3.039063-.621094 6.183594.421875 8.242187 2.742188 2.0625 2.324218 2.730469 5.566406 1.75 8.511718l-8.679687 26.035156c-1.183594 3.554688-4.515625 5.945313-8.261719 5.933594zm0 0"/><path d="m312.40625 69.421875c-3.507812 0-6.671875-2.113281-8.015625-5.355469-1.34375-3.242187-.601563-6.972656 1.878906-9.457031l8.679688-8.675781c2.179687-2.257813 5.40625-3.160156 8.441406-2.367188 3.03125.792969 5.402344 3.164063 6.195313 6.199219.792968 3.03125-.109376 6.257813-2.367188 8.4375l-8.675781 8.679687c-1.628907 1.625-3.835938 2.539063-6.136719 2.539063zm0 0"/><path d="m52.066406 69.421875c-2.300781 0-4.507812-.914063-6.132812-2.539063l-8.679688-8.679687c-3.289062-3.40625-3.242187-8.816406.105469-12.164063 3.347656-3.347656 8.761719-3.394531 12.164063-.105468l8.679687 8.675781c2.480469 2.484375 3.222656 6.214844 1.878906 9.457031-1.339843 3.242188-4.503906 5.355469-8.015625 5.355469zm0 0"/><path d="m112.8125 52.066406c-3.734375 0-7.046875-2.390625-8.226562-5.933594l-8.675782-26.035156c-1.515625-4.550781.949219-9.472656 5.5-10.984375 4.554688-1.515625 9.472656.949219 10.988282 5.5l8.675781 26.035157c.882812 2.648437.4375 5.5625-1.203125 7.828124-1.636719 2.261719-4.261719 3.601563-7.058594 3.589844zm0 0"/></g><path d="m199.59375 373.152344c0 9.585937-7.769531 17.355468-17.355469 17.355468-9.585937 0-17.355469-7.769531-17.355469-17.355468 0-9.585938 7.769532-17.355469 17.355469-17.355469 9.585938 0 17.355469 7.769531 17.355469 17.355469zm0 0" fill="#c03a2b"/><path d="m189.101562 225.628906h-13.730468c-4.917969-.003906-9.609375 2.066406-12.925782 5.699219-3.316406 3.632813-4.953124 8.492187-4.507812 13.390625l5.511719 60.582031c.8125 8.9375 8.304687 15.78125 17.277343 15.785157h3.019532c8.976562-.003907 16.46875-6.847657 17.277344-15.785157l5.511718-60.582031c.445313-4.898438-1.1875-9.757812-4.503906-13.390625-3.320312-3.632813-8.011719-5.703125-12.929688-5.699219zm0 0" fill="#c03a2b"/><path d="m269.015625 399.1875c-4.792969 0-8.675781-3.886719-8.675781-8.679688v-17.355468c0-4.792969 3.882812-8.679688 8.675781-8.679688s8.679687 3.886719 8.679687 8.679688v17.355468c0 4.792969-3.886718 8.679688-8.679687 8.679688zm0 0" fill="#f3d55b"/><path d="m321.007812 208.269531c-2.734374 0-5.304687-1.285156-6.945312-3.46875-31.097656-41.527343-79.945312-65.972656-131.824219-65.972656-51.882812 0-100.726562 24.445313-131.828125 65.972656-2.875 3.832031-8.316406 4.609375-12.148437 1.734375-3.835938-2.875-4.613281-8.316406-1.734375-12.148437 34.382812-45.875 88.363281-72.878907 145.691406-72.878907 57.332031 0 111.3125 27.003907 145.695312 72.878907 1.972657 2.628906 2.289063 6.148437.820313 9.085937-1.46875 2.941406-4.476563 4.796875-7.761719 4.796875zm0 0" fill="#c03a2b"/><path d="m286.371094 112.464844c-1.394532 0-2.769532-.335938-4.007813-.980469-62.679687-32.9375-137.554687-32.9375-200.234375 0-4.25 2.21875-9.496094.574219-11.714844-3.679687-2.21875-4.25-.574218-9.496094 3.679688-11.714844 67.71875-35.554688 148.585938-35.554688 216.304688 0 3.550781 1.847656 5.375 5.882812 4.421874 9.769531-.957031 3.886719-4.445312 6.617187-8.449218 6.605469zm0 0" fill="#c03a2b"/><path d="m8.679688 477.289062h347.117187c4.792969 0 8.675781 3.882813 8.675781 8.675782v17.355468c0 4.792969-3.882812 8.679688-8.675781 8.679688h-347.117187c-4.792969 0-8.679688-3.886719-8.679688-8.679688v-17.355468c0-4.792969 3.886719-8.675782 8.679688-8.675782zm0 0" fill="#7f8c8d"/></svg>