<svg height="512pt" viewBox="0 0 512 512" width="512pt" xmlns="http://www.w3.org/2000/svg"><path d="m512 70.621094v423.722656c-.027344 9.738281-7.917969 17.628906-17.65625 17.65625h-476.6875c-9.738281-.027344-17.6289062-7.917969-17.65625-17.65625v-423.722656zm0 0" fill="#2c3e50"/><path d="m158.898438 167.722656c0 34.128906-27.667969 61.792969-61.796876 61.792969-34.125 0-61.792968-27.664063-61.792968-61.792969 0-34.125 27.667968-61.792968 61.792968-61.792968 34.128907 0 61.796876 27.667968 61.796876 61.792968zm0 0" fill="#f0c419"/><path d="m158.898438 326.621094c0 34.128906-27.667969 61.792968-61.796876 61.792968-34.125 0-61.792968-27.664062-61.792968-61.792968s27.667968-61.792969 61.792968-61.792969c34.128907 0 61.796876 27.664063 61.796876 61.792969zm0 0" fill="#f0c419"/><path d="m512 17.65625v52.964844h-512v-52.964844c.0273438-9.738281 7.917969-17.6289062 17.65625-17.65625h476.6875c9.738281.0273438 17.628906 7.917969 17.65625 17.65625zm0 0" fill="#285680"/><path d="m44.136719 35.308594c0 4.878906-3.949219 8.828125-8.828125 8.828125-4.875 0-8.824219-3.949219-8.824219-8.828125 0-4.875 3.949219-8.824219 8.824219-8.824219 4.878906 0 8.828125 3.949219 8.828125 8.824219zm0 0" fill="#e64c3c"/><path d="m79.449219 35.308594c0 4.878906-3.953125 8.828125-8.828125 8.828125s-8.828125-3.949219-8.828125-8.828125c0-4.875 3.953125-8.824219 8.828125-8.824219s8.828125 3.949219 8.828125 8.824219zm0 0"/><path d="m79.449219 35.308594c0 4.878906-3.953125 8.828125-8.828125 8.828125s-8.828125-3.949219-8.828125-8.828125c0-4.875 3.953125-8.824219 8.828125-8.824219s8.828125 3.949219 8.828125 8.824219zm0 0" fill="#f0c419"/><path d="m114.757812 35.308594c0 4.878906-3.953124 8.828125-8.828124 8.828125s-8.828126-3.949219-8.828126-8.828125c0-4.875 3.953126-8.824219 8.828126-8.824219s8.828124 3.949219 8.828124 8.824219zm0 0" fill="#4fba6f"/><path d="m476.691406 459.035156c-.03125 9.738282-7.917968 17.625-17.65625 17.65625h-132.414062v-35.3125h132.414062c9.71875.074219 17.582032 7.933594 17.65625 17.65625zm0 0" fill="#804169"/><path d="m326.621094 441.378906v35.3125h-273.65625c-9.71875-.074218-17.582032-7.9375-17.65625-17.65625.03125-9.738281 7.917968-17.625 17.65625-17.65625zm0 0" fill="#cc66a1"/><g fill="#4fba6f"><path d="m476.691406 406.070312c0 4.875-3.953125 8.828126-8.828125 8.828126s-8.828125-3.953126-8.828125-8.828126 3.953125-8.828124 8.828125-8.828124 8.828125 3.953124 8.828125 8.828124zm0 0"/><path d="m423.722656 353.101562c0 4.878907-3.949218 8.828126-8.824218 8.828126-4.878907 0-8.828126-3.949219-8.828126-8.828126 0-4.875 3.949219-8.824218 8.828126-8.824218 4.875 0 8.824218 3.949218 8.824218 8.824218zm0 0"/><path d="m414.898438 414.898438c-3.570313-.003907-6.789063-2.152344-8.15625-5.453126-1.367188-3.296874-.609376-7.09375 1.914062-9.617187l52.964844-52.964844c3.464844-3.347656 8.96875-3.296875 12.375.105469 3.40625 3.40625 3.453125 8.910156.105468 12.375l-52.964843 52.964844c-1.652344 1.65625-3.898438 2.585937-6.238281 2.589844zm0 0"/></g><path d="m97.101562 176.550781c-4.875 0-8.824218-3.953125-8.824218-8.828125v-26.480468c0-4.875 3.949218-8.828126 8.824218-8.828126 4.878907 0 8.828126 3.953126 8.828126 8.828126v26.480468c0 4.875-3.949219 8.828125-8.828126 8.828125zm0 0" fill="#cc4b4c"/><path d="m105.929688 194.207031c0 4.875-3.949219 8.828125-8.828126 8.828125-4.875 0-8.824218-3.953125-8.824218-8.828125s3.949218-8.828125 8.824218-8.828125c4.878907 0 8.828126 3.953125 8.828126 8.828125zm0 0" fill="#cc4b4c"/><path d="m282.484375 158.898438h-88.277344c-4.875 0-8.828125-3.953126-8.828125-8.828126s3.953125-8.828124 8.828125-8.828124h88.277344c4.875 0 8.824219 3.953124 8.824219 8.828124s-3.949219 8.828126-8.824219 8.828126zm0 0" fill="#f3d55b"/><path d="m361.929688 194.207031h-167.722657c-4.875 0-8.828125-3.953125-8.828125-8.828125s3.953125-8.828125 8.828125-8.828125h167.722657c4.875 0 8.828124 3.953125 8.828124 8.828125s-3.953124 8.828125-8.828124 8.828125zm0 0" fill="#f3d55b"/><path d="m97.101562 335.449219c-4.875 0-8.824218-3.953125-8.824218-8.828125v-26.484375c0-4.875 3.949218-8.828125 8.824218-8.828125 4.878907 0 8.828126 3.953125 8.828126 8.828125v26.484375c0 4.875-3.949219 8.828125-8.828126 8.828125zm0 0" fill="#cc4b4c"/><path d="m105.929688 353.101562c0 4.878907-3.949219 8.828126-8.828126 8.828126-4.875 0-8.824218-3.949219-8.824218-8.828126 0-4.875 3.949218-8.824218 8.824218-8.824218 4.878907 0 8.828126 3.949218 8.828126 8.824218zm0 0" fill="#cc4b4c"/><path d="m282.484375 317.792969h-88.277344c-4.875 0-8.828125-3.953125-8.828125-8.828125s3.953125-8.828125 8.828125-8.828125h88.277344c4.875 0 8.824219 3.953125 8.824219 8.828125s-3.949219 8.828125-8.824219 8.828125zm0 0" fill="#f3d55b"/><path d="m361.929688 353.101562h-167.722657c-4.875 0-8.828125-3.949218-8.828125-8.824218s3.953125-8.828125 8.828125-8.828125h167.722657c4.875 0 8.828124 3.953125 8.828124 8.828125s-3.953124 8.824218-8.828124 8.824218zm0 0" fill="#f3d55b"/></svg>