<svg height="512pt" viewBox="-82 0 512 512" width="512pt" xmlns="http://www.w3.org/2000/svg"><path d="m338.441406 338.441406c0 91.0625-73.820312 164.878906-164.882812 164.878906s-164.878906-73.816406-164.878906-164.878906 73.816406-164.882812 164.878906-164.882812 164.882812 73.820312 164.882812 164.882812zm0 0" fill="#b49aca"/><g fill="#894b9d"><path d="m173.558594 512c-4.792969 0-8.675782-3.886719-8.675782-8.679688v-260.390624c0-4.792969 3.882813-8.675782 8.675782-8.675782 4.792968 0 8.679687 3.882813 8.679687 8.675782v260.390624c0 4.792969-3.886719 8.679688-8.679687 8.679688zm0 0"/><path d="m338.441406 347.117188h-329.761718c-4.792969 0-8.679688-3.882813-8.679688-8.675782 0-4.792968 3.886719-8.679687 8.679688-8.679687h329.761718c4.792969 0 8.675782 3.886719 8.675782 8.679687 0 4.792969-3.882813 8.675782-8.675782 8.675782zm0 0"/><path d="m173.558594 512c-60.40625 0-109.558594-77.859375-109.558594-173.558594-.539062-37.34375 7.53125-74.3125 23.585938-108.03125 1.324218-2.875 4.109374-4.800781 7.265624-5.027344 3.15625-.226562 6.183594 1.285157 7.902344 3.941407s1.855469 6.039062.359375 8.824219c-14.742187 31.355468-22.179687 65.648437-21.757812 100.292968 0 86.128906 41.367187 156.203125 92.203125 156.203125 50.835937 0 92.203125-70.074219 92.203125-156.203125.613281-34.648437-6.832031-68.96875-21.746094-100.25-1.511719-2.777344-1.386719-6.160156.320313-8.824218 1.707031-2.664063 4.726562-4.1875 7.882812-3.976563 3.160156.210937 5.949219 2.125 7.289062 4.992187 16.136719 33.703126 24.222657 70.695313 23.609376 108.058594 0 95.699219-49.152344 173.558594-109.558594 173.558594zm0 0"/><path d="m173.558594 288.457031c-54.972656 0-126.0625-8.167969-145.484375-31.242187-3.09375-3.667969-2.625-9.144532 1.039062-12.234375 3.667969-3.09375 9.144531-2.625 12.238281 1.039062 10.230469 12.148438 60.042969 25.035157 132.207032 25.035157 72.167968 0 121.953125-12.902344 132.226562-25.042969 1.980469-2.449219 5.128906-3.632813 8.230469-3.09375 3.101563.535156 5.667969 2.710937 6.707031 5.679687 1.042969 2.96875.394532 6.269532-1.695312 8.625-19.480469 23.074219-90.535156 31.234375-145.46875 31.234375zm0 0"/><path d="m34.710938 433.898438c-3.378907.003906-6.449219-1.957032-7.875-5.019532-1.425782-3.0625-.941407-6.675781 1.238281-9.253906 19.421875-23.042969 90.511719-31.199219 145.484375-31.199219 54.976562 0 125.988281 8.164063 145.46875 31.1875 2.089844 2.355469 2.738281 5.65625 1.695312 8.628907-1.039062 2.96875-3.605468 5.140624-6.707031 5.679687-3.101563.535156-6.25-.648437-8.230469-3.09375-10.273437-12.140625-60.113281-25.046875-132.226562-25.046875-72.113282 0-121.976563 12.894531-132.207032 25.035156-1.652343 1.957032-4.082031 3.085938-6.640624 3.082032zm0 0"/><path d="m173.558594 512c-95.851563 0-173.558594-77.707031-173.558594-173.558594 0-95.855468 77.707031-173.558594 173.558594-173.558594 95.855468 0 173.558594 77.703126 173.558594 173.558594-.109376 95.808594-77.75 173.449219-173.558594 173.558594zm0-329.761719c-86.269532 0-156.203125 69.933594-156.203125 156.203125 0 86.269532 69.933593 156.203125 156.203125 156.203125 86.269531 0 156.203125-69.933593 156.203125-156.203125-.097657-86.226562-69.976563-156.105468-156.203125-156.203125zm0 0"/></g><path d="m303.730469 130.167969 26.03125-52.066407-25.21875-4.199218c-50.980469-8.496094-97.351563-34.65625-130.984375-73.902344-33.632813 39.246094-80 65.40625-130.984375 73.902344l-25.21875 4.199218 26.035156 52.066407zm0 0" fill="#35495e"/><path d="m303.730469 199.59375c0 23.960938-58.28125 43.390625-130.171875 43.390625-71.886719 0-130.167969-19.429687-130.167969-43.390625l130.167969-43.390625zm0 0" fill="#35495e"/><path d="m138.847656 112.8125-95.457031 17.355469v69.425781h260.339844v-69.425781l-95.460938-17.355469" fill="#2c3e50"/><path d="m208.269531 78.101562v34.710938c0 17.355469 0 17.355469-8.675781 26.035156l-26.035156 17.355469-26.03125-17.355469c-6.671875-6.925781-9.859375-16.492187-8.679688-26.035156v-34.710938l6.414063 3.210938c6.546875 3.265625 14.453125 1.972656 19.621093-3.210938l8.675782-8.679687 8.679687 8.679687c5.167969 5.164063 13.058594 6.445313 19.59375 3.183594zm0 0" fill="#bdc3c7"/></svg>