<svg height="511pt" viewBox="0 -1 511.75875 511" width="511pt" xmlns="http://www.w3.org/2000/svg"><path d="m164.0625 218.65625c19.054688 77.894531 88.257812 133.128906 168.441406 134.4375 80.179688 1.304688 151.148438-51.648438 172.730469-128.878906 21.582031-77.234375-11.65625-159.304688-80.902344-199.753906-69.242187-40.449219-157.058593-29.089844-213.730469 27.644531zm0 0" fill="#95a5a5"/><path d="m476.691406 176.9375c.046875 74.203125-57.363281 135.773438-131.386718 140.914062-74.023438 5.140626-139.390626-47.90625-149.597657-121.40625l30.367188-108.84375c33.878906-41.515624 88.332031-60.289062 140.59375-48.464843 52.265625 11.820312 93.339843 52.199219 106.050781 104.253906 2.628906 10.988281 3.960938 22.25 3.972656 33.546875zm0 0" fill="#b0d3f0"/><path d="m476.691406 176.9375c.035156 59.035156-36.667968 111.855469-92.011718 132.410156-55.339844 20.554688-117.625 4.496094-156.132813-40.25 35.839844-63.382812 106.902344-134.445312 244.171875-125.707031 2.628906 10.988281 3.960938 22.25 3.972656 33.546875zm0 0" fill="#90bae1"/><path d="m152.65625 347.246094 52.964844-52.964844 12.484375 12.484375-52.964844 52.964844zm0 0" fill="#7f8c8d"/><path d="m173.726562 373.96875-14.828124 14.832031-35.3125-35.3125 14.832031-14.828125c3.441406-3.425781 9.003906-3.425781 12.445312 0l22.863281 22.863282c3.421876 3.441406 3.421876 9.003906 0 12.445312zm0 0" fill="#95a5a5"/><path d="m158.898438 388.800781-117.320313 117.316407c-3.46875 3.441406-9.066406 3.441406-12.535156 0l-22.773438-22.773438c-3.445312-3.46875-3.445312-9.066406 0-12.535156l117.316407-117.320313zm0 0" fill="#cc4b4c"/><path d="m317.792969 203.421875c0 14.625-11.855469 26.480469-26.484375 26.480469-14.625 0-26.480469-11.855469-26.480469-26.480469 0-14.628906 11.855469-26.484375 26.480469-26.484375 14.628906 0 26.484375 11.855469 26.484375 26.484375zm0 0" fill="#4482c3"/><path d="m406.070312 203.421875c0 14.625-11.859374 26.480469-26.484374 26.480469s-26.484376-11.855469-26.484376-26.480469c0-14.628906 11.859376-26.484375 26.484376-26.484375s26.484374 11.855469 26.484374 26.484375zm0 0" fill="#4482c3"/><path d="m291.308594 238.730469c-19.5 0-35.308594-15.808594-35.308594-35.308594 0-19.503906 15.808594-35.3125 35.308594-35.3125 19.503906 0 35.3125 15.808594 35.3125 35.3125 0 19.5-15.808594 35.308594-35.3125 35.308594zm0-52.964844c-9.75 0-17.652344 7.902344-17.652344 17.65625 0 9.75 7.902344 17.652344 17.652344 17.652344 9.753906 0 17.65625-7.902344 17.65625-17.652344 0-9.753906-7.902344-17.65625-17.65625-17.65625zm0 0" fill="#285680"/><path d="m379.585938 238.730469c-19.5 0-35.308594-15.808594-35.308594-35.308594 0-19.503906 15.808594-35.3125 35.308594-35.3125s35.3125 15.808594 35.3125 35.3125c0 19.5-15.8125 35.308594-35.3125 35.308594zm0-52.964844c-9.75 0-17.65625 7.902344-17.65625 17.65625 0 9.75 7.90625 17.652344 17.65625 17.652344s17.65625-7.902344 17.65625-17.652344c0-9.753906-7.90625-17.65625-17.65625-17.65625zm0 0" fill="#285680"/><path d="m405.1875 176.9375-20.585938-62.585938c-1.480468-4.496093-6.234374-7.027343-10.789062-5.738281l-50.800781 14.34375c-2.304688.644531-4.769531.324219-6.835938-.882812l-17.804687-10.285157c-2.300782-1.339843-5.085938-1.566406-7.574219-.621093-2.488281.945312-4.417969 2.964843-5.25 5.496093l-19.792969 60.273438zm0 0" fill="#2c3e50"/><path d="m317.792969 194.59375h35.308593v17.652344h-35.308593zm0 0" fill="#285680"/><path d="m229.515625 115.144531c0 63.378907-51.378906 114.757813-114.757813 114.757813-63.378906 0-114.757812-51.378906-114.757812-114.757813 0-63.378906 51.378906-114.757812 114.757812-114.757812 63.378907 0 114.757813 51.378906 114.757813 114.757812zm0 0" fill="#cc4b4c"/><path d="m132.414062 176.9375c0 9.75-7.90625 17.65625-17.65625 17.65625s-17.65625-7.90625-17.65625-17.65625 7.90625-17.65625 17.65625-17.65625 17.65625 7.90625 17.65625 17.65625zm0 0" fill="#f0c419"/><path d="m121.742188 35.695312h-13.964844c-4.761719-.242187-9.402344 1.535157-12.78125 4.898438s-5.179688 7.996094-4.953125 12.757812l5.605469 56.027344c1.265624 8.644532 8.847656 14.9375 17.574218 14.59375h3.070313c8.730469.34375 16.3125-5.949218 17.578125-14.59375l5.605468-56.027344c.222657-4.761718-1.578124-9.394531-4.957031-12.757812-3.375-3.363281-8.019531-5.140625-12.777343-4.898438zm0 0" fill="#f0c419"/><path d="m423.722656 185.765625h-176.550781c-4.875 0-8.828125-3.953125-8.828125-8.828125s3.953125-8.828125 8.828125-8.828125h176.550781c4.875 0 8.828125 3.953125 8.828125 8.828125s-3.953125 8.828125-8.828125 8.828125zm0 0" fill="#35495e"/></svg>