<svg height="512pt" viewBox="0 0 512 512" width="512pt" xmlns="http://www.w3.org/2000/svg"><path d="m242.984375 164.882812c-2.300781 0-4.507813-.917968-6.136719-2.542968l-26.035156-26.035156c-3.289062-3.40625-3.242188-8.816407.105469-12.164063 3.347656-3.347656 8.761719-3.394531 12.167969-.105469l26.03125 26.03125c2.480468 2.484375 3.222656 6.214844 1.882812 9.457032-1.34375 3.242187-4.507812 5.355468-8.015625 5.359374zm0 0" fill="#285680"/><path d="m216.949219 121.492188c-3.507813 0-6.671875-2.117188-8.015625-5.359376-1.34375-3.242187-.601563-6.972656 1.878906-9.453124l26.035156-26.035157c3.40625-3.289062 8.816406-3.242187 12.164063.105469 3.347656 3.347656 3.394531 8.761719.105469 12.164062l-26.03125 26.035157c-1.628907 1.628906-3.835938 2.542969-6.136719 2.542969zm0 0" fill="#285680"/><path d="m503.320312 329.761719-131.410156-114.738281c-11.78125-9.007813-28.136718-9.007813-39.917968 0l-132.398438 114.738281 8.675781 130.171875h286.375zm0 0" fill="#f0c419"/><path d="m512 338.355469v164.964843c0 4.792969-3.886719 8.679688-8.679688 8.679688h-303.726562c-4.792969 0-8.679688-3.886719-8.679688-8.679688v-164.964843c-.03125-3.304688 1.8125-6.339844 4.757813-7.832031 2.949219-1.492188 6.484375-1.179688 9.128906.800781l36.359375 26.988281 90.683594 67.253906c11.773438 8.851563 27.976562 8.851563 39.746094 0l90.773437-67.601562 35.753907-26.554688c2.628906-1.972656 6.144531-2.289062 9.085937-.816406 2.941406 1.46875 4.796875 4.472656 4.796875 7.761719zm0 0" fill="#f3d55b"/><path d="m462.363281 357.964844-90.773437 67.601562c-11.769532 8.851563-27.972656 8.851563-39.746094 0l-90.683594-67.253906 1.824219-2.515625v-78.1875c-.003906-4.582031 1.816406-8.976563 5.054687-12.214844 3.238282-3.238281 7.632813-5.058593 12.214844-5.054687h182.410156c4.578126-.003906 8.972657 1.816406 12.210938 5.054687 3.242188 3.238281 5.058594 7.632813 5.058594 12.214844v77.058594zm0 0" fill="#f5efca"/><path d="m416.542969 312.40625h-130.171875c-4.789063 0-8.675782-3.882812-8.675782-8.675781s3.886719-8.679688 8.675782-8.679688h130.171875c4.792969 0 8.675781 3.886719 8.675781 8.679688s-3.882812 8.675781-8.675781 8.675781zm0 0" fill="#3d324c"/><path d="m416.542969 347.117188h-130.171875c-4.789063 0-8.675782-3.882813-8.675782-8.675782 0-4.792968 3.886719-8.679687 8.675782-8.679687h130.171875c4.792969 0 8.675781 3.886719 8.675781 8.679687 0 4.792969-3.882812 8.675782-8.675781 8.675782zm0 0" fill="#3d324c"/><path d="m60.746094 130.167969c-4.792969 0-8.679688-3.882813-8.679688-8.675781v-112.8125c0-4.792969 3.886719-8.679688 8.679688-8.679688 4.792968 0 8.675781 3.886719 8.675781 8.679688v112.8125c0 4.792968-3.882813 8.675781-8.675781 8.675781zm0 0" fill="#3d324c"/><path d="m130.167969 425.21875c-2.300781 0-4.507813-.914062-6.132813-2.542969l-34.652344-34.632812c-23.972656-23.851563-37.410156-56.300781-37.316406-90.121094v-80.972656c0-9.585938-7.769531-17.355469-17.355468-17.355469-9.585938 0-17.355469 7.769531-17.355469 17.355469v43.390625c0 4.792968-3.886719 8.675781-8.675781 8.675781-4.792969 0-8.679688-3.882813-8.679688-8.675781v-43.390625c0-19.171875 15.542969-34.710938 34.710938-34.710938 19.171874 0 34.710937 15.539063 34.710937 34.710938v80.972656c-.074219 29.207031 11.535156 57.234375 32.242187 77.835937l34.640626 34.632813c2.492187 2.480469 3.242187 6.21875 1.898437 9.46875s-4.515625 5.367187-8.035156 5.359375zm0 0" fill="#7f8c8d"/><path d="m112.8125 432.40625c-3.507812 0-6.671875-2.117188-8.015625-5.359375s-.601563-6.972656 1.882813-9.453125l24.546874-24.542969c3.40625-3.289062 8.820313-3.242187 12.167969.105469 3.347657 3.347656 3.394531 8.761719.105469 12.164062l-24.550781 24.542969c-1.628907 1.628907-3.835938 2.542969-6.136719 2.542969zm0 0" fill="#7f8c8d"/><path d="m190.914062 477.289062c-2.101562 0-4.132812-.761718-5.71875-2.144531l-69.421874-60.746093c-3.609376-3.15625-3.976563-8.644532-.816407-12.253907 3.160157-3.609375 8.644531-3.972656 12.253907-.816406l69.421874 60.746094c2.726563 2.382812 3.6875 6.203125 2.414063 9.589843-1.273437 3.386719-4.515625 5.628907-8.132813 5.625zm0 0" fill="#7f8c8d"/><path d="m216.949219 487.457031c-11.976563.15625-23.535157-4.410156-32.167969-12.710937-3.289062-3.40625-3.242188-8.816406.105469-12.164063 3.347656-3.347656 8.757812-3.394531 12.164062-.105469 11.316407 10.171876 28.480469 10.171876 39.796875 0 10.222656-11.296874 10.222656-28.503906 0-39.800781-3.289062-3.402343-3.242187-8.816406.105469-12.164062 3.347656-3.347657 8.761719-3.394531 12.164063-.105469 16.828124 18.148438 16.828124 46.191406 0 64.339844-8.632813 8.300781-20.191407 12.867187-32.167969 12.710937zm0 0" fill="#7f8c8d"/><path d="m86.78125 156.203125c-2.03125 0-3.996094-.707031-5.554688-2.003906l-52.070312-43.390625c-3.683594-3.066406-4.183594-8.542969-1.117188-12.226563 3.066407-3.6875 8.542969-4.1875 12.226563-1.121093l52.066406 43.390624c2.8125 2.339844 3.859375 6.1875 2.613281 9.625-1.242187 3.441407-4.507812 5.730469-8.164062 5.726563zm0 0" fill="#3d324c"/><path d="m34.710938 156.203125c-3.65625.003906-6.921876-2.285156-8.164063-5.726563-1.246094-3.4375-.199219-7.285156 2.609375-9.625l52.070312-43.390624c2.382813-1.984376 5.644532-2.542969 8.554688-1.472657 2.910156 1.074219 5.027344 3.617188 5.554688 6.675781.527343 3.054688-.617188 6.160157-3.003907 8.144532l-52.066406 43.390625c-1.558594 1.296875-3.523437 2.003906-5.554687 2.003906zm0 0" fill="#3d324c"/><path d="m260.339844 95.457031c-19.171875 0-34.710938-15.539062-34.710938-34.710937s15.539063-34.710938 34.710938-34.710938 34.710937 15.539063 34.710937 34.710938c0 9.207031-3.65625 18.035156-10.167969 24.542968-6.507812 6.511719-15.335937 10.167969-24.542968 10.167969zm0-52.066406c-9.585938 0-17.355469 7.769531-17.355469 17.355469 0 9.585937 7.769531 17.355468 17.355469 17.355468 9.585937 0 17.355468-7.769531 17.355468-17.355468 0-4.601563-1.828124-9.019532-5.082031-12.273438-3.257812-3.253906-7.671875-5.082031-12.273437-5.082031zm0 0" fill="#285680"/><path d="m260.339844 216.949219c-19.171875 0-34.710938-15.542969-34.710938-34.710938 0-19.171875 15.539063-34.710937 34.710938-34.710937s34.710937 15.539062 34.710937 34.710937c0 19.167969-15.539062 34.710938-34.710937 34.710938zm0-52.066407c-9.585938 0-17.355469 7.769532-17.355469 17.355469 0 9.585938 7.769531 17.355469 17.355469 17.355469 9.585937 0 17.355468-7.769531 17.355468-17.355469 0-9.585937-7.769531-17.355469-17.355468-17.355469zm0 0" fill="#285680"/><path d="m216.949219 112.8125v17.355469l-32.601563 32.605469c-23.574218 23.574218-55.550781 36.820312-88.890625 36.820312l78.101563-78.101562zm0 0" fill="#285680"/><path d="m199.59375 147.527344-104.136719-104.136719c33.339844 0 65.316407 13.242187 88.890625 36.820313l32.601563 32.601562v17.355469z" fill="#4482c3"/><path d="m260.339844 425.21875h-34.710938c-4.792968 0-8.679687-3.882812-8.679687-8.675781s3.886719-8.679688 8.679687-8.679688h34.710938c4.792968 0 8.675781 3.886719 8.675781 8.679688s-3.882813 8.675781-8.675781 8.675781zm0 0" fill="#f0c419"/><g fill="#3d324c"><path d="m286.371094 130.167969h-17.355469c-4.792969 0-8.675781-3.882813-8.675781-8.675781 0-4.792969 3.882812-8.679688 8.675781-8.679688h17.355469c4.792968 0 8.679687 3.886719 8.679687 8.679688 0 4.792968-3.886719 8.675781-8.679687 8.675781zm0 0"/><path d="m338.441406 130.167969h-17.355468c-4.792969 0-8.679688-3.882813-8.679688-8.675781 0-4.792969 3.886719-8.679688 8.679688-8.679688h17.355468c4.792969 0 8.675782 3.886719 8.675782 8.679688 0 4.792968-3.882813 8.675781-8.675782 8.675781zm0 0"/><path d="m390.507812 130.167969h-17.355468c-4.792969 0-8.679688-3.882813-8.679688-8.675781 0-4.792969 3.886719-8.679688 8.679688-8.679688h17.355468c4.792969 0 8.679688 3.886719 8.679688 8.679688 0 4.792968-3.886719 8.675781-8.679688 8.675781zm0 0"/><path d="m442.578125 130.167969h-17.359375c-4.792969 0-8.675781-3.882813-8.675781-8.675781 0-4.792969 3.882812-8.679688 8.675781-8.679688h17.359375c4.789063 0 8.675781 3.886719 8.675781 8.679688 0 4.792968-3.886718 8.675781-8.675781 8.675781zm0 0"/><path d="m494.644531 130.167969h-17.355469c-4.792968 0-8.679687-3.882813-8.679687-8.675781 0-4.792969 3.886719-8.679688 8.679687-8.679688h17.355469c4.792969 0 8.675781 3.886719 8.675781 8.679688 0 4.792968-3.882812 8.675781-8.675781 8.675781zm0 0"/></g></svg>