<svg height="512pt" viewBox="0 -49 512 512" width="512pt" xmlns="http://www.w3.org/2000/svg"><path d="m397.242188 0h66.964843c16.644531.00390625 30.132813 13.496094 30.136719 30.136719v292.828125c0 6.894531-5.585938 12.484375-12.480469 12.484375h-451.726562c-6.894531 0-12.480469-5.589844-12.480469-12.484375v-292.828125c.003906-16.640625 13.492188-30.13281275 30.136719-30.136719zm0 0" fill="#bdc3c7"/><path d="m459.035156 44.136719.003906 291.3125h-406.074218v-291.3125c0-4.875 3.953125-8.828125 8.828125-8.828125h390.089843c4.234376.78125 7.265626 4.527344 7.152344 8.828125zm0 0" fill="#35495e"/><path d="m459.035156 203.300781v132.148438h-406.070312v-46.523438c60.027344-59.230469 186.085937-138.0625 406.070312-85.625zm0 0" fill="#2c3e50"/><path d="m317.792969 132.414062h-17.65625c-4.875 0-8.828125-3.953124-8.828125-8.828124s3.953125-8.828126 8.828125-8.828126h17.65625c4.875 0 8.828125 3.953126 8.828125 8.828126s-3.953125 8.828124-8.828125 8.828124zm0 0" fill="#b49aca"/><path d="m317.792969 97.101562c-2.339844 0-4.585938-.929687-6.242188-2.585937l-17.652343-17.652344c-3.347657-3.464843-3.300782-8.972656.105468-12.375 3.40625-3.40625 8.910156-3.453125 12.375-.109375l17.65625 17.65625c2.523438 2.523438 3.277344 6.320313 1.910156 9.617188-1.363281 3.300781-4.582031 5.449218-8.152343 5.449218zm0 0" fill="#7d6599"/><path d="m300.136719 97.101562c-3.570313 0-6.785157-2.148437-8.152344-5.449218-1.367187-3.296875-.613281-7.09375 1.914063-9.617188l17.652343-17.65625c3.464844-3.34375 8.972657-3.296875 12.375.109375 3.40625 3.402344 3.453125 8.910157.109375 12.375l-17.65625 17.652344c-1.65625 1.65625-3.898437 2.585937-6.242187 2.585937zm0 0" fill="#7d6599"/><path d="m264.828125 132.414062h-17.65625c-4.875 0-8.828125-3.953124-8.828125-8.828124s3.953125-8.828126 8.828125-8.828126h17.65625c4.875 0 8.828125 3.953126 8.828125 8.828126s-3.953125 8.828124-8.828125 8.828124zm0 0" fill="#b49aca"/><path d="m264.828125 97.101562c-2.339844 0-4.585937-.929687-6.242187-2.585937l-17.65625-17.652344c-3.34375-3.464843-3.296876-8.972656.109374-12.375 3.40625-3.40625 8.910157-3.453125 12.375-.109375l17.65625 17.65625c2.523438 2.523438 3.277344 6.320313 1.910157 9.617188-1.363281 3.300781-4.582031 5.449218-8.152344 5.449218zm0 0" fill="#7d6599"/><path d="m247.171875 97.101562c-3.570313 0-6.789063-2.148437-8.152344-5.449218-1.367187-3.296875-.613281-7.09375 1.910157-9.617188l17.65625-17.65625c3.464843-3.34375 8.96875-3.296875 12.375.109375 3.40625 3.402344 3.453124 8.910157.109374 12.375l-17.65625 17.652344c-1.65625 1.65625-3.902343 2.585937-6.242187 2.585937zm0 0" fill="#7d6599"/><path d="m370.757812 132.414062h-17.65625c-4.875 0-8.824218-3.953124-8.824218-8.828124s3.949218-8.828126 8.824218-8.828126h17.65625c4.875 0 8.828126 3.953126 8.828126 8.828126s-3.953126 8.828124-8.828126 8.828124zm0 0" fill="#b49aca"/><path d="m370.757812 97.101562c-2.339843 0-4.585937-.929687-6.242187-2.585937l-17.652344-17.652344c-3.347656-3.464843-3.296875-8.972656.105469-12.375 3.40625-3.40625 8.910156-3.453125 12.375-.109375l17.65625 17.65625c2.523438 2.523438 3.277344 6.320313 1.914062 9.617188-1.367187 3.300781-4.585937 5.449218-8.15625 5.449218zm0 0" fill="#7d6599"/><path d="m353.101562 97.101562c-3.566406 0-6.785156-2.148437-8.152343-5.449218-1.367188-3.296875-.609375-7.09375 1.914062-9.617188l17.652344-17.65625c3.464844-3.34375 8.972656-3.296875 12.375.109375 3.40625 3.402344 3.453125 8.910157.109375 12.375l-17.65625 17.652344c-1.65625 1.65625-3.898438 2.585937-6.242188 2.585937zm0 0" fill="#7d6599"/><path d="m211.863281 132.414062h-17.65625c-4.875 0-8.828125-3.953124-8.828125-8.828124s3.953125-8.828126 8.828125-8.828126h17.65625c4.875 0 8.828125 3.953126 8.828125 8.828126s-3.953125 8.828124-8.828125 8.828124zm0 0" fill="#b49aca"/><path d="m211.863281 97.101562c-2.34375 0-4.585937-.929687-6.242187-2.585937l-17.65625-17.652344c-3.34375-3.464843-3.296875-8.972656.109375-12.375 3.402343-3.40625 8.910156-3.453125 12.375-.109375l17.652343 17.65625c2.527344 2.523438 3.28125 6.320313 1.914063 9.617188-1.367187 3.300781-4.582031 5.449218-8.152344 5.449218zm0 0" fill="#7d6599"/><path d="m194.207031 97.101562c-3.570312 0-6.789062-2.148437-8.152343-5.449218-1.367188-3.296875-.613282-7.09375 1.910156-9.617188l17.65625-17.65625c3.464844-3.34375 8.96875-3.296875 12.375.109375 3.40625 3.402344 3.453125 8.910157.105468 12.375l-17.652343 17.652344c-1.65625 1.65625-3.902344 2.585937-6.242188 2.585937zm0 0" fill="#7d6599"/><path d="m158.898438 132.414062h-17.65625c-4.875 0-8.828126-3.953124-8.828126-8.828124s3.953126-8.828126 8.828126-8.828126h17.65625c4.875 0 8.824218 3.953126 8.824218 8.828126s-3.949218 8.828124-8.824218 8.828124zm0 0" fill="#b49aca"/><path d="m158.898438 97.101562c-2.34375 0-4.585938-.929687-6.242188-2.585937l-17.65625-17.652344c-3.34375-3.464843-3.296875-8.972656.109375-12.375 3.402344-3.40625 8.910156-3.453125 12.375-.109375l17.652344 17.65625c2.523437 2.523438 3.28125 6.320313 1.914062 9.617188-1.367187 3.300781-4.585937 5.449218-8.152343 5.449218zm0 0" fill="#7d6599"/><path d="m141.242188 97.101562c-3.570313 0-6.789063-2.148437-8.15625-5.449218-1.363282-3.296875-.609376-7.09375 1.914062-9.617188l17.65625-17.65625c3.464844-3.34375 8.96875-3.296875 12.375.109375 3.402344 3.402344 3.453125 8.910157.105469 12.375l-17.652344 17.652344c-1.65625 1.65625-3.902344 2.585937-6.242187 2.585937zm0 0" fill="#7d6599"/><path d="m123.585938 194.207031 35.3125 35.308594-35.3125 35.3125c-4.871094 4.875-4.871094 12.777344 0 17.65625l8.828124 8.824219c4.875 4.875 12.777344 4.875 17.65625 0l35.308594-35.308594 35.3125 35.308594c4.875 4.875 12.777344 4.875 17.652344 0l8.917969-8.914063c4.835937-4.84375 4.871093-12.679687.078125-17.566406l-35.476563-36.148437 35.140625-34.472657c2.378906-2.332031 3.726563-5.519531 3.742188-8.847656.015625-3.332031-1.296875-6.53125-3.652344-8.886719l-8.75-8.75c-4.875-4.871094-12.777344-4.871094-17.652344 0l-35.3125 35.3125-35.308594-35.3125c-4.878906-4.871094-12.78125-4.871094-17.65625 0l-8.828124 8.828125c-4.871094 4.878907-4.871094 12.777344 0 17.65625zm0 0" fill="#cc4b4c"/><path d="m291.308594 256c-3.566406 0-6.785156-2.152344-8.152344-5.449219s-.609375-7.09375 1.914062-9.621093l35.308594-35.308594c3.464844-3.34375 8.96875-3.296875 12.375.105468 3.40625 3.40625 3.453125 8.914063.109375 12.375l-35.3125 35.3125c-1.65625 1.65625-3.898437 2.585938-6.242187 2.585938zm0 0" fill="#b49aca"/><path d="m326.621094 256c-2.339844 0-4.585938-.929688-6.242188-2.585938l-35.308594-35.3125c-3.347656-3.460937-3.296874-8.96875.105469-12.375 3.40625-3.402343 8.910157-3.449218 12.375-.105468l35.3125 35.308594c2.523438 2.527343 3.277344 6.324218 1.910157 9.621093-1.363282 3.296875-4.582032 5.449219-8.152344 5.449219zm0 0" fill="#b49aca"/><path d="m388.414062 238.34375h-17.65625c-4.875 0-8.828124-3.949219-8.828124-8.828125 0-4.875 3.953124-8.824219 8.828124-8.824219h8.828126v-17.65625h-17.65625c-4.875 0-8.828126-3.953125-8.828126-8.828125s3.953126-8.828125 8.828126-8.828125h26.484374c4.875 0 8.828126 3.953125 8.828126 8.828125v35.308594c0 4.878906-3.953126 8.828125-8.828126 8.828125zm0 0" fill="#b49aca"/><path d="m388.414062 273.65625h-26.484374c-4.875 0-8.828126-3.953125-8.828126-8.828125s3.953126-8.828125 8.828126-8.828125h17.65625v-17.65625h-8.828126c-4.875 0-8.828124-3.949219-8.828124-8.828125 0-4.875 3.953124-8.824219 8.828124-8.824219h17.65625c4.875 0 8.828126 3.949219 8.828126 8.824219v35.3125c0 4.875-3.953126 8.828125-8.828126 8.828125zm0 0" fill="#b49aca"/><path d="m512 344.277344v35.308594c0 19.5-15.808594 35.3125-35.308594 35.3125h-441.382812c-19.5 0-35.308594-15.8125-35.308594-35.3125v-35.308594c0-4.875 3.953125-8.828125 8.828125-8.828125h494.34375c4.875 0 8.828125 3.953125 8.828125 8.828125zm0 0" fill="#95a5a5"/><g fill="#7f8c8d"><path d="m315.710938 370.757812h-119.421876c-6.6875 0-12.800781-3.78125-15.792968-9.761718l-12.773438-25.546875h176.554688l-12.773438 25.546875c-2.992187 5.980468-9.105468 9.761718-15.792968 9.761718zm0 0"/><path d="m114.757812 370.757812c0 4.875-3.953124 8.828126-8.828124 8.828126h-105.929688v-17.65625h105.929688c4.875 0 8.828124 3.953124 8.828124 8.828124zm0 0"/><path d="m150.070312 379.585938h-8.828124c-4.875 0-8.828126-3.953126-8.828126-8.828126s3.953126-8.828124 8.828126-8.828124h8.828124c4.875 0 8.828126 3.953124 8.828126 8.828124s-3.953126 8.828126-8.828126 8.828126zm0 0"/><path d="m512 361.929688v17.65625h-105.929688c-4.875 0-8.828124-3.953126-8.828124-8.828126s3.953124-8.828124 8.828124-8.828124zm0 0"/><path d="m370.757812 379.585938h-8.828124c-4.875 0-8.828126-3.953126-8.828126-8.828126s3.953126-8.828124 8.828126-8.828124h8.828124c4.875 0 8.828126 3.953124 8.828126 8.828124s-3.953126 8.828126-8.828126 8.828126zm0 0"/></g></svg>