<svg height="512pt" viewBox="0 -4 512 511" width="512pt" xmlns="http://www.w3.org/2000/svg"><path d="m85.332031 350.261719h29.015625c16.09375-.121094 31.890625 4.316406 45.566406 12.800781 13.675782 8.484375 29.476563 12.921875 45.570313 12.800781h41.898437c13.214844-.375 25.867188 5.351563 34.300782 15.527344l.683594.941406c6.175781 7.9375 5.328124 19.265625-1.960938 26.195313h15.1875c3.742188.019531 7.46875-.4375 11.09375-1.363282l165.292969-41.730468c2.449219-.644532 4.972656-.960938 7.507812-.9375 7.179688-.167969 14.117188 2.605468 19.199219 7.679687 3.925781 3.96875 5.566406 9.65625 4.351562 15.105469-1.609374 5.683594-5.679687 10.347656-11.09375 12.714844l-167.335937 78.164062c-9.902344 4.765625-20.757813 7.21875-31.746094 7.167969h-208.808593zm0 0" fill="#fdd7ad"/><path d="m426.667969 180.859375c0 94.253906-76.410157 170.664063-170.667969 170.664063s-170.667969-76.410157-170.667969-170.664063c0-94.257813 76.410157-170.667969 170.667969-170.667969s170.667969 76.410156 170.667969 170.667969zm0 0" fill="#4482c3"/><path d="m256 360.058594c-98.96875 0-179.199219-80.230469-179.199219-179.199219 0-98.972656 80.230469-179.203125 179.199219-179.203125s179.199219 80.230469 179.199219 179.203125c-.113281 98.921875-80.277344 179.085937-179.199219 179.199219zm0-341.332032c-89.542969 0-162.132812 72.585938-162.132812 162.132813 0 89.542969 72.589843 162.132813 162.132812 162.132813s162.132812-72.589844 162.132812-162.132813c-.101562-89.503906-72.632812-162.03125-162.132812-162.132813zm0 0" fill="#285680"/><path d="m256 360.058594c-57.421875 0-102.398438-78.710938-102.398438-179.199219s44.976563-179.203125 102.398438-179.203125 102.398438 78.722656 102.398438 179.203125-44.976563 179.199219-102.398438 179.199219zm0-341.332032c-46.257812 0-85.332031 74.238282-85.332031 162.132813 0 87.890625 39.074219 162.132813 85.332031 162.132813s85.332031-74.242188 85.332031-162.132813c0-87.894531-39.074219-162.132813-85.332031-162.132813zm0 0" fill="#285680"/><path d="m256 358.796875c-4.710938 0-8.535156-3.820313-8.535156-8.535156v-340.070313c0-4.710937 3.824218-8.535156 8.535156-8.535156s8.535156 3.824219 8.535156 8.535156v340.070313c0 4.714843-3.824218 8.535156-8.535156 8.535156zm0 0" fill="#285680"/><path d="m366.933594 316.128906c-.542969 0-1.082032-.050781-1.613282-.152344-4.625-.855468-9.445312-1.84375-14.421874-2.84375-31.148438-7.164062-62.945313-11.15625-94.898438-11.921874-31.957031.773437-63.753906 4.773437-94.90625 11.949218-4.976562.996094-9.796875 1.960938-14.429688 2.839844-4.574218.765625-8.921874-2.261719-9.792968-6.816406-.871094-4.554688 2.058594-8.96875 6.589844-9.941406 4.597656-.878907 9.359374-1.816407 14.285156-2.816407 32.257812-7.367187 65.175781-11.480469 98.253906-12.28125 33.078125.792969 65.992188 4.898438 98.253906 12.253907 4.917969.992187 9.679688 1.929687 14.273438 2.816406 4.320312.832031 7.296875 4.804687 6.886718 9.183594-.414062 4.375-4.085937 7.722656-8.480468 7.730468zm0 0" fill="#285680"/><path d="m256 77.578125c-30.027344-.816406-59.871094-5.03125-88.953125-12.558594-8.285156-1.863281-16.152344-3.628906-23.585937-5.042969-4.53125-.976562-7.460938-5.390624-6.589844-9.945312s5.21875-7.582031 9.792968-6.816406c7.59375 1.453125 15.648438 3.242187 24.121094 5.121094 27.859375 7.238281 56.445313 11.324218 85.214844 12.175781 28.769531-.84375 57.355469-4.921875 85.214844-12.152344 8.472656-1.902344 16.527344-3.691406 24.113281-5.117187 3.027344-.652344 6.167969.390624 8.207031 2.714843 2.042969 2.328125 2.664063 5.578125 1.621094 8.492188-1.039062 2.917969-3.574219 5.039062-6.628906 5.550781-7.421875 1.417969-15.289063 3.183594-23.574219 5.042969-29.085937 7.519531-58.925781 11.726562-88.953125 12.535156zm0 0" fill="#285680"/><path d="m426.667969 188.128906h-341.335938c-4.710937 0-8.53125-3.820312-8.53125-8.535156 0-4.710938 3.820313-8.53125 8.53125-8.53125h341.335938c4.710937 0 8.53125 3.820312 8.53125 8.53125 0 4.714844-3.820313 8.535156-8.53125 8.535156zm0 0" fill="#285680"/><g fill="#e64c3c"><path d="m503.464844 188.128906h-25.597656c-4.714844 0-8.535157-3.820312-8.535157-8.535156 0-4.710938 3.820313-8.53125 8.535157-8.53125h25.597656c4.714844 0 8.535156 3.820312 8.535156 8.53125 0 4.714844-3.820312 8.535156-8.535156 8.535156zm0 0"/><path d="m34.132812 188.128906h-25.597656c-4.714844 0-8.535156-3.820312-8.535156-8.535156 0-4.710938 3.820312-8.53125 8.535156-8.53125h25.597656c4.714844 0 8.535157 3.820312 8.535157 8.53125 0 4.714844-3.820313 8.535156-8.535157 8.535156zm0 0"/><path d="m392.535156 34.527344c-3.453125 0-6.5625-2.078125-7.882812-5.265625-1.320313-3.191407-.59375-6.859375 1.847656-9.300781l17.066406-17.066407c3.347656-3.234375 8.671875-3.1875 11.960938.105469 3.292968 3.289062 3.339844 8.613281.105468 11.960938l-17.066406 17.066406c-1.601562 1.601562-3.769531 2.5-6.03125 2.5zm0 0"/><path d="m469.332031 290.527344c-1.316406.015625-2.617187-.277344-3.804687-.851563l-17.066406-8.535156c-4.21875-2.105469-5.929688-7.234375-3.824219-11.449219 2.109375-4.21875 7.234375-5.929687 11.453125-3.824218l17.066406 8.535156c3.496094 1.789062 5.320312 5.738281 4.414062 9.5625-.90625 3.824218-4.308593 6.53125-8.238281 6.5625zm0 0"/><path d="m42.667969 290.527344c-4 .050781-7.492188-2.683594-8.410157-6.574219-.917968-3.890625.988282-7.894531 4.585938-9.636719l17.066406-8.535156c4.21875-2.105469 9.34375-.394531 11.453125 3.824219 2.105469 4.21875.394531 9.34375-3.824219 11.449219l-17.066406 8.535156c-1.179687.605468-2.480468.925781-3.804687.9375zm0 0"/><path d="m452.265625 102.796875c-3.960937.007813-7.410156-2.714844-8.320313-6.570313-.910156-3.859374.953126-7.835937 4.5-9.601562l17.066407-8.535156c4.214843-2.105469 9.34375-.394532 11.449219 3.824218 2.109374 4.21875.394531 9.34375-3.820313 11.453126l-17.066406 8.53125c-1.183594.589843-2.488281.898437-3.808594.898437zm0 0"/><path d="m59.734375 102.796875c-1.320313 0-2.625-.308594-3.808594-.898437l-17.066406-8.53125c-2.726563-1.363282-4.519531-4.078126-4.707031-7.125-.183594-3.042969 1.269531-5.953126 3.816406-7.636719 2.542969-1.679688 5.792969-1.878907 8.519531-.515625l17.066407 8.535156c3.546874 1.765625 5.410156 5.742188 4.5 9.601562-.910157 3.855469-4.359376 6.578126-8.320313 6.570313zm0 0"/><path d="m119.464844 34.527344c-2.261719 0-4.429688-.898438-6.03125-2.5l-17.066406-17.066406c-3.234376-3.347657-3.1875-8.671876.105468-11.960938 3.289063-3.292969 8.613282-3.339844 11.960938-.105469l17.066406 17.066407c2.441406 2.441406 3.167969 6.109374 1.847656 9.300781-1.320312 3.1875-4.429687 5.265625-7.882812 5.265625zm0 0"/></g><path d="m25.601562 333.195312h42.664063c8.453125-.835937 16.03125 5.222657 17.066406 13.652344v143.359375c-1.035156 8.429688-8.613281 14.492188-17.066406 13.65625h-42.664063c-8.453124.835938-16.03125-5.226562-17.066406-13.65625v-143.359375c1.035156-8.429687 8.613282-14.488281 17.066406-13.652344zm0 0" fill="#285680"/><path d="m168.105469 441.054688c-3.917969.007812-7.339844-2.65625-8.289063-6.460938-.953125-3.804688.808594-7.765625 4.269532-9.605469l6.402343-3.414062c14.65625-7.703125 30.980469-11.679688 47.539063-11.578125h62.378906c4.710938 0 8.53125 3.820312 8.53125 8.53125 0 4.714844-3.820312 8.535156-8.53125 8.535156h-62.378906c-13.746094-.101562-27.308594 3.183594-39.484375 9.566406l-6.425781 3.410156c-1.230469.667969-2.609376 1.015626-4.011719 1.015626zm0 0" fill="#f09372"/></svg>