<svg height="512pt" viewBox="0 -26 512 512" width="512pt" xmlns="http://www.w3.org/2000/svg"><path d="m494.34375 176.550781h-8.828125c-4.875 0-8.824219-3.953125-8.824219-8.828125s3.949219-8.824218 8.824219-8.824218h8.828125c4.875 0 8.828125 3.949218 8.828125 8.824218s-3.953125 8.828125-8.828125 8.828125zm0 0" fill="#3d324c"/><path d="m450.207031 176.550781h-8.828125c-4.875 0-8.828125-3.953125-8.828125-8.828125s3.953125-8.824218 8.828125-8.824218h8.828125c4.875 0 8.828125 3.949218 8.828125 8.824218s-3.953125 8.828125-8.828125 8.828125zm0 0" fill="#3d324c"/><path d="m406.070312 176.550781h-17.65625c-4.875 0-8.828124-3.953125-8.828124-8.828125s3.953124-8.824218 8.828124-8.824218h17.65625c4.875 0 8.828126 3.949218 8.828126 8.824218s-3.953126 8.828125-8.828126 8.828125zm0 0" fill="#3d324c"/><path d="m229.515625 326.621094h-127.390625c-3.113281-.007813-6 1.625-7.597656 4.296875l-16.316406 26.792969c-1.589844 2.679687-4.472657 4.324218-7.589844 4.324218-3.117188 0-6-1.644531-7.59375-4.324218l-16.3125-26.792969c-1.597656-2.671875-4.484375-4.304688-7.601563-4.296875h-21.457031c-9.75 0-17.65625-7.90625-17.65625-17.65625v-167.722656c0-9.75 7.90625-17.65625 17.65625-17.65625h317.792969zm0 0" fill="#804169"/><path d="m132.414062 176.550781h-97.105468c-4.875 0-8.824219-3.953125-8.824219-8.828125s3.949219-8.824218 8.824219-8.824218h97.105468c4.875 0 8.828126 3.949218 8.828126 8.824218s-3.953126 8.828125-8.828126 8.828125zm0 0" fill="#3d324c"/><path d="m132.414062 211.863281h-97.105468c-4.875 0-8.824219-3.953125-8.824219-8.828125s3.949219-8.828125 8.824219-8.828125h97.105468c4.875 0 8.828126 3.953125 8.828126 8.828125s-3.953126 8.828125-8.828126 8.828125zm0 0"/><path d="m132.414062 211.863281h-97.105468c-4.875 0-8.824219-3.953125-8.824219-8.828125s3.949219-8.828125 8.824219-8.828125h97.105468c4.875 0 8.828126 3.953125 8.828126 8.828125s-3.953126 8.828125-8.828126 8.828125zm0 0" fill="#3d324c"/><path d="m229.515625 247.171875h-194.207031c-4.875 0-8.824219-3.953125-8.824219-8.828125s3.949219-8.828125 8.824219-8.828125h194.207031c4.878906 0 8.828125 3.953125 8.828125 8.828125s-3.949219 8.828125-8.828125 8.828125zm0 0" fill="#3d324c"/><path d="m229.515625 282.484375h-194.207031c-4.875 0-8.824219-3.953125-8.824219-8.828125s3.949219-8.828125 8.824219-8.828125h194.207031c4.878906 0 8.828125 3.953125 8.828125 8.828125s-3.949219 8.828125-8.828125 8.828125zm0 0" fill="#3d324c"/><path d="m256 220.691406h-8.828125c-9.75 0-17.65625 7.902344-17.65625 17.652344v167.726562c0 9.75 7.90625 17.652344 17.65625 17.652344h21.460937c3.113282-.007812 6.003907 1.628906 7.601563 4.300782l16.3125 26.792968c1.589844 2.679688 4.476563 4.320313 7.589844 4.320313 3.117187 0 6.003906-1.640625 7.59375-4.320313l16.3125-26.792968c1.597656-2.671876 4.484375-4.308594 7.601562-4.300782h162.699219c9.75 0 17.65625-7.902344 17.65625-17.652344v-167.726562c0-9.75-7.90625-17.652344-17.65625-17.652344zm0 0" fill="#cc66a1"/><path d="m361.929688 282.484375h-97.101563c-4.875 0-8.828125-3.953125-8.828125-8.828125s3.953125-8.828125 8.828125-8.828125h97.101563c4.875 0 8.828124 3.953125 8.828124 8.828125s-3.953124 8.828125-8.828124 8.828125zm0 0" fill="#3d324c"/><path d="m361.929688 317.792969h-97.101563c-4.875 0-8.828125-3.953125-8.828125-8.828125s3.953125-8.828125 8.828125-8.828125h97.101563c4.875 0 8.828124 3.953125 8.828124 8.828125s-3.953124 8.828125-8.828124 8.828125zm0 0"/><path d="m361.929688 317.792969h-97.101563c-4.875 0-8.828125-3.953125-8.828125-8.828125s3.953125-8.828125 8.828125-8.828125h97.101563c4.875 0 8.828124 3.953125 8.828124 8.828125s-3.953124 8.828125-8.828124 8.828125zm0 0" fill="#3d324c"/><path d="m467.863281 353.101562h-203.035156c-4.875 0-8.828125-3.949218-8.828125-8.824218s3.953125-8.828125 8.828125-8.828125h203.035156c4.875 0 8.828125 3.953125 8.828125 8.828125s-3.953125 8.824218-8.828125 8.824218zm0 0" fill="#3d324c"/><path d="m467.863281 388.414062h-203.035156c-4.875 0-8.828125-3.953124-8.828125-8.828124s3.953125-8.828126 8.828125-8.828126h203.035156c4.875 0 8.828125 3.953126 8.828125 8.828126s-3.953125 8.828124-8.828125 8.828124zm0 0" fill="#3d324c"/><path d="m397.242188 97.101562v-61.792968c0-6.175782-6.355469-7.582032-13.003907-6.105469-8.121093 1.914063-16.566406 1.988281-24.71875.21875-16.285156-3.929687-59.382812-29.421875-59.382812-29.421875s-37.703125 25.492188-53.945313 29.421875c-10.003906 1.867187-20.285156 1.644531-30.199218-.652344-3.011719-.761719-6.203126-.136719-8.710938 1.695313-2.503906 1.835937-4.0625 4.691406-4.246094 7.792968v58.84375c0 15.804688 4.414063 66.207032 26.480469 97.105469 18.425781 23.605469 42.800781 41.886719 70.621094 52.964844 27.261719-15.910156 51.230469-36.886719 70.621093-61.792969 16.753907-26.441406 25.917969-56.980468 26.484376-88.277344zm0 0" fill="#4482c3"/><path d="m326.621094 105.929688c-4.875 0-8.828125-3.949219-8.828125-8.828126v-8.824218c0-9.753906-7.90625-17.65625-17.65625-17.65625s-17.652344 7.902344-17.652344 17.65625v8.824218c0 4.878907-3.953125 8.828126-8.828125 8.828126s-8.828125-3.949219-8.828125-8.828126v-8.824218c0-19.503906 15.808594-35.3125 35.308594-35.3125 19.503906 0 35.3125 15.808594 35.3125 35.3125v8.824218c0 2.34375-.929688 4.589844-2.585938 6.242188-1.65625 1.65625-3.902343 2.585938-6.242187 2.585938zm0 0" fill="#bdc3c7"/><g fill="#3d324c"><path d="m194.207031 406.070312h-8.828125c-4.875 0-8.828125-3.953124-8.828125-8.828124s3.953125-8.828126 8.828125-8.828126h8.828125c4.875 0 8.828125 3.953126 8.828125 8.828126s-3.953125 8.828124-8.828125 8.828124zm0 0"/><path d="m150.070312 406.070312h-8.828124c-4.875 0-8.828126-3.953124-8.828126-8.828124s3.953126-8.828126 8.828126-8.828126h8.828124c4.875 0 8.828126 3.953126 8.828126 8.828126s-3.953126 8.828124-8.828126 8.828124zm0 0"/><path d="m105.929688 406.070312h-8.828126c-4.875 0-8.824218-3.953124-8.824218-8.828124s3.949218-8.828126 8.824218-8.828126h8.828126c4.875 0 8.828124 3.953126 8.828124 8.828126s-3.953124 8.828124-8.828124 8.828124zm0 0"/><path d="m61.792969 406.070312h-8.828125c-4.875 0-8.828125-3.953124-8.828125-8.828124s3.953125-8.828126 8.828125-8.828126h8.828125c4.875 0 8.828125 3.953126 8.828125 8.828126s-3.953125 8.828124-8.828125 8.828124zm0 0"/><path d="m17.65625 406.070312h-8.828125c-4.875 0-8.828125-3.953124-8.828125-8.828124s3.953125-8.828126 8.828125-8.828126h8.828125c4.875 0 8.828125 3.953126 8.828125 8.828126s-3.953125 8.828124-8.828125 8.828124zm0 0"/></g><path d="m273.65625 97.101562h52.964844c9.75 0 17.65625 7.90625 17.65625 17.65625v35.3125c0 9.75-7.90625 17.652344-17.65625 17.652344h-52.964844c-9.75 0-17.65625-7.902344-17.65625-17.652344v-35.3125c0-9.75 7.90625-17.65625 17.65625-17.65625zm0 0" fill="#f0c419"/><path d="m308.964844 132.414062c0 4.875-3.953125 8.828126-8.828125 8.828126s-8.828125-3.953126-8.828125-8.828126 3.953125-8.828124 8.828125-8.828124 8.828125 3.953124 8.828125 8.828124zm0 0" fill="#464f5d"/></svg>