<svg height="512pt" viewBox="0 0 512 512" width="512pt" xmlns="http://www.w3.org/2000/svg"><path d="m132.414062 406.070312v44.136719c0 9.710938-19.773437 17.65625-44.136718 17.65625-24.367188 0-44.140625-7.945312-44.140625-17.65625v-44.136719c0 9.710938 19.773437 17.652344 44.140625 17.652344 24.363281 0 44.136718-7.941406 44.136718-17.652344zm0 0" fill="#b19046"/><path d="m132.414062 450.207031v44.136719c0 9.710938-19.773437 17.65625-44.136718 17.65625-24.367188 0-44.140625-7.945312-44.140625-17.65625v-44.136719c0 9.710938 19.773437 17.65625 44.140625 17.65625 24.363281 0 44.136718-7.945312 44.136718-17.65625zm0 0" fill="#e4c05c"/><path d="m300.136719 406.070312v44.136719c0 9.710938-19.773438 17.65625-44.136719 17.65625s-44.136719-7.945312-44.136719-17.65625v-44.136719c0 9.710938 19.773438 17.652344 44.136719 17.652344s44.136719-7.941406 44.136719-17.652344zm0 0" fill="#b19046"/><path d="m300.136719 450.207031v44.136719c0 9.710938-19.773438 17.65625-44.136719 17.65625s-44.136719-7.945312-44.136719-17.65625v-44.136719c0 9.710938 19.773438 17.65625 44.136719 17.65625s44.136719-7.945312 44.136719-17.65625zm0 0" fill="#e4c05c"/><path d="m467.863281 406.070312v44.136719c0 9.710938-19.773437 17.65625-44.140625 17.65625-24.363281 0-44.136718-7.945312-44.136718-17.65625v-44.136719c0 9.710938 19.773437 17.652344 44.136718 17.652344 24.367188 0 44.140625-7.941406 44.140625-17.652344zm0 0" fill="#b19046"/><path d="m467.863281 450.207031v44.136719c0 9.710938-19.773437 17.65625-44.140625 17.65625-24.363281 0-44.136718-7.945312-44.136718-17.65625v-44.136719c0 9.710938 19.773437 17.65625 44.136718 17.65625 24.367188 0 44.140625-7.945312 44.140625-17.65625zm0 0" fill="#e4c05c"/><path d="m317.792969 35.308594h123.585937l70.621094 70.621094v167.726562c0 4.875-3.953125 8.828125-8.828125 8.828125h-167.722656c-4.875 0-8.828125-3.953125-8.828125-8.828125v-26.484375zm0 0" fill="#f3d55b"/><path d="m256 397.242188c-4.875 0-8.828125-3.953126-8.828125-8.828126v-141.242187c0-4.875 3.953125-8.828125 8.828125-8.828125s8.828125 3.953125 8.828125 8.828125v141.242187c0 4.875-3.953125 8.828126-8.828125 8.828126zm0 0" fill="#cc66a1"/><path d="m423.722656 397.242188c-4.875 0-8.824218-3.953126-8.824218-8.828126v-35.3125c0-4.875-3.953126-8.824218-8.828126-8.824218h-300.140624c-4.875 0-8.828126 3.949218-8.828126 8.824218v35.3125c0 4.875-3.949218 8.828126-8.824218 8.828126s-8.828125-3.953126-8.828125-8.828126v-35.3125c0-14.625 11.855469-26.480468 26.480469-26.480468h300.140624c14.613282.027344 26.453126 11.867187 26.480469 26.480468v35.3125c0 4.875-3.953125 8.828126-8.828125 8.828126zm0 0" fill="#cc66a1"/><path d="m132.414062 406.070312c0-9.753906-19.761718-17.65625-44.136718-17.65625-24.378906 0-44.140625 7.902344-44.140625 17.65625 0 9.75 19.761719 17.652344 44.140625 17.652344 24.375 0 44.136718-7.902344 44.136718-17.652344zm0 0" fill="#e4c05c"/><path d="m300.136719 406.070312c0-9.753906-19.761719-17.65625-44.136719-17.65625s-44.136719 7.902344-44.136719 17.65625c0 9.75 19.761719 17.652344 44.136719 17.652344s44.136719-7.902344 44.136719-17.652344zm0 0" fill="#e4c05c"/><path d="m467.863281 406.070312c0-9.753906-19.761719-17.65625-44.140625-17.65625-24.375 0-44.136718 7.902344-44.136718 17.65625 0 9.75 19.761718 17.652344 44.136718 17.652344 24.378906 0 44.140625-7.902344 44.140625-17.652344zm0 0" fill="#e4c05c"/><path d="m185.378906 247.171875v26.484375c0 4.875-3.953125 8.828125-8.828125 8.828125h-167.722656c-4.875 0-8.828125-3.953125-8.828125-8.828125v-229.519531c0-4.875 3.953125-8.828125 8.828125-8.828125h105.929687l44.140626 44.140625zm0 0" fill="#f3d55b"/><path d="m114.757812 35.308594v61.792968c0 4.878907 3.953126 8.828126 8.828126 8.828126h44.136718l1.5625-21.449219zm0 0" fill="#f5efca"/><g fill="#802f34"><path d="m79.449219 105.929688h-44.140625c-4.875 0-8.824219-3.949219-8.824219-8.828126 0-4.875 3.949219-8.824218 8.824219-8.824218h44.140625c4.875 0 8.828125 3.949218 8.828125 8.824218 0 4.878907-3.953125 8.828126-8.828125 8.828126zm0 0"/><path d="m79.449219 150.070312h-44.140625c-4.875 0-8.824219-3.953124-8.824219-8.828124s3.949219-8.828126 8.824219-8.828126h44.140625c4.875 0 8.828125 3.953126 8.828125 8.828126s-3.953125 8.828124-8.828125 8.828124zm0 0"/><path d="m123.585938 194.207031h-88.277344c-4.875 0-8.824219-3.953125-8.824219-8.828125s3.949219-8.828125 8.824219-8.828125h88.277344c4.875 0 8.828124 3.953125 8.828124 8.828125s-3.953124 8.828125-8.828124 8.828125zm0 0"/><path d="m123.585938 238.34375h-88.277344c-4.875 0-8.824219-3.949219-8.824219-8.828125 0-4.875 3.949219-8.824219 8.824219-8.824219h88.277344c4.875 0 8.828124 3.949219 8.828124 8.824219 0 4.878906-3.953124 8.828125-8.828124 8.828125zm0 0"/></g><path d="m512 105.929688h-61.976562c-4.773438 0-8.644532-3.867188-8.644532-8.640626v-61.980468zm0 0" fill="#f5efca"/><path d="m406.070312 105.929688h-17.65625c-4.875 0-8.828124-3.949219-8.828124-8.828126 0-4.875 3.953124-8.824218 8.828124-8.824218h17.65625c4.875 0 8.828126 3.949218 8.828126 8.824218 0 4.878907-3.953126 8.828126-8.828126 8.828126zm0 0" fill="#802f34"/><path d="m406.070312 150.070312h-17.65625c-4.875 0-8.828124-3.953124-8.828124-8.828124s3.953124-8.828126 8.828124-8.828126h17.65625c4.875 0 8.828126 3.953126 8.828126 8.828126s-3.953126 8.828124-8.828126 8.828124zm0 0" fill="#802f34"/><path d="m476.691406 194.207031h-88.277344c-4.875 0-8.828124-3.953125-8.828124-8.828125s3.953124-8.828125 8.828124-8.828125h88.277344c4.875 0 8.824219 3.953125 8.824219 8.828125s-3.949219 8.828125-8.824219 8.828125zm0 0" fill="#802f34"/><path d="m476.691406 238.34375h-88.277344c-4.875 0-8.828124-3.949219-8.828124-8.828125 0-4.875 3.953124-8.824219 8.828124-8.824219h88.277344c4.875 0 8.824219 3.949219 8.824219 8.824219 0 4.878906-3.949219 8.828125-8.824219 8.828125zm0 0" fill="#802f34"/><path d="m353.101562 70.621094v167.722656c0 4.875-3.949218 8.828125-8.824218 8.828125h-176.554688c-4.875 0-8.824218-3.953125-8.824218-8.828125v-229.515625c0-4.875 3.949218-8.828125 8.824218-8.828125h114.761719zm0 0" fill="#f0c419"/><path d="m282.484375 0v61.792969c0 4.875 3.949219 8.828125 8.824219 8.828125h61.792968zm0 0" fill="#f9eab0"/><path d="m273.65625 195.566406c8.828125-8.148437 26.480469-24.445312 26.480469-48.894531v-32.523437s0-.0625 0-.078126c-28.421875-10.863281-59.851563-10.863281-88.273438 0v32.589844c0 24.453125 17.652344 40.75 26.480469 48.898438l17.65625 16.304687zm0 0" fill="#ecf0f1"/></svg>