<svg height="512pt" viewBox="0 0 512 512" width="512pt" xmlns="http://www.w3.org/2000/svg"><path d="m18.757812 0h254.898438c9.75 0 17.652344 7.90625 17.652344 17.65625v475.585938c0 10.359374-8.398438 18.757812-18.757813 18.757812h-253.792969c-10.359374 0-18.757812-8.398438-18.757812-18.757812v-474.484376c0-10.359374 8.398438-18.757812 18.757812-18.757812zm0 0" fill="#95a5a5"/><path d="m0 70.621094h291.308594v335.449218h-291.308594zm0 0" fill="#35495e"/><path d="m291.308594 247.171875v158.898437h-291.308594v-94.632812c54.554688-53.761719 148.039062-105.667969 291.308594-64.265625zm0 0" fill="#2c3e50"/><path d="m211.863281 264.828125c-3.101562.003906-5.976562-1.625-7.574219-4.28125l-23.898437-39.855469h-60.625l-23.925781 39.855469c-2.550782 4.078125-7.902344 5.363281-12.027344 2.882813-4.128906-2.480469-5.507812-7.804688-3.101562-11.976563l23.90625-39.839844c3.199218-5.3125 8.945312-8.5625 15.148437-8.578125h60.609375c6.207031.015625 11.953125 3.273438 15.15625 8.589844l23.894531 39.828125c1.640625 2.726563 1.683594 6.125.117188 8.894531-1.566407 2.765625-4.5 4.480469-7.679688 4.480469zm0 0" fill="#7f8c8d"/><path d="m97.101562 441.378906h88.277344c9.75 0 17.65625 7.90625 17.65625 17.65625s-7.90625 17.65625-17.65625 17.65625h-88.277344c-9.75 0-17.652343-7.90625-17.652343-17.65625s7.902343-17.65625 17.652343-17.65625zm0 0" fill="#7f8c8d"/><path d="m176.550781 44.136719h-70.621093c-4.875 0-8.828126-3.949219-8.828126-8.828125 0-4.875 3.953126-8.824219 8.828126-8.824219h70.621093c4.875 0 8.828125 3.949219 8.828125 8.824219 0 4.878906-3.953125 8.828125-8.828125 8.828125zm0 0" fill="#7f8c8d"/><path d="m199.132812 335.449219h-98.128906c-7.609375.007812-14.367187-4.859375-16.769531-12.078125l-18.601563-55.789063c-.882812-2.6875-.425781-5.632812 1.230469-7.925781 1.65625-2.289062 4.3125-3.648438 7.136719-3.65625h152.136719c2.824219.011719 5.472656 1.375 7.125 3.664062 1.652343 2.292969 2.105469 5.234376 1.226562 7.917969l-18.601562 55.789063c-2.402344 7.214844-9.152344 12.078125-16.753907 12.078125zm0 0" fill="#bdc3c7"/><path d="m114.757812 308.964844c-4.875 0-8.828124-3.953125-8.828124-8.828125v-8.828125c0-4.875 3.953124-8.824219 8.828124-8.824219s8.828126 3.949219 8.828126 8.824219v8.828125c0 4.875-3.953126 8.828125-8.828126 8.828125zm0 0" fill="#95a5a5"/><path d="m150.070312 308.964844c-4.875 0-8.828124-3.953125-8.828124-8.828125v-8.828125c0-4.875 3.953124-8.824219 8.828124-8.824219s8.828126 3.949219 8.828126 8.824219v8.828125c0 4.875-3.953126 8.828125-8.828126 8.828125zm0 0" fill="#95a5a5"/><path d="m185.378906 308.964844c-4.875 0-8.828125-3.953125-8.828125-8.828125v-8.828125c0-4.875 3.953125-8.824219 8.828125-8.824219s8.828125 3.949219 8.828125 8.824219v8.828125c0 4.875-3.953125 8.828125-8.828125 8.828125zm0 0" fill="#95a5a5"/><path d="m291.308594 44.136719h194.207031c14.628906 0 26.484375 11.859375 26.484375 26.484375v370.757812c0 14.625-11.855469 26.484375-26.484375 26.484375h-194.207031zm0 0" fill="#b0d3f0"/><path d="m406.070312 44.136719h61.792969v423.726562h-61.792969zm0 0" fill="#285680"/><g fill="#804169"><path d="m344.277344 176.550781c-3.570313 0-6.789063-2.152343-8.15625-5.449219-1.363282-3.296874-.609375-7.09375 1.914062-9.617187l26.480469-26.484375c3.464844-3.34375 8.972656-3.296875 12.375.109375 3.40625 3.402344 3.453125 8.910156.109375 12.375l-26.484375 26.480469c-1.652344 1.65625-3.898437 2.585937-6.238281 2.585937zm0 0"/><path d="m370.757812 176.550781c-2.339843 0-4.585937-.929687-6.242187-2.585937l-26.480469-26.480469c-3.347656-3.464844-3.296875-8.972656.105469-12.375 3.40625-3.40625 8.914063-3.453125 12.375-.109375l26.484375 26.484375c2.523438 2.523437 3.277344 6.320313 1.914062 9.617187-1.367187 3.296876-4.585937 5.449219-8.15625 5.449219zm0 0"/><path d="m344.277344 238.34375c-3.570313 0-6.789063-2.152344-8.15625-5.449219-1.363282-3.296875-.609375-7.09375 1.914062-9.617187l26.480469-26.484375c3.464844-3.34375 8.972656-3.296875 12.375.109375 3.40625 3.402344 3.453125 8.910156.109375 12.375l-26.484375 26.480468c-1.652344 1.65625-3.898437 2.585938-6.238281 2.585938zm0 0"/><path d="m370.757812 238.34375c-2.339843 0-4.585937-.929688-6.242187-2.585938l-26.480469-26.480468c-3.347656-3.464844-3.296875-8.972656.105469-12.375 3.40625-3.40625 8.914063-3.453125 12.375-.109375l26.484375 26.484375c2.523438 2.523437 3.277344 6.320312 1.914062 9.617187-1.367187 3.296875-4.585937 5.449219-8.15625 5.449219zm0 0"/><path d="m344.277344 114.757812c-3.570313 0-6.789063-2.152343-8.15625-5.449218-1.363282-3.296875-.609375-7.09375 1.914062-9.617188l26.480469-26.484375c3.464844-3.34375 8.972656-3.296875 12.375.109375 3.40625 3.402344 3.453125 8.910156.109375 12.371094l-26.484375 26.484375c-1.652344 1.65625-3.898437 2.585937-6.238281 2.585937zm0 0"/><path d="m370.757812 114.757812c-2.339843 0-4.585937-.929687-6.242187-2.585937l-26.480469-26.484375c-3.347656-3.460938-3.296875-8.96875.105469-12.371094 3.40625-3.40625 8.914063-3.453125 12.375-.109375l26.484375 26.484375c2.523438 2.523438 3.277344 6.320313 1.914062 9.617188-1.367187 3.296875-4.585937 5.449218-8.15625 5.449218zm0 0"/></g><path d="m141.242188 181.707031c-4.683594.015625-9.183594-1.839843-12.492188-5.15625l-11.40625-11.40625c-3.34375-3.460937-3.296875-8.96875.109375-12.371093 3.40625-3.40625 8.910156-3.453126 12.375-.109376l11.414063 11.398438 37.90625-37.890625c3.460937-3.34375 8.96875-3.296875 12.375.109375 3.402343 3.402344 3.453124 8.910156.105468 12.375l-37.898437 37.894531c-3.308594 3.316407-7.804688 5.171875-12.488281 5.15625zm0 0" fill="#4fba6f"/></svg>