<svg height="512pt" viewBox="-37 0 512 512" width="512pt" xmlns="http://www.w3.org/2000/svg"><path d="m347.117188 225.628906v43.386719c0 4.792969-3.882813 8.679687-8.675782 8.679687h-43.390625c-4.792969 0-8.679687-3.886718-8.679687-8.679687v-26.03125" fill="#7f8c8d"/><path d="m104.136719 225.628906v43.386719c0 4.792969 3.882812 8.679687 8.675781 8.679687h43.390625c4.792969 0 8.679687-3.886718 8.679687-8.679687v-26.03125" fill="#7f8c8d"/><path d="m121.492188 0h208.269531c9.585937 0 17.355469 7.769531 17.355469 17.355469v208.273437c0 9.582032-7.769532 17.355469-17.355469 17.355469h-208.269531c-9.585938 0-17.355469-7.773437-17.355469-17.355469v-208.273437c0-9.585938 7.769531-17.355469 17.355469-17.355469zm0 0" fill="#bdc3c7"/><path d="m156.203125 34.710938h138.847656c9.585938 0 17.355469 7.769531 17.355469 17.355468v138.847656c0 9.585938-7.769531 17.355469-17.355469 17.355469h-138.847656c-9.585937 0-17.355469-7.769531-17.355469-17.355469v-138.847656c0-9.585937 7.769532-17.355468 17.355469-17.355468zm0 0" fill="#95a5a5"/><path d="m225.628906 112.8125c-14.378906 0-26.035156-11.65625-26.035156-26.03125 0-14.378906 11.65625-26.035156 26.035156-26.035156 14.375 0 26.03125 11.65625 26.03125 26.035156 0 6.902344-2.742187 13.523438-7.625 18.40625-4.882812 4.882812-11.503906 7.625-18.40625 7.625zm0-34.710938c-4.792968 0-8.679687 3.886719-8.679687 8.679688s3.886719 8.675781 8.679687 8.675781c4.789063 0 8.675782-3.882812 8.675782-8.675781s-3.886719-8.679688-8.675782-8.679688zm0 0" fill="#f3d55b"/><path d="m225.628906 182.238281c-4.792968 0-8.679687-3.886719-8.679687-8.679687v-69.421875c0-4.792969 3.886719-8.679688 8.679687-8.679688 4.789063 0 8.675782 3.886719 8.675782 8.679688v69.421875c0 4.792968-3.886719 8.679687-8.675782 8.679687zm0 0" fill="#f3d55b"/><path d="m251.660156 173.558594h-26.03125c-4.792968 0-8.679687-3.882813-8.679687-8.675782 0-4.792968 3.886719-8.679687 8.679687-8.679687h26.03125c4.792969 0 8.679688 3.886719 8.679688 8.679687 0 4.792969-3.886719 8.675782-8.679688 8.675782zm0 0" fill="#f3d55b"/><path d="m242.984375 147.527344h-17.355469c-4.792968 0-8.679687-3.886719-8.679687-8.679688 0-4.792968 3.886719-8.679687 8.679687-8.679687h17.355469c4.792969 0 8.675781 3.886719 8.675781 8.679687 0 4.792969-3.882812 8.679688-8.675781 8.679688zm0 0" fill="#f3d55b"/><path d="m34.710938 433.898438h277.695312v69.421874h-277.695312zm0 0" fill="#285680"/><path d="m86.78125 477.289062h-17.359375c-4.789063 0-8.675781-3.886718-8.675781-8.679687s3.886718-8.675781 8.675781-8.675781h17.359375c4.792969 0 8.675781 3.882812 8.675781 8.675781s-3.882812 8.679687-8.675781 8.679687zm0 0" fill="#2c3e50"/><path d="m138.847656 477.289062h-17.355468c-4.792969 0-8.679688-3.886718-8.679688-8.679687s3.886719-8.675781 8.679688-8.675781h17.355468c4.792969 0 8.679688 3.882812 8.679688 8.675781s-3.886719 8.679687-8.679688 8.679687zm0 0" fill="#2c3e50"/><path d="m190.914062 477.289062h-17.355468c-4.792969 0-8.675782-3.886718-8.675782-8.679687s3.882813-8.675781 8.675782-8.675781h17.355468c4.792969 0 8.679688 3.882812 8.679688 8.675781s-3.886719 8.679687-8.679688 8.679687zm0 0" fill="#2c3e50"/><path d="m277.695312 477.289062h-52.066406c-4.792968 0-8.679687-3.886718-8.679687-8.679687s3.886719-8.675781 8.679687-8.675781h52.066406c4.792969 0 8.675782 3.882812 8.675782 8.675781s-3.882813 8.679687-8.675782 8.679687zm0 0" fill="#2c3e50"/><path d="m34.710938 433.898438v-52.25c0-9.484376 7.691406-17.175782 17.175781-17.175782h243.347656c9.484375 0 17.171875 7.691406 17.171875 17.175782v52.25" fill="#4482c3"/><g fill="#2c3e50"><path d="m277.695312 407.863281h-17.355468c-4.792969 0-8.679688-3.882812-8.679688-8.675781s3.886719-8.679688 8.679688-8.679688h17.355468c4.792969 0 8.675782 3.886719 8.675782 8.679688s-3.882813 8.675781-8.675782 8.675781zm0 0"/><path d="m121.492188 407.863281h-52.070313c-4.789063 0-8.675781-3.882812-8.675781-8.675781s3.886718-8.679688 8.675781-8.679688h52.070313c4.792968 0 8.675781 3.886719 8.675781 8.679688s-3.882813 8.675781-8.675781 8.675781zm0 0"/><path d="m164.882812 399.1875c0 4.792969-3.886718 8.675781-8.679687 8.675781s-8.675781-3.882812-8.675781-8.675781 3.882812-8.679688 8.675781-8.679688 8.679687 3.886719 8.679687 8.679688zm0 0"/><path d="m199.59375 399.1875c0 4.792969-3.886719 8.675781-8.679688 8.675781-4.792968 0-8.675781-3.882812-8.675781-8.675781s3.882813-8.679688 8.675781-8.679688c4.792969 0 8.679688 3.886719 8.679688 8.679688zm0 0"/><path d="m234.304688 399.1875c0 4.792969-3.886719 8.675781-8.675782 8.675781-4.792968 0-8.679687-3.882812-8.679687-8.675781s3.886719-8.679688 8.679687-8.679688c4.789063 0 8.675782 3.886719 8.675782 8.679688zm0 0"/></g><path d="m225.628906 295.050781c-4.792968 0-8.679687-3.886719-8.679687-8.679687v-8.675782c0-4.792968 3.886719-8.679687 8.679687-8.679687 4.789063 0 8.675782 3.886719 8.675782 8.679687v8.675782c0 4.792968-3.886719 8.679687-8.675782 8.679687zm0 0" fill="#ff5364"/><path d="m225.628906 338.441406c-4.792968 0-8.679687-3.886718-8.679687-8.679687v-8.675781c0-4.792969 3.886719-8.679688 8.679687-8.679688 4.789063 0 8.675782 3.886719 8.675782 8.679688v8.675781c0 4.792969-3.886719 8.679687-8.675782 8.679687zm0 0" fill="#ff5364"/><path d="m355.796875 459.933594c-2.300781 0-4.507813-.917969-6.136719-2.542969l-36.203125-36.207031c-12.972656-12.972656-12.972656-34.007813 0-46.980469 12.972657-12.972656 34.007813-12.972656 46.980469 0l36.207031 36.203125c3.289063 3.40625 3.242188 8.816406-.105469 12.164062-3.347656 3.347657-8.761718 3.394532-12.164062.105469l-36.207031-36.203125c-6.234375-5.972656-16.097657-5.867187-22.203125.238282-6.101563 6.105468-6.210938 15.96875-.238282 22.203124l36.207032 36.203126c2.480468 2.484374 3.222656 6.214843 1.878906 9.457031-1.34375 3.242187-4.507812 5.355469-8.015625 5.359375zm0 0" fill="#bdc3c7"/><path d="m338.441406 512h-329.761718c-4.792969 0-8.679688-3.886719-8.679688-8.679688 0-4.789062 3.886719-8.675781 8.679688-8.675781h329.761718c4.792969 0 8.675782 3.886719 8.675782 8.675781 0 4.792969-3.882813 8.679688-8.675782 8.679688zm0 0" fill="#2c3e50"/><path d="m355.808594 451.238281 34.675781-34.675781c4.800781-4.800781 12.589844-4.800781 17.390625 0l26 26c4.800781 4.804688 4.800781 12.589844 0 17.390625l-34.675781 34.675781c-4.804688 4.804688-12.589844 4.804688-17.390625 0l-26-26c-4.800782-4.800781-4.800782-12.585937 0-17.390625zm0 0" fill="#f0c419"/></svg>